<?xml version="1.0" encoding="utf-8" standalone="no"?>
<!DOCTYPE svg PUBLIC "-//W3C//DTD SVG 1.1//EN"
  "http://www.w3.org/Graphics/SVG/1.1/DTD/svg11.dtd">
<svg xmlns:xlink="http://www.w3.org/1999/xlink" width="460.8pt" height="345.6pt" viewBox="0 0 460.8 345.6" xmlns="http://www.w3.org/2000/svg" version="1.1">
 <metadata>
  <rdf:RDF xmlns:dc="http://purl.org/dc/elements/1.1/" xmlns:cc="http://creativecommons.org/ns#" xmlns:rdf="http://www.w3.org/1999/02/22-rdf-syntax-ns#">
   <cc:Work>
    <dc:type rdf:resource="http://purl.org/dc/dcmitype/StillImage"/>
    <dc:date>2022-12-17T15:06:12.042538</dc:date>
    <dc:format>image/svg+xml</dc:format>
    <dc:creator>
     <cc:Agent>
      <dc:title>Matplotlib v3.6.0, https://matplotlib.org/</dc:title>
     </cc:Agent>
    </dc:creator>
   </cc:Work>
  </rdf:RDF>
 </metadata>
 <defs>
  <style type="text/css">*{stroke-linejoin: round; stroke-linecap: butt}</style>
 </defs>
 <g id="figure_1">
  <g id="patch_1">
   <path d="M 0 345.6 
L 460.8 345.6 
L 460.8 0 
L 0 0 
z
" style="fill: #ffffff"/>
  </g>
  <g id="axes_1">
   <g id="patch_2">
    <path d="M 57.6 307.584 
L 414.72 307.584 
L 414.72 41.472 
L 57.6 41.472 
z
" style="fill: #ffffff"/>
   </g>
   <g id="patch_3">
    <path d="M 231.889666 178.464381 
L 231.878988 177.612197 
L 231.935824 176.711373 
L 232.059277 175.776116 
L 232.247401 174.821175 
L 232.49723 173.861611 
L 232.804822 172.912556 
L 233.165328 171.988978 
L 233.573061 171.105441 
L 234.021592 170.275881 
L 234.503847 169.513378 
L 235.01222 168.82996 
L 235.538695 168.236403 
L 236.074968 167.742068 
L 236.612582 167.354751 
L 237.143058 167.080561 
L 237.658031 166.923821 
L 238.149379 166.887004 
L 238.609354 166.97069 
L 239.030701 167.173559 
L 239.406775 167.492412 
L 239.731645 167.922221 
L 240.000189 168.456206 
L 240.20817 169.085948 
L 240.352309 169.801513 
L 240.430334 170.591619 
L 240.441012 171.443803 
L 240.384176 172.344627 
L 240.260723 173.279884 
L 240.072599 174.234825 
L 239.82277 175.194389 
L 239.515178 176.143444 
L 239.154672 177.067022 
L 238.746939 177.950559 
L 238.298408 178.780119 
L 237.816153 179.542622 
L 237.30778 180.22604 
L 236.781305 180.819597 
L 236.245032 181.313932 
L 235.707418 181.701249 
L 235.176942 181.975439 
L 234.661969 182.132179 
L 234.170621 182.168996 
L 233.710646 182.08531 
L 233.289299 181.882441 
L 232.913225 181.563588 
L 232.588355 181.133779 
L 232.319811 180.599794 
L 232.11183 179.970052 
L 231.967691 179.254487 
L 231.889666 178.464381 
L 231.889666 178.464381 
z
" clip-path="url(#p82a3e9b7e1)" style="fill: none; opacity: 0"/>
   </g>
   <g id="patch_4">
    <path d="M 73.832727 277.969123 
L 74.81826 269.266995 
L 78.348249 259.070776 
L 84.367023 247.541267 
L 92.779663 234.860295 
L 103.453496 221.227847 
L 116.220191 206.858914 
L 130.878407 191.980103 
L 147.196978 176.826063 
L 164.918548 161.63578 
L 183.763639 146.648816 
L 203.435052 132.101522 
L 223.622556 118.22332 
L 244.007784 105.233077 
L 264.269247 93.335655 
L 284.087411 82.718686 
L 303.149731 73.549604 
L 321.155582 65.973011 
L 337.821003 60.108396 
L 352.883169 56.048246 
L 366.104541 53.856593 
L 377.27661 53.568 
L 386.223185 55.187018 
L 392.803175 58.688115 
L 396.912808 64.016076 
L 398.487273 71.086877 
L 397.50174 79.789005 
L 393.971751 89.985224 
L 387.952977 101.514733 
L 379.540337 114.195705 
L 368.866504 127.828153 
L 356.099809 142.197086 
L 341.441593 157.075897 
L 325.123022 172.229937 
L 307.401452 187.42022 
L 288.556361 202.407184 
L 268.884948 216.954478 
L 248.697444 230.83268 
L 228.312216 243.822923 
L 208.050753 255.720345 
L 188.232589 266.337314 
L 169.170269 275.506396 
L 151.164418 283.082989 
L 134.498997 288.947604 
L 119.436831 293.007754 
L 106.215459 295.199407 
L 95.04339 295.488 
L 86.096815 293.868982 
L 79.516825 290.367885 
L 75.407192 285.039924 
L 73.832727 277.969123 
L 73.832727 277.969123 
z
" clip-path="url(#p82a3e9b7e1)" style="fill: none; opacity: 0"/>
   </g>
   <g id="patch_5">
    <path d="M 155.985465 227.989817 
L 156.179509 216.35399 
L 157.634892 204.058541 
L 160.328664 191.297378 
L 164.218341 178.271752 
L 169.242581 165.187084 
L 175.322148 152.249729 
L 182.361165 139.663715 
L 190.248621 127.627532 
L 198.860128 116.330997 
L 208.059876 105.952263 
L 217.702779 96.65501 
L 227.636764 88.585861 
L 237.705165 81.87207 
L 247.749199 76.619519 
L 257.610463 72.911043 
L 267.133441 70.805127 
L 276.167949 70.334983 
L 284.571509 71.508025 
L 292.211589 74.305753 
L 298.967703 78.684046 
L 304.733301 84.573856 
L 309.417458 91.882296 
L 312.946301 100.494108 
L 315.264178 110.273479 
L 316.334535 121.066183 
L 316.140491 132.70201 
L 314.685108 144.997459 
L 311.991336 157.758622 
L 308.101659 170.784248 
L 303.077419 183.868916 
L 296.997852 196.806271 
L 289.958835 209.392285 
L 282.071379 221.428468 
L 273.459872 232.725003 
L 264.260124 243.103737 
L 254.617221 252.40099 
L 244.683236 260.470139 
L 234.614835 267.18393 
L 224.570801 272.436481 
L 214.709537 276.144957 
L 205.186559 278.250873 
L 196.152051 278.721017 
L 187.748491 277.547975 
L 180.108411 274.750247 
L 173.352297 270.371954 
L 167.586699 264.482144 
L 162.902542 257.173704 
L 159.373699 248.561892 
L 157.055822 238.782521 
L 155.985465 227.989817 
L 155.985465 227.989817 
z
" clip-path="url(#p82a3e9b7e1)" style="fill: none; opacity: 0"/>
   </g>
   <g id="matplotlib.axis_1">
    <g id="xtick_1">
     <g id="line2d_1">
      <path d="M 64.753275 307.584 
L 64.753275 41.472 
" clip-path="url(#p82a3e9b7e1)" style="fill: none; stroke: #b0b0b0; stroke-width: 0.8; stroke-linecap: square"/>
     </g>
     <g id="line2d_2">
      <defs>
       <path id="m3bdb3ebae8" d="M 0 0 
L 0 3.5 
" style="stroke: #000000; stroke-width: 0.8"/>
      </defs>
      <g>
       <use xlink:href="#m3bdb3ebae8" x="64.753275" y="307.584" style="stroke: #000000; stroke-width: 0.8"/>
      </g>
     </g>
     <g id="text_1">
      <!-- $\mathdefault{−0.20}$ -->
      <g transform="translate(52.023196 321.502498) scale(0.1 -0.1)">
       <defs>
        <path id="CMSY10-0" d="M 4218 1472 
C 4326 1472 4442 1472 4442 1600 
C 4442 1728 4326 1728 4218 1728 
L 755 1728 
C 646 1728 531 1728 531 1600 
C 531 1472 646 1472 755 1472 
L 4218 1472 
z
" transform="scale(0.015625)"/>
        <path id="CMR17-30" d="M 2688 2025 
C 2688 2416 2682 3080 2413 3591 
C 2176 4039 1798 4198 1466 4198 
C 1158 4198 768 4058 525 3597 
C 269 3118 243 2524 243 2025 
C 243 1661 250 1106 448 619 
C 723 -39 1216 -128 1466 -128 
C 1760 -128 2208 -7 2470 600 
C 2662 1042 2688 1559 2688 2025 
z
M 1466 -26 
C 1056 -26 813 325 723 812 
C 653 1188 653 1738 653 2096 
C 653 2588 653 2997 736 3387 
C 858 3929 1216 4096 1466 4096 
C 1728 4096 2067 3923 2189 3400 
C 2272 3036 2278 2607 2278 2096 
C 2278 1680 2278 1169 2202 792 
C 2067 95 1690 -26 1466 -26 
z
" transform="scale(0.015625)"/>
        <path id="CMMI12-3a" d="M 1178 307 
C 1178 492 1024 619 870 619 
C 685 619 557 466 557 313 
C 557 128 710 0 864 0 
C 1050 0 1178 153 1178 307 
z
" transform="scale(0.015625)"/>
        <path id="CMR17-32" d="M 2669 989 
L 2554 989 
C 2490 536 2438 459 2413 420 
C 2381 369 1920 369 1830 369 
L 602 369 
C 832 619 1280 1072 1824 1597 
C 2214 1967 2669 2402 2669 3035 
C 2669 3790 2067 4224 1395 4224 
C 691 4224 262 3604 262 3030 
C 262 2780 448 2748 525 2748 
C 589 2748 781 2787 781 3010 
C 781 3207 614 3264 525 3264 
C 486 3264 448 3258 422 3245 
C 544 3790 915 4058 1306 4058 
C 1862 4058 2227 3617 2227 3035 
C 2227 2479 1901 2000 1536 1584 
L 262 146 
L 262 0 
L 2515 0 
L 2669 989 
z
" transform="scale(0.015625)"/>
       </defs>
       <use xlink:href="#CMSY10-0" transform="scale(0.996264)"/>
       <use xlink:href="#CMR17-30" transform="translate(77.487468 0) scale(0.996264)"/>
       <use xlink:href="#CMMI12-3a" transform="translate(123.177945 0) scale(0.996264)"/>
       <use xlink:href="#CMR17-32" transform="translate(150.275122 0) scale(0.996264)"/>
       <use xlink:href="#CMR17-30" transform="translate(195.965599 0) scale(0.996264)"/>
      </g>
     </g>
    </g>
    <g id="xtick_2">
     <g id="line2d_3">
      <path d="M 104.490296 307.584 
L 104.490296 41.472 
" clip-path="url(#p82a3e9b7e1)" style="fill: none; stroke: #b0b0b0; stroke-width: 0.8; stroke-linecap: square"/>
     </g>
     <g id="line2d_4">
      <g>
       <use xlink:href="#m3bdb3ebae8" x="104.490296" y="307.584" style="stroke: #000000; stroke-width: 0.8"/>
      </g>
     </g>
     <g id="text_2">
      <!-- $\mathdefault{−0.15}$ -->
      <g transform="translate(91.760217 321.502498) scale(0.1 -0.1)">
       <defs>
        <path id="CMR17-31" d="M 1702 4058 
C 1702 4192 1696 4192 1606 4192 
C 1357 3916 979 3827 621 3827 
C 602 3827 570 3827 563 3808 
C 557 3795 557 3782 557 3648 
C 755 3648 1088 3686 1344 3839 
L 1344 461 
C 1344 236 1331 160 781 160 
L 589 160 
L 589 0 
C 896 0 1216 0 1523 0 
C 1830 0 2150 0 2458 0 
L 2458 160 
L 2266 160 
C 1715 160 1702 230 1702 458 
L 1702 4058 
z
" transform="scale(0.015625)"/>
        <path id="CMR17-35" d="M 730 3692 
C 794 3666 1056 3584 1325 3584 
C 1920 3584 2246 3911 2432 4100 
C 2432 4157 2432 4192 2394 4192 
C 2387 4192 2374 4192 2323 4163 
C 2099 4058 1837 3973 1517 3973 
C 1325 3973 1037 3999 723 4139 
C 653 4171 640 4171 634 4171 
C 602 4171 595 4164 595 4037 
L 595 2203 
C 595 2089 595 2057 659 2057 
C 691 2057 704 2070 736 2114 
C 941 2401 1222 2522 1542 2522 
C 1766 2522 2246 2382 2246 1289 
C 2246 1085 2246 715 2054 421 
C 1894 159 1645 25 1370 25 
C 947 25 518 320 403 814 
C 429 807 480 795 506 795 
C 589 795 749 840 749 1038 
C 749 1210 627 1280 506 1280 
C 358 1280 262 1190 262 1011 
C 262 454 704 -128 1382 -128 
C 2042 -128 2669 440 2669 1264 
C 2669 2030 2170 2624 1549 2624 
C 1222 2624 947 2503 730 2274 
L 730 3692 
z
" transform="scale(0.015625)"/>
       </defs>
       <use xlink:href="#CMSY10-0" transform="scale(0.996264)"/>
       <use xlink:href="#CMR17-30" transform="translate(77.487468 0) scale(0.996264)"/>
       <use xlink:href="#CMMI12-3a" transform="translate(123.177945 0) scale(0.996264)"/>
       <use xlink:href="#CMR17-31" transform="translate(150.275122 0) scale(0.996264)"/>
       <use xlink:href="#CMR17-35" transform="translate(195.965599 0) scale(0.996264)"/>
      </g>
     </g>
    </g>
    <g id="xtick_3">
     <g id="line2d_5">
      <path d="M 144.227317 307.584 
L 144.227317 41.472 
" clip-path="url(#p82a3e9b7e1)" style="fill: none; stroke: #b0b0b0; stroke-width: 0.8; stroke-linecap: square"/>
     </g>
     <g id="line2d_6">
      <g>
       <use xlink:href="#m3bdb3ebae8" x="144.227317" y="307.584" style="stroke: #000000; stroke-width: 0.8"/>
      </g>
     </g>
     <g id="text_3">
      <!-- $\mathdefault{−0.10}$ -->
      <g transform="translate(131.497238 321.502498) scale(0.1 -0.1)">
       <use xlink:href="#CMSY10-0" transform="scale(0.996264)"/>
       <use xlink:href="#CMR17-30" transform="translate(77.487468 0) scale(0.996264)"/>
       <use xlink:href="#CMMI12-3a" transform="translate(123.177945 0) scale(0.996264)"/>
       <use xlink:href="#CMR17-31" transform="translate(150.275122 0) scale(0.996264)"/>
       <use xlink:href="#CMR17-30" transform="translate(195.965599 0) scale(0.996264)"/>
      </g>
     </g>
    </g>
    <g id="xtick_4">
     <g id="line2d_7">
      <path d="M 183.964337 307.584 
L 183.964337 41.472 
" clip-path="url(#p82a3e9b7e1)" style="fill: none; stroke: #b0b0b0; stroke-width: 0.8; stroke-linecap: square"/>
     </g>
     <g id="line2d_8">
      <g>
       <use xlink:href="#m3bdb3ebae8" x="183.964337" y="307.584" style="stroke: #000000; stroke-width: 0.8"/>
      </g>
     </g>
     <g id="text_4">
      <!-- $\mathdefault{−0.05}$ -->
      <g transform="translate(171.234258 321.502498) scale(0.1 -0.1)">
       <use xlink:href="#CMSY10-0" transform="scale(0.996264)"/>
       <use xlink:href="#CMR17-30" transform="translate(77.487468 0) scale(0.996264)"/>
       <use xlink:href="#CMMI12-3a" transform="translate(123.177945 0) scale(0.996264)"/>
       <use xlink:href="#CMR17-30" transform="translate(150.275122 0) scale(0.996264)"/>
       <use xlink:href="#CMR17-35" transform="translate(195.965599 0) scale(0.996264)"/>
      </g>
     </g>
    </g>
    <g id="xtick_5">
     <g id="line2d_9">
      <path d="M 223.701358 307.584 
L 223.701358 41.472 
" clip-path="url(#p82a3e9b7e1)" style="fill: none; stroke: #b0b0b0; stroke-width: 0.8; stroke-linecap: square"/>
     </g>
     <g id="line2d_10">
      <g>
       <use xlink:href="#m3bdb3ebae8" x="223.701358" y="307.584" style="stroke: #000000; stroke-width: 0.8"/>
      </g>
     </g>
     <g id="text_5">
      <!-- $\mathdefault{0.00}$ -->
      <g transform="translate(214.845651 321.502498) scale(0.1 -0.1)">
       <use xlink:href="#CMR17-30" transform="scale(0.996264)"/>
       <use xlink:href="#CMMI12-3a" transform="translate(45.690477 0) scale(0.996264)"/>
       <use xlink:href="#CMR17-30" transform="translate(72.787654 0) scale(0.996264)"/>
       <use xlink:href="#CMR17-30" transform="translate(118.478131 0) scale(0.996264)"/>
      </g>
     </g>
    </g>
    <g id="xtick_6">
     <g id="line2d_11">
      <path d="M 263.438378 307.584 
L 263.438378 41.472 
" clip-path="url(#p82a3e9b7e1)" style="fill: none; stroke: #b0b0b0; stroke-width: 0.8; stroke-linecap: square"/>
     </g>
     <g id="line2d_12">
      <g>
       <use xlink:href="#m3bdb3ebae8" x="263.438378" y="307.584" style="stroke: #000000; stroke-width: 0.8"/>
      </g>
     </g>
     <g id="text_6">
      <!-- $\mathdefault{0.05}$ -->
      <g transform="translate(254.582671 321.502498) scale(0.1 -0.1)">
       <use xlink:href="#CMR17-30" transform="scale(0.996264)"/>
       <use xlink:href="#CMMI12-3a" transform="translate(45.690477 0) scale(0.996264)"/>
       <use xlink:href="#CMR17-30" transform="translate(72.787654 0) scale(0.996264)"/>
       <use xlink:href="#CMR17-35" transform="translate(118.478131 0) scale(0.996264)"/>
      </g>
     </g>
    </g>
    <g id="xtick_7">
     <g id="line2d_13">
      <path d="M 303.175399 307.584 
L 303.175399 41.472 
" clip-path="url(#p82a3e9b7e1)" style="fill: none; stroke: #b0b0b0; stroke-width: 0.8; stroke-linecap: square"/>
     </g>
     <g id="line2d_14">
      <g>
       <use xlink:href="#m3bdb3ebae8" x="303.175399" y="307.584" style="stroke: #000000; stroke-width: 0.8"/>
      </g>
     </g>
     <g id="text_7">
      <!-- $\mathdefault{0.10}$ -->
      <g transform="translate(294.319692 321.502498) scale(0.1 -0.1)">
       <use xlink:href="#CMR17-30" transform="scale(0.996264)"/>
       <use xlink:href="#CMMI12-3a" transform="translate(45.690477 0) scale(0.996264)"/>
       <use xlink:href="#CMR17-31" transform="translate(72.787654 0) scale(0.996264)"/>
       <use xlink:href="#CMR17-30" transform="translate(118.478131 0) scale(0.996264)"/>
      </g>
     </g>
    </g>
    <g id="xtick_8">
     <g id="line2d_15">
      <path d="M 342.91242 307.584 
L 342.91242 41.472 
" clip-path="url(#p82a3e9b7e1)" style="fill: none; stroke: #b0b0b0; stroke-width: 0.8; stroke-linecap: square"/>
     </g>
     <g id="line2d_16">
      <g>
       <use xlink:href="#m3bdb3ebae8" x="342.91242" y="307.584" style="stroke: #000000; stroke-width: 0.8"/>
      </g>
     </g>
     <g id="text_8">
      <!-- $\mathdefault{0.15}$ -->
      <g transform="translate(334.056713 321.502498) scale(0.1 -0.1)">
       <use xlink:href="#CMR17-30" transform="scale(0.996264)"/>
       <use xlink:href="#CMMI12-3a" transform="translate(45.690477 0) scale(0.996264)"/>
       <use xlink:href="#CMR17-31" transform="translate(72.787654 0) scale(0.996264)"/>
       <use xlink:href="#CMR17-35" transform="translate(118.478131 0) scale(0.996264)"/>
      </g>
     </g>
    </g>
    <g id="xtick_9">
     <g id="line2d_17">
      <path d="M 382.64944 307.584 
L 382.64944 41.472 
" clip-path="url(#p82a3e9b7e1)" style="fill: none; stroke: #b0b0b0; stroke-width: 0.8; stroke-linecap: square"/>
     </g>
     <g id="line2d_18">
      <g>
       <use xlink:href="#m3bdb3ebae8" x="382.64944" y="307.584" style="stroke: #000000; stroke-width: 0.8"/>
      </g>
     </g>
     <g id="text_9">
      <!-- $\mathdefault{0.20}$ -->
      <g transform="translate(373.793733 321.502498) scale(0.1 -0.1)">
       <use xlink:href="#CMR17-30" transform="scale(0.996264)"/>
       <use xlink:href="#CMMI12-3a" transform="translate(45.690477 0) scale(0.996264)"/>
       <use xlink:href="#CMR17-32" transform="translate(72.787654 0) scale(0.996264)"/>
       <use xlink:href="#CMR17-30" transform="translate(118.478131 0) scale(0.996264)"/>
      </g>
     </g>
    </g>
    <g id="text_10">
     <!-- x [m] -->
     <g transform="translate(225.36713 334.911657) scale(0.1 -0.1)">
      <defs>
       <path id="CMSS17-78" d="M 1587 1414 
L 2656 2739 
L 2099 2739 
L 1363 1777 
L 602 2739 
L 32 2739 
L 1139 1414 
L 0 0 
L 563 0 
L 1363 1121 
L 2195 0 
L 2758 0 
L 1587 1414 
z
" transform="scale(0.015625)"/>
       <path id="CMSS17-5b" d="M 1613 -1600 
L 1613 -1212 
L 1062 -1212 
L 1062 4352 
L 1613 4352 
L 1613 4741 
L 595 4741 
L 595 -1600 
L 1613 -1600 
z
" transform="scale(0.015625)"/>
       <path id="CMSS17-6d" d="M 4288 1877 
C 4288 2308 4179 2816 3462 2816 
C 2982 2816 2694 2516 2566 2331 
C 2451 2670 2182 2816 1798 2816 
C 1363 2816 1088 2568 941 2389 
L 941 2758 
L 474 2758 
L 474 0 
L 960 0 
L 960 1559 
C 960 1939 1101 2428 1555 2428 
C 2138 2428 2138 2016 2138 1829 
L 2138 0 
L 2624 0 
L 2624 1559 
C 2624 1939 2765 2428 3219 2428 
C 3802 2428 3802 2016 3802 1829 
L 3802 0 
L 4288 0 
L 4288 1877 
z
" transform="scale(0.015625)"/>
       <path id="CMSS17-5d" d="M 1146 4741 
L 128 4741 
L 128 4352 
L 678 4352 
L 678 -1212 
L 128 -1212 
L 128 -1600 
L 1146 -1600 
L 1146 4741 
z
" transform="scale(0.015625)"/>
      </defs>
      <use xlink:href="#CMSS17-78" transform="scale(0.996264)"/>
      <use xlink:href="#CMSS17-5b" transform="translate(74.229254 0) scale(0.996264)"/>
      <use xlink:href="#CMSS17-6d" transform="translate(101.414693 0) scale(0.996264)"/>
      <use xlink:href="#CMSS17-5d" transform="translate(175.643948 0) scale(0.996264)"/>
     </g>
    </g>
   </g>
   <g id="matplotlib.axis_2">
    <g id="ytick_1">
     <g id="line2d_19">
      <path d="M 57.6 301.436774 
L 414.72 301.436774 
" clip-path="url(#p82a3e9b7e1)" style="fill: none; stroke: #b0b0b0; stroke-width: 0.8; stroke-linecap: square"/>
     </g>
     <g id="line2d_20">
      <defs>
       <path id="m7e482e20c6" d="M 0 0 
L -3.5 0 
" style="stroke: #000000; stroke-width: 0.8"/>
      </defs>
      <g>
       <use xlink:href="#m7e482e20c6" x="57.6" y="301.436774" style="stroke: #000000; stroke-width: 0.8"/>
      </g>
     </g>
     <g id="text_11">
      <!-- $\mathdefault{−0.04}$ -->
      <g transform="translate(25.139842 304.896024) scale(0.1 -0.1)">
       <defs>
        <path id="CMR17-34" d="M 2150 4122 
C 2150 4256 2144 4256 2029 4256 
L 128 1254 
L 128 1088 
L 1779 1088 
L 1779 457 
C 1779 224 1766 160 1318 160 
L 1197 160 
L 1197 0 
C 1402 0 1747 0 1965 0 
C 2182 0 2528 0 2733 0 
L 2733 160 
L 2611 160 
C 2163 160 2150 224 2150 457 
L 2150 1088 
L 2803 1088 
L 2803 1254 
L 2150 1254 
L 2150 4122 
z
M 1798 3703 
L 1798 1254 
L 256 1254 
L 1798 3703 
z
" transform="scale(0.015625)"/>
       </defs>
       <use xlink:href="#CMSY10-0" transform="scale(0.996264)"/>
       <use xlink:href="#CMR17-30" transform="translate(77.487468 0) scale(0.996264)"/>
       <use xlink:href="#CMMI12-3a" transform="translate(123.177945 0) scale(0.996264)"/>
       <use xlink:href="#CMR17-30" transform="translate(150.275122 0) scale(0.996264)"/>
       <use xlink:href="#CMR17-34" transform="translate(195.965599 0) scale(0.996264)"/>
      </g>
     </g>
    </g>
    <g id="ytick_2">
     <g id="line2d_21">
      <path d="M 57.6 268.604601 
L 414.72 268.604601 
" clip-path="url(#p82a3e9b7e1)" style="fill: none; stroke: #b0b0b0; stroke-width: 0.8; stroke-linecap: square"/>
     </g>
     <g id="line2d_22">
      <g>
       <use xlink:href="#m7e482e20c6" x="57.6" y="268.604601" style="stroke: #000000; stroke-width: 0.8"/>
      </g>
     </g>
     <g id="text_12">
      <!-- $\mathdefault{−0.03}$ -->
      <g transform="translate(25.139842 272.063851) scale(0.1 -0.1)">
       <defs>
        <path id="CMR17-33" d="M 1414 2157 
C 1984 2157 2234 1662 2234 1090 
C 2234 320 1824 25 1453 25 
C 1114 25 563 194 390 693 
C 422 680 454 680 486 680 
C 640 680 755 782 755 948 
C 755 1133 614 1216 486 1216 
C 378 1216 211 1165 211 926 
C 211 335 787 -128 1466 -128 
C 2176 -128 2720 430 2720 1085 
C 2720 1707 2208 2157 1600 2227 
C 2086 2328 2554 2756 2554 3329 
C 2554 3820 2048 4179 1472 4179 
C 890 4179 378 3829 378 3329 
C 378 3110 544 3072 627 3072 
C 762 3072 877 3155 877 3321 
C 877 3486 762 3569 627 3569 
C 602 3569 570 3569 544 3557 
C 730 3959 1235 4032 1459 4032 
C 1683 4032 2106 3925 2106 3320 
C 2106 3143 2080 2828 1862 2550 
C 1670 2304 1453 2304 1242 2284 
C 1210 2284 1062 2269 1037 2269 
C 992 2263 966 2257 966 2208 
C 966 2163 973 2157 1101 2157 
L 1414 2157 
z
" transform="scale(0.015625)"/>
       </defs>
       <use xlink:href="#CMSY10-0" transform="scale(0.996264)"/>
       <use xlink:href="#CMR17-30" transform="translate(77.487468 0) scale(0.996264)"/>
       <use xlink:href="#CMMI12-3a" transform="translate(123.177945 0) scale(0.996264)"/>
       <use xlink:href="#CMR17-30" transform="translate(150.275122 0) scale(0.996264)"/>
       <use xlink:href="#CMR17-33" transform="translate(195.965599 0) scale(0.996264)"/>
      </g>
     </g>
    </g>
    <g id="ytick_3">
     <g id="line2d_23">
      <path d="M 57.6 235.772428 
L 414.72 235.772428 
" clip-path="url(#p82a3e9b7e1)" style="fill: none; stroke: #b0b0b0; stroke-width: 0.8; stroke-linecap: square"/>
     </g>
     <g id="line2d_24">
      <g>
       <use xlink:href="#m7e482e20c6" x="57.6" y="235.772428" style="stroke: #000000; stroke-width: 0.8"/>
      </g>
     </g>
     <g id="text_13">
      <!-- $\mathdefault{−0.02}$ -->
      <g transform="translate(25.139842 239.231677) scale(0.1 -0.1)">
       <use xlink:href="#CMSY10-0" transform="scale(0.996264)"/>
       <use xlink:href="#CMR17-30" transform="translate(77.487468 0) scale(0.996264)"/>
       <use xlink:href="#CMMI12-3a" transform="translate(123.177945 0) scale(0.996264)"/>
       <use xlink:href="#CMR17-30" transform="translate(150.275122 0) scale(0.996264)"/>
       <use xlink:href="#CMR17-32" transform="translate(195.965599 0) scale(0.996264)"/>
      </g>
     </g>
    </g>
    <g id="ytick_4">
     <g id="line2d_25">
      <path d="M 57.6 202.940255 
L 414.72 202.940255 
" clip-path="url(#p82a3e9b7e1)" style="fill: none; stroke: #b0b0b0; stroke-width: 0.8; stroke-linecap: square"/>
     </g>
     <g id="line2d_26">
      <g>
       <use xlink:href="#m7e482e20c6" x="57.6" y="202.940255" style="stroke: #000000; stroke-width: 0.8"/>
      </g>
     </g>
     <g id="text_14">
      <!-- $\mathdefault{−0.01}$ -->
      <g transform="translate(25.139842 206.399504) scale(0.1 -0.1)">
       <use xlink:href="#CMSY10-0" transform="scale(0.996264)"/>
       <use xlink:href="#CMR17-30" transform="translate(77.487468 0) scale(0.996264)"/>
       <use xlink:href="#CMMI12-3a" transform="translate(123.177945 0) scale(0.996264)"/>
       <use xlink:href="#CMR17-30" transform="translate(150.275122 0) scale(0.996264)"/>
       <use xlink:href="#CMR17-31" transform="translate(195.965599 0) scale(0.996264)"/>
      </g>
     </g>
    </g>
    <g id="ytick_5">
     <g id="line2d_27">
      <path d="M 57.6 170.108082 
L 414.72 170.108082 
" clip-path="url(#p82a3e9b7e1)" style="fill: none; stroke: #b0b0b0; stroke-width: 0.8; stroke-linecap: square"/>
     </g>
     <g id="line2d_28">
      <g>
       <use xlink:href="#m7e482e20c6" x="57.6" y="170.108082" style="stroke: #000000; stroke-width: 0.8"/>
      </g>
     </g>
     <g id="text_15">
      <!-- $\mathdefault{0.00}$ -->
      <g transform="translate(32.888586 173.567331) scale(0.1 -0.1)">
       <use xlink:href="#CMR17-30" transform="scale(0.996264)"/>
       <use xlink:href="#CMMI12-3a" transform="translate(45.690477 0) scale(0.996264)"/>
       <use xlink:href="#CMR17-30" transform="translate(72.787654 0) scale(0.996264)"/>
       <use xlink:href="#CMR17-30" transform="translate(118.478131 0) scale(0.996264)"/>
      </g>
     </g>
    </g>
    <g id="ytick_6">
     <g id="line2d_29">
      <path d="M 57.6 137.275909 
L 414.72 137.275909 
" clip-path="url(#p82a3e9b7e1)" style="fill: none; stroke: #b0b0b0; stroke-width: 0.8; stroke-linecap: square"/>
     </g>
     <g id="line2d_30">
      <g>
       <use xlink:href="#m7e482e20c6" x="57.6" y="137.275909" style="stroke: #000000; stroke-width: 0.8"/>
      </g>
     </g>
     <g id="text_16">
      <!-- $\mathdefault{0.01}$ -->
      <g transform="translate(32.888586 140.735158) scale(0.1 -0.1)">
       <use xlink:href="#CMR17-30" transform="scale(0.996264)"/>
       <use xlink:href="#CMMI12-3a" transform="translate(45.690477 0) scale(0.996264)"/>
       <use xlink:href="#CMR17-30" transform="translate(72.787654 0) scale(0.996264)"/>
       <use xlink:href="#CMR17-31" transform="translate(118.478131 0) scale(0.996264)"/>
      </g>
     </g>
    </g>
    <g id="ytick_7">
     <g id="line2d_31">
      <path d="M 57.6 104.443736 
L 414.72 104.443736 
" clip-path="url(#p82a3e9b7e1)" style="fill: none; stroke: #b0b0b0; stroke-width: 0.8; stroke-linecap: square"/>
     </g>
     <g id="line2d_32">
      <g>
       <use xlink:href="#m7e482e20c6" x="57.6" y="104.443736" style="stroke: #000000; stroke-width: 0.8"/>
      </g>
     </g>
     <g id="text_17">
      <!-- $\mathdefault{0.02}$ -->
      <g transform="translate(32.888586 107.902985) scale(0.1 -0.1)">
       <use xlink:href="#CMR17-30" transform="scale(0.996264)"/>
       <use xlink:href="#CMMI12-3a" transform="translate(45.690477 0) scale(0.996264)"/>
       <use xlink:href="#CMR17-30" transform="translate(72.787654 0) scale(0.996264)"/>
       <use xlink:href="#CMR17-32" transform="translate(118.478131 0) scale(0.996264)"/>
      </g>
     </g>
    </g>
    <g id="ytick_8">
     <g id="line2d_33">
      <path d="M 57.6 71.611563 
L 414.72 71.611563 
" clip-path="url(#p82a3e9b7e1)" style="fill: none; stroke: #b0b0b0; stroke-width: 0.8; stroke-linecap: square"/>
     </g>
     <g id="line2d_34">
      <g>
       <use xlink:href="#m7e482e20c6" x="57.6" y="71.611563" style="stroke: #000000; stroke-width: 0.8"/>
      </g>
     </g>
     <g id="text_18">
      <!-- $\mathdefault{0.03}$ -->
      <g transform="translate(32.888586 75.070812) scale(0.1 -0.1)">
       <use xlink:href="#CMR17-30" transform="scale(0.996264)"/>
       <use xlink:href="#CMMI12-3a" transform="translate(45.690477 0) scale(0.996264)"/>
       <use xlink:href="#CMR17-30" transform="translate(72.787654 0) scale(0.996264)"/>
       <use xlink:href="#CMR17-33" transform="translate(118.478131 0) scale(0.996264)"/>
      </g>
     </g>
    </g>
    <g id="text_19">
     <!-- y [m] -->
     <g transform="translate(18.649182 185.32087) rotate(-90) scale(0.1 -0.1)">
      <defs>
       <path id="CMSS17-79" d="M 2675 2752 
L 2176 2752 
C 1632 1294 1446 702 1434 383 
L 1427 383 
C 1408 696 1126 1460 902 2007 
L 602 2752 
L 83 2752 
L 1216 13 
C 1146 -178 1043 -465 1011 -529 
C 870 -885 774 -885 672 -885 
C 646 -885 442 -885 211 -809 
L 250 -1229 
C 410 -1261 570 -1280 685 -1280 
C 845 -1280 1165 -1280 1459 -497 
L 2675 2752 
z
" transform="scale(0.015625)"/>
      </defs>
      <use xlink:href="#CMSS17-79" transform="scale(0.996264)"/>
      <use xlink:href="#CMSS17-5b" transform="translate(74.229254 0) scale(0.996264)"/>
      <use xlink:href="#CMSS17-6d" transform="translate(101.414693 0) scale(0.996264)"/>
      <use xlink:href="#CMSS17-5d" transform="translate(175.643948 0) scale(0.996264)"/>
     </g>
    </g>
   </g>
   <g id="line2d_35">
    <path d="M 231.889666 178.464381 
L 231.878988 177.612197 
L 231.935824 176.711373 
L 232.059277 175.776116 
L 232.247401 174.821175 
L 232.49723 173.861611 
L 232.804822 172.912556 
L 233.165328 171.988978 
L 233.573061 171.105441 
L 234.021592 170.275881 
L 234.503847 169.513378 
L 235.01222 168.82996 
L 235.538695 168.236403 
L 236.074968 167.742068 
L 236.612582 167.354751 
L 237.143058 167.080561 
L 237.658031 166.923821 
L 238.149379 166.887004 
L 238.609354 166.97069 
L 239.030701 167.173559 
L 239.406775 167.492412 
L 239.731645 167.922221 
L 240.000189 168.456206 
L 240.20817 169.085948 
L 240.352309 169.801513 
L 240.430334 170.591619 
L 240.441012 171.443803 
L 240.384176 172.344627 
L 240.260723 173.279884 
L 240.072599 174.234825 
L 239.82277 175.194389 
L 239.515178 176.143444 
L 239.154672 177.067022 
L 238.746939 177.950559 
L 238.298408 178.780119 
L 237.816153 179.542622 
L 237.30778 180.22604 
L 236.781305 180.819597 
L 236.245032 181.313932 
L 235.707418 181.701249 
L 235.176942 181.975439 
L 234.661969 182.132179 
L 234.170621 182.168996 
L 233.710646 182.08531 
L 233.289299 181.882441 
L 232.913225 181.563588 
L 232.588355 181.133779 
L 232.319811 180.599794 
L 232.11183 179.970052 
L 231.967691 179.254487 
L 231.889666 178.464381 
" clip-path="url(#p82a3e9b7e1)" style="fill: none; stroke: #0000ff; stroke-width: 1.5; stroke-linecap: square"/>
   </g>
   <g id="line2d_36">
    <path d="M 73.832727 277.969123 
L 74.81826 269.266995 
L 78.348249 259.070776 
L 84.367023 247.541267 
L 92.779663 234.860295 
L 103.453496 221.227847 
L 116.220191 206.858914 
L 130.878407 191.980103 
L 147.196978 176.826063 
L 164.918548 161.63578 
L 183.763639 146.648816 
L 203.435052 132.101522 
L 223.622556 118.22332 
L 244.007784 105.233077 
L 264.269247 93.335655 
L 284.087411 82.718686 
L 303.149731 73.549604 
L 321.155582 65.973011 
L 337.821003 60.108396 
L 352.883169 56.048246 
L 366.104541 53.856593 
L 377.27661 53.568 
L 386.223185 55.187018 
L 392.803175 58.688115 
L 396.912808 64.016076 
L 398.487273 71.086877 
L 397.50174 79.789005 
L 393.971751 89.985224 
L 387.952977 101.514733 
L 379.540337 114.195705 
L 368.866504 127.828153 
L 356.099809 142.197086 
L 341.441593 157.075897 
L 325.123022 172.229937 
L 307.401452 187.42022 
L 288.556361 202.407184 
L 268.884948 216.954478 
L 248.697444 230.83268 
L 228.312216 243.822923 
L 208.050753 255.720345 
L 188.232589 266.337314 
L 169.170269 275.506396 
L 151.164418 283.082989 
L 134.498997 288.947604 
L 119.436831 293.007754 
L 106.215459 295.199407 
L 95.04339 295.488 
L 86.096815 293.868982 
L 79.516825 290.367885 
L 75.407192 285.039924 
L 73.832727 277.969123 
" clip-path="url(#p82a3e9b7e1)" style="fill: none; stroke: #008000; stroke-width: 1.5; stroke-linecap: square"/>
   </g>
   <g id="line2d_37">
    <defs>
     <path id="mc53b8ec8ed" d="M 0 1.5 
C 0.397805 1.5 0.77937 1.341951 1.06066 1.06066 
C 1.341951 0.77937 1.5 0.397805 1.5 0 
C 1.5 -0.397805 1.341951 -0.77937 1.06066 -1.06066 
C 0.77937 -1.341951 0.397805 -1.5 0 -1.5 
C -0.397805 -1.5 -0.77937 -1.341951 -1.06066 -1.06066 
C -1.341951 -0.77937 -1.5 -0.397805 -1.5 0 
C -1.5 0.397805 -1.341951 0.77937 -1.06066 1.06066 
C -0.77937 1.341951 -0.397805 1.5 0 1.5 
z
" style="stroke: #ff0000"/>
    </defs>
    <g clip-path="url(#p82a3e9b7e1)">
     <use xlink:href="#mc53b8ec8ed" x="232.16624" y="288.129927" style="fill: #ff0000; stroke: #ff0000"/>
     <use xlink:href="#mc53b8ec8ed" x="218.879438" y="158.24741" style="fill: #ff0000; stroke: #ff0000"/>
     <use xlink:href="#mc53b8ec8ed" x="248.877123" y="195.135577" style="fill: #ff0000; stroke: #ff0000"/>
     <use xlink:href="#mc53b8ec8ed" x="238.762799" y="111.746422" style="fill: #ff0000; stroke: #ff0000"/>
     <use xlink:href="#mc53b8ec8ed" x="221.679471" y="167.295578" style="fill: #ff0000; stroke: #ff0000"/>
     <use xlink:href="#mc53b8ec8ed" x="247.131131" y="177.603852" style="fill: #ff0000; stroke: #ff0000"/>
     <use xlink:href="#mc53b8ec8ed" x="211.379643" y="128.168903" style="fill: #ff0000; stroke: #ff0000"/>
     <use xlink:href="#mc53b8ec8ed" x="246.612493" y="125.922782" style="fill: #ff0000; stroke: #ff0000"/>
     <use xlink:href="#mc53b8ec8ed" x="237.747531" y="211.805975" style="fill: #ff0000; stroke: #ff0000"/>
     <use xlink:href="#mc53b8ec8ed" x="230.276409" y="172.053442" style="fill: #ff0000; stroke: #ff0000"/>
     <use xlink:href="#mc53b8ec8ed" x="236.338142" y="176.881021" style="fill: #ff0000; stroke: #ff0000"/>
     <use xlink:href="#mc53b8ec8ed" x="241.369511" y="198.502799" style="fill: #ff0000; stroke: #ff0000"/>
     <use xlink:href="#mc53b8ec8ed" x="251.407503" y="168.910086" style="fill: #ff0000; stroke: #ff0000"/>
     <use xlink:href="#mc53b8ec8ed" x="229.338332" y="168.309469" style="fill: #ff0000; stroke: #ff0000"/>
     <use xlink:href="#mc53b8ec8ed" x="285.509648" y="130.561954" style="fill: #ff0000; stroke: #ff0000"/>
     <use xlink:href="#mc53b8ec8ed" x="230.279358" y="149.44761" style="fill: #ff0000; stroke: #ff0000"/>
     <use xlink:href="#mc53b8ec8ed" x="218.042581" y="184.680246" style="fill: #ff0000; stroke: #ff0000"/>
     <use xlink:href="#mc53b8ec8ed" x="174.974779" y="208.154125" style="fill: #ff0000; stroke: #ff0000"/>
     <use xlink:href="#mc53b8ec8ed" x="211.013546" y="169.106606" style="fill: #ff0000; stroke: #ff0000"/>
     <use xlink:href="#mc53b8ec8ed" x="194.899014" y="208.355552" style="fill: #ff0000; stroke: #ff0000"/>
     <use xlink:href="#mc53b8ec8ed" x="243.387141" y="200.015074" style="fill: #ff0000; stroke: #ff0000"/>
     <use xlink:href="#mc53b8ec8ed" x="248.784307" y="142.169839" style="fill: #ff0000; stroke: #ff0000"/>
     <use xlink:href="#mc53b8ec8ed" x="261.688115" y="103.475594" style="fill: #ff0000; stroke: #ff0000"/>
     <use xlink:href="#mc53b8ec8ed" x="217.798194" y="210.973449" style="fill: #ff0000; stroke: #ff0000"/>
     <use xlink:href="#mc53b8ec8ed" x="253.001874" y="192.691469" style="fill: #ff0000; stroke: #ff0000"/>
     <use xlink:href="#mc53b8ec8ed" x="253.229394" y="143.749818" style="fill: #ff0000; stroke: #ff0000"/>
     <use xlink:href="#mc53b8ec8ed" x="225.618275" y="153.940211" style="fill: #ff0000; stroke: #ff0000"/>
     <use xlink:href="#mc53b8ec8ed" x="249.739722" y="147.913157" style="fill: #ff0000; stroke: #ff0000"/>
     <use xlink:href="#mc53b8ec8ed" x="267.150624" y="145.585667" style="fill: #ff0000; stroke: #ff0000"/>
     <use xlink:href="#mc53b8ec8ed" x="233.340379" y="210.97002" style="fill: #ff0000; stroke: #ff0000"/>
     <use xlink:href="#mc53b8ec8ed" x="213.823649" y="210.48715" style="fill: #ff0000; stroke: #ff0000"/>
     <use xlink:href="#mc53b8ec8ed" x="198.110648" y="201.126061" style="fill: #ff0000; stroke: #ff0000"/>
     <use xlink:href="#mc53b8ec8ed" x="211.297309" y="164.004716" style="fill: #ff0000; stroke: #ff0000"/>
     <use xlink:href="#mc53b8ec8ed" x="235.773349" y="229.549032" style="fill: #ff0000; stroke: #ff0000"/>
     <use xlink:href="#mc53b8ec8ed" x="223.944879" y="111.342535" style="fill: #ff0000; stroke: #ff0000"/>
     <use xlink:href="#mc53b8ec8ed" x="246.135153" y="222.69839" style="fill: #ff0000; stroke: #ff0000"/>
     <use xlink:href="#mc53b8ec8ed" x="248.033986" y="116.120968" style="fill: #ff0000; stroke: #ff0000"/>
     <use xlink:href="#mc53b8ec8ed" x="232.659563" y="220.56419" style="fill: #ff0000; stroke: #ff0000"/>
     <use xlink:href="#mc53b8ec8ed" x="224.907881" y="209.982184" style="fill: #ff0000; stroke: #ff0000"/>
     <use xlink:href="#mc53b8ec8ed" x="226.039781" y="161.049112" style="fill: #ff0000; stroke: #ff0000"/>
     <use xlink:href="#mc53b8ec8ed" x="272.523292" y="117.725751" style="fill: #ff0000; stroke: #ff0000"/>
     <use xlink:href="#mc53b8ec8ed" x="284.99901" y="123.810963" style="fill: #ff0000; stroke: #ff0000"/>
     <use xlink:href="#mc53b8ec8ed" x="257.9532" y="111.196688" style="fill: #ff0000; stroke: #ff0000"/>
     <use xlink:href="#mc53b8ec8ed" x="237.406608" y="173.11332" style="fill: #ff0000; stroke: #ff0000"/>
     <use xlink:href="#mc53b8ec8ed" x="191.235372" y="224.161243" style="fill: #ff0000; stroke: #ff0000"/>
     <use xlink:href="#mc53b8ec8ed" x="251.463227" y="204.873749" style="fill: #ff0000; stroke: #ff0000"/>
     <use xlink:href="#mc53b8ec8ed" x="234.639229" y="240.838338" style="fill: #ff0000; stroke: #ff0000"/>
     <use xlink:href="#mc53b8ec8ed" x="205.480532" y="220.999875" style="fill: #ff0000; stroke: #ff0000"/>
     <use xlink:href="#mc53b8ec8ed" x="232.386361" y="212.328623" style="fill: #ff0000; stroke: #ff0000"/>
     <use xlink:href="#mc53b8ec8ed" x="246.090258" y="132.018073" style="fill: #ff0000; stroke: #ff0000"/>
     <use xlink:href="#mc53b8ec8ed" x="227.911054" y="179.477781" style="fill: #ff0000; stroke: #ff0000"/>
     <use xlink:href="#mc53b8ec8ed" x="233.659726" y="196.406932" style="fill: #ff0000; stroke: #ff0000"/>
     <use xlink:href="#mc53b8ec8ed" x="261.424353" y="175.462507" style="fill: #ff0000; stroke: #ff0000"/>
     <use xlink:href="#mc53b8ec8ed" x="239.740746" y="164.736478" style="fill: #ff0000; stroke: #ff0000"/>
     <use xlink:href="#mc53b8ec8ed" x="232.861724" y="194.951358" style="fill: #ff0000; stroke: #ff0000"/>
     <use xlink:href="#mc53b8ec8ed" x="261.85074" y="160.59594" style="fill: #ff0000; stroke: #ff0000"/>
     <use xlink:href="#mc53b8ec8ed" x="231.263383" y="150.458902" style="fill: #ff0000; stroke: #ff0000"/>
     <use xlink:href="#mc53b8ec8ed" x="221.20389" y="189.400631" style="fill: #ff0000; stroke: #ff0000"/>
     <use xlink:href="#mc53b8ec8ed" x="392.127698" y="72.309312" style="fill: #ff0000; stroke: #ff0000"/>
     <use xlink:href="#mc53b8ec8ed" x="215.644767" y="153.955722" style="fill: #ff0000; stroke: #ff0000"/>
     <use xlink:href="#mc53b8ec8ed" x="255.450065" y="181.429631" style="fill: #ff0000; stroke: #ff0000"/>
     <use xlink:href="#mc53b8ec8ed" x="246.258104" y="184.94763" style="fill: #ff0000; stroke: #ff0000"/>
     <use xlink:href="#mc53b8ec8ed" x="236.498683" y="133.493729" style="fill: #ff0000; stroke: #ff0000"/>
     <use xlink:href="#mc53b8ec8ed" x="240.100852" y="185.522947" style="fill: #ff0000; stroke: #ff0000"/>
     <use xlink:href="#mc53b8ec8ed" x="245.818042" y="163.058681" style="fill: #ff0000; stroke: #ff0000"/>
     <use xlink:href="#mc53b8ec8ed" x="240.740981" y="177.108017" style="fill: #ff0000; stroke: #ff0000"/>
     <use xlink:href="#mc53b8ec8ed" x="227.386553" y="207.343268" style="fill: #ff0000; stroke: #ff0000"/>
     <use xlink:href="#mc53b8ec8ed" x="236.810982" y="214.511721" style="fill: #ff0000; stroke: #ff0000"/>
     <use xlink:href="#mc53b8ec8ed" x="233.07017" y="162.244286" style="fill: #ff0000; stroke: #ff0000"/>
     <use xlink:href="#mc53b8ec8ed" x="202.622716" y="199.335114" style="fill: #ff0000; stroke: #ff0000"/>
     <use xlink:href="#mc53b8ec8ed" x="250.04124" y="134.416297" style="fill: #ff0000; stroke: #ff0000"/>
     <use xlink:href="#mc53b8ec8ed" x="223.397153" y="179.386792" style="fill: #ff0000; stroke: #ff0000"/>
     <use xlink:href="#mc53b8ec8ed" x="192.843593" y="169.944498" style="fill: #ff0000; stroke: #ff0000"/>
     <use xlink:href="#mc53b8ec8ed" x="276.404462" y="173.654925" style="fill: #ff0000; stroke: #ff0000"/>
     <use xlink:href="#mc53b8ec8ed" x="226.046125" y="195.418952" style="fill: #ff0000; stroke: #ff0000"/>
     <use xlink:href="#mc53b8ec8ed" x="283.296833" y="177.74779" style="fill: #ff0000; stroke: #ff0000"/>
     <use xlink:href="#mc53b8ec8ed" x="245.05987" y="172.300508" style="fill: #ff0000; stroke: #ff0000"/>
     <use xlink:href="#mc53b8ec8ed" x="258.214493" y="171.218977" style="fill: #ff0000; stroke: #ff0000"/>
     <use xlink:href="#mc53b8ec8ed" x="222.536393" y="198.16306" style="fill: #ff0000; stroke: #ff0000"/>
     <use xlink:href="#mc53b8ec8ed" x="206.611329" y="179.956464" style="fill: #ff0000; stroke: #ff0000"/>
     <use xlink:href="#mc53b8ec8ed" x="227.061678" y="187.353025" style="fill: #ff0000; stroke: #ff0000"/>
     <use xlink:href="#mc53b8ec8ed" x="204.599584" y="159.591897" style="fill: #ff0000; stroke: #ff0000"/>
     <use xlink:href="#mc53b8ec8ed" x="261.393202" y="188.442515" style="fill: #ff0000; stroke: #ff0000"/>
     <use xlink:href="#mc53b8ec8ed" x="217.923093" y="203.641757" style="fill: #ff0000; stroke: #ff0000"/>
     <use xlink:href="#mc53b8ec8ed" x="234.934446" y="195.633446" style="fill: #ff0000; stroke: #ff0000"/>
     <use xlink:href="#mc53b8ec8ed" x="260.539795" y="154.291843" style="fill: #ff0000; stroke: #ff0000"/>
     <use xlink:href="#mc53b8ec8ed" x="211.264136" y="153.546343" style="fill: #ff0000; stroke: #ff0000"/>
     <use xlink:href="#mc53b8ec8ed" x="209.631975" y="153.225811" style="fill: #ff0000; stroke: #ff0000"/>
     <use xlink:href="#mc53b8ec8ed" x="251.776572" y="147.099873" style="fill: #ff0000; stroke: #ff0000"/>
     <use xlink:href="#mc53b8ec8ed" x="197.951289" y="211.98325" style="fill: #ff0000; stroke: #ff0000"/>
     <use xlink:href="#mc53b8ec8ed" x="240.102399" y="201.882025" style="fill: #ff0000; stroke: #ff0000"/>
     <use xlink:href="#mc53b8ec8ed" x="232.668952" y="202.799655" style="fill: #ff0000; stroke: #ff0000"/>
     <use xlink:href="#mc53b8ec8ed" x="209.31977" y="228.477371" style="fill: #ff0000; stroke: #ff0000"/>
     <use xlink:href="#mc53b8ec8ed" x="217.202269" y="202.612778" style="fill: #ff0000; stroke: #ff0000"/>
     <use xlink:href="#mc53b8ec8ed" x="234.263709" y="134.38292" style="fill: #ff0000; stroke: #ff0000"/>
     <use xlink:href="#mc53b8ec8ed" x="241.016375" y="147.75859" style="fill: #ff0000; stroke: #ff0000"/>
     <use xlink:href="#mc53b8ec8ed" x="243.218846" y="129.536447" style="fill: #ff0000; stroke: #ff0000"/>
     <use xlink:href="#mc53b8ec8ed" x="217.221455" y="164.016981" style="fill: #ff0000; stroke: #ff0000"/>
     <use xlink:href="#mc53b8ec8ed" x="277.701674" y="156.213372" style="fill: #ff0000; stroke: #ff0000"/>
     <use xlink:href="#mc53b8ec8ed" x="234.912925" y="135.121983" style="fill: #ff0000; stroke: #ff0000"/>
    </g>
   </g>
   <g id="line2d_38">
    <path d="M 155.985465 227.989817 
L 156.179509 216.35399 
L 157.634892 204.058541 
L 160.328664 191.297378 
L 164.218341 178.271752 
L 169.242581 165.187084 
L 175.322148 152.249729 
L 182.361165 139.663715 
L 190.248621 127.627532 
L 198.860128 116.330997 
L 208.059876 105.952263 
L 217.702779 96.65501 
L 227.636764 88.585861 
L 237.705165 81.87207 
L 247.749199 76.619519 
L 257.610463 72.911043 
L 267.133441 70.805127 
L 276.167949 70.334983 
L 284.571509 71.508025 
L 292.211589 74.305753 
L 298.967703 78.684046 
L 304.733301 84.573856 
L 309.417458 91.882296 
L 312.946301 100.494108 
L 315.264178 110.273479 
L 316.334535 121.066183 
L 316.140491 132.70201 
L 314.685108 144.997459 
L 311.991336 157.758622 
L 308.101659 170.784248 
L 303.077419 183.868916 
L 296.997852 196.806271 
L 289.958835 209.392285 
L 282.071379 221.428468 
L 273.459872 232.725003 
L 264.260124 243.103737 
L 254.617221 252.40099 
L 244.683236 260.470139 
L 234.614835 267.18393 
L 224.570801 272.436481 
L 214.709537 276.144957 
L 205.186559 278.250873 
L 196.152051 278.721017 
L 187.748491 277.547975 
L 180.108411 274.750247 
L 173.352297 270.371954 
L 167.586699 264.482144 
L 162.902542 257.173704 
L 159.373699 248.561892 
L 157.055822 238.782521 
L 155.985465 227.989817 
" clip-path="url(#p82a3e9b7e1)" style="fill: none; stroke: #ff0000; stroke-width: 1.5; stroke-linecap: square"/>
   </g>
   <g id="patch_6">
    <path d="M 57.6 307.584 
L 57.6 41.472 
" style="fill: none; stroke: #000000; stroke-width: 0.8; stroke-linejoin: miter; stroke-linecap: square"/>
   </g>
   <g id="patch_7">
    <path d="M 414.72 307.584 
L 414.72 41.472 
" style="fill: none; stroke: #000000; stroke-width: 0.8; stroke-linejoin: miter; stroke-linecap: square"/>
   </g>
   <g id="patch_8">
    <path d="M 57.6 307.584 
L 414.72 307.584 
" style="fill: none; stroke: #000000; stroke-width: 0.8; stroke-linejoin: miter; stroke-linecap: square"/>
   </g>
   <g id="patch_9">
    <path d="M 57.6 41.472 
L 414.72 41.472 
" style="fill: none; stroke: #000000; stroke-width: 0.8; stroke-linejoin: miter; stroke-linecap: square"/>
   </g>
   <g id="legend_1">
    <g id="patch_10">
     <path d="M 64.6 105.220713 
L 173.357417 105.220713 
Q 175.357417 105.220713 175.357417 103.220713 
L 175.357417 48.472 
Q 175.357417 46.472 173.357417 46.472 
L 64.6 46.472 
Q 62.6 46.472 62.6 48.472 
L 62.6 103.220713 
Q 62.6 105.220713 64.6 105.220713 
z
" style="fill: #ffffff; opacity: 0.8; stroke: #cccccc; stroke-linejoin: miter"/>
    </g>
    <g id="line2d_39">
     <path d="M 66.6 53.972 
L 76.6 53.972 
L 86.6 53.972 
" style="fill: none; stroke: #0000ff; stroke-width: 1.5; stroke-linecap: square"/>
    </g>
    <g id="text_20">
     <!-- Censi's cov $3\sigma$. -->
     <g transform="translate(94.6 57.472) scale(0.1 -0.1)">
      <defs>
       <path id="CMSS17-43" d="M 3501 714 
C 3072 427 2874 344 2355 344 
C 1459 344 934 1303 934 2179 
C 934 3112 1472 4032 2381 4032 
C 2790 4032 3059 3918 3386 3715 
L 3475 4217 
C 3168 4370 2778 4440 2387 4440 
C 1158 4440 397 3316 397 2179 
C 397 927 1299 -64 2323 -64 
C 2874 -64 3066 -19 3539 280 
L 3501 714 
z
" transform="scale(0.015625)"/>
       <path id="CMSS17-65" d="M 2502 1377 
C 2502 1590 2490 2003 2285 2345 
C 2061 2713 1696 2816 1421 2816 
C 755 2816 192 2188 192 1375 
C 192 582 774 -64 1510 -64 
C 1798 -64 2150 19 2470 248 
C 2470 274 2458 414 2451 420 
C 2451 433 2432 630 2432 656 
C 2125 407 1773 325 1517 325 
C 1107 325 666 667 646 1377 
L 2502 1377 
z
M 698 1728 
C 781 2084 1062 2421 1421 2421 
C 1517 2421 1965 2421 2080 1728 
L 698 1728 
z
" transform="scale(0.015625)"/>
       <path id="CMSS17-6e" d="M 2618 1877 
C 2618 2283 2522 2816 1798 2816 
C 1389 2816 1120 2606 941 2389 
L 941 2758 
L 474 2758 
L 474 0 
L 960 0 
L 960 1559 
C 960 1964 1114 2428 1549 2428 
C 2112 2428 2131 2048 2131 1829 
L 2131 0 
L 2618 0 
L 2618 1877 
z
" transform="scale(0.015625)"/>
       <path id="CMSS17-73" d="M 2061 2627 
C 1683 2807 1389 2807 1197 2807 
C 742 2807 198 2648 198 2003 
C 198 1359 902 1218 1094 1179 
C 1389 1122 1715 1058 1715 740 
C 1715 337 1254 337 1171 337 
C 915 337 563 407 243 638 
L 166 210 
C 531 0 883 -64 1178 -64 
C 1965 -64 2163 416 2163 781 
C 2163 1094 1984 1305 1862 1401 
C 1651 1568 1574 1587 1050 1696 
C 960 1709 646 1779 646 2066 
C 646 2432 1050 2432 1139 2432 
C 1555 2432 1811 2303 1984 2208 
L 2061 2627 
z
" transform="scale(0.015625)"/>
       <path id="CMSS17-69" d="M 979 4183 
L 442 4183 
L 442 3648 
L 979 3648 
L 979 4183 
z
M 947 2739 
L 474 2739 
L 474 0 
L 947 0 
L 947 2739 
z
" transform="scale(0.015625)"/>
       <path id="CMSS17-27" d="M 1088 3910 
L 1088 4413 
L 576 4413 
L 576 3904 
L 736 3904 
L 570 3104 
L 826 3104 
L 1088 3910 
z
" transform="scale(0.015625)"/>
       <path id="CMSS17-63" d="M 2464 2541 
C 2464 2585 2170 2714 2093 2739 
C 1882 2816 1613 2816 1542 2816 
C 710 2816 211 2093 211 1363 
C 211 595 768 -64 1517 -64 
C 1946 -64 2253 76 2502 242 
L 2464 664 
C 2189 453 1869 337 1523 337 
C 1024 337 698 774 698 1369 
C 698 1831 909 2414 1549 2414 
C 1901 2414 2099 2343 2394 2145 
L 2464 2541 
z
" transform="scale(0.015625)"/>
       <path id="CMSS17-6f" d="M 2829 1356 
C 2829 2176 2221 2816 1504 2816 
C 768 2816 173 2157 173 1356 
C 173 544 787 -64 1498 -64 
C 2227 -64 2829 563 2829 1356 
z
M 1504 337 
C 1050 337 659 709 659 1408 
C 659 2151 1114 2427 1498 2427 
C 1914 2427 2342 2126 2342 1408 
C 2342 683 1926 337 1504 337 
z
" transform="scale(0.015625)"/>
       <path id="CMSS17-76" d="M 2675 2752 
L 2176 2752 
L 1747 1556 
C 1613 1165 1421 627 1389 352 
L 1382 352 
C 1370 468 1318 634 1286 749 
C 1248 890 1197 1056 1158 1172 
L 595 2752 
L 83 2752 
L 1094 0 
L 1664 0 
L 2675 2752 
z
" transform="scale(0.015625)"/>
       <path id="CMMI12-1b" d="M 3251 2408 
C 3334 2408 3546 2408 3546 2612 
C 3546 2752 3424 2752 3309 2752 
L 1894 2752 
C 934 2752 243 1686 243 932 
C 243 390 595 -64 1171 -64 
C 1926 -64 2752 747 2752 1705 
C 2752 1954 2694 2196 2541 2408 
L 3251 2408 
z
M 1178 64 
C 851 64 614 313 614 754 
C 614 1137 845 2408 1786 2408 
C 2061 2408 2368 2274 2368 1781 
C 2368 1558 2266 1021 2042 652 
C 1811 275 1466 64 1178 64 
z
" transform="scale(0.015625)"/>
       <path id="CMSS17-2e" d="M 1088 510 
L 576 510 
L 576 0 
L 1088 0 
L 1088 510 
z
" transform="scale(0.015625)"/>
      </defs>
      <use xlink:href="#CMSS17-43" transform="scale(0.996264)"/>
      <use xlink:href="#CMSS17-65" transform="translate(59.855772 0) scale(0.996264)"/>
      <use xlink:href="#CMSS17-6e" transform="translate(101.494594 0) scale(0.996264)"/>
      <use xlink:href="#CMSS17-73" transform="translate(149.699537 0) scale(0.996264)"/>
      <use xlink:href="#CMSS17-69" transform="translate(185.613079 0) scale(0.996264)"/>
      <use xlink:href="#CMSS17-27" transform="translate(207.793802 0) scale(0.996264)"/>
      <use xlink:href="#CMSS17-73" transform="translate(233.818007 0) scale(0.996264)"/>
      <use xlink:href="#CMSS17-63" transform="translate(300.960661 0) scale(0.996264)"/>
      <use xlink:href="#CMSS17-6f" transform="translate(342.599484 0) scale(0.996264)"/>
      <use xlink:href="#CMSS17-76" transform="translate(389.443107 0) scale(0.996264)"/>
      <use xlink:href="#CMR17-33" transform="translate(463.672361 0) scale(0.996264)"/>
      <use xlink:href="#CMMI12-1b" transform="translate(509.362839 0) scale(0.996264)"/>
      <use xlink:href="#CMSS17-2e" transform="translate(568.382892 0) scale(0.996264)"/>
     </g>
    </g>
    <g id="line2d_40">
     <path d="M 66.6 67.909178 
L 76.6 67.909178 
L 86.6 67.909178 
" style="fill: none; stroke: #008000; stroke-width: 1.5; stroke-linecap: square"/>
    </g>
    <g id="text_21">
     <!-- Brossard's cov $3\sigma$. -->
     <g transform="translate(94.6 71.409178) scale(0.1 -0.1)">
      <defs>
       <path id="CMSS17-42" d="M 570 4416 
L 570 0 
L 2163 0 
C 3034 0 3667 574 3667 1200 
C 3667 1685 3251 2176 2502 2317 
C 3334 2558 3501 3040 3501 3313 
C 3501 3883 2874 4416 1997 4416 
L 570 4416 
z
M 1088 2496 
L 1088 4059 
L 1824 4059 
C 2483 4059 3002 3724 3002 3306 
C 3002 2926 2592 2496 1766 2496 
L 1088 2496 
z
M 1088 357 
L 1088 2107 
L 1939 2107 
C 2630 2107 3162 1679 3162 1206 
C 3162 772 2694 357 1984 357 
L 1088 357 
z
" transform="scale(0.015625)"/>
       <path id="CMSS17-72" d="M 954 1363 
C 954 1965 1395 2368 1958 2368 
L 1958 2789 
C 1549 2789 1165 2585 934 2253 
L 934 2758 
L 480 2758 
L 480 0 
L 954 0 
L 954 1363 
z
" transform="scale(0.015625)"/>
       <path id="CMSS17-61" d="M 2406 1791 
C 2406 2392 1978 2808 1402 2808 
C 1120 2808 813 2757 461 2553 
L 499 2135 
C 659 2248 934 2432 1395 2432 
C 1722 2432 1920 2180 1920 1782 
L 1920 1536 
C 896 1536 256 1238 256 726 
C 256 461 416 -64 947 -64 
C 1043 -64 1562 -64 1933 217 
L 1933 -19 
L 2406 -19 
L 2406 1791 
z
M 1920 816 
C 1920 701 1920 548 1728 434 
C 1562 325 1350 325 1261 325 
C 941 325 723 511 723 744 
C 723 1211 1722 1211 1920 1211 
L 1920 816 
z
" transform="scale(0.015625)"/>
       <path id="CMSS17-64" d="M 2611 4416 
L 2138 4416 
L 2138 2438 
C 1939 2603 1613 2756 1254 2756 
C 672 2756 211 2131 211 1347 
C 211 562 666 -64 1235 -64 
C 1677 -64 1971 172 2125 306 
L 2125 -13 
L 2611 -13 
L 2611 4416 
z
M 2125 836 
C 2125 747 2125 653 1926 482 
C 1798 375 1645 325 1498 325 
C 1152 325 698 576 698 1340 
C 698 2134 1210 2368 1562 2368 
C 1798 2368 1990 2254 2125 2065 
L 2125 836 
z
" transform="scale(0.015625)"/>
      </defs>
      <use xlink:href="#CMSS17-42" transform="scale(0.996264)"/>
      <use xlink:href="#CMSS17-72" transform="translate(62.33804 0) scale(0.996264)"/>
      <use xlink:href="#CMSS17-6f" transform="translate(94.247813 0) scale(0.996264)"/>
      <use xlink:href="#CMSS17-73" transform="translate(141.091436 0) scale(0.996264)"/>
      <use xlink:href="#CMSS17-73" transform="translate(177.004978 0) scale(0.996264)"/>
      <use xlink:href="#CMSS17-61" transform="translate(212.91852 0) scale(0.996264)"/>
      <use xlink:href="#CMSS17-72" transform="translate(255.237987 0) scale(0.996264)"/>
      <use xlink:href="#CMSS17-64" transform="translate(287.14776 0) scale(0.996264)"/>
      <use xlink:href="#CMSS17-27" transform="translate(335.352703 0) scale(0.996264)"/>
      <use xlink:href="#CMSS17-73" transform="translate(361.376908 0) scale(0.996264)"/>
      <use xlink:href="#CMSS17-63" transform="translate(428.519562 0) scale(0.996264)"/>
      <use xlink:href="#CMSS17-6f" transform="translate(470.158384 0) scale(0.996264)"/>
      <use xlink:href="#CMSS17-76" transform="translate(517.002008 0) scale(0.996264)"/>
      <use xlink:href="#CMR17-33" transform="translate(591.231262 0) scale(0.996264)"/>
      <use xlink:href="#CMMI12-1b" transform="translate(636.921739 0) scale(0.996264)"/>
      <use xlink:href="#CMSS17-2e" transform="translate(695.941793 0) scale(0.996264)"/>
     </g>
    </g>
    <g id="line2d_41">
     <g>
      <use xlink:href="#mc53b8ec8ed" x="76.6" y="81.846357" style="fill: #ff0000; stroke: #ff0000"/>
     </g>
    </g>
    <g id="text_22">
     <!-- Samples. -->
     <g transform="translate(94.6 85.346357) scale(0.1 -0.1)">
      <defs>
       <path id="CMSS17-53" d="M 2797 4169 
C 2515 4334 2208 4480 1690 4480 
C 864 4480 333 3879 333 3266 
C 333 3025 403 2753 653 2475 
C 902 2196 1184 2121 1542 2033 
C 1690 1994 1939 1924 1984 1906 
C 2342 1767 2515 1444 2515 1140 
C 2515 742 2202 318 1645 318 
C 1453 318 890 318 358 819 
L 269 318 
C 794 -64 1363 -128 1651 -128 
C 2438 -128 3002 488 3002 1186 
C 3002 1440 2925 1763 2656 2061 
C 2394 2347 2163 2410 1638 2549 
C 1338 2626 1146 2677 986 2873 
C 877 3013 819 3146 819 3317 
C 819 3673 1126 4060 1690 4060 
C 1971 4060 2336 4002 2707 3660 
L 2797 4169 
z
" transform="scale(0.015625)"/>
       <path id="CMSS17-70" d="M 966 333 
C 1178 129 1466 -5 1773 -5 
C 2368 -5 2880 603 2880 1412 
C 2880 2159 2496 2816 1946 2816 
C 1626 2816 1242 2702 954 2472 
L 954 2765 
L 480 2765 
L 480 -1216 
L 966 -1216 
L 966 333 
z
M 966 2100 
C 1018 2176 1235 2415 1587 2415 
C 2035 2415 2394 1960 2394 1412 
C 2394 787 1958 384 1530 384 
C 1402 384 1267 415 1139 523 
C 966 674 966 768 966 857 
L 966 2100 
z
" transform="scale(0.015625)"/>
       <path id="CMSS17-6c" d="M 947 4416 
L 474 4416 
L 474 0 
L 947 0 
L 947 4416 
z
" transform="scale(0.015625)"/>
      </defs>
      <use xlink:href="#CMSS17-53" transform="scale(0.996264)"/>
      <use xlink:href="#CMSS17-61" transform="translate(52.048516 0) scale(0.996264)"/>
      <use xlink:href="#CMSS17-6d" transform="translate(96.970437 0) scale(0.996264)"/>
      <use xlink:href="#CMSS17-70" transform="translate(171.199691 0) scale(0.996264)"/>
      <use xlink:href="#CMSS17-6c" transform="translate(219.404634 0) scale(0.996264)"/>
      <use xlink:href="#CMSS17-65" transform="translate(241.585357 0) scale(0.996264)"/>
      <use xlink:href="#CMSS17-73" transform="translate(283.224179 0) scale(0.996264)"/>
      <use xlink:href="#CMSS17-2e" transform="translate(319.137721 0) scale(0.996264)"/>
     </g>
    </g>
    <g id="line2d_42">
     <path d="M 66.6 95.783535 
L 76.6 95.783535 
L 86.6 95.783535 
" style="fill: none; stroke: #ff0000; stroke-width: 1.5; stroke-linecap: square"/>
    </g>
    <g id="text_23">
     <!-- Sample cov $3\sigma$. -->
     <g transform="translate(94.6 99.283535) scale(0.1 -0.1)">
      <use xlink:href="#CMSS17-53" transform="scale(0.996264)"/>
      <use xlink:href="#CMSS17-61" transform="translate(52.048516 0) scale(0.996264)"/>
      <use xlink:href="#CMSS17-6d" transform="translate(96.970437 0) scale(0.996264)"/>
      <use xlink:href="#CMSS17-70" transform="translate(171.199691 0) scale(0.996264)"/>
      <use xlink:href="#CMSS17-6c" transform="translate(219.404634 0) scale(0.996264)"/>
      <use xlink:href="#CMSS17-65" transform="translate(241.585357 0) scale(0.996264)"/>
      <use xlink:href="#CMSS17-63" transform="translate(314.453292 0) scale(0.996264)"/>
      <use xlink:href="#CMSS17-6f" transform="translate(356.092114 0) scale(0.996264)"/>
      <use xlink:href="#CMSS17-76" transform="translate(402.935738 0) scale(0.996264)"/>
      <use xlink:href="#CMR17-33" transform="translate(477.164992 0) scale(0.996264)"/>
      <use xlink:href="#CMMI12-1b" transform="translate(522.855469 0) scale(0.996264)"/>
      <use xlink:href="#CMSS17-2e" transform="translate(581.875523 0) scale(0.996264)"/>
     </g>
    </g>
   </g>
  </g>
 </g>
 <defs>
  <clipPath id="p82a3e9b7e1">
   <rect x="57.6" y="41.472" width="357.12" height="266.112"/>
  </clipPath>
 </defs>
</svg>
