<?xml version="1.0" encoding="utf-8" standalone="no"?>
<!DOCTYPE svg PUBLIC "-//W3C//DTD SVG 1.1//EN"
  "http://www.w3.org/Graphics/SVG/1.1/DTD/svg11.dtd">
<svg xmlns:xlink="http://www.w3.org/1999/xlink" width="460.8pt" height="345.6pt" viewBox="0 0 460.8 345.6" xmlns="http://www.w3.org/2000/svg" version="1.1">
 <metadata>
  <rdf:RDF xmlns:dc="http://purl.org/dc/elements/1.1/" xmlns:cc="http://creativecommons.org/ns#" xmlns:rdf="http://www.w3.org/1999/02/22-rdf-syntax-ns#">
   <cc:Work>
    <dc:type rdf:resource="http://purl.org/dc/dcmitype/StillImage"/>
    <dc:date>2022-12-17T15:06:10.468973</dc:date>
    <dc:format>image/svg+xml</dc:format>
    <dc:creator>
     <cc:Agent>
      <dc:title>Matplotlib v3.6.0, https://matplotlib.org/</dc:title>
     </cc:Agent>
    </dc:creator>
   </cc:Work>
  </rdf:RDF>
 </metadata>
 <defs>
  <style type="text/css">*{stroke-linejoin: round; stroke-linecap: butt}</style>
 </defs>
 <g id="figure_1">
  <g id="patch_1">
   <path d="M 0 345.6 
L 460.8 345.6 
L 460.8 0 
L 0 0 
z
" style="fill: #ffffff"/>
  </g>
  <g id="axes_1">
   <g id="patch_2">
    <path d="M 57.6 307.584 
L 414.72 307.584 
L 414.72 41.472 
L 57.6 41.472 
z
" style="fill: #ffffff"/>
   </g>
   <g id="patch_3">
    <path d="M 225.436587 173.54887 
L 225.287825 172.721227 
L 225.245364 171.834001 
L 225.309874 170.901184 
L 225.480338 169.937487 
L 225.754067 168.958107 
L 226.126744 167.978491 
L 226.592492 167.014086 
L 227.143966 166.080104 
L 227.772469 165.191272 
L 228.468088 164.361609 
L 229.219855 163.604199 
L 230.015912 162.930986 
L 230.843705 162.352588 
L 231.69018 161.878126 
L 232.541987 161.515083 
L 233.385693 161.269183 
L 234.207993 161.144306 
L 234.995916 161.142421 
L 235.737039 161.263557 
L 236.419673 161.505803 
L 237.033052 161.865341 
L 237.567503 162.336498 
L 238.014597 162.911846 
L 238.367284 163.582309 
L 238.620001 164.337316 
L 238.768763 165.164958 
L 238.811223 166.052184 
L 238.746713 166.985002 
L 238.576249 167.948699 
L 238.302521 168.928079 
L 237.929843 169.907695 
L 237.464095 170.872099 
L 236.912621 171.806082 
L 236.284119 172.694913 
L 235.588499 173.524576 
L 234.836733 174.281987 
L 234.040676 174.955199 
L 233.212883 175.533598 
L 232.366407 176.00806 
L 231.5146 176.371103 
L 230.670894 176.617002 
L 229.848595 176.741879 
L 229.060671 176.743765 
L 228.319548 176.622629 
L 227.636915 176.380382 
L 227.023536 176.020845 
L 226.489085 175.549688 
L 226.041991 174.97434 
L 225.689304 174.303876 
L 225.436587 173.54887 
L 225.436587 173.54887 
z
" clip-path="url(#pf38815ed8c)" style="fill: none; opacity: 0"/>
   </g>
   <g id="patch_4">
    <path d="M 135.620889 173.216643 
L 136.184047 160.939342 
L 138.258727 148.788266 
L 141.812208 136.955043 
L 146.788451 125.626291 
L 153.108977 114.98067 
L 160.674108 105.18607 
L 169.364537 96.396955 
L 179.043211 88.751937 
L 189.557492 82.371581 
L 200.741562 77.356509 
L 212.419043 73.785813 
L 224.405773 71.715803 
L 236.512715 71.179127 
L 248.548935 72.184246 
L 260.324615 74.71531 
L 271.654045 78.732403 
L 282.358553 84.172172 
L 292.269322 90.948829 
L 301.230055 98.955502 
L 309.099435 108.065921 
L 315.753357 118.13641 
L 321.086884 129.00815 
L 325.015904 140.509689 
L 327.478454 152.459639 
L 328.435698 164.669543 
L 327.87254 176.946843 
L 325.797861 189.09792 
L 322.244379 200.931143 
L 317.268136 212.259895 
L 310.94761 222.905515 
L 303.382479 232.700116 
L 294.69205 241.48923 
L 285.013376 249.134249 
L 274.499096 255.514605 
L 263.315025 260.529677 
L 251.637545 264.100373 
L 239.650814 266.170382 
L 227.543872 266.707059 
L 215.507652 265.70194 
L 203.731973 263.170876 
L 192.402543 259.153783 
L 181.698035 253.714014 
L 171.787265 246.937357 
L 162.826532 238.930684 
L 154.957153 229.820264 
L 148.303231 219.749776 
L 142.969703 208.878035 
L 139.040683 197.376497 
L 136.578133 185.426547 
L 135.620889 173.216643 
L 135.620889 173.216643 
z
" clip-path="url(#pf38815ed8c)" style="fill: none; opacity: 0"/>
   </g>
   <g id="patch_5">
    <path d="M 73.832727 207.357888 
L 73.877618 193.414856 
L 76.416639 179.08589 
L 81.409748 164.596966 
L 88.778203 150.176583 
L 98.405796 136.052159 
L 110.140697 122.446445 
L 123.797837 109.57401 
L 139.161837 97.637862 
L 155.990396 86.826239 
L 174.018118 77.309649 
L 192.960695 69.238172 
L 212.519392 62.739102 
L 232.385755 57.914932 
L 252.246481 54.841743 
L 271.788355 53.568 
L 290.703188 54.113791 
L 308.692683 56.470509 
L 325.473135 60.600987 
L 340.779907 66.440084 
L 354.3716 73.895715 
L 366.033866 82.8503 
L 375.582784 93.16262 
L 382.867762 104.670043 
L 387.773912 117.191091 
L 390.22386 130.528298 
L 390.17897 144.47133 
L 387.639949 158.800296 
L 382.646839 173.28922 
L 375.278385 187.709603 
L 365.650791 201.834027 
L 353.915891 215.439741 
L 340.25875 228.312176 
L 324.894751 240.248324 
L 308.066192 251.059946 
L 290.03847 260.576537 
L 271.095892 268.648013 
L 251.537196 275.147083 
L 231.670832 279.971253 
L 211.810106 283.044443 
L 192.268233 284.318186 
L 173.353399 283.772395 
L 155.363904 281.415677 
L 138.583452 277.285199 
L 123.276681 271.446102 
L 109.684988 263.990471 
L 98.022722 255.035886 
L 88.473803 244.723566 
L 81.188825 233.216143 
L 76.282675 220.695095 
L 73.832727 207.357888 
L 73.832727 207.357888 
z
" clip-path="url(#pf38815ed8c)" style="fill: none; opacity: 0"/>
   </g>
   <g id="matplotlib.axis_1">
    <g id="xtick_1">
     <g id="line2d_1">
      <path d="M 69.133142 307.584 
L 69.133142 41.472 
" clip-path="url(#pf38815ed8c)" style="fill: none; stroke: #b0b0b0; stroke-width: 0.8; stroke-linecap: square"/>
     </g>
     <g id="line2d_2">
      <defs>
       <path id="m857e8a1bb2" d="M 0 0 
L 0 3.5 
" style="stroke: #000000; stroke-width: 0.8"/>
      </defs>
      <g>
       <use xlink:href="#m857e8a1bb2" x="69.133142" y="307.584" style="stroke: #000000; stroke-width: 0.8"/>
      </g>
     </g>
     <g id="text_1">
      <!-- $\mathdefault{−0.04}$ -->
      <g transform="translate(56.403063 321.502498) scale(0.1 -0.1)">
       <defs>
        <path id="CMSY10-0" d="M 4218 1472 
C 4326 1472 4442 1472 4442 1600 
C 4442 1728 4326 1728 4218 1728 
L 755 1728 
C 646 1728 531 1728 531 1600 
C 531 1472 646 1472 755 1472 
L 4218 1472 
z
" transform="scale(0.015625)"/>
        <path id="CMR17-30" d="M 2688 2025 
C 2688 2416 2682 3080 2413 3591 
C 2176 4039 1798 4198 1466 4198 
C 1158 4198 768 4058 525 3597 
C 269 3118 243 2524 243 2025 
C 243 1661 250 1106 448 619 
C 723 -39 1216 -128 1466 -128 
C 1760 -128 2208 -7 2470 600 
C 2662 1042 2688 1559 2688 2025 
z
M 1466 -26 
C 1056 -26 813 325 723 812 
C 653 1188 653 1738 653 2096 
C 653 2588 653 2997 736 3387 
C 858 3929 1216 4096 1466 4096 
C 1728 4096 2067 3923 2189 3400 
C 2272 3036 2278 2607 2278 2096 
C 2278 1680 2278 1169 2202 792 
C 2067 95 1690 -26 1466 -26 
z
" transform="scale(0.015625)"/>
        <path id="CMMI12-3a" d="M 1178 307 
C 1178 492 1024 619 870 619 
C 685 619 557 466 557 313 
C 557 128 710 0 864 0 
C 1050 0 1178 153 1178 307 
z
" transform="scale(0.015625)"/>
        <path id="CMR17-34" d="M 2150 4122 
C 2150 4256 2144 4256 2029 4256 
L 128 1254 
L 128 1088 
L 1779 1088 
L 1779 457 
C 1779 224 1766 160 1318 160 
L 1197 160 
L 1197 0 
C 1402 0 1747 0 1965 0 
C 2182 0 2528 0 2733 0 
L 2733 160 
L 2611 160 
C 2163 160 2150 224 2150 457 
L 2150 1088 
L 2803 1088 
L 2803 1254 
L 2150 1254 
L 2150 4122 
z
M 1798 3703 
L 1798 1254 
L 256 1254 
L 1798 3703 
z
" transform="scale(0.015625)"/>
       </defs>
       <use xlink:href="#CMSY10-0" transform="scale(0.996264)"/>
       <use xlink:href="#CMR17-30" transform="translate(77.487468 0) scale(0.996264)"/>
       <use xlink:href="#CMMI12-3a" transform="translate(123.177945 0) scale(0.996264)"/>
       <use xlink:href="#CMR17-30" transform="translate(150.275122 0) scale(0.996264)"/>
       <use xlink:href="#CMR17-34" transform="translate(195.965599 0) scale(0.996264)"/>
      </g>
     </g>
    </g>
    <g id="xtick_2">
     <g id="line2d_3">
      <path d="M 146.337697 307.584 
L 146.337697 41.472 
" clip-path="url(#pf38815ed8c)" style="fill: none; stroke: #b0b0b0; stroke-width: 0.8; stroke-linecap: square"/>
     </g>
     <g id="line2d_4">
      <g>
       <use xlink:href="#m857e8a1bb2" x="146.337697" y="307.584" style="stroke: #000000; stroke-width: 0.8"/>
      </g>
     </g>
     <g id="text_2">
      <!-- $\mathdefault{−0.02}$ -->
      <g transform="translate(133.607618 321.502498) scale(0.1 -0.1)">
       <defs>
        <path id="CMR17-32" d="M 2669 989 
L 2554 989 
C 2490 536 2438 459 2413 420 
C 2381 369 1920 369 1830 369 
L 602 369 
C 832 619 1280 1072 1824 1597 
C 2214 1967 2669 2402 2669 3035 
C 2669 3790 2067 4224 1395 4224 
C 691 4224 262 3604 262 3030 
C 262 2780 448 2748 525 2748 
C 589 2748 781 2787 781 3010 
C 781 3207 614 3264 525 3264 
C 486 3264 448 3258 422 3245 
C 544 3790 915 4058 1306 4058 
C 1862 4058 2227 3617 2227 3035 
C 2227 2479 1901 2000 1536 1584 
L 262 146 
L 262 0 
L 2515 0 
L 2669 989 
z
" transform="scale(0.015625)"/>
       </defs>
       <use xlink:href="#CMSY10-0" transform="scale(0.996264)"/>
       <use xlink:href="#CMR17-30" transform="translate(77.487468 0) scale(0.996264)"/>
       <use xlink:href="#CMMI12-3a" transform="translate(123.177945 0) scale(0.996264)"/>
       <use xlink:href="#CMR17-30" transform="translate(150.275122 0) scale(0.996264)"/>
       <use xlink:href="#CMR17-32" transform="translate(195.965599 0) scale(0.996264)"/>
      </g>
     </g>
    </g>
    <g id="xtick_3">
     <g id="line2d_5">
      <path d="M 223.542252 307.584 
L 223.542252 41.472 
" clip-path="url(#pf38815ed8c)" style="fill: none; stroke: #b0b0b0; stroke-width: 0.8; stroke-linecap: square"/>
     </g>
     <g id="line2d_6">
      <g>
       <use xlink:href="#m857e8a1bb2" x="223.542252" y="307.584" style="stroke: #000000; stroke-width: 0.8"/>
      </g>
     </g>
     <g id="text_3">
      <!-- $\mathdefault{0.00}$ -->
      <g transform="translate(214.686545 321.502498) scale(0.1 -0.1)">
       <use xlink:href="#CMR17-30" transform="scale(0.996264)"/>
       <use xlink:href="#CMMI12-3a" transform="translate(45.690477 0) scale(0.996264)"/>
       <use xlink:href="#CMR17-30" transform="translate(72.787654 0) scale(0.996264)"/>
       <use xlink:href="#CMR17-30" transform="translate(118.478131 0) scale(0.996264)"/>
      </g>
     </g>
    </g>
    <g id="xtick_4">
     <g id="line2d_7">
      <path d="M 300.746807 307.584 
L 300.746807 41.472 
" clip-path="url(#pf38815ed8c)" style="fill: none; stroke: #b0b0b0; stroke-width: 0.8; stroke-linecap: square"/>
     </g>
     <g id="line2d_8">
      <g>
       <use xlink:href="#m857e8a1bb2" x="300.746807" y="307.584" style="stroke: #000000; stroke-width: 0.8"/>
      </g>
     </g>
     <g id="text_4">
      <!-- $\mathdefault{0.02}$ -->
      <g transform="translate(291.8911 321.502498) scale(0.1 -0.1)">
       <use xlink:href="#CMR17-30" transform="scale(0.996264)"/>
       <use xlink:href="#CMMI12-3a" transform="translate(45.690477 0) scale(0.996264)"/>
       <use xlink:href="#CMR17-30" transform="translate(72.787654 0) scale(0.996264)"/>
       <use xlink:href="#CMR17-32" transform="translate(118.478131 0) scale(0.996264)"/>
      </g>
     </g>
    </g>
    <g id="xtick_5">
     <g id="line2d_9">
      <path d="M 377.951362 307.584 
L 377.951362 41.472 
" clip-path="url(#pf38815ed8c)" style="fill: none; stroke: #b0b0b0; stroke-width: 0.8; stroke-linecap: square"/>
     </g>
     <g id="line2d_10">
      <g>
       <use xlink:href="#m857e8a1bb2" x="377.951362" y="307.584" style="stroke: #000000; stroke-width: 0.8"/>
      </g>
     </g>
     <g id="text_5">
      <!-- $\mathdefault{0.04}$ -->
      <g transform="translate(369.095655 321.502498) scale(0.1 -0.1)">
       <use xlink:href="#CMR17-30" transform="scale(0.996264)"/>
       <use xlink:href="#CMMI12-3a" transform="translate(45.690477 0) scale(0.996264)"/>
       <use xlink:href="#CMR17-30" transform="translate(72.787654 0) scale(0.996264)"/>
       <use xlink:href="#CMR17-34" transform="translate(118.478131 0) scale(0.996264)"/>
      </g>
     </g>
    </g>
    <g id="text_6">
     <!-- x [m] -->
     <g transform="translate(225.36713 334.911657) scale(0.1 -0.1)">
      <defs>
       <path id="CMSS17-78" d="M 1587 1414 
L 2656 2739 
L 2099 2739 
L 1363 1777 
L 602 2739 
L 32 2739 
L 1139 1414 
L 0 0 
L 563 0 
L 1363 1121 
L 2195 0 
L 2758 0 
L 1587 1414 
z
" transform="scale(0.015625)"/>
       <path id="CMSS17-5b" d="M 1613 -1600 
L 1613 -1212 
L 1062 -1212 
L 1062 4352 
L 1613 4352 
L 1613 4741 
L 595 4741 
L 595 -1600 
L 1613 -1600 
z
" transform="scale(0.015625)"/>
       <path id="CMSS17-6d" d="M 4288 1877 
C 4288 2308 4179 2816 3462 2816 
C 2982 2816 2694 2516 2566 2331 
C 2451 2670 2182 2816 1798 2816 
C 1363 2816 1088 2568 941 2389 
L 941 2758 
L 474 2758 
L 474 0 
L 960 0 
L 960 1559 
C 960 1939 1101 2428 1555 2428 
C 2138 2428 2138 2016 2138 1829 
L 2138 0 
L 2624 0 
L 2624 1559 
C 2624 1939 2765 2428 3219 2428 
C 3802 2428 3802 2016 3802 1829 
L 3802 0 
L 4288 0 
L 4288 1877 
z
" transform="scale(0.015625)"/>
       <path id="CMSS17-5d" d="M 1146 4741 
L 128 4741 
L 128 4352 
L 678 4352 
L 678 -1212 
L 128 -1212 
L 128 -1600 
L 1146 -1600 
L 1146 4741 
z
" transform="scale(0.015625)"/>
      </defs>
      <use xlink:href="#CMSS17-78" transform="scale(0.996264)"/>
      <use xlink:href="#CMSS17-5b" transform="translate(74.229254 0) scale(0.996264)"/>
      <use xlink:href="#CMSS17-6d" transform="translate(101.414693 0) scale(0.996264)"/>
      <use xlink:href="#CMSS17-5d" transform="translate(175.643948 0) scale(0.996264)"/>
     </g>
    </g>
   </g>
   <g id="matplotlib.axis_2">
    <g id="ytick_1">
     <g id="line2d_11">
      <path d="M 57.6 304.963648 
L 414.72 304.963648 
" clip-path="url(#pf38815ed8c)" style="fill: none; stroke: #b0b0b0; stroke-width: 0.8; stroke-linecap: square"/>
     </g>
     <g id="line2d_12">
      <defs>
       <path id="m4679d84876" d="M 0 0 
L -3.5 0 
" style="stroke: #000000; stroke-width: 0.8"/>
      </defs>
      <g>
       <use xlink:href="#m4679d84876" x="57.6" y="304.963648" style="stroke: #000000; stroke-width: 0.8"/>
      </g>
     </g>
     <g id="text_7">
      <!-- $\mathdefault{−0.020}$ -->
      <g transform="translate(20.158507 308.422897) scale(0.1 -0.1)">
       <use xlink:href="#CMSY10-0" transform="scale(0.996264)"/>
       <use xlink:href="#CMR17-30" transform="translate(77.487468 0) scale(0.996264)"/>
       <use xlink:href="#CMMI12-3a" transform="translate(123.177945 0) scale(0.996264)"/>
       <use xlink:href="#CMR17-30" transform="translate(150.275122 0) scale(0.996264)"/>
       <use xlink:href="#CMR17-32" transform="translate(195.965599 0) scale(0.996264)"/>
       <use xlink:href="#CMR17-30" transform="translate(241.656076 0) scale(0.996264)"/>
      </g>
     </g>
    </g>
    <g id="ytick_2">
     <g id="line2d_13">
      <path d="M 57.6 272.93074 
L 414.72 272.93074 
" clip-path="url(#pf38815ed8c)" style="fill: none; stroke: #b0b0b0; stroke-width: 0.8; stroke-linecap: square"/>
     </g>
     <g id="line2d_14">
      <g>
       <use xlink:href="#m4679d84876" x="57.6" y="272.93074" style="stroke: #000000; stroke-width: 0.8"/>
      </g>
     </g>
     <g id="text_8">
      <!-- $\mathdefault{−0.015}$ -->
      <g transform="translate(20.158507 276.38999) scale(0.1 -0.1)">
       <defs>
        <path id="CMR17-31" d="M 1702 4058 
C 1702 4192 1696 4192 1606 4192 
C 1357 3916 979 3827 621 3827 
C 602 3827 570 3827 563 3808 
C 557 3795 557 3782 557 3648 
C 755 3648 1088 3686 1344 3839 
L 1344 461 
C 1344 236 1331 160 781 160 
L 589 160 
L 589 0 
C 896 0 1216 0 1523 0 
C 1830 0 2150 0 2458 0 
L 2458 160 
L 2266 160 
C 1715 160 1702 230 1702 458 
L 1702 4058 
z
" transform="scale(0.015625)"/>
        <path id="CMR17-35" d="M 730 3692 
C 794 3666 1056 3584 1325 3584 
C 1920 3584 2246 3911 2432 4100 
C 2432 4157 2432 4192 2394 4192 
C 2387 4192 2374 4192 2323 4163 
C 2099 4058 1837 3973 1517 3973 
C 1325 3973 1037 3999 723 4139 
C 653 4171 640 4171 634 4171 
C 602 4171 595 4164 595 4037 
L 595 2203 
C 595 2089 595 2057 659 2057 
C 691 2057 704 2070 736 2114 
C 941 2401 1222 2522 1542 2522 
C 1766 2522 2246 2382 2246 1289 
C 2246 1085 2246 715 2054 421 
C 1894 159 1645 25 1370 25 
C 947 25 518 320 403 814 
C 429 807 480 795 506 795 
C 589 795 749 840 749 1038 
C 749 1210 627 1280 506 1280 
C 358 1280 262 1190 262 1011 
C 262 454 704 -128 1382 -128 
C 2042 -128 2669 440 2669 1264 
C 2669 2030 2170 2624 1549 2624 
C 1222 2624 947 2503 730 2274 
L 730 3692 
z
" transform="scale(0.015625)"/>
       </defs>
       <use xlink:href="#CMSY10-0" transform="scale(0.996264)"/>
       <use xlink:href="#CMR17-30" transform="translate(77.487468 0) scale(0.996264)"/>
       <use xlink:href="#CMMI12-3a" transform="translate(123.177945 0) scale(0.996264)"/>
       <use xlink:href="#CMR17-30" transform="translate(150.275122 0) scale(0.996264)"/>
       <use xlink:href="#CMR17-31" transform="translate(195.965599 0) scale(0.996264)"/>
       <use xlink:href="#CMR17-35" transform="translate(241.656076 0) scale(0.996264)"/>
      </g>
     </g>
    </g>
    <g id="ytick_3">
     <g id="line2d_15">
      <path d="M 57.6 240.897833 
L 414.72 240.897833 
" clip-path="url(#pf38815ed8c)" style="fill: none; stroke: #b0b0b0; stroke-width: 0.8; stroke-linecap: square"/>
     </g>
     <g id="line2d_16">
      <g>
       <use xlink:href="#m4679d84876" x="57.6" y="240.897833" style="stroke: #000000; stroke-width: 0.8"/>
      </g>
     </g>
     <g id="text_9">
      <!-- $\mathdefault{−0.010}$ -->
      <g transform="translate(20.158507 244.357082) scale(0.1 -0.1)">
       <use xlink:href="#CMSY10-0" transform="scale(0.996264)"/>
       <use xlink:href="#CMR17-30" transform="translate(77.487468 0) scale(0.996264)"/>
       <use xlink:href="#CMMI12-3a" transform="translate(123.177945 0) scale(0.996264)"/>
       <use xlink:href="#CMR17-30" transform="translate(150.275122 0) scale(0.996264)"/>
       <use xlink:href="#CMR17-31" transform="translate(195.965599 0) scale(0.996264)"/>
       <use xlink:href="#CMR17-30" transform="translate(241.656076 0) scale(0.996264)"/>
      </g>
     </g>
    </g>
    <g id="ytick_4">
     <g id="line2d_17">
      <path d="M 57.6 208.864925 
L 414.72 208.864925 
" clip-path="url(#pf38815ed8c)" style="fill: none; stroke: #b0b0b0; stroke-width: 0.8; stroke-linecap: square"/>
     </g>
     <g id="line2d_18">
      <g>
       <use xlink:href="#m4679d84876" x="57.6" y="208.864925" style="stroke: #000000; stroke-width: 0.8"/>
      </g>
     </g>
     <g id="text_10">
      <!-- $\mathdefault{−0.005}$ -->
      <g transform="translate(20.158507 212.324174) scale(0.1 -0.1)">
       <use xlink:href="#CMSY10-0" transform="scale(0.996264)"/>
       <use xlink:href="#CMR17-30" transform="translate(77.487468 0) scale(0.996264)"/>
       <use xlink:href="#CMMI12-3a" transform="translate(123.177945 0) scale(0.996264)"/>
       <use xlink:href="#CMR17-30" transform="translate(150.275122 0) scale(0.996264)"/>
       <use xlink:href="#CMR17-30" transform="translate(195.965599 0) scale(0.996264)"/>
       <use xlink:href="#CMR17-35" transform="translate(241.656076 0) scale(0.996264)"/>
      </g>
     </g>
    </g>
    <g id="ytick_5">
     <g id="line2d_19">
      <path d="M 57.6 176.832017 
L 414.72 176.832017 
" clip-path="url(#pf38815ed8c)" style="fill: none; stroke: #b0b0b0; stroke-width: 0.8; stroke-linecap: square"/>
     </g>
     <g id="line2d_20">
      <g>
       <use xlink:href="#m4679d84876" x="57.6" y="176.832017" style="stroke: #000000; stroke-width: 0.8"/>
      </g>
     </g>
     <g id="text_11">
      <!-- $\mathdefault{0.000}$ -->
      <g transform="translate(27.907251 180.291266) scale(0.1 -0.1)">
       <use xlink:href="#CMR17-30" transform="scale(0.996264)"/>
       <use xlink:href="#CMMI12-3a" transform="translate(45.690477 0) scale(0.996264)"/>
       <use xlink:href="#CMR17-30" transform="translate(72.787654 0) scale(0.996264)"/>
       <use xlink:href="#CMR17-30" transform="translate(118.478131 0) scale(0.996264)"/>
       <use xlink:href="#CMR17-30" transform="translate(164.168608 0) scale(0.996264)"/>
      </g>
     </g>
    </g>
    <g id="ytick_6">
     <g id="line2d_21">
      <path d="M 57.6 144.799109 
L 414.72 144.799109 
" clip-path="url(#pf38815ed8c)" style="fill: none; stroke: #b0b0b0; stroke-width: 0.8; stroke-linecap: square"/>
     </g>
     <g id="line2d_22">
      <g>
       <use xlink:href="#m4679d84876" x="57.6" y="144.799109" style="stroke: #000000; stroke-width: 0.8"/>
      </g>
     </g>
     <g id="text_12">
      <!-- $\mathdefault{0.005}$ -->
      <g transform="translate(27.907251 148.258358) scale(0.1 -0.1)">
       <use xlink:href="#CMR17-30" transform="scale(0.996264)"/>
       <use xlink:href="#CMMI12-3a" transform="translate(45.690477 0) scale(0.996264)"/>
       <use xlink:href="#CMR17-30" transform="translate(72.787654 0) scale(0.996264)"/>
       <use xlink:href="#CMR17-30" transform="translate(118.478131 0) scale(0.996264)"/>
       <use xlink:href="#CMR17-35" transform="translate(164.168608 0) scale(0.996264)"/>
      </g>
     </g>
    </g>
    <g id="ytick_7">
     <g id="line2d_23">
      <path d="M 57.6 112.766201 
L 414.72 112.766201 
" clip-path="url(#pf38815ed8c)" style="fill: none; stroke: #b0b0b0; stroke-width: 0.8; stroke-linecap: square"/>
     </g>
     <g id="line2d_24">
      <g>
       <use xlink:href="#m4679d84876" x="57.6" y="112.766201" style="stroke: #000000; stroke-width: 0.8"/>
      </g>
     </g>
     <g id="text_13">
      <!-- $\mathdefault{0.010}$ -->
      <g transform="translate(27.907251 116.225451) scale(0.1 -0.1)">
       <use xlink:href="#CMR17-30" transform="scale(0.996264)"/>
       <use xlink:href="#CMMI12-3a" transform="translate(45.690477 0) scale(0.996264)"/>
       <use xlink:href="#CMR17-30" transform="translate(72.787654 0) scale(0.996264)"/>
       <use xlink:href="#CMR17-31" transform="translate(118.478131 0) scale(0.996264)"/>
       <use xlink:href="#CMR17-30" transform="translate(164.168608 0) scale(0.996264)"/>
      </g>
     </g>
    </g>
    <g id="ytick_8">
     <g id="line2d_25">
      <path d="M 57.6 80.733294 
L 414.72 80.733294 
" clip-path="url(#pf38815ed8c)" style="fill: none; stroke: #b0b0b0; stroke-width: 0.8; stroke-linecap: square"/>
     </g>
     <g id="line2d_26">
      <g>
       <use xlink:href="#m4679d84876" x="57.6" y="80.733294" style="stroke: #000000; stroke-width: 0.8"/>
      </g>
     </g>
     <g id="text_14">
      <!-- $\mathdefault{0.015}$ -->
      <g transform="translate(27.907251 84.192543) scale(0.1 -0.1)">
       <use xlink:href="#CMR17-30" transform="scale(0.996264)"/>
       <use xlink:href="#CMMI12-3a" transform="translate(45.690477 0) scale(0.996264)"/>
       <use xlink:href="#CMR17-30" transform="translate(72.787654 0) scale(0.996264)"/>
       <use xlink:href="#CMR17-31" transform="translate(118.478131 0) scale(0.996264)"/>
       <use xlink:href="#CMR17-35" transform="translate(164.168608 0) scale(0.996264)"/>
      </g>
     </g>
    </g>
    <g id="ytick_9">
     <g id="line2d_27">
      <path d="M 57.6 48.700386 
L 414.72 48.700386 
" clip-path="url(#pf38815ed8c)" style="fill: none; stroke: #b0b0b0; stroke-width: 0.8; stroke-linecap: square"/>
     </g>
     <g id="line2d_28">
      <g>
       <use xlink:href="#m4679d84876" x="57.6" y="48.700386" style="stroke: #000000; stroke-width: 0.8"/>
      </g>
     </g>
     <g id="text_15">
      <!-- $\mathdefault{0.020}$ -->
      <g transform="translate(27.907251 52.159635) scale(0.1 -0.1)">
       <use xlink:href="#CMR17-30" transform="scale(0.996264)"/>
       <use xlink:href="#CMMI12-3a" transform="translate(45.690477 0) scale(0.996264)"/>
       <use xlink:href="#CMR17-30" transform="translate(72.787654 0) scale(0.996264)"/>
       <use xlink:href="#CMR17-32" transform="translate(118.478131 0) scale(0.996264)"/>
       <use xlink:href="#CMR17-30" transform="translate(164.168608 0) scale(0.996264)"/>
      </g>
     </g>
    </g>
    <g id="text_16">
     <!-- y [m] -->
     <g transform="translate(13.667847 185.32087) rotate(-90) scale(0.1 -0.1)">
      <defs>
       <path id="CMSS17-79" d="M 2675 2752 
L 2176 2752 
C 1632 1294 1446 702 1434 383 
L 1427 383 
C 1408 696 1126 1460 902 2007 
L 602 2752 
L 83 2752 
L 1216 13 
C 1146 -178 1043 -465 1011 -529 
C 870 -885 774 -885 672 -885 
C 646 -885 442 -885 211 -809 
L 250 -1229 
C 410 -1261 570 -1280 685 -1280 
C 845 -1280 1165 -1280 1459 -497 
L 2675 2752 
z
" transform="scale(0.015625)"/>
      </defs>
      <use xlink:href="#CMSS17-79" transform="scale(0.996264)"/>
      <use xlink:href="#CMSS17-5b" transform="translate(74.229254 0) scale(0.996264)"/>
      <use xlink:href="#CMSS17-6d" transform="translate(101.414693 0) scale(0.996264)"/>
      <use xlink:href="#CMSS17-5d" transform="translate(175.643948 0) scale(0.996264)"/>
     </g>
    </g>
   </g>
   <g id="line2d_29">
    <path d="M 225.436587 173.54887 
L 225.287825 172.721227 
L 225.245364 171.834001 
L 225.309874 170.901184 
L 225.480338 169.937487 
L 225.754067 168.958107 
L 226.126744 167.978491 
L 226.592492 167.014086 
L 227.143966 166.080104 
L 227.772469 165.191272 
L 228.468088 164.361609 
L 229.219855 163.604199 
L 230.015912 162.930986 
L 230.843705 162.352588 
L 231.69018 161.878126 
L 232.541987 161.515083 
L 233.385693 161.269183 
L 234.207993 161.144306 
L 234.995916 161.142421 
L 235.737039 161.263557 
L 236.419673 161.505803 
L 237.033052 161.865341 
L 237.567503 162.336498 
L 238.014597 162.911846 
L 238.367284 163.582309 
L 238.620001 164.337316 
L 238.768763 165.164958 
L 238.811223 166.052184 
L 238.746713 166.985002 
L 238.576249 167.948699 
L 238.302521 168.928079 
L 237.929843 169.907695 
L 237.464095 170.872099 
L 236.912621 171.806082 
L 236.284119 172.694913 
L 235.588499 173.524576 
L 234.836733 174.281987 
L 234.040676 174.955199 
L 233.212883 175.533598 
L 232.366407 176.00806 
L 231.5146 176.371103 
L 230.670894 176.617002 
L 229.848595 176.741879 
L 229.060671 176.743765 
L 228.319548 176.622629 
L 227.636915 176.380382 
L 227.023536 176.020845 
L 226.489085 175.549688 
L 226.041991 174.97434 
L 225.689304 174.303876 
L 225.436587 173.54887 
" clip-path="url(#pf38815ed8c)" style="fill: none; stroke: #0000ff; stroke-width: 1.5; stroke-linecap: square"/>
   </g>
   <g id="line2d_30">
    <path d="M 135.620889 173.216643 
L 136.184047 160.939342 
L 138.258727 148.788266 
L 141.812208 136.955043 
L 146.788451 125.626291 
L 153.108977 114.98067 
L 160.674108 105.18607 
L 169.364537 96.396955 
L 179.043211 88.751937 
L 189.557492 82.371581 
L 200.741562 77.356509 
L 212.419043 73.785813 
L 224.405773 71.715803 
L 236.512715 71.179127 
L 248.548935 72.184246 
L 260.324615 74.71531 
L 271.654045 78.732403 
L 282.358553 84.172172 
L 292.269322 90.948829 
L 301.230055 98.955502 
L 309.099435 108.065921 
L 315.753357 118.13641 
L 321.086884 129.00815 
L 325.015904 140.509689 
L 327.478454 152.459639 
L 328.435698 164.669543 
L 327.87254 176.946843 
L 325.797861 189.09792 
L 322.244379 200.931143 
L 317.268136 212.259895 
L 310.94761 222.905515 
L 303.382479 232.700116 
L 294.69205 241.48923 
L 285.013376 249.134249 
L 274.499096 255.514605 
L 263.315025 260.529677 
L 251.637545 264.100373 
L 239.650814 266.170382 
L 227.543872 266.707059 
L 215.507652 265.70194 
L 203.731973 263.170876 
L 192.402543 259.153783 
L 181.698035 253.714014 
L 171.787265 246.937357 
L 162.826532 238.930684 
L 154.957153 229.820264 
L 148.303231 219.749776 
L 142.969703 208.878035 
L 139.040683 197.376497 
L 136.578133 185.426547 
L 135.620889 173.216643 
" clip-path="url(#pf38815ed8c)" style="fill: none; stroke: #008000; stroke-width: 1.5; stroke-linecap: square"/>
   </g>
   <g id="line2d_31">
    <defs>
     <path id="m3ee3b9a187" d="M 0 1.5 
C 0.397805 1.5 0.77937 1.341951 1.06066 1.06066 
C 1.341951 0.77937 1.5 0.397805 1.5 0 
C 1.5 -0.397805 1.341951 -0.77937 1.06066 -1.06066 
C 0.77937 -1.341951 0.397805 -1.5 0 -1.5 
C -0.397805 -1.5 -0.77937 -1.341951 -1.06066 -1.06066 
C -1.341951 -0.77937 -1.5 -0.397805 -1.5 0 
C -1.5 0.397805 -1.341951 0.77937 -1.06066 1.06066 
C -0.77937 1.341951 -0.397805 1.5 0 1.5 
z
" style="stroke: #ff0000"/>
    </defs>
    <g clip-path="url(#pf38815ed8c)">
     <use xlink:href="#m3ee3b9a187" x="223.223169" y="206.9441" style="fill: #ff0000; stroke: #ff0000"/>
     <use xlink:href="#m3ee3b9a187" x="238.48698" y="135.614031" style="fill: #ff0000; stroke: #ff0000"/>
     <use xlink:href="#m3ee3b9a187" x="260.479573" y="193.340903" style="fill: #ff0000; stroke: #ff0000"/>
     <use xlink:href="#m3ee3b9a187" x="286.098141" y="194.824458" style="fill: #ff0000; stroke: #ff0000"/>
     <use xlink:href="#m3ee3b9a187" x="228.973261" y="143.684935" style="fill: #ff0000; stroke: #ff0000"/>
     <use xlink:href="#m3ee3b9a187" x="269.203429" y="123.870887" style="fill: #ff0000; stroke: #ff0000"/>
     <use xlink:href="#m3ee3b9a187" x="269.126042" y="202.617428" style="fill: #ff0000; stroke: #ff0000"/>
     <use xlink:href="#m3ee3b9a187" x="165.99572" y="185.540064" style="fill: #ff0000; stroke: #ff0000"/>
     <use xlink:href="#m3ee3b9a187" x="237.474842" y="138.091101" style="fill: #ff0000; stroke: #ff0000"/>
     <use xlink:href="#m3ee3b9a187" x="207.697572" y="145.190326" style="fill: #ff0000; stroke: #ff0000"/>
     <use xlink:href="#m3ee3b9a187" x="231.896909" y="121.341322" style="fill: #ff0000; stroke: #ff0000"/>
     <use xlink:href="#m3ee3b9a187" x="202.243886" y="143.777933" style="fill: #ff0000; stroke: #ff0000"/>
     <use xlink:href="#m3ee3b9a187" x="193.290631" y="208.129856" style="fill: #ff0000; stroke: #ff0000"/>
     <use xlink:href="#m3ee3b9a187" x="209.721689" y="213.127868" style="fill: #ff0000; stroke: #ff0000"/>
     <use xlink:href="#m3ee3b9a187" x="231.589645" y="133.153358" style="fill: #ff0000; stroke: #ff0000"/>
     <use xlink:href="#m3ee3b9a187" x="254.303818" y="123.893968" style="fill: #ff0000; stroke: #ff0000"/>
     <use xlink:href="#m3ee3b9a187" x="193.240256" y="213.317233" style="fill: #ff0000; stroke: #ff0000"/>
     <use xlink:href="#m3ee3b9a187" x="263.497142" y="192.165163" style="fill: #ff0000; stroke: #ff0000"/>
     <use xlink:href="#m3ee3b9a187" x="263.480505" y="170.932855" style="fill: #ff0000; stroke: #ff0000"/>
     <use xlink:href="#m3ee3b9a187" x="199.335948" y="156.20279" style="fill: #ff0000; stroke: #ff0000"/>
     <use xlink:href="#m3ee3b9a187" x="298.774979" y="155.792527" style="fill: #ff0000; stroke: #ff0000"/>
     <use xlink:href="#m3ee3b9a187" x="222.368876" y="131.182689" style="fill: #ff0000; stroke: #ff0000"/>
     <use xlink:href="#m3ee3b9a187" x="154.294257" y="217.85948" style="fill: #ff0000; stroke: #ff0000"/>
     <use xlink:href="#m3ee3b9a187" x="197.468913" y="165.003259" style="fill: #ff0000; stroke: #ff0000"/>
     <use xlink:href="#m3ee3b9a187" x="205.821111" y="161.482226" style="fill: #ff0000; stroke: #ff0000"/>
     <use xlink:href="#m3ee3b9a187" x="216.919261" y="150.370052" style="fill: #ff0000; stroke: #ff0000"/>
     <use xlink:href="#m3ee3b9a187" x="240.289556" y="177.036564" style="fill: #ff0000; stroke: #ff0000"/>
     <use xlink:href="#m3ee3b9a187" x="197.486048" y="184.787766" style="fill: #ff0000; stroke: #ff0000"/>
     <use xlink:href="#m3ee3b9a187" x="163.245993" y="295.488" style="fill: #ff0000; stroke: #ff0000"/>
     <use xlink:href="#m3ee3b9a187" x="209.895258" y="220.144496" style="fill: #ff0000; stroke: #ff0000"/>
     <use xlink:href="#m3ee3b9a187" x="187.261936" y="192.287471" style="fill: #ff0000; stroke: #ff0000"/>
     <use xlink:href="#m3ee3b9a187" x="323.351556" y="247.152763" style="fill: #ff0000; stroke: #ff0000"/>
     <use xlink:href="#m3ee3b9a187" x="173.465924" y="169.029726" style="fill: #ff0000; stroke: #ff0000"/>
     <use xlink:href="#m3ee3b9a187" x="178.116766" y="133.474244" style="fill: #ff0000; stroke: #ff0000"/>
     <use xlink:href="#m3ee3b9a187" x="283.066716" y="169.737165" style="fill: #ff0000; stroke: #ff0000"/>
     <use xlink:href="#m3ee3b9a187" x="215.939493" y="151.38356" style="fill: #ff0000; stroke: #ff0000"/>
     <use xlink:href="#m3ee3b9a187" x="172.954003" y="208.782675" style="fill: #ff0000; stroke: #ff0000"/>
     <use xlink:href="#m3ee3b9a187" x="279.758906" y="257.90358" style="fill: #ff0000; stroke: #ff0000"/>
     <use xlink:href="#m3ee3b9a187" x="221.943894" y="136.730577" style="fill: #ff0000; stroke: #ff0000"/>
     <use xlink:href="#m3ee3b9a187" x="203.186546" y="221.473392" style="fill: #ff0000; stroke: #ff0000"/>
     <use xlink:href="#m3ee3b9a187" x="365.395701" y="197.720577" style="fill: #ff0000; stroke: #ff0000"/>
     <use xlink:href="#m3ee3b9a187" x="154.596849" y="172.972316" style="fill: #ff0000; stroke: #ff0000"/>
     <use xlink:href="#m3ee3b9a187" x="219.277845" y="107.43875" style="fill: #ff0000; stroke: #ff0000"/>
     <use xlink:href="#m3ee3b9a187" x="252.021478" y="254.262274" style="fill: #ff0000; stroke: #ff0000"/>
     <use xlink:href="#m3ee3b9a187" x="263.408531" y="111.043092" style="fill: #ff0000; stroke: #ff0000"/>
     <use xlink:href="#m3ee3b9a187" x="359.149954" y="148.847221" style="fill: #ff0000; stroke: #ff0000"/>
     <use xlink:href="#m3ee3b9a187" x="241.965624" y="163.487166" style="fill: #ff0000; stroke: #ff0000"/>
     <use xlink:href="#m3ee3b9a187" x="278.809847" y="209.581556" style="fill: #ff0000; stroke: #ff0000"/>
     <use xlink:href="#m3ee3b9a187" x="172.457367" y="196.33752" style="fill: #ff0000; stroke: #ff0000"/>
     <use xlink:href="#m3ee3b9a187" x="215.479974" y="229.313444" style="fill: #ff0000; stroke: #ff0000"/>
     <use xlink:href="#m3ee3b9a187" x="197.820621" y="129.494034" style="fill: #ff0000; stroke: #ff0000"/>
     <use xlink:href="#m3ee3b9a187" x="262.941881" y="159.751215" style="fill: #ff0000; stroke: #ff0000"/>
     <use xlink:href="#m3ee3b9a187" x="235.492681" y="158.115419" style="fill: #ff0000; stroke: #ff0000"/>
     <use xlink:href="#m3ee3b9a187" x="155.679657" y="219.546147" style="fill: #ff0000; stroke: #ff0000"/>
     <use xlink:href="#m3ee3b9a187" x="214.883674" y="172.621709" style="fill: #ff0000; stroke: #ff0000"/>
     <use xlink:href="#m3ee3b9a187" x="169.287236" y="170.210989" style="fill: #ff0000; stroke: #ff0000"/>
     <use xlink:href="#m3ee3b9a187" x="176.112988" y="181.489862" style="fill: #ff0000; stroke: #ff0000"/>
     <use xlink:href="#m3ee3b9a187" x="195.241824" y="189.880197" style="fill: #ff0000; stroke: #ff0000"/>
     <use xlink:href="#m3ee3b9a187" x="279.514668" y="167.620855" style="fill: #ff0000; stroke: #ff0000"/>
     <use xlink:href="#m3ee3b9a187" x="245.748579" y="154.459346" style="fill: #ff0000; stroke: #ff0000"/>
     <use xlink:href="#m3ee3b9a187" x="262.958454" y="155.628438" style="fill: #ff0000; stroke: #ff0000"/>
     <use xlink:href="#m3ee3b9a187" x="295.752831" y="203.241385" style="fill: #ff0000; stroke: #ff0000"/>
     <use xlink:href="#m3ee3b9a187" x="269.944548" y="150.400005" style="fill: #ff0000; stroke: #ff0000"/>
     <use xlink:href="#m3ee3b9a187" x="285.161332" y="136.688498" style="fill: #ff0000; stroke: #ff0000"/>
     <use xlink:href="#m3ee3b9a187" x="246.394032" y="140.885546" style="fill: #ff0000; stroke: #ff0000"/>
     <use xlink:href="#m3ee3b9a187" x="279.205798" y="145.243555" style="fill: #ff0000; stroke: #ff0000"/>
     <use xlink:href="#m3ee3b9a187" x="211.434152" y="214.431893" style="fill: #ff0000; stroke: #ff0000"/>
     <use xlink:href="#m3ee3b9a187" x="173.154553" y="153.079994" style="fill: #ff0000; stroke: #ff0000"/>
     <use xlink:href="#m3ee3b9a187" x="261.581466" y="169.920762" style="fill: #ff0000; stroke: #ff0000"/>
     <use xlink:href="#m3ee3b9a187" x="358.748426" y="110.898706" style="fill: #ff0000; stroke: #ff0000"/>
     <use xlink:href="#m3ee3b9a187" x="270.726508" y="133.105358" style="fill: #ff0000; stroke: #ff0000"/>
     <use xlink:href="#m3ee3b9a187" x="143.787968" y="197.073183" style="fill: #ff0000; stroke: #ff0000"/>
     <use xlink:href="#m3ee3b9a187" x="100.730043" y="188.775105" style="fill: #ff0000; stroke: #ff0000"/>
     <use xlink:href="#m3ee3b9a187" x="194.837322" y="190.462879" style="fill: #ff0000; stroke: #ff0000"/>
     <use xlink:href="#m3ee3b9a187" x="398.487273" y="97.795499" style="fill: #ff0000; stroke: #ff0000"/>
     <use xlink:href="#m3ee3b9a187" x="314.462711" y="184.655301" style="fill: #ff0000; stroke: #ff0000"/>
     <use xlink:href="#m3ee3b9a187" x="276.606238" y="173.507293" style="fill: #ff0000; stroke: #ff0000"/>
     <use xlink:href="#m3ee3b9a187" x="285.088026" y="126.268277" style="fill: #ff0000; stroke: #ff0000"/>
     <use xlink:href="#m3ee3b9a187" x="231.666342" y="197.612513" style="fill: #ff0000; stroke: #ff0000"/>
     <use xlink:href="#m3ee3b9a187" x="251.549483" y="148.182245" style="fill: #ff0000; stroke: #ff0000"/>
     <use xlink:href="#m3ee3b9a187" x="279.09241" y="142.793682" style="fill: #ff0000; stroke: #ff0000"/>
     <use xlink:href="#m3ee3b9a187" x="255.993157" y="143.734148" style="fill: #ff0000; stroke: #ff0000"/>
     <use xlink:href="#m3ee3b9a187" x="238.501266" y="152.801965" style="fill: #ff0000; stroke: #ff0000"/>
     <use xlink:href="#m3ee3b9a187" x="252.743748" y="144.279806" style="fill: #ff0000; stroke: #ff0000"/>
     <use xlink:href="#m3ee3b9a187" x="216.823132" y="197.838155" style="fill: #ff0000; stroke: #ff0000"/>
     <use xlink:href="#m3ee3b9a187" x="216.61461" y="160.124252" style="fill: #ff0000; stroke: #ff0000"/>
     <use xlink:href="#m3ee3b9a187" x="265.036173" y="162.778712" style="fill: #ff0000; stroke: #ff0000"/>
     <use xlink:href="#m3ee3b9a187" x="298.104807" y="154.2537" style="fill: #ff0000; stroke: #ff0000"/>
     <use xlink:href="#m3ee3b9a187" x="161.484421" y="269.216034" style="fill: #ff0000; stroke: #ff0000"/>
     <use xlink:href="#m3ee3b9a187" x="206.190674" y="128.61317" style="fill: #ff0000; stroke: #ff0000"/>
     <use xlink:href="#m3ee3b9a187" x="210.511106" y="174.108505" style="fill: #ff0000; stroke: #ff0000"/>
     <use xlink:href="#m3ee3b9a187" x="148.2161" y="135.537961" style="fill: #ff0000; stroke: #ff0000"/>
     <use xlink:href="#m3ee3b9a187" x="174.403944" y="188.773218" style="fill: #ff0000; stroke: #ff0000"/>
     <use xlink:href="#m3ee3b9a187" x="229.107447" y="138.659731" style="fill: #ff0000; stroke: #ff0000"/>
     <use xlink:href="#m3ee3b9a187" x="207.962517" y="181.498529" style="fill: #ff0000; stroke: #ff0000"/>
     <use xlink:href="#m3ee3b9a187" x="274.97523" y="114.236403" style="fill: #ff0000; stroke: #ff0000"/>
     <use xlink:href="#m3ee3b9a187" x="233.309218" y="96.757589" style="fill: #ff0000; stroke: #ff0000"/>
     <use xlink:href="#m3ee3b9a187" x="226.228603" y="126.376429" style="fill: #ff0000; stroke: #ff0000"/>
     <use xlink:href="#m3ee3b9a187" x="139.112811" y="163.851153" style="fill: #ff0000; stroke: #ff0000"/>
     <use xlink:href="#m3ee3b9a187" x="230.936076" y="157.588836" style="fill: #ff0000; stroke: #ff0000"/>
    </g>
   </g>
   <g id="line2d_32">
    <path d="M 73.832727 207.357888 
L 73.877618 193.414856 
L 76.416639 179.08589 
L 81.409748 164.596966 
L 88.778203 150.176583 
L 98.405796 136.052159 
L 110.140697 122.446445 
L 123.797837 109.57401 
L 139.161837 97.637862 
L 155.990396 86.826239 
L 174.018118 77.309649 
L 192.960695 69.238172 
L 212.519392 62.739102 
L 232.385755 57.914932 
L 252.246481 54.841743 
L 271.788355 53.568 
L 290.703188 54.113791 
L 308.692683 56.470509 
L 325.473135 60.600987 
L 340.779907 66.440084 
L 354.3716 73.895715 
L 366.033866 82.8503 
L 375.582784 93.16262 
L 382.867762 104.670043 
L 387.773912 117.191091 
L 390.22386 130.528298 
L 390.17897 144.47133 
L 387.639949 158.800296 
L 382.646839 173.28922 
L 375.278385 187.709603 
L 365.650791 201.834027 
L 353.915891 215.439741 
L 340.25875 228.312176 
L 324.894751 240.248324 
L 308.066192 251.059946 
L 290.03847 260.576537 
L 271.095892 268.648013 
L 251.537196 275.147083 
L 231.670832 279.971253 
L 211.810106 283.044443 
L 192.268233 284.318186 
L 173.353399 283.772395 
L 155.363904 281.415677 
L 138.583452 277.285199 
L 123.276681 271.446102 
L 109.684988 263.990471 
L 98.022722 255.035886 
L 88.473803 244.723566 
L 81.188825 233.216143 
L 76.282675 220.695095 
L 73.832727 207.357888 
" clip-path="url(#pf38815ed8c)" style="fill: none; stroke: #ff0000; stroke-width: 1.5; stroke-linecap: square"/>
   </g>
   <g id="patch_6">
    <path d="M 57.6 307.584 
L 57.6 41.472 
" style="fill: none; stroke: #000000; stroke-width: 0.8; stroke-linejoin: miter; stroke-linecap: square"/>
   </g>
   <g id="patch_7">
    <path d="M 414.72 307.584 
L 414.72 41.472 
" style="fill: none; stroke: #000000; stroke-width: 0.8; stroke-linejoin: miter; stroke-linecap: square"/>
   </g>
   <g id="patch_8">
    <path d="M 57.6 307.584 
L 414.72 307.584 
" style="fill: none; stroke: #000000; stroke-width: 0.8; stroke-linejoin: miter; stroke-linecap: square"/>
   </g>
   <g id="patch_9">
    <path d="M 57.6 41.472 
L 414.72 41.472 
" style="fill: none; stroke: #000000; stroke-width: 0.8; stroke-linejoin: miter; stroke-linecap: square"/>
   </g>
   <g id="legend_1">
    <g id="patch_10">
     <path d="M 298.962583 302.584 
L 407.72 302.584 
Q 409.72 302.584 409.72 300.584 
L 409.72 245.835287 
Q 409.72 243.835287 407.72 243.835287 
L 298.962583 243.835287 
Q 296.962583 243.835287 296.962583 245.835287 
L 296.962583 300.584 
Q 296.962583 302.584 298.962583 302.584 
z
" style="fill: #ffffff; opacity: 0.8; stroke: #cccccc; stroke-linejoin: miter"/>
    </g>
    <g id="line2d_33">
     <path d="M 300.962583 251.335287 
L 310.962583 251.335287 
L 320.962583 251.335287 
" style="fill: none; stroke: #0000ff; stroke-width: 1.5; stroke-linecap: square"/>
    </g>
    <g id="text_17">
     <!-- Censi's cov $3\sigma$. -->
     <g transform="translate(328.962583 254.835287) scale(0.1 -0.1)">
      <defs>
       <path id="CMSS17-43" d="M 3501 714 
C 3072 427 2874 344 2355 344 
C 1459 344 934 1303 934 2179 
C 934 3112 1472 4032 2381 4032 
C 2790 4032 3059 3918 3386 3715 
L 3475 4217 
C 3168 4370 2778 4440 2387 4440 
C 1158 4440 397 3316 397 2179 
C 397 927 1299 -64 2323 -64 
C 2874 -64 3066 -19 3539 280 
L 3501 714 
z
" transform="scale(0.015625)"/>
       <path id="CMSS17-65" d="M 2502 1377 
C 2502 1590 2490 2003 2285 2345 
C 2061 2713 1696 2816 1421 2816 
C 755 2816 192 2188 192 1375 
C 192 582 774 -64 1510 -64 
C 1798 -64 2150 19 2470 248 
C 2470 274 2458 414 2451 420 
C 2451 433 2432 630 2432 656 
C 2125 407 1773 325 1517 325 
C 1107 325 666 667 646 1377 
L 2502 1377 
z
M 698 1728 
C 781 2084 1062 2421 1421 2421 
C 1517 2421 1965 2421 2080 1728 
L 698 1728 
z
" transform="scale(0.015625)"/>
       <path id="CMSS17-6e" d="M 2618 1877 
C 2618 2283 2522 2816 1798 2816 
C 1389 2816 1120 2606 941 2389 
L 941 2758 
L 474 2758 
L 474 0 
L 960 0 
L 960 1559 
C 960 1964 1114 2428 1549 2428 
C 2112 2428 2131 2048 2131 1829 
L 2131 0 
L 2618 0 
L 2618 1877 
z
" transform="scale(0.015625)"/>
       <path id="CMSS17-73" d="M 2061 2627 
C 1683 2807 1389 2807 1197 2807 
C 742 2807 198 2648 198 2003 
C 198 1359 902 1218 1094 1179 
C 1389 1122 1715 1058 1715 740 
C 1715 337 1254 337 1171 337 
C 915 337 563 407 243 638 
L 166 210 
C 531 0 883 -64 1178 -64 
C 1965 -64 2163 416 2163 781 
C 2163 1094 1984 1305 1862 1401 
C 1651 1568 1574 1587 1050 1696 
C 960 1709 646 1779 646 2066 
C 646 2432 1050 2432 1139 2432 
C 1555 2432 1811 2303 1984 2208 
L 2061 2627 
z
" transform="scale(0.015625)"/>
       <path id="CMSS17-69" d="M 979 4183 
L 442 4183 
L 442 3648 
L 979 3648 
L 979 4183 
z
M 947 2739 
L 474 2739 
L 474 0 
L 947 0 
L 947 2739 
z
" transform="scale(0.015625)"/>
       <path id="CMSS17-27" d="M 1088 3910 
L 1088 4413 
L 576 4413 
L 576 3904 
L 736 3904 
L 570 3104 
L 826 3104 
L 1088 3910 
z
" transform="scale(0.015625)"/>
       <path id="CMSS17-63" d="M 2464 2541 
C 2464 2585 2170 2714 2093 2739 
C 1882 2816 1613 2816 1542 2816 
C 710 2816 211 2093 211 1363 
C 211 595 768 -64 1517 -64 
C 1946 -64 2253 76 2502 242 
L 2464 664 
C 2189 453 1869 337 1523 337 
C 1024 337 698 774 698 1369 
C 698 1831 909 2414 1549 2414 
C 1901 2414 2099 2343 2394 2145 
L 2464 2541 
z
" transform="scale(0.015625)"/>
       <path id="CMSS17-6f" d="M 2829 1356 
C 2829 2176 2221 2816 1504 2816 
C 768 2816 173 2157 173 1356 
C 173 544 787 -64 1498 -64 
C 2227 -64 2829 563 2829 1356 
z
M 1504 337 
C 1050 337 659 709 659 1408 
C 659 2151 1114 2427 1498 2427 
C 1914 2427 2342 2126 2342 1408 
C 2342 683 1926 337 1504 337 
z
" transform="scale(0.015625)"/>
       <path id="CMSS17-76" d="M 2675 2752 
L 2176 2752 
L 1747 1556 
C 1613 1165 1421 627 1389 352 
L 1382 352 
C 1370 468 1318 634 1286 749 
C 1248 890 1197 1056 1158 1172 
L 595 2752 
L 83 2752 
L 1094 0 
L 1664 0 
L 2675 2752 
z
" transform="scale(0.015625)"/>
       <path id="CMR17-33" d="M 1414 2157 
C 1984 2157 2234 1662 2234 1090 
C 2234 320 1824 25 1453 25 
C 1114 25 563 194 390 693 
C 422 680 454 680 486 680 
C 640 680 755 782 755 948 
C 755 1133 614 1216 486 1216 
C 378 1216 211 1165 211 926 
C 211 335 787 -128 1466 -128 
C 2176 -128 2720 430 2720 1085 
C 2720 1707 2208 2157 1600 2227 
C 2086 2328 2554 2756 2554 3329 
C 2554 3820 2048 4179 1472 4179 
C 890 4179 378 3829 378 3329 
C 378 3110 544 3072 627 3072 
C 762 3072 877 3155 877 3321 
C 877 3486 762 3569 627 3569 
C 602 3569 570 3569 544 3557 
C 730 3959 1235 4032 1459 4032 
C 1683 4032 2106 3925 2106 3320 
C 2106 3143 2080 2828 1862 2550 
C 1670 2304 1453 2304 1242 2284 
C 1210 2284 1062 2269 1037 2269 
C 992 2263 966 2257 966 2208 
C 966 2163 973 2157 1101 2157 
L 1414 2157 
z
" transform="scale(0.015625)"/>
       <path id="CMMI12-1b" d="M 3251 2408 
C 3334 2408 3546 2408 3546 2612 
C 3546 2752 3424 2752 3309 2752 
L 1894 2752 
C 934 2752 243 1686 243 932 
C 243 390 595 -64 1171 -64 
C 1926 -64 2752 747 2752 1705 
C 2752 1954 2694 2196 2541 2408 
L 3251 2408 
z
M 1178 64 
C 851 64 614 313 614 754 
C 614 1137 845 2408 1786 2408 
C 2061 2408 2368 2274 2368 1781 
C 2368 1558 2266 1021 2042 652 
C 1811 275 1466 64 1178 64 
z
" transform="scale(0.015625)"/>
       <path id="CMSS17-2e" d="M 1088 510 
L 576 510 
L 576 0 
L 1088 0 
L 1088 510 
z
" transform="scale(0.015625)"/>
      </defs>
      <use xlink:href="#CMSS17-43" transform="scale(0.996264)"/>
      <use xlink:href="#CMSS17-65" transform="translate(59.855772 0) scale(0.996264)"/>
      <use xlink:href="#CMSS17-6e" transform="translate(101.494594 0) scale(0.996264)"/>
      <use xlink:href="#CMSS17-73" transform="translate(149.699537 0) scale(0.996264)"/>
      <use xlink:href="#CMSS17-69" transform="translate(185.613079 0) scale(0.996264)"/>
      <use xlink:href="#CMSS17-27" transform="translate(207.793802 0) scale(0.996264)"/>
      <use xlink:href="#CMSS17-73" transform="translate(233.818007 0) scale(0.996264)"/>
      <use xlink:href="#CMSS17-63" transform="translate(300.960661 0) scale(0.996264)"/>
      <use xlink:href="#CMSS17-6f" transform="translate(342.599484 0) scale(0.996264)"/>
      <use xlink:href="#CMSS17-76" transform="translate(389.443107 0) scale(0.996264)"/>
      <use xlink:href="#CMR17-33" transform="translate(463.672361 0) scale(0.996264)"/>
      <use xlink:href="#CMMI12-1b" transform="translate(509.362839 0) scale(0.996264)"/>
      <use xlink:href="#CMSS17-2e" transform="translate(568.382892 0) scale(0.996264)"/>
     </g>
    </g>
    <g id="line2d_34">
     <path d="M 300.962583 265.272465 
L 310.962583 265.272465 
L 320.962583 265.272465 
" style="fill: none; stroke: #008000; stroke-width: 1.5; stroke-linecap: square"/>
    </g>
    <g id="text_18">
     <!-- Brossard's cov $3\sigma$. -->
     <g transform="translate(328.962583 268.772465) scale(0.1 -0.1)">
      <defs>
       <path id="CMSS17-42" d="M 570 4416 
L 570 0 
L 2163 0 
C 3034 0 3667 574 3667 1200 
C 3667 1685 3251 2176 2502 2317 
C 3334 2558 3501 3040 3501 3313 
C 3501 3883 2874 4416 1997 4416 
L 570 4416 
z
M 1088 2496 
L 1088 4059 
L 1824 4059 
C 2483 4059 3002 3724 3002 3306 
C 3002 2926 2592 2496 1766 2496 
L 1088 2496 
z
M 1088 357 
L 1088 2107 
L 1939 2107 
C 2630 2107 3162 1679 3162 1206 
C 3162 772 2694 357 1984 357 
L 1088 357 
z
" transform="scale(0.015625)"/>
       <path id="CMSS17-72" d="M 954 1363 
C 954 1965 1395 2368 1958 2368 
L 1958 2789 
C 1549 2789 1165 2585 934 2253 
L 934 2758 
L 480 2758 
L 480 0 
L 954 0 
L 954 1363 
z
" transform="scale(0.015625)"/>
       <path id="CMSS17-61" d="M 2406 1791 
C 2406 2392 1978 2808 1402 2808 
C 1120 2808 813 2757 461 2553 
L 499 2135 
C 659 2248 934 2432 1395 2432 
C 1722 2432 1920 2180 1920 1782 
L 1920 1536 
C 896 1536 256 1238 256 726 
C 256 461 416 -64 947 -64 
C 1043 -64 1562 -64 1933 217 
L 1933 -19 
L 2406 -19 
L 2406 1791 
z
M 1920 816 
C 1920 701 1920 548 1728 434 
C 1562 325 1350 325 1261 325 
C 941 325 723 511 723 744 
C 723 1211 1722 1211 1920 1211 
L 1920 816 
z
" transform="scale(0.015625)"/>
       <path id="CMSS17-64" d="M 2611 4416 
L 2138 4416 
L 2138 2438 
C 1939 2603 1613 2756 1254 2756 
C 672 2756 211 2131 211 1347 
C 211 562 666 -64 1235 -64 
C 1677 -64 1971 172 2125 306 
L 2125 -13 
L 2611 -13 
L 2611 4416 
z
M 2125 836 
C 2125 747 2125 653 1926 482 
C 1798 375 1645 325 1498 325 
C 1152 325 698 576 698 1340 
C 698 2134 1210 2368 1562 2368 
C 1798 2368 1990 2254 2125 2065 
L 2125 836 
z
" transform="scale(0.015625)"/>
      </defs>
      <use xlink:href="#CMSS17-42" transform="scale(0.996264)"/>
      <use xlink:href="#CMSS17-72" transform="translate(62.33804 0) scale(0.996264)"/>
      <use xlink:href="#CMSS17-6f" transform="translate(94.247813 0) scale(0.996264)"/>
      <use xlink:href="#CMSS17-73" transform="translate(141.091436 0) scale(0.996264)"/>
      <use xlink:href="#CMSS17-73" transform="translate(177.004978 0) scale(0.996264)"/>
      <use xlink:href="#CMSS17-61" transform="translate(212.91852 0) scale(0.996264)"/>
      <use xlink:href="#CMSS17-72" transform="translate(255.237987 0) scale(0.996264)"/>
      <use xlink:href="#CMSS17-64" transform="translate(287.14776 0) scale(0.996264)"/>
      <use xlink:href="#CMSS17-27" transform="translate(335.352703 0) scale(0.996264)"/>
      <use xlink:href="#CMSS17-73" transform="translate(361.376908 0) scale(0.996264)"/>
      <use xlink:href="#CMSS17-63" transform="translate(428.519562 0) scale(0.996264)"/>
      <use xlink:href="#CMSS17-6f" transform="translate(470.158384 0) scale(0.996264)"/>
      <use xlink:href="#CMSS17-76" transform="translate(517.002008 0) scale(0.996264)"/>
      <use xlink:href="#CMR17-33" transform="translate(591.231262 0) scale(0.996264)"/>
      <use xlink:href="#CMMI12-1b" transform="translate(636.921739 0) scale(0.996264)"/>
      <use xlink:href="#CMSS17-2e" transform="translate(695.941793 0) scale(0.996264)"/>
     </g>
    </g>
    <g id="line2d_35">
     <g>
      <use xlink:href="#m3ee3b9a187" x="310.962583" y="279.209643" style="fill: #ff0000; stroke: #ff0000"/>
     </g>
    </g>
    <g id="text_19">
     <!-- Samples. -->
     <g transform="translate(328.962583 282.709643) scale(0.1 -0.1)">
      <defs>
       <path id="CMSS17-53" d="M 2797 4169 
C 2515 4334 2208 4480 1690 4480 
C 864 4480 333 3879 333 3266 
C 333 3025 403 2753 653 2475 
C 902 2196 1184 2121 1542 2033 
C 1690 1994 1939 1924 1984 1906 
C 2342 1767 2515 1444 2515 1140 
C 2515 742 2202 318 1645 318 
C 1453 318 890 318 358 819 
L 269 318 
C 794 -64 1363 -128 1651 -128 
C 2438 -128 3002 488 3002 1186 
C 3002 1440 2925 1763 2656 2061 
C 2394 2347 2163 2410 1638 2549 
C 1338 2626 1146 2677 986 2873 
C 877 3013 819 3146 819 3317 
C 819 3673 1126 4060 1690 4060 
C 1971 4060 2336 4002 2707 3660 
L 2797 4169 
z
" transform="scale(0.015625)"/>
       <path id="CMSS17-70" d="M 966 333 
C 1178 129 1466 -5 1773 -5 
C 2368 -5 2880 603 2880 1412 
C 2880 2159 2496 2816 1946 2816 
C 1626 2816 1242 2702 954 2472 
L 954 2765 
L 480 2765 
L 480 -1216 
L 966 -1216 
L 966 333 
z
M 966 2100 
C 1018 2176 1235 2415 1587 2415 
C 2035 2415 2394 1960 2394 1412 
C 2394 787 1958 384 1530 384 
C 1402 384 1267 415 1139 523 
C 966 674 966 768 966 857 
L 966 2100 
z
" transform="scale(0.015625)"/>
       <path id="CMSS17-6c" d="M 947 4416 
L 474 4416 
L 474 0 
L 947 0 
L 947 4416 
z
" transform="scale(0.015625)"/>
      </defs>
      <use xlink:href="#CMSS17-53" transform="scale(0.996264)"/>
      <use xlink:href="#CMSS17-61" transform="translate(52.048516 0) scale(0.996264)"/>
      <use xlink:href="#CMSS17-6d" transform="translate(96.970437 0) scale(0.996264)"/>
      <use xlink:href="#CMSS17-70" transform="translate(171.199691 0) scale(0.996264)"/>
      <use xlink:href="#CMSS17-6c" transform="translate(219.404634 0) scale(0.996264)"/>
      <use xlink:href="#CMSS17-65" transform="translate(241.585357 0) scale(0.996264)"/>
      <use xlink:href="#CMSS17-73" transform="translate(283.224179 0) scale(0.996264)"/>
      <use xlink:href="#CMSS17-2e" transform="translate(319.137721 0) scale(0.996264)"/>
     </g>
    </g>
    <g id="line2d_36">
     <path d="M 300.962583 293.146822 
L 310.962583 293.146822 
L 320.962583 293.146822 
" style="fill: none; stroke: #ff0000; stroke-width: 1.5; stroke-linecap: square"/>
    </g>
    <g id="text_20">
     <!-- Sample cov $3\sigma$. -->
     <g transform="translate(328.962583 296.646822) scale(0.1 -0.1)">
      <use xlink:href="#CMSS17-53" transform="scale(0.996264)"/>
      <use xlink:href="#CMSS17-61" transform="translate(52.048516 0) scale(0.996264)"/>
      <use xlink:href="#CMSS17-6d" transform="translate(96.970437 0) scale(0.996264)"/>
      <use xlink:href="#CMSS17-70" transform="translate(171.199691 0) scale(0.996264)"/>
      <use xlink:href="#CMSS17-6c" transform="translate(219.404634 0) scale(0.996264)"/>
      <use xlink:href="#CMSS17-65" transform="translate(241.585357 0) scale(0.996264)"/>
      <use xlink:href="#CMSS17-63" transform="translate(314.453292 0) scale(0.996264)"/>
      <use xlink:href="#CMSS17-6f" transform="translate(356.092114 0) scale(0.996264)"/>
      <use xlink:href="#CMSS17-76" transform="translate(402.935738 0) scale(0.996264)"/>
      <use xlink:href="#CMR17-33" transform="translate(477.164992 0) scale(0.996264)"/>
      <use xlink:href="#CMMI12-1b" transform="translate(522.855469 0) scale(0.996264)"/>
      <use xlink:href="#CMSS17-2e" transform="translate(581.875523 0) scale(0.996264)"/>
     </g>
    </g>
   </g>
  </g>
 </g>
 <defs>
  <clipPath id="pf38815ed8c">
   <rect x="57.6" y="41.472" width="357.12" height="266.112"/>
  </clipPath>
 </defs>
</svg>
