<?xml version="1.0" encoding="utf-8" standalone="no"?>
<!DOCTYPE svg PUBLIC "-//W3C//DTD SVG 1.1//EN"
  "http://www.w3.org/Graphics/SVG/1.1/DTD/svg11.dtd">
<svg xmlns:xlink="http://www.w3.org/1999/xlink" width="460.8pt" height="345.6pt" viewBox="0 0 460.8 345.6" xmlns="http://www.w3.org/2000/svg" version="1.1">
 <metadata>
  <rdf:RDF xmlns:dc="http://purl.org/dc/elements/1.1/" xmlns:cc="http://creativecommons.org/ns#" xmlns:rdf="http://www.w3.org/1999/02/22-rdf-syntax-ns#">
   <cc:Work>
    <dc:type rdf:resource="http://purl.org/dc/dcmitype/StillImage"/>
    <dc:date>2022-12-17T15:06:09.728319</dc:date>
    <dc:format>image/svg+xml</dc:format>
    <dc:creator>
     <cc:Agent>
      <dc:title>Matplotlib v3.6.0, https://matplotlib.org/</dc:title>
     </cc:Agent>
    </dc:creator>
   </cc:Work>
  </rdf:RDF>
 </metadata>
 <defs>
  <style type="text/css">*{stroke-linejoin: round; stroke-linecap: butt}</style>
 </defs>
 <g id="figure_1">
  <g id="patch_1">
   <path d="M 0 345.6 
L 460.8 345.6 
L 460.8 0 
L 0 0 
z
" style="fill: #ffffff"/>
  </g>
  <g id="axes_1">
   <g id="patch_2">
    <path d="M 57.6 307.584 
L 414.72 307.584 
L 414.72 41.472 
L 57.6 41.472 
z
" style="fill: #ffffff"/>
   </g>
   <g id="patch_3">
    <path d="M 230.374658 174.836655 
L 230.413131 174.371213 
L 230.542236 173.908243 
L 230.759936 173.455047 
L 231.062799 173.018772 
L 231.446047 172.606298 
L 231.903637 172.224131 
L 232.428353 171.878297 
L 233.011918 171.574251 
L 233.645131 171.316787 
L 234.318005 171.109966 
L 235.019929 170.957049 
L 235.739832 170.860448 
L 236.466361 170.821687 
L 237.188059 170.841377 
L 237.893543 170.919207 
L 238.571689 171.053949 
L 239.211801 171.24348 
L 239.803784 171.484809 
L 240.338302 171.774131 
L 240.806927 172.106884 
L 241.202266 172.477818 
L 241.518086 172.881086 
L 241.749405 173.310326 
L 241.892577 173.75877 
L 241.945342 174.219345 
L 241.906869 174.684787 
L 241.777764 175.147757 
L 241.560064 175.600953 
L 241.257201 176.037228 
L 240.873953 176.449702 
L 240.416363 176.831869 
L 239.891647 177.177703 
L 239.308082 177.481749 
L 238.674869 177.739213 
L 238.001995 177.946034 
L 237.300071 178.098951 
L 236.580168 178.195552 
L 235.853639 178.234313 
L 235.131941 178.214623 
L 234.426457 178.136793 
L 233.748311 178.002051 
L 233.108199 177.81252 
L 232.516216 177.571191 
L 231.981698 177.281869 
L 231.513073 176.949116 
L 231.117734 176.578182 
L 230.801914 176.174914 
L 230.570595 175.745674 
L 230.427423 175.29723 
L 230.374658 174.836655 
L 230.374658 174.836655 
z
" clip-path="url(#pa39152e778)" style="fill: none; opacity: 0"/>
   </g>
   <g id="patch_4">
    <path d="M 197.762471 153.157462 
L 198.474364 150.784974 
L 199.780582 148.786928 
L 201.660526 147.194834 
L 204.084546 146.0338 
L 207.014416 145.322137 
L 210.403929 145.071067 
L 214.19963 145.284551 
L 218.34166 145.959222 
L 222.764695 147.084439 
L 227.398983 148.642458 
L 232.171437 150.608707 
L 237.006793 152.952178 
L 241.828794 155.635912 
L 246.561396 158.617586 
L 251.129961 161.850177 
L 255.462441 165.282704 
L 259.490509 168.861035 
L 263.150642 172.528738 
L 266.385116 176.22797 
L 269.142922 179.900393 
L 271.380568 183.48809 
L 273.062764 186.934481 
L 274.162982 190.185214 
L 274.66387 193.189023 
L 274.557529 195.898538 
L 273.845636 198.271026 
L 272.539418 200.269072 
L 270.659474 201.861166 
L 268.235454 203.0222 
L 265.305584 203.733863 
L 261.916071 203.984933 
L 258.12037 203.771449 
L 253.97834 203.096778 
L 249.555305 201.971561 
L 244.921017 200.413542 
L 240.148563 198.447293 
L 235.313207 196.103822 
L 230.491206 193.420088 
L 225.758604 190.438414 
L 221.190039 187.205823 
L 216.857559 183.773296 
L 212.829491 180.194965 
L 209.169358 176.527262 
L 205.934884 172.82803 
L 203.177078 169.155607 
L 200.939432 165.56791 
L 199.257236 162.121519 
L 198.157018 158.870786 
L 197.65613 155.866977 
L 197.762471 153.157462 
z
" clip-path="url(#pa39152e778)" style="fill: none; opacity: 0"/>
   </g>
   <g id="patch_5">
    <path d="M 73.832727 197.148654 
L 74.512352 182.07743 
L 77.741256 166.887148 
L 83.468519 151.817366 
L 91.603818 137.105744 
L 102.018854 122.984294 
L 114.549376 109.675719 
L 128.99777 97.389903 
L 145.136177 86.320601 
L 162.710084 76.642383 
L 181.442339 68.507879 
L 201.037525 62.045376 
L 221.186613 57.35679 
L 241.571841 54.516065 
L 261.871721 53.568 
L 281.766111 54.527546 
L 300.941266 57.379571 
L 319.094781 62.079097 
L 335.940366 68.552009 
L 351.212354 76.696226 
L 364.669899 86.383308 
L 376.100765 97.460485 
L 385.324682 109.753062 
L 392.196182 123.067179 
L 396.606899 137.192864 
L 398.487273 151.907346 
L 397.807648 166.97857 
L 394.578744 182.168852 
L 388.851481 197.238634 
L 380.716182 211.950256 
L 370.301146 226.071706 
L 357.770624 239.380281 
L 343.32223 251.666097 
L 327.183823 262.735399 
L 309.609916 272.413617 
L 290.877661 280.548121 
L 271.282475 287.010624 
L 251.133387 291.69921 
L 230.748159 294.539935 
L 210.448279 295.488 
L 190.553889 294.528454 
L 171.378734 291.676429 
L 153.225219 286.976903 
L 136.379634 280.503991 
L 121.107646 272.359774 
L 107.650101 262.672692 
L 96.219235 251.595515 
L 86.995318 239.302938 
L 80.123818 225.988821 
L 75.713101 211.863136 
L 73.832727 197.148654 
L 73.832727 197.148654 
z
" clip-path="url(#pa39152e778)" style="fill: none; opacity: 0"/>
   </g>
   <g id="matplotlib.axis_1">
    <g id="xtick_1">
     <g id="line2d_1">
      <path d="M 78.591606 307.584 
L 78.591606 41.472 
" clip-path="url(#pa39152e778)" style="fill: none; stroke: #b0b0b0; stroke-width: 0.8; stroke-linecap: square"/>
     </g>
     <g id="line2d_2">
      <defs>
       <path id="m439ef90721" d="M 0 0 
L 0 3.5 
" style="stroke: #000000; stroke-width: 0.8"/>
      </defs>
      <g>
       <use xlink:href="#m439ef90721" x="78.591606" y="307.584" style="stroke: #000000; stroke-width: 0.8"/>
      </g>
     </g>
     <g id="text_1">
      <!-- $\mathdefault{−0.025}$ -->
      <g transform="translate(63.370859 321.502498) scale(0.1 -0.1)">
       <defs>
        <path id="CMSY10-0" d="M 4218 1472 
C 4326 1472 4442 1472 4442 1600 
C 4442 1728 4326 1728 4218 1728 
L 755 1728 
C 646 1728 531 1728 531 1600 
C 531 1472 646 1472 755 1472 
L 4218 1472 
z
" transform="scale(0.015625)"/>
        <path id="CMR17-30" d="M 2688 2025 
C 2688 2416 2682 3080 2413 3591 
C 2176 4039 1798 4198 1466 4198 
C 1158 4198 768 4058 525 3597 
C 269 3118 243 2524 243 2025 
C 243 1661 250 1106 448 619 
C 723 -39 1216 -128 1466 -128 
C 1760 -128 2208 -7 2470 600 
C 2662 1042 2688 1559 2688 2025 
z
M 1466 -26 
C 1056 -26 813 325 723 812 
C 653 1188 653 1738 653 2096 
C 653 2588 653 2997 736 3387 
C 858 3929 1216 4096 1466 4096 
C 1728 4096 2067 3923 2189 3400 
C 2272 3036 2278 2607 2278 2096 
C 2278 1680 2278 1169 2202 792 
C 2067 95 1690 -26 1466 -26 
z
" transform="scale(0.015625)"/>
        <path id="CMMI12-3a" d="M 1178 307 
C 1178 492 1024 619 870 619 
C 685 619 557 466 557 313 
C 557 128 710 0 864 0 
C 1050 0 1178 153 1178 307 
z
" transform="scale(0.015625)"/>
        <path id="CMR17-32" d="M 2669 989 
L 2554 989 
C 2490 536 2438 459 2413 420 
C 2381 369 1920 369 1830 369 
L 602 369 
C 832 619 1280 1072 1824 1597 
C 2214 1967 2669 2402 2669 3035 
C 2669 3790 2067 4224 1395 4224 
C 691 4224 262 3604 262 3030 
C 262 2780 448 2748 525 2748 
C 589 2748 781 2787 781 3010 
C 781 3207 614 3264 525 3264 
C 486 3264 448 3258 422 3245 
C 544 3790 915 4058 1306 4058 
C 1862 4058 2227 3617 2227 3035 
C 2227 2479 1901 2000 1536 1584 
L 262 146 
L 262 0 
L 2515 0 
L 2669 989 
z
" transform="scale(0.015625)"/>
        <path id="CMR17-35" d="M 730 3692 
C 794 3666 1056 3584 1325 3584 
C 1920 3584 2246 3911 2432 4100 
C 2432 4157 2432 4192 2394 4192 
C 2387 4192 2374 4192 2323 4163 
C 2099 4058 1837 3973 1517 3973 
C 1325 3973 1037 3999 723 4139 
C 653 4171 640 4171 634 4171 
C 602 4171 595 4164 595 4037 
L 595 2203 
C 595 2089 595 2057 659 2057 
C 691 2057 704 2070 736 2114 
C 941 2401 1222 2522 1542 2522 
C 1766 2522 2246 2382 2246 1289 
C 2246 1085 2246 715 2054 421 
C 1894 159 1645 25 1370 25 
C 947 25 518 320 403 814 
C 429 807 480 795 506 795 
C 589 795 749 840 749 1038 
C 749 1210 627 1280 506 1280 
C 358 1280 262 1190 262 1011 
C 262 454 704 -128 1382 -128 
C 2042 -128 2669 440 2669 1264 
C 2669 2030 2170 2624 1549 2624 
C 1222 2624 947 2503 730 2274 
L 730 3692 
z
" transform="scale(0.015625)"/>
       </defs>
       <use xlink:href="#CMSY10-0" transform="scale(0.996264)"/>
       <use xlink:href="#CMR17-30" transform="translate(77.487468 0) scale(0.996264)"/>
       <use xlink:href="#CMMI12-3a" transform="translate(123.177945 0) scale(0.996264)"/>
       <use xlink:href="#CMR17-30" transform="translate(150.275122 0) scale(0.996264)"/>
       <use xlink:href="#CMR17-32" transform="translate(195.965599 0) scale(0.996264)"/>
       <use xlink:href="#CMR17-35" transform="translate(241.656076 0) scale(0.996264)"/>
      </g>
     </g>
    </g>
    <g id="xtick_2">
     <g id="line2d_3">
      <path d="M 121.971649 307.584 
L 121.971649 41.472 
" clip-path="url(#pa39152e778)" style="fill: none; stroke: #b0b0b0; stroke-width: 0.8; stroke-linecap: square"/>
     </g>
     <g id="line2d_4">
      <g>
       <use xlink:href="#m439ef90721" x="121.971649" y="307.584" style="stroke: #000000; stroke-width: 0.8"/>
      </g>
     </g>
     <g id="text_2">
      <!-- $\mathdefault{0.000}$ -->
      <g transform="translate(110.625274 321.502498) scale(0.1 -0.1)">
       <use xlink:href="#CMR17-30" transform="scale(0.996264)"/>
       <use xlink:href="#CMMI12-3a" transform="translate(45.690477 0) scale(0.996264)"/>
       <use xlink:href="#CMR17-30" transform="translate(72.787654 0) scale(0.996264)"/>
       <use xlink:href="#CMR17-30" transform="translate(118.478131 0) scale(0.996264)"/>
       <use xlink:href="#CMR17-30" transform="translate(164.168608 0) scale(0.996264)"/>
      </g>
     </g>
    </g>
    <g id="xtick_3">
     <g id="line2d_5">
      <path d="M 165.351691 307.584 
L 165.351691 41.472 
" clip-path="url(#pa39152e778)" style="fill: none; stroke: #b0b0b0; stroke-width: 0.8; stroke-linecap: square"/>
     </g>
     <g id="line2d_6">
      <g>
       <use xlink:href="#m439ef90721" x="165.351691" y="307.584" style="stroke: #000000; stroke-width: 0.8"/>
      </g>
     </g>
     <g id="text_3">
      <!-- $\mathdefault{0.025}$ -->
      <g transform="translate(154.005317 321.502498) scale(0.1 -0.1)">
       <use xlink:href="#CMR17-30" transform="scale(0.996264)"/>
       <use xlink:href="#CMMI12-3a" transform="translate(45.690477 0) scale(0.996264)"/>
       <use xlink:href="#CMR17-30" transform="translate(72.787654 0) scale(0.996264)"/>
       <use xlink:href="#CMR17-32" transform="translate(118.478131 0) scale(0.996264)"/>
       <use xlink:href="#CMR17-35" transform="translate(164.168608 0) scale(0.996264)"/>
      </g>
     </g>
    </g>
    <g id="xtick_4">
     <g id="line2d_7">
      <path d="M 208.731734 307.584 
L 208.731734 41.472 
" clip-path="url(#pa39152e778)" style="fill: none; stroke: #b0b0b0; stroke-width: 0.8; stroke-linecap: square"/>
     </g>
     <g id="line2d_8">
      <g>
       <use xlink:href="#m439ef90721" x="208.731734" y="307.584" style="stroke: #000000; stroke-width: 0.8"/>
      </g>
     </g>
     <g id="text_4">
      <!-- $\mathdefault{0.050}$ -->
      <g transform="translate(197.38536 321.502498) scale(0.1 -0.1)">
       <use xlink:href="#CMR17-30" transform="scale(0.996264)"/>
       <use xlink:href="#CMMI12-3a" transform="translate(45.690477 0) scale(0.996264)"/>
       <use xlink:href="#CMR17-30" transform="translate(72.787654 0) scale(0.996264)"/>
       <use xlink:href="#CMR17-35" transform="translate(118.478131 0) scale(0.996264)"/>
       <use xlink:href="#CMR17-30" transform="translate(164.168608 0) scale(0.996264)"/>
      </g>
     </g>
    </g>
    <g id="xtick_5">
     <g id="line2d_9">
      <path d="M 252.111777 307.584 
L 252.111777 41.472 
" clip-path="url(#pa39152e778)" style="fill: none; stroke: #b0b0b0; stroke-width: 0.8; stroke-linecap: square"/>
     </g>
     <g id="line2d_10">
      <g>
       <use xlink:href="#m439ef90721" x="252.111777" y="307.584" style="stroke: #000000; stroke-width: 0.8"/>
      </g>
     </g>
     <g id="text_5">
      <!-- $\mathdefault{0.075}$ -->
      <g transform="translate(240.765402 321.502498) scale(0.1 -0.1)">
       <defs>
        <path id="CMR17-37" d="M 2886 3941 
L 2886 4081 
L 1382 4081 
C 634 4081 621 4165 595 4288 
L 480 4288 
L 294 3094 
L 410 3094 
C 429 3215 474 3540 550 3661 
C 589 3712 1062 3712 1171 3712 
L 2579 3712 
L 1869 2661 
C 1395 1954 1069 999 1069 165 
C 1069 89 1069 -128 1299 -128 
C 1530 -128 1530 89 1530 171 
L 1530 465 
C 1530 1508 1709 2196 2003 2636 
L 2886 3941 
z
" transform="scale(0.015625)"/>
       </defs>
       <use xlink:href="#CMR17-30" transform="scale(0.996264)"/>
       <use xlink:href="#CMMI12-3a" transform="translate(45.690477 0) scale(0.996264)"/>
       <use xlink:href="#CMR17-30" transform="translate(72.787654 0) scale(0.996264)"/>
       <use xlink:href="#CMR17-37" transform="translate(118.478131 0) scale(0.996264)"/>
       <use xlink:href="#CMR17-35" transform="translate(164.168608 0) scale(0.996264)"/>
      </g>
     </g>
    </g>
    <g id="xtick_6">
     <g id="line2d_11">
      <path d="M 295.49182 307.584 
L 295.49182 41.472 
" clip-path="url(#pa39152e778)" style="fill: none; stroke: #b0b0b0; stroke-width: 0.8; stroke-linecap: square"/>
     </g>
     <g id="line2d_12">
      <g>
       <use xlink:href="#m439ef90721" x="295.49182" y="307.584" style="stroke: #000000; stroke-width: 0.8"/>
      </g>
     </g>
     <g id="text_6">
      <!-- $\mathdefault{0.100}$ -->
      <g transform="translate(284.145445 321.502498) scale(0.1 -0.1)">
       <defs>
        <path id="CMR17-31" d="M 1702 4058 
C 1702 4192 1696 4192 1606 4192 
C 1357 3916 979 3827 621 3827 
C 602 3827 570 3827 563 3808 
C 557 3795 557 3782 557 3648 
C 755 3648 1088 3686 1344 3839 
L 1344 461 
C 1344 236 1331 160 781 160 
L 589 160 
L 589 0 
C 896 0 1216 0 1523 0 
C 1830 0 2150 0 2458 0 
L 2458 160 
L 2266 160 
C 1715 160 1702 230 1702 458 
L 1702 4058 
z
" transform="scale(0.015625)"/>
       </defs>
       <use xlink:href="#CMR17-30" transform="scale(0.996264)"/>
       <use xlink:href="#CMMI12-3a" transform="translate(45.690477 0) scale(0.996264)"/>
       <use xlink:href="#CMR17-31" transform="translate(72.787654 0) scale(0.996264)"/>
       <use xlink:href="#CMR17-30" transform="translate(118.478131 0) scale(0.996264)"/>
       <use xlink:href="#CMR17-30" transform="translate(164.168608 0) scale(0.996264)"/>
      </g>
     </g>
    </g>
    <g id="xtick_7">
     <g id="line2d_13">
      <path d="M 338.871863 307.584 
L 338.871863 41.472 
" clip-path="url(#pa39152e778)" style="fill: none; stroke: #b0b0b0; stroke-width: 0.8; stroke-linecap: square"/>
     </g>
     <g id="line2d_14">
      <g>
       <use xlink:href="#m439ef90721" x="338.871863" y="307.584" style="stroke: #000000; stroke-width: 0.8"/>
      </g>
     </g>
     <g id="text_7">
      <!-- $\mathdefault{0.125}$ -->
      <g transform="translate(327.525488 321.502498) scale(0.1 -0.1)">
       <use xlink:href="#CMR17-30" transform="scale(0.996264)"/>
       <use xlink:href="#CMMI12-3a" transform="translate(45.690477 0) scale(0.996264)"/>
       <use xlink:href="#CMR17-31" transform="translate(72.787654 0) scale(0.996264)"/>
       <use xlink:href="#CMR17-32" transform="translate(118.478131 0) scale(0.996264)"/>
       <use xlink:href="#CMR17-35" transform="translate(164.168608 0) scale(0.996264)"/>
      </g>
     </g>
    </g>
    <g id="xtick_8">
     <g id="line2d_15">
      <path d="M 382.251906 307.584 
L 382.251906 41.472 
" clip-path="url(#pa39152e778)" style="fill: none; stroke: #b0b0b0; stroke-width: 0.8; stroke-linecap: square"/>
     </g>
     <g id="line2d_16">
      <g>
       <use xlink:href="#m439ef90721" x="382.251906" y="307.584" style="stroke: #000000; stroke-width: 0.8"/>
      </g>
     </g>
     <g id="text_8">
      <!-- $\mathdefault{0.150}$ -->
      <g transform="translate(370.905531 321.502498) scale(0.1 -0.1)">
       <use xlink:href="#CMR17-30" transform="scale(0.996264)"/>
       <use xlink:href="#CMMI12-3a" transform="translate(45.690477 0) scale(0.996264)"/>
       <use xlink:href="#CMR17-31" transform="translate(72.787654 0) scale(0.996264)"/>
       <use xlink:href="#CMR17-35" transform="translate(118.478131 0) scale(0.996264)"/>
       <use xlink:href="#CMR17-30" transform="translate(164.168608 0) scale(0.996264)"/>
      </g>
     </g>
    </g>
    <g id="text_9">
     <!-- x [m] -->
     <g transform="translate(225.36713 334.911657) scale(0.1 -0.1)">
      <defs>
       <path id="CMSS17-78" d="M 1587 1414 
L 2656 2739 
L 2099 2739 
L 1363 1777 
L 602 2739 
L 32 2739 
L 1139 1414 
L 0 0 
L 563 0 
L 1363 1121 
L 2195 0 
L 2758 0 
L 1587 1414 
z
" transform="scale(0.015625)"/>
       <path id="CMSS17-5b" d="M 1613 -1600 
L 1613 -1212 
L 1062 -1212 
L 1062 4352 
L 1613 4352 
L 1613 4741 
L 595 4741 
L 595 -1600 
L 1613 -1600 
z
" transform="scale(0.015625)"/>
       <path id="CMSS17-6d" d="M 4288 1877 
C 4288 2308 4179 2816 3462 2816 
C 2982 2816 2694 2516 2566 2331 
C 2451 2670 2182 2816 1798 2816 
C 1363 2816 1088 2568 941 2389 
L 941 2758 
L 474 2758 
L 474 0 
L 960 0 
L 960 1559 
C 960 1939 1101 2428 1555 2428 
C 2138 2428 2138 2016 2138 1829 
L 2138 0 
L 2624 0 
L 2624 1559 
C 2624 1939 2765 2428 3219 2428 
C 3802 2428 3802 2016 3802 1829 
L 3802 0 
L 4288 0 
L 4288 1877 
z
" transform="scale(0.015625)"/>
       <path id="CMSS17-5d" d="M 1146 4741 
L 128 4741 
L 128 4352 
L 678 4352 
L 678 -1212 
L 128 -1212 
L 128 -1600 
L 1146 -1600 
L 1146 4741 
z
" transform="scale(0.015625)"/>
      </defs>
      <use xlink:href="#CMSS17-78" transform="scale(0.996264)"/>
      <use xlink:href="#CMSS17-5b" transform="translate(74.229254 0) scale(0.996264)"/>
      <use xlink:href="#CMSS17-6d" transform="translate(101.414693 0) scale(0.996264)"/>
      <use xlink:href="#CMSS17-5d" transform="translate(175.643948 0) scale(0.996264)"/>
     </g>
    </g>
   </g>
   <g id="matplotlib.axis_2">
    <g id="ytick_1">
     <g id="line2d_17">
      <path d="M 57.6 299.515632 
L 414.72 299.515632 
" clip-path="url(#pa39152e778)" style="fill: none; stroke: #b0b0b0; stroke-width: 0.8; stroke-linecap: square"/>
     </g>
     <g id="line2d_18">
      <defs>
       <path id="m0824cb2243" d="M 0 0 
L -3.5 0 
" style="stroke: #000000; stroke-width: 0.8"/>
      </defs>
      <g>
       <use xlink:href="#m0824cb2243" x="57.6" y="299.515632" style="stroke: #000000; stroke-width: 0.8"/>
      </g>
     </g>
     <g id="text_10">
      <!-- $\mathdefault{−0.02}$ -->
      <g transform="translate(25.139842 302.974881) scale(0.1 -0.1)">
       <use xlink:href="#CMSY10-0" transform="scale(0.996264)"/>
       <use xlink:href="#CMR17-30" transform="translate(77.487468 0) scale(0.996264)"/>
       <use xlink:href="#CMMI12-3a" transform="translate(123.177945 0) scale(0.996264)"/>
       <use xlink:href="#CMR17-30" transform="translate(150.275122 0) scale(0.996264)"/>
       <use xlink:href="#CMR17-32" transform="translate(195.965599 0) scale(0.996264)"/>
      </g>
     </g>
    </g>
    <g id="ytick_2">
     <g id="line2d_19">
      <path d="M 57.6 267.254124 
L 414.72 267.254124 
" clip-path="url(#pa39152e778)" style="fill: none; stroke: #b0b0b0; stroke-width: 0.8; stroke-linecap: square"/>
     </g>
     <g id="line2d_20">
      <g>
       <use xlink:href="#m0824cb2243" x="57.6" y="267.254124" style="stroke: #000000; stroke-width: 0.8"/>
      </g>
     </g>
     <g id="text_11">
      <!-- $\mathdefault{−0.01}$ -->
      <g transform="translate(25.139842 270.713373) scale(0.1 -0.1)">
       <use xlink:href="#CMSY10-0" transform="scale(0.996264)"/>
       <use xlink:href="#CMR17-30" transform="translate(77.487468 0) scale(0.996264)"/>
       <use xlink:href="#CMMI12-3a" transform="translate(123.177945 0) scale(0.996264)"/>
       <use xlink:href="#CMR17-30" transform="translate(150.275122 0) scale(0.996264)"/>
       <use xlink:href="#CMR17-31" transform="translate(195.965599 0) scale(0.996264)"/>
      </g>
     </g>
    </g>
    <g id="ytick_3">
     <g id="line2d_21">
      <path d="M 57.6 234.992616 
L 414.72 234.992616 
" clip-path="url(#pa39152e778)" style="fill: none; stroke: #b0b0b0; stroke-width: 0.8; stroke-linecap: square"/>
     </g>
     <g id="line2d_22">
      <g>
       <use xlink:href="#m0824cb2243" x="57.6" y="234.992616" style="stroke: #000000; stroke-width: 0.8"/>
      </g>
     </g>
     <g id="text_12">
      <!-- $\mathdefault{0.00}$ -->
      <g transform="translate(32.888586 238.451865) scale(0.1 -0.1)">
       <use xlink:href="#CMR17-30" transform="scale(0.996264)"/>
       <use xlink:href="#CMMI12-3a" transform="translate(45.690477 0) scale(0.996264)"/>
       <use xlink:href="#CMR17-30" transform="translate(72.787654 0) scale(0.996264)"/>
       <use xlink:href="#CMR17-30" transform="translate(118.478131 0) scale(0.996264)"/>
      </g>
     </g>
    </g>
    <g id="ytick_4">
     <g id="line2d_23">
      <path d="M 57.6 202.731108 
L 414.72 202.731108 
" clip-path="url(#pa39152e778)" style="fill: none; stroke: #b0b0b0; stroke-width: 0.8; stroke-linecap: square"/>
     </g>
     <g id="line2d_24">
      <g>
       <use xlink:href="#m0824cb2243" x="57.6" y="202.731108" style="stroke: #000000; stroke-width: 0.8"/>
      </g>
     </g>
     <g id="text_13">
      <!-- $\mathdefault{0.01}$ -->
      <g transform="translate(32.888586 206.190358) scale(0.1 -0.1)">
       <use xlink:href="#CMR17-30" transform="scale(0.996264)"/>
       <use xlink:href="#CMMI12-3a" transform="translate(45.690477 0) scale(0.996264)"/>
       <use xlink:href="#CMR17-30" transform="translate(72.787654 0) scale(0.996264)"/>
       <use xlink:href="#CMR17-31" transform="translate(118.478131 0) scale(0.996264)"/>
      </g>
     </g>
    </g>
    <g id="ytick_5">
     <g id="line2d_25">
      <path d="M 57.6 170.469601 
L 414.72 170.469601 
" clip-path="url(#pa39152e778)" style="fill: none; stroke: #b0b0b0; stroke-width: 0.8; stroke-linecap: square"/>
     </g>
     <g id="line2d_26">
      <g>
       <use xlink:href="#m0824cb2243" x="57.6" y="170.469601" style="stroke: #000000; stroke-width: 0.8"/>
      </g>
     </g>
     <g id="text_14">
      <!-- $\mathdefault{0.02}$ -->
      <g transform="translate(32.888586 173.92885) scale(0.1 -0.1)">
       <use xlink:href="#CMR17-30" transform="scale(0.996264)"/>
       <use xlink:href="#CMMI12-3a" transform="translate(45.690477 0) scale(0.996264)"/>
       <use xlink:href="#CMR17-30" transform="translate(72.787654 0) scale(0.996264)"/>
       <use xlink:href="#CMR17-32" transform="translate(118.478131 0) scale(0.996264)"/>
      </g>
     </g>
    </g>
    <g id="ytick_6">
     <g id="line2d_27">
      <path d="M 57.6 138.208093 
L 414.72 138.208093 
" clip-path="url(#pa39152e778)" style="fill: none; stroke: #b0b0b0; stroke-width: 0.8; stroke-linecap: square"/>
     </g>
     <g id="line2d_28">
      <g>
       <use xlink:href="#m0824cb2243" x="57.6" y="138.208093" style="stroke: #000000; stroke-width: 0.8"/>
      </g>
     </g>
     <g id="text_15">
      <!-- $\mathdefault{0.03}$ -->
      <g transform="translate(32.888586 141.667342) scale(0.1 -0.1)">
       <defs>
        <path id="CMR17-33" d="M 1414 2157 
C 1984 2157 2234 1662 2234 1090 
C 2234 320 1824 25 1453 25 
C 1114 25 563 194 390 693 
C 422 680 454 680 486 680 
C 640 680 755 782 755 948 
C 755 1133 614 1216 486 1216 
C 378 1216 211 1165 211 926 
C 211 335 787 -128 1466 -128 
C 2176 -128 2720 430 2720 1085 
C 2720 1707 2208 2157 1600 2227 
C 2086 2328 2554 2756 2554 3329 
C 2554 3820 2048 4179 1472 4179 
C 890 4179 378 3829 378 3329 
C 378 3110 544 3072 627 3072 
C 762 3072 877 3155 877 3321 
C 877 3486 762 3569 627 3569 
C 602 3569 570 3569 544 3557 
C 730 3959 1235 4032 1459 4032 
C 1683 4032 2106 3925 2106 3320 
C 2106 3143 2080 2828 1862 2550 
C 1670 2304 1453 2304 1242 2284 
C 1210 2284 1062 2269 1037 2269 
C 992 2263 966 2257 966 2208 
C 966 2163 973 2157 1101 2157 
L 1414 2157 
z
" transform="scale(0.015625)"/>
       </defs>
       <use xlink:href="#CMR17-30" transform="scale(0.996264)"/>
       <use xlink:href="#CMMI12-3a" transform="translate(45.690477 0) scale(0.996264)"/>
       <use xlink:href="#CMR17-30" transform="translate(72.787654 0) scale(0.996264)"/>
       <use xlink:href="#CMR17-33" transform="translate(118.478131 0) scale(0.996264)"/>
      </g>
     </g>
    </g>
    <g id="ytick_7">
     <g id="line2d_29">
      <path d="M 57.6 105.946585 
L 414.72 105.946585 
" clip-path="url(#pa39152e778)" style="fill: none; stroke: #b0b0b0; stroke-width: 0.8; stroke-linecap: square"/>
     </g>
     <g id="line2d_30">
      <g>
       <use xlink:href="#m0824cb2243" x="57.6" y="105.946585" style="stroke: #000000; stroke-width: 0.8"/>
      </g>
     </g>
     <g id="text_16">
      <!-- $\mathdefault{0.04}$ -->
      <g transform="translate(32.888586 109.405834) scale(0.1 -0.1)">
       <defs>
        <path id="CMR17-34" d="M 2150 4122 
C 2150 4256 2144 4256 2029 4256 
L 128 1254 
L 128 1088 
L 1779 1088 
L 1779 457 
C 1779 224 1766 160 1318 160 
L 1197 160 
L 1197 0 
C 1402 0 1747 0 1965 0 
C 2182 0 2528 0 2733 0 
L 2733 160 
L 2611 160 
C 2163 160 2150 224 2150 457 
L 2150 1088 
L 2803 1088 
L 2803 1254 
L 2150 1254 
L 2150 4122 
z
M 1798 3703 
L 1798 1254 
L 256 1254 
L 1798 3703 
z
" transform="scale(0.015625)"/>
       </defs>
       <use xlink:href="#CMR17-30" transform="scale(0.996264)"/>
       <use xlink:href="#CMMI12-3a" transform="translate(45.690477 0) scale(0.996264)"/>
       <use xlink:href="#CMR17-30" transform="translate(72.787654 0) scale(0.996264)"/>
       <use xlink:href="#CMR17-34" transform="translate(118.478131 0) scale(0.996264)"/>
      </g>
     </g>
    </g>
    <g id="ytick_8">
     <g id="line2d_31">
      <path d="M 57.6 73.685078 
L 414.72 73.685078 
" clip-path="url(#pa39152e778)" style="fill: none; stroke: #b0b0b0; stroke-width: 0.8; stroke-linecap: square"/>
     </g>
     <g id="line2d_32">
      <g>
       <use xlink:href="#m0824cb2243" x="57.6" y="73.685078" style="stroke: #000000; stroke-width: 0.8"/>
      </g>
     </g>
     <g id="text_17">
      <!-- $\mathdefault{0.05}$ -->
      <g transform="translate(32.888586 77.144327) scale(0.1 -0.1)">
       <use xlink:href="#CMR17-30" transform="scale(0.996264)"/>
       <use xlink:href="#CMMI12-3a" transform="translate(45.690477 0) scale(0.996264)"/>
       <use xlink:href="#CMR17-30" transform="translate(72.787654 0) scale(0.996264)"/>
       <use xlink:href="#CMR17-35" transform="translate(118.478131 0) scale(0.996264)"/>
      </g>
     </g>
    </g>
    <g id="text_18">
     <!-- y [m] -->
     <g transform="translate(18.649182 185.32087) rotate(-90) scale(0.1 -0.1)">
      <defs>
       <path id="CMSS17-79" d="M 2675 2752 
L 2176 2752 
C 1632 1294 1446 702 1434 383 
L 1427 383 
C 1408 696 1126 1460 902 2007 
L 602 2752 
L 83 2752 
L 1216 13 
C 1146 -178 1043 -465 1011 -529 
C 870 -885 774 -885 672 -885 
C 646 -885 442 -885 211 -809 
L 250 -1229 
C 410 -1261 570 -1280 685 -1280 
C 845 -1280 1165 -1280 1459 -497 
L 2675 2752 
z
" transform="scale(0.015625)"/>
      </defs>
      <use xlink:href="#CMSS17-79" transform="scale(0.996264)"/>
      <use xlink:href="#CMSS17-5b" transform="translate(74.229254 0) scale(0.996264)"/>
      <use xlink:href="#CMSS17-6d" transform="translate(101.414693 0) scale(0.996264)"/>
      <use xlink:href="#CMSS17-5d" transform="translate(175.643948 0) scale(0.996264)"/>
     </g>
    </g>
   </g>
   <g id="line2d_33">
    <path d="M 230.374658 174.836655 
L 230.413131 174.371213 
L 230.542236 173.908243 
L 230.759936 173.455047 
L 231.062799 173.018772 
L 231.446047 172.606298 
L 231.903637 172.224131 
L 232.428353 171.878297 
L 233.011918 171.574251 
L 233.645131 171.316787 
L 234.318005 171.109966 
L 235.019929 170.957049 
L 235.739832 170.860448 
L 236.466361 170.821687 
L 237.188059 170.841377 
L 237.893543 170.919207 
L 238.571689 171.053949 
L 239.211801 171.24348 
L 239.803784 171.484809 
L 240.338302 171.774131 
L 240.806927 172.106884 
L 241.202266 172.477818 
L 241.518086 172.881086 
L 241.749405 173.310326 
L 241.892577 173.75877 
L 241.945342 174.219345 
L 241.906869 174.684787 
L 241.777764 175.147757 
L 241.560064 175.600953 
L 241.257201 176.037228 
L 240.873953 176.449702 
L 240.416363 176.831869 
L 239.891647 177.177703 
L 239.308082 177.481749 
L 238.674869 177.739213 
L 238.001995 177.946034 
L 237.300071 178.098951 
L 236.580168 178.195552 
L 235.853639 178.234313 
L 235.131941 178.214623 
L 234.426457 178.136793 
L 233.748311 178.002051 
L 233.108199 177.81252 
L 232.516216 177.571191 
L 231.981698 177.281869 
L 231.513073 176.949116 
L 231.117734 176.578182 
L 230.801914 176.174914 
L 230.570595 175.745674 
L 230.427423 175.29723 
L 230.374658 174.836655 
" clip-path="url(#pa39152e778)" style="fill: none; stroke: #0000ff; stroke-width: 1.5; stroke-linecap: square"/>
   </g>
   <g id="line2d_34">
    <path d="M 197.762471 153.157462 
L 198.474364 150.784974 
L 199.780582 148.786928 
L 201.660526 147.194834 
L 204.084546 146.0338 
L 207.014416 145.322137 
L 210.403929 145.071067 
L 214.19963 145.284551 
L 218.34166 145.959222 
L 222.764695 147.084439 
L 227.398983 148.642458 
L 232.171437 150.608707 
L 237.006793 152.952178 
L 241.828794 155.635912 
L 246.561396 158.617586 
L 251.129961 161.850177 
L 255.462441 165.282704 
L 259.490509 168.861035 
L 263.150642 172.528738 
L 266.385116 176.22797 
L 269.142922 179.900393 
L 271.380568 183.48809 
L 273.062764 186.934481 
L 274.162982 190.185214 
L 274.66387 193.189023 
L 274.557529 195.898538 
L 273.845636 198.271026 
L 272.539418 200.269072 
L 270.659474 201.861166 
L 268.235454 203.0222 
L 265.305584 203.733863 
L 261.916071 203.984933 
L 258.12037 203.771449 
L 253.97834 203.096778 
L 249.555305 201.971561 
L 244.921017 200.413542 
L 240.148563 198.447293 
L 235.313207 196.103822 
L 230.491206 193.420088 
L 225.758604 190.438414 
L 221.190039 187.205823 
L 216.857559 183.773296 
L 212.829491 180.194965 
L 209.169358 176.527262 
L 205.934884 172.82803 
L 203.177078 169.155607 
L 200.939432 165.56791 
L 199.257236 162.121519 
L 198.157018 158.870786 
L 197.65613 155.866977 
L 197.762471 153.157462 
" clip-path="url(#pa39152e778)" style="fill: none; stroke: #008000; stroke-width: 1.5; stroke-linecap: square"/>
   </g>
   <g id="line2d_35">
    <defs>
     <path id="md78262634a" d="M 0 1.5 
C 0.397805 1.5 0.77937 1.341951 1.06066 1.06066 
C 1.341951 0.77937 1.5 0.397805 1.5 0 
C 1.5 -0.397805 1.341951 -0.77937 1.06066 -1.06066 
C 0.77937 -1.341951 0.397805 -1.5 0 -1.5 
C -0.397805 -1.5 -0.77937 -1.341951 -1.06066 -1.06066 
C -1.341951 -0.77937 -1.5 -0.397805 -1.5 0 
C -1.5 0.397805 -1.341951 0.77937 -1.06066 1.06066 
C -0.77937 1.341951 -0.397805 1.5 0 1.5 
z
" style="stroke: #ff0000"/>
    </defs>
    <g clip-path="url(#pa39152e778)">
     <use xlink:href="#md78262634a" x="174.025136" y="135.830497" style="fill: #ff0000; stroke: #ff0000"/>
     <use xlink:href="#md78262634a" x="227.540333" y="188.751675" style="fill: #ff0000; stroke: #ff0000"/>
     <use xlink:href="#md78262634a" x="216.864902" y="126.5206" style="fill: #ff0000; stroke: #ff0000"/>
     <use xlink:href="#md78262634a" x="267.974259" y="183.803102" style="fill: #ff0000; stroke: #ff0000"/>
     <use xlink:href="#md78262634a" x="275.745138" y="136.616339" style="fill: #ff0000; stroke: #ff0000"/>
     <use xlink:href="#md78262634a" x="241.612933" y="168.221726" style="fill: #ff0000; stroke: #ff0000"/>
     <use xlink:href="#md78262634a" x="241.63629" y="150.056697" style="fill: #ff0000; stroke: #ff0000"/>
     <use xlink:href="#md78262634a" x="223.394638" y="183.685548" style="fill: #ff0000; stroke: #ff0000"/>
     <use xlink:href="#md78262634a" x="244.331027" y="58.483172" style="fill: #ff0000; stroke: #ff0000"/>
     <use xlink:href="#md78262634a" x="223.12241" y="188.008939" style="fill: #ff0000; stroke: #ff0000"/>
     <use xlink:href="#md78262634a" x="364.787061" y="177.331702" style="fill: #ff0000; stroke: #ff0000"/>
     <use xlink:href="#md78262634a" x="238.059498" y="194.103601" style="fill: #ff0000; stroke: #ff0000"/>
     <use xlink:href="#md78262634a" x="215.757716" y="202.491932" style="fill: #ff0000; stroke: #ff0000"/>
     <use xlink:href="#md78262634a" x="244.177484" y="193.964636" style="fill: #ff0000; stroke: #ff0000"/>
     <use xlink:href="#md78262634a" x="299.175714" y="110.355987" style="fill: #ff0000; stroke: #ff0000"/>
     <use xlink:href="#md78262634a" x="290.023438" y="140.955405" style="fill: #ff0000; stroke: #ff0000"/>
     <use xlink:href="#md78262634a" x="186.984497" y="176.618852" style="fill: #ff0000; stroke: #ff0000"/>
     <use xlink:href="#md78262634a" x="238.454025" y="130.0882" style="fill: #ff0000; stroke: #ff0000"/>
     <use xlink:href="#md78262634a" x="239.82274" y="139.158626" style="fill: #ff0000; stroke: #ff0000"/>
     <use xlink:href="#md78262634a" x="249.519969" y="193.345907" style="fill: #ff0000; stroke: #ff0000"/>
     <use xlink:href="#md78262634a" x="231.369517" y="125.91833" style="fill: #ff0000; stroke: #ff0000"/>
     <use xlink:href="#md78262634a" x="255.273532" y="168.567653" style="fill: #ff0000; stroke: #ff0000"/>
     <use xlink:href="#md78262634a" x="196.060066" y="154.252327" style="fill: #ff0000; stroke: #ff0000"/>
     <use xlink:href="#md78262634a" x="258.423259" y="167.879786" style="fill: #ff0000; stroke: #ff0000"/>
     <use xlink:href="#md78262634a" x="136.081779" y="226.548626" style="fill: #ff0000; stroke: #ff0000"/>
     <use xlink:href="#md78262634a" x="174.265219" y="247.738606" style="fill: #ff0000; stroke: #ff0000"/>
     <use xlink:href="#md78262634a" x="208.494101" y="165.981562" style="fill: #ff0000; stroke: #ff0000"/>
     <use xlink:href="#md78262634a" x="273.850001" y="196.828435" style="fill: #ff0000; stroke: #ff0000"/>
     <use xlink:href="#md78262634a" x="185.406039" y="158.375932" style="fill: #ff0000; stroke: #ff0000"/>
     <use xlink:href="#md78262634a" x="249.693921" y="126.964887" style="fill: #ff0000; stroke: #ff0000"/>
     <use xlink:href="#md78262634a" x="108.235217" y="148.220376" style="fill: #ff0000; stroke: #ff0000"/>
     <use xlink:href="#md78262634a" x="256.469737" y="185.172265" style="fill: #ff0000; stroke: #ff0000"/>
     <use xlink:href="#md78262634a" x="223.159049" y="146.391869" style="fill: #ff0000; stroke: #ff0000"/>
     <use xlink:href="#md78262634a" x="298.914698" y="168.570635" style="fill: #ff0000; stroke: #ff0000"/>
     <use xlink:href="#md78262634a" x="224.985625" y="208.646285" style="fill: #ff0000; stroke: #ff0000"/>
     <use xlink:href="#md78262634a" x="231.018402" y="149.153986" style="fill: #ff0000; stroke: #ff0000"/>
     <use xlink:href="#md78262634a" x="98.835416" y="198.448521" style="fill: #ff0000; stroke: #ff0000"/>
     <use xlink:href="#md78262634a" x="224.981646" y="169.540636" style="fill: #ff0000; stroke: #ff0000"/>
     <use xlink:href="#md78262634a" x="280.046502" y="232.791584" style="fill: #ff0000; stroke: #ff0000"/>
     <use xlink:href="#md78262634a" x="223.635328" y="158.104976" style="fill: #ff0000; stroke: #ff0000"/>
     <use xlink:href="#md78262634a" x="265.343038" y="167.401323" style="fill: #ff0000; stroke: #ff0000"/>
     <use xlink:href="#md78262634a" x="233.76054" y="147.256647" style="fill: #ff0000; stroke: #ff0000"/>
     <use xlink:href="#md78262634a" x="211.996947" y="154.839487" style="fill: #ff0000; stroke: #ff0000"/>
     <use xlink:href="#md78262634a" x="252.55652" y="174.652459" style="fill: #ff0000; stroke: #ff0000"/>
     <use xlink:href="#md78262634a" x="218.737853" y="128.348328" style="fill: #ff0000; stroke: #ff0000"/>
     <use xlink:href="#md78262634a" x="269.512796" y="144.367369" style="fill: #ff0000; stroke: #ff0000"/>
     <use xlink:href="#md78262634a" x="252.648431" y="154.093301" style="fill: #ff0000; stroke: #ff0000"/>
     <use xlink:href="#md78262634a" x="243.461153" y="134.253859" style="fill: #ff0000; stroke: #ff0000"/>
     <use xlink:href="#md78262634a" x="289.295848" y="206.640084" style="fill: #ff0000; stroke: #ff0000"/>
     <use xlink:href="#md78262634a" x="267.104238" y="162.186446" style="fill: #ff0000; stroke: #ff0000"/>
     <use xlink:href="#md78262634a" x="225.860782" y="211.293269" style="fill: #ff0000; stroke: #ff0000"/>
     <use xlink:href="#md78262634a" x="251.87048" y="226.771595" style="fill: #ff0000; stroke: #ff0000"/>
     <use xlink:href="#md78262634a" x="296.487025" y="170.878096" style="fill: #ff0000; stroke: #ff0000"/>
     <use xlink:href="#md78262634a" x="192.580977" y="150.315893" style="fill: #ff0000; stroke: #ff0000"/>
     <use xlink:href="#md78262634a" x="293.485591" y="205.175493" style="fill: #ff0000; stroke: #ff0000"/>
     <use xlink:href="#md78262634a" x="215.582048" y="142.409373" style="fill: #ff0000; stroke: #ff0000"/>
     <use xlink:href="#md78262634a" x="351.68639" y="208.801849" style="fill: #ff0000; stroke: #ff0000"/>
     <use xlink:href="#md78262634a" x="175.264782" y="267.854696" style="fill: #ff0000; stroke: #ff0000"/>
     <use xlink:href="#md78262634a" x="292.322611" y="175.669691" style="fill: #ff0000; stroke: #ff0000"/>
     <use xlink:href="#md78262634a" x="204.535113" y="148.027356" style="fill: #ff0000; stroke: #ff0000"/>
     <use xlink:href="#md78262634a" x="356.436208" y="162.621262" style="fill: #ff0000; stroke: #ff0000"/>
     <use xlink:href="#md78262634a" x="185.697596" y="161.975575" style="fill: #ff0000; stroke: #ff0000"/>
     <use xlink:href="#md78262634a" x="125.892532" y="220.835744" style="fill: #ff0000; stroke: #ff0000"/>
     <use xlink:href="#md78262634a" x="192.187149" y="180.346509" style="fill: #ff0000; stroke: #ff0000"/>
     <use xlink:href="#md78262634a" x="266.841751" y="173.225151" style="fill: #ff0000; stroke: #ff0000"/>
     <use xlink:href="#md78262634a" x="228.147217" y="263.204451" style="fill: #ff0000; stroke: #ff0000"/>
     <use xlink:href="#md78262634a" x="330.740941" y="94.077922" style="fill: #ff0000; stroke: #ff0000"/>
     <use xlink:href="#md78262634a" x="261.575104" y="124.615116" style="fill: #ff0000; stroke: #ff0000"/>
     <use xlink:href="#md78262634a" x="239.85428" y="107.640274" style="fill: #ff0000; stroke: #ff0000"/>
     <use xlink:href="#md78262634a" x="281.401242" y="172.681326" style="fill: #ff0000; stroke: #ff0000"/>
     <use xlink:href="#md78262634a" x="239.867197" y="230.255491" style="fill: #ff0000; stroke: #ff0000"/>
     <use xlink:href="#md78262634a" x="215.360624" y="226.157141" style="fill: #ff0000; stroke: #ff0000"/>
     <use xlink:href="#md78262634a" x="253.876985" y="101.488093" style="fill: #ff0000; stroke: #ff0000"/>
     <use xlink:href="#md78262634a" x="231.098544" y="144.186001" style="fill: #ff0000; stroke: #ff0000"/>
     <use xlink:href="#md78262634a" x="266.604942" y="177.214946" style="fill: #ff0000; stroke: #ff0000"/>
     <use xlink:href="#md78262634a" x="311.268873" y="259.71484" style="fill: #ff0000; stroke: #ff0000"/>
     <use xlink:href="#md78262634a" x="316.129933" y="189.04653" style="fill: #ff0000; stroke: #ff0000"/>
     <use xlink:href="#md78262634a" x="110.888057" y="182.666609" style="fill: #ff0000; stroke: #ff0000"/>
     <use xlink:href="#md78262634a" x="178.921929" y="224.199155" style="fill: #ff0000; stroke: #ff0000"/>
     <use xlink:href="#md78262634a" x="255.355027" y="128.99564" style="fill: #ff0000; stroke: #ff0000"/>
     <use xlink:href="#md78262634a" x="184.977996" y="149.973133" style="fill: #ff0000; stroke: #ff0000"/>
     <use xlink:href="#md78262634a" x="307.998796" y="87.218322" style="fill: #ff0000; stroke: #ff0000"/>
     <use xlink:href="#md78262634a" x="258.674565" y="148.757549" style="fill: #ff0000; stroke: #ff0000"/>
     <use xlink:href="#md78262634a" x="254.008594" y="205.734024" style="fill: #ff0000; stroke: #ff0000"/>
     <use xlink:href="#md78262634a" x="151.887226" y="207.368758" style="fill: #ff0000; stroke: #ff0000"/>
     <use xlink:href="#md78262634a" x="267.282712" y="132.381374" style="fill: #ff0000; stroke: #ff0000"/>
     <use xlink:href="#md78262634a" x="264.430124" y="117.054058" style="fill: #ff0000; stroke: #ff0000"/>
     <use xlink:href="#md78262634a" x="370.422604" y="192.07881" style="fill: #ff0000; stroke: #ff0000"/>
     <use xlink:href="#md78262634a" x="216.008299" y="200.844798" style="fill: #ff0000; stroke: #ff0000"/>
     <use xlink:href="#md78262634a" x="275.839067" y="175.509704" style="fill: #ff0000; stroke: #ff0000"/>
     <use xlink:href="#md78262634a" x="263.048931" y="240.532073" style="fill: #ff0000; stroke: #ff0000"/>
     <use xlink:href="#md78262634a" x="209.44343" y="162.029881" style="fill: #ff0000; stroke: #ff0000"/>
     <use xlink:href="#md78262634a" x="214.22625" y="153.077818" style="fill: #ff0000; stroke: #ff0000"/>
     <use xlink:href="#md78262634a" x="180.433951" y="219.19303" style="fill: #ff0000; stroke: #ff0000"/>
     <use xlink:href="#md78262634a" x="163.014861" y="101.283961" style="fill: #ff0000; stroke: #ff0000"/>
     <use xlink:href="#md78262634a" x="222.193801" y="230.213255" style="fill: #ff0000; stroke: #ff0000"/>
     <use xlink:href="#md78262634a" x="109.523461" y="182.746245" style="fill: #ff0000; stroke: #ff0000"/>
     <use xlink:href="#md78262634a" x="293.693274" y="134.856884" style="fill: #ff0000; stroke: #ff0000"/>
     <use xlink:href="#md78262634a" x="291.396753" y="185.192673" style="fill: #ff0000; stroke: #ff0000"/>
     <use xlink:href="#md78262634a" x="144.706359" y="180.183347" style="fill: #ff0000; stroke: #ff0000"/>
    </g>
   </g>
   <g id="line2d_36">
    <path d="M 73.832727 197.148654 
L 74.512352 182.07743 
L 77.741256 166.887148 
L 83.468519 151.817366 
L 91.603818 137.105744 
L 102.018854 122.984294 
L 114.549376 109.675719 
L 128.99777 97.389903 
L 145.136177 86.320601 
L 162.710084 76.642383 
L 181.442339 68.507879 
L 201.037525 62.045376 
L 221.186613 57.35679 
L 241.571841 54.516065 
L 261.871721 53.568 
L 281.766111 54.527546 
L 300.941266 57.379571 
L 319.094781 62.079097 
L 335.940366 68.552009 
L 351.212354 76.696226 
L 364.669899 86.383308 
L 376.100765 97.460485 
L 385.324682 109.753062 
L 392.196182 123.067179 
L 396.606899 137.192864 
L 398.487273 151.907346 
L 397.807648 166.97857 
L 394.578744 182.168852 
L 388.851481 197.238634 
L 380.716182 211.950256 
L 370.301146 226.071706 
L 357.770624 239.380281 
L 343.32223 251.666097 
L 327.183823 262.735399 
L 309.609916 272.413617 
L 290.877661 280.548121 
L 271.282475 287.010624 
L 251.133387 291.69921 
L 230.748159 294.539935 
L 210.448279 295.488 
L 190.553889 294.528454 
L 171.378734 291.676429 
L 153.225219 286.976903 
L 136.379634 280.503991 
L 121.107646 272.359774 
L 107.650101 262.672692 
L 96.219235 251.595515 
L 86.995318 239.302938 
L 80.123818 225.988821 
L 75.713101 211.863136 
L 73.832727 197.148654 
" clip-path="url(#pa39152e778)" style="fill: none; stroke: #ff0000; stroke-width: 1.5; stroke-linecap: square"/>
   </g>
   <g id="patch_6">
    <path d="M 57.6 307.584 
L 57.6 41.472 
" style="fill: none; stroke: #000000; stroke-width: 0.8; stroke-linejoin: miter; stroke-linecap: square"/>
   </g>
   <g id="patch_7">
    <path d="M 414.72 307.584 
L 414.72 41.472 
" style="fill: none; stroke: #000000; stroke-width: 0.8; stroke-linejoin: miter; stroke-linecap: square"/>
   </g>
   <g id="patch_8">
    <path d="M 57.6 307.584 
L 414.72 307.584 
" style="fill: none; stroke: #000000; stroke-width: 0.8; stroke-linejoin: miter; stroke-linecap: square"/>
   </g>
   <g id="patch_9">
    <path d="M 57.6 41.472 
L 414.72 41.472 
" style="fill: none; stroke: #000000; stroke-width: 0.8; stroke-linejoin: miter; stroke-linecap: square"/>
   </g>
   <g id="legend_1">
    <g id="patch_10">
     <path d="M 64.6 105.220713 
L 173.357417 105.220713 
Q 175.357417 105.220713 175.357417 103.220713 
L 175.357417 48.472 
Q 175.357417 46.472 173.357417 46.472 
L 64.6 46.472 
Q 62.6 46.472 62.6 48.472 
L 62.6 103.220713 
Q 62.6 105.220713 64.6 105.220713 
z
" style="fill: #ffffff; opacity: 0.8; stroke: #cccccc; stroke-linejoin: miter"/>
    </g>
    <g id="line2d_37">
     <path d="M 66.6 53.972 
L 76.6 53.972 
L 86.6 53.972 
" style="fill: none; stroke: #0000ff; stroke-width: 1.5; stroke-linecap: square"/>
    </g>
    <g id="text_19">
     <!-- Censi's cov $3\sigma$. -->
     <g transform="translate(94.6 57.472) scale(0.1 -0.1)">
      <defs>
       <path id="CMSS17-43" d="M 3501 714 
C 3072 427 2874 344 2355 344 
C 1459 344 934 1303 934 2179 
C 934 3112 1472 4032 2381 4032 
C 2790 4032 3059 3918 3386 3715 
L 3475 4217 
C 3168 4370 2778 4440 2387 4440 
C 1158 4440 397 3316 397 2179 
C 397 927 1299 -64 2323 -64 
C 2874 -64 3066 -19 3539 280 
L 3501 714 
z
" transform="scale(0.015625)"/>
       <path id="CMSS17-65" d="M 2502 1377 
C 2502 1590 2490 2003 2285 2345 
C 2061 2713 1696 2816 1421 2816 
C 755 2816 192 2188 192 1375 
C 192 582 774 -64 1510 -64 
C 1798 -64 2150 19 2470 248 
C 2470 274 2458 414 2451 420 
C 2451 433 2432 630 2432 656 
C 2125 407 1773 325 1517 325 
C 1107 325 666 667 646 1377 
L 2502 1377 
z
M 698 1728 
C 781 2084 1062 2421 1421 2421 
C 1517 2421 1965 2421 2080 1728 
L 698 1728 
z
" transform="scale(0.015625)"/>
       <path id="CMSS17-6e" d="M 2618 1877 
C 2618 2283 2522 2816 1798 2816 
C 1389 2816 1120 2606 941 2389 
L 941 2758 
L 474 2758 
L 474 0 
L 960 0 
L 960 1559 
C 960 1964 1114 2428 1549 2428 
C 2112 2428 2131 2048 2131 1829 
L 2131 0 
L 2618 0 
L 2618 1877 
z
" transform="scale(0.015625)"/>
       <path id="CMSS17-73" d="M 2061 2627 
C 1683 2807 1389 2807 1197 2807 
C 742 2807 198 2648 198 2003 
C 198 1359 902 1218 1094 1179 
C 1389 1122 1715 1058 1715 740 
C 1715 337 1254 337 1171 337 
C 915 337 563 407 243 638 
L 166 210 
C 531 0 883 -64 1178 -64 
C 1965 -64 2163 416 2163 781 
C 2163 1094 1984 1305 1862 1401 
C 1651 1568 1574 1587 1050 1696 
C 960 1709 646 1779 646 2066 
C 646 2432 1050 2432 1139 2432 
C 1555 2432 1811 2303 1984 2208 
L 2061 2627 
z
" transform="scale(0.015625)"/>
       <path id="CMSS17-69" d="M 979 4183 
L 442 4183 
L 442 3648 
L 979 3648 
L 979 4183 
z
M 947 2739 
L 474 2739 
L 474 0 
L 947 0 
L 947 2739 
z
" transform="scale(0.015625)"/>
       <path id="CMSS17-27" d="M 1088 3910 
L 1088 4413 
L 576 4413 
L 576 3904 
L 736 3904 
L 570 3104 
L 826 3104 
L 1088 3910 
z
" transform="scale(0.015625)"/>
       <path id="CMSS17-63" d="M 2464 2541 
C 2464 2585 2170 2714 2093 2739 
C 1882 2816 1613 2816 1542 2816 
C 710 2816 211 2093 211 1363 
C 211 595 768 -64 1517 -64 
C 1946 -64 2253 76 2502 242 
L 2464 664 
C 2189 453 1869 337 1523 337 
C 1024 337 698 774 698 1369 
C 698 1831 909 2414 1549 2414 
C 1901 2414 2099 2343 2394 2145 
L 2464 2541 
z
" transform="scale(0.015625)"/>
       <path id="CMSS17-6f" d="M 2829 1356 
C 2829 2176 2221 2816 1504 2816 
C 768 2816 173 2157 173 1356 
C 173 544 787 -64 1498 -64 
C 2227 -64 2829 563 2829 1356 
z
M 1504 337 
C 1050 337 659 709 659 1408 
C 659 2151 1114 2427 1498 2427 
C 1914 2427 2342 2126 2342 1408 
C 2342 683 1926 337 1504 337 
z
" transform="scale(0.015625)"/>
       <path id="CMSS17-76" d="M 2675 2752 
L 2176 2752 
L 1747 1556 
C 1613 1165 1421 627 1389 352 
L 1382 352 
C 1370 468 1318 634 1286 749 
C 1248 890 1197 1056 1158 1172 
L 595 2752 
L 83 2752 
L 1094 0 
L 1664 0 
L 2675 2752 
z
" transform="scale(0.015625)"/>
       <path id="CMMI12-1b" d="M 3251 2408 
C 3334 2408 3546 2408 3546 2612 
C 3546 2752 3424 2752 3309 2752 
L 1894 2752 
C 934 2752 243 1686 243 932 
C 243 390 595 -64 1171 -64 
C 1926 -64 2752 747 2752 1705 
C 2752 1954 2694 2196 2541 2408 
L 3251 2408 
z
M 1178 64 
C 851 64 614 313 614 754 
C 614 1137 845 2408 1786 2408 
C 2061 2408 2368 2274 2368 1781 
C 2368 1558 2266 1021 2042 652 
C 1811 275 1466 64 1178 64 
z
" transform="scale(0.015625)"/>
       <path id="CMSS17-2e" d="M 1088 510 
L 576 510 
L 576 0 
L 1088 0 
L 1088 510 
z
" transform="scale(0.015625)"/>
      </defs>
      <use xlink:href="#CMSS17-43" transform="scale(0.996264)"/>
      <use xlink:href="#CMSS17-65" transform="translate(59.855772 0) scale(0.996264)"/>
      <use xlink:href="#CMSS17-6e" transform="translate(101.494594 0) scale(0.996264)"/>
      <use xlink:href="#CMSS17-73" transform="translate(149.699537 0) scale(0.996264)"/>
      <use xlink:href="#CMSS17-69" transform="translate(185.613079 0) scale(0.996264)"/>
      <use xlink:href="#CMSS17-27" transform="translate(207.793802 0) scale(0.996264)"/>
      <use xlink:href="#CMSS17-73" transform="translate(233.818007 0) scale(0.996264)"/>
      <use xlink:href="#CMSS17-63" transform="translate(300.960661 0) scale(0.996264)"/>
      <use xlink:href="#CMSS17-6f" transform="translate(342.599484 0) scale(0.996264)"/>
      <use xlink:href="#CMSS17-76" transform="translate(389.443107 0) scale(0.996264)"/>
      <use xlink:href="#CMR17-33" transform="translate(463.672361 0) scale(0.996264)"/>
      <use xlink:href="#CMMI12-1b" transform="translate(509.362839 0) scale(0.996264)"/>
      <use xlink:href="#CMSS17-2e" transform="translate(568.382892 0) scale(0.996264)"/>
     </g>
    </g>
    <g id="line2d_38">
     <path d="M 66.6 67.909178 
L 76.6 67.909178 
L 86.6 67.909178 
" style="fill: none; stroke: #008000; stroke-width: 1.5; stroke-linecap: square"/>
    </g>
    <g id="text_20">
     <!-- Brossard's cov $3\sigma$. -->
     <g transform="translate(94.6 71.409178) scale(0.1 -0.1)">
      <defs>
       <path id="CMSS17-42" d="M 570 4416 
L 570 0 
L 2163 0 
C 3034 0 3667 574 3667 1200 
C 3667 1685 3251 2176 2502 2317 
C 3334 2558 3501 3040 3501 3313 
C 3501 3883 2874 4416 1997 4416 
L 570 4416 
z
M 1088 2496 
L 1088 4059 
L 1824 4059 
C 2483 4059 3002 3724 3002 3306 
C 3002 2926 2592 2496 1766 2496 
L 1088 2496 
z
M 1088 357 
L 1088 2107 
L 1939 2107 
C 2630 2107 3162 1679 3162 1206 
C 3162 772 2694 357 1984 357 
L 1088 357 
z
" transform="scale(0.015625)"/>
       <path id="CMSS17-72" d="M 954 1363 
C 954 1965 1395 2368 1958 2368 
L 1958 2789 
C 1549 2789 1165 2585 934 2253 
L 934 2758 
L 480 2758 
L 480 0 
L 954 0 
L 954 1363 
z
" transform="scale(0.015625)"/>
       <path id="CMSS17-61" d="M 2406 1791 
C 2406 2392 1978 2808 1402 2808 
C 1120 2808 813 2757 461 2553 
L 499 2135 
C 659 2248 934 2432 1395 2432 
C 1722 2432 1920 2180 1920 1782 
L 1920 1536 
C 896 1536 256 1238 256 726 
C 256 461 416 -64 947 -64 
C 1043 -64 1562 -64 1933 217 
L 1933 -19 
L 2406 -19 
L 2406 1791 
z
M 1920 816 
C 1920 701 1920 548 1728 434 
C 1562 325 1350 325 1261 325 
C 941 325 723 511 723 744 
C 723 1211 1722 1211 1920 1211 
L 1920 816 
z
" transform="scale(0.015625)"/>
       <path id="CMSS17-64" d="M 2611 4416 
L 2138 4416 
L 2138 2438 
C 1939 2603 1613 2756 1254 2756 
C 672 2756 211 2131 211 1347 
C 211 562 666 -64 1235 -64 
C 1677 -64 1971 172 2125 306 
L 2125 -13 
L 2611 -13 
L 2611 4416 
z
M 2125 836 
C 2125 747 2125 653 1926 482 
C 1798 375 1645 325 1498 325 
C 1152 325 698 576 698 1340 
C 698 2134 1210 2368 1562 2368 
C 1798 2368 1990 2254 2125 2065 
L 2125 836 
z
" transform="scale(0.015625)"/>
      </defs>
      <use xlink:href="#CMSS17-42" transform="scale(0.996264)"/>
      <use xlink:href="#CMSS17-72" transform="translate(62.33804 0) scale(0.996264)"/>
      <use xlink:href="#CMSS17-6f" transform="translate(94.247813 0) scale(0.996264)"/>
      <use xlink:href="#CMSS17-73" transform="translate(141.091436 0) scale(0.996264)"/>
      <use xlink:href="#CMSS17-73" transform="translate(177.004978 0) scale(0.996264)"/>
      <use xlink:href="#CMSS17-61" transform="translate(212.91852 0) scale(0.996264)"/>
      <use xlink:href="#CMSS17-72" transform="translate(255.237987 0) scale(0.996264)"/>
      <use xlink:href="#CMSS17-64" transform="translate(287.14776 0) scale(0.996264)"/>
      <use xlink:href="#CMSS17-27" transform="translate(335.352703 0) scale(0.996264)"/>
      <use xlink:href="#CMSS17-73" transform="translate(361.376908 0) scale(0.996264)"/>
      <use xlink:href="#CMSS17-63" transform="translate(428.519562 0) scale(0.996264)"/>
      <use xlink:href="#CMSS17-6f" transform="translate(470.158384 0) scale(0.996264)"/>
      <use xlink:href="#CMSS17-76" transform="translate(517.002008 0) scale(0.996264)"/>
      <use xlink:href="#CMR17-33" transform="translate(591.231262 0) scale(0.996264)"/>
      <use xlink:href="#CMMI12-1b" transform="translate(636.921739 0) scale(0.996264)"/>
      <use xlink:href="#CMSS17-2e" transform="translate(695.941793 0) scale(0.996264)"/>
     </g>
    </g>
    <g id="line2d_39">
     <g>
      <use xlink:href="#md78262634a" x="76.6" y="81.846357" style="fill: #ff0000; stroke: #ff0000"/>
     </g>
    </g>
    <g id="text_21">
     <!-- Samples. -->
     <g transform="translate(94.6 85.346357) scale(0.1 -0.1)">
      <defs>
       <path id="CMSS17-53" d="M 2797 4169 
C 2515 4334 2208 4480 1690 4480 
C 864 4480 333 3879 333 3266 
C 333 3025 403 2753 653 2475 
C 902 2196 1184 2121 1542 2033 
C 1690 1994 1939 1924 1984 1906 
C 2342 1767 2515 1444 2515 1140 
C 2515 742 2202 318 1645 318 
C 1453 318 890 318 358 819 
L 269 318 
C 794 -64 1363 -128 1651 -128 
C 2438 -128 3002 488 3002 1186 
C 3002 1440 2925 1763 2656 2061 
C 2394 2347 2163 2410 1638 2549 
C 1338 2626 1146 2677 986 2873 
C 877 3013 819 3146 819 3317 
C 819 3673 1126 4060 1690 4060 
C 1971 4060 2336 4002 2707 3660 
L 2797 4169 
z
" transform="scale(0.015625)"/>
       <path id="CMSS17-70" d="M 966 333 
C 1178 129 1466 -5 1773 -5 
C 2368 -5 2880 603 2880 1412 
C 2880 2159 2496 2816 1946 2816 
C 1626 2816 1242 2702 954 2472 
L 954 2765 
L 480 2765 
L 480 -1216 
L 966 -1216 
L 966 333 
z
M 966 2100 
C 1018 2176 1235 2415 1587 2415 
C 2035 2415 2394 1960 2394 1412 
C 2394 787 1958 384 1530 384 
C 1402 384 1267 415 1139 523 
C 966 674 966 768 966 857 
L 966 2100 
z
" transform="scale(0.015625)"/>
       <path id="CMSS17-6c" d="M 947 4416 
L 474 4416 
L 474 0 
L 947 0 
L 947 4416 
z
" transform="scale(0.015625)"/>
      </defs>
      <use xlink:href="#CMSS17-53" transform="scale(0.996264)"/>
      <use xlink:href="#CMSS17-61" transform="translate(52.048516 0) scale(0.996264)"/>
      <use xlink:href="#CMSS17-6d" transform="translate(96.970437 0) scale(0.996264)"/>
      <use xlink:href="#CMSS17-70" transform="translate(171.199691 0) scale(0.996264)"/>
      <use xlink:href="#CMSS17-6c" transform="translate(219.404634 0) scale(0.996264)"/>
      <use xlink:href="#CMSS17-65" transform="translate(241.585357 0) scale(0.996264)"/>
      <use xlink:href="#CMSS17-73" transform="translate(283.224179 0) scale(0.996264)"/>
      <use xlink:href="#CMSS17-2e" transform="translate(319.137721 0) scale(0.996264)"/>
     </g>
    </g>
    <g id="line2d_40">
     <path d="M 66.6 95.783535 
L 76.6 95.783535 
L 86.6 95.783535 
" style="fill: none; stroke: #ff0000; stroke-width: 1.5; stroke-linecap: square"/>
    </g>
    <g id="text_22">
     <!-- Sample cov $3\sigma$. -->
     <g transform="translate(94.6 99.283535) scale(0.1 -0.1)">
      <use xlink:href="#CMSS17-53" transform="scale(0.996264)"/>
      <use xlink:href="#CMSS17-61" transform="translate(52.048516 0) scale(0.996264)"/>
      <use xlink:href="#CMSS17-6d" transform="translate(96.970437 0) scale(0.996264)"/>
      <use xlink:href="#CMSS17-70" transform="translate(171.199691 0) scale(0.996264)"/>
      <use xlink:href="#CMSS17-6c" transform="translate(219.404634 0) scale(0.996264)"/>
      <use xlink:href="#CMSS17-65" transform="translate(241.585357 0) scale(0.996264)"/>
      <use xlink:href="#CMSS17-63" transform="translate(314.453292 0) scale(0.996264)"/>
      <use xlink:href="#CMSS17-6f" transform="translate(356.092114 0) scale(0.996264)"/>
      <use xlink:href="#CMSS17-76" transform="translate(402.935738 0) scale(0.996264)"/>
      <use xlink:href="#CMR17-33" transform="translate(477.164992 0) scale(0.996264)"/>
      <use xlink:href="#CMMI12-1b" transform="translate(522.855469 0) scale(0.996264)"/>
      <use xlink:href="#CMSS17-2e" transform="translate(581.875523 0) scale(0.996264)"/>
     </g>
    </g>
   </g>
  </g>
 </g>
 <defs>
  <clipPath id="pa39152e778">
   <rect x="57.6" y="41.472" width="357.12" height="266.112"/>
  </clipPath>
 </defs>
</svg>
