<?xml version="1.0" encoding="utf-8" standalone="no"?>
<!DOCTYPE svg PUBLIC "-//W3C//DTD SVG 1.1//EN"
  "http://www.w3.org/Graphics/SVG/1.1/DTD/svg11.dtd">
<svg xmlns:xlink="http://www.w3.org/1999/xlink" width="460.8pt" height="345.6pt" viewBox="0 0 460.8 345.6" xmlns="http://www.w3.org/2000/svg" version="1.1">
 <metadata>
  <rdf:RDF xmlns:dc="http://purl.org/dc/elements/1.1/" xmlns:cc="http://creativecommons.org/ns#" xmlns:rdf="http://www.w3.org/1999/02/22-rdf-syntax-ns#">
   <cc:Work>
    <dc:type rdf:resource="http://purl.org/dc/dcmitype/StillImage"/>
    <dc:date>2022-12-17T15:06:12.384612</dc:date>
    <dc:format>image/svg+xml</dc:format>
    <dc:creator>
     <cc:Agent>
      <dc:title>Matplotlib v3.6.0, https://matplotlib.org/</dc:title>
     </cc:Agent>
    </dc:creator>
   </cc:Work>
  </rdf:RDF>
 </metadata>
 <defs>
  <style type="text/css">*{stroke-linejoin: round; stroke-linecap: butt}</style>
 </defs>
 <g id="figure_1">
  <g id="patch_1">
   <path d="M 0 345.6 
L 460.8 345.6 
L 460.8 0 
L 0 0 
z
" style="fill: #ffffff"/>
  </g>
  <g id="axes_1">
   <g id="patch_2">
    <path d="M 57.6 307.584 
L 414.72 307.584 
L 414.72 41.472 
L 57.6 41.472 
z
" style="fill: #ffffff"/>
   </g>
   <g id="patch_3">
    <path d="M 209.844381 178.467288 
L 209.896475 176.461379 
L 210.362761 174.424979 
L 211.235885 172.390204 
L 212.502077 170.389143 
L 214.141369 168.453355 
L 216.127907 166.613367 
L 218.430364 164.898198 
L 221.012428 163.334896 
L 223.833378 161.948117 
L 226.848726 160.75973 
L 230.010918 159.788476 
L 233.270085 159.049674 
L 236.574828 158.554974 
L 239.873029 158.312178 
L 243.112673 158.325115 
L 246.242669 158.593582 
L 249.213656 159.113344 
L 251.978778 159.876204 
L 254.494429 160.870132 
L 256.720935 162.079453 
L 258.623183 163.485094 
L 260.171173 165.064889 
L 261.340493 166.793923 
L 262.112701 168.644927 
L 262.475619 170.588712 
L 262.423525 172.594621 
L 261.957239 174.631021 
L 261.084115 176.665796 
L 259.817923 178.666857 
L 258.178631 180.602645 
L 256.192093 182.442633 
L 253.889636 184.157802 
L 251.307572 185.721104 
L 248.486622 187.107883 
L 245.471274 188.29627 
L 242.309082 189.267524 
L 239.049915 190.006326 
L 235.745172 190.501026 
L 232.446971 190.743822 
L 229.207327 190.730885 
L 226.077331 190.462418 
L 223.106344 189.942656 
L 220.341222 189.179796 
L 217.825571 188.185868 
L 215.599065 186.976547 
L 213.696817 185.570906 
L 212.148827 183.991111 
L 210.979507 182.262077 
L 210.207299 180.411073 
L 209.844381 178.467288 
L 209.844381 178.467288 
z
" clip-path="url(#p3b15739551)" style="fill: none; opacity: 0"/>
   </g>
   <g id="patch_4">
    <path d="M 90.585649 179.492284 
L 91.632408 173.811635 
L 94.958454 168.142284 
L 100.511333 162.573639 
L 108.203472 157.193521 
L 117.913562 152.086778 
L 129.488469 147.333947 
L 142.745649 143.009983 
L 157.47603 139.183076 
L 173.447304 135.91358 
L 190.407595 133.253057 
L 208.089429 131.243464 
L 226.213952 129.916494 
L 244.49533 129.293074 
L 262.645255 129.383035 
L 280.377492 130.18496 
L 297.412393 131.686201 
L 313.481307 133.863083 
L 328.330817 136.681275 
L 341.726739 140.096333 
L 353.45781 144.054398 
L 363.339025 148.49305 
L 371.21455 153.342289 
L 376.960185 158.525639 
L 380.485316 163.961356 
L 381.734351 169.563716 
L 380.687592 175.244365 
L 377.361546 180.913716 
L 371.808667 186.482361 
L 364.116528 191.862479 
L 354.406438 196.969222 
L 342.831531 201.722053 
L 329.574351 206.046017 
L 314.84397 209.872924 
L 298.872696 213.14242 
L 281.912405 215.802943 
L 264.230571 217.812536 
L 246.106048 219.139506 
L 227.82467 219.762926 
L 209.674745 219.672965 
L 191.942508 218.87104 
L 174.907607 217.369799 
L 158.838693 215.192917 
L 143.989183 212.374725 
L 130.593261 208.959667 
L 118.86219 205.001602 
L 108.980975 200.56295 
L 101.10545 195.713711 
L 95.359815 190.530361 
L 91.834684 185.094644 
L 90.585649 179.492284 
L 90.585649 179.492284 
z
" clip-path="url(#p3b15739551)" style="fill: none; opacity: 0"/>
   </g>
   <g id="patch_5">
    <path d="M 73.832727 157.144941 
L 75.958192 142.263935 
L 80.610135 127.891753 
L 87.715192 114.255052 
L 97.161312 101.568892 
L 108.799525 90.03334 
L 122.446289 79.83032 
L 137.886385 71.120738 
L 154.876316 64.041951 
L 173.148138 58.705595 
L 192.413695 55.195828 
L 212.369158 53.568 
L 232.699816 53.847784 
L 253.085044 56.030766 
L 273.203354 60.082521 
L 292.737467 65.939149 
L 311.379321 73.508289 
L 328.83492 82.67057 
L 344.828981 93.281497 
L 359.109267 105.17373 
L 371.45057 118.159721 
L 381.658259 132.034674 
L 389.571354 146.579772 
L 395.065061 161.56563 
L 398.052739 176.755913 
L 398.487273 191.911059 
L 396.361808 206.792065 
L 391.709865 221.164247 
L 384.604808 234.800948 
L 375.158688 247.487108 
L 363.520475 259.02266 
L 349.873711 269.22568 
L 334.433615 277.935262 
L 317.443684 285.014049 
L 299.171862 290.350405 
L 279.906305 293.860172 
L 259.950842 295.488 
L 239.620184 295.208216 
L 219.234956 293.025234 
L 199.116646 288.973479 
L 179.582533 283.116851 
L 160.940679 275.547711 
L 143.48508 266.38543 
L 127.491019 255.774503 
L 113.210733 243.88227 
L 100.86943 230.896279 
L 90.661741 217.021326 
L 82.748646 202.476228 
L 77.254939 187.49037 
L 74.267261 172.300087 
L 73.832727 157.144941 
L 73.832727 157.144941 
z
" clip-path="url(#p3b15739551)" style="fill: none; opacity: 0"/>
   </g>
   <g id="matplotlib.axis_1">
    <g id="xtick_1">
     <g id="line2d_1">
      <path d="M 82.745217 307.584 
L 82.745217 41.472 
" clip-path="url(#p3b15739551)" style="fill: none; stroke: #b0b0b0; stroke-width: 0.8; stroke-linecap: square"/>
     </g>
     <g id="line2d_2">
      <defs>
       <path id="m2ca3656e00" d="M 0 0 
L 0 3.5 
" style="stroke: #000000; stroke-width: 0.8"/>
      </defs>
      <g>
       <use xlink:href="#m2ca3656e00" x="82.745217" y="307.584" style="stroke: #000000; stroke-width: 0.8"/>
      </g>
     </g>
     <g id="text_1">
      <!-- $\mathdefault{−0.03}$ -->
      <g transform="translate(70.015138 321.502498) scale(0.1 -0.1)">
       <defs>
        <path id="CMSY10-0" d="M 4218 1472 
C 4326 1472 4442 1472 4442 1600 
C 4442 1728 4326 1728 4218 1728 
L 755 1728 
C 646 1728 531 1728 531 1600 
C 531 1472 646 1472 755 1472 
L 4218 1472 
z
" transform="scale(0.015625)"/>
        <path id="CMR17-30" d="M 2688 2025 
C 2688 2416 2682 3080 2413 3591 
C 2176 4039 1798 4198 1466 4198 
C 1158 4198 768 4058 525 3597 
C 269 3118 243 2524 243 2025 
C 243 1661 250 1106 448 619 
C 723 -39 1216 -128 1466 -128 
C 1760 -128 2208 -7 2470 600 
C 2662 1042 2688 1559 2688 2025 
z
M 1466 -26 
C 1056 -26 813 325 723 812 
C 653 1188 653 1738 653 2096 
C 653 2588 653 2997 736 3387 
C 858 3929 1216 4096 1466 4096 
C 1728 4096 2067 3923 2189 3400 
C 2272 3036 2278 2607 2278 2096 
C 2278 1680 2278 1169 2202 792 
C 2067 95 1690 -26 1466 -26 
z
" transform="scale(0.015625)"/>
        <path id="CMMI12-3a" d="M 1178 307 
C 1178 492 1024 619 870 619 
C 685 619 557 466 557 313 
C 557 128 710 0 864 0 
C 1050 0 1178 153 1178 307 
z
" transform="scale(0.015625)"/>
        <path id="CMR17-33" d="M 1414 2157 
C 1984 2157 2234 1662 2234 1090 
C 2234 320 1824 25 1453 25 
C 1114 25 563 194 390 693 
C 422 680 454 680 486 680 
C 640 680 755 782 755 948 
C 755 1133 614 1216 486 1216 
C 378 1216 211 1165 211 926 
C 211 335 787 -128 1466 -128 
C 2176 -128 2720 430 2720 1085 
C 2720 1707 2208 2157 1600 2227 
C 2086 2328 2554 2756 2554 3329 
C 2554 3820 2048 4179 1472 4179 
C 890 4179 378 3829 378 3329 
C 378 3110 544 3072 627 3072 
C 762 3072 877 3155 877 3321 
C 877 3486 762 3569 627 3569 
C 602 3569 570 3569 544 3557 
C 730 3959 1235 4032 1459 4032 
C 1683 4032 2106 3925 2106 3320 
C 2106 3143 2080 2828 1862 2550 
C 1670 2304 1453 2304 1242 2284 
C 1210 2284 1062 2269 1037 2269 
C 992 2263 966 2257 966 2208 
C 966 2163 973 2157 1101 2157 
L 1414 2157 
z
" transform="scale(0.015625)"/>
       </defs>
       <use xlink:href="#CMSY10-0" transform="scale(0.996264)"/>
       <use xlink:href="#CMR17-30" transform="translate(77.487468 0) scale(0.996264)"/>
       <use xlink:href="#CMMI12-3a" transform="translate(123.177945 0) scale(0.996264)"/>
       <use xlink:href="#CMR17-30" transform="translate(150.275122 0) scale(0.996264)"/>
       <use xlink:href="#CMR17-33" transform="translate(195.965599 0) scale(0.996264)"/>
      </g>
     </g>
    </g>
    <g id="xtick_2">
     <g id="line2d_3">
      <path d="M 127.182784 307.584 
L 127.182784 41.472 
" clip-path="url(#p3b15739551)" style="fill: none; stroke: #b0b0b0; stroke-width: 0.8; stroke-linecap: square"/>
     </g>
     <g id="line2d_4">
      <g>
       <use xlink:href="#m2ca3656e00" x="127.182784" y="307.584" style="stroke: #000000; stroke-width: 0.8"/>
      </g>
     </g>
     <g id="text_2">
      <!-- $\mathdefault{−0.02}$ -->
      <g transform="translate(114.452705 321.502498) scale(0.1 -0.1)">
       <defs>
        <path id="CMR17-32" d="M 2669 989 
L 2554 989 
C 2490 536 2438 459 2413 420 
C 2381 369 1920 369 1830 369 
L 602 369 
C 832 619 1280 1072 1824 1597 
C 2214 1967 2669 2402 2669 3035 
C 2669 3790 2067 4224 1395 4224 
C 691 4224 262 3604 262 3030 
C 262 2780 448 2748 525 2748 
C 589 2748 781 2787 781 3010 
C 781 3207 614 3264 525 3264 
C 486 3264 448 3258 422 3245 
C 544 3790 915 4058 1306 4058 
C 1862 4058 2227 3617 2227 3035 
C 2227 2479 1901 2000 1536 1584 
L 262 146 
L 262 0 
L 2515 0 
L 2669 989 
z
" transform="scale(0.015625)"/>
       </defs>
       <use xlink:href="#CMSY10-0" transform="scale(0.996264)"/>
       <use xlink:href="#CMR17-30" transform="translate(77.487468 0) scale(0.996264)"/>
       <use xlink:href="#CMMI12-3a" transform="translate(123.177945 0) scale(0.996264)"/>
       <use xlink:href="#CMR17-30" transform="translate(150.275122 0) scale(0.996264)"/>
       <use xlink:href="#CMR17-32" transform="translate(195.965599 0) scale(0.996264)"/>
      </g>
     </g>
    </g>
    <g id="xtick_3">
     <g id="line2d_5">
      <path d="M 171.62035 307.584 
L 171.62035 41.472 
" clip-path="url(#p3b15739551)" style="fill: none; stroke: #b0b0b0; stroke-width: 0.8; stroke-linecap: square"/>
     </g>
     <g id="line2d_6">
      <g>
       <use xlink:href="#m2ca3656e00" x="171.62035" y="307.584" style="stroke: #000000; stroke-width: 0.8"/>
      </g>
     </g>
     <g id="text_3">
      <!-- $\mathdefault{−0.01}$ -->
      <g transform="translate(158.890271 321.502498) scale(0.1 -0.1)">
       <defs>
        <path id="CMR17-31" d="M 1702 4058 
C 1702 4192 1696 4192 1606 4192 
C 1357 3916 979 3827 621 3827 
C 602 3827 570 3827 563 3808 
C 557 3795 557 3782 557 3648 
C 755 3648 1088 3686 1344 3839 
L 1344 461 
C 1344 236 1331 160 781 160 
L 589 160 
L 589 0 
C 896 0 1216 0 1523 0 
C 1830 0 2150 0 2458 0 
L 2458 160 
L 2266 160 
C 1715 160 1702 230 1702 458 
L 1702 4058 
z
" transform="scale(0.015625)"/>
       </defs>
       <use xlink:href="#CMSY10-0" transform="scale(0.996264)"/>
       <use xlink:href="#CMR17-30" transform="translate(77.487468 0) scale(0.996264)"/>
       <use xlink:href="#CMMI12-3a" transform="translate(123.177945 0) scale(0.996264)"/>
       <use xlink:href="#CMR17-30" transform="translate(150.275122 0) scale(0.996264)"/>
       <use xlink:href="#CMR17-31" transform="translate(195.965599 0) scale(0.996264)"/>
      </g>
     </g>
    </g>
    <g id="xtick_4">
     <g id="line2d_7">
      <path d="M 216.057916 307.584 
L 216.057916 41.472 
" clip-path="url(#p3b15739551)" style="fill: none; stroke: #b0b0b0; stroke-width: 0.8; stroke-linecap: square"/>
     </g>
     <g id="line2d_8">
      <g>
       <use xlink:href="#m2ca3656e00" x="216.057916" y="307.584" style="stroke: #000000; stroke-width: 0.8"/>
      </g>
     </g>
     <g id="text_4">
      <!-- $\mathdefault{0.00}$ -->
      <g transform="translate(207.202209 321.502498) scale(0.1 -0.1)">
       <use xlink:href="#CMR17-30" transform="scale(0.996264)"/>
       <use xlink:href="#CMMI12-3a" transform="translate(45.690477 0) scale(0.996264)"/>
       <use xlink:href="#CMR17-30" transform="translate(72.787654 0) scale(0.996264)"/>
       <use xlink:href="#CMR17-30" transform="translate(118.478131 0) scale(0.996264)"/>
      </g>
     </g>
    </g>
    <g id="xtick_5">
     <g id="line2d_9">
      <path d="M 260.495483 307.584 
L 260.495483 41.472 
" clip-path="url(#p3b15739551)" style="fill: none; stroke: #b0b0b0; stroke-width: 0.8; stroke-linecap: square"/>
     </g>
     <g id="line2d_10">
      <g>
       <use xlink:href="#m2ca3656e00" x="260.495483" y="307.584" style="stroke: #000000; stroke-width: 0.8"/>
      </g>
     </g>
     <g id="text_5">
      <!-- $\mathdefault{0.01}$ -->
      <g transform="translate(251.639776 321.502498) scale(0.1 -0.1)">
       <use xlink:href="#CMR17-30" transform="scale(0.996264)"/>
       <use xlink:href="#CMMI12-3a" transform="translate(45.690477 0) scale(0.996264)"/>
       <use xlink:href="#CMR17-30" transform="translate(72.787654 0) scale(0.996264)"/>
       <use xlink:href="#CMR17-31" transform="translate(118.478131 0) scale(0.996264)"/>
      </g>
     </g>
    </g>
    <g id="xtick_6">
     <g id="line2d_11">
      <path d="M 304.933049 307.584 
L 304.933049 41.472 
" clip-path="url(#p3b15739551)" style="fill: none; stroke: #b0b0b0; stroke-width: 0.8; stroke-linecap: square"/>
     </g>
     <g id="line2d_12">
      <g>
       <use xlink:href="#m2ca3656e00" x="304.933049" y="307.584" style="stroke: #000000; stroke-width: 0.8"/>
      </g>
     </g>
     <g id="text_6">
      <!-- $\mathdefault{0.02}$ -->
      <g transform="translate(296.077342 321.502498) scale(0.1 -0.1)">
       <use xlink:href="#CMR17-30" transform="scale(0.996264)"/>
       <use xlink:href="#CMMI12-3a" transform="translate(45.690477 0) scale(0.996264)"/>
       <use xlink:href="#CMR17-30" transform="translate(72.787654 0) scale(0.996264)"/>
       <use xlink:href="#CMR17-32" transform="translate(118.478131 0) scale(0.996264)"/>
      </g>
     </g>
    </g>
    <g id="xtick_7">
     <g id="line2d_13">
      <path d="M 349.370616 307.584 
L 349.370616 41.472 
" clip-path="url(#p3b15739551)" style="fill: none; stroke: #b0b0b0; stroke-width: 0.8; stroke-linecap: square"/>
     </g>
     <g id="line2d_14">
      <g>
       <use xlink:href="#m2ca3656e00" x="349.370616" y="307.584" style="stroke: #000000; stroke-width: 0.8"/>
      </g>
     </g>
     <g id="text_7">
      <!-- $\mathdefault{0.03}$ -->
      <g transform="translate(340.514908 321.502498) scale(0.1 -0.1)">
       <use xlink:href="#CMR17-30" transform="scale(0.996264)"/>
       <use xlink:href="#CMMI12-3a" transform="translate(45.690477 0) scale(0.996264)"/>
       <use xlink:href="#CMR17-30" transform="translate(72.787654 0) scale(0.996264)"/>
       <use xlink:href="#CMR17-33" transform="translate(118.478131 0) scale(0.996264)"/>
      </g>
     </g>
    </g>
    <g id="xtick_8">
     <g id="line2d_15">
      <path d="M 393.808182 307.584 
L 393.808182 41.472 
" clip-path="url(#p3b15739551)" style="fill: none; stroke: #b0b0b0; stroke-width: 0.8; stroke-linecap: square"/>
     </g>
     <g id="line2d_16">
      <g>
       <use xlink:href="#m2ca3656e00" x="393.808182" y="307.584" style="stroke: #000000; stroke-width: 0.8"/>
      </g>
     </g>
     <g id="text_8">
      <!-- $\mathdefault{0.04}$ -->
      <g transform="translate(384.952475 321.502498) scale(0.1 -0.1)">
       <defs>
        <path id="CMR17-34" d="M 2150 4122 
C 2150 4256 2144 4256 2029 4256 
L 128 1254 
L 128 1088 
L 1779 1088 
L 1779 457 
C 1779 224 1766 160 1318 160 
L 1197 160 
L 1197 0 
C 1402 0 1747 0 1965 0 
C 2182 0 2528 0 2733 0 
L 2733 160 
L 2611 160 
C 2163 160 2150 224 2150 457 
L 2150 1088 
L 2803 1088 
L 2803 1254 
L 2150 1254 
L 2150 4122 
z
M 1798 3703 
L 1798 1254 
L 256 1254 
L 1798 3703 
z
" transform="scale(0.015625)"/>
       </defs>
       <use xlink:href="#CMR17-30" transform="scale(0.996264)"/>
       <use xlink:href="#CMMI12-3a" transform="translate(45.690477 0) scale(0.996264)"/>
       <use xlink:href="#CMR17-30" transform="translate(72.787654 0) scale(0.996264)"/>
       <use xlink:href="#CMR17-34" transform="translate(118.478131 0) scale(0.996264)"/>
      </g>
     </g>
    </g>
    <g id="text_9">
     <!-- x [m] -->
     <g transform="translate(225.36713 334.911657) scale(0.1 -0.1)">
      <defs>
       <path id="CMSS17-78" d="M 1587 1414 
L 2656 2739 
L 2099 2739 
L 1363 1777 
L 602 2739 
L 32 2739 
L 1139 1414 
L 0 0 
L 563 0 
L 1363 1121 
L 2195 0 
L 2758 0 
L 1587 1414 
z
" transform="scale(0.015625)"/>
       <path id="CMSS17-5b" d="M 1613 -1600 
L 1613 -1212 
L 1062 -1212 
L 1062 4352 
L 1613 4352 
L 1613 4741 
L 595 4741 
L 595 -1600 
L 1613 -1600 
z
" transform="scale(0.015625)"/>
       <path id="CMSS17-6d" d="M 4288 1877 
C 4288 2308 4179 2816 3462 2816 
C 2982 2816 2694 2516 2566 2331 
C 2451 2670 2182 2816 1798 2816 
C 1363 2816 1088 2568 941 2389 
L 941 2758 
L 474 2758 
L 474 0 
L 960 0 
L 960 1559 
C 960 1939 1101 2428 1555 2428 
C 2138 2428 2138 2016 2138 1829 
L 2138 0 
L 2624 0 
L 2624 1559 
C 2624 1939 2765 2428 3219 2428 
C 3802 2428 3802 2016 3802 1829 
L 3802 0 
L 4288 0 
L 4288 1877 
z
" transform="scale(0.015625)"/>
       <path id="CMSS17-5d" d="M 1146 4741 
L 128 4741 
L 128 4352 
L 678 4352 
L 678 -1212 
L 128 -1212 
L 128 -1600 
L 1146 -1600 
L 1146 4741 
z
" transform="scale(0.015625)"/>
      </defs>
      <use xlink:href="#CMSS17-78" transform="scale(0.996264)"/>
      <use xlink:href="#CMSS17-5b" transform="translate(74.229254 0) scale(0.996264)"/>
      <use xlink:href="#CMSS17-6d" transform="translate(101.414693 0) scale(0.996264)"/>
      <use xlink:href="#CMSS17-5d" transform="translate(175.643948 0) scale(0.996264)"/>
     </g>
    </g>
   </g>
   <g id="matplotlib.axis_2">
    <g id="ytick_1">
     <g id="line2d_17">
      <path d="M 57.6 284.780406 
L 414.72 284.780406 
" clip-path="url(#p3b15739551)" style="fill: none; stroke: #b0b0b0; stroke-width: 0.8; stroke-linecap: square"/>
     </g>
     <g id="line2d_18">
      <defs>
       <path id="md54fa0b425" d="M 0 0 
L -3.5 0 
" style="stroke: #000000; stroke-width: 0.8"/>
      </defs>
      <g>
       <use xlink:href="#md54fa0b425" x="57.6" y="284.780406" style="stroke: #000000; stroke-width: 0.8"/>
      </g>
     </g>
     <g id="text_10">
      <!-- $\mathdefault{−0.020}$ -->
      <g transform="translate(20.158507 288.239656) scale(0.1 -0.1)">
       <use xlink:href="#CMSY10-0" transform="scale(0.996264)"/>
       <use xlink:href="#CMR17-30" transform="translate(77.487468 0) scale(0.996264)"/>
       <use xlink:href="#CMMI12-3a" transform="translate(123.177945 0) scale(0.996264)"/>
       <use xlink:href="#CMR17-30" transform="translate(150.275122 0) scale(0.996264)"/>
       <use xlink:href="#CMR17-32" transform="translate(195.965599 0) scale(0.996264)"/>
       <use xlink:href="#CMR17-30" transform="translate(241.656076 0) scale(0.996264)"/>
      </g>
     </g>
    </g>
    <g id="ytick_2">
     <g id="line2d_19">
      <path d="M 57.6 254.13631 
L 414.72 254.13631 
" clip-path="url(#p3b15739551)" style="fill: none; stroke: #b0b0b0; stroke-width: 0.8; stroke-linecap: square"/>
     </g>
     <g id="line2d_20">
      <g>
       <use xlink:href="#md54fa0b425" x="57.6" y="254.13631" style="stroke: #000000; stroke-width: 0.8"/>
      </g>
     </g>
     <g id="text_11">
      <!-- $\mathdefault{−0.015}$ -->
      <g transform="translate(20.158507 257.595559) scale(0.1 -0.1)">
       <defs>
        <path id="CMR17-35" d="M 730 3692 
C 794 3666 1056 3584 1325 3584 
C 1920 3584 2246 3911 2432 4100 
C 2432 4157 2432 4192 2394 4192 
C 2387 4192 2374 4192 2323 4163 
C 2099 4058 1837 3973 1517 3973 
C 1325 3973 1037 3999 723 4139 
C 653 4171 640 4171 634 4171 
C 602 4171 595 4164 595 4037 
L 595 2203 
C 595 2089 595 2057 659 2057 
C 691 2057 704 2070 736 2114 
C 941 2401 1222 2522 1542 2522 
C 1766 2522 2246 2382 2246 1289 
C 2246 1085 2246 715 2054 421 
C 1894 159 1645 25 1370 25 
C 947 25 518 320 403 814 
C 429 807 480 795 506 795 
C 589 795 749 840 749 1038 
C 749 1210 627 1280 506 1280 
C 358 1280 262 1190 262 1011 
C 262 454 704 -128 1382 -128 
C 2042 -128 2669 440 2669 1264 
C 2669 2030 2170 2624 1549 2624 
C 1222 2624 947 2503 730 2274 
L 730 3692 
z
" transform="scale(0.015625)"/>
       </defs>
       <use xlink:href="#CMSY10-0" transform="scale(0.996264)"/>
       <use xlink:href="#CMR17-30" transform="translate(77.487468 0) scale(0.996264)"/>
       <use xlink:href="#CMMI12-3a" transform="translate(123.177945 0) scale(0.996264)"/>
       <use xlink:href="#CMR17-30" transform="translate(150.275122 0) scale(0.996264)"/>
       <use xlink:href="#CMR17-31" transform="translate(195.965599 0) scale(0.996264)"/>
       <use xlink:href="#CMR17-35" transform="translate(241.656076 0) scale(0.996264)"/>
      </g>
     </g>
    </g>
    <g id="ytick_3">
     <g id="line2d_21">
      <path d="M 57.6 223.492213 
L 414.72 223.492213 
" clip-path="url(#p3b15739551)" style="fill: none; stroke: #b0b0b0; stroke-width: 0.8; stroke-linecap: square"/>
     </g>
     <g id="line2d_22">
      <g>
       <use xlink:href="#md54fa0b425" x="57.6" y="223.492213" style="stroke: #000000; stroke-width: 0.8"/>
      </g>
     </g>
     <g id="text_12">
      <!-- $\mathdefault{−0.010}$ -->
      <g transform="translate(20.158507 226.951463) scale(0.1 -0.1)">
       <use xlink:href="#CMSY10-0" transform="scale(0.996264)"/>
       <use xlink:href="#CMR17-30" transform="translate(77.487468 0) scale(0.996264)"/>
       <use xlink:href="#CMMI12-3a" transform="translate(123.177945 0) scale(0.996264)"/>
       <use xlink:href="#CMR17-30" transform="translate(150.275122 0) scale(0.996264)"/>
       <use xlink:href="#CMR17-31" transform="translate(195.965599 0) scale(0.996264)"/>
       <use xlink:href="#CMR17-30" transform="translate(241.656076 0) scale(0.996264)"/>
      </g>
     </g>
    </g>
    <g id="ytick_4">
     <g id="line2d_23">
      <path d="M 57.6 192.848117 
L 414.72 192.848117 
" clip-path="url(#p3b15739551)" style="fill: none; stroke: #b0b0b0; stroke-width: 0.8; stroke-linecap: square"/>
     </g>
     <g id="line2d_24">
      <g>
       <use xlink:href="#md54fa0b425" x="57.6" y="192.848117" style="stroke: #000000; stroke-width: 0.8"/>
      </g>
     </g>
     <g id="text_13">
      <!-- $\mathdefault{−0.005}$ -->
      <g transform="translate(20.158507 196.307366) scale(0.1 -0.1)">
       <use xlink:href="#CMSY10-0" transform="scale(0.996264)"/>
       <use xlink:href="#CMR17-30" transform="translate(77.487468 0) scale(0.996264)"/>
       <use xlink:href="#CMMI12-3a" transform="translate(123.177945 0) scale(0.996264)"/>
       <use xlink:href="#CMR17-30" transform="translate(150.275122 0) scale(0.996264)"/>
       <use xlink:href="#CMR17-30" transform="translate(195.965599 0) scale(0.996264)"/>
       <use xlink:href="#CMR17-35" transform="translate(241.656076 0) scale(0.996264)"/>
      </g>
     </g>
    </g>
    <g id="ytick_5">
     <g id="line2d_25">
      <path d="M 57.6 162.204021 
L 414.72 162.204021 
" clip-path="url(#p3b15739551)" style="fill: none; stroke: #b0b0b0; stroke-width: 0.8; stroke-linecap: square"/>
     </g>
     <g id="line2d_26">
      <g>
       <use xlink:href="#md54fa0b425" x="57.6" y="162.204021" style="stroke: #000000; stroke-width: 0.8"/>
      </g>
     </g>
     <g id="text_14">
      <!-- $\mathdefault{0.000}$ -->
      <g transform="translate(27.907251 165.66327) scale(0.1 -0.1)">
       <use xlink:href="#CMR17-30" transform="scale(0.996264)"/>
       <use xlink:href="#CMMI12-3a" transform="translate(45.690477 0) scale(0.996264)"/>
       <use xlink:href="#CMR17-30" transform="translate(72.787654 0) scale(0.996264)"/>
       <use xlink:href="#CMR17-30" transform="translate(118.478131 0) scale(0.996264)"/>
       <use xlink:href="#CMR17-30" transform="translate(164.168608 0) scale(0.996264)"/>
      </g>
     </g>
    </g>
    <g id="ytick_6">
     <g id="line2d_27">
      <path d="M 57.6 131.559924 
L 414.72 131.559924 
" clip-path="url(#p3b15739551)" style="fill: none; stroke: #b0b0b0; stroke-width: 0.8; stroke-linecap: square"/>
     </g>
     <g id="line2d_28">
      <g>
       <use xlink:href="#md54fa0b425" x="57.6" y="131.559924" style="stroke: #000000; stroke-width: 0.8"/>
      </g>
     </g>
     <g id="text_15">
      <!-- $\mathdefault{0.005}$ -->
      <g transform="translate(27.907251 135.019173) scale(0.1 -0.1)">
       <use xlink:href="#CMR17-30" transform="scale(0.996264)"/>
       <use xlink:href="#CMMI12-3a" transform="translate(45.690477 0) scale(0.996264)"/>
       <use xlink:href="#CMR17-30" transform="translate(72.787654 0) scale(0.996264)"/>
       <use xlink:href="#CMR17-30" transform="translate(118.478131 0) scale(0.996264)"/>
       <use xlink:href="#CMR17-35" transform="translate(164.168608 0) scale(0.996264)"/>
      </g>
     </g>
    </g>
    <g id="ytick_7">
     <g id="line2d_29">
      <path d="M 57.6 100.915828 
L 414.72 100.915828 
" clip-path="url(#p3b15739551)" style="fill: none; stroke: #b0b0b0; stroke-width: 0.8; stroke-linecap: square"/>
     </g>
     <g id="line2d_30">
      <g>
       <use xlink:href="#md54fa0b425" x="57.6" y="100.915828" style="stroke: #000000; stroke-width: 0.8"/>
      </g>
     </g>
     <g id="text_16">
      <!-- $\mathdefault{0.010}$ -->
      <g transform="translate(27.907251 104.375077) scale(0.1 -0.1)">
       <use xlink:href="#CMR17-30" transform="scale(0.996264)"/>
       <use xlink:href="#CMMI12-3a" transform="translate(45.690477 0) scale(0.996264)"/>
       <use xlink:href="#CMR17-30" transform="translate(72.787654 0) scale(0.996264)"/>
       <use xlink:href="#CMR17-31" transform="translate(118.478131 0) scale(0.996264)"/>
       <use xlink:href="#CMR17-30" transform="translate(164.168608 0) scale(0.996264)"/>
      </g>
     </g>
    </g>
    <g id="ytick_8">
     <g id="line2d_31">
      <path d="M 57.6 70.271731 
L 414.72 70.271731 
" clip-path="url(#p3b15739551)" style="fill: none; stroke: #b0b0b0; stroke-width: 0.8; stroke-linecap: square"/>
     </g>
     <g id="line2d_32">
      <g>
       <use xlink:href="#md54fa0b425" x="57.6" y="70.271731" style="stroke: #000000; stroke-width: 0.8"/>
      </g>
     </g>
     <g id="text_17">
      <!-- $\mathdefault{0.015}$ -->
      <g transform="translate(27.907251 73.730981) scale(0.1 -0.1)">
       <use xlink:href="#CMR17-30" transform="scale(0.996264)"/>
       <use xlink:href="#CMMI12-3a" transform="translate(45.690477 0) scale(0.996264)"/>
       <use xlink:href="#CMR17-30" transform="translate(72.787654 0) scale(0.996264)"/>
       <use xlink:href="#CMR17-31" transform="translate(118.478131 0) scale(0.996264)"/>
       <use xlink:href="#CMR17-35" transform="translate(164.168608 0) scale(0.996264)"/>
      </g>
     </g>
    </g>
    <g id="text_18">
     <!-- y [m] -->
     <g transform="translate(13.667847 185.32087) rotate(-90) scale(0.1 -0.1)">
      <defs>
       <path id="CMSS17-79" d="M 2675 2752 
L 2176 2752 
C 1632 1294 1446 702 1434 383 
L 1427 383 
C 1408 696 1126 1460 902 2007 
L 602 2752 
L 83 2752 
L 1216 13 
C 1146 -178 1043 -465 1011 -529 
C 870 -885 774 -885 672 -885 
C 646 -885 442 -885 211 -809 
L 250 -1229 
C 410 -1261 570 -1280 685 -1280 
C 845 -1280 1165 -1280 1459 -497 
L 2675 2752 
z
" transform="scale(0.015625)"/>
      </defs>
      <use xlink:href="#CMSS17-79" transform="scale(0.996264)"/>
      <use xlink:href="#CMSS17-5b" transform="translate(74.229254 0) scale(0.996264)"/>
      <use xlink:href="#CMSS17-6d" transform="translate(101.414693 0) scale(0.996264)"/>
      <use xlink:href="#CMSS17-5d" transform="translate(175.643948 0) scale(0.996264)"/>
     </g>
    </g>
   </g>
   <g id="line2d_33">
    <path d="M 209.844381 178.467288 
L 209.896475 176.461379 
L 210.362761 174.424979 
L 211.235885 172.390204 
L 212.502077 170.389143 
L 214.141369 168.453355 
L 216.127907 166.613367 
L 218.430364 164.898198 
L 221.012428 163.334896 
L 223.833378 161.948117 
L 226.848726 160.75973 
L 230.010918 159.788476 
L 233.270085 159.049674 
L 236.574828 158.554974 
L 239.873029 158.312178 
L 243.112673 158.325115 
L 246.242669 158.593582 
L 249.213656 159.113344 
L 251.978778 159.876204 
L 254.494429 160.870132 
L 256.720935 162.079453 
L 258.623183 163.485094 
L 260.171173 165.064889 
L 261.340493 166.793923 
L 262.112701 168.644927 
L 262.475619 170.588712 
L 262.423525 172.594621 
L 261.957239 174.631021 
L 261.084115 176.665796 
L 259.817923 178.666857 
L 258.178631 180.602645 
L 256.192093 182.442633 
L 253.889636 184.157802 
L 251.307572 185.721104 
L 248.486622 187.107883 
L 245.471274 188.29627 
L 242.309082 189.267524 
L 239.049915 190.006326 
L 235.745172 190.501026 
L 232.446971 190.743822 
L 229.207327 190.730885 
L 226.077331 190.462418 
L 223.106344 189.942656 
L 220.341222 189.179796 
L 217.825571 188.185868 
L 215.599065 186.976547 
L 213.696817 185.570906 
L 212.148827 183.991111 
L 210.979507 182.262077 
L 210.207299 180.411073 
L 209.844381 178.467288 
" clip-path="url(#p3b15739551)" style="fill: none; stroke: #0000ff; stroke-width: 1.5; stroke-linecap: square"/>
   </g>
   <g id="line2d_34">
    <path d="M 90.585649 179.492284 
L 91.632408 173.811635 
L 94.958454 168.142284 
L 100.511333 162.573639 
L 108.203472 157.193521 
L 117.913562 152.086778 
L 129.488469 147.333947 
L 142.745649 143.009983 
L 157.47603 139.183076 
L 173.447304 135.91358 
L 190.407595 133.253057 
L 208.089429 131.243464 
L 226.213952 129.916494 
L 244.49533 129.293074 
L 262.645255 129.383035 
L 280.377492 130.18496 
L 297.412393 131.686201 
L 313.481307 133.863083 
L 328.330817 136.681275 
L 341.726739 140.096333 
L 353.45781 144.054398 
L 363.339025 148.49305 
L 371.21455 153.342289 
L 376.960185 158.525639 
L 380.485316 163.961356 
L 381.734351 169.563716 
L 380.687592 175.244365 
L 377.361546 180.913716 
L 371.808667 186.482361 
L 364.116528 191.862479 
L 354.406438 196.969222 
L 342.831531 201.722053 
L 329.574351 206.046017 
L 314.84397 209.872924 
L 298.872696 213.14242 
L 281.912405 215.802943 
L 264.230571 217.812536 
L 246.106048 219.139506 
L 227.82467 219.762926 
L 209.674745 219.672965 
L 191.942508 218.87104 
L 174.907607 217.369799 
L 158.838693 215.192917 
L 143.989183 212.374725 
L 130.593261 208.959667 
L 118.86219 205.001602 
L 108.980975 200.56295 
L 101.10545 195.713711 
L 95.359815 190.530361 
L 91.834684 185.094644 
L 90.585649 179.492284 
" clip-path="url(#p3b15739551)" style="fill: none; stroke: #008000; stroke-width: 1.5; stroke-linecap: square"/>
   </g>
   <g id="line2d_35">
    <defs>
     <path id="mc8b87862cb" d="M 0 1.5 
C 0.397805 1.5 0.77937 1.341951 1.06066 1.06066 
C 1.341951 0.77937 1.5 0.397805 1.5 0 
C 1.5 -0.397805 1.341951 -0.77937 1.06066 -1.06066 
C 0.77937 -1.341951 0.397805 -1.5 0 -1.5 
C -0.397805 -1.5 -0.77937 -1.341951 -1.06066 -1.06066 
C -1.341951 -0.77937 -1.5 -0.397805 -1.5 0 
C -1.5 0.397805 -1.341951 0.77937 -1.06066 1.06066 
C -0.77937 1.341951 -0.397805 1.5 0 1.5 
z
" style="stroke: #ff0000"/>
    </defs>
    <g clip-path="url(#p3b15739551)">
     <use xlink:href="#mc8b87862cb" x="171.808668" y="147.254927" style="fill: #ff0000; stroke: #ff0000"/>
     <use xlink:href="#mc8b87862cb" x="243.193987" y="186.905805" style="fill: #ff0000; stroke: #ff0000"/>
     <use xlink:href="#mc8b87862cb" x="253.128268" y="217.036096" style="fill: #ff0000; stroke: #ff0000"/>
     <use xlink:href="#mc8b87862cb" x="152.425133" y="170.434426" style="fill: #ff0000; stroke: #ff0000"/>
     <use xlink:href="#mc8b87862cb" x="290.123283" y="176.279806" style="fill: #ff0000; stroke: #ff0000"/>
     <use xlink:href="#mc8b87862cb" x="307.384285" y="179.018556" style="fill: #ff0000; stroke: #ff0000"/>
     <use xlink:href="#mc8b87862cb" x="179.467754" y="168.8486" style="fill: #ff0000; stroke: #ff0000"/>
     <use xlink:href="#mc8b87862cb" x="246.517195" y="235.455213" style="fill: #ff0000; stroke: #ff0000"/>
     <use xlink:href="#mc8b87862cb" x="142.364703" y="167.9509" style="fill: #ff0000; stroke: #ff0000"/>
     <use xlink:href="#mc8b87862cb" x="208.460388" y="184.094426" style="fill: #ff0000; stroke: #ff0000"/>
     <use xlink:href="#mc8b87862cb" x="136.700291" y="141.168525" style="fill: #ff0000; stroke: #ff0000"/>
     <use xlink:href="#mc8b87862cb" x="213.325587" y="215.780083" style="fill: #ff0000; stroke: #ff0000"/>
     <use xlink:href="#mc8b87862cb" x="208.789566" y="166.364491" style="fill: #ff0000; stroke: #ff0000"/>
     <use xlink:href="#mc8b87862cb" x="218.863324" y="200.71161" style="fill: #ff0000; stroke: #ff0000"/>
     <use xlink:href="#mc8b87862cb" x="253.484383" y="179.633865" style="fill: #ff0000; stroke: #ff0000"/>
     <use xlink:href="#mc8b87862cb" x="227.328108" y="192.522091" style="fill: #ff0000; stroke: #ff0000"/>
     <use xlink:href="#mc8b87862cb" x="237.459301" y="241.894657" style="fill: #ff0000; stroke: #ff0000"/>
     <use xlink:href="#mc8b87862cb" x="216.546068" y="86.153883" style="fill: #ff0000; stroke: #ff0000"/>
     <use xlink:href="#mc8b87862cb" x="214.883091" y="234.693588" style="fill: #ff0000; stroke: #ff0000"/>
     <use xlink:href="#mc8b87862cb" x="230.320566" y="154.103516" style="fill: #ff0000; stroke: #ff0000"/>
     <use xlink:href="#mc8b87862cb" x="289.605916" y="155.358434" style="fill: #ff0000; stroke: #ff0000"/>
     <use xlink:href="#mc8b87862cb" x="247.647727" y="139.275885" style="fill: #ff0000; stroke: #ff0000"/>
     <use xlink:href="#mc8b87862cb" x="293.033019" y="180.082475" style="fill: #ff0000; stroke: #ff0000"/>
     <use xlink:href="#mc8b87862cb" x="218.706507" y="136.16982" style="fill: #ff0000; stroke: #ff0000"/>
     <use xlink:href="#mc8b87862cb" x="287.263044" y="179.925691" style="fill: #ff0000; stroke: #ff0000"/>
     <use xlink:href="#mc8b87862cb" x="199.88146" y="142.539215" style="fill: #ff0000; stroke: #ff0000"/>
     <use xlink:href="#mc8b87862cb" x="263.24004" y="188.841846" style="fill: #ff0000; stroke: #ff0000"/>
     <use xlink:href="#mc8b87862cb" x="244.826261" y="194.10101" style="fill: #ff0000; stroke: #ff0000"/>
     <use xlink:href="#mc8b87862cb" x="184.177452" y="183.934713" style="fill: #ff0000; stroke: #ff0000"/>
     <use xlink:href="#mc8b87862cb" x="216.638917" y="253.789028" style="fill: #ff0000; stroke: #ff0000"/>
     <use xlink:href="#mc8b87862cb" x="295.903849" y="179.117967" style="fill: #ff0000; stroke: #ff0000"/>
     <use xlink:href="#mc8b87862cb" x="125.396194" y="106.485334" style="fill: #ff0000; stroke: #ff0000"/>
     <use xlink:href="#mc8b87862cb" x="135.414126" y="120.892875" style="fill: #ff0000; stroke: #ff0000"/>
     <use xlink:href="#mc8b87862cb" x="367.469793" y="175.638926" style="fill: #ff0000; stroke: #ff0000"/>
     <use xlink:href="#mc8b87862cb" x="283.856298" y="177.113598" style="fill: #ff0000; stroke: #ff0000"/>
     <use xlink:href="#mc8b87862cb" x="188.511742" y="169.408081" style="fill: #ff0000; stroke: #ff0000"/>
     <use xlink:href="#mc8b87862cb" x="313.415811" y="184.788293" style="fill: #ff0000; stroke: #ff0000"/>
     <use xlink:href="#mc8b87862cb" x="342.73552" y="144.328803" style="fill: #ff0000; stroke: #ff0000"/>
     <use xlink:href="#mc8b87862cb" x="295.155932" y="132.872723" style="fill: #ff0000; stroke: #ff0000"/>
     <use xlink:href="#mc8b87862cb" x="158.80503" y="229.591191" style="fill: #ff0000; stroke: #ff0000"/>
     <use xlink:href="#mc8b87862cb" x="285.680353" y="114.405453" style="fill: #ff0000; stroke: #ff0000"/>
     <use xlink:href="#mc8b87862cb" x="239.071327" y="182.344203" style="fill: #ff0000; stroke: #ff0000"/>
     <use xlink:href="#mc8b87862cb" x="175.555618" y="205.157326" style="fill: #ff0000; stroke: #ff0000"/>
     <use xlink:href="#mc8b87862cb" x="111.796657" y="167.345669" style="fill: #ff0000; stroke: #ff0000"/>
     <use xlink:href="#mc8b87862cb" x="205.845659" y="118.880536" style="fill: #ff0000; stroke: #ff0000"/>
     <use xlink:href="#mc8b87862cb" x="166.830048" y="129.895692" style="fill: #ff0000; stroke: #ff0000"/>
     <use xlink:href="#mc8b87862cb" x="238.921602" y="161.667655" style="fill: #ff0000; stroke: #ff0000"/>
     <use xlink:href="#mc8b87862cb" x="224.078814" y="148.229757" style="fill: #ff0000; stroke: #ff0000"/>
     <use xlink:href="#mc8b87862cb" x="258.385959" y="141.448087" style="fill: #ff0000; stroke: #ff0000"/>
     <use xlink:href="#mc8b87862cb" x="302.769084" y="162.158154" style="fill: #ff0000; stroke: #ff0000"/>
     <use xlink:href="#mc8b87862cb" x="199.781115" y="145.020146" style="fill: #ff0000; stroke: #ff0000"/>
     <use xlink:href="#mc8b87862cb" x="251.645562" y="155.858984" style="fill: #ff0000; stroke: #ff0000"/>
     <use xlink:href="#mc8b87862cb" x="316.505335" y="178.205127" style="fill: #ff0000; stroke: #ff0000"/>
     <use xlink:href="#mc8b87862cb" x="209.372908" y="134.939955" style="fill: #ff0000; stroke: #ff0000"/>
     <use xlink:href="#mc8b87862cb" x="218.478614" y="68.66252" style="fill: #ff0000; stroke: #ff0000"/>
     <use xlink:href="#mc8b87862cb" x="225.061569" y="179.994857" style="fill: #ff0000; stroke: #ff0000"/>
     <use xlink:href="#mc8b87862cb" x="257.473802" y="127.514089" style="fill: #ff0000; stroke: #ff0000"/>
     <use xlink:href="#mc8b87862cb" x="336.127335" y="201.601935" style="fill: #ff0000; stroke: #ff0000"/>
     <use xlink:href="#mc8b87862cb" x="208.410722" y="182.658944" style="fill: #ff0000; stroke: #ff0000"/>
     <use xlink:href="#mc8b87862cb" x="238.875819" y="212.767491" style="fill: #ff0000; stroke: #ff0000"/>
     <use xlink:href="#mc8b87862cb" x="314.894218" y="182.929673" style="fill: #ff0000; stroke: #ff0000"/>
     <use xlink:href="#mc8b87862cb" x="215.643126" y="171.121366" style="fill: #ff0000; stroke: #ff0000"/>
     <use xlink:href="#mc8b87862cb" x="264.962994" y="136.878692" style="fill: #ff0000; stroke: #ff0000"/>
     <use xlink:href="#mc8b87862cb" x="269.292608" y="212.867957" style="fill: #ff0000; stroke: #ff0000"/>
     <use xlink:href="#mc8b87862cb" x="110.998486" y="155.290652" style="fill: #ff0000; stroke: #ff0000"/>
     <use xlink:href="#mc8b87862cb" x="270.473869" y="273.116313" style="fill: #ff0000; stroke: #ff0000"/>
     <use xlink:href="#mc8b87862cb" x="158.060602" y="226.830194" style="fill: #ff0000; stroke: #ff0000"/>
     <use xlink:href="#mc8b87862cb" x="286.968309" y="215.835905" style="fill: #ff0000; stroke: #ff0000"/>
     <use xlink:href="#mc8b87862cb" x="285.326992" y="161.818178" style="fill: #ff0000; stroke: #ff0000"/>
     <use xlink:href="#mc8b87862cb" x="247.758884" y="190.505472" style="fill: #ff0000; stroke: #ff0000"/>
     <use xlink:href="#mc8b87862cb" x="280.061785" y="273.363888" style="fill: #ff0000; stroke: #ff0000"/>
     <use xlink:href="#mc8b87862cb" x="319.463941" y="134.124759" style="fill: #ff0000; stroke: #ff0000"/>
     <use xlink:href="#mc8b87862cb" x="213.488205" y="168.87864" style="fill: #ff0000; stroke: #ff0000"/>
     <use xlink:href="#mc8b87862cb" x="277.638777" y="185.798125" style="fill: #ff0000; stroke: #ff0000"/>
     <use xlink:href="#mc8b87862cb" x="246.088125" y="161.404188" style="fill: #ff0000; stroke: #ff0000"/>
     <use xlink:href="#mc8b87862cb" x="217.932379" y="199.438221" style="fill: #ff0000; stroke: #ff0000"/>
     <use xlink:href="#mc8b87862cb" x="270.693593" y="204.530854" style="fill: #ff0000; stroke: #ff0000"/>
     <use xlink:href="#mc8b87862cb" x="315.651196" y="123.086259" style="fill: #ff0000; stroke: #ff0000"/>
     <use xlink:href="#mc8b87862cb" x="251.670279" y="251.047165" style="fill: #ff0000; stroke: #ff0000"/>
     <use xlink:href="#mc8b87862cb" x="229.198837" y="276.23867" style="fill: #ff0000; stroke: #ff0000"/>
     <use xlink:href="#mc8b87862cb" x="209.357979" y="225.510707" style="fill: #ff0000; stroke: #ff0000"/>
     <use xlink:href="#mc8b87862cb" x="209.179897" y="216.067107" style="fill: #ff0000; stroke: #ff0000"/>
     <use xlink:href="#mc8b87862cb" x="218.157616" y="121.460821" style="fill: #ff0000; stroke: #ff0000"/>
     <use xlink:href="#mc8b87862cb" x="251.130123" y="161.937459" style="fill: #ff0000; stroke: #ff0000"/>
     <use xlink:href="#mc8b87862cb" x="363.605108" y="172.416482" style="fill: #ff0000; stroke: #ff0000"/>
     <use xlink:href="#mc8b87862cb" x="263.444139" y="198.039722" style="fill: #ff0000; stroke: #ff0000"/>
     <use xlink:href="#mc8b87862cb" x="130.397237" y="189.793865" style="fill: #ff0000; stroke: #ff0000"/>
     <use xlink:href="#mc8b87862cb" x="249.163638" y="193.43807" style="fill: #ff0000; stroke: #ff0000"/>
     <use xlink:href="#mc8b87862cb" x="218.192635" y="168.436585" style="fill: #ff0000; stroke: #ff0000"/>
     <use xlink:href="#mc8b87862cb" x="181.493777" y="128.329546" style="fill: #ff0000; stroke: #ff0000"/>
     <use xlink:href="#mc8b87862cb" x="231.661376" y="219.069456" style="fill: #ff0000; stroke: #ff0000"/>
     <use xlink:href="#mc8b87862cb" x="221.187089" y="123.044582" style="fill: #ff0000; stroke: #ff0000"/>
     <use xlink:href="#mc8b87862cb" x="255.036627" y="175.245166" style="fill: #ff0000; stroke: #ff0000"/>
     <use xlink:href="#mc8b87862cb" x="208.905458" y="144.896435" style="fill: #ff0000; stroke: #ff0000"/>
     <use xlink:href="#mc8b87862cb" x="286.953169" y="200.713699" style="fill: #ff0000; stroke: #ff0000"/>
     <use xlink:href="#mc8b87862cb" x="192.276952" y="183.582149" style="fill: #ff0000; stroke: #ff0000"/>
     <use xlink:href="#mc8b87862cb" x="280.00994" y="132.761491" style="fill: #ff0000; stroke: #ff0000"/>
     <use xlink:href="#mc8b87862cb" x="233.925916" y="155.313612" style="fill: #ff0000; stroke: #ff0000"/>
     <use xlink:href="#mc8b87862cb" x="201.823276" y="201.807377" style="fill: #ff0000; stroke: #ff0000"/>
     <use xlink:href="#mc8b87862cb" x="183.738343" y="180.111986" style="fill: #ff0000; stroke: #ff0000"/>
    </g>
   </g>
   <g id="line2d_36">
    <path d="M 73.832727 157.144941 
L 75.958192 142.263935 
L 80.610135 127.891753 
L 87.715192 114.255052 
L 97.161312 101.568892 
L 108.799525 90.03334 
L 122.446289 79.83032 
L 137.886385 71.120738 
L 154.876316 64.041951 
L 173.148138 58.705595 
L 192.413695 55.195828 
L 212.369158 53.568 
L 232.699816 53.847784 
L 253.085044 56.030766 
L 273.203354 60.082521 
L 292.737467 65.939149 
L 311.379321 73.508289 
L 328.83492 82.67057 
L 344.828981 93.281497 
L 359.109267 105.17373 
L 371.45057 118.159721 
L 381.658259 132.034674 
L 389.571354 146.579772 
L 395.065061 161.56563 
L 398.052739 176.755913 
L 398.487273 191.911059 
L 396.361808 206.792065 
L 391.709865 221.164247 
L 384.604808 234.800948 
L 375.158688 247.487108 
L 363.520475 259.02266 
L 349.873711 269.22568 
L 334.433615 277.935262 
L 317.443684 285.014049 
L 299.171862 290.350405 
L 279.906305 293.860172 
L 259.950842 295.488 
L 239.620184 295.208216 
L 219.234956 293.025234 
L 199.116646 288.973479 
L 179.582533 283.116851 
L 160.940679 275.547711 
L 143.48508 266.38543 
L 127.491019 255.774503 
L 113.210733 243.88227 
L 100.86943 230.896279 
L 90.661741 217.021326 
L 82.748646 202.476228 
L 77.254939 187.49037 
L 74.267261 172.300087 
L 73.832727 157.144941 
" clip-path="url(#p3b15739551)" style="fill: none; stroke: #ff0000; stroke-width: 1.5; stroke-linecap: square"/>
   </g>
   <g id="patch_6">
    <path d="M 57.6 307.584 
L 57.6 41.472 
" style="fill: none; stroke: #000000; stroke-width: 0.8; stroke-linejoin: miter; stroke-linecap: square"/>
   </g>
   <g id="patch_7">
    <path d="M 414.72 307.584 
L 414.72 41.472 
" style="fill: none; stroke: #000000; stroke-width: 0.8; stroke-linejoin: miter; stroke-linecap: square"/>
   </g>
   <g id="patch_8">
    <path d="M 57.6 307.584 
L 414.72 307.584 
" style="fill: none; stroke: #000000; stroke-width: 0.8; stroke-linejoin: miter; stroke-linecap: square"/>
   </g>
   <g id="patch_9">
    <path d="M 57.6 41.472 
L 414.72 41.472 
" style="fill: none; stroke: #000000; stroke-width: 0.8; stroke-linejoin: miter; stroke-linecap: square"/>
   </g>
   <g id="legend_1">
    <g id="patch_10">
     <path d="M 298.962583 105.220713 
L 407.72 105.220713 
Q 409.72 105.220713 409.72 103.220713 
L 409.72 48.472 
Q 409.72 46.472 407.72 46.472 
L 298.962583 46.472 
Q 296.962583 46.472 296.962583 48.472 
L 296.962583 103.220713 
Q 296.962583 105.220713 298.962583 105.220713 
z
" style="fill: #ffffff; opacity: 0.8; stroke: #cccccc; stroke-linejoin: miter"/>
    </g>
    <g id="line2d_37">
     <path d="M 300.962583 53.972 
L 310.962583 53.972 
L 320.962583 53.972 
" style="fill: none; stroke: #0000ff; stroke-width: 1.5; stroke-linecap: square"/>
    </g>
    <g id="text_19">
     <!-- Censi's cov $3\sigma$. -->
     <g transform="translate(328.962583 57.472) scale(0.1 -0.1)">
      <defs>
       <path id="CMSS17-43" d="M 3501 714 
C 3072 427 2874 344 2355 344 
C 1459 344 934 1303 934 2179 
C 934 3112 1472 4032 2381 4032 
C 2790 4032 3059 3918 3386 3715 
L 3475 4217 
C 3168 4370 2778 4440 2387 4440 
C 1158 4440 397 3316 397 2179 
C 397 927 1299 -64 2323 -64 
C 2874 -64 3066 -19 3539 280 
L 3501 714 
z
" transform="scale(0.015625)"/>
       <path id="CMSS17-65" d="M 2502 1377 
C 2502 1590 2490 2003 2285 2345 
C 2061 2713 1696 2816 1421 2816 
C 755 2816 192 2188 192 1375 
C 192 582 774 -64 1510 -64 
C 1798 -64 2150 19 2470 248 
C 2470 274 2458 414 2451 420 
C 2451 433 2432 630 2432 656 
C 2125 407 1773 325 1517 325 
C 1107 325 666 667 646 1377 
L 2502 1377 
z
M 698 1728 
C 781 2084 1062 2421 1421 2421 
C 1517 2421 1965 2421 2080 1728 
L 698 1728 
z
" transform="scale(0.015625)"/>
       <path id="CMSS17-6e" d="M 2618 1877 
C 2618 2283 2522 2816 1798 2816 
C 1389 2816 1120 2606 941 2389 
L 941 2758 
L 474 2758 
L 474 0 
L 960 0 
L 960 1559 
C 960 1964 1114 2428 1549 2428 
C 2112 2428 2131 2048 2131 1829 
L 2131 0 
L 2618 0 
L 2618 1877 
z
" transform="scale(0.015625)"/>
       <path id="CMSS17-73" d="M 2061 2627 
C 1683 2807 1389 2807 1197 2807 
C 742 2807 198 2648 198 2003 
C 198 1359 902 1218 1094 1179 
C 1389 1122 1715 1058 1715 740 
C 1715 337 1254 337 1171 337 
C 915 337 563 407 243 638 
L 166 210 
C 531 0 883 -64 1178 -64 
C 1965 -64 2163 416 2163 781 
C 2163 1094 1984 1305 1862 1401 
C 1651 1568 1574 1587 1050 1696 
C 960 1709 646 1779 646 2066 
C 646 2432 1050 2432 1139 2432 
C 1555 2432 1811 2303 1984 2208 
L 2061 2627 
z
" transform="scale(0.015625)"/>
       <path id="CMSS17-69" d="M 979 4183 
L 442 4183 
L 442 3648 
L 979 3648 
L 979 4183 
z
M 947 2739 
L 474 2739 
L 474 0 
L 947 0 
L 947 2739 
z
" transform="scale(0.015625)"/>
       <path id="CMSS17-27" d="M 1088 3910 
L 1088 4413 
L 576 4413 
L 576 3904 
L 736 3904 
L 570 3104 
L 826 3104 
L 1088 3910 
z
" transform="scale(0.015625)"/>
       <path id="CMSS17-63" d="M 2464 2541 
C 2464 2585 2170 2714 2093 2739 
C 1882 2816 1613 2816 1542 2816 
C 710 2816 211 2093 211 1363 
C 211 595 768 -64 1517 -64 
C 1946 -64 2253 76 2502 242 
L 2464 664 
C 2189 453 1869 337 1523 337 
C 1024 337 698 774 698 1369 
C 698 1831 909 2414 1549 2414 
C 1901 2414 2099 2343 2394 2145 
L 2464 2541 
z
" transform="scale(0.015625)"/>
       <path id="CMSS17-6f" d="M 2829 1356 
C 2829 2176 2221 2816 1504 2816 
C 768 2816 173 2157 173 1356 
C 173 544 787 -64 1498 -64 
C 2227 -64 2829 563 2829 1356 
z
M 1504 337 
C 1050 337 659 709 659 1408 
C 659 2151 1114 2427 1498 2427 
C 1914 2427 2342 2126 2342 1408 
C 2342 683 1926 337 1504 337 
z
" transform="scale(0.015625)"/>
       <path id="CMSS17-76" d="M 2675 2752 
L 2176 2752 
L 1747 1556 
C 1613 1165 1421 627 1389 352 
L 1382 352 
C 1370 468 1318 634 1286 749 
C 1248 890 1197 1056 1158 1172 
L 595 2752 
L 83 2752 
L 1094 0 
L 1664 0 
L 2675 2752 
z
" transform="scale(0.015625)"/>
       <path id="CMMI12-1b" d="M 3251 2408 
C 3334 2408 3546 2408 3546 2612 
C 3546 2752 3424 2752 3309 2752 
L 1894 2752 
C 934 2752 243 1686 243 932 
C 243 390 595 -64 1171 -64 
C 1926 -64 2752 747 2752 1705 
C 2752 1954 2694 2196 2541 2408 
L 3251 2408 
z
M 1178 64 
C 851 64 614 313 614 754 
C 614 1137 845 2408 1786 2408 
C 2061 2408 2368 2274 2368 1781 
C 2368 1558 2266 1021 2042 652 
C 1811 275 1466 64 1178 64 
z
" transform="scale(0.015625)"/>
       <path id="CMSS17-2e" d="M 1088 510 
L 576 510 
L 576 0 
L 1088 0 
L 1088 510 
z
" transform="scale(0.015625)"/>
      </defs>
      <use xlink:href="#CMSS17-43" transform="scale(0.996264)"/>
      <use xlink:href="#CMSS17-65" transform="translate(59.855772 0) scale(0.996264)"/>
      <use xlink:href="#CMSS17-6e" transform="translate(101.494594 0) scale(0.996264)"/>
      <use xlink:href="#CMSS17-73" transform="translate(149.699537 0) scale(0.996264)"/>
      <use xlink:href="#CMSS17-69" transform="translate(185.613079 0) scale(0.996264)"/>
      <use xlink:href="#CMSS17-27" transform="translate(207.793802 0) scale(0.996264)"/>
      <use xlink:href="#CMSS17-73" transform="translate(233.818007 0) scale(0.996264)"/>
      <use xlink:href="#CMSS17-63" transform="translate(300.960661 0) scale(0.996264)"/>
      <use xlink:href="#CMSS17-6f" transform="translate(342.599484 0) scale(0.996264)"/>
      <use xlink:href="#CMSS17-76" transform="translate(389.443107 0) scale(0.996264)"/>
      <use xlink:href="#CMR17-33" transform="translate(463.672361 0) scale(0.996264)"/>
      <use xlink:href="#CMMI12-1b" transform="translate(509.362839 0) scale(0.996264)"/>
      <use xlink:href="#CMSS17-2e" transform="translate(568.382892 0) scale(0.996264)"/>
     </g>
    </g>
    <g id="line2d_38">
     <path d="M 300.962583 67.909178 
L 310.962583 67.909178 
L 320.962583 67.909178 
" style="fill: none; stroke: #008000; stroke-width: 1.5; stroke-linecap: square"/>
    </g>
    <g id="text_20">
     <!-- Brossard's cov $3\sigma$. -->
     <g transform="translate(328.962583 71.409178) scale(0.1 -0.1)">
      <defs>
       <path id="CMSS17-42" d="M 570 4416 
L 570 0 
L 2163 0 
C 3034 0 3667 574 3667 1200 
C 3667 1685 3251 2176 2502 2317 
C 3334 2558 3501 3040 3501 3313 
C 3501 3883 2874 4416 1997 4416 
L 570 4416 
z
M 1088 2496 
L 1088 4059 
L 1824 4059 
C 2483 4059 3002 3724 3002 3306 
C 3002 2926 2592 2496 1766 2496 
L 1088 2496 
z
M 1088 357 
L 1088 2107 
L 1939 2107 
C 2630 2107 3162 1679 3162 1206 
C 3162 772 2694 357 1984 357 
L 1088 357 
z
" transform="scale(0.015625)"/>
       <path id="CMSS17-72" d="M 954 1363 
C 954 1965 1395 2368 1958 2368 
L 1958 2789 
C 1549 2789 1165 2585 934 2253 
L 934 2758 
L 480 2758 
L 480 0 
L 954 0 
L 954 1363 
z
" transform="scale(0.015625)"/>
       <path id="CMSS17-61" d="M 2406 1791 
C 2406 2392 1978 2808 1402 2808 
C 1120 2808 813 2757 461 2553 
L 499 2135 
C 659 2248 934 2432 1395 2432 
C 1722 2432 1920 2180 1920 1782 
L 1920 1536 
C 896 1536 256 1238 256 726 
C 256 461 416 -64 947 -64 
C 1043 -64 1562 -64 1933 217 
L 1933 -19 
L 2406 -19 
L 2406 1791 
z
M 1920 816 
C 1920 701 1920 548 1728 434 
C 1562 325 1350 325 1261 325 
C 941 325 723 511 723 744 
C 723 1211 1722 1211 1920 1211 
L 1920 816 
z
" transform="scale(0.015625)"/>
       <path id="CMSS17-64" d="M 2611 4416 
L 2138 4416 
L 2138 2438 
C 1939 2603 1613 2756 1254 2756 
C 672 2756 211 2131 211 1347 
C 211 562 666 -64 1235 -64 
C 1677 -64 1971 172 2125 306 
L 2125 -13 
L 2611 -13 
L 2611 4416 
z
M 2125 836 
C 2125 747 2125 653 1926 482 
C 1798 375 1645 325 1498 325 
C 1152 325 698 576 698 1340 
C 698 2134 1210 2368 1562 2368 
C 1798 2368 1990 2254 2125 2065 
L 2125 836 
z
" transform="scale(0.015625)"/>
      </defs>
      <use xlink:href="#CMSS17-42" transform="scale(0.996264)"/>
      <use xlink:href="#CMSS17-72" transform="translate(62.33804 0) scale(0.996264)"/>
      <use xlink:href="#CMSS17-6f" transform="translate(94.247813 0) scale(0.996264)"/>
      <use xlink:href="#CMSS17-73" transform="translate(141.091436 0) scale(0.996264)"/>
      <use xlink:href="#CMSS17-73" transform="translate(177.004978 0) scale(0.996264)"/>
      <use xlink:href="#CMSS17-61" transform="translate(212.91852 0) scale(0.996264)"/>
      <use xlink:href="#CMSS17-72" transform="translate(255.237987 0) scale(0.996264)"/>
      <use xlink:href="#CMSS17-64" transform="translate(287.14776 0) scale(0.996264)"/>
      <use xlink:href="#CMSS17-27" transform="translate(335.352703 0) scale(0.996264)"/>
      <use xlink:href="#CMSS17-73" transform="translate(361.376908 0) scale(0.996264)"/>
      <use xlink:href="#CMSS17-63" transform="translate(428.519562 0) scale(0.996264)"/>
      <use xlink:href="#CMSS17-6f" transform="translate(470.158384 0) scale(0.996264)"/>
      <use xlink:href="#CMSS17-76" transform="translate(517.002008 0) scale(0.996264)"/>
      <use xlink:href="#CMR17-33" transform="translate(591.231262 0) scale(0.996264)"/>
      <use xlink:href="#CMMI12-1b" transform="translate(636.921739 0) scale(0.996264)"/>
      <use xlink:href="#CMSS17-2e" transform="translate(695.941793 0) scale(0.996264)"/>
     </g>
    </g>
    <g id="line2d_39">
     <g>
      <use xlink:href="#mc8b87862cb" x="310.962583" y="81.846357" style="fill: #ff0000; stroke: #ff0000"/>
     </g>
    </g>
    <g id="text_21">
     <!-- Samples. -->
     <g transform="translate(328.962583 85.346357) scale(0.1 -0.1)">
      <defs>
       <path id="CMSS17-53" d="M 2797 4169 
C 2515 4334 2208 4480 1690 4480 
C 864 4480 333 3879 333 3266 
C 333 3025 403 2753 653 2475 
C 902 2196 1184 2121 1542 2033 
C 1690 1994 1939 1924 1984 1906 
C 2342 1767 2515 1444 2515 1140 
C 2515 742 2202 318 1645 318 
C 1453 318 890 318 358 819 
L 269 318 
C 794 -64 1363 -128 1651 -128 
C 2438 -128 3002 488 3002 1186 
C 3002 1440 2925 1763 2656 2061 
C 2394 2347 2163 2410 1638 2549 
C 1338 2626 1146 2677 986 2873 
C 877 3013 819 3146 819 3317 
C 819 3673 1126 4060 1690 4060 
C 1971 4060 2336 4002 2707 3660 
L 2797 4169 
z
" transform="scale(0.015625)"/>
       <path id="CMSS17-70" d="M 966 333 
C 1178 129 1466 -5 1773 -5 
C 2368 -5 2880 603 2880 1412 
C 2880 2159 2496 2816 1946 2816 
C 1626 2816 1242 2702 954 2472 
L 954 2765 
L 480 2765 
L 480 -1216 
L 966 -1216 
L 966 333 
z
M 966 2100 
C 1018 2176 1235 2415 1587 2415 
C 2035 2415 2394 1960 2394 1412 
C 2394 787 1958 384 1530 384 
C 1402 384 1267 415 1139 523 
C 966 674 966 768 966 857 
L 966 2100 
z
" transform="scale(0.015625)"/>
       <path id="CMSS17-6c" d="M 947 4416 
L 474 4416 
L 474 0 
L 947 0 
L 947 4416 
z
" transform="scale(0.015625)"/>
      </defs>
      <use xlink:href="#CMSS17-53" transform="scale(0.996264)"/>
      <use xlink:href="#CMSS17-61" transform="translate(52.048516 0) scale(0.996264)"/>
      <use xlink:href="#CMSS17-6d" transform="translate(96.970437 0) scale(0.996264)"/>
      <use xlink:href="#CMSS17-70" transform="translate(171.199691 0) scale(0.996264)"/>
      <use xlink:href="#CMSS17-6c" transform="translate(219.404634 0) scale(0.996264)"/>
      <use xlink:href="#CMSS17-65" transform="translate(241.585357 0) scale(0.996264)"/>
      <use xlink:href="#CMSS17-73" transform="translate(283.224179 0) scale(0.996264)"/>
      <use xlink:href="#CMSS17-2e" transform="translate(319.137721 0) scale(0.996264)"/>
     </g>
    </g>
    <g id="line2d_40">
     <path d="M 300.962583 95.783535 
L 310.962583 95.783535 
L 320.962583 95.783535 
" style="fill: none; stroke: #ff0000; stroke-width: 1.5; stroke-linecap: square"/>
    </g>
    <g id="text_22">
     <!-- Sample cov $3\sigma$. -->
     <g transform="translate(328.962583 99.283535) scale(0.1 -0.1)">
      <use xlink:href="#CMSS17-53" transform="scale(0.996264)"/>
      <use xlink:href="#CMSS17-61" transform="translate(52.048516 0) scale(0.996264)"/>
      <use xlink:href="#CMSS17-6d" transform="translate(96.970437 0) scale(0.996264)"/>
      <use xlink:href="#CMSS17-70" transform="translate(171.199691 0) scale(0.996264)"/>
      <use xlink:href="#CMSS17-6c" transform="translate(219.404634 0) scale(0.996264)"/>
      <use xlink:href="#CMSS17-65" transform="translate(241.585357 0) scale(0.996264)"/>
      <use xlink:href="#CMSS17-63" transform="translate(314.453292 0) scale(0.996264)"/>
      <use xlink:href="#CMSS17-6f" transform="translate(356.092114 0) scale(0.996264)"/>
      <use xlink:href="#CMSS17-76" transform="translate(402.935738 0) scale(0.996264)"/>
      <use xlink:href="#CMR17-33" transform="translate(477.164992 0) scale(0.996264)"/>
      <use xlink:href="#CMMI12-1b" transform="translate(522.855469 0) scale(0.996264)"/>
      <use xlink:href="#CMSS17-2e" transform="translate(581.875523 0) scale(0.996264)"/>
     </g>
    </g>
   </g>
  </g>
 </g>
 <defs>
  <clipPath id="p3b15739551">
   <rect x="57.6" y="41.472" width="357.12" height="266.112"/>
  </clipPath>
 </defs>
</svg>
