<?xml version="1.0" encoding="utf-8" standalone="no"?>
<!DOCTYPE svg PUBLIC "-//W3C//DTD SVG 1.1//EN"
  "http://www.w3.org/Graphics/SVG/1.1/DTD/svg11.dtd">
<svg xmlns:xlink="http://www.w3.org/1999/xlink" width="460.8pt" height="345.6pt" viewBox="0 0 460.8 345.6" xmlns="http://www.w3.org/2000/svg" version="1.1">
 <metadata>
  <rdf:RDF xmlns:dc="http://purl.org/dc/elements/1.1/" xmlns:cc="http://creativecommons.org/ns#" xmlns:rdf="http://www.w3.org/1999/02/22-rdf-syntax-ns#">
   <cc:Work>
    <dc:type rdf:resource="http://purl.org/dc/dcmitype/StillImage"/>
    <dc:date>2022-12-17T15:06:06.348881</dc:date>
    <dc:format>image/svg+xml</dc:format>
    <dc:creator>
     <cc:Agent>
      <dc:title>Matplotlib v3.6.0, https://matplotlib.org/</dc:title>
     </cc:Agent>
    </dc:creator>
   </cc:Work>
  </rdf:RDF>
 </metadata>
 <defs>
  <style type="text/css">*{stroke-linejoin: round; stroke-linecap: butt}</style>
 </defs>
 <g id="figure_1">
  <g id="patch_1">
   <path d="M 0 345.6 
L 460.8 345.6 
L 460.8 0 
L 0 0 
z
" style="fill: #ffffff"/>
  </g>
  <g id="axes_1">
   <g id="patch_2">
    <path d="M 57.6 307.584 
L 414.72 307.584 
L 414.72 41.472 
L 57.6 41.472 
z
" style="fill: #ffffff"/>
   </g>
   <g id="patch_3">
    <path d="M 234.216811 165.261487 
L 234.720835 165.007344 
L 235.247555 164.903346 
L 235.788666 164.951135 
L 236.335632 165.149957 
L 236.879828 165.496676 
L 237.412673 165.985825 
L 237.925761 166.609689 
L 238.411003 167.358429 
L 238.860745 168.220238 
L 239.267895 169.181524 
L 239.626032 170.227127 
L 239.929507 171.340558 
L 240.173534 172.504256 
L 240.354266 173.69987 
L 240.468852 174.908544 
L 240.515484 176.111217 
L 240.493428 177.288921 
L 240.403032 178.423084 
L 240.24572 179.495819 
L 240.023974 180.490209 
L 239.74129 181.390571 
L 239.402128 182.182706 
L 239.011835 182.854122 
L 238.576567 183.39423 
L 238.103189 183.794513 
L 237.599165 184.048656 
L 237.072445 184.152654 
L 236.531334 184.104865 
L 235.984368 183.906043 
L 235.440172 183.559324 
L 234.907327 183.070175 
L 234.394239 182.446311 
L 233.908997 181.697571 
L 233.459255 180.835762 
L 233.052105 179.874476 
L 232.693968 178.828873 
L 232.390493 177.715442 
L 232.146466 176.551744 
L 231.965734 175.35613 
L 231.851148 174.147456 
L 231.804516 172.944783 
L 231.826572 171.767079 
L 231.916968 170.632916 
L 232.07428 169.560181 
L 232.296026 168.565791 
L 232.57871 167.665429 
L 232.917872 166.873294 
L 233.308165 166.201878 
L 233.743433 165.66177 
L 234.216811 165.261487 
z
" clip-path="url(#pa0ae8aa8cc)" style="fill: none; opacity: 0"/>
   </g>
   <g id="patch_4">
    <path d="M 162.056823 228.925566 
L 161.80602 224.864176 
L 162.727823 220.008954 
L 164.807696 214.43647 
L 168.012837 208.234606 
L 172.292699 201.501168 
L 177.579788 194.342348 
L 183.790721 186.871044 
L 190.827548 179.205082 
L 198.579296 171.46536 
L 206.923714 163.773937 
L 215.729206 156.252113 
L 224.856903 149.01851 
L 234.162857 142.187207 
L 243.500307 135.865938 
L 252.721996 130.154393 
L 261.682493 125.142646 
L 270.240484 120.909735 
L 278.261006 117.522417 
L 285.61757 115.03411 
L 292.194159 113.484058 
L 297.887055 112.896705 
L 302.606479 113.281315 
L 306.278002 114.631821 
L 308.843722 116.926926 
L 310.263177 120.130434 
L 310.51398 124.191824 
L 309.592177 129.047046 
L 307.512304 134.61953 
L 304.307163 140.821394 
L 300.027301 147.554832 
L 294.740212 154.713652 
L 288.529279 162.184956 
L 281.492452 169.850918 
L 273.740704 177.59064 
L 265.396286 185.282063 
L 256.590794 192.803887 
L 247.463097 200.03749 
L 238.157143 206.868793 
L 228.819693 213.190062 
L 219.598004 218.901607 
L 210.637507 223.913354 
L 202.079516 228.146265 
L 194.058994 231.533583 
L 186.70243 234.02189 
L 180.125841 235.571942 
L 174.432945 236.159295 
L 169.713521 235.774685 
L 166.041998 234.424179 
L 163.476278 232.129074 
L 162.056823 228.925566 
L 162.056823 228.925566 
z
" clip-path="url(#pa0ae8aa8cc)" style="fill: none; opacity: 0"/>
   </g>
   <g id="patch_5">
    <path d="M 73.832727 182.815664 
L 74.870877 167.625382 
L 78.452652 152.543958 
L 84.521566 137.809235 
L 92.981909 123.653589 
L 103.700256 110.300264 
L 116.507572 97.959847 
L 131.201879 86.826957 
L 147.551438 77.077164 
L 165.298407 68.864229 
L 184.162905 62.317675 
L 203.847429 57.540745 
L 224.041541 54.608773 
L 244.426769 53.568 
L 264.681624 54.434838 
L 284.486677 57.195617 
L 303.529589 61.806797 
L 321.510042 68.195659 
L 338.144475 76.261445 
L 353.170551 85.876953 
L 366.351301 96.890541 
L 377.478856 109.128518 
L 386.377729 122.397884 
L 392.907578 136.489374 
L 396.965424 151.180755 
L 398.487273 166.240336 
L 397.449123 181.430618 
L 393.867348 196.512042 
L 387.798434 211.246765 
L 379.338091 225.402411 
L 368.619744 238.755736 
L 355.812428 251.096153 
L 341.118121 262.229043 
L 324.768562 271.978836 
L 307.021593 280.191771 
L 288.157095 286.738325 
L 268.472571 291.515255 
L 248.278459 294.447227 
L 227.893231 295.488 
L 207.638376 294.621162 
L 187.833323 291.860383 
L 168.790411 287.249203 
L 150.809958 280.860341 
L 134.175525 272.794555 
L 119.149449 263.179047 
L 105.968699 252.165459 
L 94.841144 239.927482 
L 85.942271 226.658116 
L 79.412422 212.566626 
L 75.354576 197.875245 
L 73.832727 182.815664 
L 73.832727 182.815664 
z
" clip-path="url(#pa0ae8aa8cc)" style="fill: none; opacity: 0"/>
   </g>
   <g id="matplotlib.axis_1">
    <g id="xtick_1">
     <g id="line2d_1">
      <path d="M 124.991094 307.584 
L 124.991094 41.472 
" clip-path="url(#pa0ae8aa8cc)" style="fill: none; stroke: #b0b0b0; stroke-width: 0.8; stroke-linecap: square"/>
     </g>
     <g id="line2d_2">
      <defs>
       <path id="m7790a428a2" d="M 0 0 
L 0 3.5 
" style="stroke: #000000; stroke-width: 0.8"/>
      </defs>
      <g>
       <use xlink:href="#m7790a428a2" x="124.991094" y="307.584" style="stroke: #000000; stroke-width: 0.8"/>
      </g>
     </g>
     <g id="text_1">
      <!-- $\mathdefault{−0.02}$ -->
      <g transform="translate(112.261015 321.502498) scale(0.1 -0.1)">
       <defs>
        <path id="CMSY10-0" d="M 4218 1472 
C 4326 1472 4442 1472 4442 1600 
C 4442 1728 4326 1728 4218 1728 
L 755 1728 
C 646 1728 531 1728 531 1600 
C 531 1472 646 1472 755 1472 
L 4218 1472 
z
" transform="scale(0.015625)"/>
        <path id="CMR17-30" d="M 2688 2025 
C 2688 2416 2682 3080 2413 3591 
C 2176 4039 1798 4198 1466 4198 
C 1158 4198 768 4058 525 3597 
C 269 3118 243 2524 243 2025 
C 243 1661 250 1106 448 619 
C 723 -39 1216 -128 1466 -128 
C 1760 -128 2208 -7 2470 600 
C 2662 1042 2688 1559 2688 2025 
z
M 1466 -26 
C 1056 -26 813 325 723 812 
C 653 1188 653 1738 653 2096 
C 653 2588 653 2997 736 3387 
C 858 3929 1216 4096 1466 4096 
C 1728 4096 2067 3923 2189 3400 
C 2272 3036 2278 2607 2278 2096 
C 2278 1680 2278 1169 2202 792 
C 2067 95 1690 -26 1466 -26 
z
" transform="scale(0.015625)"/>
        <path id="CMMI12-3a" d="M 1178 307 
C 1178 492 1024 619 870 619 
C 685 619 557 466 557 313 
C 557 128 710 0 864 0 
C 1050 0 1178 153 1178 307 
z
" transform="scale(0.015625)"/>
        <path id="CMR17-32" d="M 2669 989 
L 2554 989 
C 2490 536 2438 459 2413 420 
C 2381 369 1920 369 1830 369 
L 602 369 
C 832 619 1280 1072 1824 1597 
C 2214 1967 2669 2402 2669 3035 
C 2669 3790 2067 4224 1395 4224 
C 691 4224 262 3604 262 3030 
C 262 2780 448 2748 525 2748 
C 589 2748 781 2787 781 3010 
C 781 3207 614 3264 525 3264 
C 486 3264 448 3258 422 3245 
C 544 3790 915 4058 1306 4058 
C 1862 4058 2227 3617 2227 3035 
C 2227 2479 1901 2000 1536 1584 
L 262 146 
L 262 0 
L 2515 0 
L 2669 989 
z
" transform="scale(0.015625)"/>
       </defs>
       <use xlink:href="#CMSY10-0" transform="scale(0.996264)"/>
       <use xlink:href="#CMR17-30" transform="translate(77.487468 0) scale(0.996264)"/>
       <use xlink:href="#CMMI12-3a" transform="translate(123.177945 0) scale(0.996264)"/>
       <use xlink:href="#CMR17-30" transform="translate(150.275122 0) scale(0.996264)"/>
       <use xlink:href="#CMR17-32" transform="translate(195.965599 0) scale(0.996264)"/>
      </g>
     </g>
    </g>
    <g id="xtick_2">
     <g id="line2d_3">
      <path d="M 198.133804 307.584 
L 198.133804 41.472 
" clip-path="url(#pa0ae8aa8cc)" style="fill: none; stroke: #b0b0b0; stroke-width: 0.8; stroke-linecap: square"/>
     </g>
     <g id="line2d_4">
      <g>
       <use xlink:href="#m7790a428a2" x="198.133804" y="307.584" style="stroke: #000000; stroke-width: 0.8"/>
      </g>
     </g>
     <g id="text_2">
      <!-- $\mathdefault{0.00}$ -->
      <g transform="translate(189.278097 321.502498) scale(0.1 -0.1)">
       <use xlink:href="#CMR17-30" transform="scale(0.996264)"/>
       <use xlink:href="#CMMI12-3a" transform="translate(45.690477 0) scale(0.996264)"/>
       <use xlink:href="#CMR17-30" transform="translate(72.787654 0) scale(0.996264)"/>
       <use xlink:href="#CMR17-30" transform="translate(118.478131 0) scale(0.996264)"/>
      </g>
     </g>
    </g>
    <g id="xtick_3">
     <g id="line2d_5">
      <path d="M 271.276514 307.584 
L 271.276514 41.472 
" clip-path="url(#pa0ae8aa8cc)" style="fill: none; stroke: #b0b0b0; stroke-width: 0.8; stroke-linecap: square"/>
     </g>
     <g id="line2d_6">
      <g>
       <use xlink:href="#m7790a428a2" x="271.276514" y="307.584" style="stroke: #000000; stroke-width: 0.8"/>
      </g>
     </g>
     <g id="text_3">
      <!-- $\mathdefault{0.02}$ -->
      <g transform="translate(262.420806 321.502498) scale(0.1 -0.1)">
       <use xlink:href="#CMR17-30" transform="scale(0.996264)"/>
       <use xlink:href="#CMMI12-3a" transform="translate(45.690477 0) scale(0.996264)"/>
       <use xlink:href="#CMR17-30" transform="translate(72.787654 0) scale(0.996264)"/>
       <use xlink:href="#CMR17-32" transform="translate(118.478131 0) scale(0.996264)"/>
      </g>
     </g>
    </g>
    <g id="xtick_4">
     <g id="line2d_7">
      <path d="M 344.419223 307.584 
L 344.419223 41.472 
" clip-path="url(#pa0ae8aa8cc)" style="fill: none; stroke: #b0b0b0; stroke-width: 0.8; stroke-linecap: square"/>
     </g>
     <g id="line2d_8">
      <g>
       <use xlink:href="#m7790a428a2" x="344.419223" y="307.584" style="stroke: #000000; stroke-width: 0.8"/>
      </g>
     </g>
     <g id="text_4">
      <!-- $\mathdefault{0.04}$ -->
      <g transform="translate(335.563516 321.502498) scale(0.1 -0.1)">
       <defs>
        <path id="CMR17-34" d="M 2150 4122 
C 2150 4256 2144 4256 2029 4256 
L 128 1254 
L 128 1088 
L 1779 1088 
L 1779 457 
C 1779 224 1766 160 1318 160 
L 1197 160 
L 1197 0 
C 1402 0 1747 0 1965 0 
C 2182 0 2528 0 2733 0 
L 2733 160 
L 2611 160 
C 2163 160 2150 224 2150 457 
L 2150 1088 
L 2803 1088 
L 2803 1254 
L 2150 1254 
L 2150 4122 
z
M 1798 3703 
L 1798 1254 
L 256 1254 
L 1798 3703 
z
" transform="scale(0.015625)"/>
       </defs>
       <use xlink:href="#CMR17-30" transform="scale(0.996264)"/>
       <use xlink:href="#CMMI12-3a" transform="translate(45.690477 0) scale(0.996264)"/>
       <use xlink:href="#CMR17-30" transform="translate(72.787654 0) scale(0.996264)"/>
       <use xlink:href="#CMR17-34" transform="translate(118.478131 0) scale(0.996264)"/>
      </g>
     </g>
    </g>
    <g id="text_5">
     <!-- x [m] -->
     <g transform="translate(225.36713 334.911657) scale(0.1 -0.1)">
      <defs>
       <path id="CMSS17-78" d="M 1587 1414 
L 2656 2739 
L 2099 2739 
L 1363 1777 
L 602 2739 
L 32 2739 
L 1139 1414 
L 0 0 
L 563 0 
L 1363 1121 
L 2195 0 
L 2758 0 
L 1587 1414 
z
" transform="scale(0.015625)"/>
       <path id="CMSS17-5b" d="M 1613 -1600 
L 1613 -1212 
L 1062 -1212 
L 1062 4352 
L 1613 4352 
L 1613 4741 
L 595 4741 
L 595 -1600 
L 1613 -1600 
z
" transform="scale(0.015625)"/>
       <path id="CMSS17-6d" d="M 4288 1877 
C 4288 2308 4179 2816 3462 2816 
C 2982 2816 2694 2516 2566 2331 
C 2451 2670 2182 2816 1798 2816 
C 1363 2816 1088 2568 941 2389 
L 941 2758 
L 474 2758 
L 474 0 
L 960 0 
L 960 1559 
C 960 1939 1101 2428 1555 2428 
C 2138 2428 2138 2016 2138 1829 
L 2138 0 
L 2624 0 
L 2624 1559 
C 2624 1939 2765 2428 3219 2428 
C 3802 2428 3802 2016 3802 1829 
L 3802 0 
L 4288 0 
L 4288 1877 
z
" transform="scale(0.015625)"/>
       <path id="CMSS17-5d" d="M 1146 4741 
L 128 4741 
L 128 4352 
L 678 4352 
L 678 -1212 
L 128 -1212 
L 128 -1600 
L 1146 -1600 
L 1146 4741 
z
" transform="scale(0.015625)"/>
      </defs>
      <use xlink:href="#CMSS17-78" transform="scale(0.996264)"/>
      <use xlink:href="#CMSS17-5b" transform="translate(74.229254 0) scale(0.996264)"/>
      <use xlink:href="#CMSS17-6d" transform="translate(101.414693 0) scale(0.996264)"/>
      <use xlink:href="#CMSS17-5d" transform="translate(175.643948 0) scale(0.996264)"/>
     </g>
    </g>
   </g>
   <g id="matplotlib.axis_2">
    <g id="ytick_1">
     <g id="line2d_9">
      <path d="M 57.6 301.670448 
L 414.72 301.670448 
" clip-path="url(#pa0ae8aa8cc)" style="fill: none; stroke: #b0b0b0; stroke-width: 0.8; stroke-linecap: square"/>
     </g>
     <g id="line2d_10">
      <defs>
       <path id="m71a4265c11" d="M 0 0 
L -3.5 0 
" style="stroke: #000000; stroke-width: 0.8"/>
      </defs>
      <g>
       <use xlink:href="#m71a4265c11" x="57.6" y="301.670448" style="stroke: #000000; stroke-width: 0.8"/>
      </g>
     </g>
     <g id="text_6">
      <!-- $\mathdefault{−0.020}$ -->
      <g transform="translate(20.158507 305.129697) scale(0.1 -0.1)">
       <use xlink:href="#CMSY10-0" transform="scale(0.996264)"/>
       <use xlink:href="#CMR17-30" transform="translate(77.487468 0) scale(0.996264)"/>
       <use xlink:href="#CMMI12-3a" transform="translate(123.177945 0) scale(0.996264)"/>
       <use xlink:href="#CMR17-30" transform="translate(150.275122 0) scale(0.996264)"/>
       <use xlink:href="#CMR17-32" transform="translate(195.965599 0) scale(0.996264)"/>
       <use xlink:href="#CMR17-30" transform="translate(241.656076 0) scale(0.996264)"/>
      </g>
     </g>
    </g>
    <g id="ytick_2">
     <g id="line2d_11">
      <path d="M 57.6 268.996217 
L 414.72 268.996217 
" clip-path="url(#pa0ae8aa8cc)" style="fill: none; stroke: #b0b0b0; stroke-width: 0.8; stroke-linecap: square"/>
     </g>
     <g id="line2d_12">
      <g>
       <use xlink:href="#m71a4265c11" x="57.6" y="268.996217" style="stroke: #000000; stroke-width: 0.8"/>
      </g>
     </g>
     <g id="text_7">
      <!-- $\mathdefault{−0.015}$ -->
      <g transform="translate(20.158507 272.455467) scale(0.1 -0.1)">
       <defs>
        <path id="CMR17-31" d="M 1702 4058 
C 1702 4192 1696 4192 1606 4192 
C 1357 3916 979 3827 621 3827 
C 602 3827 570 3827 563 3808 
C 557 3795 557 3782 557 3648 
C 755 3648 1088 3686 1344 3839 
L 1344 461 
C 1344 236 1331 160 781 160 
L 589 160 
L 589 0 
C 896 0 1216 0 1523 0 
C 1830 0 2150 0 2458 0 
L 2458 160 
L 2266 160 
C 1715 160 1702 230 1702 458 
L 1702 4058 
z
" transform="scale(0.015625)"/>
        <path id="CMR17-35" d="M 730 3692 
C 794 3666 1056 3584 1325 3584 
C 1920 3584 2246 3911 2432 4100 
C 2432 4157 2432 4192 2394 4192 
C 2387 4192 2374 4192 2323 4163 
C 2099 4058 1837 3973 1517 3973 
C 1325 3973 1037 3999 723 4139 
C 653 4171 640 4171 634 4171 
C 602 4171 595 4164 595 4037 
L 595 2203 
C 595 2089 595 2057 659 2057 
C 691 2057 704 2070 736 2114 
C 941 2401 1222 2522 1542 2522 
C 1766 2522 2246 2382 2246 1289 
C 2246 1085 2246 715 2054 421 
C 1894 159 1645 25 1370 25 
C 947 25 518 320 403 814 
C 429 807 480 795 506 795 
C 589 795 749 840 749 1038 
C 749 1210 627 1280 506 1280 
C 358 1280 262 1190 262 1011 
C 262 454 704 -128 1382 -128 
C 2042 -128 2669 440 2669 1264 
C 2669 2030 2170 2624 1549 2624 
C 1222 2624 947 2503 730 2274 
L 730 3692 
z
" transform="scale(0.015625)"/>
       </defs>
       <use xlink:href="#CMSY10-0" transform="scale(0.996264)"/>
       <use xlink:href="#CMR17-30" transform="translate(77.487468 0) scale(0.996264)"/>
       <use xlink:href="#CMMI12-3a" transform="translate(123.177945 0) scale(0.996264)"/>
       <use xlink:href="#CMR17-30" transform="translate(150.275122 0) scale(0.996264)"/>
       <use xlink:href="#CMR17-31" transform="translate(195.965599 0) scale(0.996264)"/>
       <use xlink:href="#CMR17-35" transform="translate(241.656076 0) scale(0.996264)"/>
      </g>
     </g>
    </g>
    <g id="ytick_3">
     <g id="line2d_13">
      <path d="M 57.6 236.321987 
L 414.72 236.321987 
" clip-path="url(#pa0ae8aa8cc)" style="fill: none; stroke: #b0b0b0; stroke-width: 0.8; stroke-linecap: square"/>
     </g>
     <g id="line2d_14">
      <g>
       <use xlink:href="#m71a4265c11" x="57.6" y="236.321987" style="stroke: #000000; stroke-width: 0.8"/>
      </g>
     </g>
     <g id="text_8">
      <!-- $\mathdefault{−0.010}$ -->
      <g transform="translate(20.158507 239.781236) scale(0.1 -0.1)">
       <use xlink:href="#CMSY10-0" transform="scale(0.996264)"/>
       <use xlink:href="#CMR17-30" transform="translate(77.487468 0) scale(0.996264)"/>
       <use xlink:href="#CMMI12-3a" transform="translate(123.177945 0) scale(0.996264)"/>
       <use xlink:href="#CMR17-30" transform="translate(150.275122 0) scale(0.996264)"/>
       <use xlink:href="#CMR17-31" transform="translate(195.965599 0) scale(0.996264)"/>
       <use xlink:href="#CMR17-30" transform="translate(241.656076 0) scale(0.996264)"/>
      </g>
     </g>
    </g>
    <g id="ytick_4">
     <g id="line2d_15">
      <path d="M 57.6 203.647756 
L 414.72 203.647756 
" clip-path="url(#pa0ae8aa8cc)" style="fill: none; stroke: #b0b0b0; stroke-width: 0.8; stroke-linecap: square"/>
     </g>
     <g id="line2d_16">
      <g>
       <use xlink:href="#m71a4265c11" x="57.6" y="203.647756" style="stroke: #000000; stroke-width: 0.8"/>
      </g>
     </g>
     <g id="text_9">
      <!-- $\mathdefault{−0.005}$ -->
      <g transform="translate(20.158507 207.107005) scale(0.1 -0.1)">
       <use xlink:href="#CMSY10-0" transform="scale(0.996264)"/>
       <use xlink:href="#CMR17-30" transform="translate(77.487468 0) scale(0.996264)"/>
       <use xlink:href="#CMMI12-3a" transform="translate(123.177945 0) scale(0.996264)"/>
       <use xlink:href="#CMR17-30" transform="translate(150.275122 0) scale(0.996264)"/>
       <use xlink:href="#CMR17-30" transform="translate(195.965599 0) scale(0.996264)"/>
       <use xlink:href="#CMR17-35" transform="translate(241.656076 0) scale(0.996264)"/>
      </g>
     </g>
    </g>
    <g id="ytick_5">
     <g id="line2d_17">
      <path d="M 57.6 170.973525 
L 414.72 170.973525 
" clip-path="url(#pa0ae8aa8cc)" style="fill: none; stroke: #b0b0b0; stroke-width: 0.8; stroke-linecap: square"/>
     </g>
     <g id="line2d_18">
      <g>
       <use xlink:href="#m71a4265c11" x="57.6" y="170.973525" style="stroke: #000000; stroke-width: 0.8"/>
      </g>
     </g>
     <g id="text_10">
      <!-- $\mathdefault{0.000}$ -->
      <g transform="translate(27.907251 174.432774) scale(0.1 -0.1)">
       <use xlink:href="#CMR17-30" transform="scale(0.996264)"/>
       <use xlink:href="#CMMI12-3a" transform="translate(45.690477 0) scale(0.996264)"/>
       <use xlink:href="#CMR17-30" transform="translate(72.787654 0) scale(0.996264)"/>
       <use xlink:href="#CMR17-30" transform="translate(118.478131 0) scale(0.996264)"/>
       <use xlink:href="#CMR17-30" transform="translate(164.168608 0) scale(0.996264)"/>
      </g>
     </g>
    </g>
    <g id="ytick_6">
     <g id="line2d_19">
      <path d="M 57.6 138.299295 
L 414.72 138.299295 
" clip-path="url(#pa0ae8aa8cc)" style="fill: none; stroke: #b0b0b0; stroke-width: 0.8; stroke-linecap: square"/>
     </g>
     <g id="line2d_20">
      <g>
       <use xlink:href="#m71a4265c11" x="57.6" y="138.299295" style="stroke: #000000; stroke-width: 0.8"/>
      </g>
     </g>
     <g id="text_11">
      <!-- $\mathdefault{0.005}$ -->
      <g transform="translate(27.907251 141.758544) scale(0.1 -0.1)">
       <use xlink:href="#CMR17-30" transform="scale(0.996264)"/>
       <use xlink:href="#CMMI12-3a" transform="translate(45.690477 0) scale(0.996264)"/>
       <use xlink:href="#CMR17-30" transform="translate(72.787654 0) scale(0.996264)"/>
       <use xlink:href="#CMR17-30" transform="translate(118.478131 0) scale(0.996264)"/>
       <use xlink:href="#CMR17-35" transform="translate(164.168608 0) scale(0.996264)"/>
      </g>
     </g>
    </g>
    <g id="ytick_7">
     <g id="line2d_21">
      <path d="M 57.6 105.625064 
L 414.72 105.625064 
" clip-path="url(#pa0ae8aa8cc)" style="fill: none; stroke: #b0b0b0; stroke-width: 0.8; stroke-linecap: square"/>
     </g>
     <g id="line2d_22">
      <g>
       <use xlink:href="#m71a4265c11" x="57.6" y="105.625064" style="stroke: #000000; stroke-width: 0.8"/>
      </g>
     </g>
     <g id="text_12">
      <!-- $\mathdefault{0.010}$ -->
      <g transform="translate(27.907251 109.084313) scale(0.1 -0.1)">
       <use xlink:href="#CMR17-30" transform="scale(0.996264)"/>
       <use xlink:href="#CMMI12-3a" transform="translate(45.690477 0) scale(0.996264)"/>
       <use xlink:href="#CMR17-30" transform="translate(72.787654 0) scale(0.996264)"/>
       <use xlink:href="#CMR17-31" transform="translate(118.478131 0) scale(0.996264)"/>
       <use xlink:href="#CMR17-30" transform="translate(164.168608 0) scale(0.996264)"/>
      </g>
     </g>
    </g>
    <g id="ytick_8">
     <g id="line2d_23">
      <path d="M 57.6 72.950833 
L 414.72 72.950833 
" clip-path="url(#pa0ae8aa8cc)" style="fill: none; stroke: #b0b0b0; stroke-width: 0.8; stroke-linecap: square"/>
     </g>
     <g id="line2d_24">
      <g>
       <use xlink:href="#m71a4265c11" x="57.6" y="72.950833" style="stroke: #000000; stroke-width: 0.8"/>
      </g>
     </g>
     <g id="text_13">
      <!-- $\mathdefault{0.015}$ -->
      <g transform="translate(27.907251 76.410082) scale(0.1 -0.1)">
       <use xlink:href="#CMR17-30" transform="scale(0.996264)"/>
       <use xlink:href="#CMMI12-3a" transform="translate(45.690477 0) scale(0.996264)"/>
       <use xlink:href="#CMR17-30" transform="translate(72.787654 0) scale(0.996264)"/>
       <use xlink:href="#CMR17-31" transform="translate(118.478131 0) scale(0.996264)"/>
       <use xlink:href="#CMR17-35" transform="translate(164.168608 0) scale(0.996264)"/>
      </g>
     </g>
    </g>
    <g id="text_14">
     <!-- y [m] -->
     <g transform="translate(13.667847 185.32087) rotate(-90) scale(0.1 -0.1)">
      <defs>
       <path id="CMSS17-79" d="M 2675 2752 
L 2176 2752 
C 1632 1294 1446 702 1434 383 
L 1427 383 
C 1408 696 1126 1460 902 2007 
L 602 2752 
L 83 2752 
L 1216 13 
C 1146 -178 1043 -465 1011 -529 
C 870 -885 774 -885 672 -885 
C 646 -885 442 -885 211 -809 
L 250 -1229 
C 410 -1261 570 -1280 685 -1280 
C 845 -1280 1165 -1280 1459 -497 
L 2675 2752 
z
" transform="scale(0.015625)"/>
      </defs>
      <use xlink:href="#CMSS17-79" transform="scale(0.996264)"/>
      <use xlink:href="#CMSS17-5b" transform="translate(74.229254 0) scale(0.996264)"/>
      <use xlink:href="#CMSS17-6d" transform="translate(101.414693 0) scale(0.996264)"/>
      <use xlink:href="#CMSS17-5d" transform="translate(175.643948 0) scale(0.996264)"/>
     </g>
    </g>
   </g>
   <g id="line2d_25">
    <path d="M 234.216811 165.261487 
L 234.720835 165.007344 
L 235.247555 164.903346 
L 235.788666 164.951135 
L 236.335632 165.149957 
L 236.879828 165.496676 
L 237.412673 165.985825 
L 237.925761 166.609689 
L 238.411003 167.358429 
L 238.860745 168.220238 
L 239.267895 169.181524 
L 239.626032 170.227127 
L 239.929507 171.340558 
L 240.173534 172.504256 
L 240.354266 173.69987 
L 240.468852 174.908544 
L 240.515484 176.111217 
L 240.493428 177.288921 
L 240.403032 178.423084 
L 240.24572 179.495819 
L 240.023974 180.490209 
L 239.74129 181.390571 
L 239.402128 182.182706 
L 239.011835 182.854122 
L 238.576567 183.39423 
L 238.103189 183.794513 
L 237.599165 184.048656 
L 237.072445 184.152654 
L 236.531334 184.104865 
L 235.984368 183.906043 
L 235.440172 183.559324 
L 234.907327 183.070175 
L 234.394239 182.446311 
L 233.908997 181.697571 
L 233.459255 180.835762 
L 233.052105 179.874476 
L 232.693968 178.828873 
L 232.390493 177.715442 
L 232.146466 176.551744 
L 231.965734 175.35613 
L 231.851148 174.147456 
L 231.804516 172.944783 
L 231.826572 171.767079 
L 231.916968 170.632916 
L 232.07428 169.560181 
L 232.296026 168.565791 
L 232.57871 167.665429 
L 232.917872 166.873294 
L 233.308165 166.201878 
L 233.743433 165.66177 
L 234.216811 165.261487 
" clip-path="url(#pa0ae8aa8cc)" style="fill: none; stroke: #0000ff; stroke-width: 1.5; stroke-linecap: square"/>
   </g>
   <g id="line2d_26">
    <path d="M 162.056823 228.925566 
L 161.80602 224.864176 
L 162.727823 220.008954 
L 164.807696 214.43647 
L 168.012837 208.234606 
L 172.292699 201.501168 
L 177.579788 194.342348 
L 183.790721 186.871044 
L 190.827548 179.205082 
L 198.579296 171.46536 
L 206.923714 163.773937 
L 215.729206 156.252113 
L 224.856903 149.01851 
L 234.162857 142.187207 
L 243.500307 135.865938 
L 252.721996 130.154393 
L 261.682493 125.142646 
L 270.240484 120.909735 
L 278.261006 117.522417 
L 285.61757 115.03411 
L 292.194159 113.484058 
L 297.887055 112.896705 
L 302.606479 113.281315 
L 306.278002 114.631821 
L 308.843722 116.926926 
L 310.263177 120.130434 
L 310.51398 124.191824 
L 309.592177 129.047046 
L 307.512304 134.61953 
L 304.307163 140.821394 
L 300.027301 147.554832 
L 294.740212 154.713652 
L 288.529279 162.184956 
L 281.492452 169.850918 
L 273.740704 177.59064 
L 265.396286 185.282063 
L 256.590794 192.803887 
L 247.463097 200.03749 
L 238.157143 206.868793 
L 228.819693 213.190062 
L 219.598004 218.901607 
L 210.637507 223.913354 
L 202.079516 228.146265 
L 194.058994 231.533583 
L 186.70243 234.02189 
L 180.125841 235.571942 
L 174.432945 236.159295 
L 169.713521 235.774685 
L 166.041998 234.424179 
L 163.476278 232.129074 
L 162.056823 228.925566 
" clip-path="url(#pa0ae8aa8cc)" style="fill: none; stroke: #008000; stroke-width: 1.5; stroke-linecap: square"/>
   </g>
   <g id="line2d_27">
    <defs>
     <path id="m493782fd1b" d="M 0 1.5 
C 0.397805 1.5 0.77937 1.341951 1.06066 1.06066 
C 1.341951 0.77937 1.5 0.397805 1.5 0 
C 1.5 -0.397805 1.341951 -0.77937 1.06066 -1.06066 
C 0.77937 -1.341951 0.397805 -1.5 0 -1.5 
C -0.397805 -1.5 -0.77937 -1.341951 -1.06066 -1.06066 
C -1.341951 -0.77937 -1.5 -0.397805 -1.5 0 
C -1.5 0.397805 -1.341951 0.77937 -1.06066 1.06066 
C -0.77937 1.341951 -0.397805 1.5 0 1.5 
z
" style="stroke: #ff0000"/>
    </defs>
    <g clip-path="url(#pa0ae8aa8cc)">
     <use xlink:href="#m493782fd1b" x="297.559925" y="176.351907" style="fill: #ff0000; stroke: #ff0000"/>
     <use xlink:href="#m493782fd1b" x="149.588671" y="251.214899" style="fill: #ff0000; stroke: #ff0000"/>
     <use xlink:href="#m493782fd1b" x="184.608748" y="189.66025" style="fill: #ff0000; stroke: #ff0000"/>
     <use xlink:href="#m493782fd1b" x="260.189381" y="187.536798" style="fill: #ff0000; stroke: #ff0000"/>
     <use xlink:href="#m493782fd1b" x="276.814069" y="220.883982" style="fill: #ff0000; stroke: #ff0000"/>
     <use xlink:href="#m493782fd1b" x="243.11514" y="110.4627" style="fill: #ff0000; stroke: #ff0000"/>
     <use xlink:href="#m493782fd1b" x="228.046734" y="173.537688" style="fill: #ff0000; stroke: #ff0000"/>
     <use xlink:href="#m493782fd1b" x="237.465929" y="130.156998" style="fill: #ff0000; stroke: #ff0000"/>
     <use xlink:href="#m493782fd1b" x="293.416971" y="118.652307" style="fill: #ff0000; stroke: #ff0000"/>
     <use xlink:href="#m493782fd1b" x="200.517785" y="146.379631" style="fill: #ff0000; stroke: #ff0000"/>
     <use xlink:href="#m493782fd1b" x="304.047882" y="233.247684" style="fill: #ff0000; stroke: #ff0000"/>
     <use xlink:href="#m493782fd1b" x="260.111687" y="102.970704" style="fill: #ff0000; stroke: #ff0000"/>
     <use xlink:href="#m493782fd1b" x="276.741529" y="164.779297" style="fill: #ff0000; stroke: #ff0000"/>
     <use xlink:href="#m493782fd1b" x="314.908586" y="139.084269" style="fill: #ff0000; stroke: #ff0000"/>
     <use xlink:href="#m493782fd1b" x="147.713753" y="165.062238" style="fill: #ff0000; stroke: #ff0000"/>
     <use xlink:href="#m493782fd1b" x="234.927124" y="168.27867" style="fill: #ff0000; stroke: #ff0000"/>
     <use xlink:href="#m493782fd1b" x="172.993377" y="170.961635" style="fill: #ff0000; stroke: #ff0000"/>
     <use xlink:href="#m493782fd1b" x="133.604272" y="169.329718" style="fill: #ff0000; stroke: #ff0000"/>
     <use xlink:href="#m493782fd1b" x="210.00603" y="183.985283" style="fill: #ff0000; stroke: #ff0000"/>
     <use xlink:href="#m493782fd1b" x="225.312926" y="179.216728" style="fill: #ff0000; stroke: #ff0000"/>
     <use xlink:href="#m493782fd1b" x="285.685668" y="193.069079" style="fill: #ff0000; stroke: #ff0000"/>
     <use xlink:href="#m493782fd1b" x="194.505939" y="130.048764" style="fill: #ff0000; stroke: #ff0000"/>
     <use xlink:href="#m493782fd1b" x="297.392581" y="115.167596" style="fill: #ff0000; stroke: #ff0000"/>
     <use xlink:href="#m493782fd1b" x="258.15711" y="218.829194" style="fill: #ff0000; stroke: #ff0000"/>
     <use xlink:href="#m493782fd1b" x="256.70908" y="144.06465" style="fill: #ff0000; stroke: #ff0000"/>
     <use xlink:href="#m493782fd1b" x="232.101161" y="139.096085" style="fill: #ff0000; stroke: #ff0000"/>
     <use xlink:href="#m493782fd1b" x="164.221469" y="210.227691" style="fill: #ff0000; stroke: #ff0000"/>
     <use xlink:href="#m493782fd1b" x="201.734105" y="218.587967" style="fill: #ff0000; stroke: #ff0000"/>
     <use xlink:href="#m493782fd1b" x="235.991859" y="219.614699" style="fill: #ff0000; stroke: #ff0000"/>
     <use xlink:href="#m493782fd1b" x="324.873642" y="190.955251" style="fill: #ff0000; stroke: #ff0000"/>
     <use xlink:href="#m493782fd1b" x="129.632023" y="207.61497" style="fill: #ff0000; stroke: #ff0000"/>
     <use xlink:href="#m493782fd1b" x="217.280107" y="182.737655" style="fill: #ff0000; stroke: #ff0000"/>
     <use xlink:href="#m493782fd1b" x="246.656607" y="210.036765" style="fill: #ff0000; stroke: #ff0000"/>
     <use xlink:href="#m493782fd1b" x="338.305244" y="161.001268" style="fill: #ff0000; stroke: #ff0000"/>
     <use xlink:href="#m493782fd1b" x="113.173294" y="200.321362" style="fill: #ff0000; stroke: #ff0000"/>
     <use xlink:href="#m493782fd1b" x="321.395424" y="217.171675" style="fill: #ff0000; stroke: #ff0000"/>
     <use xlink:href="#m493782fd1b" x="308.494291" y="230.546318" style="fill: #ff0000; stroke: #ff0000"/>
     <use xlink:href="#m493782fd1b" x="250.40602" y="133.851784" style="fill: #ff0000; stroke: #ff0000"/>
     <use xlink:href="#m493782fd1b" x="287.72471" y="113.215085" style="fill: #ff0000; stroke: #ff0000"/>
     <use xlink:href="#m493782fd1b" x="144.27467" y="179.922355" style="fill: #ff0000; stroke: #ff0000"/>
     <use xlink:href="#m493782fd1b" x="225.529077" y="199.819354" style="fill: #ff0000; stroke: #ff0000"/>
     <use xlink:href="#m493782fd1b" x="235.108179" y="173.477398" style="fill: #ff0000; stroke: #ff0000"/>
     <use xlink:href="#m493782fd1b" x="271.987716" y="180.492784" style="fill: #ff0000; stroke: #ff0000"/>
     <use xlink:href="#m493782fd1b" x="269.023477" y="191.052812" style="fill: #ff0000; stroke: #ff0000"/>
     <use xlink:href="#m493782fd1b" x="236.103902" y="227.27815" style="fill: #ff0000; stroke: #ff0000"/>
     <use xlink:href="#m493782fd1b" x="251.814209" y="182.573238" style="fill: #ff0000; stroke: #ff0000"/>
     <use xlink:href="#m493782fd1b" x="213.779509" y="124.394695" style="fill: #ff0000; stroke: #ff0000"/>
     <use xlink:href="#m493782fd1b" x="277.755805" y="247.239172" style="fill: #ff0000; stroke: #ff0000"/>
     <use xlink:href="#m493782fd1b" x="182.788386" y="179.711317" style="fill: #ff0000; stroke: #ff0000"/>
     <use xlink:href="#m493782fd1b" x="302.433578" y="195.901812" style="fill: #ff0000; stroke: #ff0000"/>
     <use xlink:href="#m493782fd1b" x="145.87997" y="274.537226" style="fill: #ff0000; stroke: #ff0000"/>
     <use xlink:href="#m493782fd1b" x="294.879882" y="183.052329" style="fill: #ff0000; stroke: #ff0000"/>
     <use xlink:href="#m493782fd1b" x="181.180497" y="145.658026" style="fill: #ff0000; stroke: #ff0000"/>
     <use xlink:href="#m493782fd1b" x="208.835012" y="138.16614" style="fill: #ff0000; stroke: #ff0000"/>
     <use xlink:href="#m493782fd1b" x="263.758851" y="175.229797" style="fill: #ff0000; stroke: #ff0000"/>
     <use xlink:href="#m493782fd1b" x="209.03515" y="118.016246" style="fill: #ff0000; stroke: #ff0000"/>
     <use xlink:href="#m493782fd1b" x="237.683566" y="231.983915" style="fill: #ff0000; stroke: #ff0000"/>
     <use xlink:href="#m493782fd1b" x="185.593124" y="238.815289" style="fill: #ff0000; stroke: #ff0000"/>
     <use xlink:href="#m493782fd1b" x="204.463093" y="157.283388" style="fill: #ff0000; stroke: #ff0000"/>
     <use xlink:href="#m493782fd1b" x="237.065939" y="199.317713" style="fill: #ff0000; stroke: #ff0000"/>
     <use xlink:href="#m493782fd1b" x="175.054835" y="145.507919" style="fill: #ff0000; stroke: #ff0000"/>
     <use xlink:href="#m493782fd1b" x="302.269996" y="239.53601" style="fill: #ff0000; stroke: #ff0000"/>
     <use xlink:href="#m493782fd1b" x="171.556423" y="124.183899" style="fill: #ff0000; stroke: #ff0000"/>
     <use xlink:href="#m493782fd1b" x="335.783981" y="208.338038" style="fill: #ff0000; stroke: #ff0000"/>
     <use xlink:href="#m493782fd1b" x="160.463645" y="162.659544" style="fill: #ff0000; stroke: #ff0000"/>
     <use xlink:href="#m493782fd1b" x="187.542258" y="185.51815" style="fill: #ff0000; stroke: #ff0000"/>
     <use xlink:href="#m493782fd1b" x="197.711091" y="182.19109" style="fill: #ff0000; stroke: #ff0000"/>
     <use xlink:href="#m493782fd1b" x="270.535461" y="178.669849" style="fill: #ff0000; stroke: #ff0000"/>
     <use xlink:href="#m493782fd1b" x="248.174468" y="180.690143" style="fill: #ff0000; stroke: #ff0000"/>
     <use xlink:href="#m493782fd1b" x="229.091311" y="181.741373" style="fill: #ff0000; stroke: #ff0000"/>
     <use xlink:href="#m493782fd1b" x="279.805696" y="81.035109" style="fill: #ff0000; stroke: #ff0000"/>
     <use xlink:href="#m493782fd1b" x="163.493244" y="108.643218" style="fill: #ff0000; stroke: #ff0000"/>
     <use xlink:href="#m493782fd1b" x="210.983223" y="171.668558" style="fill: #ff0000; stroke: #ff0000"/>
     <use xlink:href="#m493782fd1b" x="233.903317" y="249.703238" style="fill: #ff0000; stroke: #ff0000"/>
     <use xlink:href="#m493782fd1b" x="231.229843" y="135.467561" style="fill: #ff0000; stroke: #ff0000"/>
     <use xlink:href="#m493782fd1b" x="302.377609" y="128.052578" style="fill: #ff0000; stroke: #ff0000"/>
     <use xlink:href="#m493782fd1b" x="270.223614" y="179.805608" style="fill: #ff0000; stroke: #ff0000"/>
     <use xlink:href="#m493782fd1b" x="175.986873" y="215.411115" style="fill: #ff0000; stroke: #ff0000"/>
     <use xlink:href="#m493782fd1b" x="146.565186" y="166.594378" style="fill: #ff0000; stroke: #ff0000"/>
     <use xlink:href="#m493782fd1b" x="302.221065" y="240.740594" style="fill: #ff0000; stroke: #ff0000"/>
     <use xlink:href="#m493782fd1b" x="300.902956" y="229.048296" style="fill: #ff0000; stroke: #ff0000"/>
     <use xlink:href="#m493782fd1b" x="126.366208" y="205.574045" style="fill: #ff0000; stroke: #ff0000"/>
     <use xlink:href="#m493782fd1b" x="320.771356" y="124.113444" style="fill: #ff0000; stroke: #ff0000"/>
     <use xlink:href="#m493782fd1b" x="292.000935" y="185.363649" style="fill: #ff0000; stroke: #ff0000"/>
     <use xlink:href="#m493782fd1b" x="189.508116" y="153.082886" style="fill: #ff0000; stroke: #ff0000"/>
     <use xlink:href="#m493782fd1b" x="291.592232" y="139.75019" style="fill: #ff0000; stroke: #ff0000"/>
     <use xlink:href="#m493782fd1b" x="256.125187" y="143.013452" style="fill: #ff0000; stroke: #ff0000"/>
     <use xlink:href="#m493782fd1b" x="260.926195" y="169.643262" style="fill: #ff0000; stroke: #ff0000"/>
     <use xlink:href="#m493782fd1b" x="214.065292" y="131.345812" style="fill: #ff0000; stroke: #ff0000"/>
     <use xlink:href="#m493782fd1b" x="259.087245" y="145.417033" style="fill: #ff0000; stroke: #ff0000"/>
     <use xlink:href="#m493782fd1b" x="209.02352" y="192.932411" style="fill: #ff0000; stroke: #ff0000"/>
     <use xlink:href="#m493782fd1b" x="219.581889" y="213.482172" style="fill: #ff0000; stroke: #ff0000"/>
     <use xlink:href="#m493782fd1b" x="200.370696" y="148.849601" style="fill: #ff0000; stroke: #ff0000"/>
     <use xlink:href="#m493782fd1b" x="251.931702" y="180.236168" style="fill: #ff0000; stroke: #ff0000"/>
     <use xlink:href="#m493782fd1b" x="268.288014" y="123.154715" style="fill: #ff0000; stroke: #ff0000"/>
     <use xlink:href="#m493782fd1b" x="273.2116" y="98.163589" style="fill: #ff0000; stroke: #ff0000"/>
     <use xlink:href="#m493782fd1b" x="249.78681" y="112.557594" style="fill: #ff0000; stroke: #ff0000"/>
     <use xlink:href="#m493782fd1b" x="191.666888" y="174.253578" style="fill: #ff0000; stroke: #ff0000"/>
     <use xlink:href="#m493782fd1b" x="171.509855" y="184.840937" style="fill: #ff0000; stroke: #ff0000"/>
     <use xlink:href="#m493782fd1b" x="259.684892" y="134.375582" style="fill: #ff0000; stroke: #ff0000"/>
    </g>
   </g>
   <g id="line2d_28">
    <path d="M 73.832727 182.815664 
L 74.870877 167.625382 
L 78.452652 152.543958 
L 84.521566 137.809235 
L 92.981909 123.653589 
L 103.700256 110.300264 
L 116.507572 97.959847 
L 131.201879 86.826957 
L 147.551438 77.077164 
L 165.298407 68.864229 
L 184.162905 62.317675 
L 203.847429 57.540745 
L 224.041541 54.608773 
L 244.426769 53.568 
L 264.681624 54.434838 
L 284.486677 57.195617 
L 303.529589 61.806797 
L 321.510042 68.195659 
L 338.144475 76.261445 
L 353.170551 85.876953 
L 366.351301 96.890541 
L 377.478856 109.128518 
L 386.377729 122.397884 
L 392.907578 136.489374 
L 396.965424 151.180755 
L 398.487273 166.240336 
L 397.449123 181.430618 
L 393.867348 196.512042 
L 387.798434 211.246765 
L 379.338091 225.402411 
L 368.619744 238.755736 
L 355.812428 251.096153 
L 341.118121 262.229043 
L 324.768562 271.978836 
L 307.021593 280.191771 
L 288.157095 286.738325 
L 268.472571 291.515255 
L 248.278459 294.447227 
L 227.893231 295.488 
L 207.638376 294.621162 
L 187.833323 291.860383 
L 168.790411 287.249203 
L 150.809958 280.860341 
L 134.175525 272.794555 
L 119.149449 263.179047 
L 105.968699 252.165459 
L 94.841144 239.927482 
L 85.942271 226.658116 
L 79.412422 212.566626 
L 75.354576 197.875245 
L 73.832727 182.815664 
" clip-path="url(#pa0ae8aa8cc)" style="fill: none; stroke: #ff0000; stroke-width: 1.5; stroke-linecap: square"/>
   </g>
   <g id="patch_6">
    <path d="M 57.6 307.584 
L 57.6 41.472 
" style="fill: none; stroke: #000000; stroke-width: 0.8; stroke-linejoin: miter; stroke-linecap: square"/>
   </g>
   <g id="patch_7">
    <path d="M 414.72 307.584 
L 414.72 41.472 
" style="fill: none; stroke: #000000; stroke-width: 0.8; stroke-linejoin: miter; stroke-linecap: square"/>
   </g>
   <g id="patch_8">
    <path d="M 57.6 307.584 
L 414.72 307.584 
" style="fill: none; stroke: #000000; stroke-width: 0.8; stroke-linejoin: miter; stroke-linecap: square"/>
   </g>
   <g id="patch_9">
    <path d="M 57.6 41.472 
L 414.72 41.472 
" style="fill: none; stroke: #000000; stroke-width: 0.8; stroke-linejoin: miter; stroke-linecap: square"/>
   </g>
   <g id="legend_1">
    <g id="patch_10">
     <path d="M 64.6 105.220713 
L 173.357417 105.220713 
Q 175.357417 105.220713 175.357417 103.220713 
L 175.357417 48.472 
Q 175.357417 46.472 173.357417 46.472 
L 64.6 46.472 
Q 62.6 46.472 62.6 48.472 
L 62.6 103.220713 
Q 62.6 105.220713 64.6 105.220713 
z
" style="fill: #ffffff; opacity: 0.8; stroke: #cccccc; stroke-linejoin: miter"/>
    </g>
    <g id="line2d_29">
     <path d="M 66.6 53.972 
L 76.6 53.972 
L 86.6 53.972 
" style="fill: none; stroke: #0000ff; stroke-width: 1.5; stroke-linecap: square"/>
    </g>
    <g id="text_15">
     <!-- Censi's cov $3\sigma$. -->
     <g transform="translate(94.6 57.472) scale(0.1 -0.1)">
      <defs>
       <path id="CMSS17-43" d="M 3501 714 
C 3072 427 2874 344 2355 344 
C 1459 344 934 1303 934 2179 
C 934 3112 1472 4032 2381 4032 
C 2790 4032 3059 3918 3386 3715 
L 3475 4217 
C 3168 4370 2778 4440 2387 4440 
C 1158 4440 397 3316 397 2179 
C 397 927 1299 -64 2323 -64 
C 2874 -64 3066 -19 3539 280 
L 3501 714 
z
" transform="scale(0.015625)"/>
       <path id="CMSS17-65" d="M 2502 1377 
C 2502 1590 2490 2003 2285 2345 
C 2061 2713 1696 2816 1421 2816 
C 755 2816 192 2188 192 1375 
C 192 582 774 -64 1510 -64 
C 1798 -64 2150 19 2470 248 
C 2470 274 2458 414 2451 420 
C 2451 433 2432 630 2432 656 
C 2125 407 1773 325 1517 325 
C 1107 325 666 667 646 1377 
L 2502 1377 
z
M 698 1728 
C 781 2084 1062 2421 1421 2421 
C 1517 2421 1965 2421 2080 1728 
L 698 1728 
z
" transform="scale(0.015625)"/>
       <path id="CMSS17-6e" d="M 2618 1877 
C 2618 2283 2522 2816 1798 2816 
C 1389 2816 1120 2606 941 2389 
L 941 2758 
L 474 2758 
L 474 0 
L 960 0 
L 960 1559 
C 960 1964 1114 2428 1549 2428 
C 2112 2428 2131 2048 2131 1829 
L 2131 0 
L 2618 0 
L 2618 1877 
z
" transform="scale(0.015625)"/>
       <path id="CMSS17-73" d="M 2061 2627 
C 1683 2807 1389 2807 1197 2807 
C 742 2807 198 2648 198 2003 
C 198 1359 902 1218 1094 1179 
C 1389 1122 1715 1058 1715 740 
C 1715 337 1254 337 1171 337 
C 915 337 563 407 243 638 
L 166 210 
C 531 0 883 -64 1178 -64 
C 1965 -64 2163 416 2163 781 
C 2163 1094 1984 1305 1862 1401 
C 1651 1568 1574 1587 1050 1696 
C 960 1709 646 1779 646 2066 
C 646 2432 1050 2432 1139 2432 
C 1555 2432 1811 2303 1984 2208 
L 2061 2627 
z
" transform="scale(0.015625)"/>
       <path id="CMSS17-69" d="M 979 4183 
L 442 4183 
L 442 3648 
L 979 3648 
L 979 4183 
z
M 947 2739 
L 474 2739 
L 474 0 
L 947 0 
L 947 2739 
z
" transform="scale(0.015625)"/>
       <path id="CMSS17-27" d="M 1088 3910 
L 1088 4413 
L 576 4413 
L 576 3904 
L 736 3904 
L 570 3104 
L 826 3104 
L 1088 3910 
z
" transform="scale(0.015625)"/>
       <path id="CMSS17-63" d="M 2464 2541 
C 2464 2585 2170 2714 2093 2739 
C 1882 2816 1613 2816 1542 2816 
C 710 2816 211 2093 211 1363 
C 211 595 768 -64 1517 -64 
C 1946 -64 2253 76 2502 242 
L 2464 664 
C 2189 453 1869 337 1523 337 
C 1024 337 698 774 698 1369 
C 698 1831 909 2414 1549 2414 
C 1901 2414 2099 2343 2394 2145 
L 2464 2541 
z
" transform="scale(0.015625)"/>
       <path id="CMSS17-6f" d="M 2829 1356 
C 2829 2176 2221 2816 1504 2816 
C 768 2816 173 2157 173 1356 
C 173 544 787 -64 1498 -64 
C 2227 -64 2829 563 2829 1356 
z
M 1504 337 
C 1050 337 659 709 659 1408 
C 659 2151 1114 2427 1498 2427 
C 1914 2427 2342 2126 2342 1408 
C 2342 683 1926 337 1504 337 
z
" transform="scale(0.015625)"/>
       <path id="CMSS17-76" d="M 2675 2752 
L 2176 2752 
L 1747 1556 
C 1613 1165 1421 627 1389 352 
L 1382 352 
C 1370 468 1318 634 1286 749 
C 1248 890 1197 1056 1158 1172 
L 595 2752 
L 83 2752 
L 1094 0 
L 1664 0 
L 2675 2752 
z
" transform="scale(0.015625)"/>
       <path id="CMR17-33" d="M 1414 2157 
C 1984 2157 2234 1662 2234 1090 
C 2234 320 1824 25 1453 25 
C 1114 25 563 194 390 693 
C 422 680 454 680 486 680 
C 640 680 755 782 755 948 
C 755 1133 614 1216 486 1216 
C 378 1216 211 1165 211 926 
C 211 335 787 -128 1466 -128 
C 2176 -128 2720 430 2720 1085 
C 2720 1707 2208 2157 1600 2227 
C 2086 2328 2554 2756 2554 3329 
C 2554 3820 2048 4179 1472 4179 
C 890 4179 378 3829 378 3329 
C 378 3110 544 3072 627 3072 
C 762 3072 877 3155 877 3321 
C 877 3486 762 3569 627 3569 
C 602 3569 570 3569 544 3557 
C 730 3959 1235 4032 1459 4032 
C 1683 4032 2106 3925 2106 3320 
C 2106 3143 2080 2828 1862 2550 
C 1670 2304 1453 2304 1242 2284 
C 1210 2284 1062 2269 1037 2269 
C 992 2263 966 2257 966 2208 
C 966 2163 973 2157 1101 2157 
L 1414 2157 
z
" transform="scale(0.015625)"/>
       <path id="CMMI12-1b" d="M 3251 2408 
C 3334 2408 3546 2408 3546 2612 
C 3546 2752 3424 2752 3309 2752 
L 1894 2752 
C 934 2752 243 1686 243 932 
C 243 390 595 -64 1171 -64 
C 1926 -64 2752 747 2752 1705 
C 2752 1954 2694 2196 2541 2408 
L 3251 2408 
z
M 1178 64 
C 851 64 614 313 614 754 
C 614 1137 845 2408 1786 2408 
C 2061 2408 2368 2274 2368 1781 
C 2368 1558 2266 1021 2042 652 
C 1811 275 1466 64 1178 64 
z
" transform="scale(0.015625)"/>
       <path id="CMSS17-2e" d="M 1088 510 
L 576 510 
L 576 0 
L 1088 0 
L 1088 510 
z
" transform="scale(0.015625)"/>
      </defs>
      <use xlink:href="#CMSS17-43" transform="scale(0.996264)"/>
      <use xlink:href="#CMSS17-65" transform="translate(59.855772 0) scale(0.996264)"/>
      <use xlink:href="#CMSS17-6e" transform="translate(101.494594 0) scale(0.996264)"/>
      <use xlink:href="#CMSS17-73" transform="translate(149.699537 0) scale(0.996264)"/>
      <use xlink:href="#CMSS17-69" transform="translate(185.613079 0) scale(0.996264)"/>
      <use xlink:href="#CMSS17-27" transform="translate(207.793802 0) scale(0.996264)"/>
      <use xlink:href="#CMSS17-73" transform="translate(233.818007 0) scale(0.996264)"/>
      <use xlink:href="#CMSS17-63" transform="translate(300.960661 0) scale(0.996264)"/>
      <use xlink:href="#CMSS17-6f" transform="translate(342.599484 0) scale(0.996264)"/>
      <use xlink:href="#CMSS17-76" transform="translate(389.443107 0) scale(0.996264)"/>
      <use xlink:href="#CMR17-33" transform="translate(463.672361 0) scale(0.996264)"/>
      <use xlink:href="#CMMI12-1b" transform="translate(509.362839 0) scale(0.996264)"/>
      <use xlink:href="#CMSS17-2e" transform="translate(568.382892 0) scale(0.996264)"/>
     </g>
    </g>
    <g id="line2d_30">
     <path d="M 66.6 67.909178 
L 76.6 67.909178 
L 86.6 67.909178 
" style="fill: none; stroke: #008000; stroke-width: 1.5; stroke-linecap: square"/>
    </g>
    <g id="text_16">
     <!-- Brossard's cov $3\sigma$. -->
     <g transform="translate(94.6 71.409178) scale(0.1 -0.1)">
      <defs>
       <path id="CMSS17-42" d="M 570 4416 
L 570 0 
L 2163 0 
C 3034 0 3667 574 3667 1200 
C 3667 1685 3251 2176 2502 2317 
C 3334 2558 3501 3040 3501 3313 
C 3501 3883 2874 4416 1997 4416 
L 570 4416 
z
M 1088 2496 
L 1088 4059 
L 1824 4059 
C 2483 4059 3002 3724 3002 3306 
C 3002 2926 2592 2496 1766 2496 
L 1088 2496 
z
M 1088 357 
L 1088 2107 
L 1939 2107 
C 2630 2107 3162 1679 3162 1206 
C 3162 772 2694 357 1984 357 
L 1088 357 
z
" transform="scale(0.015625)"/>
       <path id="CMSS17-72" d="M 954 1363 
C 954 1965 1395 2368 1958 2368 
L 1958 2789 
C 1549 2789 1165 2585 934 2253 
L 934 2758 
L 480 2758 
L 480 0 
L 954 0 
L 954 1363 
z
" transform="scale(0.015625)"/>
       <path id="CMSS17-61" d="M 2406 1791 
C 2406 2392 1978 2808 1402 2808 
C 1120 2808 813 2757 461 2553 
L 499 2135 
C 659 2248 934 2432 1395 2432 
C 1722 2432 1920 2180 1920 1782 
L 1920 1536 
C 896 1536 256 1238 256 726 
C 256 461 416 -64 947 -64 
C 1043 -64 1562 -64 1933 217 
L 1933 -19 
L 2406 -19 
L 2406 1791 
z
M 1920 816 
C 1920 701 1920 548 1728 434 
C 1562 325 1350 325 1261 325 
C 941 325 723 511 723 744 
C 723 1211 1722 1211 1920 1211 
L 1920 816 
z
" transform="scale(0.015625)"/>
       <path id="CMSS17-64" d="M 2611 4416 
L 2138 4416 
L 2138 2438 
C 1939 2603 1613 2756 1254 2756 
C 672 2756 211 2131 211 1347 
C 211 562 666 -64 1235 -64 
C 1677 -64 1971 172 2125 306 
L 2125 -13 
L 2611 -13 
L 2611 4416 
z
M 2125 836 
C 2125 747 2125 653 1926 482 
C 1798 375 1645 325 1498 325 
C 1152 325 698 576 698 1340 
C 698 2134 1210 2368 1562 2368 
C 1798 2368 1990 2254 2125 2065 
L 2125 836 
z
" transform="scale(0.015625)"/>
      </defs>
      <use xlink:href="#CMSS17-42" transform="scale(0.996264)"/>
      <use xlink:href="#CMSS17-72" transform="translate(62.33804 0) scale(0.996264)"/>
      <use xlink:href="#CMSS17-6f" transform="translate(94.247813 0) scale(0.996264)"/>
      <use xlink:href="#CMSS17-73" transform="translate(141.091436 0) scale(0.996264)"/>
      <use xlink:href="#CMSS17-73" transform="translate(177.004978 0) scale(0.996264)"/>
      <use xlink:href="#CMSS17-61" transform="translate(212.91852 0) scale(0.996264)"/>
      <use xlink:href="#CMSS17-72" transform="translate(255.237987 0) scale(0.996264)"/>
      <use xlink:href="#CMSS17-64" transform="translate(287.14776 0) scale(0.996264)"/>
      <use xlink:href="#CMSS17-27" transform="translate(335.352703 0) scale(0.996264)"/>
      <use xlink:href="#CMSS17-73" transform="translate(361.376908 0) scale(0.996264)"/>
      <use xlink:href="#CMSS17-63" transform="translate(428.519562 0) scale(0.996264)"/>
      <use xlink:href="#CMSS17-6f" transform="translate(470.158384 0) scale(0.996264)"/>
      <use xlink:href="#CMSS17-76" transform="translate(517.002008 0) scale(0.996264)"/>
      <use xlink:href="#CMR17-33" transform="translate(591.231262 0) scale(0.996264)"/>
      <use xlink:href="#CMMI12-1b" transform="translate(636.921739 0) scale(0.996264)"/>
      <use xlink:href="#CMSS17-2e" transform="translate(695.941793 0) scale(0.996264)"/>
     </g>
    </g>
    <g id="line2d_31">
     <g>
      <use xlink:href="#m493782fd1b" x="76.6" y="81.846357" style="fill: #ff0000; stroke: #ff0000"/>
     </g>
    </g>
    <g id="text_17">
     <!-- Samples. -->
     <g transform="translate(94.6 85.346357) scale(0.1 -0.1)">
      <defs>
       <path id="CMSS17-53" d="M 2797 4169 
C 2515 4334 2208 4480 1690 4480 
C 864 4480 333 3879 333 3266 
C 333 3025 403 2753 653 2475 
C 902 2196 1184 2121 1542 2033 
C 1690 1994 1939 1924 1984 1906 
C 2342 1767 2515 1444 2515 1140 
C 2515 742 2202 318 1645 318 
C 1453 318 890 318 358 819 
L 269 318 
C 794 -64 1363 -128 1651 -128 
C 2438 -128 3002 488 3002 1186 
C 3002 1440 2925 1763 2656 2061 
C 2394 2347 2163 2410 1638 2549 
C 1338 2626 1146 2677 986 2873 
C 877 3013 819 3146 819 3317 
C 819 3673 1126 4060 1690 4060 
C 1971 4060 2336 4002 2707 3660 
L 2797 4169 
z
" transform="scale(0.015625)"/>
       <path id="CMSS17-70" d="M 966 333 
C 1178 129 1466 -5 1773 -5 
C 2368 -5 2880 603 2880 1412 
C 2880 2159 2496 2816 1946 2816 
C 1626 2816 1242 2702 954 2472 
L 954 2765 
L 480 2765 
L 480 -1216 
L 966 -1216 
L 966 333 
z
M 966 2100 
C 1018 2176 1235 2415 1587 2415 
C 2035 2415 2394 1960 2394 1412 
C 2394 787 1958 384 1530 384 
C 1402 384 1267 415 1139 523 
C 966 674 966 768 966 857 
L 966 2100 
z
" transform="scale(0.015625)"/>
       <path id="CMSS17-6c" d="M 947 4416 
L 474 4416 
L 474 0 
L 947 0 
L 947 4416 
z
" transform="scale(0.015625)"/>
      </defs>
      <use xlink:href="#CMSS17-53" transform="scale(0.996264)"/>
      <use xlink:href="#CMSS17-61" transform="translate(52.048516 0) scale(0.996264)"/>
      <use xlink:href="#CMSS17-6d" transform="translate(96.970437 0) scale(0.996264)"/>
      <use xlink:href="#CMSS17-70" transform="translate(171.199691 0) scale(0.996264)"/>
      <use xlink:href="#CMSS17-6c" transform="translate(219.404634 0) scale(0.996264)"/>
      <use xlink:href="#CMSS17-65" transform="translate(241.585357 0) scale(0.996264)"/>
      <use xlink:href="#CMSS17-73" transform="translate(283.224179 0) scale(0.996264)"/>
      <use xlink:href="#CMSS17-2e" transform="translate(319.137721 0) scale(0.996264)"/>
     </g>
    </g>
    <g id="line2d_32">
     <path d="M 66.6 95.783535 
L 76.6 95.783535 
L 86.6 95.783535 
" style="fill: none; stroke: #ff0000; stroke-width: 1.5; stroke-linecap: square"/>
    </g>
    <g id="text_18">
     <!-- Sample cov $3\sigma$. -->
     <g transform="translate(94.6 99.283535) scale(0.1 -0.1)">
      <use xlink:href="#CMSS17-53" transform="scale(0.996264)"/>
      <use xlink:href="#CMSS17-61" transform="translate(52.048516 0) scale(0.996264)"/>
      <use xlink:href="#CMSS17-6d" transform="translate(96.970437 0) scale(0.996264)"/>
      <use xlink:href="#CMSS17-70" transform="translate(171.199691 0) scale(0.996264)"/>
      <use xlink:href="#CMSS17-6c" transform="translate(219.404634 0) scale(0.996264)"/>
      <use xlink:href="#CMSS17-65" transform="translate(241.585357 0) scale(0.996264)"/>
      <use xlink:href="#CMSS17-63" transform="translate(314.453292 0) scale(0.996264)"/>
      <use xlink:href="#CMSS17-6f" transform="translate(356.092114 0) scale(0.996264)"/>
      <use xlink:href="#CMSS17-76" transform="translate(402.935738 0) scale(0.996264)"/>
      <use xlink:href="#CMR17-33" transform="translate(477.164992 0) scale(0.996264)"/>
      <use xlink:href="#CMMI12-1b" transform="translate(522.855469 0) scale(0.996264)"/>
      <use xlink:href="#CMSS17-2e" transform="translate(581.875523 0) scale(0.996264)"/>
     </g>
    </g>
   </g>
  </g>
 </g>
 <defs>
  <clipPath id="pa0ae8aa8cc">
   <rect x="57.6" y="41.472" width="357.12" height="266.112"/>
  </clipPath>
 </defs>
</svg>
