<?xml version="1.0" encoding="utf-8" standalone="no"?>
<!DOCTYPE svg PUBLIC "-//W3C//DTD SVG 1.1//EN"
  "http://www.w3.org/Graphics/SVG/1.1/DTD/svg11.dtd">
<svg xmlns:xlink="http://www.w3.org/1999/xlink" width="460.8pt" height="345.6pt" viewBox="0 0 460.8 345.6" xmlns="http://www.w3.org/2000/svg" version="1.1">
 <metadata>
  <rdf:RDF xmlns:dc="http://purl.org/dc/elements/1.1/" xmlns:cc="http://creativecommons.org/ns#" xmlns:rdf="http://www.w3.org/1999/02/22-rdf-syntax-ns#">
   <cc:Work>
    <dc:type rdf:resource="http://purl.org/dc/dcmitype/StillImage"/>
    <dc:date>2022-12-17T15:06:10.646900</dc:date>
    <dc:format>image/svg+xml</dc:format>
    <dc:creator>
     <cc:Agent>
      <dc:title>Matplotlib v3.6.0, https://matplotlib.org/</dc:title>
     </cc:Agent>
    </dc:creator>
   </cc:Work>
  </rdf:RDF>
 </metadata>
 <defs>
  <style type="text/css">*{stroke-linejoin: round; stroke-linecap: butt}</style>
 </defs>
 <g id="figure_1">
  <g id="patch_1">
   <path d="M 0 345.6 
L 460.8 345.6 
L 460.8 0 
L 0 0 
z
" style="fill: #ffffff"/>
  </g>
  <g id="axes_1">
   <g id="patch_2">
    <path d="M 57.6 307.584 
L 414.72 307.584 
L 414.72 41.472 
L 57.6 41.472 
z
" style="fill: #ffffff"/>
   </g>
   <g id="patch_3">
    <path d="M 237.359207 161.658386 
L 238.190932 161.927415 
L 238.990628 162.395164 
L 239.745683 163.054254 
L 240.44419 163.894292 
L 241.075132 164.90203 
L 241.62856 166.061575 
L 242.095746 167.354641 
L 242.469321 168.760835 
L 242.743394 170.25798 
L 242.913644 171.822467 
L 242.977384 173.429621 
L 242.933611 175.054097 
L 242.783013 176.670277 
L 242.527966 178.252671 
L 242.172493 179.776326 
L 241.722199 181.217211 
L 241.184186 182.552603 
L 240.566939 183.761442 
L 239.880191 184.824665 
L 239.134774 185.725502 
L 238.342443 186.449749 
L 237.515694 186.985983 
L 236.667564 187.325746 
L 235.81143 187.463682 
L 234.960793 187.397614 
L 234.129068 187.128585 
L 233.329372 186.660836 
L 232.574317 186.001746 
L 231.87581 185.161708 
L 231.244868 184.15397 
L 230.69144 182.994425 
L 230.224254 181.701359 
L 229.850679 180.295165 
L 229.576606 178.79802 
L 229.406356 177.233533 
L 229.342616 175.626379 
L 229.386389 174.001903 
L 229.536987 172.385723 
L 229.792034 170.803329 
L 230.147507 169.279674 
L 230.597801 167.838789 
L 231.135814 166.503397 
L 231.753061 165.294558 
L 232.439809 164.231335 
L 233.185226 163.330498 
L 233.977557 162.606251 
L 234.804306 162.070017 
L 235.652436 161.730254 
L 236.50857 161.592318 
L 237.359207 161.658386 
L 237.359207 161.658386 
z
" clip-path="url(#p1592cfb4df)" style="fill: none; opacity: 0"/>
   </g>
   <g id="patch_4">
    <path d="M 128.584933 165.000749 
L 129.894262 153.947535 
L 132.879464 143.218887 
L 137.493462 132.984003 
L 143.66349 123.404293 
L 151.292244 114.630834 
L 160.259412 106.801989 
L 170.423579 100.041223 
L 181.624448 94.455159 
L 193.685375 90.131891 
L 206.416152 87.1396 
L 219.616008 85.525477 
L 233.076772 85.314976 
L 246.586161 86.511418 
L 259.931123 89.095934 
L 272.9012 93.027765 
L 285.291846 98.244904 
L 296.907654 104.665072 
L 307.565435 112.18702 
L 317.09711 120.692123 
L 325.352358 130.04625 
L 332.200989 140.10188 
L 337.534997 150.700432 
L 341.27026 161.674758 
L 343.347872 172.851787 
L 343.735067 184.055251 
L 342.425738 195.108465 
L 339.440536 205.837113 
L 334.826538 216.071997 
L 328.65651 225.651707 
L 321.027756 234.425166 
L 312.060588 242.254011 
L 301.896421 249.014777 
L 290.695552 254.600841 
L 278.634625 258.924109 
L 265.903848 261.9164 
L 252.703992 263.530523 
L 239.243228 263.741024 
L 225.733839 262.544582 
L 212.388877 259.960066 
L 199.4188 256.028235 
L 187.028154 250.811096 
L 175.412346 244.390928 
L 164.754565 236.86898 
L 155.22289 228.363877 
L 146.967642 219.00975 
L 140.119011 208.95412 
L 134.785003 198.355568 
L 131.04974 187.381242 
L 128.972128 176.204213 
L 128.584933 165.000749 
L 128.584933 165.000749 
z
" clip-path="url(#p1592cfb4df)" style="fill: none; opacity: 0"/>
   </g>
   <g id="patch_5">
    <path d="M 74.498931 222.741823 
L 73.832727 208.450243 
L 75.726521 193.623688 
L 80.150448 178.495983 
L 87.034737 163.305701 
L 96.270822 148.292401 
L 107.713042 133.692852 
L 121.180947 119.737297 
L 136.462141 106.645825 
L 153.31563 94.624895 
L 171.475624 83.864085 
L 190.655729 74.533099 
L 210.553463 66.779092 
L 230.855028 60.72435 
L 251.240256 56.46436 
L 271.387659 54.066303 
L 290.979501 53.568 
L 309.706806 54.977308 
L 327.274234 58.272002 
L 343.404737 63.400122 
L 357.843926 70.280796 
L 370.364087 78.80551 
L 380.767769 88.839825 
L 388.8909 100.225493 
L 394.605373 112.782957 
L 397.821069 126.314177 
L 398.487273 140.605757 
L 396.593479 155.432312 
L 392.169552 170.560017 
L 385.285263 185.750299 
L 376.049178 200.763599 
L 364.606958 215.363148 
L 351.139053 229.318703 
L 335.857859 242.410175 
L 319.00437 254.431105 
L 300.844376 265.191915 
L 281.664271 274.522901 
L 261.766537 282.276908 
L 241.464972 288.33165 
L 221.079744 292.59164 
L 200.932341 294.989697 
L 181.340499 295.488 
L 162.613194 294.078692 
L 145.045766 290.783998 
L 128.915263 285.655878 
L 114.476074 278.775204 
L 101.955913 270.25049 
L 91.552231 260.216175 
L 83.4291 248.830507 
L 77.714627 236.273043 
L 74.498931 222.741823 
L 74.498931 222.741823 
z
" clip-path="url(#p1592cfb4df)" style="fill: none; opacity: 0"/>
   </g>
   <g id="matplotlib.axis_1">
    <g id="xtick_1">
     <g id="line2d_1">
      <path d="M 67.660412 307.584 
L 67.660412 41.472 
" clip-path="url(#p1592cfb4df)" style="fill: none; stroke: #b0b0b0; stroke-width: 0.8; stroke-linecap: square"/>
     </g>
     <g id="line2d_2">
      <defs>
       <path id="m25dfa66293" d="M 0 0 
L 0 3.5 
" style="stroke: #000000; stroke-width: 0.8"/>
      </defs>
      <g>
       <use xlink:href="#m25dfa66293" x="67.660412" y="307.584" style="stroke: #000000; stroke-width: 0.8"/>
      </g>
     </g>
     <g id="text_1">
      <!-- $\mathdefault{−0.04}$ -->
      <g transform="translate(54.930333 321.502498) scale(0.1 -0.1)">
       <defs>
        <path id="CMSY10-0" d="M 4218 1472 
C 4326 1472 4442 1472 4442 1600 
C 4442 1728 4326 1728 4218 1728 
L 755 1728 
C 646 1728 531 1728 531 1600 
C 531 1472 646 1472 755 1472 
L 4218 1472 
z
" transform="scale(0.015625)"/>
        <path id="CMR17-30" d="M 2688 2025 
C 2688 2416 2682 3080 2413 3591 
C 2176 4039 1798 4198 1466 4198 
C 1158 4198 768 4058 525 3597 
C 269 3118 243 2524 243 2025 
C 243 1661 250 1106 448 619 
C 723 -39 1216 -128 1466 -128 
C 1760 -128 2208 -7 2470 600 
C 2662 1042 2688 1559 2688 2025 
z
M 1466 -26 
C 1056 -26 813 325 723 812 
C 653 1188 653 1738 653 2096 
C 653 2588 653 2997 736 3387 
C 858 3929 1216 4096 1466 4096 
C 1728 4096 2067 3923 2189 3400 
C 2272 3036 2278 2607 2278 2096 
C 2278 1680 2278 1169 2202 792 
C 2067 95 1690 -26 1466 -26 
z
" transform="scale(0.015625)"/>
        <path id="CMMI12-3a" d="M 1178 307 
C 1178 492 1024 619 870 619 
C 685 619 557 466 557 313 
C 557 128 710 0 864 0 
C 1050 0 1178 153 1178 307 
z
" transform="scale(0.015625)"/>
        <path id="CMR17-34" d="M 2150 4122 
C 2150 4256 2144 4256 2029 4256 
L 128 1254 
L 128 1088 
L 1779 1088 
L 1779 457 
C 1779 224 1766 160 1318 160 
L 1197 160 
L 1197 0 
C 1402 0 1747 0 1965 0 
C 2182 0 2528 0 2733 0 
L 2733 160 
L 2611 160 
C 2163 160 2150 224 2150 457 
L 2150 1088 
L 2803 1088 
L 2803 1254 
L 2150 1254 
L 2150 4122 
z
M 1798 3703 
L 1798 1254 
L 256 1254 
L 1798 3703 
z
" transform="scale(0.015625)"/>
       </defs>
       <use xlink:href="#CMSY10-0" transform="scale(0.996264)"/>
       <use xlink:href="#CMR17-30" transform="translate(77.487468 0) scale(0.996264)"/>
       <use xlink:href="#CMMI12-3a" transform="translate(123.177945 0) scale(0.996264)"/>
       <use xlink:href="#CMR17-30" transform="translate(150.275122 0) scale(0.996264)"/>
       <use xlink:href="#CMR17-34" transform="translate(195.965599 0) scale(0.996264)"/>
      </g>
     </g>
    </g>
    <g id="xtick_2">
     <g id="line2d_3">
      <path d="M 108.971505 307.584 
L 108.971505 41.472 
" clip-path="url(#p1592cfb4df)" style="fill: none; stroke: #b0b0b0; stroke-width: 0.8; stroke-linecap: square"/>
     </g>
     <g id="line2d_4">
      <g>
       <use xlink:href="#m25dfa66293" x="108.971505" y="307.584" style="stroke: #000000; stroke-width: 0.8"/>
      </g>
     </g>
     <g id="text_2">
      <!-- $\mathdefault{−0.03}$ -->
      <g transform="translate(96.241426 321.502498) scale(0.1 -0.1)">
       <defs>
        <path id="CMR17-33" d="M 1414 2157 
C 1984 2157 2234 1662 2234 1090 
C 2234 320 1824 25 1453 25 
C 1114 25 563 194 390 693 
C 422 680 454 680 486 680 
C 640 680 755 782 755 948 
C 755 1133 614 1216 486 1216 
C 378 1216 211 1165 211 926 
C 211 335 787 -128 1466 -128 
C 2176 -128 2720 430 2720 1085 
C 2720 1707 2208 2157 1600 2227 
C 2086 2328 2554 2756 2554 3329 
C 2554 3820 2048 4179 1472 4179 
C 890 4179 378 3829 378 3329 
C 378 3110 544 3072 627 3072 
C 762 3072 877 3155 877 3321 
C 877 3486 762 3569 627 3569 
C 602 3569 570 3569 544 3557 
C 730 3959 1235 4032 1459 4032 
C 1683 4032 2106 3925 2106 3320 
C 2106 3143 2080 2828 1862 2550 
C 1670 2304 1453 2304 1242 2284 
C 1210 2284 1062 2269 1037 2269 
C 992 2263 966 2257 966 2208 
C 966 2163 973 2157 1101 2157 
L 1414 2157 
z
" transform="scale(0.015625)"/>
       </defs>
       <use xlink:href="#CMSY10-0" transform="scale(0.996264)"/>
       <use xlink:href="#CMR17-30" transform="translate(77.487468 0) scale(0.996264)"/>
       <use xlink:href="#CMMI12-3a" transform="translate(123.177945 0) scale(0.996264)"/>
       <use xlink:href="#CMR17-30" transform="translate(150.275122 0) scale(0.996264)"/>
       <use xlink:href="#CMR17-33" transform="translate(195.965599 0) scale(0.996264)"/>
      </g>
     </g>
    </g>
    <g id="xtick_3">
     <g id="line2d_5">
      <path d="M 150.282598 307.584 
L 150.282598 41.472 
" clip-path="url(#p1592cfb4df)" style="fill: none; stroke: #b0b0b0; stroke-width: 0.8; stroke-linecap: square"/>
     </g>
     <g id="line2d_6">
      <g>
       <use xlink:href="#m25dfa66293" x="150.282598" y="307.584" style="stroke: #000000; stroke-width: 0.8"/>
      </g>
     </g>
     <g id="text_3">
      <!-- $\mathdefault{−0.02}$ -->
      <g transform="translate(137.552519 321.502498) scale(0.1 -0.1)">
       <defs>
        <path id="CMR17-32" d="M 2669 989 
L 2554 989 
C 2490 536 2438 459 2413 420 
C 2381 369 1920 369 1830 369 
L 602 369 
C 832 619 1280 1072 1824 1597 
C 2214 1967 2669 2402 2669 3035 
C 2669 3790 2067 4224 1395 4224 
C 691 4224 262 3604 262 3030 
C 262 2780 448 2748 525 2748 
C 589 2748 781 2787 781 3010 
C 781 3207 614 3264 525 3264 
C 486 3264 448 3258 422 3245 
C 544 3790 915 4058 1306 4058 
C 1862 4058 2227 3617 2227 3035 
C 2227 2479 1901 2000 1536 1584 
L 262 146 
L 262 0 
L 2515 0 
L 2669 989 
z
" transform="scale(0.015625)"/>
       </defs>
       <use xlink:href="#CMSY10-0" transform="scale(0.996264)"/>
       <use xlink:href="#CMR17-30" transform="translate(77.487468 0) scale(0.996264)"/>
       <use xlink:href="#CMMI12-3a" transform="translate(123.177945 0) scale(0.996264)"/>
       <use xlink:href="#CMR17-30" transform="translate(150.275122 0) scale(0.996264)"/>
       <use xlink:href="#CMR17-32" transform="translate(195.965599 0) scale(0.996264)"/>
      </g>
     </g>
    </g>
    <g id="xtick_4">
     <g id="line2d_7">
      <path d="M 191.59369 307.584 
L 191.59369 41.472 
" clip-path="url(#p1592cfb4df)" style="fill: none; stroke: #b0b0b0; stroke-width: 0.8; stroke-linecap: square"/>
     </g>
     <g id="line2d_8">
      <g>
       <use xlink:href="#m25dfa66293" x="191.59369" y="307.584" style="stroke: #000000; stroke-width: 0.8"/>
      </g>
     </g>
     <g id="text_4">
      <!-- $\mathdefault{−0.01}$ -->
      <g transform="translate(178.863611 321.502498) scale(0.1 -0.1)">
       <defs>
        <path id="CMR17-31" d="M 1702 4058 
C 1702 4192 1696 4192 1606 4192 
C 1357 3916 979 3827 621 3827 
C 602 3827 570 3827 563 3808 
C 557 3795 557 3782 557 3648 
C 755 3648 1088 3686 1344 3839 
L 1344 461 
C 1344 236 1331 160 781 160 
L 589 160 
L 589 0 
C 896 0 1216 0 1523 0 
C 1830 0 2150 0 2458 0 
L 2458 160 
L 2266 160 
C 1715 160 1702 230 1702 458 
L 1702 4058 
z
" transform="scale(0.015625)"/>
       </defs>
       <use xlink:href="#CMSY10-0" transform="scale(0.996264)"/>
       <use xlink:href="#CMR17-30" transform="translate(77.487468 0) scale(0.996264)"/>
       <use xlink:href="#CMMI12-3a" transform="translate(123.177945 0) scale(0.996264)"/>
       <use xlink:href="#CMR17-30" transform="translate(150.275122 0) scale(0.996264)"/>
       <use xlink:href="#CMR17-31" transform="translate(195.965599 0) scale(0.996264)"/>
      </g>
     </g>
    </g>
    <g id="xtick_5">
     <g id="line2d_9">
      <path d="M 232.904783 307.584 
L 232.904783 41.472 
" clip-path="url(#p1592cfb4df)" style="fill: none; stroke: #b0b0b0; stroke-width: 0.8; stroke-linecap: square"/>
     </g>
     <g id="line2d_10">
      <g>
       <use xlink:href="#m25dfa66293" x="232.904783" y="307.584" style="stroke: #000000; stroke-width: 0.8"/>
      </g>
     </g>
     <g id="text_5">
      <!-- $\mathdefault{0.00}$ -->
      <g transform="translate(224.049076 321.502498) scale(0.1 -0.1)">
       <use xlink:href="#CMR17-30" transform="scale(0.996264)"/>
       <use xlink:href="#CMMI12-3a" transform="translate(45.690477 0) scale(0.996264)"/>
       <use xlink:href="#CMR17-30" transform="translate(72.787654 0) scale(0.996264)"/>
       <use xlink:href="#CMR17-30" transform="translate(118.478131 0) scale(0.996264)"/>
      </g>
     </g>
    </g>
    <g id="xtick_6">
     <g id="line2d_11">
      <path d="M 274.215875 307.584 
L 274.215875 41.472 
" clip-path="url(#p1592cfb4df)" style="fill: none; stroke: #b0b0b0; stroke-width: 0.8; stroke-linecap: square"/>
     </g>
     <g id="line2d_12">
      <g>
       <use xlink:href="#m25dfa66293" x="274.215875" y="307.584" style="stroke: #000000; stroke-width: 0.8"/>
      </g>
     </g>
     <g id="text_6">
      <!-- $\mathdefault{0.01}$ -->
      <g transform="translate(265.360168 321.502498) scale(0.1 -0.1)">
       <use xlink:href="#CMR17-30" transform="scale(0.996264)"/>
       <use xlink:href="#CMMI12-3a" transform="translate(45.690477 0) scale(0.996264)"/>
       <use xlink:href="#CMR17-30" transform="translate(72.787654 0) scale(0.996264)"/>
       <use xlink:href="#CMR17-31" transform="translate(118.478131 0) scale(0.996264)"/>
      </g>
     </g>
    </g>
    <g id="xtick_7">
     <g id="line2d_13">
      <path d="M 315.526968 307.584 
L 315.526968 41.472 
" clip-path="url(#p1592cfb4df)" style="fill: none; stroke: #b0b0b0; stroke-width: 0.8; stroke-linecap: square"/>
     </g>
     <g id="line2d_14">
      <g>
       <use xlink:href="#m25dfa66293" x="315.526968" y="307.584" style="stroke: #000000; stroke-width: 0.8"/>
      </g>
     </g>
     <g id="text_7">
      <!-- $\mathdefault{0.02}$ -->
      <g transform="translate(306.671261 321.502498) scale(0.1 -0.1)">
       <use xlink:href="#CMR17-30" transform="scale(0.996264)"/>
       <use xlink:href="#CMMI12-3a" transform="translate(45.690477 0) scale(0.996264)"/>
       <use xlink:href="#CMR17-30" transform="translate(72.787654 0) scale(0.996264)"/>
       <use xlink:href="#CMR17-32" transform="translate(118.478131 0) scale(0.996264)"/>
      </g>
     </g>
    </g>
    <g id="xtick_8">
     <g id="line2d_15">
      <path d="M 356.838061 307.584 
L 356.838061 41.472 
" clip-path="url(#p1592cfb4df)" style="fill: none; stroke: #b0b0b0; stroke-width: 0.8; stroke-linecap: square"/>
     </g>
     <g id="line2d_16">
      <g>
       <use xlink:href="#m25dfa66293" x="356.838061" y="307.584" style="stroke: #000000; stroke-width: 0.8"/>
      </g>
     </g>
     <g id="text_8">
      <!-- $\mathdefault{0.03}$ -->
      <g transform="translate(347.982354 321.502498) scale(0.1 -0.1)">
       <use xlink:href="#CMR17-30" transform="scale(0.996264)"/>
       <use xlink:href="#CMMI12-3a" transform="translate(45.690477 0) scale(0.996264)"/>
       <use xlink:href="#CMR17-30" transform="translate(72.787654 0) scale(0.996264)"/>
       <use xlink:href="#CMR17-33" transform="translate(118.478131 0) scale(0.996264)"/>
      </g>
     </g>
    </g>
    <g id="xtick_9">
     <g id="line2d_17">
      <path d="M 398.149153 307.584 
L 398.149153 41.472 
" clip-path="url(#p1592cfb4df)" style="fill: none; stroke: #b0b0b0; stroke-width: 0.8; stroke-linecap: square"/>
     </g>
     <g id="line2d_18">
      <g>
       <use xlink:href="#m25dfa66293" x="398.149153" y="307.584" style="stroke: #000000; stroke-width: 0.8"/>
      </g>
     </g>
     <g id="text_9">
      <!-- $\mathdefault{0.04}$ -->
      <g transform="translate(389.293446 321.502498) scale(0.1 -0.1)">
       <use xlink:href="#CMR17-30" transform="scale(0.996264)"/>
       <use xlink:href="#CMMI12-3a" transform="translate(45.690477 0) scale(0.996264)"/>
       <use xlink:href="#CMR17-30" transform="translate(72.787654 0) scale(0.996264)"/>
       <use xlink:href="#CMR17-34" transform="translate(118.478131 0) scale(0.996264)"/>
      </g>
     </g>
    </g>
    <g id="text_10">
     <!-- x [m] -->
     <g transform="translate(225.36713 334.911657) scale(0.1 -0.1)">
      <defs>
       <path id="CMSS17-78" d="M 1587 1414 
L 2656 2739 
L 2099 2739 
L 1363 1777 
L 602 2739 
L 32 2739 
L 1139 1414 
L 0 0 
L 563 0 
L 1363 1121 
L 2195 0 
L 2758 0 
L 1587 1414 
z
" transform="scale(0.015625)"/>
       <path id="CMSS17-5b" d="M 1613 -1600 
L 1613 -1212 
L 1062 -1212 
L 1062 4352 
L 1613 4352 
L 1613 4741 
L 595 4741 
L 595 -1600 
L 1613 -1600 
z
" transform="scale(0.015625)"/>
       <path id="CMSS17-6d" d="M 4288 1877 
C 4288 2308 4179 2816 3462 2816 
C 2982 2816 2694 2516 2566 2331 
C 2451 2670 2182 2816 1798 2816 
C 1363 2816 1088 2568 941 2389 
L 941 2758 
L 474 2758 
L 474 0 
L 960 0 
L 960 1559 
C 960 1939 1101 2428 1555 2428 
C 2138 2428 2138 2016 2138 1829 
L 2138 0 
L 2624 0 
L 2624 1559 
C 2624 1939 2765 2428 3219 2428 
C 3802 2428 3802 2016 3802 1829 
L 3802 0 
L 4288 0 
L 4288 1877 
z
" transform="scale(0.015625)"/>
       <path id="CMSS17-5d" d="M 1146 4741 
L 128 4741 
L 128 4352 
L 678 4352 
L 678 -1212 
L 128 -1212 
L 128 -1600 
L 1146 -1600 
L 1146 4741 
z
" transform="scale(0.015625)"/>
      </defs>
      <use xlink:href="#CMSS17-78" transform="scale(0.996264)"/>
      <use xlink:href="#CMSS17-5b" transform="translate(74.229254 0) scale(0.996264)"/>
      <use xlink:href="#CMSS17-6d" transform="translate(101.414693 0) scale(0.996264)"/>
      <use xlink:href="#CMSS17-5d" transform="translate(175.643948 0) scale(0.996264)"/>
     </g>
    </g>
   </g>
   <g id="matplotlib.axis_2">
    <g id="ytick_1">
     <g id="line2d_19">
      <path d="M 57.6 300.729208 
L 414.72 300.729208 
" clip-path="url(#p1592cfb4df)" style="fill: none; stroke: #b0b0b0; stroke-width: 0.8; stroke-linecap: square"/>
     </g>
     <g id="line2d_20">
      <defs>
       <path id="m652d6a0c76" d="M 0 0 
L -3.5 0 
" style="stroke: #000000; stroke-width: 0.8"/>
      </defs>
      <g>
       <use xlink:href="#m652d6a0c76" x="57.6" y="300.729208" style="stroke: #000000; stroke-width: 0.8"/>
      </g>
     </g>
     <g id="text_11">
      <!-- $\mathdefault{−0.020}$ -->
      <g transform="translate(20.158507 304.188457) scale(0.1 -0.1)">
       <use xlink:href="#CMSY10-0" transform="scale(0.996264)"/>
       <use xlink:href="#CMR17-30" transform="translate(77.487468 0) scale(0.996264)"/>
       <use xlink:href="#CMMI12-3a" transform="translate(123.177945 0) scale(0.996264)"/>
       <use xlink:href="#CMR17-30" transform="translate(150.275122 0) scale(0.996264)"/>
       <use xlink:href="#CMR17-32" transform="translate(195.965599 0) scale(0.996264)"/>
       <use xlink:href="#CMR17-30" transform="translate(241.656076 0) scale(0.996264)"/>
      </g>
     </g>
    </g>
    <g id="ytick_2">
     <g id="line2d_21">
      <path d="M 57.6 270.529827 
L 414.72 270.529827 
" clip-path="url(#p1592cfb4df)" style="fill: none; stroke: #b0b0b0; stroke-width: 0.8; stroke-linecap: square"/>
     </g>
     <g id="line2d_22">
      <g>
       <use xlink:href="#m652d6a0c76" x="57.6" y="270.529827" style="stroke: #000000; stroke-width: 0.8"/>
      </g>
     </g>
     <g id="text_12">
      <!-- $\mathdefault{−0.015}$ -->
      <g transform="translate(20.158507 273.989077) scale(0.1 -0.1)">
       <defs>
        <path id="CMR17-35" d="M 730 3692 
C 794 3666 1056 3584 1325 3584 
C 1920 3584 2246 3911 2432 4100 
C 2432 4157 2432 4192 2394 4192 
C 2387 4192 2374 4192 2323 4163 
C 2099 4058 1837 3973 1517 3973 
C 1325 3973 1037 3999 723 4139 
C 653 4171 640 4171 634 4171 
C 602 4171 595 4164 595 4037 
L 595 2203 
C 595 2089 595 2057 659 2057 
C 691 2057 704 2070 736 2114 
C 941 2401 1222 2522 1542 2522 
C 1766 2522 2246 2382 2246 1289 
C 2246 1085 2246 715 2054 421 
C 1894 159 1645 25 1370 25 
C 947 25 518 320 403 814 
C 429 807 480 795 506 795 
C 589 795 749 840 749 1038 
C 749 1210 627 1280 506 1280 
C 358 1280 262 1190 262 1011 
C 262 454 704 -128 1382 -128 
C 2042 -128 2669 440 2669 1264 
C 2669 2030 2170 2624 1549 2624 
C 1222 2624 947 2503 730 2274 
L 730 3692 
z
" transform="scale(0.015625)"/>
       </defs>
       <use xlink:href="#CMSY10-0" transform="scale(0.996264)"/>
       <use xlink:href="#CMR17-30" transform="translate(77.487468 0) scale(0.996264)"/>
       <use xlink:href="#CMMI12-3a" transform="translate(123.177945 0) scale(0.996264)"/>
       <use xlink:href="#CMR17-30" transform="translate(150.275122 0) scale(0.996264)"/>
       <use xlink:href="#CMR17-31" transform="translate(195.965599 0) scale(0.996264)"/>
       <use xlink:href="#CMR17-35" transform="translate(241.656076 0) scale(0.996264)"/>
      </g>
     </g>
    </g>
    <g id="ytick_3">
     <g id="line2d_23">
      <path d="M 57.6 240.330447 
L 414.72 240.330447 
" clip-path="url(#p1592cfb4df)" style="fill: none; stroke: #b0b0b0; stroke-width: 0.8; stroke-linecap: square"/>
     </g>
     <g id="line2d_24">
      <g>
       <use xlink:href="#m652d6a0c76" x="57.6" y="240.330447" style="stroke: #000000; stroke-width: 0.8"/>
      </g>
     </g>
     <g id="text_13">
      <!-- $\mathdefault{−0.010}$ -->
      <g transform="translate(20.158507 243.789696) scale(0.1 -0.1)">
       <use xlink:href="#CMSY10-0" transform="scale(0.996264)"/>
       <use xlink:href="#CMR17-30" transform="translate(77.487468 0) scale(0.996264)"/>
       <use xlink:href="#CMMI12-3a" transform="translate(123.177945 0) scale(0.996264)"/>
       <use xlink:href="#CMR17-30" transform="translate(150.275122 0) scale(0.996264)"/>
       <use xlink:href="#CMR17-31" transform="translate(195.965599 0) scale(0.996264)"/>
       <use xlink:href="#CMR17-30" transform="translate(241.656076 0) scale(0.996264)"/>
      </g>
     </g>
    </g>
    <g id="ytick_4">
     <g id="line2d_25">
      <path d="M 57.6 210.131066 
L 414.72 210.131066 
" clip-path="url(#p1592cfb4df)" style="fill: none; stroke: #b0b0b0; stroke-width: 0.8; stroke-linecap: square"/>
     </g>
     <g id="line2d_26">
      <g>
       <use xlink:href="#m652d6a0c76" x="57.6" y="210.131066" style="stroke: #000000; stroke-width: 0.8"/>
      </g>
     </g>
     <g id="text_14">
      <!-- $\mathdefault{−0.005}$ -->
      <g transform="translate(20.158507 213.590315) scale(0.1 -0.1)">
       <use xlink:href="#CMSY10-0" transform="scale(0.996264)"/>
       <use xlink:href="#CMR17-30" transform="translate(77.487468 0) scale(0.996264)"/>
       <use xlink:href="#CMMI12-3a" transform="translate(123.177945 0) scale(0.996264)"/>
       <use xlink:href="#CMR17-30" transform="translate(150.275122 0) scale(0.996264)"/>
       <use xlink:href="#CMR17-30" transform="translate(195.965599 0) scale(0.996264)"/>
       <use xlink:href="#CMR17-35" transform="translate(241.656076 0) scale(0.996264)"/>
      </g>
     </g>
    </g>
    <g id="ytick_5">
     <g id="line2d_27">
      <path d="M 57.6 179.931685 
L 414.72 179.931685 
" clip-path="url(#p1592cfb4df)" style="fill: none; stroke: #b0b0b0; stroke-width: 0.8; stroke-linecap: square"/>
     </g>
     <g id="line2d_28">
      <g>
       <use xlink:href="#m652d6a0c76" x="57.6" y="179.931685" style="stroke: #000000; stroke-width: 0.8"/>
      </g>
     </g>
     <g id="text_15">
      <!-- $\mathdefault{0.000}$ -->
      <g transform="translate(27.907251 183.390934) scale(0.1 -0.1)">
       <use xlink:href="#CMR17-30" transform="scale(0.996264)"/>
       <use xlink:href="#CMMI12-3a" transform="translate(45.690477 0) scale(0.996264)"/>
       <use xlink:href="#CMR17-30" transform="translate(72.787654 0) scale(0.996264)"/>
       <use xlink:href="#CMR17-30" transform="translate(118.478131 0) scale(0.996264)"/>
       <use xlink:href="#CMR17-30" transform="translate(164.168608 0) scale(0.996264)"/>
      </g>
     </g>
    </g>
    <g id="ytick_6">
     <g id="line2d_29">
      <path d="M 57.6 149.732305 
L 414.72 149.732305 
" clip-path="url(#p1592cfb4df)" style="fill: none; stroke: #b0b0b0; stroke-width: 0.8; stroke-linecap: square"/>
     </g>
     <g id="line2d_30">
      <g>
       <use xlink:href="#m652d6a0c76" x="57.6" y="149.732305" style="stroke: #000000; stroke-width: 0.8"/>
      </g>
     </g>
     <g id="text_16">
      <!-- $\mathdefault{0.005}$ -->
      <g transform="translate(27.907251 153.191554) scale(0.1 -0.1)">
       <use xlink:href="#CMR17-30" transform="scale(0.996264)"/>
       <use xlink:href="#CMMI12-3a" transform="translate(45.690477 0) scale(0.996264)"/>
       <use xlink:href="#CMR17-30" transform="translate(72.787654 0) scale(0.996264)"/>
       <use xlink:href="#CMR17-30" transform="translate(118.478131 0) scale(0.996264)"/>
       <use xlink:href="#CMR17-35" transform="translate(164.168608 0) scale(0.996264)"/>
      </g>
     </g>
    </g>
    <g id="ytick_7">
     <g id="line2d_31">
      <path d="M 57.6 119.532924 
L 414.72 119.532924 
" clip-path="url(#p1592cfb4df)" style="fill: none; stroke: #b0b0b0; stroke-width: 0.8; stroke-linecap: square"/>
     </g>
     <g id="line2d_32">
      <g>
       <use xlink:href="#m652d6a0c76" x="57.6" y="119.532924" style="stroke: #000000; stroke-width: 0.8"/>
      </g>
     </g>
     <g id="text_17">
      <!-- $\mathdefault{0.010}$ -->
      <g transform="translate(27.907251 122.992173) scale(0.1 -0.1)">
       <use xlink:href="#CMR17-30" transform="scale(0.996264)"/>
       <use xlink:href="#CMMI12-3a" transform="translate(45.690477 0) scale(0.996264)"/>
       <use xlink:href="#CMR17-30" transform="translate(72.787654 0) scale(0.996264)"/>
       <use xlink:href="#CMR17-31" transform="translate(118.478131 0) scale(0.996264)"/>
       <use xlink:href="#CMR17-30" transform="translate(164.168608 0) scale(0.996264)"/>
      </g>
     </g>
    </g>
    <g id="ytick_8">
     <g id="line2d_33">
      <path d="M 57.6 89.333543 
L 414.72 89.333543 
" clip-path="url(#p1592cfb4df)" style="fill: none; stroke: #b0b0b0; stroke-width: 0.8; stroke-linecap: square"/>
     </g>
     <g id="line2d_34">
      <g>
       <use xlink:href="#m652d6a0c76" x="57.6" y="89.333543" style="stroke: #000000; stroke-width: 0.8"/>
      </g>
     </g>
     <g id="text_18">
      <!-- $\mathdefault{0.015}$ -->
      <g transform="translate(27.907251 92.792792) scale(0.1 -0.1)">
       <use xlink:href="#CMR17-30" transform="scale(0.996264)"/>
       <use xlink:href="#CMMI12-3a" transform="translate(45.690477 0) scale(0.996264)"/>
       <use xlink:href="#CMR17-30" transform="translate(72.787654 0) scale(0.996264)"/>
       <use xlink:href="#CMR17-31" transform="translate(118.478131 0) scale(0.996264)"/>
       <use xlink:href="#CMR17-35" transform="translate(164.168608 0) scale(0.996264)"/>
      </g>
     </g>
    </g>
    <g id="ytick_9">
     <g id="line2d_35">
      <path d="M 57.6 59.134162 
L 414.72 59.134162 
" clip-path="url(#p1592cfb4df)" style="fill: none; stroke: #b0b0b0; stroke-width: 0.8; stroke-linecap: square"/>
     </g>
     <g id="line2d_36">
      <g>
       <use xlink:href="#m652d6a0c76" x="57.6" y="59.134162" style="stroke: #000000; stroke-width: 0.8"/>
      </g>
     </g>
     <g id="text_19">
      <!-- $\mathdefault{0.020}$ -->
      <g transform="translate(27.907251 62.593412) scale(0.1 -0.1)">
       <use xlink:href="#CMR17-30" transform="scale(0.996264)"/>
       <use xlink:href="#CMMI12-3a" transform="translate(45.690477 0) scale(0.996264)"/>
       <use xlink:href="#CMR17-30" transform="translate(72.787654 0) scale(0.996264)"/>
       <use xlink:href="#CMR17-32" transform="translate(118.478131 0) scale(0.996264)"/>
       <use xlink:href="#CMR17-30" transform="translate(164.168608 0) scale(0.996264)"/>
      </g>
     </g>
    </g>
    <g id="text_20">
     <!-- y [m] -->
     <g transform="translate(13.667847 185.32087) rotate(-90) scale(0.1 -0.1)">
      <defs>
       <path id="CMSS17-79" d="M 2675 2752 
L 2176 2752 
C 1632 1294 1446 702 1434 383 
L 1427 383 
C 1408 696 1126 1460 902 2007 
L 602 2752 
L 83 2752 
L 1216 13 
C 1146 -178 1043 -465 1011 -529 
C 870 -885 774 -885 672 -885 
C 646 -885 442 -885 211 -809 
L 250 -1229 
C 410 -1261 570 -1280 685 -1280 
C 845 -1280 1165 -1280 1459 -497 
L 2675 2752 
z
" transform="scale(0.015625)"/>
      </defs>
      <use xlink:href="#CMSS17-79" transform="scale(0.996264)"/>
      <use xlink:href="#CMSS17-5b" transform="translate(74.229254 0) scale(0.996264)"/>
      <use xlink:href="#CMSS17-6d" transform="translate(101.414693 0) scale(0.996264)"/>
      <use xlink:href="#CMSS17-5d" transform="translate(175.643948 0) scale(0.996264)"/>
     </g>
    </g>
   </g>
   <g id="line2d_37">
    <path d="M 237.359207 161.658386 
L 238.190932 161.927415 
L 238.990628 162.395164 
L 239.745683 163.054254 
L 240.44419 163.894292 
L 241.075132 164.90203 
L 241.62856 166.061575 
L 242.095746 167.354641 
L 242.469321 168.760835 
L 242.743394 170.25798 
L 242.913644 171.822467 
L 242.977384 173.429621 
L 242.933611 175.054097 
L 242.783013 176.670277 
L 242.527966 178.252671 
L 242.172493 179.776326 
L 241.722199 181.217211 
L 241.184186 182.552603 
L 240.566939 183.761442 
L 239.880191 184.824665 
L 239.134774 185.725502 
L 238.342443 186.449749 
L 237.515694 186.985983 
L 236.667564 187.325746 
L 235.81143 187.463682 
L 234.960793 187.397614 
L 234.129068 187.128585 
L 233.329372 186.660836 
L 232.574317 186.001746 
L 231.87581 185.161708 
L 231.244868 184.15397 
L 230.69144 182.994425 
L 230.224254 181.701359 
L 229.850679 180.295165 
L 229.576606 178.79802 
L 229.406356 177.233533 
L 229.342616 175.626379 
L 229.386389 174.001903 
L 229.536987 172.385723 
L 229.792034 170.803329 
L 230.147507 169.279674 
L 230.597801 167.838789 
L 231.135814 166.503397 
L 231.753061 165.294558 
L 232.439809 164.231335 
L 233.185226 163.330498 
L 233.977557 162.606251 
L 234.804306 162.070017 
L 235.652436 161.730254 
L 236.50857 161.592318 
L 237.359207 161.658386 
" clip-path="url(#p1592cfb4df)" style="fill: none; stroke: #0000ff; stroke-width: 1.5; stroke-linecap: square"/>
   </g>
   <g id="line2d_38">
    <path d="M 128.584933 165.000749 
L 129.894262 153.947535 
L 132.879464 143.218887 
L 137.493462 132.984003 
L 143.66349 123.404293 
L 151.292244 114.630834 
L 160.259412 106.801989 
L 170.423579 100.041223 
L 181.624448 94.455159 
L 193.685375 90.131891 
L 206.416152 87.1396 
L 219.616008 85.525477 
L 233.076772 85.314976 
L 246.586161 86.511418 
L 259.931123 89.095934 
L 272.9012 93.027765 
L 285.291846 98.244904 
L 296.907654 104.665072 
L 307.565435 112.18702 
L 317.09711 120.692123 
L 325.352358 130.04625 
L 332.200989 140.10188 
L 337.534997 150.700432 
L 341.27026 161.674758 
L 343.347872 172.851787 
L 343.735067 184.055251 
L 342.425738 195.108465 
L 339.440536 205.837113 
L 334.826538 216.071997 
L 328.65651 225.651707 
L 321.027756 234.425166 
L 312.060588 242.254011 
L 301.896421 249.014777 
L 290.695552 254.600841 
L 278.634625 258.924109 
L 265.903848 261.9164 
L 252.703992 263.530523 
L 239.243228 263.741024 
L 225.733839 262.544582 
L 212.388877 259.960066 
L 199.4188 256.028235 
L 187.028154 250.811096 
L 175.412346 244.390928 
L 164.754565 236.86898 
L 155.22289 228.363877 
L 146.967642 219.00975 
L 140.119011 208.95412 
L 134.785003 198.355568 
L 131.04974 187.381242 
L 128.972128 176.204213 
L 128.584933 165.000749 
" clip-path="url(#p1592cfb4df)" style="fill: none; stroke: #008000; stroke-width: 1.5; stroke-linecap: square"/>
   </g>
   <g id="line2d_39">
    <defs>
     <path id="m64d35dc7be" d="M 0 1.5 
C 0.397805 1.5 0.77937 1.341951 1.06066 1.06066 
C 1.341951 0.77937 1.5 0.397805 1.5 0 
C 1.5 -0.397805 1.341951 -0.77937 1.06066 -1.06066 
C 0.77937 -1.341951 0.397805 -1.5 0 -1.5 
C -0.397805 -1.5 -0.77937 -1.341951 -1.06066 -1.06066 
C -1.341951 -0.77937 -1.5 -0.397805 -1.5 0 
C -1.5 0.397805 -1.341951 0.77937 -1.06066 1.06066 
C -0.77937 1.341951 -0.397805 1.5 0 1.5 
z
" style="stroke: #ff0000"/>
    </defs>
    <g clip-path="url(#p1592cfb4df)">
     <use xlink:href="#m64d35dc7be" x="234.57394" y="142.127896" style="fill: #ff0000; stroke: #ff0000"/>
     <use xlink:href="#m64d35dc7be" x="236.849079" y="177.260598" style="fill: #ff0000; stroke: #ff0000"/>
     <use xlink:href="#m64d35dc7be" x="149.054006" y="222.894538" style="fill: #ff0000; stroke: #ff0000"/>
     <use xlink:href="#m64d35dc7be" x="318.317459" y="140.295105" style="fill: #ff0000; stroke: #ff0000"/>
     <use xlink:href="#m64d35dc7be" x="321.256361" y="198.080352" style="fill: #ff0000; stroke: #ff0000"/>
     <use xlink:href="#m64d35dc7be" x="129.712977" y="188.071491" style="fill: #ff0000; stroke: #ff0000"/>
     <use xlink:href="#m64d35dc7be" x="229.859253" y="198.059329" style="fill: #ff0000; stroke: #ff0000"/>
     <use xlink:href="#m64d35dc7be" x="194.145538" y="164.326711" style="fill: #ff0000; stroke: #ff0000"/>
     <use xlink:href="#m64d35dc7be" x="284.305113" y="120.231048" style="fill: #ff0000; stroke: #ff0000"/>
     <use xlink:href="#m64d35dc7be" x="157.068792" y="93.285739" style="fill: #ff0000; stroke: #ff0000"/>
     <use xlink:href="#m64d35dc7be" x="252.859252" y="189.623005" style="fill: #ff0000; stroke: #ff0000"/>
     <use xlink:href="#m64d35dc7be" x="248.296419" y="142.923441" style="fill: #ff0000; stroke: #ff0000"/>
     <use xlink:href="#m64d35dc7be" x="275.393637" y="151.763962" style="fill: #ff0000; stroke: #ff0000"/>
     <use xlink:href="#m64d35dc7be" x="162.231975" y="237.057963" style="fill: #ff0000; stroke: #ff0000"/>
     <use xlink:href="#m64d35dc7be" x="265.710697" y="189.133307" style="fill: #ff0000; stroke: #ff0000"/>
     <use xlink:href="#m64d35dc7be" x="232.149109" y="224.489156" style="fill: #ff0000; stroke: #ff0000"/>
     <use xlink:href="#m64d35dc7be" x="229.984846" y="218.410903" style="fill: #ff0000; stroke: #ff0000"/>
     <use xlink:href="#m64d35dc7be" x="244.883781" y="150.747627" style="fill: #ff0000; stroke: #ff0000"/>
     <use xlink:href="#m64d35dc7be" x="119.323089" y="172.259949" style="fill: #ff0000; stroke: #ff0000"/>
     <use xlink:href="#m64d35dc7be" x="211.621043" y="175.267612" style="fill: #ff0000; stroke: #ff0000"/>
     <use xlink:href="#m64d35dc7be" x="167.756258" y="278.608467" style="fill: #ff0000; stroke: #ff0000"/>
     <use xlink:href="#m64d35dc7be" x="185.108798" y="200.070373" style="fill: #ff0000; stroke: #ff0000"/>
     <use xlink:href="#m64d35dc7be" x="210.885949" y="160.892961" style="fill: #ff0000; stroke: #ff0000"/>
     <use xlink:href="#m64d35dc7be" x="192.94942" y="185.087202" style="fill: #ff0000; stroke: #ff0000"/>
     <use xlink:href="#m64d35dc7be" x="158.379356" y="152.516962" style="fill: #ff0000; stroke: #ff0000"/>
     <use xlink:href="#m64d35dc7be" x="290.65544" y="188.832338" style="fill: #ff0000; stroke: #ff0000"/>
     <use xlink:href="#m64d35dc7be" x="177.246765" y="145.51475" style="fill: #ff0000; stroke: #ff0000"/>
     <use xlink:href="#m64d35dc7be" x="235.382709" y="142.298492" style="fill: #ff0000; stroke: #ff0000"/>
     <use xlink:href="#m64d35dc7be" x="215.071392" y="182.866761" style="fill: #ff0000; stroke: #ff0000"/>
     <use xlink:href="#m64d35dc7be" x="253.993081" y="149.608746" style="fill: #ff0000; stroke: #ff0000"/>
     <use xlink:href="#m64d35dc7be" x="236.447361" y="125.287957" style="fill: #ff0000; stroke: #ff0000"/>
     <use xlink:href="#m64d35dc7be" x="251.892001" y="182.477425" style="fill: #ff0000; stroke: #ff0000"/>
     <use xlink:href="#m64d35dc7be" x="272.241377" y="169.264432" style="fill: #ff0000; stroke: #ff0000"/>
     <use xlink:href="#m64d35dc7be" x="324.926705" y="154.901107" style="fill: #ff0000; stroke: #ff0000"/>
     <use xlink:href="#m64d35dc7be" x="319.19113" y="142.689709" style="fill: #ff0000; stroke: #ff0000"/>
     <use xlink:href="#m64d35dc7be" x="241.612487" y="168.773522" style="fill: #ff0000; stroke: #ff0000"/>
     <use xlink:href="#m64d35dc7be" x="298.021966" y="204.015563" style="fill: #ff0000; stroke: #ff0000"/>
     <use xlink:href="#m64d35dc7be" x="240.055284" y="192.282677" style="fill: #ff0000; stroke: #ff0000"/>
     <use xlink:href="#m64d35dc7be" x="170.212648" y="192.737955" style="fill: #ff0000; stroke: #ff0000"/>
     <use xlink:href="#m64d35dc7be" x="226.668514" y="161.287417" style="fill: #ff0000; stroke: #ff0000"/>
     <use xlink:href="#m64d35dc7be" x="262.794408" y="216.40162" style="fill: #ff0000; stroke: #ff0000"/>
     <use xlink:href="#m64d35dc7be" x="197.410902" y="166.531854" style="fill: #ff0000; stroke: #ff0000"/>
     <use xlink:href="#m64d35dc7be" x="165.671715" y="121.510556" style="fill: #ff0000; stroke: #ff0000"/>
     <use xlink:href="#m64d35dc7be" x="260.696449" y="130.028903" style="fill: #ff0000; stroke: #ff0000"/>
     <use xlink:href="#m64d35dc7be" x="297.859855" y="131.794981" style="fill: #ff0000; stroke: #ff0000"/>
     <use xlink:href="#m64d35dc7be" x="238.31405" y="178.219496" style="fill: #ff0000; stroke: #ff0000"/>
     <use xlink:href="#m64d35dc7be" x="125.194496" y="172.437361" style="fill: #ff0000; stroke: #ff0000"/>
     <use xlink:href="#m64d35dc7be" x="248.001744" y="107.35882" style="fill: #ff0000; stroke: #ff0000"/>
     <use xlink:href="#m64d35dc7be" x="223.709067" y="214.525468" style="fill: #ff0000; stroke: #ff0000"/>
     <use xlink:href="#m64d35dc7be" x="263.079641" y="159.431425" style="fill: #ff0000; stroke: #ff0000"/>
     <use xlink:href="#m64d35dc7be" x="299.691217" y="185.550993" style="fill: #ff0000; stroke: #ff0000"/>
     <use xlink:href="#m64d35dc7be" x="289.638364" y="191.783026" style="fill: #ff0000; stroke: #ff0000"/>
     <use xlink:href="#m64d35dc7be" x="239.14711" y="148.655398" style="fill: #ff0000; stroke: #ff0000"/>
     <use xlink:href="#m64d35dc7be" x="119.639691" y="229.842661" style="fill: #ff0000; stroke: #ff0000"/>
     <use xlink:href="#m64d35dc7be" x="171.420101" y="218.609602" style="fill: #ff0000; stroke: #ff0000"/>
     <use xlink:href="#m64d35dc7be" x="237.472621" y="129.621522" style="fill: #ff0000; stroke: #ff0000"/>
     <use xlink:href="#m64d35dc7be" x="138.669788" y="290.501666" style="fill: #ff0000; stroke: #ff0000"/>
     <use xlink:href="#m64d35dc7be" x="217.550491" y="214.685189" style="fill: #ff0000; stroke: #ff0000"/>
     <use xlink:href="#m64d35dc7be" x="203.463737" y="195.966158" style="fill: #ff0000; stroke: #ff0000"/>
     <use xlink:href="#m64d35dc7be" x="290.827875" y="227.777313" style="fill: #ff0000; stroke: #ff0000"/>
     <use xlink:href="#m64d35dc7be" x="220.562157" y="182.100513" style="fill: #ff0000; stroke: #ff0000"/>
     <use xlink:href="#m64d35dc7be" x="263.566095" y="172.135085" style="fill: #ff0000; stroke: #ff0000"/>
     <use xlink:href="#m64d35dc7be" x="198.825619" y="104.880001" style="fill: #ff0000; stroke: #ff0000"/>
     <use xlink:href="#m64d35dc7be" x="371.822787" y="98.160896" style="fill: #ff0000; stroke: #ff0000"/>
     <use xlink:href="#m64d35dc7be" x="101.268483" y="227.191494" style="fill: #ff0000; stroke: #ff0000"/>
     <use xlink:href="#m64d35dc7be" x="284.484784" y="226.123924" style="fill: #ff0000; stroke: #ff0000"/>
     <use xlink:href="#m64d35dc7be" x="182.291844" y="160.294833" style="fill: #ff0000; stroke: #ff0000"/>
     <use xlink:href="#m64d35dc7be" x="298.225303" y="118.659107" style="fill: #ff0000; stroke: #ff0000"/>
     <use xlink:href="#m64d35dc7be" x="232.435078" y="158.20625" style="fill: #ff0000; stroke: #ff0000"/>
     <use xlink:href="#m64d35dc7be" x="298.711325" y="132.967933" style="fill: #ff0000; stroke: #ff0000"/>
     <use xlink:href="#m64d35dc7be" x="246.308371" y="208.610487" style="fill: #ff0000; stroke: #ff0000"/>
     <use xlink:href="#m64d35dc7be" x="264.210847" y="94.127613" style="fill: #ff0000; stroke: #ff0000"/>
     <use xlink:href="#m64d35dc7be" x="269.354414" y="184.781056" style="fill: #ff0000; stroke: #ff0000"/>
     <use xlink:href="#m64d35dc7be" x="257.648521" y="210.380002" style="fill: #ff0000; stroke: #ff0000"/>
     <use xlink:href="#m64d35dc7be" x="294.437821" y="173.9119" style="fill: #ff0000; stroke: #ff0000"/>
     <use xlink:href="#m64d35dc7be" x="204.897641" y="189.55307" style="fill: #ff0000; stroke: #ff0000"/>
     <use xlink:href="#m64d35dc7be" x="220.061867" y="153.777097" style="fill: #ff0000; stroke: #ff0000"/>
     <use xlink:href="#m64d35dc7be" x="213.846372" y="137.269442" style="fill: #ff0000; stroke: #ff0000"/>
     <use xlink:href="#m64d35dc7be" x="279.32304" y="233.804437" style="fill: #ff0000; stroke: #ff0000"/>
     <use xlink:href="#m64d35dc7be" x="304.996817" y="96.08562" style="fill: #ff0000; stroke: #ff0000"/>
     <use xlink:href="#m64d35dc7be" x="185.242638" y="215.176511" style="fill: #ff0000; stroke: #ff0000"/>
     <use xlink:href="#m64d35dc7be" x="236.985678" y="143.586601" style="fill: #ff0000; stroke: #ff0000"/>
     <use xlink:href="#m64d35dc7be" x="268.69278" y="188.766055" style="fill: #ff0000; stroke: #ff0000"/>
     <use xlink:href="#m64d35dc7be" x="313.389908" y="211.96768" style="fill: #ff0000; stroke: #ff0000"/>
     <use xlink:href="#m64d35dc7be" x="240.678418" y="158.183615" style="fill: #ff0000; stroke: #ff0000"/>
     <use xlink:href="#m64d35dc7be" x="266.409396" y="208.630771" style="fill: #ff0000; stroke: #ff0000"/>
     <use xlink:href="#m64d35dc7be" x="222.762406" y="201.836195" style="fill: #ff0000; stroke: #ff0000"/>
     <use xlink:href="#m64d35dc7be" x="305.051158" y="197.68064" style="fill: #ff0000; stroke: #ff0000"/>
     <use xlink:href="#m64d35dc7be" x="220.428485" y="176.606574" style="fill: #ff0000; stroke: #ff0000"/>
     <use xlink:href="#m64d35dc7be" x="290.923985" y="137.535626" style="fill: #ff0000; stroke: #ff0000"/>
     <use xlink:href="#m64d35dc7be" x="278.33519" y="178.138729" style="fill: #ff0000; stroke: #ff0000"/>
     <use xlink:href="#m64d35dc7be" x="291.754021" y="96.558723" style="fill: #ff0000; stroke: #ff0000"/>
     <use xlink:href="#m64d35dc7be" x="190.986877" y="251.809676" style="fill: #ff0000; stroke: #ff0000"/>
     <use xlink:href="#m64d35dc7be" x="244.0863" y="145.843902" style="fill: #ff0000; stroke: #ff0000"/>
     <use xlink:href="#m64d35dc7be" x="281.810067" y="185.722397" style="fill: #ff0000; stroke: #ff0000"/>
     <use xlink:href="#m64d35dc7be" x="271.955986" y="199.014275" style="fill: #ff0000; stroke: #ff0000"/>
     <use xlink:href="#m64d35dc7be" x="264.694425" y="132.02614" style="fill: #ff0000; stroke: #ff0000"/>
     <use xlink:href="#m64d35dc7be" x="151.563213" y="218.891042" style="fill: #ff0000; stroke: #ff0000"/>
     <use xlink:href="#m64d35dc7be" x="172.316403" y="185.899416" style="fill: #ff0000; stroke: #ff0000"/>
     <use xlink:href="#m64d35dc7be" x="243.760881" y="166.632386" style="fill: #ff0000; stroke: #ff0000"/>
    </g>
   </g>
   <g id="line2d_40">
    <path d="M 74.498931 222.741823 
L 73.832727 208.450243 
L 75.726521 193.623688 
L 80.150448 178.495983 
L 87.034737 163.305701 
L 96.270822 148.292401 
L 107.713042 133.692852 
L 121.180947 119.737297 
L 136.462141 106.645825 
L 153.31563 94.624895 
L 171.475624 83.864085 
L 190.655729 74.533099 
L 210.553463 66.779092 
L 230.855028 60.72435 
L 251.240256 56.46436 
L 271.387659 54.066303 
L 290.979501 53.568 
L 309.706806 54.977308 
L 327.274234 58.272002 
L 343.404737 63.400122 
L 357.843926 70.280796 
L 370.364087 78.80551 
L 380.767769 88.839825 
L 388.8909 100.225493 
L 394.605373 112.782957 
L 397.821069 126.314177 
L 398.487273 140.605757 
L 396.593479 155.432312 
L 392.169552 170.560017 
L 385.285263 185.750299 
L 376.049178 200.763599 
L 364.606958 215.363148 
L 351.139053 229.318703 
L 335.857859 242.410175 
L 319.00437 254.431105 
L 300.844376 265.191915 
L 281.664271 274.522901 
L 261.766537 282.276908 
L 241.464972 288.33165 
L 221.079744 292.59164 
L 200.932341 294.989697 
L 181.340499 295.488 
L 162.613194 294.078692 
L 145.045766 290.783998 
L 128.915263 285.655878 
L 114.476074 278.775204 
L 101.955913 270.25049 
L 91.552231 260.216175 
L 83.4291 248.830507 
L 77.714627 236.273043 
L 74.498931 222.741823 
" clip-path="url(#p1592cfb4df)" style="fill: none; stroke: #ff0000; stroke-width: 1.5; stroke-linecap: square"/>
   </g>
   <g id="patch_6">
    <path d="M 57.6 307.584 
L 57.6 41.472 
" style="fill: none; stroke: #000000; stroke-width: 0.8; stroke-linejoin: miter; stroke-linecap: square"/>
   </g>
   <g id="patch_7">
    <path d="M 414.72 307.584 
L 414.72 41.472 
" style="fill: none; stroke: #000000; stroke-width: 0.8; stroke-linejoin: miter; stroke-linecap: square"/>
   </g>
   <g id="patch_8">
    <path d="M 57.6 307.584 
L 414.72 307.584 
" style="fill: none; stroke: #000000; stroke-width: 0.8; stroke-linejoin: miter; stroke-linecap: square"/>
   </g>
   <g id="patch_9">
    <path d="M 57.6 41.472 
L 414.72 41.472 
" style="fill: none; stroke: #000000; stroke-width: 0.8; stroke-linejoin: miter; stroke-linecap: square"/>
   </g>
   <g id="legend_1">
    <g id="patch_10">
     <path d="M 298.962583 302.584 
L 407.72 302.584 
Q 409.72 302.584 409.72 300.584 
L 409.72 245.835287 
Q 409.72 243.835287 407.72 243.835287 
L 298.962583 243.835287 
Q 296.962583 243.835287 296.962583 245.835287 
L 296.962583 300.584 
Q 296.962583 302.584 298.962583 302.584 
z
" style="fill: #ffffff; opacity: 0.8; stroke: #cccccc; stroke-linejoin: miter"/>
    </g>
    <g id="line2d_41">
     <path d="M 300.962583 251.335287 
L 310.962583 251.335287 
L 320.962583 251.335287 
" style="fill: none; stroke: #0000ff; stroke-width: 1.5; stroke-linecap: square"/>
    </g>
    <g id="text_21">
     <!-- Censi's cov $3\sigma$. -->
     <g transform="translate(328.962583 254.835287) scale(0.1 -0.1)">
      <defs>
       <path id="CMSS17-43" d="M 3501 714 
C 3072 427 2874 344 2355 344 
C 1459 344 934 1303 934 2179 
C 934 3112 1472 4032 2381 4032 
C 2790 4032 3059 3918 3386 3715 
L 3475 4217 
C 3168 4370 2778 4440 2387 4440 
C 1158 4440 397 3316 397 2179 
C 397 927 1299 -64 2323 -64 
C 2874 -64 3066 -19 3539 280 
L 3501 714 
z
" transform="scale(0.015625)"/>
       <path id="CMSS17-65" d="M 2502 1377 
C 2502 1590 2490 2003 2285 2345 
C 2061 2713 1696 2816 1421 2816 
C 755 2816 192 2188 192 1375 
C 192 582 774 -64 1510 -64 
C 1798 -64 2150 19 2470 248 
C 2470 274 2458 414 2451 420 
C 2451 433 2432 630 2432 656 
C 2125 407 1773 325 1517 325 
C 1107 325 666 667 646 1377 
L 2502 1377 
z
M 698 1728 
C 781 2084 1062 2421 1421 2421 
C 1517 2421 1965 2421 2080 1728 
L 698 1728 
z
" transform="scale(0.015625)"/>
       <path id="CMSS17-6e" d="M 2618 1877 
C 2618 2283 2522 2816 1798 2816 
C 1389 2816 1120 2606 941 2389 
L 941 2758 
L 474 2758 
L 474 0 
L 960 0 
L 960 1559 
C 960 1964 1114 2428 1549 2428 
C 2112 2428 2131 2048 2131 1829 
L 2131 0 
L 2618 0 
L 2618 1877 
z
" transform="scale(0.015625)"/>
       <path id="CMSS17-73" d="M 2061 2627 
C 1683 2807 1389 2807 1197 2807 
C 742 2807 198 2648 198 2003 
C 198 1359 902 1218 1094 1179 
C 1389 1122 1715 1058 1715 740 
C 1715 337 1254 337 1171 337 
C 915 337 563 407 243 638 
L 166 210 
C 531 0 883 -64 1178 -64 
C 1965 -64 2163 416 2163 781 
C 2163 1094 1984 1305 1862 1401 
C 1651 1568 1574 1587 1050 1696 
C 960 1709 646 1779 646 2066 
C 646 2432 1050 2432 1139 2432 
C 1555 2432 1811 2303 1984 2208 
L 2061 2627 
z
" transform="scale(0.015625)"/>
       <path id="CMSS17-69" d="M 979 4183 
L 442 4183 
L 442 3648 
L 979 3648 
L 979 4183 
z
M 947 2739 
L 474 2739 
L 474 0 
L 947 0 
L 947 2739 
z
" transform="scale(0.015625)"/>
       <path id="CMSS17-27" d="M 1088 3910 
L 1088 4413 
L 576 4413 
L 576 3904 
L 736 3904 
L 570 3104 
L 826 3104 
L 1088 3910 
z
" transform="scale(0.015625)"/>
       <path id="CMSS17-63" d="M 2464 2541 
C 2464 2585 2170 2714 2093 2739 
C 1882 2816 1613 2816 1542 2816 
C 710 2816 211 2093 211 1363 
C 211 595 768 -64 1517 -64 
C 1946 -64 2253 76 2502 242 
L 2464 664 
C 2189 453 1869 337 1523 337 
C 1024 337 698 774 698 1369 
C 698 1831 909 2414 1549 2414 
C 1901 2414 2099 2343 2394 2145 
L 2464 2541 
z
" transform="scale(0.015625)"/>
       <path id="CMSS17-6f" d="M 2829 1356 
C 2829 2176 2221 2816 1504 2816 
C 768 2816 173 2157 173 1356 
C 173 544 787 -64 1498 -64 
C 2227 -64 2829 563 2829 1356 
z
M 1504 337 
C 1050 337 659 709 659 1408 
C 659 2151 1114 2427 1498 2427 
C 1914 2427 2342 2126 2342 1408 
C 2342 683 1926 337 1504 337 
z
" transform="scale(0.015625)"/>
       <path id="CMSS17-76" d="M 2675 2752 
L 2176 2752 
L 1747 1556 
C 1613 1165 1421 627 1389 352 
L 1382 352 
C 1370 468 1318 634 1286 749 
C 1248 890 1197 1056 1158 1172 
L 595 2752 
L 83 2752 
L 1094 0 
L 1664 0 
L 2675 2752 
z
" transform="scale(0.015625)"/>
       <path id="CMMI12-1b" d="M 3251 2408 
C 3334 2408 3546 2408 3546 2612 
C 3546 2752 3424 2752 3309 2752 
L 1894 2752 
C 934 2752 243 1686 243 932 
C 243 390 595 -64 1171 -64 
C 1926 -64 2752 747 2752 1705 
C 2752 1954 2694 2196 2541 2408 
L 3251 2408 
z
M 1178 64 
C 851 64 614 313 614 754 
C 614 1137 845 2408 1786 2408 
C 2061 2408 2368 2274 2368 1781 
C 2368 1558 2266 1021 2042 652 
C 1811 275 1466 64 1178 64 
z
" transform="scale(0.015625)"/>
       <path id="CMSS17-2e" d="M 1088 510 
L 576 510 
L 576 0 
L 1088 0 
L 1088 510 
z
" transform="scale(0.015625)"/>
      </defs>
      <use xlink:href="#CMSS17-43" transform="scale(0.996264)"/>
      <use xlink:href="#CMSS17-65" transform="translate(59.855772 0) scale(0.996264)"/>
      <use xlink:href="#CMSS17-6e" transform="translate(101.494594 0) scale(0.996264)"/>
      <use xlink:href="#CMSS17-73" transform="translate(149.699537 0) scale(0.996264)"/>
      <use xlink:href="#CMSS17-69" transform="translate(185.613079 0) scale(0.996264)"/>
      <use xlink:href="#CMSS17-27" transform="translate(207.793802 0) scale(0.996264)"/>
      <use xlink:href="#CMSS17-73" transform="translate(233.818007 0) scale(0.996264)"/>
      <use xlink:href="#CMSS17-63" transform="translate(300.960661 0) scale(0.996264)"/>
      <use xlink:href="#CMSS17-6f" transform="translate(342.599484 0) scale(0.996264)"/>
      <use xlink:href="#CMSS17-76" transform="translate(389.443107 0) scale(0.996264)"/>
      <use xlink:href="#CMR17-33" transform="translate(463.672361 0) scale(0.996264)"/>
      <use xlink:href="#CMMI12-1b" transform="translate(509.362839 0) scale(0.996264)"/>
      <use xlink:href="#CMSS17-2e" transform="translate(568.382892 0) scale(0.996264)"/>
     </g>
    </g>
    <g id="line2d_42">
     <path d="M 300.962583 265.272465 
L 310.962583 265.272465 
L 320.962583 265.272465 
" style="fill: none; stroke: #008000; stroke-width: 1.5; stroke-linecap: square"/>
    </g>
    <g id="text_22">
     <!-- Brossard's cov $3\sigma$. -->
     <g transform="translate(328.962583 268.772465) scale(0.1 -0.1)">
      <defs>
       <path id="CMSS17-42" d="M 570 4416 
L 570 0 
L 2163 0 
C 3034 0 3667 574 3667 1200 
C 3667 1685 3251 2176 2502 2317 
C 3334 2558 3501 3040 3501 3313 
C 3501 3883 2874 4416 1997 4416 
L 570 4416 
z
M 1088 2496 
L 1088 4059 
L 1824 4059 
C 2483 4059 3002 3724 3002 3306 
C 3002 2926 2592 2496 1766 2496 
L 1088 2496 
z
M 1088 357 
L 1088 2107 
L 1939 2107 
C 2630 2107 3162 1679 3162 1206 
C 3162 772 2694 357 1984 357 
L 1088 357 
z
" transform="scale(0.015625)"/>
       <path id="CMSS17-72" d="M 954 1363 
C 954 1965 1395 2368 1958 2368 
L 1958 2789 
C 1549 2789 1165 2585 934 2253 
L 934 2758 
L 480 2758 
L 480 0 
L 954 0 
L 954 1363 
z
" transform="scale(0.015625)"/>
       <path id="CMSS17-61" d="M 2406 1791 
C 2406 2392 1978 2808 1402 2808 
C 1120 2808 813 2757 461 2553 
L 499 2135 
C 659 2248 934 2432 1395 2432 
C 1722 2432 1920 2180 1920 1782 
L 1920 1536 
C 896 1536 256 1238 256 726 
C 256 461 416 -64 947 -64 
C 1043 -64 1562 -64 1933 217 
L 1933 -19 
L 2406 -19 
L 2406 1791 
z
M 1920 816 
C 1920 701 1920 548 1728 434 
C 1562 325 1350 325 1261 325 
C 941 325 723 511 723 744 
C 723 1211 1722 1211 1920 1211 
L 1920 816 
z
" transform="scale(0.015625)"/>
       <path id="CMSS17-64" d="M 2611 4416 
L 2138 4416 
L 2138 2438 
C 1939 2603 1613 2756 1254 2756 
C 672 2756 211 2131 211 1347 
C 211 562 666 -64 1235 -64 
C 1677 -64 1971 172 2125 306 
L 2125 -13 
L 2611 -13 
L 2611 4416 
z
M 2125 836 
C 2125 747 2125 653 1926 482 
C 1798 375 1645 325 1498 325 
C 1152 325 698 576 698 1340 
C 698 2134 1210 2368 1562 2368 
C 1798 2368 1990 2254 2125 2065 
L 2125 836 
z
" transform="scale(0.015625)"/>
      </defs>
      <use xlink:href="#CMSS17-42" transform="scale(0.996264)"/>
      <use xlink:href="#CMSS17-72" transform="translate(62.33804 0) scale(0.996264)"/>
      <use xlink:href="#CMSS17-6f" transform="translate(94.247813 0) scale(0.996264)"/>
      <use xlink:href="#CMSS17-73" transform="translate(141.091436 0) scale(0.996264)"/>
      <use xlink:href="#CMSS17-73" transform="translate(177.004978 0) scale(0.996264)"/>
      <use xlink:href="#CMSS17-61" transform="translate(212.91852 0) scale(0.996264)"/>
      <use xlink:href="#CMSS17-72" transform="translate(255.237987 0) scale(0.996264)"/>
      <use xlink:href="#CMSS17-64" transform="translate(287.14776 0) scale(0.996264)"/>
      <use xlink:href="#CMSS17-27" transform="translate(335.352703 0) scale(0.996264)"/>
      <use xlink:href="#CMSS17-73" transform="translate(361.376908 0) scale(0.996264)"/>
      <use xlink:href="#CMSS17-63" transform="translate(428.519562 0) scale(0.996264)"/>
      <use xlink:href="#CMSS17-6f" transform="translate(470.158384 0) scale(0.996264)"/>
      <use xlink:href="#CMSS17-76" transform="translate(517.002008 0) scale(0.996264)"/>
      <use xlink:href="#CMR17-33" transform="translate(591.231262 0) scale(0.996264)"/>
      <use xlink:href="#CMMI12-1b" transform="translate(636.921739 0) scale(0.996264)"/>
      <use xlink:href="#CMSS17-2e" transform="translate(695.941793 0) scale(0.996264)"/>
     </g>
    </g>
    <g id="line2d_43">
     <g>
      <use xlink:href="#m64d35dc7be" x="310.962583" y="279.209643" style="fill: #ff0000; stroke: #ff0000"/>
     </g>
    </g>
    <g id="text_23">
     <!-- Samples. -->
     <g transform="translate(328.962583 282.709643) scale(0.1 -0.1)">
      <defs>
       <path id="CMSS17-53" d="M 2797 4169 
C 2515 4334 2208 4480 1690 4480 
C 864 4480 333 3879 333 3266 
C 333 3025 403 2753 653 2475 
C 902 2196 1184 2121 1542 2033 
C 1690 1994 1939 1924 1984 1906 
C 2342 1767 2515 1444 2515 1140 
C 2515 742 2202 318 1645 318 
C 1453 318 890 318 358 819 
L 269 318 
C 794 -64 1363 -128 1651 -128 
C 2438 -128 3002 488 3002 1186 
C 3002 1440 2925 1763 2656 2061 
C 2394 2347 2163 2410 1638 2549 
C 1338 2626 1146 2677 986 2873 
C 877 3013 819 3146 819 3317 
C 819 3673 1126 4060 1690 4060 
C 1971 4060 2336 4002 2707 3660 
L 2797 4169 
z
" transform="scale(0.015625)"/>
       <path id="CMSS17-70" d="M 966 333 
C 1178 129 1466 -5 1773 -5 
C 2368 -5 2880 603 2880 1412 
C 2880 2159 2496 2816 1946 2816 
C 1626 2816 1242 2702 954 2472 
L 954 2765 
L 480 2765 
L 480 -1216 
L 966 -1216 
L 966 333 
z
M 966 2100 
C 1018 2176 1235 2415 1587 2415 
C 2035 2415 2394 1960 2394 1412 
C 2394 787 1958 384 1530 384 
C 1402 384 1267 415 1139 523 
C 966 674 966 768 966 857 
L 966 2100 
z
" transform="scale(0.015625)"/>
       <path id="CMSS17-6c" d="M 947 4416 
L 474 4416 
L 474 0 
L 947 0 
L 947 4416 
z
" transform="scale(0.015625)"/>
      </defs>
      <use xlink:href="#CMSS17-53" transform="scale(0.996264)"/>
      <use xlink:href="#CMSS17-61" transform="translate(52.048516 0) scale(0.996264)"/>
      <use xlink:href="#CMSS17-6d" transform="translate(96.970437 0) scale(0.996264)"/>
      <use xlink:href="#CMSS17-70" transform="translate(171.199691 0) scale(0.996264)"/>
      <use xlink:href="#CMSS17-6c" transform="translate(219.404634 0) scale(0.996264)"/>
      <use xlink:href="#CMSS17-65" transform="translate(241.585357 0) scale(0.996264)"/>
      <use xlink:href="#CMSS17-73" transform="translate(283.224179 0) scale(0.996264)"/>
      <use xlink:href="#CMSS17-2e" transform="translate(319.137721 0) scale(0.996264)"/>
     </g>
    </g>
    <g id="line2d_44">
     <path d="M 300.962583 293.146822 
L 310.962583 293.146822 
L 320.962583 293.146822 
" style="fill: none; stroke: #ff0000; stroke-width: 1.5; stroke-linecap: square"/>
    </g>
    <g id="text_24">
     <!-- Sample cov $3\sigma$. -->
     <g transform="translate(328.962583 296.646822) scale(0.1 -0.1)">
      <use xlink:href="#CMSS17-53" transform="scale(0.996264)"/>
      <use xlink:href="#CMSS17-61" transform="translate(52.048516 0) scale(0.996264)"/>
      <use xlink:href="#CMSS17-6d" transform="translate(96.970437 0) scale(0.996264)"/>
      <use xlink:href="#CMSS17-70" transform="translate(171.199691 0) scale(0.996264)"/>
      <use xlink:href="#CMSS17-6c" transform="translate(219.404634 0) scale(0.996264)"/>
      <use xlink:href="#CMSS17-65" transform="translate(241.585357 0) scale(0.996264)"/>
      <use xlink:href="#CMSS17-63" transform="translate(314.453292 0) scale(0.996264)"/>
      <use xlink:href="#CMSS17-6f" transform="translate(356.092114 0) scale(0.996264)"/>
      <use xlink:href="#CMSS17-76" transform="translate(402.935738 0) scale(0.996264)"/>
      <use xlink:href="#CMR17-33" transform="translate(477.164992 0) scale(0.996264)"/>
      <use xlink:href="#CMMI12-1b" transform="translate(522.855469 0) scale(0.996264)"/>
      <use xlink:href="#CMSS17-2e" transform="translate(581.875523 0) scale(0.996264)"/>
     </g>
    </g>
   </g>
  </g>
 </g>
 <defs>
  <clipPath id="p1592cfb4df">
   <rect x="57.6" y="41.472" width="357.12" height="266.112"/>
  </clipPath>
 </defs>
</svg>
