<?xml version="1.0" encoding="utf-8" standalone="no"?>
<!DOCTYPE svg PUBLIC "-//W3C//DTD SVG 1.1//EN"
  "http://www.w3.org/Graphics/SVG/1.1/DTD/svg11.dtd">
<svg xmlns:xlink="http://www.w3.org/1999/xlink" width="460.8pt" height="345.6pt" viewBox="0 0 460.8 345.6" xmlns="http://www.w3.org/2000/svg" version="1.1">
 <metadata>
  <rdf:RDF xmlns:dc="http://purl.org/dc/elements/1.1/" xmlns:cc="http://creativecommons.org/ns#" xmlns:rdf="http://www.w3.org/1999/02/22-rdf-syntax-ns#">
   <cc:Work>
    <dc:type rdf:resource="http://purl.org/dc/dcmitype/StillImage"/>
    <dc:date>2022-12-17T15:06:11.293818</dc:date>
    <dc:format>image/svg+xml</dc:format>
    <dc:creator>
     <cc:Agent>
      <dc:title>Matplotlib v3.6.0, https://matplotlib.org/</dc:title>
     </cc:Agent>
    </dc:creator>
   </cc:Work>
  </rdf:RDF>
 </metadata>
 <defs>
  <style type="text/css">*{stroke-linejoin: round; stroke-linecap: butt}</style>
 </defs>
 <g id="figure_1">
  <g id="patch_1">
   <path d="M 0 345.6 
L 460.8 345.6 
L 460.8 0 
L 0 0 
z
" style="fill: #ffffff"/>
  </g>
  <g id="axes_1">
   <g id="patch_2">
    <path d="M 57.6 307.584 
L 414.72 307.584 
L 414.72 41.472 
L 57.6 41.472 
z
" style="fill: #ffffff"/>
   </g>
   <g id="patch_3">
    <path d="M 222.280563 175.633839 
L 222.119614 173.931801 
L 222.180089 172.1682 
L 222.461036 170.370847 
L 222.958024 168.568088 
L 223.663215 166.788354 
L 224.565488 165.059712 
L 225.650613 163.409424 
L 226.901477 161.863516 
L 228.298354 160.446367 
L 229.819214 159.180327 
L 231.440071 158.085363 
L 233.135365 157.178742 
L 234.878359 156.474763 
L 236.641565 155.984527 
L 238.397177 155.715766 
L 240.117507 155.672718 
L 241.775425 155.856063 
L 243.344784 156.262909 
L 244.800835 156.886839 
L 246.120615 157.718015 
L 247.28331 158.743327 
L 248.270584 159.946606 
L 249.066866 161.308875 
L 249.6596 162.808652 
L 250.039437 164.422282 
L 250.200386 166.124319 
L 250.139911 167.887921 
L 249.858964 169.685274 
L 249.361976 171.488033 
L 248.656785 173.267767 
L 247.754512 174.996409 
L 246.669387 176.646697 
L 245.418523 178.192605 
L 244.021646 179.609754 
L 242.500786 180.875793 
L 240.879929 181.970758 
L 239.184635 182.877379 
L 237.441641 183.581358 
L 235.678435 184.071594 
L 233.922823 184.340355 
L 232.202493 184.383402 
L 230.544575 184.200058 
L 228.975216 183.793212 
L 227.519165 183.169282 
L 226.199385 182.338106 
L 225.03669 181.312794 
L 224.049416 180.109515 
L 223.253134 178.747246 
L 222.6604 177.247469 
L 222.280563 175.633839 
L 222.280563 175.633839 
z
" clip-path="url(#p7c6d2fc962)" style="fill: none; opacity: 0"/>
   </g>
   <g id="patch_4">
    <path d="M 73.832727 121.394791 
L 75.971187 114.682707 
L 80.635919 108.843452 
L 87.753359 103.969114 
L 97.211261 100.136566 
L 108.860467 97.406248 
L 122.517263 95.82122 
L 137.966273 95.406478 
L 154.963857 96.168563 
L 173.241952 98.095456 
L 192.512302 101.156769 
L 212.471003 105.304224 
L 232.803293 110.472412 
L 253.188521 116.579829 
L 273.305198 123.530156 
L 292.836074 131.213783 
L 311.473134 139.509534 
L 328.922461 148.28658 
L 344.908869 157.406503 
L 359.180242 166.725475 
L 371.511512 176.096531 
L 381.708208 185.371883 
L 389.609522 194.405254 
L 395.090845 203.054183 
L 398.065734 211.182269 
L 398.487273 218.661329 
L 396.348813 225.373414 
L 391.684081 231.212669 
L 384.566641 236.087006 
L 375.108739 239.919555 
L 363.459533 242.649872 
L 349.802737 244.234901 
L 334.353727 244.649643 
L 317.356143 243.887558 
L 299.078048 241.960665 
L 279.807698 238.899351 
L 259.848997 234.751897 
L 239.516707 229.583708 
L 219.131479 223.476292 
L 199.014802 216.525965 
L 179.483926 208.842338 
L 160.846866 200.546587 
L 143.397539 191.769541 
L 127.411131 182.649618 
L 113.139758 173.330646 
L 100.808488 163.95959 
L 90.611792 154.684238 
L 82.710478 145.650867 
L 77.229155 137.001938 
L 74.254266 128.873852 
L 73.832727 121.394791 
L 73.832727 121.394791 
z
" clip-path="url(#p7c6d2fc962)" style="fill: none; opacity: 0"/>
   </g>
   <g id="patch_5">
    <path d="M 115.330727 172.614068 
L 116.157786 158.047772 
L 118.877352 143.670413 
L 123.446536 129.708729 
L 129.793278 116.382906 
L 137.817486 103.903099 
L 147.392615 92.466122 
L 158.367659 82.252343 
L 170.569534 73.422839 
L 183.80581 66.116858 
L 197.867743 60.449618 
L 212.533568 56.510496 
L 227.571996 54.361613 
L 242.745862 54.03686 
L 257.815864 55.541357 
L 272.544341 58.851378 
L 286.699015 63.914721 
L 300.056658 70.651535 
L 312.406614 78.955577 
L 323.554114 88.695886 
L 333.323357 99.718851 
L 341.560276 111.850635 
L 348.134969 124.899912 
L 352.943751 138.660887 
L 355.910783 152.916541 
L 356.989273 167.442053 
L 356.162214 182.008349 
L 353.442648 196.385708 
L 348.873464 210.347391 
L 342.526722 223.673215 
L 334.502514 236.153022 
L 324.927385 247.589999 
L 313.952341 257.803778 
L 301.750466 266.633282 
L 288.51419 273.939263 
L 274.452257 279.606503 
L 259.786432 283.545625 
L 244.748004 285.694508 
L 229.574138 286.019261 
L 214.504136 284.514764 
L 199.775659 281.204743 
L 185.620985 276.1414 
L 172.263342 269.404586 
L 159.913386 261.100544 
L 148.765886 251.360235 
L 138.996643 240.337269 
L 130.759724 228.205485 
L 124.185031 215.156209 
L 119.376249 201.395234 
L 116.409217 187.13958 
L 115.330727 172.614068 
L 115.330727 172.614068 
z
" clip-path="url(#p7c6d2fc962)" style="fill: none; opacity: 0"/>
   </g>
   <g id="matplotlib.axis_1">
    <g id="xtick_1">
     <g id="line2d_1">
      <path d="M 107.188151 307.584 
L 107.188151 41.472 
" clip-path="url(#p7c6d2fc962)" style="fill: none; stroke: #b0b0b0; stroke-width: 0.8; stroke-linecap: square"/>
     </g>
     <g id="line2d_2">
      <defs>
       <path id="m7d1662d58d" d="M 0 0 
L 0 3.5 
" style="stroke: #000000; stroke-width: 0.8"/>
      </defs>
      <g>
       <use xlink:href="#m7d1662d58d" x="107.188151" y="307.584" style="stroke: #000000; stroke-width: 0.8"/>
      </g>
     </g>
     <g id="text_1">
      <!-- $\mathdefault{−0.04}$ -->
      <g transform="translate(94.458072 321.502498) scale(0.1 -0.1)">
       <defs>
        <path id="CMSY10-0" d="M 4218 1472 
C 4326 1472 4442 1472 4442 1600 
C 4442 1728 4326 1728 4218 1728 
L 755 1728 
C 646 1728 531 1728 531 1600 
C 531 1472 646 1472 755 1472 
L 4218 1472 
z
" transform="scale(0.015625)"/>
        <path id="CMR17-30" d="M 2688 2025 
C 2688 2416 2682 3080 2413 3591 
C 2176 4039 1798 4198 1466 4198 
C 1158 4198 768 4058 525 3597 
C 269 3118 243 2524 243 2025 
C 243 1661 250 1106 448 619 
C 723 -39 1216 -128 1466 -128 
C 1760 -128 2208 -7 2470 600 
C 2662 1042 2688 1559 2688 2025 
z
M 1466 -26 
C 1056 -26 813 325 723 812 
C 653 1188 653 1738 653 2096 
C 653 2588 653 2997 736 3387 
C 858 3929 1216 4096 1466 4096 
C 1728 4096 2067 3923 2189 3400 
C 2272 3036 2278 2607 2278 2096 
C 2278 1680 2278 1169 2202 792 
C 2067 95 1690 -26 1466 -26 
z
" transform="scale(0.015625)"/>
        <path id="CMMI12-3a" d="M 1178 307 
C 1178 492 1024 619 870 619 
C 685 619 557 466 557 313 
C 557 128 710 0 864 0 
C 1050 0 1178 153 1178 307 
z
" transform="scale(0.015625)"/>
        <path id="CMR17-34" d="M 2150 4122 
C 2150 4256 2144 4256 2029 4256 
L 128 1254 
L 128 1088 
L 1779 1088 
L 1779 457 
C 1779 224 1766 160 1318 160 
L 1197 160 
L 1197 0 
C 1402 0 1747 0 1965 0 
C 2182 0 2528 0 2733 0 
L 2733 160 
L 2611 160 
C 2163 160 2150 224 2150 457 
L 2150 1088 
L 2803 1088 
L 2803 1254 
L 2150 1254 
L 2150 4122 
z
M 1798 3703 
L 1798 1254 
L 256 1254 
L 1798 3703 
z
" transform="scale(0.015625)"/>
       </defs>
       <use xlink:href="#CMSY10-0" transform="scale(0.996264)"/>
       <use xlink:href="#CMR17-30" transform="translate(77.487468 0) scale(0.996264)"/>
       <use xlink:href="#CMMI12-3a" transform="translate(123.177945 0) scale(0.996264)"/>
       <use xlink:href="#CMR17-30" transform="translate(150.275122 0) scale(0.996264)"/>
       <use xlink:href="#CMR17-34" transform="translate(195.965599 0) scale(0.996264)"/>
      </g>
     </g>
    </g>
    <g id="xtick_2">
     <g id="line2d_3">
      <path d="M 174.529566 307.584 
L 174.529566 41.472 
" clip-path="url(#p7c6d2fc962)" style="fill: none; stroke: #b0b0b0; stroke-width: 0.8; stroke-linecap: square"/>
     </g>
     <g id="line2d_4">
      <g>
       <use xlink:href="#m7d1662d58d" x="174.529566" y="307.584" style="stroke: #000000; stroke-width: 0.8"/>
      </g>
     </g>
     <g id="text_2">
      <!-- $\mathdefault{−0.02}$ -->
      <g transform="translate(161.799488 321.502498) scale(0.1 -0.1)">
       <defs>
        <path id="CMR17-32" d="M 2669 989 
L 2554 989 
C 2490 536 2438 459 2413 420 
C 2381 369 1920 369 1830 369 
L 602 369 
C 832 619 1280 1072 1824 1597 
C 2214 1967 2669 2402 2669 3035 
C 2669 3790 2067 4224 1395 4224 
C 691 4224 262 3604 262 3030 
C 262 2780 448 2748 525 2748 
C 589 2748 781 2787 781 3010 
C 781 3207 614 3264 525 3264 
C 486 3264 448 3258 422 3245 
C 544 3790 915 4058 1306 4058 
C 1862 4058 2227 3617 2227 3035 
C 2227 2479 1901 2000 1536 1584 
L 262 146 
L 262 0 
L 2515 0 
L 2669 989 
z
" transform="scale(0.015625)"/>
       </defs>
       <use xlink:href="#CMSY10-0" transform="scale(0.996264)"/>
       <use xlink:href="#CMR17-30" transform="translate(77.487468 0) scale(0.996264)"/>
       <use xlink:href="#CMMI12-3a" transform="translate(123.177945 0) scale(0.996264)"/>
       <use xlink:href="#CMR17-30" transform="translate(150.275122 0) scale(0.996264)"/>
       <use xlink:href="#CMR17-32" transform="translate(195.965599 0) scale(0.996264)"/>
      </g>
     </g>
    </g>
    <g id="xtick_3">
     <g id="line2d_5">
      <path d="M 241.870982 307.584 
L 241.870982 41.472 
" clip-path="url(#p7c6d2fc962)" style="fill: none; stroke: #b0b0b0; stroke-width: 0.8; stroke-linecap: square"/>
     </g>
     <g id="line2d_6">
      <g>
       <use xlink:href="#m7d1662d58d" x="241.870982" y="307.584" style="stroke: #000000; stroke-width: 0.8"/>
      </g>
     </g>
     <g id="text_3">
      <!-- $\mathdefault{0.00}$ -->
      <g transform="translate(233.015275 321.502498) scale(0.1 -0.1)">
       <use xlink:href="#CMR17-30" transform="scale(0.996264)"/>
       <use xlink:href="#CMMI12-3a" transform="translate(45.690477 0) scale(0.996264)"/>
       <use xlink:href="#CMR17-30" transform="translate(72.787654 0) scale(0.996264)"/>
       <use xlink:href="#CMR17-30" transform="translate(118.478131 0) scale(0.996264)"/>
      </g>
     </g>
    </g>
    <g id="xtick_4">
     <g id="line2d_7">
      <path d="M 309.212397 307.584 
L 309.212397 41.472 
" clip-path="url(#p7c6d2fc962)" style="fill: none; stroke: #b0b0b0; stroke-width: 0.8; stroke-linecap: square"/>
     </g>
     <g id="line2d_8">
      <g>
       <use xlink:href="#m7d1662d58d" x="309.212397" y="307.584" style="stroke: #000000; stroke-width: 0.8"/>
      </g>
     </g>
     <g id="text_4">
      <!-- $\mathdefault{0.02}$ -->
      <g transform="translate(300.35669 321.502498) scale(0.1 -0.1)">
       <use xlink:href="#CMR17-30" transform="scale(0.996264)"/>
       <use xlink:href="#CMMI12-3a" transform="translate(45.690477 0) scale(0.996264)"/>
       <use xlink:href="#CMR17-30" transform="translate(72.787654 0) scale(0.996264)"/>
       <use xlink:href="#CMR17-32" transform="translate(118.478131 0) scale(0.996264)"/>
      </g>
     </g>
    </g>
    <g id="xtick_5">
     <g id="line2d_9">
      <path d="M 376.553812 307.584 
L 376.553812 41.472 
" clip-path="url(#p7c6d2fc962)" style="fill: none; stroke: #b0b0b0; stroke-width: 0.8; stroke-linecap: square"/>
     </g>
     <g id="line2d_10">
      <g>
       <use xlink:href="#m7d1662d58d" x="376.553812" y="307.584" style="stroke: #000000; stroke-width: 0.8"/>
      </g>
     </g>
     <g id="text_5">
      <!-- $\mathdefault{0.04}$ -->
      <g transform="translate(367.698105 321.502498) scale(0.1 -0.1)">
       <use xlink:href="#CMR17-30" transform="scale(0.996264)"/>
       <use xlink:href="#CMMI12-3a" transform="translate(45.690477 0) scale(0.996264)"/>
       <use xlink:href="#CMR17-30" transform="translate(72.787654 0) scale(0.996264)"/>
       <use xlink:href="#CMR17-34" transform="translate(118.478131 0) scale(0.996264)"/>
      </g>
     </g>
    </g>
    <g id="text_6">
     <!-- x [m] -->
     <g transform="translate(225.36713 334.911657) scale(0.1 -0.1)">
      <defs>
       <path id="CMSS17-78" d="M 1587 1414 
L 2656 2739 
L 2099 2739 
L 1363 1777 
L 602 2739 
L 32 2739 
L 1139 1414 
L 0 0 
L 563 0 
L 1363 1121 
L 2195 0 
L 2758 0 
L 1587 1414 
z
" transform="scale(0.015625)"/>
       <path id="CMSS17-5b" d="M 1613 -1600 
L 1613 -1212 
L 1062 -1212 
L 1062 4352 
L 1613 4352 
L 1613 4741 
L 595 4741 
L 595 -1600 
L 1613 -1600 
z
" transform="scale(0.015625)"/>
       <path id="CMSS17-6d" d="M 4288 1877 
C 4288 2308 4179 2816 3462 2816 
C 2982 2816 2694 2516 2566 2331 
C 2451 2670 2182 2816 1798 2816 
C 1363 2816 1088 2568 941 2389 
L 941 2758 
L 474 2758 
L 474 0 
L 960 0 
L 960 1559 
C 960 1939 1101 2428 1555 2428 
C 2138 2428 2138 2016 2138 1829 
L 2138 0 
L 2624 0 
L 2624 1559 
C 2624 1939 2765 2428 3219 2428 
C 3802 2428 3802 2016 3802 1829 
L 3802 0 
L 4288 0 
L 4288 1877 
z
" transform="scale(0.015625)"/>
       <path id="CMSS17-5d" d="M 1146 4741 
L 128 4741 
L 128 4352 
L 678 4352 
L 678 -1212 
L 128 -1212 
L 128 -1600 
L 1146 -1600 
L 1146 4741 
z
" transform="scale(0.015625)"/>
      </defs>
      <use xlink:href="#CMSS17-78" transform="scale(0.996264)"/>
      <use xlink:href="#CMSS17-5b" transform="translate(74.229254 0) scale(0.996264)"/>
      <use xlink:href="#CMSS17-6d" transform="translate(101.414693 0) scale(0.996264)"/>
      <use xlink:href="#CMSS17-5d" transform="translate(175.643948 0) scale(0.996264)"/>
     </g>
    </g>
   </g>
   <g id="matplotlib.axis_2">
    <g id="ytick_1">
     <g id="line2d_11">
      <path d="M 57.6 280.289951 
L 414.72 280.289951 
" clip-path="url(#p7c6d2fc962)" style="fill: none; stroke: #b0b0b0; stroke-width: 0.8; stroke-linecap: square"/>
     </g>
     <g id="line2d_12">
      <defs>
       <path id="ma922adad36" d="M 0 0 
L -3.5 0 
" style="stroke: #000000; stroke-width: 0.8"/>
      </defs>
      <g>
       <use xlink:href="#ma922adad36" x="57.6" y="280.289951" style="stroke: #000000; stroke-width: 0.8"/>
      </g>
     </g>
     <g id="text_7">
      <!-- $\mathdefault{−0.02}$ -->
      <g transform="translate(25.139842 283.7492) scale(0.1 -0.1)">
       <use xlink:href="#CMSY10-0" transform="scale(0.996264)"/>
       <use xlink:href="#CMR17-30" transform="translate(77.487468 0) scale(0.996264)"/>
       <use xlink:href="#CMMI12-3a" transform="translate(123.177945 0) scale(0.996264)"/>
       <use xlink:href="#CMR17-30" transform="translate(150.275122 0) scale(0.996264)"/>
       <use xlink:href="#CMR17-32" transform="translate(195.965599 0) scale(0.996264)"/>
      </g>
     </g>
    </g>
    <g id="ytick_2">
     <g id="line2d_13">
      <path d="M 57.6 227.304476 
L 414.72 227.304476 
" clip-path="url(#p7c6d2fc962)" style="fill: none; stroke: #b0b0b0; stroke-width: 0.8; stroke-linecap: square"/>
     </g>
     <g id="line2d_14">
      <g>
       <use xlink:href="#ma922adad36" x="57.6" y="227.304476" style="stroke: #000000; stroke-width: 0.8"/>
      </g>
     </g>
     <g id="text_8">
      <!-- $\mathdefault{−0.01}$ -->
      <g transform="translate(25.139842 230.763725) scale(0.1 -0.1)">
       <defs>
        <path id="CMR17-31" d="M 1702 4058 
C 1702 4192 1696 4192 1606 4192 
C 1357 3916 979 3827 621 3827 
C 602 3827 570 3827 563 3808 
C 557 3795 557 3782 557 3648 
C 755 3648 1088 3686 1344 3839 
L 1344 461 
C 1344 236 1331 160 781 160 
L 589 160 
L 589 0 
C 896 0 1216 0 1523 0 
C 1830 0 2150 0 2458 0 
L 2458 160 
L 2266 160 
C 1715 160 1702 230 1702 458 
L 1702 4058 
z
" transform="scale(0.015625)"/>
       </defs>
       <use xlink:href="#CMSY10-0" transform="scale(0.996264)"/>
       <use xlink:href="#CMR17-30" transform="translate(77.487468 0) scale(0.996264)"/>
       <use xlink:href="#CMMI12-3a" transform="translate(123.177945 0) scale(0.996264)"/>
       <use xlink:href="#CMR17-30" transform="translate(150.275122 0) scale(0.996264)"/>
       <use xlink:href="#CMR17-31" transform="translate(195.965599 0) scale(0.996264)"/>
      </g>
     </g>
    </g>
    <g id="ytick_3">
     <g id="line2d_15">
      <path d="M 57.6 174.319 
L 414.72 174.319 
" clip-path="url(#p7c6d2fc962)" style="fill: none; stroke: #b0b0b0; stroke-width: 0.8; stroke-linecap: square"/>
     </g>
     <g id="line2d_16">
      <g>
       <use xlink:href="#ma922adad36" x="57.6" y="174.319" style="stroke: #000000; stroke-width: 0.8"/>
      </g>
     </g>
     <g id="text_9">
      <!-- $\mathdefault{0.00}$ -->
      <g transform="translate(32.888586 177.77825) scale(0.1 -0.1)">
       <use xlink:href="#CMR17-30" transform="scale(0.996264)"/>
       <use xlink:href="#CMMI12-3a" transform="translate(45.690477 0) scale(0.996264)"/>
       <use xlink:href="#CMR17-30" transform="translate(72.787654 0) scale(0.996264)"/>
       <use xlink:href="#CMR17-30" transform="translate(118.478131 0) scale(0.996264)"/>
      </g>
     </g>
    </g>
    <g id="ytick_4">
     <g id="line2d_17">
      <path d="M 57.6 121.333525 
L 414.72 121.333525 
" clip-path="url(#p7c6d2fc962)" style="fill: none; stroke: #b0b0b0; stroke-width: 0.8; stroke-linecap: square"/>
     </g>
     <g id="line2d_18">
      <g>
       <use xlink:href="#ma922adad36" x="57.6" y="121.333525" style="stroke: #000000; stroke-width: 0.8"/>
      </g>
     </g>
     <g id="text_10">
      <!-- $\mathdefault{0.01}$ -->
      <g transform="translate(32.888586 124.792774) scale(0.1 -0.1)">
       <use xlink:href="#CMR17-30" transform="scale(0.996264)"/>
       <use xlink:href="#CMMI12-3a" transform="translate(45.690477 0) scale(0.996264)"/>
       <use xlink:href="#CMR17-30" transform="translate(72.787654 0) scale(0.996264)"/>
       <use xlink:href="#CMR17-31" transform="translate(118.478131 0) scale(0.996264)"/>
      </g>
     </g>
    </g>
    <g id="ytick_5">
     <g id="line2d_19">
      <path d="M 57.6 68.34805 
L 414.72 68.34805 
" clip-path="url(#p7c6d2fc962)" style="fill: none; stroke: #b0b0b0; stroke-width: 0.8; stroke-linecap: square"/>
     </g>
     <g id="line2d_20">
      <g>
       <use xlink:href="#ma922adad36" x="57.6" y="68.34805" style="stroke: #000000; stroke-width: 0.8"/>
      </g>
     </g>
     <g id="text_11">
      <!-- $\mathdefault{0.02}$ -->
      <g transform="translate(32.888586 71.807299) scale(0.1 -0.1)">
       <use xlink:href="#CMR17-30" transform="scale(0.996264)"/>
       <use xlink:href="#CMMI12-3a" transform="translate(45.690477 0) scale(0.996264)"/>
       <use xlink:href="#CMR17-30" transform="translate(72.787654 0) scale(0.996264)"/>
       <use xlink:href="#CMR17-32" transform="translate(118.478131 0) scale(0.996264)"/>
      </g>
     </g>
    </g>
    <g id="text_12">
     <!-- y [m] -->
     <g transform="translate(18.649182 185.32087) rotate(-90) scale(0.1 -0.1)">
      <defs>
       <path id="CMSS17-79" d="M 2675 2752 
L 2176 2752 
C 1632 1294 1446 702 1434 383 
L 1427 383 
C 1408 696 1126 1460 902 2007 
L 602 2752 
L 83 2752 
L 1216 13 
C 1146 -178 1043 -465 1011 -529 
C 870 -885 774 -885 672 -885 
C 646 -885 442 -885 211 -809 
L 250 -1229 
C 410 -1261 570 -1280 685 -1280 
C 845 -1280 1165 -1280 1459 -497 
L 2675 2752 
z
" transform="scale(0.015625)"/>
      </defs>
      <use xlink:href="#CMSS17-79" transform="scale(0.996264)"/>
      <use xlink:href="#CMSS17-5b" transform="translate(74.229254 0) scale(0.996264)"/>
      <use xlink:href="#CMSS17-6d" transform="translate(101.414693 0) scale(0.996264)"/>
      <use xlink:href="#CMSS17-5d" transform="translate(175.643948 0) scale(0.996264)"/>
     </g>
    </g>
   </g>
   <g id="line2d_21">
    <path d="M 222.280563 175.633839 
L 222.119614 173.931801 
L 222.180089 172.1682 
L 222.461036 170.370847 
L 222.958024 168.568088 
L 223.663215 166.788354 
L 224.565488 165.059712 
L 225.650613 163.409424 
L 226.901477 161.863516 
L 228.298354 160.446367 
L 229.819214 159.180327 
L 231.440071 158.085363 
L 233.135365 157.178742 
L 234.878359 156.474763 
L 236.641565 155.984527 
L 238.397177 155.715766 
L 240.117507 155.672718 
L 241.775425 155.856063 
L 243.344784 156.262909 
L 244.800835 156.886839 
L 246.120615 157.718015 
L 247.28331 158.743327 
L 248.270584 159.946606 
L 249.066866 161.308875 
L 249.6596 162.808652 
L 250.039437 164.422282 
L 250.200386 166.124319 
L 250.139911 167.887921 
L 249.858964 169.685274 
L 249.361976 171.488033 
L 248.656785 173.267767 
L 247.754512 174.996409 
L 246.669387 176.646697 
L 245.418523 178.192605 
L 244.021646 179.609754 
L 242.500786 180.875793 
L 240.879929 181.970758 
L 239.184635 182.877379 
L 237.441641 183.581358 
L 235.678435 184.071594 
L 233.922823 184.340355 
L 232.202493 184.383402 
L 230.544575 184.200058 
L 228.975216 183.793212 
L 227.519165 183.169282 
L 226.199385 182.338106 
L 225.03669 181.312794 
L 224.049416 180.109515 
L 223.253134 178.747246 
L 222.6604 177.247469 
L 222.280563 175.633839 
" clip-path="url(#p7c6d2fc962)" style="fill: none; stroke: #0000ff; stroke-width: 1.5; stroke-linecap: square"/>
   </g>
   <g id="line2d_22">
    <path d="M 73.832727 121.394791 
L 75.971187 114.682707 
L 80.635919 108.843452 
L 87.753359 103.969114 
L 97.211261 100.136566 
L 108.860467 97.406248 
L 122.517263 95.82122 
L 137.966273 95.406478 
L 154.963857 96.168563 
L 173.241952 98.095456 
L 192.512302 101.156769 
L 212.471003 105.304224 
L 232.803293 110.472412 
L 253.188521 116.579829 
L 273.305198 123.530156 
L 292.836074 131.213783 
L 311.473134 139.509534 
L 328.922461 148.28658 
L 344.908869 157.406503 
L 359.180242 166.725475 
L 371.511512 176.096531 
L 381.708208 185.371883 
L 389.609522 194.405254 
L 395.090845 203.054183 
L 398.065734 211.182269 
L 398.487273 218.661329 
L 396.348813 225.373414 
L 391.684081 231.212669 
L 384.566641 236.087006 
L 375.108739 239.919555 
L 363.459533 242.649872 
L 349.802737 244.234901 
L 334.353727 244.649643 
L 317.356143 243.887558 
L 299.078048 241.960665 
L 279.807698 238.899351 
L 259.848997 234.751897 
L 239.516707 229.583708 
L 219.131479 223.476292 
L 199.014802 216.525965 
L 179.483926 208.842338 
L 160.846866 200.546587 
L 143.397539 191.769541 
L 127.411131 182.649618 
L 113.139758 173.330646 
L 100.808488 163.95959 
L 90.611792 154.684238 
L 82.710478 145.650867 
L 77.229155 137.001938 
L 74.254266 128.873852 
L 73.832727 121.394791 
" clip-path="url(#p7c6d2fc962)" style="fill: none; stroke: #008000; stroke-width: 1.5; stroke-linecap: square"/>
   </g>
   <g id="line2d_23">
    <defs>
     <path id="md97561c2e3" d="M 0 1.5 
C 0.397805 1.5 0.77937 1.341951 1.06066 1.06066 
C 1.341951 0.77937 1.5 0.397805 1.5 0 
C 1.5 -0.397805 1.341951 -0.77937 1.06066 -1.06066 
C 0.77937 -1.341951 0.397805 -1.5 0 -1.5 
C -0.397805 -1.5 -0.77937 -1.341951 -1.06066 -1.06066 
C -1.341951 -0.77937 -1.5 -0.397805 -1.5 0 
C -1.5 0.397805 -1.341951 0.77937 -1.06066 1.06066 
C -0.77937 1.341951 -0.397805 1.5 0 1.5 
z
" style="stroke: #ff0000"/>
    </defs>
    <g clip-path="url(#p7c6d2fc962)">
     <use xlink:href="#md97561c2e3" x="208.780693" y="167.565596" style="fill: #ff0000; stroke: #ff0000"/>
     <use xlink:href="#md97561c2e3" x="212.607635" y="181.401088" style="fill: #ff0000; stroke: #ff0000"/>
     <use xlink:href="#md97561c2e3" x="164.795457" y="53.568" style="fill: #ff0000; stroke: #ff0000"/>
     <use xlink:href="#md97561c2e3" x="230.677262" y="143.353615" style="fill: #ff0000; stroke: #ff0000"/>
     <use xlink:href="#md97561c2e3" x="293.809969" y="81.930081" style="fill: #ff0000; stroke: #ff0000"/>
     <use xlink:href="#md97561c2e3" x="249.23803" y="189.378155" style="fill: #ff0000; stroke: #ff0000"/>
     <use xlink:href="#md97561c2e3" x="216.158605" y="111.301597" style="fill: #ff0000; stroke: #ff0000"/>
     <use xlink:href="#md97561c2e3" x="281.352496" y="177.724224" style="fill: #ff0000; stroke: #ff0000"/>
     <use xlink:href="#md97561c2e3" x="247.163" y="173.640033" style="fill: #ff0000; stroke: #ff0000"/>
     <use xlink:href="#md97561c2e3" x="193.375367" y="195.326396" style="fill: #ff0000; stroke: #ff0000"/>
     <use xlink:href="#md97561c2e3" x="239.105585" y="183.574685" style="fill: #ff0000; stroke: #ff0000"/>
     <use xlink:href="#md97561c2e3" x="269.960794" y="91.109859" style="fill: #ff0000; stroke: #ff0000"/>
     <use xlink:href="#md97561c2e3" x="258.268057" y="156.149849" style="fill: #ff0000; stroke: #ff0000"/>
     <use xlink:href="#md97561c2e3" x="242.98799" y="215.348827" style="fill: #ff0000; stroke: #ff0000"/>
     <use xlink:href="#md97561c2e3" x="224.637626" y="188.881007" style="fill: #ff0000; stroke: #ff0000"/>
     <use xlink:href="#md97561c2e3" x="240.764288" y="240.529032" style="fill: #ff0000; stroke: #ff0000"/>
     <use xlink:href="#md97561c2e3" x="248.910082" y="187.319302" style="fill: #ff0000; stroke: #ff0000"/>
     <use xlink:href="#md97561c2e3" x="244.645193" y="172.742083" style="fill: #ff0000; stroke: #ff0000"/>
     <use xlink:href="#md97561c2e3" x="181.806687" y="195.879835" style="fill: #ff0000; stroke: #ff0000"/>
     <use xlink:href="#md97561c2e3" x="149.446246" y="139.939217" style="fill: #ff0000; stroke: #ff0000"/>
     <use xlink:href="#md97561c2e3" x="203.337562" y="210.176372" style="fill: #ff0000; stroke: #ff0000"/>
     <use xlink:href="#md97561c2e3" x="230.992674" y="212.532659" style="fill: #ff0000; stroke: #ff0000"/>
     <use xlink:href="#md97561c2e3" x="254.995299" y="128.647345" style="fill: #ff0000; stroke: #ff0000"/>
     <use xlink:href="#md97561c2e3" x="188.533323" y="210.178707" style="fill: #ff0000; stroke: #ff0000"/>
     <use xlink:href="#md97561c2e3" x="246.445899" y="201.228733" style="fill: #ff0000; stroke: #ff0000"/>
     <use xlink:href="#md97561c2e3" x="281.101193" y="88.326557" style="fill: #ff0000; stroke: #ff0000"/>
     <use xlink:href="#md97561c2e3" x="257.259566" y="209.667874" style="fill: #ff0000; stroke: #ff0000"/>
     <use xlink:href="#md97561c2e3" x="248.472046" y="148.162276" style="fill: #ff0000; stroke: #ff0000"/>
     <use xlink:href="#md97561c2e3" x="248.510045" y="169.381319" style="fill: #ff0000; stroke: #ff0000"/>
     <use xlink:href="#md97561c2e3" x="296.174798" y="183.964167" style="fill: #ff0000; stroke: #ff0000"/>
     <use xlink:href="#md97561c2e3" x="225.351794" y="175.544449" style="fill: #ff0000; stroke: #ff0000"/>
     <use xlink:href="#md97561c2e3" x="296.888388" y="206.374258" style="fill: #ff0000; stroke: #ff0000"/>
     <use xlink:href="#md97561c2e3" x="285.976986" y="207.273753" style="fill: #ff0000; stroke: #ff0000"/>
     <use xlink:href="#md97561c2e3" x="207.322098" y="198.96825" style="fill: #ff0000; stroke: #ff0000"/>
     <use xlink:href="#md97561c2e3" x="186.72618" y="184.290242" style="fill: #ff0000; stroke: #ff0000"/>
     <use xlink:href="#md97561c2e3" x="187.649154" y="160.753008" style="fill: #ff0000; stroke: #ff0000"/>
     <use xlink:href="#md97561c2e3" x="217.000696" y="164.564388" style="fill: #ff0000; stroke: #ff0000"/>
     <use xlink:href="#md97561c2e3" x="255.810043" y="192.724637" style="fill: #ff0000; stroke: #ff0000"/>
     <use xlink:href="#md97561c2e3" x="232.594117" y="215.803772" style="fill: #ff0000; stroke: #ff0000"/>
     <use xlink:href="#md97561c2e3" x="241.11803" y="137.154198" style="fill: #ff0000; stroke: #ff0000"/>
     <use xlink:href="#md97561c2e3" x="163.22088" y="124.506086" style="fill: #ff0000; stroke: #ff0000"/>
     <use xlink:href="#md97561c2e3" x="182.653433" y="163.48601" style="fill: #ff0000; stroke: #ff0000"/>
     <use xlink:href="#md97561c2e3" x="310.119435" y="120.592777" style="fill: #ff0000; stroke: #ff0000"/>
     <use xlink:href="#md97561c2e3" x="261.236598" y="177.777278" style="fill: #ff0000; stroke: #ff0000"/>
     <use xlink:href="#md97561c2e3" x="304.159372" y="185.548049" style="fill: #ff0000; stroke: #ff0000"/>
     <use xlink:href="#md97561c2e3" x="310.372133" y="190.29393" style="fill: #ff0000; stroke: #ff0000"/>
     <use xlink:href="#md97561c2e3" x="237.357499" y="145.718033" style="fill: #ff0000; stroke: #ff0000"/>
     <use xlink:href="#md97561c2e3" x="260.464269" y="119.854163" style="fill: #ff0000; stroke: #ff0000"/>
     <use xlink:href="#md97561c2e3" x="270.267866" y="139.231072" style="fill: #ff0000; stroke: #ff0000"/>
     <use xlink:href="#md97561c2e3" x="211.741832" y="184.826219" style="fill: #ff0000; stroke: #ff0000"/>
     <use xlink:href="#md97561c2e3" x="228.19852" y="183.338371" style="fill: #ff0000; stroke: #ff0000"/>
     <use xlink:href="#md97561c2e3" x="237.257375" y="165.283007" style="fill: #ff0000; stroke: #ff0000"/>
     <use xlink:href="#md97561c2e3" x="229.247278" y="161.951961" style="fill: #ff0000; stroke: #ff0000"/>
     <use xlink:href="#md97561c2e3" x="168.349766" y="172.008889" style="fill: #ff0000; stroke: #ff0000"/>
     <use xlink:href="#md97561c2e3" x="212.639196" y="128.543168" style="fill: #ff0000; stroke: #ff0000"/>
     <use xlink:href="#md97561c2e3" x="300.792837" y="189.736764" style="fill: #ff0000; stroke: #ff0000"/>
     <use xlink:href="#md97561c2e3" x="229.505833" y="195.916955" style="fill: #ff0000; stroke: #ff0000"/>
     <use xlink:href="#md97561c2e3" x="269.107167" y="162.94479" style="fill: #ff0000; stroke: #ff0000"/>
     <use xlink:href="#md97561c2e3" x="257.33883" y="177.452438" style="fill: #ff0000; stroke: #ff0000"/>
     <use xlink:href="#md97561c2e3" x="334.489259" y="185.000432" style="fill: #ff0000; stroke: #ff0000"/>
     <use xlink:href="#md97561c2e3" x="222.088065" y="154.974903" style="fill: #ff0000; stroke: #ff0000"/>
     <use xlink:href="#md97561c2e3" x="267.311353" y="84.722187" style="fill: #ff0000; stroke: #ff0000"/>
     <use xlink:href="#md97561c2e3" x="230.803165" y="197.477569" style="fill: #ff0000; stroke: #ff0000"/>
     <use xlink:href="#md97561c2e3" x="258.551382" y="238.397462" style="fill: #ff0000; stroke: #ff0000"/>
     <use xlink:href="#md97561c2e3" x="295.288478" y="165.513184" style="fill: #ff0000; stroke: #ff0000"/>
     <use xlink:href="#md97561c2e3" x="312.150916" y="204.071303" style="fill: #ff0000; stroke: #ff0000"/>
     <use xlink:href="#md97561c2e3" x="235.197205" y="120.605938" style="fill: #ff0000; stroke: #ff0000"/>
     <use xlink:href="#md97561c2e3" x="178.69682" y="172.236104" style="fill: #ff0000; stroke: #ff0000"/>
     <use xlink:href="#md97561c2e3" x="214.073037" y="202.120497" style="fill: #ff0000; stroke: #ff0000"/>
     <use xlink:href="#md97561c2e3" x="274.030107" y="151.775435" style="fill: #ff0000; stroke: #ff0000"/>
     <use xlink:href="#md97561c2e3" x="261.372392" y="166.189731" style="fill: #ff0000; stroke: #ff0000"/>
     <use xlink:href="#md97561c2e3" x="203.246512" y="193.229195" style="fill: #ff0000; stroke: #ff0000"/>
     <use xlink:href="#md97561c2e3" x="261.642414" y="138.822982" style="fill: #ff0000; stroke: #ff0000"/>
     <use xlink:href="#md97561c2e3" x="285.596931" y="135.796743" style="fill: #ff0000; stroke: #ff0000"/>
     <use xlink:href="#md97561c2e3" x="316.014459" y="156.023112" style="fill: #ff0000; stroke: #ff0000"/>
     <use xlink:href="#md97561c2e3" x="267.520842" y="142.026733" style="fill: #ff0000; stroke: #ff0000"/>
     <use xlink:href="#md97561c2e3" x="202.502691" y="212.109385" style="fill: #ff0000; stroke: #ff0000"/>
     <use xlink:href="#md97561c2e3" x="224.872692" y="131.408483" style="fill: #ff0000; stroke: #ff0000"/>
     <use xlink:href="#md97561c2e3" x="229.637278" y="109.90646" style="fill: #ff0000; stroke: #ff0000"/>
     <use xlink:href="#md97561c2e3" x="239.788849" y="204.149014" style="fill: #ff0000; stroke: #ff0000"/>
     <use xlink:href="#md97561c2e3" x="254.910745" y="159.165277" style="fill: #ff0000; stroke: #ff0000"/>
     <use xlink:href="#md97561c2e3" x="224.623523" y="218.0937" style="fill: #ff0000; stroke: #ff0000"/>
     <use xlink:href="#md97561c2e3" x="178.081476" y="206.814904" style="fill: #ff0000; stroke: #ff0000"/>
     <use xlink:href="#md97561c2e3" x="201.465843" y="143.537905" style="fill: #ff0000; stroke: #ff0000"/>
     <use xlink:href="#md97561c2e3" x="239.672007" y="164.153113" style="fill: #ff0000; stroke: #ff0000"/>
     <use xlink:href="#md97561c2e3" x="241.261964" y="189.686009" style="fill: #ff0000; stroke: #ff0000"/>
     <use xlink:href="#md97561c2e3" x="131.813566" y="236.419628" style="fill: #ff0000; stroke: #ff0000"/>
     <use xlink:href="#md97561c2e3" x="235.621867" y="201.026264" style="fill: #ff0000; stroke: #ff0000"/>
     <use xlink:href="#md97561c2e3" x="177.981413" y="198.496988" style="fill: #ff0000; stroke: #ff0000"/>
     <use xlink:href="#md97561c2e3" x="201.882481" y="116.422316" style="fill: #ff0000; stroke: #ff0000"/>
     <use xlink:href="#md97561c2e3" x="279.78392" y="181.58653" style="fill: #ff0000; stroke: #ff0000"/>
     <use xlink:href="#md97561c2e3" x="263.564853" y="158.856385" style="fill: #ff0000; stroke: #ff0000"/>
     <use xlink:href="#md97561c2e3" x="185.898194" y="147.242055" style="fill: #ff0000; stroke: #ff0000"/>
     <use xlink:href="#md97561c2e3" x="239.09175" y="189.051769" style="fill: #ff0000; stroke: #ff0000"/>
     <use xlink:href="#md97561c2e3" x="210.413639" y="205.886177" style="fill: #ff0000; stroke: #ff0000"/>
     <use xlink:href="#md97561c2e3" x="172.669674" y="159.903026" style="fill: #ff0000; stroke: #ff0000"/>
     <use xlink:href="#md97561c2e3" x="182.897426" y="97.232167" style="fill: #ff0000; stroke: #ff0000"/>
     <use xlink:href="#md97561c2e3" x="220.423965" y="179.514665" style="fill: #ff0000; stroke: #ff0000"/>
     <use xlink:href="#md97561c2e3" x="240.518742" y="189.426534" style="fill: #ff0000; stroke: #ff0000"/>
     <use xlink:href="#md97561c2e3" x="238.722946" y="295.488" style="fill: #ff0000; stroke: #ff0000"/>
    </g>
   </g>
   <g id="line2d_24">
    <path d="M 115.330727 172.614068 
L 116.157786 158.047772 
L 118.877352 143.670413 
L 123.446536 129.708729 
L 129.793278 116.382906 
L 137.817486 103.903099 
L 147.392615 92.466122 
L 158.367659 82.252343 
L 170.569534 73.422839 
L 183.80581 66.116858 
L 197.867743 60.449618 
L 212.533568 56.510496 
L 227.571996 54.361613 
L 242.745862 54.03686 
L 257.815864 55.541357 
L 272.544341 58.851378 
L 286.699015 63.914721 
L 300.056658 70.651535 
L 312.406614 78.955577 
L 323.554114 88.695886 
L 333.323357 99.718851 
L 341.560276 111.850635 
L 348.134969 124.899912 
L 352.943751 138.660887 
L 355.910783 152.916541 
L 356.989273 167.442053 
L 356.162214 182.008349 
L 353.442648 196.385708 
L 348.873464 210.347391 
L 342.526722 223.673215 
L 334.502514 236.153022 
L 324.927385 247.589999 
L 313.952341 257.803778 
L 301.750466 266.633282 
L 288.51419 273.939263 
L 274.452257 279.606503 
L 259.786432 283.545625 
L 244.748004 285.694508 
L 229.574138 286.019261 
L 214.504136 284.514764 
L 199.775659 281.204743 
L 185.620985 276.1414 
L 172.263342 269.404586 
L 159.913386 261.100544 
L 148.765886 251.360235 
L 138.996643 240.337269 
L 130.759724 228.205485 
L 124.185031 215.156209 
L 119.376249 201.395234 
L 116.409217 187.13958 
L 115.330727 172.614068 
" clip-path="url(#p7c6d2fc962)" style="fill: none; stroke: #ff0000; stroke-width: 1.5; stroke-linecap: square"/>
   </g>
   <g id="patch_6">
    <path d="M 57.6 307.584 
L 57.6 41.472 
" style="fill: none; stroke: #000000; stroke-width: 0.8; stroke-linejoin: miter; stroke-linecap: square"/>
   </g>
   <g id="patch_7">
    <path d="M 414.72 307.584 
L 414.72 41.472 
" style="fill: none; stroke: #000000; stroke-width: 0.8; stroke-linejoin: miter; stroke-linecap: square"/>
   </g>
   <g id="patch_8">
    <path d="M 57.6 307.584 
L 414.72 307.584 
" style="fill: none; stroke: #000000; stroke-width: 0.8; stroke-linejoin: miter; stroke-linecap: square"/>
   </g>
   <g id="patch_9">
    <path d="M 57.6 41.472 
L 414.72 41.472 
" style="fill: none; stroke: #000000; stroke-width: 0.8; stroke-linejoin: miter; stroke-linecap: square"/>
   </g>
   <g id="legend_1">
    <g id="patch_10">
     <path d="M 64.6 302.584 
L 173.357417 302.584 
Q 175.357417 302.584 175.357417 300.584 
L 175.357417 245.835287 
Q 175.357417 243.835287 173.357417 243.835287 
L 64.6 243.835287 
Q 62.6 243.835287 62.6 245.835287 
L 62.6 300.584 
Q 62.6 302.584 64.6 302.584 
z
" style="fill: #ffffff; opacity: 0.8; stroke: #cccccc; stroke-linejoin: miter"/>
    </g>
    <g id="line2d_25">
     <path d="M 66.6 251.335287 
L 76.6 251.335287 
L 86.6 251.335287 
" style="fill: none; stroke: #0000ff; stroke-width: 1.5; stroke-linecap: square"/>
    </g>
    <g id="text_13">
     <!-- Censi's cov $3\sigma$. -->
     <g transform="translate(94.6 254.835287) scale(0.1 -0.1)">
      <defs>
       <path id="CMSS17-43" d="M 3501 714 
C 3072 427 2874 344 2355 344 
C 1459 344 934 1303 934 2179 
C 934 3112 1472 4032 2381 4032 
C 2790 4032 3059 3918 3386 3715 
L 3475 4217 
C 3168 4370 2778 4440 2387 4440 
C 1158 4440 397 3316 397 2179 
C 397 927 1299 -64 2323 -64 
C 2874 -64 3066 -19 3539 280 
L 3501 714 
z
" transform="scale(0.015625)"/>
       <path id="CMSS17-65" d="M 2502 1377 
C 2502 1590 2490 2003 2285 2345 
C 2061 2713 1696 2816 1421 2816 
C 755 2816 192 2188 192 1375 
C 192 582 774 -64 1510 -64 
C 1798 -64 2150 19 2470 248 
C 2470 274 2458 414 2451 420 
C 2451 433 2432 630 2432 656 
C 2125 407 1773 325 1517 325 
C 1107 325 666 667 646 1377 
L 2502 1377 
z
M 698 1728 
C 781 2084 1062 2421 1421 2421 
C 1517 2421 1965 2421 2080 1728 
L 698 1728 
z
" transform="scale(0.015625)"/>
       <path id="CMSS17-6e" d="M 2618 1877 
C 2618 2283 2522 2816 1798 2816 
C 1389 2816 1120 2606 941 2389 
L 941 2758 
L 474 2758 
L 474 0 
L 960 0 
L 960 1559 
C 960 1964 1114 2428 1549 2428 
C 2112 2428 2131 2048 2131 1829 
L 2131 0 
L 2618 0 
L 2618 1877 
z
" transform="scale(0.015625)"/>
       <path id="CMSS17-73" d="M 2061 2627 
C 1683 2807 1389 2807 1197 2807 
C 742 2807 198 2648 198 2003 
C 198 1359 902 1218 1094 1179 
C 1389 1122 1715 1058 1715 740 
C 1715 337 1254 337 1171 337 
C 915 337 563 407 243 638 
L 166 210 
C 531 0 883 -64 1178 -64 
C 1965 -64 2163 416 2163 781 
C 2163 1094 1984 1305 1862 1401 
C 1651 1568 1574 1587 1050 1696 
C 960 1709 646 1779 646 2066 
C 646 2432 1050 2432 1139 2432 
C 1555 2432 1811 2303 1984 2208 
L 2061 2627 
z
" transform="scale(0.015625)"/>
       <path id="CMSS17-69" d="M 979 4183 
L 442 4183 
L 442 3648 
L 979 3648 
L 979 4183 
z
M 947 2739 
L 474 2739 
L 474 0 
L 947 0 
L 947 2739 
z
" transform="scale(0.015625)"/>
       <path id="CMSS17-27" d="M 1088 3910 
L 1088 4413 
L 576 4413 
L 576 3904 
L 736 3904 
L 570 3104 
L 826 3104 
L 1088 3910 
z
" transform="scale(0.015625)"/>
       <path id="CMSS17-63" d="M 2464 2541 
C 2464 2585 2170 2714 2093 2739 
C 1882 2816 1613 2816 1542 2816 
C 710 2816 211 2093 211 1363 
C 211 595 768 -64 1517 -64 
C 1946 -64 2253 76 2502 242 
L 2464 664 
C 2189 453 1869 337 1523 337 
C 1024 337 698 774 698 1369 
C 698 1831 909 2414 1549 2414 
C 1901 2414 2099 2343 2394 2145 
L 2464 2541 
z
" transform="scale(0.015625)"/>
       <path id="CMSS17-6f" d="M 2829 1356 
C 2829 2176 2221 2816 1504 2816 
C 768 2816 173 2157 173 1356 
C 173 544 787 -64 1498 -64 
C 2227 -64 2829 563 2829 1356 
z
M 1504 337 
C 1050 337 659 709 659 1408 
C 659 2151 1114 2427 1498 2427 
C 1914 2427 2342 2126 2342 1408 
C 2342 683 1926 337 1504 337 
z
" transform="scale(0.015625)"/>
       <path id="CMSS17-76" d="M 2675 2752 
L 2176 2752 
L 1747 1556 
C 1613 1165 1421 627 1389 352 
L 1382 352 
C 1370 468 1318 634 1286 749 
C 1248 890 1197 1056 1158 1172 
L 595 2752 
L 83 2752 
L 1094 0 
L 1664 0 
L 2675 2752 
z
" transform="scale(0.015625)"/>
       <path id="CMR17-33" d="M 1414 2157 
C 1984 2157 2234 1662 2234 1090 
C 2234 320 1824 25 1453 25 
C 1114 25 563 194 390 693 
C 422 680 454 680 486 680 
C 640 680 755 782 755 948 
C 755 1133 614 1216 486 1216 
C 378 1216 211 1165 211 926 
C 211 335 787 -128 1466 -128 
C 2176 -128 2720 430 2720 1085 
C 2720 1707 2208 2157 1600 2227 
C 2086 2328 2554 2756 2554 3329 
C 2554 3820 2048 4179 1472 4179 
C 890 4179 378 3829 378 3329 
C 378 3110 544 3072 627 3072 
C 762 3072 877 3155 877 3321 
C 877 3486 762 3569 627 3569 
C 602 3569 570 3569 544 3557 
C 730 3959 1235 4032 1459 4032 
C 1683 4032 2106 3925 2106 3320 
C 2106 3143 2080 2828 1862 2550 
C 1670 2304 1453 2304 1242 2284 
C 1210 2284 1062 2269 1037 2269 
C 992 2263 966 2257 966 2208 
C 966 2163 973 2157 1101 2157 
L 1414 2157 
z
" transform="scale(0.015625)"/>
       <path id="CMMI12-1b" d="M 3251 2408 
C 3334 2408 3546 2408 3546 2612 
C 3546 2752 3424 2752 3309 2752 
L 1894 2752 
C 934 2752 243 1686 243 932 
C 243 390 595 -64 1171 -64 
C 1926 -64 2752 747 2752 1705 
C 2752 1954 2694 2196 2541 2408 
L 3251 2408 
z
M 1178 64 
C 851 64 614 313 614 754 
C 614 1137 845 2408 1786 2408 
C 2061 2408 2368 2274 2368 1781 
C 2368 1558 2266 1021 2042 652 
C 1811 275 1466 64 1178 64 
z
" transform="scale(0.015625)"/>
       <path id="CMSS17-2e" d="M 1088 510 
L 576 510 
L 576 0 
L 1088 0 
L 1088 510 
z
" transform="scale(0.015625)"/>
      </defs>
      <use xlink:href="#CMSS17-43" transform="scale(0.996264)"/>
      <use xlink:href="#CMSS17-65" transform="translate(59.855772 0) scale(0.996264)"/>
      <use xlink:href="#CMSS17-6e" transform="translate(101.494594 0) scale(0.996264)"/>
      <use xlink:href="#CMSS17-73" transform="translate(149.699537 0) scale(0.996264)"/>
      <use xlink:href="#CMSS17-69" transform="translate(185.613079 0) scale(0.996264)"/>
      <use xlink:href="#CMSS17-27" transform="translate(207.793802 0) scale(0.996264)"/>
      <use xlink:href="#CMSS17-73" transform="translate(233.818007 0) scale(0.996264)"/>
      <use xlink:href="#CMSS17-63" transform="translate(300.960661 0) scale(0.996264)"/>
      <use xlink:href="#CMSS17-6f" transform="translate(342.599484 0) scale(0.996264)"/>
      <use xlink:href="#CMSS17-76" transform="translate(389.443107 0) scale(0.996264)"/>
      <use xlink:href="#CMR17-33" transform="translate(463.672361 0) scale(0.996264)"/>
      <use xlink:href="#CMMI12-1b" transform="translate(509.362839 0) scale(0.996264)"/>
      <use xlink:href="#CMSS17-2e" transform="translate(568.382892 0) scale(0.996264)"/>
     </g>
    </g>
    <g id="line2d_26">
     <path d="M 66.6 265.272465 
L 76.6 265.272465 
L 86.6 265.272465 
" style="fill: none; stroke: #008000; stroke-width: 1.5; stroke-linecap: square"/>
    </g>
    <g id="text_14">
     <!-- Brossard's cov $3\sigma$. -->
     <g transform="translate(94.6 268.772465) scale(0.1 -0.1)">
      <defs>
       <path id="CMSS17-42" d="M 570 4416 
L 570 0 
L 2163 0 
C 3034 0 3667 574 3667 1200 
C 3667 1685 3251 2176 2502 2317 
C 3334 2558 3501 3040 3501 3313 
C 3501 3883 2874 4416 1997 4416 
L 570 4416 
z
M 1088 2496 
L 1088 4059 
L 1824 4059 
C 2483 4059 3002 3724 3002 3306 
C 3002 2926 2592 2496 1766 2496 
L 1088 2496 
z
M 1088 357 
L 1088 2107 
L 1939 2107 
C 2630 2107 3162 1679 3162 1206 
C 3162 772 2694 357 1984 357 
L 1088 357 
z
" transform="scale(0.015625)"/>
       <path id="CMSS17-72" d="M 954 1363 
C 954 1965 1395 2368 1958 2368 
L 1958 2789 
C 1549 2789 1165 2585 934 2253 
L 934 2758 
L 480 2758 
L 480 0 
L 954 0 
L 954 1363 
z
" transform="scale(0.015625)"/>
       <path id="CMSS17-61" d="M 2406 1791 
C 2406 2392 1978 2808 1402 2808 
C 1120 2808 813 2757 461 2553 
L 499 2135 
C 659 2248 934 2432 1395 2432 
C 1722 2432 1920 2180 1920 1782 
L 1920 1536 
C 896 1536 256 1238 256 726 
C 256 461 416 -64 947 -64 
C 1043 -64 1562 -64 1933 217 
L 1933 -19 
L 2406 -19 
L 2406 1791 
z
M 1920 816 
C 1920 701 1920 548 1728 434 
C 1562 325 1350 325 1261 325 
C 941 325 723 511 723 744 
C 723 1211 1722 1211 1920 1211 
L 1920 816 
z
" transform="scale(0.015625)"/>
       <path id="CMSS17-64" d="M 2611 4416 
L 2138 4416 
L 2138 2438 
C 1939 2603 1613 2756 1254 2756 
C 672 2756 211 2131 211 1347 
C 211 562 666 -64 1235 -64 
C 1677 -64 1971 172 2125 306 
L 2125 -13 
L 2611 -13 
L 2611 4416 
z
M 2125 836 
C 2125 747 2125 653 1926 482 
C 1798 375 1645 325 1498 325 
C 1152 325 698 576 698 1340 
C 698 2134 1210 2368 1562 2368 
C 1798 2368 1990 2254 2125 2065 
L 2125 836 
z
" transform="scale(0.015625)"/>
      </defs>
      <use xlink:href="#CMSS17-42" transform="scale(0.996264)"/>
      <use xlink:href="#CMSS17-72" transform="translate(62.33804 0) scale(0.996264)"/>
      <use xlink:href="#CMSS17-6f" transform="translate(94.247813 0) scale(0.996264)"/>
      <use xlink:href="#CMSS17-73" transform="translate(141.091436 0) scale(0.996264)"/>
      <use xlink:href="#CMSS17-73" transform="translate(177.004978 0) scale(0.996264)"/>
      <use xlink:href="#CMSS17-61" transform="translate(212.91852 0) scale(0.996264)"/>
      <use xlink:href="#CMSS17-72" transform="translate(255.237987 0) scale(0.996264)"/>
      <use xlink:href="#CMSS17-64" transform="translate(287.14776 0) scale(0.996264)"/>
      <use xlink:href="#CMSS17-27" transform="translate(335.352703 0) scale(0.996264)"/>
      <use xlink:href="#CMSS17-73" transform="translate(361.376908 0) scale(0.996264)"/>
      <use xlink:href="#CMSS17-63" transform="translate(428.519562 0) scale(0.996264)"/>
      <use xlink:href="#CMSS17-6f" transform="translate(470.158384 0) scale(0.996264)"/>
      <use xlink:href="#CMSS17-76" transform="translate(517.002008 0) scale(0.996264)"/>
      <use xlink:href="#CMR17-33" transform="translate(591.231262 0) scale(0.996264)"/>
      <use xlink:href="#CMMI12-1b" transform="translate(636.921739 0) scale(0.996264)"/>
      <use xlink:href="#CMSS17-2e" transform="translate(695.941793 0) scale(0.996264)"/>
     </g>
    </g>
    <g id="line2d_27">
     <g>
      <use xlink:href="#md97561c2e3" x="76.6" y="279.209643" style="fill: #ff0000; stroke: #ff0000"/>
     </g>
    </g>
    <g id="text_15">
     <!-- Samples. -->
     <g transform="translate(94.6 282.709643) scale(0.1 -0.1)">
      <defs>
       <path id="CMSS17-53" d="M 2797 4169 
C 2515 4334 2208 4480 1690 4480 
C 864 4480 333 3879 333 3266 
C 333 3025 403 2753 653 2475 
C 902 2196 1184 2121 1542 2033 
C 1690 1994 1939 1924 1984 1906 
C 2342 1767 2515 1444 2515 1140 
C 2515 742 2202 318 1645 318 
C 1453 318 890 318 358 819 
L 269 318 
C 794 -64 1363 -128 1651 -128 
C 2438 -128 3002 488 3002 1186 
C 3002 1440 2925 1763 2656 2061 
C 2394 2347 2163 2410 1638 2549 
C 1338 2626 1146 2677 986 2873 
C 877 3013 819 3146 819 3317 
C 819 3673 1126 4060 1690 4060 
C 1971 4060 2336 4002 2707 3660 
L 2797 4169 
z
" transform="scale(0.015625)"/>
       <path id="CMSS17-70" d="M 966 333 
C 1178 129 1466 -5 1773 -5 
C 2368 -5 2880 603 2880 1412 
C 2880 2159 2496 2816 1946 2816 
C 1626 2816 1242 2702 954 2472 
L 954 2765 
L 480 2765 
L 480 -1216 
L 966 -1216 
L 966 333 
z
M 966 2100 
C 1018 2176 1235 2415 1587 2415 
C 2035 2415 2394 1960 2394 1412 
C 2394 787 1958 384 1530 384 
C 1402 384 1267 415 1139 523 
C 966 674 966 768 966 857 
L 966 2100 
z
" transform="scale(0.015625)"/>
       <path id="CMSS17-6c" d="M 947 4416 
L 474 4416 
L 474 0 
L 947 0 
L 947 4416 
z
" transform="scale(0.015625)"/>
      </defs>
      <use xlink:href="#CMSS17-53" transform="scale(0.996264)"/>
      <use xlink:href="#CMSS17-61" transform="translate(52.048516 0) scale(0.996264)"/>
      <use xlink:href="#CMSS17-6d" transform="translate(96.970437 0) scale(0.996264)"/>
      <use xlink:href="#CMSS17-70" transform="translate(171.199691 0) scale(0.996264)"/>
      <use xlink:href="#CMSS17-6c" transform="translate(219.404634 0) scale(0.996264)"/>
      <use xlink:href="#CMSS17-65" transform="translate(241.585357 0) scale(0.996264)"/>
      <use xlink:href="#CMSS17-73" transform="translate(283.224179 0) scale(0.996264)"/>
      <use xlink:href="#CMSS17-2e" transform="translate(319.137721 0) scale(0.996264)"/>
     </g>
    </g>
    <g id="line2d_28">
     <path d="M 66.6 293.146822 
L 76.6 293.146822 
L 86.6 293.146822 
" style="fill: none; stroke: #ff0000; stroke-width: 1.5; stroke-linecap: square"/>
    </g>
    <g id="text_16">
     <!-- Sample cov $3\sigma$. -->
     <g transform="translate(94.6 296.646822) scale(0.1 -0.1)">
      <use xlink:href="#CMSS17-53" transform="scale(0.996264)"/>
      <use xlink:href="#CMSS17-61" transform="translate(52.048516 0) scale(0.996264)"/>
      <use xlink:href="#CMSS17-6d" transform="translate(96.970437 0) scale(0.996264)"/>
      <use xlink:href="#CMSS17-70" transform="translate(171.199691 0) scale(0.996264)"/>
      <use xlink:href="#CMSS17-6c" transform="translate(219.404634 0) scale(0.996264)"/>
      <use xlink:href="#CMSS17-65" transform="translate(241.585357 0) scale(0.996264)"/>
      <use xlink:href="#CMSS17-63" transform="translate(314.453292 0) scale(0.996264)"/>
      <use xlink:href="#CMSS17-6f" transform="translate(356.092114 0) scale(0.996264)"/>
      <use xlink:href="#CMSS17-76" transform="translate(402.935738 0) scale(0.996264)"/>
      <use xlink:href="#CMR17-33" transform="translate(477.164992 0) scale(0.996264)"/>
      <use xlink:href="#CMMI12-1b" transform="translate(522.855469 0) scale(0.996264)"/>
      <use xlink:href="#CMSS17-2e" transform="translate(581.875523 0) scale(0.996264)"/>
     </g>
    </g>
   </g>
  </g>
 </g>
 <defs>
  <clipPath id="p7c6d2fc962">
   <rect x="57.6" y="41.472" width="357.12" height="266.112"/>
  </clipPath>
 </defs>
</svg>
