<?xml version="1.0" encoding="utf-8" standalone="no"?>
<!DOCTYPE svg PUBLIC "-//W3C//DTD SVG 1.1//EN"
  "http://www.w3.org/Graphics/SVG/1.1/DTD/svg11.dtd">
<svg xmlns:xlink="http://www.w3.org/1999/xlink" width="460.8pt" height="345.6pt" viewBox="0 0 460.8 345.6" xmlns="http://www.w3.org/2000/svg" version="1.1">
 <metadata>
  <rdf:RDF xmlns:dc="http://purl.org/dc/elements/1.1/" xmlns:cc="http://creativecommons.org/ns#" xmlns:rdf="http://www.w3.org/1999/02/22-rdf-syntax-ns#">
   <cc:Work>
    <dc:type rdf:resource="http://purl.org/dc/dcmitype/StillImage"/>
    <dc:date>2022-12-17T15:06:04.275248</dc:date>
    <dc:format>image/svg+xml</dc:format>
    <dc:creator>
     <cc:Agent>
      <dc:title>Matplotlib v3.6.0, https://matplotlib.org/</dc:title>
     </cc:Agent>
    </dc:creator>
   </cc:Work>
  </rdf:RDF>
 </metadata>
 <defs>
  <style type="text/css">*{stroke-linejoin: round; stroke-linecap: butt}</style>
 </defs>
 <g id="figure_1">
  <g id="patch_1">
   <path d="M 0 345.6 
L 460.8 345.6 
L 460.8 0 
L 0 0 
z
" style="fill: #ffffff"/>
  </g>
  <g id="axes_1">
   <g id="patch_2">
    <path d="M 57.6 307.584 
L 414.72 307.584 
L 414.72 41.472 
L 57.6 41.472 
z
" style="fill: #ffffff"/>
   </g>
   <g id="patch_3">
    <path d="M 233.527342 177.298846 
L 233.411134 176.782353 
L 233.32894 176.230308 
L 233.282056 175.651416 
L 233.271221 175.054807 
L 233.296606 174.449891 
L 233.35781 173.846206 
L 233.453869 173.253273 
L 233.583267 172.680443 
L 233.743964 172.136751 
L 233.933426 171.63077 
L 234.148664 171.17048 
L 234.386284 170.76314 
L 234.642539 170.415174 
L 234.913387 170.13207 
L 235.194558 169.918293 
L 235.481616 169.777213 
L 235.770035 169.711056 
L 236.055266 169.720865 
L 236.332811 169.806486 
L 236.598293 169.966567 
L 236.847525 170.198585 
L 237.076576 170.498881 
L 237.281835 170.862718 
L 237.460063 171.284359 
L 237.608451 171.757154 
L 237.724659 172.273647 
L 237.806853 172.825692 
L 237.853737 173.404584 
L 237.864572 174.001193 
L 237.839187 174.606109 
L 237.777983 175.209794 
L 237.681924 175.802727 
L 237.552526 176.375557 
L 237.391829 176.919249 
L 237.202368 177.42523 
L 236.98713 177.88552 
L 236.749509 178.29286 
L 236.493254 178.640826 
L 236.222406 178.92393 
L 235.941235 179.137707 
L 235.654177 179.278787 
L 235.365758 179.344944 
L 235.080527 179.335135 
L 234.802982 179.249514 
L 234.5375 179.089433 
L 234.288269 178.857415 
L 234.059217 178.557119 
L 233.853959 178.193282 
L 233.67573 177.771641 
L 233.527342 177.298846 
z
" clip-path="url(#p5c762c1eca)" style="fill: none; opacity: 0"/>
   </g>
   <g id="patch_4">
    <path d="M 73.832727 54.708209 
L 75.412307 53.568 
L 79.517637 54.335403 
L 86.083972 56.998315 
L 95.007758 61.51474 
L 106.148262 67.813452 
L 119.32979 75.795116 
L 134.344463 85.333857 
L 150.95549 96.279242 
L 168.900905 108.458658 
L 187.897698 121.680026 
L 207.646279 135.734838 
L 227.8352 150.401442 
L 248.146071 165.448536 
L 268.258576 180.638818 
L 287.85553 195.73273 
L 306.627876 210.49223 
L 324.279564 224.684552 
L 340.532217 238.085876 
L 355.129519 250.484854 
L 367.841263 261.685947 
L 378.466977 271.512508 
L 386.839087 279.809564 
L 392.82556 286.446268 
L 396.331986 291.317953 
L 397.303066 294.347791 
L 395.723486 295.488 
L 391.618156 294.720597 
L 385.051821 292.057685 
L 376.128035 287.54126 
L 364.987532 281.242548 
L 351.806003 273.260884 
L 336.79133 263.722143 
L 320.180304 252.776758 
L 302.234889 240.597342 
L 283.238095 227.375974 
L 263.489515 213.321162 
L 243.300593 198.654558 
L 222.989723 183.607464 
L 202.877217 168.417182 
L 183.280264 153.32327 
L 164.507917 138.56377 
L 146.856229 124.371448 
L 130.603577 110.970124 
L 116.006274 98.571146 
L 103.29453 87.370053 
L 92.668816 77.543492 
L 84.296706 69.246436 
L 78.310233 62.609732 
L 74.803807 57.738047 
L 73.832727 54.708209 
z
" clip-path="url(#p5c762c1eca)" style="fill: none; opacity: 0"/>
   </g>
   <g id="patch_5">
    <path d="M 81.249473 68.331497 
L 82.858747 66.273738 
L 86.876336 65.923212 
L 93.238879 67.285449 
L 101.846036 70.338965 
L 112.562067 75.035604 
L 125.217973 81.301298 
L 139.614163 89.037233 
L 155.523601 98.121408 
L 172.695386 108.41056 
L 190.858707 119.742425 
L 209.727119 131.93829 
L 229.003056 144.805821 
L 248.382524 158.142088 
L 267.559898 171.73677 
L 286.232739 185.375473 
L 304.106564 198.843104 
L 320.899495 211.927271 
L 336.346695 224.421629 
L 350.204553 236.129135 
L 362.254522 246.865155 
L 372.306568 256.460374 
L 380.202163 264.763471 
L 385.81679 271.6435 
L 389.061901 276.99196 
L 389.886321 280.724503 
L 388.277046 282.782262 
L 384.259458 283.132788 
L 377.896914 281.770551 
L 369.289757 278.717035 
L 358.573726 274.020396 
L 345.91782 267.754702 
L 331.52163 260.018767 
L 315.612192 250.934592 
L 298.440407 240.64544 
L 280.277086 229.313575 
L 261.408674 217.11771 
L 242.132737 204.250179 
L 222.753269 190.913912 
L 203.575895 177.31923 
L 184.903055 163.680527 
L 167.029229 150.212896 
L 150.236299 137.128729 
L 134.789099 124.634371 
L 120.931241 112.926865 
L 108.881271 102.190845 
L 98.829225 92.595626 
L 90.93363 84.292529 
L 85.319004 77.4125 
L 82.073892 72.06404 
L 81.249473 68.331497 
z
" clip-path="url(#p5c762c1eca)" style="fill: none; opacity: 0"/>
   </g>
   <g id="matplotlib.axis_1">
    <g id="xtick_1">
     <g id="line2d_1">
      <path d="M 105.891068 307.584 
L 105.891068 41.472 
" clip-path="url(#p5c762c1eca)" style="fill: none; stroke: #b0b0b0; stroke-width: 0.8; stroke-linecap: square"/>
     </g>
     <g id="line2d_2">
      <defs>
       <path id="mf61946c435" d="M 0 0 
L 0 3.5 
" style="stroke: #000000; stroke-width: 0.8"/>
      </defs>
      <g>
       <use xlink:href="#mf61946c435" x="105.891068" y="307.584" style="stroke: #000000; stroke-width: 0.8"/>
      </g>
     </g>
     <g id="text_1">
      <!-- $\mathdefault{−0.2}$ -->
      <g transform="translate(95.651657 321.502498) scale(0.1 -0.1)">
       <defs>
        <path id="CMSY10-0" d="M 4218 1472 
C 4326 1472 4442 1472 4442 1600 
C 4442 1728 4326 1728 4218 1728 
L 755 1728 
C 646 1728 531 1728 531 1600 
C 531 1472 646 1472 755 1472 
L 4218 1472 
z
" transform="scale(0.015625)"/>
        <path id="CMR17-30" d="M 2688 2025 
C 2688 2416 2682 3080 2413 3591 
C 2176 4039 1798 4198 1466 4198 
C 1158 4198 768 4058 525 3597 
C 269 3118 243 2524 243 2025 
C 243 1661 250 1106 448 619 
C 723 -39 1216 -128 1466 -128 
C 1760 -128 2208 -7 2470 600 
C 2662 1042 2688 1559 2688 2025 
z
M 1466 -26 
C 1056 -26 813 325 723 812 
C 653 1188 653 1738 653 2096 
C 653 2588 653 2997 736 3387 
C 858 3929 1216 4096 1466 4096 
C 1728 4096 2067 3923 2189 3400 
C 2272 3036 2278 2607 2278 2096 
C 2278 1680 2278 1169 2202 792 
C 2067 95 1690 -26 1466 -26 
z
" transform="scale(0.015625)"/>
        <path id="CMMI12-3a" d="M 1178 307 
C 1178 492 1024 619 870 619 
C 685 619 557 466 557 313 
C 557 128 710 0 864 0 
C 1050 0 1178 153 1178 307 
z
" transform="scale(0.015625)"/>
        <path id="CMR17-32" d="M 2669 989 
L 2554 989 
C 2490 536 2438 459 2413 420 
C 2381 369 1920 369 1830 369 
L 602 369 
C 832 619 1280 1072 1824 1597 
C 2214 1967 2669 2402 2669 3035 
C 2669 3790 2067 4224 1395 4224 
C 691 4224 262 3604 262 3030 
C 262 2780 448 2748 525 2748 
C 589 2748 781 2787 781 3010 
C 781 3207 614 3264 525 3264 
C 486 3264 448 3258 422 3245 
C 544 3790 915 4058 1306 4058 
C 1862 4058 2227 3617 2227 3035 
C 2227 2479 1901 2000 1536 1584 
L 262 146 
L 262 0 
L 2515 0 
L 2669 989 
z
" transform="scale(0.015625)"/>
       </defs>
       <use xlink:href="#CMSY10-0" transform="scale(0.996264)"/>
       <use xlink:href="#CMR17-30" transform="translate(77.487468 0) scale(0.996264)"/>
       <use xlink:href="#CMMI12-3a" transform="translate(123.177945 0) scale(0.996264)"/>
       <use xlink:href="#CMR17-32" transform="translate(150.275122 0) scale(0.996264)"/>
      </g>
     </g>
    </g>
    <g id="xtick_2">
     <g id="line2d_3">
      <path d="M 156.766018 307.584 
L 156.766018 41.472 
" clip-path="url(#p5c762c1eca)" style="fill: none; stroke: #b0b0b0; stroke-width: 0.8; stroke-linecap: square"/>
     </g>
     <g id="line2d_4">
      <g>
       <use xlink:href="#mf61946c435" x="156.766018" y="307.584" style="stroke: #000000; stroke-width: 0.8"/>
      </g>
     </g>
     <g id="text_2">
      <!-- $\mathdefault{−0.1}$ -->
      <g transform="translate(146.526607 321.502498) scale(0.1 -0.1)">
       <defs>
        <path id="CMR17-31" d="M 1702 4058 
C 1702 4192 1696 4192 1606 4192 
C 1357 3916 979 3827 621 3827 
C 602 3827 570 3827 563 3808 
C 557 3795 557 3782 557 3648 
C 755 3648 1088 3686 1344 3839 
L 1344 461 
C 1344 236 1331 160 781 160 
L 589 160 
L 589 0 
C 896 0 1216 0 1523 0 
C 1830 0 2150 0 2458 0 
L 2458 160 
L 2266 160 
C 1715 160 1702 230 1702 458 
L 1702 4058 
z
" transform="scale(0.015625)"/>
       </defs>
       <use xlink:href="#CMSY10-0" transform="scale(0.996264)"/>
       <use xlink:href="#CMR17-30" transform="translate(77.487468 0) scale(0.996264)"/>
       <use xlink:href="#CMMI12-3a" transform="translate(123.177945 0) scale(0.996264)"/>
       <use xlink:href="#CMR17-31" transform="translate(150.275122 0) scale(0.996264)"/>
      </g>
     </g>
    </g>
    <g id="xtick_3">
     <g id="line2d_5">
      <path d="M 207.640968 307.584 
L 207.640968 41.472 
" clip-path="url(#p5c762c1eca)" style="fill: none; stroke: #b0b0b0; stroke-width: 0.8; stroke-linecap: square"/>
     </g>
     <g id="line2d_6">
      <g>
       <use xlink:href="#mf61946c435" x="207.640968" y="307.584" style="stroke: #000000; stroke-width: 0.8"/>
      </g>
     </g>
     <g id="text_3">
      <!-- $\mathdefault{0.0}$ -->
      <g transform="translate(201.275929 321.502498) scale(0.1 -0.1)">
       <use xlink:href="#CMR17-30" transform="scale(0.996264)"/>
       <use xlink:href="#CMMI12-3a" transform="translate(45.690477 0) scale(0.996264)"/>
       <use xlink:href="#CMR17-30" transform="translate(72.787654 0) scale(0.996264)"/>
      </g>
     </g>
    </g>
    <g id="xtick_4">
     <g id="line2d_7">
      <path d="M 258.515918 307.584 
L 258.515918 41.472 
" clip-path="url(#p5c762c1eca)" style="fill: none; stroke: #b0b0b0; stroke-width: 0.8; stroke-linecap: square"/>
     </g>
     <g id="line2d_8">
      <g>
       <use xlink:href="#mf61946c435" x="258.515918" y="307.584" style="stroke: #000000; stroke-width: 0.8"/>
      </g>
     </g>
     <g id="text_4">
      <!-- $\mathdefault{0.1}$ -->
      <g transform="translate(252.150879 321.502498) scale(0.1 -0.1)">
       <use xlink:href="#CMR17-30" transform="scale(0.996264)"/>
       <use xlink:href="#CMMI12-3a" transform="translate(45.690477 0) scale(0.996264)"/>
       <use xlink:href="#CMR17-31" transform="translate(72.787654 0) scale(0.996264)"/>
      </g>
     </g>
    </g>
    <g id="xtick_5">
     <g id="line2d_9">
      <path d="M 309.390869 307.584 
L 309.390869 41.472 
" clip-path="url(#p5c762c1eca)" style="fill: none; stroke: #b0b0b0; stroke-width: 0.8; stroke-linecap: square"/>
     </g>
     <g id="line2d_10">
      <g>
       <use xlink:href="#mf61946c435" x="309.390869" y="307.584" style="stroke: #000000; stroke-width: 0.8"/>
      </g>
     </g>
     <g id="text_5">
      <!-- $\mathdefault{0.2}$ -->
      <g transform="translate(303.025829 321.502498) scale(0.1 -0.1)">
       <use xlink:href="#CMR17-30" transform="scale(0.996264)"/>
       <use xlink:href="#CMMI12-3a" transform="translate(45.690477 0) scale(0.996264)"/>
       <use xlink:href="#CMR17-32" transform="translate(72.787654 0) scale(0.996264)"/>
      </g>
     </g>
    </g>
    <g id="xtick_6">
     <g id="line2d_11">
      <path d="M 360.265819 307.584 
L 360.265819 41.472 
" clip-path="url(#p5c762c1eca)" style="fill: none; stroke: #b0b0b0; stroke-width: 0.8; stroke-linecap: square"/>
     </g>
     <g id="line2d_12">
      <g>
       <use xlink:href="#mf61946c435" x="360.265819" y="307.584" style="stroke: #000000; stroke-width: 0.8"/>
      </g>
     </g>
     <g id="text_6">
      <!-- $\mathdefault{0.3}$ -->
      <g transform="translate(353.900779 321.502498) scale(0.1 -0.1)">
       <defs>
        <path id="CMR17-33" d="M 1414 2157 
C 1984 2157 2234 1662 2234 1090 
C 2234 320 1824 25 1453 25 
C 1114 25 563 194 390 693 
C 422 680 454 680 486 680 
C 640 680 755 782 755 948 
C 755 1133 614 1216 486 1216 
C 378 1216 211 1165 211 926 
C 211 335 787 -128 1466 -128 
C 2176 -128 2720 430 2720 1085 
C 2720 1707 2208 2157 1600 2227 
C 2086 2328 2554 2756 2554 3329 
C 2554 3820 2048 4179 1472 4179 
C 890 4179 378 3829 378 3329 
C 378 3110 544 3072 627 3072 
C 762 3072 877 3155 877 3321 
C 877 3486 762 3569 627 3569 
C 602 3569 570 3569 544 3557 
C 730 3959 1235 4032 1459 4032 
C 1683 4032 2106 3925 2106 3320 
C 2106 3143 2080 2828 1862 2550 
C 1670 2304 1453 2304 1242 2284 
C 1210 2284 1062 2269 1037 2269 
C 992 2263 966 2257 966 2208 
C 966 2163 973 2157 1101 2157 
L 1414 2157 
z
" transform="scale(0.015625)"/>
       </defs>
       <use xlink:href="#CMR17-30" transform="scale(0.996264)"/>
       <use xlink:href="#CMMI12-3a" transform="translate(45.690477 0) scale(0.996264)"/>
       <use xlink:href="#CMR17-33" transform="translate(72.787654 0) scale(0.996264)"/>
      </g>
     </g>
    </g>
    <g id="xtick_7">
     <g id="line2d_13">
      <path d="M 411.140769 307.584 
L 411.140769 41.472 
" clip-path="url(#p5c762c1eca)" style="fill: none; stroke: #b0b0b0; stroke-width: 0.8; stroke-linecap: square"/>
     </g>
     <g id="line2d_14">
      <g>
       <use xlink:href="#mf61946c435" x="411.140769" y="307.584" style="stroke: #000000; stroke-width: 0.8"/>
      </g>
     </g>
     <g id="text_7">
      <!-- $\mathdefault{0.4}$ -->
      <g transform="translate(404.775729 321.502498) scale(0.1 -0.1)">
       <defs>
        <path id="CMR17-34" d="M 2150 4122 
C 2150 4256 2144 4256 2029 4256 
L 128 1254 
L 128 1088 
L 1779 1088 
L 1779 457 
C 1779 224 1766 160 1318 160 
L 1197 160 
L 1197 0 
C 1402 0 1747 0 1965 0 
C 2182 0 2528 0 2733 0 
L 2733 160 
L 2611 160 
C 2163 160 2150 224 2150 457 
L 2150 1088 
L 2803 1088 
L 2803 1254 
L 2150 1254 
L 2150 4122 
z
M 1798 3703 
L 1798 1254 
L 256 1254 
L 1798 3703 
z
" transform="scale(0.015625)"/>
       </defs>
       <use xlink:href="#CMR17-30" transform="scale(0.996264)"/>
       <use xlink:href="#CMMI12-3a" transform="translate(45.690477 0) scale(0.996264)"/>
       <use xlink:href="#CMR17-34" transform="translate(72.787654 0) scale(0.996264)"/>
      </g>
     </g>
    </g>
    <g id="text_8">
     <!-- x [m] -->
     <g transform="translate(225.36713 334.911657) scale(0.1 -0.1)">
      <defs>
       <path id="CMSS17-78" d="M 1587 1414 
L 2656 2739 
L 2099 2739 
L 1363 1777 
L 602 2739 
L 32 2739 
L 1139 1414 
L 0 0 
L 563 0 
L 1363 1121 
L 2195 0 
L 2758 0 
L 1587 1414 
z
" transform="scale(0.015625)"/>
       <path id="CMSS17-5b" d="M 1613 -1600 
L 1613 -1212 
L 1062 -1212 
L 1062 4352 
L 1613 4352 
L 1613 4741 
L 595 4741 
L 595 -1600 
L 1613 -1600 
z
" transform="scale(0.015625)"/>
       <path id="CMSS17-6d" d="M 4288 1877 
C 4288 2308 4179 2816 3462 2816 
C 2982 2816 2694 2516 2566 2331 
C 2451 2670 2182 2816 1798 2816 
C 1363 2816 1088 2568 941 2389 
L 941 2758 
L 474 2758 
L 474 0 
L 960 0 
L 960 1559 
C 960 1939 1101 2428 1555 2428 
C 2138 2428 2138 2016 2138 1829 
L 2138 0 
L 2624 0 
L 2624 1559 
C 2624 1939 2765 2428 3219 2428 
C 3802 2428 3802 2016 3802 1829 
L 3802 0 
L 4288 0 
L 4288 1877 
z
" transform="scale(0.015625)"/>
       <path id="CMSS17-5d" d="M 1146 4741 
L 128 4741 
L 128 4352 
L 678 4352 
L 678 -1212 
L 128 -1212 
L 128 -1600 
L 1146 -1600 
L 1146 4741 
z
" transform="scale(0.015625)"/>
      </defs>
      <use xlink:href="#CMSS17-78" transform="scale(0.996264)"/>
      <use xlink:href="#CMSS17-5b" transform="translate(74.229254 0) scale(0.996264)"/>
      <use xlink:href="#CMSS17-6d" transform="translate(101.414693 0) scale(0.996264)"/>
      <use xlink:href="#CMSS17-5d" transform="translate(175.643948 0) scale(0.996264)"/>
     </g>
    </g>
   </g>
   <g id="matplotlib.axis_2">
    <g id="ytick_1">
     <g id="line2d_15">
      <path d="M 57.6 271.480204 
L 414.72 271.480204 
" clip-path="url(#p5c762c1eca)" style="fill: none; stroke: #b0b0b0; stroke-width: 0.8; stroke-linecap: square"/>
     </g>
     <g id="line2d_16">
      <defs>
       <path id="m8890795d24" d="M 0 0 
L -3.5 0 
" style="stroke: #000000; stroke-width: 0.8"/>
      </defs>
      <g>
       <use xlink:href="#m8890795d24" x="57.6" y="271.480204" style="stroke: #000000; stroke-width: 0.8"/>
      </g>
     </g>
     <g id="text_9">
      <!-- $\mathdefault{−0.10}$ -->
      <g transform="translate(25.139842 274.939453) scale(0.1 -0.1)">
       <use xlink:href="#CMSY10-0" transform="scale(0.996264)"/>
       <use xlink:href="#CMR17-30" transform="translate(77.487468 0) scale(0.996264)"/>
       <use xlink:href="#CMMI12-3a" transform="translate(123.177945 0) scale(0.996264)"/>
       <use xlink:href="#CMR17-31" transform="translate(150.275122 0) scale(0.996264)"/>
       <use xlink:href="#CMR17-30" transform="translate(195.965599 0) scale(0.996264)"/>
      </g>
     </g>
    </g>
    <g id="ytick_2">
     <g id="line2d_17">
      <path d="M 57.6 214.164163 
L 414.72 214.164163 
" clip-path="url(#p5c762c1eca)" style="fill: none; stroke: #b0b0b0; stroke-width: 0.8; stroke-linecap: square"/>
     </g>
     <g id="line2d_18">
      <g>
       <use xlink:href="#m8890795d24" x="57.6" y="214.164163" style="stroke: #000000; stroke-width: 0.8"/>
      </g>
     </g>
     <g id="text_10">
      <!-- $\mathdefault{−0.05}$ -->
      <g transform="translate(25.139842 217.623412) scale(0.1 -0.1)">
       <defs>
        <path id="CMR17-35" d="M 730 3692 
C 794 3666 1056 3584 1325 3584 
C 1920 3584 2246 3911 2432 4100 
C 2432 4157 2432 4192 2394 4192 
C 2387 4192 2374 4192 2323 4163 
C 2099 4058 1837 3973 1517 3973 
C 1325 3973 1037 3999 723 4139 
C 653 4171 640 4171 634 4171 
C 602 4171 595 4164 595 4037 
L 595 2203 
C 595 2089 595 2057 659 2057 
C 691 2057 704 2070 736 2114 
C 941 2401 1222 2522 1542 2522 
C 1766 2522 2246 2382 2246 1289 
C 2246 1085 2246 715 2054 421 
C 1894 159 1645 25 1370 25 
C 947 25 518 320 403 814 
C 429 807 480 795 506 795 
C 589 795 749 840 749 1038 
C 749 1210 627 1280 506 1280 
C 358 1280 262 1190 262 1011 
C 262 454 704 -128 1382 -128 
C 2042 -128 2669 440 2669 1264 
C 2669 2030 2170 2624 1549 2624 
C 1222 2624 947 2503 730 2274 
L 730 3692 
z
" transform="scale(0.015625)"/>
       </defs>
       <use xlink:href="#CMSY10-0" transform="scale(0.996264)"/>
       <use xlink:href="#CMR17-30" transform="translate(77.487468 0) scale(0.996264)"/>
       <use xlink:href="#CMMI12-3a" transform="translate(123.177945 0) scale(0.996264)"/>
       <use xlink:href="#CMR17-30" transform="translate(150.275122 0) scale(0.996264)"/>
       <use xlink:href="#CMR17-35" transform="translate(195.965599 0) scale(0.996264)"/>
      </g>
     </g>
    </g>
    <g id="ytick_3">
     <g id="line2d_19">
      <path d="M 57.6 156.848122 
L 414.72 156.848122 
" clip-path="url(#p5c762c1eca)" style="fill: none; stroke: #b0b0b0; stroke-width: 0.8; stroke-linecap: square"/>
     </g>
     <g id="line2d_20">
      <g>
       <use xlink:href="#m8890795d24" x="57.6" y="156.848122" style="stroke: #000000; stroke-width: 0.8"/>
      </g>
     </g>
     <g id="text_11">
      <!-- $\mathdefault{0.00}$ -->
      <g transform="translate(32.888586 160.307371) scale(0.1 -0.1)">
       <use xlink:href="#CMR17-30" transform="scale(0.996264)"/>
       <use xlink:href="#CMMI12-3a" transform="translate(45.690477 0) scale(0.996264)"/>
       <use xlink:href="#CMR17-30" transform="translate(72.787654 0) scale(0.996264)"/>
       <use xlink:href="#CMR17-30" transform="translate(118.478131 0) scale(0.996264)"/>
      </g>
     </g>
    </g>
    <g id="ytick_4">
     <g id="line2d_21">
      <path d="M 57.6 99.53208 
L 414.72 99.53208 
" clip-path="url(#p5c762c1eca)" style="fill: none; stroke: #b0b0b0; stroke-width: 0.8; stroke-linecap: square"/>
     </g>
     <g id="line2d_22">
      <g>
       <use xlink:href="#m8890795d24" x="57.6" y="99.53208" style="stroke: #000000; stroke-width: 0.8"/>
      </g>
     </g>
     <g id="text_12">
      <!-- $\mathdefault{0.05}$ -->
      <g transform="translate(32.888586 102.99133) scale(0.1 -0.1)">
       <use xlink:href="#CMR17-30" transform="scale(0.996264)"/>
       <use xlink:href="#CMMI12-3a" transform="translate(45.690477 0) scale(0.996264)"/>
       <use xlink:href="#CMR17-30" transform="translate(72.787654 0) scale(0.996264)"/>
       <use xlink:href="#CMR17-35" transform="translate(118.478131 0) scale(0.996264)"/>
      </g>
     </g>
    </g>
    <g id="ytick_5">
     <g id="line2d_23">
      <path d="M 57.6 42.216039 
L 414.72 42.216039 
" clip-path="url(#p5c762c1eca)" style="fill: none; stroke: #b0b0b0; stroke-width: 0.8; stroke-linecap: square"/>
     </g>
     <g id="line2d_24">
      <g>
       <use xlink:href="#m8890795d24" x="57.6" y="42.216039" style="stroke: #000000; stroke-width: 0.8"/>
      </g>
     </g>
     <g id="text_13">
      <!-- $\mathdefault{0.10}$ -->
      <g transform="translate(32.888586 45.675288) scale(0.1 -0.1)">
       <use xlink:href="#CMR17-30" transform="scale(0.996264)"/>
       <use xlink:href="#CMMI12-3a" transform="translate(45.690477 0) scale(0.996264)"/>
       <use xlink:href="#CMR17-31" transform="translate(72.787654 0) scale(0.996264)"/>
       <use xlink:href="#CMR17-30" transform="translate(118.478131 0) scale(0.996264)"/>
      </g>
     </g>
    </g>
    <g id="text_14">
     <!-- y [m] -->
     <g transform="translate(18.649182 185.32087) rotate(-90) scale(0.1 -0.1)">
      <defs>
       <path id="CMSS17-79" d="M 2675 2752 
L 2176 2752 
C 1632 1294 1446 702 1434 383 
L 1427 383 
C 1408 696 1126 1460 902 2007 
L 602 2752 
L 83 2752 
L 1216 13 
C 1146 -178 1043 -465 1011 -529 
C 870 -885 774 -885 672 -885 
C 646 -885 442 -885 211 -809 
L 250 -1229 
C 410 -1261 570 -1280 685 -1280 
C 845 -1280 1165 -1280 1459 -497 
L 2675 2752 
z
" transform="scale(0.015625)"/>
      </defs>
      <use xlink:href="#CMSS17-79" transform="scale(0.996264)"/>
      <use xlink:href="#CMSS17-5b" transform="translate(74.229254 0) scale(0.996264)"/>
      <use xlink:href="#CMSS17-6d" transform="translate(101.414693 0) scale(0.996264)"/>
      <use xlink:href="#CMSS17-5d" transform="translate(175.643948 0) scale(0.996264)"/>
     </g>
    </g>
   </g>
   <g id="line2d_25">
    <path d="M 233.527342 177.298846 
L 233.411134 176.782353 
L 233.32894 176.230308 
L 233.282056 175.651416 
L 233.271221 175.054807 
L 233.296606 174.449891 
L 233.35781 173.846206 
L 233.453869 173.253273 
L 233.583267 172.680443 
L 233.743964 172.136751 
L 233.933426 171.63077 
L 234.148664 171.17048 
L 234.386284 170.76314 
L 234.642539 170.415174 
L 234.913387 170.13207 
L 235.194558 169.918293 
L 235.481616 169.777213 
L 235.770035 169.711056 
L 236.055266 169.720865 
L 236.332811 169.806486 
L 236.598293 169.966567 
L 236.847525 170.198585 
L 237.076576 170.498881 
L 237.281835 170.862718 
L 237.460063 171.284359 
L 237.608451 171.757154 
L 237.724659 172.273647 
L 237.806853 172.825692 
L 237.853737 173.404584 
L 237.864572 174.001193 
L 237.839187 174.606109 
L 237.777983 175.209794 
L 237.681924 175.802727 
L 237.552526 176.375557 
L 237.391829 176.919249 
L 237.202368 177.42523 
L 236.98713 177.88552 
L 236.749509 178.29286 
L 236.493254 178.640826 
L 236.222406 178.92393 
L 235.941235 179.137707 
L 235.654177 179.278787 
L 235.365758 179.344944 
L 235.080527 179.335135 
L 234.802982 179.249514 
L 234.5375 179.089433 
L 234.288269 178.857415 
L 234.059217 178.557119 
L 233.853959 178.193282 
L 233.67573 177.771641 
L 233.527342 177.298846 
" clip-path="url(#p5c762c1eca)" style="fill: none; stroke: #0000ff; stroke-width: 1.5; stroke-linecap: square"/>
   </g>
   <g id="line2d_26">
    <path d="M 73.832727 54.708209 
L 75.412307 53.568 
L 79.517637 54.335403 
L 86.083972 56.998315 
L 95.007758 61.51474 
L 106.148262 67.813452 
L 119.32979 75.795116 
L 134.344463 85.333857 
L 150.95549 96.279242 
L 168.900905 108.458658 
L 187.897698 121.680026 
L 207.646279 135.734838 
L 227.8352 150.401442 
L 248.146071 165.448536 
L 268.258576 180.638818 
L 287.85553 195.73273 
L 306.627876 210.49223 
L 324.279564 224.684552 
L 340.532217 238.085876 
L 355.129519 250.484854 
L 367.841263 261.685947 
L 378.466977 271.512508 
L 386.839087 279.809564 
L 392.82556 286.446268 
L 396.331986 291.317953 
L 397.303066 294.347791 
L 395.723486 295.488 
L 391.618156 294.720597 
L 385.051821 292.057685 
L 376.128035 287.54126 
L 364.987532 281.242548 
L 351.806003 273.260884 
L 336.79133 263.722143 
L 320.180304 252.776758 
L 302.234889 240.597342 
L 283.238095 227.375974 
L 263.489515 213.321162 
L 243.300593 198.654558 
L 222.989723 183.607464 
L 202.877217 168.417182 
L 183.280264 153.32327 
L 164.507917 138.56377 
L 146.856229 124.371448 
L 130.603577 110.970124 
L 116.006274 98.571146 
L 103.29453 87.370053 
L 92.668816 77.543492 
L 84.296706 69.246436 
L 78.310233 62.609732 
L 74.803807 57.738047 
L 73.832727 54.708209 
" clip-path="url(#p5c762c1eca)" style="fill: none; stroke: #008000; stroke-width: 1.5; stroke-linecap: square"/>
   </g>
   <g id="line2d_27">
    <defs>
     <path id="m906723d8ca" d="M 0 1.5 
C 0.397805 1.5 0.77937 1.341951 1.06066 1.06066 
C 1.341951 0.77937 1.5 0.397805 1.5 0 
C 1.5 -0.397805 1.341951 -0.77937 1.06066 -1.06066 
C 0.77937 -1.341951 0.397805 -1.5 0 -1.5 
C -0.397805 -1.5 -0.77937 -1.341951 -1.06066 -1.06066 
C -1.341951 -0.77937 -1.5 -0.397805 -1.5 0 
C -1.5 0.397805 -1.341951 0.77937 -1.06066 1.06066 
C -0.77937 1.341951 -0.397805 1.5 0 1.5 
z
" style="stroke: #ff0000"/>
    </defs>
    <g clip-path="url(#p5c762c1eca)">
     <use xlink:href="#m906723d8ca" x="259.809164" y="184.353836" style="fill: #ff0000; stroke: #ff0000"/>
     <use xlink:href="#m906723d8ca" x="262.443177" y="199.135392" style="fill: #ff0000; stroke: #ff0000"/>
     <use xlink:href="#m906723d8ca" x="186.46879" y="134.750338" style="fill: #ff0000; stroke: #ff0000"/>
     <use xlink:href="#m906723d8ca" x="179.983319" y="136.46609" style="fill: #ff0000; stroke: #ff0000"/>
     <use xlink:href="#m906723d8ca" x="258.721912" y="188.436365" style="fill: #ff0000; stroke: #ff0000"/>
     <use xlink:href="#m906723d8ca" x="240.666051" y="175.789945" style="fill: #ff0000; stroke: #ff0000"/>
     <use xlink:href="#m906723d8ca" x="254.216021" y="206.259582" style="fill: #ff0000; stroke: #ff0000"/>
     <use xlink:href="#m906723d8ca" x="182.844268" y="141.489897" style="fill: #ff0000; stroke: #ff0000"/>
     <use xlink:href="#m906723d8ca" x="189.709929" y="146.180632" style="fill: #ff0000; stroke: #ff0000"/>
     <use xlink:href="#m906723d8ca" x="268.094974" y="200.934536" style="fill: #ff0000; stroke: #ff0000"/>
     <use xlink:href="#m906723d8ca" x="248.961564" y="192.273669" style="fill: #ff0000; stroke: #ff0000"/>
     <use xlink:href="#m906723d8ca" x="214.700413" y="171.63508" style="fill: #ff0000; stroke: #ff0000"/>
     <use xlink:href="#m906723d8ca" x="212.911628" y="153.119223" style="fill: #ff0000; stroke: #ff0000"/>
     <use xlink:href="#m906723d8ca" x="303.377752" y="227.603482" style="fill: #ff0000; stroke: #ff0000"/>
     <use xlink:href="#m906723d8ca" x="232.806247" y="178.13981" style="fill: #ff0000; stroke: #ff0000"/>
     <use xlink:href="#m906723d8ca" x="269.410931" y="195.105656" style="fill: #ff0000; stroke: #ff0000"/>
     <use xlink:href="#m906723d8ca" x="239.312166" y="176.277385" style="fill: #ff0000; stroke: #ff0000"/>
     <use xlink:href="#m906723d8ca" x="302.788595" y="216.229471" style="fill: #ff0000; stroke: #ff0000"/>
     <use xlink:href="#m906723d8ca" x="224.343827" y="166.889896" style="fill: #ff0000; stroke: #ff0000"/>
     <use xlink:href="#m906723d8ca" x="198.915413" y="136.062387" style="fill: #ff0000; stroke: #ff0000"/>
     <use xlink:href="#m906723d8ca" x="286.072242" y="201.092588" style="fill: #ff0000; stroke: #ff0000"/>
     <use xlink:href="#m906723d8ca" x="223.87638" y="167.604363" style="fill: #ff0000; stroke: #ff0000"/>
     <use xlink:href="#m906723d8ca" x="285.411544" y="215.343066" style="fill: #ff0000; stroke: #ff0000"/>
     <use xlink:href="#m906723d8ca" x="192.083594" y="155.94473" style="fill: #ff0000; stroke: #ff0000"/>
     <use xlink:href="#m906723d8ca" x="251.449539" y="178.523542" style="fill: #ff0000; stroke: #ff0000"/>
     <use xlink:href="#m906723d8ca" x="179.014559" y="145.846219" style="fill: #ff0000; stroke: #ff0000"/>
     <use xlink:href="#m906723d8ca" x="171.294309" y="130.900737" style="fill: #ff0000; stroke: #ff0000"/>
     <use xlink:href="#m906723d8ca" x="267.285218" y="221.526114" style="fill: #ff0000; stroke: #ff0000"/>
     <use xlink:href="#m906723d8ca" x="235.752888" y="180.634144" style="fill: #ff0000; stroke: #ff0000"/>
     <use xlink:href="#m906723d8ca" x="210.020598" y="159.566809" style="fill: #ff0000; stroke: #ff0000"/>
     <use xlink:href="#m906723d8ca" x="240.555077" y="161.460904" style="fill: #ff0000; stroke: #ff0000"/>
     <use xlink:href="#m906723d8ca" x="157.674172" y="118.375252" style="fill: #ff0000; stroke: #ff0000"/>
     <use xlink:href="#m906723d8ca" x="211.090724" y="153.476674" style="fill: #ff0000; stroke: #ff0000"/>
     <use xlink:href="#m906723d8ca" x="183.962397" y="139.581387" style="fill: #ff0000; stroke: #ff0000"/>
     <use xlink:href="#m906723d8ca" x="198.48854" y="141.895137" style="fill: #ff0000; stroke: #ff0000"/>
     <use xlink:href="#m906723d8ca" x="191.057333" y="138.429522" style="fill: #ff0000; stroke: #ff0000"/>
     <use xlink:href="#m906723d8ca" x="268.09773" y="185.555292" style="fill: #ff0000; stroke: #ff0000"/>
     <use xlink:href="#m906723d8ca" x="199.692705" y="156.91592" style="fill: #ff0000; stroke: #ff0000"/>
     <use xlink:href="#m906723d8ca" x="160.717784" y="127.638393" style="fill: #ff0000; stroke: #ff0000"/>
     <use xlink:href="#m906723d8ca" x="301.343894" y="216.01571" style="fill: #ff0000; stroke: #ff0000"/>
     <use xlink:href="#m906723d8ca" x="336.226503" y="241.017225" style="fill: #ff0000; stroke: #ff0000"/>
     <use xlink:href="#m906723d8ca" x="176.640692" y="144.542123" style="fill: #ff0000; stroke: #ff0000"/>
     <use xlink:href="#m906723d8ca" x="258.410084" y="194.775372" style="fill: #ff0000; stroke: #ff0000"/>
     <use xlink:href="#m906723d8ca" x="204.030579" y="155.928903" style="fill: #ff0000; stroke: #ff0000"/>
     <use xlink:href="#m906723d8ca" x="293.93905" y="218.498914" style="fill: #ff0000; stroke: #ff0000"/>
     <use xlink:href="#m906723d8ca" x="152.189737" y="132.112988" style="fill: #ff0000; stroke: #ff0000"/>
     <use xlink:href="#m906723d8ca" x="214.63205" y="152.975346" style="fill: #ff0000; stroke: #ff0000"/>
     <use xlink:href="#m906723d8ca" x="161.34093" y="138.56347" style="fill: #ff0000; stroke: #ff0000"/>
     <use xlink:href="#m906723d8ca" x="133.303026" y="100.125486" style="fill: #ff0000; stroke: #ff0000"/>
     <use xlink:href="#m906723d8ca" x="224.53732" y="155.967382" style="fill: #ff0000; stroke: #ff0000"/>
     <use xlink:href="#m906723d8ca" x="281.031577" y="196.433472" style="fill: #ff0000; stroke: #ff0000"/>
     <use xlink:href="#m906723d8ca" x="253.779108" y="193.278388" style="fill: #ff0000; stroke: #ff0000"/>
     <use xlink:href="#m906723d8ca" x="206.022481" y="167.695573" style="fill: #ff0000; stroke: #ff0000"/>
     <use xlink:href="#m906723d8ca" x="267.810235" y="181.178472" style="fill: #ff0000; stroke: #ff0000"/>
     <use xlink:href="#m906723d8ca" x="178.617408" y="127.515567" style="fill: #ff0000; stroke: #ff0000"/>
     <use xlink:href="#m906723d8ca" x="241.860413" y="179.441697" style="fill: #ff0000; stroke: #ff0000"/>
     <use xlink:href="#m906723d8ca" x="287.969624" y="215.514764" style="fill: #ff0000; stroke: #ff0000"/>
     <use xlink:href="#m906723d8ca" x="241.2287" y="176.764113" style="fill: #ff0000; stroke: #ff0000"/>
     <use xlink:href="#m906723d8ca" x="298.805397" y="226.114224" style="fill: #ff0000; stroke: #ff0000"/>
     <use xlink:href="#m906723d8ca" x="246.97045" y="185.772617" style="fill: #ff0000; stroke: #ff0000"/>
     <use xlink:href="#m906723d8ca" x="313.120237" y="219.477624" style="fill: #ff0000; stroke: #ff0000"/>
     <use xlink:href="#m906723d8ca" x="311.969929" y="230.871305" style="fill: #ff0000; stroke: #ff0000"/>
     <use xlink:href="#m906723d8ca" x="231.41521" y="161.484542" style="fill: #ff0000; stroke: #ff0000"/>
     <use xlink:href="#m906723d8ca" x="256.13839" y="189.00275" style="fill: #ff0000; stroke: #ff0000"/>
     <use xlink:href="#m906723d8ca" x="219.86459" y="158.927684" style="fill: #ff0000; stroke: #ff0000"/>
     <use xlink:href="#m906723d8ca" x="240.144379" y="182.042648" style="fill: #ff0000; stroke: #ff0000"/>
     <use xlink:href="#m906723d8ca" x="213.642391" y="166.836133" style="fill: #ff0000; stroke: #ff0000"/>
     <use xlink:href="#m906723d8ca" x="312.814477" y="224.559058" style="fill: #ff0000; stroke: #ff0000"/>
     <use xlink:href="#m906723d8ca" x="208.442966" y="151.665367" style="fill: #ff0000; stroke: #ff0000"/>
     <use xlink:href="#m906723d8ca" x="243.290618" y="174.457482" style="fill: #ff0000; stroke: #ff0000"/>
     <use xlink:href="#m906723d8ca" x="198.12012" y="154.562766" style="fill: #ff0000; stroke: #ff0000"/>
     <use xlink:href="#m906723d8ca" x="260.867714" y="206.294175" style="fill: #ff0000; stroke: #ff0000"/>
     <use xlink:href="#m906723d8ca" x="317.025315" y="222.785829" style="fill: #ff0000; stroke: #ff0000"/>
     <use xlink:href="#m906723d8ca" x="191.196624" y="142.539598" style="fill: #ff0000; stroke: #ff0000"/>
     <use xlink:href="#m906723d8ca" x="264.417638" y="200.802891" style="fill: #ff0000; stroke: #ff0000"/>
     <use xlink:href="#m906723d8ca" x="281.971382" y="228.008029" style="fill: #ff0000; stroke: #ff0000"/>
     <use xlink:href="#m906723d8ca" x="241.809741" y="168.882466" style="fill: #ff0000; stroke: #ff0000"/>
     <use xlink:href="#m906723d8ca" x="189.680186" y="141.207156" style="fill: #ff0000; stroke: #ff0000"/>
     <use xlink:href="#m906723d8ca" x="228.66616" y="165.924761" style="fill: #ff0000; stroke: #ff0000"/>
     <use xlink:href="#m906723d8ca" x="358.119083" y="255.563221" style="fill: #ff0000; stroke: #ff0000"/>
     <use xlink:href="#m906723d8ca" x="129.686866" y="93.020918" style="fill: #ff0000; stroke: #ff0000"/>
     <use xlink:href="#m906723d8ca" x="281.470269" y="196.442012" style="fill: #ff0000; stroke: #ff0000"/>
     <use xlink:href="#m906723d8ca" x="159.278575" y="117.497946" style="fill: #ff0000; stroke: #ff0000"/>
     <use xlink:href="#m906723d8ca" x="184.826589" y="147.035167" style="fill: #ff0000; stroke: #ff0000"/>
     <use xlink:href="#m906723d8ca" x="235.834782" y="155.549096" style="fill: #ff0000; stroke: #ff0000"/>
     <use xlink:href="#m906723d8ca" x="224.956467" y="164.684593" style="fill: #ff0000; stroke: #ff0000"/>
     <use xlink:href="#m906723d8ca" x="241.925253" y="189.097645" style="fill: #ff0000; stroke: #ff0000"/>
     <use xlink:href="#m906723d8ca" x="154.488805" y="114.798081" style="fill: #ff0000; stroke: #ff0000"/>
     <use xlink:href="#m906723d8ca" x="305.90703" y="226.189708" style="fill: #ff0000; stroke: #ff0000"/>
     <use xlink:href="#m906723d8ca" x="261.096421" y="193.943709" style="fill: #ff0000; stroke: #ff0000"/>
     <use xlink:href="#m906723d8ca" x="398.487273" y="281.99013" style="fill: #ff0000; stroke: #ff0000"/>
     <use xlink:href="#m906723d8ca" x="258.391466" y="187.804168" style="fill: #ff0000; stroke: #ff0000"/>
     <use xlink:href="#m906723d8ca" x="162.78457" y="138.339029" style="fill: #ff0000; stroke: #ff0000"/>
     <use xlink:href="#m906723d8ca" x="309.248925" y="233.194307" style="fill: #ff0000; stroke: #ff0000"/>
     <use xlink:href="#m906723d8ca" x="242.964175" y="175.471948" style="fill: #ff0000; stroke: #ff0000"/>
     <use xlink:href="#m906723d8ca" x="219.395352" y="158.793989" style="fill: #ff0000; stroke: #ff0000"/>
     <use xlink:href="#m906723d8ca" x="151.221455" y="110.881708" style="fill: #ff0000; stroke: #ff0000"/>
     <use xlink:href="#m906723d8ca" x="201.126515" y="139.314939" style="fill: #ff0000; stroke: #ff0000"/>
     <use xlink:href="#m906723d8ca" x="251.818571" y="187.115227" style="fill: #ff0000; stroke: #ff0000"/>
     <use xlink:href="#m906723d8ca" x="237.008471" y="158.257529" style="fill: #ff0000; stroke: #ff0000"/>
    </g>
   </g>
   <g id="line2d_28">
    <path d="M 81.249473 68.331497 
L 82.858747 66.273738 
L 86.876336 65.923212 
L 93.238879 67.285449 
L 101.846036 70.338965 
L 112.562067 75.035604 
L 125.217973 81.301298 
L 139.614163 89.037233 
L 155.523601 98.121408 
L 172.695386 108.41056 
L 190.858707 119.742425 
L 209.727119 131.93829 
L 229.003056 144.805821 
L 248.382524 158.142088 
L 267.559898 171.73677 
L 286.232739 185.375473 
L 304.106564 198.843104 
L 320.899495 211.927271 
L 336.346695 224.421629 
L 350.204553 236.129135 
L 362.254522 246.865155 
L 372.306568 256.460374 
L 380.202163 264.763471 
L 385.81679 271.6435 
L 389.061901 276.99196 
L 389.886321 280.724503 
L 388.277046 282.782262 
L 384.259458 283.132788 
L 377.896914 281.770551 
L 369.289757 278.717035 
L 358.573726 274.020396 
L 345.91782 267.754702 
L 331.52163 260.018767 
L 315.612192 250.934592 
L 298.440407 240.64544 
L 280.277086 229.313575 
L 261.408674 217.11771 
L 242.132737 204.250179 
L 222.753269 190.913912 
L 203.575895 177.31923 
L 184.903055 163.680527 
L 167.029229 150.212896 
L 150.236299 137.128729 
L 134.789099 124.634371 
L 120.931241 112.926865 
L 108.881271 102.190845 
L 98.829225 92.595626 
L 90.93363 84.292529 
L 85.319004 77.4125 
L 82.073892 72.06404 
L 81.249473 68.331497 
" clip-path="url(#p5c762c1eca)" style="fill: none; stroke: #ff0000; stroke-width: 1.5; stroke-linecap: square"/>
   </g>
   <g id="patch_6">
    <path d="M 57.6 307.584 
L 57.6 41.472 
" style="fill: none; stroke: #000000; stroke-width: 0.8; stroke-linejoin: miter; stroke-linecap: square"/>
   </g>
   <g id="patch_7">
    <path d="M 414.72 307.584 
L 414.72 41.472 
" style="fill: none; stroke: #000000; stroke-width: 0.8; stroke-linejoin: miter; stroke-linecap: square"/>
   </g>
   <g id="patch_8">
    <path d="M 57.6 307.584 
L 414.72 307.584 
" style="fill: none; stroke: #000000; stroke-width: 0.8; stroke-linejoin: miter; stroke-linecap: square"/>
   </g>
   <g id="patch_9">
    <path d="M 57.6 41.472 
L 414.72 41.472 
" style="fill: none; stroke: #000000; stroke-width: 0.8; stroke-linejoin: miter; stroke-linecap: square"/>
   </g>
   <g id="legend_1">
    <g id="patch_10">
     <path d="M 298.962583 105.220713 
L 407.72 105.220713 
Q 409.72 105.220713 409.72 103.220713 
L 409.72 48.472 
Q 409.72 46.472 407.72 46.472 
L 298.962583 46.472 
Q 296.962583 46.472 296.962583 48.472 
L 296.962583 103.220713 
Q 296.962583 105.220713 298.962583 105.220713 
z
" style="fill: #ffffff; opacity: 0.8; stroke: #cccccc; stroke-linejoin: miter"/>
    </g>
    <g id="line2d_29">
     <path d="M 300.962583 53.972 
L 310.962583 53.972 
L 320.962583 53.972 
" style="fill: none; stroke: #0000ff; stroke-width: 1.5; stroke-linecap: square"/>
    </g>
    <g id="text_15">
     <!-- Censi's cov $3\sigma$. -->
     <g transform="translate(328.962583 57.472) scale(0.1 -0.1)">
      <defs>
       <path id="CMSS17-43" d="M 3501 714 
C 3072 427 2874 344 2355 344 
C 1459 344 934 1303 934 2179 
C 934 3112 1472 4032 2381 4032 
C 2790 4032 3059 3918 3386 3715 
L 3475 4217 
C 3168 4370 2778 4440 2387 4440 
C 1158 4440 397 3316 397 2179 
C 397 927 1299 -64 2323 -64 
C 2874 -64 3066 -19 3539 280 
L 3501 714 
z
" transform="scale(0.015625)"/>
       <path id="CMSS17-65" d="M 2502 1377 
C 2502 1590 2490 2003 2285 2345 
C 2061 2713 1696 2816 1421 2816 
C 755 2816 192 2188 192 1375 
C 192 582 774 -64 1510 -64 
C 1798 -64 2150 19 2470 248 
C 2470 274 2458 414 2451 420 
C 2451 433 2432 630 2432 656 
C 2125 407 1773 325 1517 325 
C 1107 325 666 667 646 1377 
L 2502 1377 
z
M 698 1728 
C 781 2084 1062 2421 1421 2421 
C 1517 2421 1965 2421 2080 1728 
L 698 1728 
z
" transform="scale(0.015625)"/>
       <path id="CMSS17-6e" d="M 2618 1877 
C 2618 2283 2522 2816 1798 2816 
C 1389 2816 1120 2606 941 2389 
L 941 2758 
L 474 2758 
L 474 0 
L 960 0 
L 960 1559 
C 960 1964 1114 2428 1549 2428 
C 2112 2428 2131 2048 2131 1829 
L 2131 0 
L 2618 0 
L 2618 1877 
z
" transform="scale(0.015625)"/>
       <path id="CMSS17-73" d="M 2061 2627 
C 1683 2807 1389 2807 1197 2807 
C 742 2807 198 2648 198 2003 
C 198 1359 902 1218 1094 1179 
C 1389 1122 1715 1058 1715 740 
C 1715 337 1254 337 1171 337 
C 915 337 563 407 243 638 
L 166 210 
C 531 0 883 -64 1178 -64 
C 1965 -64 2163 416 2163 781 
C 2163 1094 1984 1305 1862 1401 
C 1651 1568 1574 1587 1050 1696 
C 960 1709 646 1779 646 2066 
C 646 2432 1050 2432 1139 2432 
C 1555 2432 1811 2303 1984 2208 
L 2061 2627 
z
" transform="scale(0.015625)"/>
       <path id="CMSS17-69" d="M 979 4183 
L 442 4183 
L 442 3648 
L 979 3648 
L 979 4183 
z
M 947 2739 
L 474 2739 
L 474 0 
L 947 0 
L 947 2739 
z
" transform="scale(0.015625)"/>
       <path id="CMSS17-27" d="M 1088 3910 
L 1088 4413 
L 576 4413 
L 576 3904 
L 736 3904 
L 570 3104 
L 826 3104 
L 1088 3910 
z
" transform="scale(0.015625)"/>
       <path id="CMSS17-63" d="M 2464 2541 
C 2464 2585 2170 2714 2093 2739 
C 1882 2816 1613 2816 1542 2816 
C 710 2816 211 2093 211 1363 
C 211 595 768 -64 1517 -64 
C 1946 -64 2253 76 2502 242 
L 2464 664 
C 2189 453 1869 337 1523 337 
C 1024 337 698 774 698 1369 
C 698 1831 909 2414 1549 2414 
C 1901 2414 2099 2343 2394 2145 
L 2464 2541 
z
" transform="scale(0.015625)"/>
       <path id="CMSS17-6f" d="M 2829 1356 
C 2829 2176 2221 2816 1504 2816 
C 768 2816 173 2157 173 1356 
C 173 544 787 -64 1498 -64 
C 2227 -64 2829 563 2829 1356 
z
M 1504 337 
C 1050 337 659 709 659 1408 
C 659 2151 1114 2427 1498 2427 
C 1914 2427 2342 2126 2342 1408 
C 2342 683 1926 337 1504 337 
z
" transform="scale(0.015625)"/>
       <path id="CMSS17-76" d="M 2675 2752 
L 2176 2752 
L 1747 1556 
C 1613 1165 1421 627 1389 352 
L 1382 352 
C 1370 468 1318 634 1286 749 
C 1248 890 1197 1056 1158 1172 
L 595 2752 
L 83 2752 
L 1094 0 
L 1664 0 
L 2675 2752 
z
" transform="scale(0.015625)"/>
       <path id="CMMI12-1b" d="M 3251 2408 
C 3334 2408 3546 2408 3546 2612 
C 3546 2752 3424 2752 3309 2752 
L 1894 2752 
C 934 2752 243 1686 243 932 
C 243 390 595 -64 1171 -64 
C 1926 -64 2752 747 2752 1705 
C 2752 1954 2694 2196 2541 2408 
L 3251 2408 
z
M 1178 64 
C 851 64 614 313 614 754 
C 614 1137 845 2408 1786 2408 
C 2061 2408 2368 2274 2368 1781 
C 2368 1558 2266 1021 2042 652 
C 1811 275 1466 64 1178 64 
z
" transform="scale(0.015625)"/>
       <path id="CMSS17-2e" d="M 1088 510 
L 576 510 
L 576 0 
L 1088 0 
L 1088 510 
z
" transform="scale(0.015625)"/>
      </defs>
      <use xlink:href="#CMSS17-43" transform="scale(0.996264)"/>
      <use xlink:href="#CMSS17-65" transform="translate(59.855772 0) scale(0.996264)"/>
      <use xlink:href="#CMSS17-6e" transform="translate(101.494594 0) scale(0.996264)"/>
      <use xlink:href="#CMSS17-73" transform="translate(149.699537 0) scale(0.996264)"/>
      <use xlink:href="#CMSS17-69" transform="translate(185.613079 0) scale(0.996264)"/>
      <use xlink:href="#CMSS17-27" transform="translate(207.793802 0) scale(0.996264)"/>
      <use xlink:href="#CMSS17-73" transform="translate(233.818007 0) scale(0.996264)"/>
      <use xlink:href="#CMSS17-63" transform="translate(300.960661 0) scale(0.996264)"/>
      <use xlink:href="#CMSS17-6f" transform="translate(342.599484 0) scale(0.996264)"/>
      <use xlink:href="#CMSS17-76" transform="translate(389.443107 0) scale(0.996264)"/>
      <use xlink:href="#CMR17-33" transform="translate(463.672361 0) scale(0.996264)"/>
      <use xlink:href="#CMMI12-1b" transform="translate(509.362839 0) scale(0.996264)"/>
      <use xlink:href="#CMSS17-2e" transform="translate(568.382892 0) scale(0.996264)"/>
     </g>
    </g>
    <g id="line2d_30">
     <path d="M 300.962583 67.909178 
L 310.962583 67.909178 
L 320.962583 67.909178 
" style="fill: none; stroke: #008000; stroke-width: 1.5; stroke-linecap: square"/>
    </g>
    <g id="text_16">
     <!-- Brossard's cov $3\sigma$. -->
     <g transform="translate(328.962583 71.409178) scale(0.1 -0.1)">
      <defs>
       <path id="CMSS17-42" d="M 570 4416 
L 570 0 
L 2163 0 
C 3034 0 3667 574 3667 1200 
C 3667 1685 3251 2176 2502 2317 
C 3334 2558 3501 3040 3501 3313 
C 3501 3883 2874 4416 1997 4416 
L 570 4416 
z
M 1088 2496 
L 1088 4059 
L 1824 4059 
C 2483 4059 3002 3724 3002 3306 
C 3002 2926 2592 2496 1766 2496 
L 1088 2496 
z
M 1088 357 
L 1088 2107 
L 1939 2107 
C 2630 2107 3162 1679 3162 1206 
C 3162 772 2694 357 1984 357 
L 1088 357 
z
" transform="scale(0.015625)"/>
       <path id="CMSS17-72" d="M 954 1363 
C 954 1965 1395 2368 1958 2368 
L 1958 2789 
C 1549 2789 1165 2585 934 2253 
L 934 2758 
L 480 2758 
L 480 0 
L 954 0 
L 954 1363 
z
" transform="scale(0.015625)"/>
       <path id="CMSS17-61" d="M 2406 1791 
C 2406 2392 1978 2808 1402 2808 
C 1120 2808 813 2757 461 2553 
L 499 2135 
C 659 2248 934 2432 1395 2432 
C 1722 2432 1920 2180 1920 1782 
L 1920 1536 
C 896 1536 256 1238 256 726 
C 256 461 416 -64 947 -64 
C 1043 -64 1562 -64 1933 217 
L 1933 -19 
L 2406 -19 
L 2406 1791 
z
M 1920 816 
C 1920 701 1920 548 1728 434 
C 1562 325 1350 325 1261 325 
C 941 325 723 511 723 744 
C 723 1211 1722 1211 1920 1211 
L 1920 816 
z
" transform="scale(0.015625)"/>
       <path id="CMSS17-64" d="M 2611 4416 
L 2138 4416 
L 2138 2438 
C 1939 2603 1613 2756 1254 2756 
C 672 2756 211 2131 211 1347 
C 211 562 666 -64 1235 -64 
C 1677 -64 1971 172 2125 306 
L 2125 -13 
L 2611 -13 
L 2611 4416 
z
M 2125 836 
C 2125 747 2125 653 1926 482 
C 1798 375 1645 325 1498 325 
C 1152 325 698 576 698 1340 
C 698 2134 1210 2368 1562 2368 
C 1798 2368 1990 2254 2125 2065 
L 2125 836 
z
" transform="scale(0.015625)"/>
      </defs>
      <use xlink:href="#CMSS17-42" transform="scale(0.996264)"/>
      <use xlink:href="#CMSS17-72" transform="translate(62.33804 0) scale(0.996264)"/>
      <use xlink:href="#CMSS17-6f" transform="translate(94.247813 0) scale(0.996264)"/>
      <use xlink:href="#CMSS17-73" transform="translate(141.091436 0) scale(0.996264)"/>
      <use xlink:href="#CMSS17-73" transform="translate(177.004978 0) scale(0.996264)"/>
      <use xlink:href="#CMSS17-61" transform="translate(212.91852 0) scale(0.996264)"/>
      <use xlink:href="#CMSS17-72" transform="translate(255.237987 0) scale(0.996264)"/>
      <use xlink:href="#CMSS17-64" transform="translate(287.14776 0) scale(0.996264)"/>
      <use xlink:href="#CMSS17-27" transform="translate(335.352703 0) scale(0.996264)"/>
      <use xlink:href="#CMSS17-73" transform="translate(361.376908 0) scale(0.996264)"/>
      <use xlink:href="#CMSS17-63" transform="translate(428.519562 0) scale(0.996264)"/>
      <use xlink:href="#CMSS17-6f" transform="translate(470.158384 0) scale(0.996264)"/>
      <use xlink:href="#CMSS17-76" transform="translate(517.002008 0) scale(0.996264)"/>
      <use xlink:href="#CMR17-33" transform="translate(591.231262 0) scale(0.996264)"/>
      <use xlink:href="#CMMI12-1b" transform="translate(636.921739 0) scale(0.996264)"/>
      <use xlink:href="#CMSS17-2e" transform="translate(695.941793 0) scale(0.996264)"/>
     </g>
    </g>
    <g id="line2d_31">
     <g>
      <use xlink:href="#m906723d8ca" x="310.962583" y="81.846357" style="fill: #ff0000; stroke: #ff0000"/>
     </g>
    </g>
    <g id="text_17">
     <!-- Samples. -->
     <g transform="translate(328.962583 85.346357) scale(0.1 -0.1)">
      <defs>
       <path id="CMSS17-53" d="M 2797 4169 
C 2515 4334 2208 4480 1690 4480 
C 864 4480 333 3879 333 3266 
C 333 3025 403 2753 653 2475 
C 902 2196 1184 2121 1542 2033 
C 1690 1994 1939 1924 1984 1906 
C 2342 1767 2515 1444 2515 1140 
C 2515 742 2202 318 1645 318 
C 1453 318 890 318 358 819 
L 269 318 
C 794 -64 1363 -128 1651 -128 
C 2438 -128 3002 488 3002 1186 
C 3002 1440 2925 1763 2656 2061 
C 2394 2347 2163 2410 1638 2549 
C 1338 2626 1146 2677 986 2873 
C 877 3013 819 3146 819 3317 
C 819 3673 1126 4060 1690 4060 
C 1971 4060 2336 4002 2707 3660 
L 2797 4169 
z
" transform="scale(0.015625)"/>
       <path id="CMSS17-70" d="M 966 333 
C 1178 129 1466 -5 1773 -5 
C 2368 -5 2880 603 2880 1412 
C 2880 2159 2496 2816 1946 2816 
C 1626 2816 1242 2702 954 2472 
L 954 2765 
L 480 2765 
L 480 -1216 
L 966 -1216 
L 966 333 
z
M 966 2100 
C 1018 2176 1235 2415 1587 2415 
C 2035 2415 2394 1960 2394 1412 
C 2394 787 1958 384 1530 384 
C 1402 384 1267 415 1139 523 
C 966 674 966 768 966 857 
L 966 2100 
z
" transform="scale(0.015625)"/>
       <path id="CMSS17-6c" d="M 947 4416 
L 474 4416 
L 474 0 
L 947 0 
L 947 4416 
z
" transform="scale(0.015625)"/>
      </defs>
      <use xlink:href="#CMSS17-53" transform="scale(0.996264)"/>
      <use xlink:href="#CMSS17-61" transform="translate(52.048516 0) scale(0.996264)"/>
      <use xlink:href="#CMSS17-6d" transform="translate(96.970437 0) scale(0.996264)"/>
      <use xlink:href="#CMSS17-70" transform="translate(171.199691 0) scale(0.996264)"/>
      <use xlink:href="#CMSS17-6c" transform="translate(219.404634 0) scale(0.996264)"/>
      <use xlink:href="#CMSS17-65" transform="translate(241.585357 0) scale(0.996264)"/>
      <use xlink:href="#CMSS17-73" transform="translate(283.224179 0) scale(0.996264)"/>
      <use xlink:href="#CMSS17-2e" transform="translate(319.137721 0) scale(0.996264)"/>
     </g>
    </g>
    <g id="line2d_32">
     <path d="M 300.962583 95.783535 
L 310.962583 95.783535 
L 320.962583 95.783535 
" style="fill: none; stroke: #ff0000; stroke-width: 1.5; stroke-linecap: square"/>
    </g>
    <g id="text_18">
     <!-- Sample cov $3\sigma$. -->
     <g transform="translate(328.962583 99.283535) scale(0.1 -0.1)">
      <use xlink:href="#CMSS17-53" transform="scale(0.996264)"/>
      <use xlink:href="#CMSS17-61" transform="translate(52.048516 0) scale(0.996264)"/>
      <use xlink:href="#CMSS17-6d" transform="translate(96.970437 0) scale(0.996264)"/>
      <use xlink:href="#CMSS17-70" transform="translate(171.199691 0) scale(0.996264)"/>
      <use xlink:href="#CMSS17-6c" transform="translate(219.404634 0) scale(0.996264)"/>
      <use xlink:href="#CMSS17-65" transform="translate(241.585357 0) scale(0.996264)"/>
      <use xlink:href="#CMSS17-63" transform="translate(314.453292 0) scale(0.996264)"/>
      <use xlink:href="#CMSS17-6f" transform="translate(356.092114 0) scale(0.996264)"/>
      <use xlink:href="#CMSS17-76" transform="translate(402.935738 0) scale(0.996264)"/>
      <use xlink:href="#CMR17-33" transform="translate(477.164992 0) scale(0.996264)"/>
      <use xlink:href="#CMMI12-1b" transform="translate(522.855469 0) scale(0.996264)"/>
      <use xlink:href="#CMSS17-2e" transform="translate(581.875523 0) scale(0.996264)"/>
     </g>
    </g>
   </g>
  </g>
 </g>
 <defs>
  <clipPath id="p5c762c1eca">
   <rect x="57.6" y="41.472" width="357.12" height="266.112"/>
  </clipPath>
 </defs>
</svg>
