<?xml version="1.0" encoding="utf-8" standalone="no"?>
<!DOCTYPE svg PUBLIC "-//W3C//DTD SVG 1.1//EN"
  "http://www.w3.org/Graphics/SVG/1.1/DTD/svg11.dtd">
<svg xmlns:xlink="http://www.w3.org/1999/xlink" width="460.8pt" height="345.6pt" viewBox="0 0 460.8 345.6" xmlns="http://www.w3.org/2000/svg" version="1.1">
 <metadata>
  <rdf:RDF xmlns:dc="http://purl.org/dc/elements/1.1/" xmlns:cc="http://creativecommons.org/ns#" xmlns:rdf="http://www.w3.org/1999/02/22-rdf-syntax-ns#">
   <cc:Work>
    <dc:type rdf:resource="http://purl.org/dc/dcmitype/StillImage"/>
    <dc:date>2022-12-17T15:06:07.233785</dc:date>
    <dc:format>image/svg+xml</dc:format>
    <dc:creator>
     <cc:Agent>
      <dc:title>Matplotlib v3.6.0, https://matplotlib.org/</dc:title>
     </cc:Agent>
    </dc:creator>
   </cc:Work>
  </rdf:RDF>
 </metadata>
 <defs>
  <style type="text/css">*{stroke-linejoin: round; stroke-linecap: butt}</style>
 </defs>
 <g id="figure_1">
  <g id="patch_1">
   <path d="M 0 345.6 
L 460.8 345.6 
L 460.8 0 
L 0 0 
z
" style="fill: #ffffff"/>
  </g>
  <g id="axes_1">
   <g id="patch_2">
    <path d="M 57.6 307.584 
L 414.72 307.584 
L 414.72 41.472 
L 57.6 41.472 
z
" style="fill: #ffffff"/>
   </g>
   <g id="patch_3">
    <path d="M 232.11064 168.514975 
L 232.504805 167.751267 
L 232.956614 167.094431 
L 233.458942 166.554828 
L 234.003868 166.140966 
L 234.582797 165.859373 
L 235.1866 165.71449 
L 235.805754 165.7086 
L 236.430494 165.841798 
L 237.050969 166.111982 
L 237.657392 166.514892 
L 238.240201 167.044174 
L 238.790203 167.69148 
L 239.298726 168.446602 
L 239.757749 169.297631 
L 240.160034 170.231146 
L 240.499236 171.232425 
L 240.770005 172.285678 
L 240.968072 173.374293 
L 241.090312 174.481103 
L 241.134799 175.588652 
L 241.10083 176.679474 
L 240.988941 177.736367 
L 240.800897 178.742661 
L 240.539663 179.682488 
L 240.20936 180.541025 
L 239.815195 181.304733 
L 239.363386 181.961569 
L 238.861058 182.501172 
L 238.316132 182.915034 
L 237.737203 183.196627 
L 237.1334 183.34151 
L 236.514246 183.3474 
L 235.889506 183.214202 
L 235.269031 182.944018 
L 234.662608 182.541108 
L 234.079799 182.011826 
L 233.529797 181.36452 
L 233.021274 180.609398 
L 232.562251 179.758369 
L 232.159966 178.824854 
L 231.820764 177.823575 
L 231.549995 176.770322 
L 231.351928 175.681707 
L 231.229688 174.574897 
L 231.185201 173.467348 
L 231.21917 172.376526 
L 231.331059 171.319633 
L 231.519103 170.313339 
L 231.780337 169.373512 
L 232.11064 168.514975 
L 232.11064 168.514975 
z
" clip-path="url(#pdac5c79b38)" style="fill: none; opacity: 0"/>
   </g>
   <g id="patch_4">
    <path d="M 217.793644 185.229562 
L 217.525833 182.790418 
L 217.551893 180.22097 
L 217.871415 177.561741 
L 218.479358 174.854668 
L 219.366136 172.142443 
L 220.517763 169.467839 
L 221.916077 166.873038 
L 223.539026 164.39896 
L 225.361016 162.084623 
L 227.353312 159.966525 
L 229.484495 158.07807 
L 231.720955 156.449041 
L 234.027421 155.105128 
L 236.367519 154.067525 
L 238.704345 153.352596 
L 241.001044 152.971615 
L 243.221398 152.930592 
L 245.330388 153.230173 
L 247.294757 153.865633 
L 249.083524 154.826951 
L 250.668479 156.098967 
L 252.024626 157.661619 
L 253.130579 159.490264 
L 253.968896 161.556063 
L 254.526356 163.826438 
L 254.794167 166.265582 
L 254.768107 168.83503 
L 254.448585 171.494259 
L 253.840642 174.201332 
L 252.953864 176.913557 
L 251.802237 179.588161 
L 250.403923 182.182962 
L 248.780974 184.65704 
L 246.958984 186.971377 
L 244.966688 189.089475 
L 242.835505 190.97793 
L 240.599045 192.606959 
L 238.292579 193.950872 
L 235.952481 194.988475 
L 233.615655 195.703404 
L 231.318956 196.084385 
L 229.098602 196.125408 
L 226.989612 195.825827 
L 225.025243 195.190367 
L 223.236476 194.229049 
L 221.651521 192.957033 
L 220.295374 191.394381 
L 219.189421 189.565736 
L 218.351104 187.499937 
L 217.793644 185.229562 
L 217.793644 185.229562 
z
" clip-path="url(#pdac5c79b38)" style="fill: none; opacity: 0"/>
   </g>
   <g id="patch_5">
    <path d="M 73.832727 188.934524 
L 74.710316 173.744242 
L 78.134062 158.56632 
L 84.049972 143.640123 
L 92.364747 129.201046 
L 102.94726 115.476803 
L 115.630617 102.683832 
L 130.214795 91.023886 
L 146.469792 80.680851 
L 164.139257 71.817841 
L 182.944532 64.574631 
L 202.589047 59.065452 
L 222.762995 55.377186 
L 243.148223 53.568 
L 263.423242 53.666425 
L 283.268304 55.67091 
L 302.370439 59.549841 
L 320.428396 65.242047 
L 337.157391 72.657758 
L 352.293596 81.680023 
L 365.598305 92.166557 
L 376.861694 103.951979 
L 385.906134 116.850428 
L 392.588988 130.658486 
L 396.804863 145.158393 
L 398.487273 160.121476 
L 397.609684 175.311758 
L 394.185938 190.48968 
L 388.270028 205.415877 
L 379.955253 219.854954 
L 369.37274 233.579197 
L 356.689383 246.372168 
L 342.105205 258.032114 
L 325.850208 268.375149 
L 308.180743 277.238159 
L 289.375468 284.481369 
L 269.730953 289.990548 
L 249.557005 293.678814 
L 229.171777 295.488 
L 208.896758 295.389575 
L 189.051696 293.38509 
L 169.949561 289.506159 
L 151.891604 283.813953 
L 135.162609 276.398242 
L 120.026404 267.375977 
L 106.721695 256.889443 
L 95.458306 245.104021 
L 86.413866 232.205572 
L 79.731012 218.397514 
L 75.515137 203.897607 
L 73.832727 188.934524 
L 73.832727 188.934524 
z
" clip-path="url(#pdac5c79b38)" style="fill: none; opacity: 0"/>
   </g>
   <g id="matplotlib.axis_1">
    <g id="xtick_1">
     <g id="line2d_1">
      <path d="M 69.779325 307.584 
L 69.779325 41.472 
" clip-path="url(#pdac5c79b38)" style="fill: none; stroke: #b0b0b0; stroke-width: 0.8; stroke-linecap: square"/>
     </g>
     <g id="line2d_2">
      <defs>
       <path id="maa2300cabe" d="M 0 0 
L 0 3.5 
" style="stroke: #000000; stroke-width: 0.8"/>
      </defs>
      <g>
       <use xlink:href="#maa2300cabe" x="69.779325" y="307.584" style="stroke: #000000; stroke-width: 0.8"/>
      </g>
     </g>
     <g id="text_1">
      <!-- $\mathdefault{−0.03}$ -->
      <g transform="translate(57.049246 321.502498) scale(0.1 -0.1)">
       <defs>
        <path id="CMSY10-0" d="M 4218 1472 
C 4326 1472 4442 1472 4442 1600 
C 4442 1728 4326 1728 4218 1728 
L 755 1728 
C 646 1728 531 1728 531 1600 
C 531 1472 646 1472 755 1472 
L 4218 1472 
z
" transform="scale(0.015625)"/>
        <path id="CMR17-30" d="M 2688 2025 
C 2688 2416 2682 3080 2413 3591 
C 2176 4039 1798 4198 1466 4198 
C 1158 4198 768 4058 525 3597 
C 269 3118 243 2524 243 2025 
C 243 1661 250 1106 448 619 
C 723 -39 1216 -128 1466 -128 
C 1760 -128 2208 -7 2470 600 
C 2662 1042 2688 1559 2688 2025 
z
M 1466 -26 
C 1056 -26 813 325 723 812 
C 653 1188 653 1738 653 2096 
C 653 2588 653 2997 736 3387 
C 858 3929 1216 4096 1466 4096 
C 1728 4096 2067 3923 2189 3400 
C 2272 3036 2278 2607 2278 2096 
C 2278 1680 2278 1169 2202 792 
C 2067 95 1690 -26 1466 -26 
z
" transform="scale(0.015625)"/>
        <path id="CMMI12-3a" d="M 1178 307 
C 1178 492 1024 619 870 619 
C 685 619 557 466 557 313 
C 557 128 710 0 864 0 
C 1050 0 1178 153 1178 307 
z
" transform="scale(0.015625)"/>
        <path id="CMR17-33" d="M 1414 2157 
C 1984 2157 2234 1662 2234 1090 
C 2234 320 1824 25 1453 25 
C 1114 25 563 194 390 693 
C 422 680 454 680 486 680 
C 640 680 755 782 755 948 
C 755 1133 614 1216 486 1216 
C 378 1216 211 1165 211 926 
C 211 335 787 -128 1466 -128 
C 2176 -128 2720 430 2720 1085 
C 2720 1707 2208 2157 1600 2227 
C 2086 2328 2554 2756 2554 3329 
C 2554 3820 2048 4179 1472 4179 
C 890 4179 378 3829 378 3329 
C 378 3110 544 3072 627 3072 
C 762 3072 877 3155 877 3321 
C 877 3486 762 3569 627 3569 
C 602 3569 570 3569 544 3557 
C 730 3959 1235 4032 1459 4032 
C 1683 4032 2106 3925 2106 3320 
C 2106 3143 2080 2828 1862 2550 
C 1670 2304 1453 2304 1242 2284 
C 1210 2284 1062 2269 1037 2269 
C 992 2263 966 2257 966 2208 
C 966 2163 973 2157 1101 2157 
L 1414 2157 
z
" transform="scale(0.015625)"/>
       </defs>
       <use xlink:href="#CMSY10-0" transform="scale(0.996264)"/>
       <use xlink:href="#CMR17-30" transform="translate(77.487468 0) scale(0.996264)"/>
       <use xlink:href="#CMMI12-3a" transform="translate(123.177945 0) scale(0.996264)"/>
       <use xlink:href="#CMR17-30" transform="translate(150.275122 0) scale(0.996264)"/>
       <use xlink:href="#CMR17-33" transform="translate(195.965599 0) scale(0.996264)"/>
      </g>
     </g>
    </g>
    <g id="xtick_2">
     <g id="line2d_3">
      <path d="M 114.064619 307.584 
L 114.064619 41.472 
" clip-path="url(#pdac5c79b38)" style="fill: none; stroke: #b0b0b0; stroke-width: 0.8; stroke-linecap: square"/>
     </g>
     <g id="line2d_4">
      <g>
       <use xlink:href="#maa2300cabe" x="114.064619" y="307.584" style="stroke: #000000; stroke-width: 0.8"/>
      </g>
     </g>
     <g id="text_2">
      <!-- $\mathdefault{−0.02}$ -->
      <g transform="translate(101.33454 321.502498) scale(0.1 -0.1)">
       <defs>
        <path id="CMR17-32" d="M 2669 989 
L 2554 989 
C 2490 536 2438 459 2413 420 
C 2381 369 1920 369 1830 369 
L 602 369 
C 832 619 1280 1072 1824 1597 
C 2214 1967 2669 2402 2669 3035 
C 2669 3790 2067 4224 1395 4224 
C 691 4224 262 3604 262 3030 
C 262 2780 448 2748 525 2748 
C 589 2748 781 2787 781 3010 
C 781 3207 614 3264 525 3264 
C 486 3264 448 3258 422 3245 
C 544 3790 915 4058 1306 4058 
C 1862 4058 2227 3617 2227 3035 
C 2227 2479 1901 2000 1536 1584 
L 262 146 
L 262 0 
L 2515 0 
L 2669 989 
z
" transform="scale(0.015625)"/>
       </defs>
       <use xlink:href="#CMSY10-0" transform="scale(0.996264)"/>
       <use xlink:href="#CMR17-30" transform="translate(77.487468 0) scale(0.996264)"/>
       <use xlink:href="#CMMI12-3a" transform="translate(123.177945 0) scale(0.996264)"/>
       <use xlink:href="#CMR17-30" transform="translate(150.275122 0) scale(0.996264)"/>
       <use xlink:href="#CMR17-32" transform="translate(195.965599 0) scale(0.996264)"/>
      </g>
     </g>
    </g>
    <g id="xtick_3">
     <g id="line2d_5">
      <path d="M 158.349913 307.584 
L 158.349913 41.472 
" clip-path="url(#pdac5c79b38)" style="fill: none; stroke: #b0b0b0; stroke-width: 0.8; stroke-linecap: square"/>
     </g>
     <g id="line2d_6">
      <g>
       <use xlink:href="#maa2300cabe" x="158.349913" y="307.584" style="stroke: #000000; stroke-width: 0.8"/>
      </g>
     </g>
     <g id="text_3">
      <!-- $\mathdefault{−0.01}$ -->
      <g transform="translate(145.619834 321.502498) scale(0.1 -0.1)">
       <defs>
        <path id="CMR17-31" d="M 1702 4058 
C 1702 4192 1696 4192 1606 4192 
C 1357 3916 979 3827 621 3827 
C 602 3827 570 3827 563 3808 
C 557 3795 557 3782 557 3648 
C 755 3648 1088 3686 1344 3839 
L 1344 461 
C 1344 236 1331 160 781 160 
L 589 160 
L 589 0 
C 896 0 1216 0 1523 0 
C 1830 0 2150 0 2458 0 
L 2458 160 
L 2266 160 
C 1715 160 1702 230 1702 458 
L 1702 4058 
z
" transform="scale(0.015625)"/>
       </defs>
       <use xlink:href="#CMSY10-0" transform="scale(0.996264)"/>
       <use xlink:href="#CMR17-30" transform="translate(77.487468 0) scale(0.996264)"/>
       <use xlink:href="#CMMI12-3a" transform="translate(123.177945 0) scale(0.996264)"/>
       <use xlink:href="#CMR17-30" transform="translate(150.275122 0) scale(0.996264)"/>
       <use xlink:href="#CMR17-31" transform="translate(195.965599 0) scale(0.996264)"/>
      </g>
     </g>
    </g>
    <g id="xtick_4">
     <g id="line2d_7">
      <path d="M 202.635207 307.584 
L 202.635207 41.472 
" clip-path="url(#pdac5c79b38)" style="fill: none; stroke: #b0b0b0; stroke-width: 0.8; stroke-linecap: square"/>
     </g>
     <g id="line2d_8">
      <g>
       <use xlink:href="#maa2300cabe" x="202.635207" y="307.584" style="stroke: #000000; stroke-width: 0.8"/>
      </g>
     </g>
     <g id="text_4">
      <!-- $\mathdefault{0.00}$ -->
      <g transform="translate(193.7795 321.502498) scale(0.1 -0.1)">
       <use xlink:href="#CMR17-30" transform="scale(0.996264)"/>
       <use xlink:href="#CMMI12-3a" transform="translate(45.690477 0) scale(0.996264)"/>
       <use xlink:href="#CMR17-30" transform="translate(72.787654 0) scale(0.996264)"/>
       <use xlink:href="#CMR17-30" transform="translate(118.478131 0) scale(0.996264)"/>
      </g>
     </g>
    </g>
    <g id="xtick_5">
     <g id="line2d_9">
      <path d="M 246.920501 307.584 
L 246.920501 41.472 
" clip-path="url(#pdac5c79b38)" style="fill: none; stroke: #b0b0b0; stroke-width: 0.8; stroke-linecap: square"/>
     </g>
     <g id="line2d_10">
      <g>
       <use xlink:href="#maa2300cabe" x="246.920501" y="307.584" style="stroke: #000000; stroke-width: 0.8"/>
      </g>
     </g>
     <g id="text_5">
      <!-- $\mathdefault{0.01}$ -->
      <g transform="translate(238.064793 321.502498) scale(0.1 -0.1)">
       <use xlink:href="#CMR17-30" transform="scale(0.996264)"/>
       <use xlink:href="#CMMI12-3a" transform="translate(45.690477 0) scale(0.996264)"/>
       <use xlink:href="#CMR17-30" transform="translate(72.787654 0) scale(0.996264)"/>
       <use xlink:href="#CMR17-31" transform="translate(118.478131 0) scale(0.996264)"/>
      </g>
     </g>
    </g>
    <g id="xtick_6">
     <g id="line2d_11">
      <path d="M 291.205794 307.584 
L 291.205794 41.472 
" clip-path="url(#pdac5c79b38)" style="fill: none; stroke: #b0b0b0; stroke-width: 0.8; stroke-linecap: square"/>
     </g>
     <g id="line2d_12">
      <g>
       <use xlink:href="#maa2300cabe" x="291.205794" y="307.584" style="stroke: #000000; stroke-width: 0.8"/>
      </g>
     </g>
     <g id="text_6">
      <!-- $\mathdefault{0.02}$ -->
      <g transform="translate(282.350087 321.502498) scale(0.1 -0.1)">
       <use xlink:href="#CMR17-30" transform="scale(0.996264)"/>
       <use xlink:href="#CMMI12-3a" transform="translate(45.690477 0) scale(0.996264)"/>
       <use xlink:href="#CMR17-30" transform="translate(72.787654 0) scale(0.996264)"/>
       <use xlink:href="#CMR17-32" transform="translate(118.478131 0) scale(0.996264)"/>
      </g>
     </g>
    </g>
    <g id="xtick_7">
     <g id="line2d_13">
      <path d="M 335.491088 307.584 
L 335.491088 41.472 
" clip-path="url(#pdac5c79b38)" style="fill: none; stroke: #b0b0b0; stroke-width: 0.8; stroke-linecap: square"/>
     </g>
     <g id="line2d_14">
      <g>
       <use xlink:href="#maa2300cabe" x="335.491088" y="307.584" style="stroke: #000000; stroke-width: 0.8"/>
      </g>
     </g>
     <g id="text_7">
      <!-- $\mathdefault{0.03}$ -->
      <g transform="translate(326.635381 321.502498) scale(0.1 -0.1)">
       <use xlink:href="#CMR17-30" transform="scale(0.996264)"/>
       <use xlink:href="#CMMI12-3a" transform="translate(45.690477 0) scale(0.996264)"/>
       <use xlink:href="#CMR17-30" transform="translate(72.787654 0) scale(0.996264)"/>
       <use xlink:href="#CMR17-33" transform="translate(118.478131 0) scale(0.996264)"/>
      </g>
     </g>
    </g>
    <g id="xtick_8">
     <g id="line2d_15">
      <path d="M 379.776382 307.584 
L 379.776382 41.472 
" clip-path="url(#pdac5c79b38)" style="fill: none; stroke: #b0b0b0; stroke-width: 0.8; stroke-linecap: square"/>
     </g>
     <g id="line2d_16">
      <g>
       <use xlink:href="#maa2300cabe" x="379.776382" y="307.584" style="stroke: #000000; stroke-width: 0.8"/>
      </g>
     </g>
     <g id="text_8">
      <!-- $\mathdefault{0.04}$ -->
      <g transform="translate(370.920675 321.502498) scale(0.1 -0.1)">
       <defs>
        <path id="CMR17-34" d="M 2150 4122 
C 2150 4256 2144 4256 2029 4256 
L 128 1254 
L 128 1088 
L 1779 1088 
L 1779 457 
C 1779 224 1766 160 1318 160 
L 1197 160 
L 1197 0 
C 1402 0 1747 0 1965 0 
C 2182 0 2528 0 2733 0 
L 2733 160 
L 2611 160 
C 2163 160 2150 224 2150 457 
L 2150 1088 
L 2803 1088 
L 2803 1254 
L 2150 1254 
L 2150 4122 
z
M 1798 3703 
L 1798 1254 
L 256 1254 
L 1798 3703 
z
" transform="scale(0.015625)"/>
       </defs>
       <use xlink:href="#CMR17-30" transform="scale(0.996264)"/>
       <use xlink:href="#CMMI12-3a" transform="translate(45.690477 0) scale(0.996264)"/>
       <use xlink:href="#CMR17-30" transform="translate(72.787654 0) scale(0.996264)"/>
       <use xlink:href="#CMR17-34" transform="translate(118.478131 0) scale(0.996264)"/>
      </g>
     </g>
    </g>
    <g id="text_9">
     <!-- x [m] -->
     <g transform="translate(225.36713 334.911657) scale(0.1 -0.1)">
      <defs>
       <path id="CMSS17-78" d="M 1587 1414 
L 2656 2739 
L 2099 2739 
L 1363 1777 
L 602 2739 
L 32 2739 
L 1139 1414 
L 0 0 
L 563 0 
L 1363 1121 
L 2195 0 
L 2758 0 
L 1587 1414 
z
" transform="scale(0.015625)"/>
       <path id="CMSS17-5b" d="M 1613 -1600 
L 1613 -1212 
L 1062 -1212 
L 1062 4352 
L 1613 4352 
L 1613 4741 
L 595 4741 
L 595 -1600 
L 1613 -1600 
z
" transform="scale(0.015625)"/>
       <path id="CMSS17-6d" d="M 4288 1877 
C 4288 2308 4179 2816 3462 2816 
C 2982 2816 2694 2516 2566 2331 
C 2451 2670 2182 2816 1798 2816 
C 1363 2816 1088 2568 941 2389 
L 941 2758 
L 474 2758 
L 474 0 
L 960 0 
L 960 1559 
C 960 1939 1101 2428 1555 2428 
C 2138 2428 2138 2016 2138 1829 
L 2138 0 
L 2624 0 
L 2624 1559 
C 2624 1939 2765 2428 3219 2428 
C 3802 2428 3802 2016 3802 1829 
L 3802 0 
L 4288 0 
L 4288 1877 
z
" transform="scale(0.015625)"/>
       <path id="CMSS17-5d" d="M 1146 4741 
L 128 4741 
L 128 4352 
L 678 4352 
L 678 -1212 
L 128 -1212 
L 128 -1600 
L 1146 -1600 
L 1146 4741 
z
" transform="scale(0.015625)"/>
      </defs>
      <use xlink:href="#CMSS17-78" transform="scale(0.996264)"/>
      <use xlink:href="#CMSS17-5b" transform="translate(74.229254 0) scale(0.996264)"/>
      <use xlink:href="#CMSS17-6d" transform="translate(101.414693 0) scale(0.996264)"/>
      <use xlink:href="#CMSS17-5d" transform="translate(175.643948 0) scale(0.996264)"/>
     </g>
    </g>
   </g>
   <g id="matplotlib.axis_2">
    <g id="ytick_1">
     <g id="line2d_17">
      <path d="M 57.6 275.811001 
L 414.72 275.811001 
" clip-path="url(#pdac5c79b38)" style="fill: none; stroke: #b0b0b0; stroke-width: 0.8; stroke-linecap: square"/>
     </g>
     <g id="line2d_18">
      <defs>
       <path id="m6a86f7344e" d="M 0 0 
L -3.5 0 
" style="stroke: #000000; stroke-width: 0.8"/>
      </defs>
      <g>
       <use xlink:href="#m6a86f7344e" x="57.6" y="275.811001" style="stroke: #000000; stroke-width: 0.8"/>
      </g>
     </g>
     <g id="text_10">
      <!-- $\mathdefault{−0.010}$ -->
      <g transform="translate(20.158507 279.27025) scale(0.1 -0.1)">
       <use xlink:href="#CMSY10-0" transform="scale(0.996264)"/>
       <use xlink:href="#CMR17-30" transform="translate(77.487468 0) scale(0.996264)"/>
       <use xlink:href="#CMMI12-3a" transform="translate(123.177945 0) scale(0.996264)"/>
       <use xlink:href="#CMR17-30" transform="translate(150.275122 0) scale(0.996264)"/>
       <use xlink:href="#CMR17-31" transform="translate(195.965599 0) scale(0.996264)"/>
       <use xlink:href="#CMR17-30" transform="translate(241.656076 0) scale(0.996264)"/>
      </g>
     </g>
    </g>
    <g id="ytick_2">
     <g id="line2d_19">
      <path d="M 57.6 235.434236 
L 414.72 235.434236 
" clip-path="url(#pdac5c79b38)" style="fill: none; stroke: #b0b0b0; stroke-width: 0.8; stroke-linecap: square"/>
     </g>
     <g id="line2d_20">
      <g>
       <use xlink:href="#m6a86f7344e" x="57.6" y="235.434236" style="stroke: #000000; stroke-width: 0.8"/>
      </g>
     </g>
     <g id="text_11">
      <!-- $\mathdefault{−0.005}$ -->
      <g transform="translate(20.158507 238.893485) scale(0.1 -0.1)">
       <defs>
        <path id="CMR17-35" d="M 730 3692 
C 794 3666 1056 3584 1325 3584 
C 1920 3584 2246 3911 2432 4100 
C 2432 4157 2432 4192 2394 4192 
C 2387 4192 2374 4192 2323 4163 
C 2099 4058 1837 3973 1517 3973 
C 1325 3973 1037 3999 723 4139 
C 653 4171 640 4171 634 4171 
C 602 4171 595 4164 595 4037 
L 595 2203 
C 595 2089 595 2057 659 2057 
C 691 2057 704 2070 736 2114 
C 941 2401 1222 2522 1542 2522 
C 1766 2522 2246 2382 2246 1289 
C 2246 1085 2246 715 2054 421 
C 1894 159 1645 25 1370 25 
C 947 25 518 320 403 814 
C 429 807 480 795 506 795 
C 589 795 749 840 749 1038 
C 749 1210 627 1280 506 1280 
C 358 1280 262 1190 262 1011 
C 262 454 704 -128 1382 -128 
C 2042 -128 2669 440 2669 1264 
C 2669 2030 2170 2624 1549 2624 
C 1222 2624 947 2503 730 2274 
L 730 3692 
z
" transform="scale(0.015625)"/>
       </defs>
       <use xlink:href="#CMSY10-0" transform="scale(0.996264)"/>
       <use xlink:href="#CMR17-30" transform="translate(77.487468 0) scale(0.996264)"/>
       <use xlink:href="#CMMI12-3a" transform="translate(123.177945 0) scale(0.996264)"/>
       <use xlink:href="#CMR17-30" transform="translate(150.275122 0) scale(0.996264)"/>
       <use xlink:href="#CMR17-30" transform="translate(195.965599 0) scale(0.996264)"/>
       <use xlink:href="#CMR17-35" transform="translate(241.656076 0) scale(0.996264)"/>
      </g>
     </g>
    </g>
    <g id="ytick_3">
     <g id="line2d_21">
      <path d="M 57.6 195.057471 
L 414.72 195.057471 
" clip-path="url(#pdac5c79b38)" style="fill: none; stroke: #b0b0b0; stroke-width: 0.8; stroke-linecap: square"/>
     </g>
     <g id="line2d_22">
      <g>
       <use xlink:href="#m6a86f7344e" x="57.6" y="195.057471" style="stroke: #000000; stroke-width: 0.8"/>
      </g>
     </g>
     <g id="text_12">
      <!-- $\mathdefault{0.000}$ -->
      <g transform="translate(27.907251 198.51672) scale(0.1 -0.1)">
       <use xlink:href="#CMR17-30" transform="scale(0.996264)"/>
       <use xlink:href="#CMMI12-3a" transform="translate(45.690477 0) scale(0.996264)"/>
       <use xlink:href="#CMR17-30" transform="translate(72.787654 0) scale(0.996264)"/>
       <use xlink:href="#CMR17-30" transform="translate(118.478131 0) scale(0.996264)"/>
       <use xlink:href="#CMR17-30" transform="translate(164.168608 0) scale(0.996264)"/>
      </g>
     </g>
    </g>
    <g id="ytick_4">
     <g id="line2d_23">
      <path d="M 57.6 154.680706 
L 414.72 154.680706 
" clip-path="url(#pdac5c79b38)" style="fill: none; stroke: #b0b0b0; stroke-width: 0.8; stroke-linecap: square"/>
     </g>
     <g id="line2d_24">
      <g>
       <use xlink:href="#m6a86f7344e" x="57.6" y="154.680706" style="stroke: #000000; stroke-width: 0.8"/>
      </g>
     </g>
     <g id="text_13">
      <!-- $\mathdefault{0.005}$ -->
      <g transform="translate(27.907251 158.139955) scale(0.1 -0.1)">
       <use xlink:href="#CMR17-30" transform="scale(0.996264)"/>
       <use xlink:href="#CMMI12-3a" transform="translate(45.690477 0) scale(0.996264)"/>
       <use xlink:href="#CMR17-30" transform="translate(72.787654 0) scale(0.996264)"/>
       <use xlink:href="#CMR17-30" transform="translate(118.478131 0) scale(0.996264)"/>
       <use xlink:href="#CMR17-35" transform="translate(164.168608 0) scale(0.996264)"/>
      </g>
     </g>
    </g>
    <g id="ytick_5">
     <g id="line2d_25">
      <path d="M 57.6 114.303941 
L 414.72 114.303941 
" clip-path="url(#pdac5c79b38)" style="fill: none; stroke: #b0b0b0; stroke-width: 0.8; stroke-linecap: square"/>
     </g>
     <g id="line2d_26">
      <g>
       <use xlink:href="#m6a86f7344e" x="57.6" y="114.303941" style="stroke: #000000; stroke-width: 0.8"/>
      </g>
     </g>
     <g id="text_14">
      <!-- $\mathdefault{0.010}$ -->
      <g transform="translate(27.907251 117.763191) scale(0.1 -0.1)">
       <use xlink:href="#CMR17-30" transform="scale(0.996264)"/>
       <use xlink:href="#CMMI12-3a" transform="translate(45.690477 0) scale(0.996264)"/>
       <use xlink:href="#CMR17-30" transform="translate(72.787654 0) scale(0.996264)"/>
       <use xlink:href="#CMR17-31" transform="translate(118.478131 0) scale(0.996264)"/>
       <use xlink:href="#CMR17-30" transform="translate(164.168608 0) scale(0.996264)"/>
      </g>
     </g>
    </g>
    <g id="ytick_6">
     <g id="line2d_27">
      <path d="M 57.6 73.927176 
L 414.72 73.927176 
" clip-path="url(#pdac5c79b38)" style="fill: none; stroke: #b0b0b0; stroke-width: 0.8; stroke-linecap: square"/>
     </g>
     <g id="line2d_28">
      <g>
       <use xlink:href="#m6a86f7344e" x="57.6" y="73.927176" style="stroke: #000000; stroke-width: 0.8"/>
      </g>
     </g>
     <g id="text_15">
      <!-- $\mathdefault{0.015}$ -->
      <g transform="translate(27.907251 77.386426) scale(0.1 -0.1)">
       <use xlink:href="#CMR17-30" transform="scale(0.996264)"/>
       <use xlink:href="#CMMI12-3a" transform="translate(45.690477 0) scale(0.996264)"/>
       <use xlink:href="#CMR17-30" transform="translate(72.787654 0) scale(0.996264)"/>
       <use xlink:href="#CMR17-31" transform="translate(118.478131 0) scale(0.996264)"/>
       <use xlink:href="#CMR17-35" transform="translate(164.168608 0) scale(0.996264)"/>
      </g>
     </g>
    </g>
    <g id="text_16">
     <!-- y [m] -->
     <g transform="translate(13.667847 185.32087) rotate(-90) scale(0.1 -0.1)">
      <defs>
       <path id="CMSS17-79" d="M 2675 2752 
L 2176 2752 
C 1632 1294 1446 702 1434 383 
L 1427 383 
C 1408 696 1126 1460 902 2007 
L 602 2752 
L 83 2752 
L 1216 13 
C 1146 -178 1043 -465 1011 -529 
C 870 -885 774 -885 672 -885 
C 646 -885 442 -885 211 -809 
L 250 -1229 
C 410 -1261 570 -1280 685 -1280 
C 845 -1280 1165 -1280 1459 -497 
L 2675 2752 
z
" transform="scale(0.015625)"/>
      </defs>
      <use xlink:href="#CMSS17-79" transform="scale(0.996264)"/>
      <use xlink:href="#CMSS17-5b" transform="translate(74.229254 0) scale(0.996264)"/>
      <use xlink:href="#CMSS17-6d" transform="translate(101.414693 0) scale(0.996264)"/>
      <use xlink:href="#CMSS17-5d" transform="translate(175.643948 0) scale(0.996264)"/>
     </g>
    </g>
   </g>
   <g id="line2d_29">
    <path d="M 232.11064 168.514975 
L 232.504805 167.751267 
L 232.956614 167.094431 
L 233.458942 166.554828 
L 234.003868 166.140966 
L 234.582797 165.859373 
L 235.1866 165.71449 
L 235.805754 165.7086 
L 236.430494 165.841798 
L 237.050969 166.111982 
L 237.657392 166.514892 
L 238.240201 167.044174 
L 238.790203 167.69148 
L 239.298726 168.446602 
L 239.757749 169.297631 
L 240.160034 170.231146 
L 240.499236 171.232425 
L 240.770005 172.285678 
L 240.968072 173.374293 
L 241.090312 174.481103 
L 241.134799 175.588652 
L 241.10083 176.679474 
L 240.988941 177.736367 
L 240.800897 178.742661 
L 240.539663 179.682488 
L 240.20936 180.541025 
L 239.815195 181.304733 
L 239.363386 181.961569 
L 238.861058 182.501172 
L 238.316132 182.915034 
L 237.737203 183.196627 
L 237.1334 183.34151 
L 236.514246 183.3474 
L 235.889506 183.214202 
L 235.269031 182.944018 
L 234.662608 182.541108 
L 234.079799 182.011826 
L 233.529797 181.36452 
L 233.021274 180.609398 
L 232.562251 179.758369 
L 232.159966 178.824854 
L 231.820764 177.823575 
L 231.549995 176.770322 
L 231.351928 175.681707 
L 231.229688 174.574897 
L 231.185201 173.467348 
L 231.21917 172.376526 
L 231.331059 171.319633 
L 231.519103 170.313339 
L 231.780337 169.373512 
L 232.11064 168.514975 
" clip-path="url(#pdac5c79b38)" style="fill: none; stroke: #0000ff; stroke-width: 1.5; stroke-linecap: square"/>
   </g>
   <g id="line2d_30">
    <path d="M 217.793644 185.229562 
L 217.525833 182.790418 
L 217.551893 180.22097 
L 217.871415 177.561741 
L 218.479358 174.854668 
L 219.366136 172.142443 
L 220.517763 169.467839 
L 221.916077 166.873038 
L 223.539026 164.39896 
L 225.361016 162.084623 
L 227.353312 159.966525 
L 229.484495 158.07807 
L 231.720955 156.449041 
L 234.027421 155.105128 
L 236.367519 154.067525 
L 238.704345 153.352596 
L 241.001044 152.971615 
L 243.221398 152.930592 
L 245.330388 153.230173 
L 247.294757 153.865633 
L 249.083524 154.826951 
L 250.668479 156.098967 
L 252.024626 157.661619 
L 253.130579 159.490264 
L 253.968896 161.556063 
L 254.526356 163.826438 
L 254.794167 166.265582 
L 254.768107 168.83503 
L 254.448585 171.494259 
L 253.840642 174.201332 
L 252.953864 176.913557 
L 251.802237 179.588161 
L 250.403923 182.182962 
L 248.780974 184.65704 
L 246.958984 186.971377 
L 244.966688 189.089475 
L 242.835505 190.97793 
L 240.599045 192.606959 
L 238.292579 193.950872 
L 235.952481 194.988475 
L 233.615655 195.703404 
L 231.318956 196.084385 
L 229.098602 196.125408 
L 226.989612 195.825827 
L 225.025243 195.190367 
L 223.236476 194.229049 
L 221.651521 192.957033 
L 220.295374 191.394381 
L 219.189421 189.565736 
L 218.351104 187.499937 
L 217.793644 185.229562 
" clip-path="url(#pdac5c79b38)" style="fill: none; stroke: #008000; stroke-width: 1.5; stroke-linecap: square"/>
   </g>
   <g id="line2d_31">
    <defs>
     <path id="mf903249bde" d="M 0 1.5 
C 0.397805 1.5 0.77937 1.341951 1.06066 1.06066 
C 1.341951 0.77937 1.5 0.397805 1.5 0 
C 1.5 -0.397805 1.341951 -0.77937 1.06066 -1.06066 
C 0.77937 -1.341951 0.397805 -1.5 0 -1.5 
C -0.397805 -1.5 -0.77937 -1.341951 -1.06066 -1.06066 
C -1.341951 -0.77937 -1.5 -0.397805 -1.5 0 
C -1.5 0.397805 -1.341951 0.77937 -1.06066 1.06066 
C -0.77937 1.341951 -0.397805 1.5 0 1.5 
z
" style="stroke: #ff0000"/>
    </defs>
    <g clip-path="url(#pdac5c79b38)">
     <use xlink:href="#mf903249bde" x="191.456009" y="241.443813" style="fill: #ff0000; stroke: #ff0000"/>
     <use xlink:href="#mf903249bde" x="181.325693" y="167.218533" style="fill: #ff0000; stroke: #ff0000"/>
     <use xlink:href="#mf903249bde" x="273.62187" y="128.121333" style="fill: #ff0000; stroke: #ff0000"/>
     <use xlink:href="#mf903249bde" x="253.443647" y="225.172579" style="fill: #ff0000; stroke: #ff0000"/>
     <use xlink:href="#mf903249bde" x="219.845175" y="173.261755" style="fill: #ff0000; stroke: #ff0000"/>
     <use xlink:href="#mf903249bde" x="295.835359" y="209.938662" style="fill: #ff0000; stroke: #ff0000"/>
     <use xlink:href="#mf903249bde" x="194.762613" y="149.249411" style="fill: #ff0000; stroke: #ff0000"/>
     <use xlink:href="#mf903249bde" x="227.507303" y="154.399907" style="fill: #ff0000; stroke: #ff0000"/>
     <use xlink:href="#mf903249bde" x="245.328031" y="89.540381" style="fill: #ff0000; stroke: #ff0000"/>
     <use xlink:href="#mf903249bde" x="256.002873" y="134.026181" style="fill: #ff0000; stroke: #ff0000"/>
     <use xlink:href="#mf903249bde" x="258.276774" y="215.658218" style="fill: #ff0000; stroke: #ff0000"/>
     <use xlink:href="#mf903249bde" x="287.52125" y="169.685847" style="fill: #ff0000; stroke: #ff0000"/>
     <use xlink:href="#mf903249bde" x="260.277679" y="208.341853" style="fill: #ff0000; stroke: #ff0000"/>
     <use xlink:href="#mf903249bde" x="190.603414" y="135.840567" style="fill: #ff0000; stroke: #ff0000"/>
     <use xlink:href="#mf903249bde" x="208.925995" y="251.569062" style="fill: #ff0000; stroke: #ff0000"/>
     <use xlink:href="#mf903249bde" x="151.573385" y="168.311024" style="fill: #ff0000; stroke: #ff0000"/>
     <use xlink:href="#mf903249bde" x="258.69502" y="128.51975" style="fill: #ff0000; stroke: #ff0000"/>
     <use xlink:href="#mf903249bde" x="251.059531" y="123.034892" style="fill: #ff0000; stroke: #ff0000"/>
     <use xlink:href="#mf903249bde" x="252.381252" y="205.511857" style="fill: #ff0000; stroke: #ff0000"/>
     <use xlink:href="#mf903249bde" x="372.010236" y="113.656991" style="fill: #ff0000; stroke: #ff0000"/>
     <use xlink:href="#mf903249bde" x="108.060846" y="154.730963" style="fill: #ff0000; stroke: #ff0000"/>
     <use xlink:href="#mf903249bde" x="289.583385" y="117.919267" style="fill: #ff0000; stroke: #ff0000"/>
     <use xlink:href="#mf903249bde" x="289.203879" y="166.891257" style="fill: #ff0000; stroke: #ff0000"/>
     <use xlink:href="#mf903249bde" x="151.915655" y="188.890887" style="fill: #ff0000; stroke: #ff0000"/>
     <use xlink:href="#mf903249bde" x="206.859085" y="173.978029" style="fill: #ff0000; stroke: #ff0000"/>
     <use xlink:href="#mf903249bde" x="174.491041" y="153.778295" style="fill: #ff0000; stroke: #ff0000"/>
     <use xlink:href="#mf903249bde" x="245.636284" y="222.265874" style="fill: #ff0000; stroke: #ff0000"/>
     <use xlink:href="#mf903249bde" x="189.022046" y="125.073037" style="fill: #ff0000; stroke: #ff0000"/>
     <use xlink:href="#mf903249bde" x="205.083903" y="215.100498" style="fill: #ff0000; stroke: #ff0000"/>
     <use xlink:href="#mf903249bde" x="193.498826" y="160.048089" style="fill: #ff0000; stroke: #ff0000"/>
     <use xlink:href="#mf903249bde" x="209.366855" y="173.298531" style="fill: #ff0000; stroke: #ff0000"/>
     <use xlink:href="#mf903249bde" x="188.029244" y="231.633643" style="fill: #ff0000; stroke: #ff0000"/>
     <use xlink:href="#mf903249bde" x="185.722014" y="242.056624" style="fill: #ff0000; stroke: #ff0000"/>
     <use xlink:href="#mf903249bde" x="317.439205" y="199.209344" style="fill: #ff0000; stroke: #ff0000"/>
     <use xlink:href="#mf903249bde" x="312.199966" y="145.486643" style="fill: #ff0000; stroke: #ff0000"/>
     <use xlink:href="#mf903249bde" x="279.995835" y="110.474929" style="fill: #ff0000; stroke: #ff0000"/>
     <use xlink:href="#mf903249bde" x="202.824509" y="97.129137" style="fill: #ff0000; stroke: #ff0000"/>
     <use xlink:href="#mf903249bde" x="255.451966" y="172.741292" style="fill: #ff0000; stroke: #ff0000"/>
     <use xlink:href="#mf903249bde" x="147.714658" y="197.449579" style="fill: #ff0000; stroke: #ff0000"/>
     <use xlink:href="#mf903249bde" x="298.865469" y="171.371455" style="fill: #ff0000; stroke: #ff0000"/>
     <use xlink:href="#mf903249bde" x="263.866641" y="166.301239" style="fill: #ff0000; stroke: #ff0000"/>
     <use xlink:href="#mf903249bde" x="198.052686" y="232.303705" style="fill: #ff0000; stroke: #ff0000"/>
     <use xlink:href="#mf903249bde" x="186.79693" y="156.471122" style="fill: #ff0000; stroke: #ff0000"/>
     <use xlink:href="#mf903249bde" x="271.0531" y="149.385049" style="fill: #ff0000; stroke: #ff0000"/>
     <use xlink:href="#mf903249bde" x="215.648145" y="109.035013" style="fill: #ff0000; stroke: #ff0000"/>
     <use xlink:href="#mf903249bde" x="206.452614" y="186.686705" style="fill: #ff0000; stroke: #ff0000"/>
     <use xlink:href="#mf903249bde" x="250.246989" y="188.936414" style="fill: #ff0000; stroke: #ff0000"/>
     <use xlink:href="#mf903249bde" x="107.419796" y="222.715974" style="fill: #ff0000; stroke: #ff0000"/>
     <use xlink:href="#mf903249bde" x="200.164193" y="161.982644" style="fill: #ff0000; stroke: #ff0000"/>
     <use xlink:href="#mf903249bde" x="310.013234" y="189.59321" style="fill: #ff0000; stroke: #ff0000"/>
     <use xlink:href="#mf903249bde" x="198.20312" y="203.702957" style="fill: #ff0000; stroke: #ff0000"/>
     <use xlink:href="#mf903249bde" x="211.526062" y="161.80521" style="fill: #ff0000; stroke: #ff0000"/>
     <use xlink:href="#mf903249bde" x="244.725791" y="158.575878" style="fill: #ff0000; stroke: #ff0000"/>
     <use xlink:href="#mf903249bde" x="340.362518" y="211.800353" style="fill: #ff0000; stroke: #ff0000"/>
     <use xlink:href="#mf903249bde" x="262.924401" y="144.221243" style="fill: #ff0000; stroke: #ff0000"/>
     <use xlink:href="#mf903249bde" x="308.8645" y="152.106105" style="fill: #ff0000; stroke: #ff0000"/>
     <use xlink:href="#mf903249bde" x="212.046664" y="171.524953" style="fill: #ff0000; stroke: #ff0000"/>
     <use xlink:href="#mf903249bde" x="199.966205" y="113.515538" style="fill: #ff0000; stroke: #ff0000"/>
     <use xlink:href="#mf903249bde" x="308.567542" y="102.194448" style="fill: #ff0000; stroke: #ff0000"/>
     <use xlink:href="#mf903249bde" x="224.11415" y="138.154845" style="fill: #ff0000; stroke: #ff0000"/>
     <use xlink:href="#mf903249bde" x="229.075662" y="181.479854" style="fill: #ff0000; stroke: #ff0000"/>
     <use xlink:href="#mf903249bde" x="226.885461" y="173.674344" style="fill: #ff0000; stroke: #ff0000"/>
     <use xlink:href="#mf903249bde" x="258.730392" y="186.741512" style="fill: #ff0000; stroke: #ff0000"/>
     <use xlink:href="#mf903249bde" x="220.797443" y="236.017111" style="fill: #ff0000; stroke: #ff0000"/>
     <use xlink:href="#mf903249bde" x="252.411952" y="198.702275" style="fill: #ff0000; stroke: #ff0000"/>
     <use xlink:href="#mf903249bde" x="381.744048" y="124.246146" style="fill: #ff0000; stroke: #ff0000"/>
     <use xlink:href="#mf903249bde" x="144.738177" y="163.428775" style="fill: #ff0000; stroke: #ff0000"/>
     <use xlink:href="#mf903249bde" x="169.782371" y="134.503651" style="fill: #ff0000; stroke: #ff0000"/>
     <use xlink:href="#mf903249bde" x="247.05077" y="159.349531" style="fill: #ff0000; stroke: #ff0000"/>
     <use xlink:href="#mf903249bde" x="212.750687" y="177.087006" style="fill: #ff0000; stroke: #ff0000"/>
     <use xlink:href="#mf903249bde" x="226.897256" y="156.125525" style="fill: #ff0000; stroke: #ff0000"/>
     <use xlink:href="#mf903249bde" x="215.372649" y="176.03162" style="fill: #ff0000; stroke: #ff0000"/>
     <use xlink:href="#mf903249bde" x="215.203796" y="193.190109" style="fill: #ff0000; stroke: #ff0000"/>
     <use xlink:href="#mf903249bde" x="226.304776" y="233.601503" style="fill: #ff0000; stroke: #ff0000"/>
     <use xlink:href="#mf903249bde" x="307.299261" y="100.22342" style="fill: #ff0000; stroke: #ff0000"/>
     <use xlink:href="#mf903249bde" x="214.763726" y="121.877828" style="fill: #ff0000; stroke: #ff0000"/>
     <use xlink:href="#mf903249bde" x="219.305555" y="229.330821" style="fill: #ff0000; stroke: #ff0000"/>
     <use xlink:href="#mf903249bde" x="216.191961" y="202.283915" style="fill: #ff0000; stroke: #ff0000"/>
     <use xlink:href="#mf903249bde" x="302.383394" y="179.879715" style="fill: #ff0000; stroke: #ff0000"/>
     <use xlink:href="#mf903249bde" x="346.747724" y="226.233445" style="fill: #ff0000; stroke: #ff0000"/>
     <use xlink:href="#mf903249bde" x="282.541306" y="200.42102" style="fill: #ff0000; stroke: #ff0000"/>
     <use xlink:href="#mf903249bde" x="296.759853" y="180.329592" style="fill: #ff0000; stroke: #ff0000"/>
     <use xlink:href="#mf903249bde" x="244.35947" y="223.037051" style="fill: #ff0000; stroke: #ff0000"/>
     <use xlink:href="#mf903249bde" x="185.581532" y="172.16146" style="fill: #ff0000; stroke: #ff0000"/>
     <use xlink:href="#mf903249bde" x="168.089791" y="201.326304" style="fill: #ff0000; stroke: #ff0000"/>
     <use xlink:href="#mf903249bde" x="271.553347" y="264.527773" style="fill: #ff0000; stroke: #ff0000"/>
     <use xlink:href="#mf903249bde" x="177.846422" y="209.774809" style="fill: #ff0000; stroke: #ff0000"/>
     <use xlink:href="#mf903249bde" x="152.338168" y="133.913281" style="fill: #ff0000; stroke: #ff0000"/>
     <use xlink:href="#mf903249bde" x="204.6268" y="191.105716" style="fill: #ff0000; stroke: #ff0000"/>
     <use xlink:href="#mf903249bde" x="176.823285" y="182.624121" style="fill: #ff0000; stroke: #ff0000"/>
     <use xlink:href="#mf903249bde" x="275.404881" y="200.649242" style="fill: #ff0000; stroke: #ff0000"/>
     <use xlink:href="#mf903249bde" x="359.338589" y="150.475894" style="fill: #ff0000; stroke: #ff0000"/>
     <use xlink:href="#mf903249bde" x="233.154314" y="90.31475" style="fill: #ff0000; stroke: #ff0000"/>
     <use xlink:href="#mf903249bde" x="270.217979" y="187.395446" style="fill: #ff0000; stroke: #ff0000"/>
     <use xlink:href="#mf903249bde" x="227.318665" y="179.324259" style="fill: #ff0000; stroke: #ff0000"/>
     <use xlink:href="#mf903249bde" x="261.075868" y="175.641494" style="fill: #ff0000; stroke: #ff0000"/>
     <use xlink:href="#mf903249bde" x="233.28194" y="214.846856" style="fill: #ff0000; stroke: #ff0000"/>
     <use xlink:href="#mf903249bde" x="285.423584" y="225.186744" style="fill: #ff0000; stroke: #ff0000"/>
     <use xlink:href="#mf903249bde" x="204.827577" y="107.116346" style="fill: #ff0000; stroke: #ff0000"/>
     <use xlink:href="#mf903249bde" x="251.492608" y="198.7397" style="fill: #ff0000; stroke: #ff0000"/>
    </g>
   </g>
   <g id="line2d_32">
    <path d="M 73.832727 188.934524 
L 74.710316 173.744242 
L 78.134062 158.56632 
L 84.049972 143.640123 
L 92.364747 129.201046 
L 102.94726 115.476803 
L 115.630617 102.683832 
L 130.214795 91.023886 
L 146.469792 80.680851 
L 164.139257 71.817841 
L 182.944532 64.574631 
L 202.589047 59.065452 
L 222.762995 55.377186 
L 243.148223 53.568 
L 263.423242 53.666425 
L 283.268304 55.67091 
L 302.370439 59.549841 
L 320.428396 65.242047 
L 337.157391 72.657758 
L 352.293596 81.680023 
L 365.598305 92.166557 
L 376.861694 103.951979 
L 385.906134 116.850428 
L 392.588988 130.658486 
L 396.804863 145.158393 
L 398.487273 160.121476 
L 397.609684 175.311758 
L 394.185938 190.48968 
L 388.270028 205.415877 
L 379.955253 219.854954 
L 369.37274 233.579197 
L 356.689383 246.372168 
L 342.105205 258.032114 
L 325.850208 268.375149 
L 308.180743 277.238159 
L 289.375468 284.481369 
L 269.730953 289.990548 
L 249.557005 293.678814 
L 229.171777 295.488 
L 208.896758 295.389575 
L 189.051696 293.38509 
L 169.949561 289.506159 
L 151.891604 283.813953 
L 135.162609 276.398242 
L 120.026404 267.375977 
L 106.721695 256.889443 
L 95.458306 245.104021 
L 86.413866 232.205572 
L 79.731012 218.397514 
L 75.515137 203.897607 
L 73.832727 188.934524 
" clip-path="url(#pdac5c79b38)" style="fill: none; stroke: #ff0000; stroke-width: 1.5; stroke-linecap: square"/>
   </g>
   <g id="patch_6">
    <path d="M 57.6 307.584 
L 57.6 41.472 
" style="fill: none; stroke: #000000; stroke-width: 0.8; stroke-linejoin: miter; stroke-linecap: square"/>
   </g>
   <g id="patch_7">
    <path d="M 414.72 307.584 
L 414.72 41.472 
" style="fill: none; stroke: #000000; stroke-width: 0.8; stroke-linejoin: miter; stroke-linecap: square"/>
   </g>
   <g id="patch_8">
    <path d="M 57.6 307.584 
L 414.72 307.584 
" style="fill: none; stroke: #000000; stroke-width: 0.8; stroke-linejoin: miter; stroke-linecap: square"/>
   </g>
   <g id="patch_9">
    <path d="M 57.6 41.472 
L 414.72 41.472 
" style="fill: none; stroke: #000000; stroke-width: 0.8; stroke-linejoin: miter; stroke-linecap: square"/>
   </g>
   <g id="legend_1">
    <g id="patch_10">
     <path d="M 64.6 105.220713 
L 173.357417 105.220713 
Q 175.357417 105.220713 175.357417 103.220713 
L 175.357417 48.472 
Q 175.357417 46.472 173.357417 46.472 
L 64.6 46.472 
Q 62.6 46.472 62.6 48.472 
L 62.6 103.220713 
Q 62.6 105.220713 64.6 105.220713 
z
" style="fill: #ffffff; opacity: 0.8; stroke: #cccccc; stroke-linejoin: miter"/>
    </g>
    <g id="line2d_33">
     <path d="M 66.6 53.972 
L 76.6 53.972 
L 86.6 53.972 
" style="fill: none; stroke: #0000ff; stroke-width: 1.5; stroke-linecap: square"/>
    </g>
    <g id="text_17">
     <!-- Censi's cov $3\sigma$. -->
     <g transform="translate(94.6 57.472) scale(0.1 -0.1)">
      <defs>
       <path id="CMSS17-43" d="M 3501 714 
C 3072 427 2874 344 2355 344 
C 1459 344 934 1303 934 2179 
C 934 3112 1472 4032 2381 4032 
C 2790 4032 3059 3918 3386 3715 
L 3475 4217 
C 3168 4370 2778 4440 2387 4440 
C 1158 4440 397 3316 397 2179 
C 397 927 1299 -64 2323 -64 
C 2874 -64 3066 -19 3539 280 
L 3501 714 
z
" transform="scale(0.015625)"/>
       <path id="CMSS17-65" d="M 2502 1377 
C 2502 1590 2490 2003 2285 2345 
C 2061 2713 1696 2816 1421 2816 
C 755 2816 192 2188 192 1375 
C 192 582 774 -64 1510 -64 
C 1798 -64 2150 19 2470 248 
C 2470 274 2458 414 2451 420 
C 2451 433 2432 630 2432 656 
C 2125 407 1773 325 1517 325 
C 1107 325 666 667 646 1377 
L 2502 1377 
z
M 698 1728 
C 781 2084 1062 2421 1421 2421 
C 1517 2421 1965 2421 2080 1728 
L 698 1728 
z
" transform="scale(0.015625)"/>
       <path id="CMSS17-6e" d="M 2618 1877 
C 2618 2283 2522 2816 1798 2816 
C 1389 2816 1120 2606 941 2389 
L 941 2758 
L 474 2758 
L 474 0 
L 960 0 
L 960 1559 
C 960 1964 1114 2428 1549 2428 
C 2112 2428 2131 2048 2131 1829 
L 2131 0 
L 2618 0 
L 2618 1877 
z
" transform="scale(0.015625)"/>
       <path id="CMSS17-73" d="M 2061 2627 
C 1683 2807 1389 2807 1197 2807 
C 742 2807 198 2648 198 2003 
C 198 1359 902 1218 1094 1179 
C 1389 1122 1715 1058 1715 740 
C 1715 337 1254 337 1171 337 
C 915 337 563 407 243 638 
L 166 210 
C 531 0 883 -64 1178 -64 
C 1965 -64 2163 416 2163 781 
C 2163 1094 1984 1305 1862 1401 
C 1651 1568 1574 1587 1050 1696 
C 960 1709 646 1779 646 2066 
C 646 2432 1050 2432 1139 2432 
C 1555 2432 1811 2303 1984 2208 
L 2061 2627 
z
" transform="scale(0.015625)"/>
       <path id="CMSS17-69" d="M 979 4183 
L 442 4183 
L 442 3648 
L 979 3648 
L 979 4183 
z
M 947 2739 
L 474 2739 
L 474 0 
L 947 0 
L 947 2739 
z
" transform="scale(0.015625)"/>
       <path id="CMSS17-27" d="M 1088 3910 
L 1088 4413 
L 576 4413 
L 576 3904 
L 736 3904 
L 570 3104 
L 826 3104 
L 1088 3910 
z
" transform="scale(0.015625)"/>
       <path id="CMSS17-63" d="M 2464 2541 
C 2464 2585 2170 2714 2093 2739 
C 1882 2816 1613 2816 1542 2816 
C 710 2816 211 2093 211 1363 
C 211 595 768 -64 1517 -64 
C 1946 -64 2253 76 2502 242 
L 2464 664 
C 2189 453 1869 337 1523 337 
C 1024 337 698 774 698 1369 
C 698 1831 909 2414 1549 2414 
C 1901 2414 2099 2343 2394 2145 
L 2464 2541 
z
" transform="scale(0.015625)"/>
       <path id="CMSS17-6f" d="M 2829 1356 
C 2829 2176 2221 2816 1504 2816 
C 768 2816 173 2157 173 1356 
C 173 544 787 -64 1498 -64 
C 2227 -64 2829 563 2829 1356 
z
M 1504 337 
C 1050 337 659 709 659 1408 
C 659 2151 1114 2427 1498 2427 
C 1914 2427 2342 2126 2342 1408 
C 2342 683 1926 337 1504 337 
z
" transform="scale(0.015625)"/>
       <path id="CMSS17-76" d="M 2675 2752 
L 2176 2752 
L 1747 1556 
C 1613 1165 1421 627 1389 352 
L 1382 352 
C 1370 468 1318 634 1286 749 
C 1248 890 1197 1056 1158 1172 
L 595 2752 
L 83 2752 
L 1094 0 
L 1664 0 
L 2675 2752 
z
" transform="scale(0.015625)"/>
       <path id="CMMI12-1b" d="M 3251 2408 
C 3334 2408 3546 2408 3546 2612 
C 3546 2752 3424 2752 3309 2752 
L 1894 2752 
C 934 2752 243 1686 243 932 
C 243 390 595 -64 1171 -64 
C 1926 -64 2752 747 2752 1705 
C 2752 1954 2694 2196 2541 2408 
L 3251 2408 
z
M 1178 64 
C 851 64 614 313 614 754 
C 614 1137 845 2408 1786 2408 
C 2061 2408 2368 2274 2368 1781 
C 2368 1558 2266 1021 2042 652 
C 1811 275 1466 64 1178 64 
z
" transform="scale(0.015625)"/>
       <path id="CMSS17-2e" d="M 1088 510 
L 576 510 
L 576 0 
L 1088 0 
L 1088 510 
z
" transform="scale(0.015625)"/>
      </defs>
      <use xlink:href="#CMSS17-43" transform="scale(0.996264)"/>
      <use xlink:href="#CMSS17-65" transform="translate(59.855772 0) scale(0.996264)"/>
      <use xlink:href="#CMSS17-6e" transform="translate(101.494594 0) scale(0.996264)"/>
      <use xlink:href="#CMSS17-73" transform="translate(149.699537 0) scale(0.996264)"/>
      <use xlink:href="#CMSS17-69" transform="translate(185.613079 0) scale(0.996264)"/>
      <use xlink:href="#CMSS17-27" transform="translate(207.793802 0) scale(0.996264)"/>
      <use xlink:href="#CMSS17-73" transform="translate(233.818007 0) scale(0.996264)"/>
      <use xlink:href="#CMSS17-63" transform="translate(300.960661 0) scale(0.996264)"/>
      <use xlink:href="#CMSS17-6f" transform="translate(342.599484 0) scale(0.996264)"/>
      <use xlink:href="#CMSS17-76" transform="translate(389.443107 0) scale(0.996264)"/>
      <use xlink:href="#CMR17-33" transform="translate(463.672361 0) scale(0.996264)"/>
      <use xlink:href="#CMMI12-1b" transform="translate(509.362839 0) scale(0.996264)"/>
      <use xlink:href="#CMSS17-2e" transform="translate(568.382892 0) scale(0.996264)"/>
     </g>
    </g>
    <g id="line2d_34">
     <path d="M 66.6 67.909178 
L 76.6 67.909178 
L 86.6 67.909178 
" style="fill: none; stroke: #008000; stroke-width: 1.5; stroke-linecap: square"/>
    </g>
    <g id="text_18">
     <!-- Brossard's cov $3\sigma$. -->
     <g transform="translate(94.6 71.409178) scale(0.1 -0.1)">
      <defs>
       <path id="CMSS17-42" d="M 570 4416 
L 570 0 
L 2163 0 
C 3034 0 3667 574 3667 1200 
C 3667 1685 3251 2176 2502 2317 
C 3334 2558 3501 3040 3501 3313 
C 3501 3883 2874 4416 1997 4416 
L 570 4416 
z
M 1088 2496 
L 1088 4059 
L 1824 4059 
C 2483 4059 3002 3724 3002 3306 
C 3002 2926 2592 2496 1766 2496 
L 1088 2496 
z
M 1088 357 
L 1088 2107 
L 1939 2107 
C 2630 2107 3162 1679 3162 1206 
C 3162 772 2694 357 1984 357 
L 1088 357 
z
" transform="scale(0.015625)"/>
       <path id="CMSS17-72" d="M 954 1363 
C 954 1965 1395 2368 1958 2368 
L 1958 2789 
C 1549 2789 1165 2585 934 2253 
L 934 2758 
L 480 2758 
L 480 0 
L 954 0 
L 954 1363 
z
" transform="scale(0.015625)"/>
       <path id="CMSS17-61" d="M 2406 1791 
C 2406 2392 1978 2808 1402 2808 
C 1120 2808 813 2757 461 2553 
L 499 2135 
C 659 2248 934 2432 1395 2432 
C 1722 2432 1920 2180 1920 1782 
L 1920 1536 
C 896 1536 256 1238 256 726 
C 256 461 416 -64 947 -64 
C 1043 -64 1562 -64 1933 217 
L 1933 -19 
L 2406 -19 
L 2406 1791 
z
M 1920 816 
C 1920 701 1920 548 1728 434 
C 1562 325 1350 325 1261 325 
C 941 325 723 511 723 744 
C 723 1211 1722 1211 1920 1211 
L 1920 816 
z
" transform="scale(0.015625)"/>
       <path id="CMSS17-64" d="M 2611 4416 
L 2138 4416 
L 2138 2438 
C 1939 2603 1613 2756 1254 2756 
C 672 2756 211 2131 211 1347 
C 211 562 666 -64 1235 -64 
C 1677 -64 1971 172 2125 306 
L 2125 -13 
L 2611 -13 
L 2611 4416 
z
M 2125 836 
C 2125 747 2125 653 1926 482 
C 1798 375 1645 325 1498 325 
C 1152 325 698 576 698 1340 
C 698 2134 1210 2368 1562 2368 
C 1798 2368 1990 2254 2125 2065 
L 2125 836 
z
" transform="scale(0.015625)"/>
      </defs>
      <use xlink:href="#CMSS17-42" transform="scale(0.996264)"/>
      <use xlink:href="#CMSS17-72" transform="translate(62.33804 0) scale(0.996264)"/>
      <use xlink:href="#CMSS17-6f" transform="translate(94.247813 0) scale(0.996264)"/>
      <use xlink:href="#CMSS17-73" transform="translate(141.091436 0) scale(0.996264)"/>
      <use xlink:href="#CMSS17-73" transform="translate(177.004978 0) scale(0.996264)"/>
      <use xlink:href="#CMSS17-61" transform="translate(212.91852 0) scale(0.996264)"/>
      <use xlink:href="#CMSS17-72" transform="translate(255.237987 0) scale(0.996264)"/>
      <use xlink:href="#CMSS17-64" transform="translate(287.14776 0) scale(0.996264)"/>
      <use xlink:href="#CMSS17-27" transform="translate(335.352703 0) scale(0.996264)"/>
      <use xlink:href="#CMSS17-73" transform="translate(361.376908 0) scale(0.996264)"/>
      <use xlink:href="#CMSS17-63" transform="translate(428.519562 0) scale(0.996264)"/>
      <use xlink:href="#CMSS17-6f" transform="translate(470.158384 0) scale(0.996264)"/>
      <use xlink:href="#CMSS17-76" transform="translate(517.002008 0) scale(0.996264)"/>
      <use xlink:href="#CMR17-33" transform="translate(591.231262 0) scale(0.996264)"/>
      <use xlink:href="#CMMI12-1b" transform="translate(636.921739 0) scale(0.996264)"/>
      <use xlink:href="#CMSS17-2e" transform="translate(695.941793 0) scale(0.996264)"/>
     </g>
    </g>
    <g id="line2d_35">
     <g>
      <use xlink:href="#mf903249bde" x="76.6" y="81.846357" style="fill: #ff0000; stroke: #ff0000"/>
     </g>
    </g>
    <g id="text_19">
     <!-- Samples. -->
     <g transform="translate(94.6 85.346357) scale(0.1 -0.1)">
      <defs>
       <path id="CMSS17-53" d="M 2797 4169 
C 2515 4334 2208 4480 1690 4480 
C 864 4480 333 3879 333 3266 
C 333 3025 403 2753 653 2475 
C 902 2196 1184 2121 1542 2033 
C 1690 1994 1939 1924 1984 1906 
C 2342 1767 2515 1444 2515 1140 
C 2515 742 2202 318 1645 318 
C 1453 318 890 318 358 819 
L 269 318 
C 794 -64 1363 -128 1651 -128 
C 2438 -128 3002 488 3002 1186 
C 3002 1440 2925 1763 2656 2061 
C 2394 2347 2163 2410 1638 2549 
C 1338 2626 1146 2677 986 2873 
C 877 3013 819 3146 819 3317 
C 819 3673 1126 4060 1690 4060 
C 1971 4060 2336 4002 2707 3660 
L 2797 4169 
z
" transform="scale(0.015625)"/>
       <path id="CMSS17-70" d="M 966 333 
C 1178 129 1466 -5 1773 -5 
C 2368 -5 2880 603 2880 1412 
C 2880 2159 2496 2816 1946 2816 
C 1626 2816 1242 2702 954 2472 
L 954 2765 
L 480 2765 
L 480 -1216 
L 966 -1216 
L 966 333 
z
M 966 2100 
C 1018 2176 1235 2415 1587 2415 
C 2035 2415 2394 1960 2394 1412 
C 2394 787 1958 384 1530 384 
C 1402 384 1267 415 1139 523 
C 966 674 966 768 966 857 
L 966 2100 
z
" transform="scale(0.015625)"/>
       <path id="CMSS17-6c" d="M 947 4416 
L 474 4416 
L 474 0 
L 947 0 
L 947 4416 
z
" transform="scale(0.015625)"/>
      </defs>
      <use xlink:href="#CMSS17-53" transform="scale(0.996264)"/>
      <use xlink:href="#CMSS17-61" transform="translate(52.048516 0) scale(0.996264)"/>
      <use xlink:href="#CMSS17-6d" transform="translate(96.970437 0) scale(0.996264)"/>
      <use xlink:href="#CMSS17-70" transform="translate(171.199691 0) scale(0.996264)"/>
      <use xlink:href="#CMSS17-6c" transform="translate(219.404634 0) scale(0.996264)"/>
      <use xlink:href="#CMSS17-65" transform="translate(241.585357 0) scale(0.996264)"/>
      <use xlink:href="#CMSS17-73" transform="translate(283.224179 0) scale(0.996264)"/>
      <use xlink:href="#CMSS17-2e" transform="translate(319.137721 0) scale(0.996264)"/>
     </g>
    </g>
    <g id="line2d_36">
     <path d="M 66.6 95.783535 
L 76.6 95.783535 
L 86.6 95.783535 
" style="fill: none; stroke: #ff0000; stroke-width: 1.5; stroke-linecap: square"/>
    </g>
    <g id="text_20">
     <!-- Sample cov $3\sigma$. -->
     <g transform="translate(94.6 99.283535) scale(0.1 -0.1)">
      <use xlink:href="#CMSS17-53" transform="scale(0.996264)"/>
      <use xlink:href="#CMSS17-61" transform="translate(52.048516 0) scale(0.996264)"/>
      <use xlink:href="#CMSS17-6d" transform="translate(96.970437 0) scale(0.996264)"/>
      <use xlink:href="#CMSS17-70" transform="translate(171.199691 0) scale(0.996264)"/>
      <use xlink:href="#CMSS17-6c" transform="translate(219.404634 0) scale(0.996264)"/>
      <use xlink:href="#CMSS17-65" transform="translate(241.585357 0) scale(0.996264)"/>
      <use xlink:href="#CMSS17-63" transform="translate(314.453292 0) scale(0.996264)"/>
      <use xlink:href="#CMSS17-6f" transform="translate(356.092114 0) scale(0.996264)"/>
      <use xlink:href="#CMSS17-76" transform="translate(402.935738 0) scale(0.996264)"/>
      <use xlink:href="#CMR17-33" transform="translate(477.164992 0) scale(0.996264)"/>
      <use xlink:href="#CMMI12-1b" transform="translate(522.855469 0) scale(0.996264)"/>
      <use xlink:href="#CMSS17-2e" transform="translate(581.875523 0) scale(0.996264)"/>
     </g>
    </g>
   </g>
  </g>
 </g>
 <defs>
  <clipPath id="pdac5c79b38">
   <rect x="57.6" y="41.472" width="357.12" height="266.112"/>
  </clipPath>
 </defs>
</svg>
