<?xml version="1.0" encoding="utf-8" standalone="no"?>
<!DOCTYPE svg PUBLIC "-//W3C//DTD SVG 1.1//EN"
  "http://www.w3.org/Graphics/SVG/1.1/DTD/svg11.dtd">
<svg xmlns:xlink="http://www.w3.org/1999/xlink" width="460.8pt" height="345.6pt" viewBox="0 0 460.8 345.6" xmlns="http://www.w3.org/2000/svg" version="1.1">
 <metadata>
  <rdf:RDF xmlns:dc="http://purl.org/dc/elements/1.1/" xmlns:cc="http://creativecommons.org/ns#" xmlns:rdf="http://www.w3.org/1999/02/22-rdf-syntax-ns#">
   <cc:Work>
    <dc:type rdf:resource="http://purl.org/dc/dcmitype/StillImage"/>
    <dc:date>2022-12-17T15:06:08.952629</dc:date>
    <dc:format>image/svg+xml</dc:format>
    <dc:creator>
     <cc:Agent>
      <dc:title>Matplotlib v3.6.0, https://matplotlib.org/</dc:title>
     </cc:Agent>
    </dc:creator>
   </cc:Work>
  </rdf:RDF>
 </metadata>
 <defs>
  <style type="text/css">*{stroke-linejoin: round; stroke-linecap: butt}</style>
 </defs>
 <g id="figure_1">
  <g id="patch_1">
   <path d="M 0 345.6 
L 460.8 345.6 
L 460.8 0 
L 0 0 
z
" style="fill: #ffffff"/>
  </g>
  <g id="axes_1">
   <g id="patch_2">
    <path d="M 57.6 307.584 
L 414.72 307.584 
L 414.72 41.472 
L 57.6 41.472 
z
" style="fill: #ffffff"/>
   </g>
   <g id="patch_3">
    <path d="M 226.553862 175.724376 
L 226.429862 174.992431 
L 226.459313 174.253162 
L 226.641749 173.518227 
L 226.974294 172.799217 
L 227.451703 172.107471 
L 228.066447 171.453898 
L 228.808831 170.848805 
L 229.667147 170.301735 
L 230.62786 169.821316 
L 231.675817 169.415125 
L 232.794493 169.089566 
L 233.966245 168.849775 
L 235.172594 168.699533 
L 236.394515 168.641209 
L 237.612737 168.675724 
L 238.808049 168.802532 
L 239.9616 169.019634 
L 241.055197 169.323607 
L 242.071593 169.709656 
L 242.994761 170.171693 
L 243.81014 170.702432 
L 244.504872 171.293502 
L 245.068 171.935582 
L 245.490644 172.618546 
L 245.766138 173.331624 
L 245.890138 174.063569 
L 245.860687 174.802838 
L 245.678251 175.537773 
L 245.345706 176.256783 
L 244.868297 176.948529 
L 244.253553 177.602102 
L 243.511169 178.207195 
L 242.652853 178.754265 
L 241.69214 179.234684 
L 240.644183 179.640875 
L 239.525507 179.966434 
L 238.353755 180.206225 
L 237.147406 180.356467 
L 235.925485 180.414791 
L 234.707263 180.380276 
L 233.511951 180.253468 
L 232.3584 180.036366 
L 231.264803 179.732393 
L 230.248407 179.346344 
L 229.325239 178.884307 
L 228.50986 178.353568 
L 227.815128 177.762498 
L 227.252 177.120418 
L 226.829356 176.437454 
L 226.553862 175.724376 
L 226.553862 175.724376 
z
" clip-path="url(#pd0e9d60bb3)" style="fill: none; opacity: 0"/>
   </g>
   <g id="patch_4">
    <path d="M 184.262796 243.219413 
L 180.936255 241.406294 
L 178.480625 238.538464 
L 176.934634 234.661151 
L 176.322662 229.835502 
L 176.65436 224.137621 
L 177.924498 217.657366 
L 180.113045 210.496936 
L 183.185485 202.769254 
L 187.093366 194.59619 
L 191.775056 186.106639 
L 197.156724 177.434486 
L 203.153496 168.716496 
L 209.670801 160.090157 
L 216.605856 151.691512 
L 223.849292 143.653011 
L 231.286875 136.101428 
L 238.80131 129.155854 
L 246.27409 122.925826 
L 253.587365 117.509596 
L 260.6258 112.992579 
L 267.278395 109.446013 
L 273.440234 106.925829 
L 279.014141 105.471771 
L 283.912213 105.106772 
L 288.057204 105.836587 
L 291.383745 107.649706 
L 293.839375 110.517536 
L 295.385366 114.394849 
L 295.997338 119.220498 
L 295.66564 124.918379 
L 294.395502 131.398634 
L 292.206955 138.559064 
L 289.134515 146.286746 
L 285.226634 154.45981 
L 280.544944 162.949361 
L 275.163276 171.621514 
L 269.166504 180.339504 
L 262.649199 188.965843 
L 255.714144 197.364488 
L 248.470708 205.402989 
L 241.033125 212.954572 
L 233.51869 219.900146 
L 226.04591 226.130174 
L 218.732635 231.546404 
L 211.6942 236.063421 
L 205.041605 239.609987 
L 198.879766 242.130171 
L 193.305859 243.584229 
L 188.407787 243.949228 
L 184.262796 243.219413 
L 184.262796 243.219413 
z
" clip-path="url(#pd0e9d60bb3)" style="fill: none; opacity: 0"/>
   </g>
   <g id="patch_5">
    <path d="M 307.414699 60.722161 
L 325.135384 66.776227 
L 341.452873 74.529604 
L 356.109832 83.860014 
L 368.875109 94.620313 
L 379.54739 106.640804 
L 387.958367 119.731916 
L 393.975392 133.687196 
L 397.503575 148.286559 
L 398.487273 163.299766 
L 396.910973 178.490048 
L 392.799534 193.617847 
L 386.217796 208.444587 
L 377.269556 222.736443 
L 366.095935 236.268022 
L 352.873147 248.825925 
L 337.809722 260.212105 
L 321.143221 270.246995 
L 303.136484 278.772339 
L 284.073487 285.653689 
L 264.254866 290.782519 
L 243.993172 294.077947 
L 223.607945 295.488 
L 203.42067 294.990442 
L 183.749715 292.593119 
L 164.905301 288.333839 
L 147.184616 282.279773 
L 130.867127 274.526396 
L 116.210168 265.195986 
L 103.444891 254.435687 
L 92.77261 242.415196 
L 84.361633 229.324084 
L 78.344608 215.368804 
L 74.816425 200.769441 
L 73.832727 185.756234 
L 75.409027 170.565952 
L 79.520466 155.438153 
L 86.102204 140.611413 
L 95.050444 126.319557 
L 106.224065 112.787978 
L 119.446853 100.230075 
L 134.510278 88.843895 
L 151.176779 78.809005 
L 169.183516 70.283661 
L 188.246513 63.402311 
L 208.065134 58.273481 
L 228.326828 54.978053 
L 248.712055 53.568 
L 268.89933 54.065558 
L 288.570285 56.462881 
L 307.414699 60.722161 
L 307.414699 60.722161 
z
" clip-path="url(#pd0e9d60bb3)" style="fill: none; opacity: 0"/>
   </g>
   <g id="matplotlib.axis_1">
    <g id="xtick_1">
     <g id="line2d_1">
      <path d="M 58.26921 307.584 
L 58.26921 41.472 
" clip-path="url(#pd0e9d60bb3)" style="fill: none; stroke: #b0b0b0; stroke-width: 0.8; stroke-linecap: square"/>
     </g>
     <g id="line2d_2">
      <defs>
       <path id="mcf609718ef" d="M 0 0 
L 0 3.5 
" style="stroke: #000000; stroke-width: 0.8"/>
      </defs>
      <g>
       <use xlink:href="#mcf609718ef" x="58.26921" y="307.584" style="stroke: #000000; stroke-width: 0.8"/>
      </g>
     </g>
     <g id="text_1">
      <!-- $\mathdefault{−0.015}$ -->
      <g transform="translate(43.048464 321.502498) scale(0.1 -0.1)">
       <defs>
        <path id="CMSY10-0" d="M 4218 1472 
C 4326 1472 4442 1472 4442 1600 
C 4442 1728 4326 1728 4218 1728 
L 755 1728 
C 646 1728 531 1728 531 1600 
C 531 1472 646 1472 755 1472 
L 4218 1472 
z
" transform="scale(0.015625)"/>
        <path id="CMR17-30" d="M 2688 2025 
C 2688 2416 2682 3080 2413 3591 
C 2176 4039 1798 4198 1466 4198 
C 1158 4198 768 4058 525 3597 
C 269 3118 243 2524 243 2025 
C 243 1661 250 1106 448 619 
C 723 -39 1216 -128 1466 -128 
C 1760 -128 2208 -7 2470 600 
C 2662 1042 2688 1559 2688 2025 
z
M 1466 -26 
C 1056 -26 813 325 723 812 
C 653 1188 653 1738 653 2096 
C 653 2588 653 2997 736 3387 
C 858 3929 1216 4096 1466 4096 
C 1728 4096 2067 3923 2189 3400 
C 2272 3036 2278 2607 2278 2096 
C 2278 1680 2278 1169 2202 792 
C 2067 95 1690 -26 1466 -26 
z
" transform="scale(0.015625)"/>
        <path id="CMMI12-3a" d="M 1178 307 
C 1178 492 1024 619 870 619 
C 685 619 557 466 557 313 
C 557 128 710 0 864 0 
C 1050 0 1178 153 1178 307 
z
" transform="scale(0.015625)"/>
        <path id="CMR17-31" d="M 1702 4058 
C 1702 4192 1696 4192 1606 4192 
C 1357 3916 979 3827 621 3827 
C 602 3827 570 3827 563 3808 
C 557 3795 557 3782 557 3648 
C 755 3648 1088 3686 1344 3839 
L 1344 461 
C 1344 236 1331 160 781 160 
L 589 160 
L 589 0 
C 896 0 1216 0 1523 0 
C 1830 0 2150 0 2458 0 
L 2458 160 
L 2266 160 
C 1715 160 1702 230 1702 458 
L 1702 4058 
z
" transform="scale(0.015625)"/>
        <path id="CMR17-35" d="M 730 3692 
C 794 3666 1056 3584 1325 3584 
C 1920 3584 2246 3911 2432 4100 
C 2432 4157 2432 4192 2394 4192 
C 2387 4192 2374 4192 2323 4163 
C 2099 4058 1837 3973 1517 3973 
C 1325 3973 1037 3999 723 4139 
C 653 4171 640 4171 634 4171 
C 602 4171 595 4164 595 4037 
L 595 2203 
C 595 2089 595 2057 659 2057 
C 691 2057 704 2070 736 2114 
C 941 2401 1222 2522 1542 2522 
C 1766 2522 2246 2382 2246 1289 
C 2246 1085 2246 715 2054 421 
C 1894 159 1645 25 1370 25 
C 947 25 518 320 403 814 
C 429 807 480 795 506 795 
C 589 795 749 840 749 1038 
C 749 1210 627 1280 506 1280 
C 358 1280 262 1190 262 1011 
C 262 454 704 -128 1382 -128 
C 2042 -128 2669 440 2669 1264 
C 2669 2030 2170 2624 1549 2624 
C 1222 2624 947 2503 730 2274 
L 730 3692 
z
" transform="scale(0.015625)"/>
       </defs>
       <use xlink:href="#CMSY10-0" transform="scale(0.996264)"/>
       <use xlink:href="#CMR17-30" transform="translate(77.487468 0) scale(0.996264)"/>
       <use xlink:href="#CMMI12-3a" transform="translate(123.177945 0) scale(0.996264)"/>
       <use xlink:href="#CMR17-30" transform="translate(150.275122 0) scale(0.996264)"/>
       <use xlink:href="#CMR17-31" transform="translate(195.965599 0) scale(0.996264)"/>
       <use xlink:href="#CMR17-35" transform="translate(241.656076 0) scale(0.996264)"/>
      </g>
     </g>
    </g>
    <g id="xtick_2">
     <g id="line2d_3">
      <path d="M 100.259907 307.584 
L 100.259907 41.472 
" clip-path="url(#pd0e9d60bb3)" style="fill: none; stroke: #b0b0b0; stroke-width: 0.8; stroke-linecap: square"/>
     </g>
     <g id="line2d_4">
      <g>
       <use xlink:href="#mcf609718ef" x="100.259907" y="307.584" style="stroke: #000000; stroke-width: 0.8"/>
      </g>
     </g>
     <g id="text_2">
      <!-- $\mathdefault{−0.010}$ -->
      <g transform="translate(85.03916 321.502498) scale(0.1 -0.1)">
       <use xlink:href="#CMSY10-0" transform="scale(0.996264)"/>
       <use xlink:href="#CMR17-30" transform="translate(77.487468 0) scale(0.996264)"/>
       <use xlink:href="#CMMI12-3a" transform="translate(123.177945 0) scale(0.996264)"/>
       <use xlink:href="#CMR17-30" transform="translate(150.275122 0) scale(0.996264)"/>
       <use xlink:href="#CMR17-31" transform="translate(195.965599 0) scale(0.996264)"/>
       <use xlink:href="#CMR17-30" transform="translate(241.656076 0) scale(0.996264)"/>
      </g>
     </g>
    </g>
    <g id="xtick_3">
     <g id="line2d_5">
      <path d="M 142.250603 307.584 
L 142.250603 41.472 
" clip-path="url(#pd0e9d60bb3)" style="fill: none; stroke: #b0b0b0; stroke-width: 0.8; stroke-linecap: square"/>
     </g>
     <g id="line2d_6">
      <g>
       <use xlink:href="#mcf609718ef" x="142.250603" y="307.584" style="stroke: #000000; stroke-width: 0.8"/>
      </g>
     </g>
     <g id="text_3">
      <!-- $\mathdefault{−0.005}$ -->
      <g transform="translate(127.029857 321.502498) scale(0.1 -0.1)">
       <use xlink:href="#CMSY10-0" transform="scale(0.996264)"/>
       <use xlink:href="#CMR17-30" transform="translate(77.487468 0) scale(0.996264)"/>
       <use xlink:href="#CMMI12-3a" transform="translate(123.177945 0) scale(0.996264)"/>
       <use xlink:href="#CMR17-30" transform="translate(150.275122 0) scale(0.996264)"/>
       <use xlink:href="#CMR17-30" transform="translate(195.965599 0) scale(0.996264)"/>
       <use xlink:href="#CMR17-35" transform="translate(241.656076 0) scale(0.996264)"/>
      </g>
     </g>
    </g>
    <g id="xtick_4">
     <g id="line2d_7">
      <path d="M 184.2413 307.584 
L 184.2413 41.472 
" clip-path="url(#pd0e9d60bb3)" style="fill: none; stroke: #b0b0b0; stroke-width: 0.8; stroke-linecap: square"/>
     </g>
     <g id="line2d_8">
      <g>
       <use xlink:href="#mcf609718ef" x="184.2413" y="307.584" style="stroke: #000000; stroke-width: 0.8"/>
      </g>
     </g>
     <g id="text_4">
      <!-- $\mathdefault{0.000}$ -->
      <g transform="translate(172.894925 321.502498) scale(0.1 -0.1)">
       <use xlink:href="#CMR17-30" transform="scale(0.996264)"/>
       <use xlink:href="#CMMI12-3a" transform="translate(45.690477 0) scale(0.996264)"/>
       <use xlink:href="#CMR17-30" transform="translate(72.787654 0) scale(0.996264)"/>
       <use xlink:href="#CMR17-30" transform="translate(118.478131 0) scale(0.996264)"/>
       <use xlink:href="#CMR17-30" transform="translate(164.168608 0) scale(0.996264)"/>
      </g>
     </g>
    </g>
    <g id="xtick_5">
     <g id="line2d_9">
      <path d="M 226.231996 307.584 
L 226.231996 41.472 
" clip-path="url(#pd0e9d60bb3)" style="fill: none; stroke: #b0b0b0; stroke-width: 0.8; stroke-linecap: square"/>
     </g>
     <g id="line2d_10">
      <g>
       <use xlink:href="#mcf609718ef" x="226.231996" y="307.584" style="stroke: #000000; stroke-width: 0.8"/>
      </g>
     </g>
     <g id="text_5">
      <!-- $\mathdefault{0.005}$ -->
      <g transform="translate(214.885621 321.502498) scale(0.1 -0.1)">
       <use xlink:href="#CMR17-30" transform="scale(0.996264)"/>
       <use xlink:href="#CMMI12-3a" transform="translate(45.690477 0) scale(0.996264)"/>
       <use xlink:href="#CMR17-30" transform="translate(72.787654 0) scale(0.996264)"/>
       <use xlink:href="#CMR17-30" transform="translate(118.478131 0) scale(0.996264)"/>
       <use xlink:href="#CMR17-35" transform="translate(164.168608 0) scale(0.996264)"/>
      </g>
     </g>
    </g>
    <g id="xtick_6">
     <g id="line2d_11">
      <path d="M 268.222693 307.584 
L 268.222693 41.472 
" clip-path="url(#pd0e9d60bb3)" style="fill: none; stroke: #b0b0b0; stroke-width: 0.8; stroke-linecap: square"/>
     </g>
     <g id="line2d_12">
      <g>
       <use xlink:href="#mcf609718ef" x="268.222693" y="307.584" style="stroke: #000000; stroke-width: 0.8"/>
      </g>
     </g>
     <g id="text_6">
      <!-- $\mathdefault{0.010}$ -->
      <g transform="translate(256.876318 321.502498) scale(0.1 -0.1)">
       <use xlink:href="#CMR17-30" transform="scale(0.996264)"/>
       <use xlink:href="#CMMI12-3a" transform="translate(45.690477 0) scale(0.996264)"/>
       <use xlink:href="#CMR17-30" transform="translate(72.787654 0) scale(0.996264)"/>
       <use xlink:href="#CMR17-31" transform="translate(118.478131 0) scale(0.996264)"/>
       <use xlink:href="#CMR17-30" transform="translate(164.168608 0) scale(0.996264)"/>
      </g>
     </g>
    </g>
    <g id="xtick_7">
     <g id="line2d_13">
      <path d="M 310.213389 307.584 
L 310.213389 41.472 
" clip-path="url(#pd0e9d60bb3)" style="fill: none; stroke: #b0b0b0; stroke-width: 0.8; stroke-linecap: square"/>
     </g>
     <g id="line2d_14">
      <g>
       <use xlink:href="#mcf609718ef" x="310.213389" y="307.584" style="stroke: #000000; stroke-width: 0.8"/>
      </g>
     </g>
     <g id="text_7">
      <!-- $\mathdefault{0.015}$ -->
      <g transform="translate(298.867014 321.502498) scale(0.1 -0.1)">
       <use xlink:href="#CMR17-30" transform="scale(0.996264)"/>
       <use xlink:href="#CMMI12-3a" transform="translate(45.690477 0) scale(0.996264)"/>
       <use xlink:href="#CMR17-30" transform="translate(72.787654 0) scale(0.996264)"/>
       <use xlink:href="#CMR17-31" transform="translate(118.478131 0) scale(0.996264)"/>
       <use xlink:href="#CMR17-35" transform="translate(164.168608 0) scale(0.996264)"/>
      </g>
     </g>
    </g>
    <g id="xtick_8">
     <g id="line2d_15">
      <path d="M 352.204085 307.584 
L 352.204085 41.472 
" clip-path="url(#pd0e9d60bb3)" style="fill: none; stroke: #b0b0b0; stroke-width: 0.8; stroke-linecap: square"/>
     </g>
     <g id="line2d_16">
      <g>
       <use xlink:href="#mcf609718ef" x="352.204085" y="307.584" style="stroke: #000000; stroke-width: 0.8"/>
      </g>
     </g>
     <g id="text_8">
      <!-- $\mathdefault{0.020}$ -->
      <g transform="translate(340.857711 321.502498) scale(0.1 -0.1)">
       <defs>
        <path id="CMR17-32" d="M 2669 989 
L 2554 989 
C 2490 536 2438 459 2413 420 
C 2381 369 1920 369 1830 369 
L 602 369 
C 832 619 1280 1072 1824 1597 
C 2214 1967 2669 2402 2669 3035 
C 2669 3790 2067 4224 1395 4224 
C 691 4224 262 3604 262 3030 
C 262 2780 448 2748 525 2748 
C 589 2748 781 2787 781 3010 
C 781 3207 614 3264 525 3264 
C 486 3264 448 3258 422 3245 
C 544 3790 915 4058 1306 4058 
C 1862 4058 2227 3617 2227 3035 
C 2227 2479 1901 2000 1536 1584 
L 262 146 
L 262 0 
L 2515 0 
L 2669 989 
z
" transform="scale(0.015625)"/>
       </defs>
       <use xlink:href="#CMR17-30" transform="scale(0.996264)"/>
       <use xlink:href="#CMMI12-3a" transform="translate(45.690477 0) scale(0.996264)"/>
       <use xlink:href="#CMR17-30" transform="translate(72.787654 0) scale(0.996264)"/>
       <use xlink:href="#CMR17-32" transform="translate(118.478131 0) scale(0.996264)"/>
       <use xlink:href="#CMR17-30" transform="translate(164.168608 0) scale(0.996264)"/>
      </g>
     </g>
    </g>
    <g id="xtick_9">
     <g id="line2d_17">
      <path d="M 394.194782 307.584 
L 394.194782 41.472 
" clip-path="url(#pd0e9d60bb3)" style="fill: none; stroke: #b0b0b0; stroke-width: 0.8; stroke-linecap: square"/>
     </g>
     <g id="line2d_18">
      <g>
       <use xlink:href="#mcf609718ef" x="394.194782" y="307.584" style="stroke: #000000; stroke-width: 0.8"/>
      </g>
     </g>
     <g id="text_9">
      <!-- $\mathdefault{0.025}$ -->
      <g transform="translate(382.848407 321.502498) scale(0.1 -0.1)">
       <use xlink:href="#CMR17-30" transform="scale(0.996264)"/>
       <use xlink:href="#CMMI12-3a" transform="translate(45.690477 0) scale(0.996264)"/>
       <use xlink:href="#CMR17-30" transform="translate(72.787654 0) scale(0.996264)"/>
       <use xlink:href="#CMR17-32" transform="translate(118.478131 0) scale(0.996264)"/>
       <use xlink:href="#CMR17-35" transform="translate(164.168608 0) scale(0.996264)"/>
      </g>
     </g>
    </g>
    <g id="text_10">
     <!-- x [m] -->
     <g transform="translate(225.36713 334.911657) scale(0.1 -0.1)">
      <defs>
       <path id="CMSS17-78" d="M 1587 1414 
L 2656 2739 
L 2099 2739 
L 1363 1777 
L 602 2739 
L 32 2739 
L 1139 1414 
L 0 0 
L 563 0 
L 1363 1121 
L 2195 0 
L 2758 0 
L 1587 1414 
z
" transform="scale(0.015625)"/>
       <path id="CMSS17-5b" d="M 1613 -1600 
L 1613 -1212 
L 1062 -1212 
L 1062 4352 
L 1613 4352 
L 1613 4741 
L 595 4741 
L 595 -1600 
L 1613 -1600 
z
" transform="scale(0.015625)"/>
       <path id="CMSS17-6d" d="M 4288 1877 
C 4288 2308 4179 2816 3462 2816 
C 2982 2816 2694 2516 2566 2331 
C 2451 2670 2182 2816 1798 2816 
C 1363 2816 1088 2568 941 2389 
L 941 2758 
L 474 2758 
L 474 0 
L 960 0 
L 960 1559 
C 960 1939 1101 2428 1555 2428 
C 2138 2428 2138 2016 2138 1829 
L 2138 0 
L 2624 0 
L 2624 1559 
C 2624 1939 2765 2428 3219 2428 
C 3802 2428 3802 2016 3802 1829 
L 3802 0 
L 4288 0 
L 4288 1877 
z
" transform="scale(0.015625)"/>
       <path id="CMSS17-5d" d="M 1146 4741 
L 128 4741 
L 128 4352 
L 678 4352 
L 678 -1212 
L 128 -1212 
L 128 -1600 
L 1146 -1600 
L 1146 4741 
z
" transform="scale(0.015625)"/>
      </defs>
      <use xlink:href="#CMSS17-78" transform="scale(0.996264)"/>
      <use xlink:href="#CMSS17-5b" transform="translate(74.229254 0) scale(0.996264)"/>
      <use xlink:href="#CMSS17-6d" transform="translate(101.414693 0) scale(0.996264)"/>
      <use xlink:href="#CMSS17-5d" transform="translate(175.643948 0) scale(0.996264)"/>
     </g>
    </g>
   </g>
   <g id="matplotlib.axis_2">
    <g id="ytick_1">
     <g id="line2d_19">
      <path d="M 57.6 280.556945 
L 414.72 280.556945 
" clip-path="url(#pd0e9d60bb3)" style="fill: none; stroke: #b0b0b0; stroke-width: 0.8; stroke-linecap: square"/>
     </g>
     <g id="line2d_20">
      <defs>
       <path id="m766d5fabb8" d="M 0 0 
L -3.5 0 
" style="stroke: #000000; stroke-width: 0.8"/>
      </defs>
      <g>
       <use xlink:href="#m766d5fabb8" x="57.6" y="280.556945" style="stroke: #000000; stroke-width: 0.8"/>
      </g>
     </g>
     <g id="text_11">
      <!-- $\mathdefault{−0.02}$ -->
      <g transform="translate(25.139842 284.016195) scale(0.1 -0.1)">
       <use xlink:href="#CMSY10-0" transform="scale(0.996264)"/>
       <use xlink:href="#CMR17-30" transform="translate(77.487468 0) scale(0.996264)"/>
       <use xlink:href="#CMMI12-3a" transform="translate(123.177945 0) scale(0.996264)"/>
       <use xlink:href="#CMR17-30" transform="translate(150.275122 0) scale(0.996264)"/>
       <use xlink:href="#CMR17-32" transform="translate(195.965599 0) scale(0.996264)"/>
      </g>
     </g>
    </g>
    <g id="ytick_2">
     <g id="line2d_21">
      <path d="M 57.6 224.189932 
L 414.72 224.189932 
" clip-path="url(#pd0e9d60bb3)" style="fill: none; stroke: #b0b0b0; stroke-width: 0.8; stroke-linecap: square"/>
     </g>
     <g id="line2d_22">
      <g>
       <use xlink:href="#m766d5fabb8" x="57.6" y="224.189932" style="stroke: #000000; stroke-width: 0.8"/>
      </g>
     </g>
     <g id="text_12">
      <!-- $\mathdefault{−0.01}$ -->
      <g transform="translate(25.139842 227.649181) scale(0.1 -0.1)">
       <use xlink:href="#CMSY10-0" transform="scale(0.996264)"/>
       <use xlink:href="#CMR17-30" transform="translate(77.487468 0) scale(0.996264)"/>
       <use xlink:href="#CMMI12-3a" transform="translate(123.177945 0) scale(0.996264)"/>
       <use xlink:href="#CMR17-30" transform="translate(150.275122 0) scale(0.996264)"/>
       <use xlink:href="#CMR17-31" transform="translate(195.965599 0) scale(0.996264)"/>
      </g>
     </g>
    </g>
    <g id="ytick_3">
     <g id="line2d_23">
      <path d="M 57.6 167.822919 
L 414.72 167.822919 
" clip-path="url(#pd0e9d60bb3)" style="fill: none; stroke: #b0b0b0; stroke-width: 0.8; stroke-linecap: square"/>
     </g>
     <g id="line2d_24">
      <g>
       <use xlink:href="#m766d5fabb8" x="57.6" y="167.822919" style="stroke: #000000; stroke-width: 0.8"/>
      </g>
     </g>
     <g id="text_13">
      <!-- $\mathdefault{0.00}$ -->
      <g transform="translate(32.888586 171.282168) scale(0.1 -0.1)">
       <use xlink:href="#CMR17-30" transform="scale(0.996264)"/>
       <use xlink:href="#CMMI12-3a" transform="translate(45.690477 0) scale(0.996264)"/>
       <use xlink:href="#CMR17-30" transform="translate(72.787654 0) scale(0.996264)"/>
       <use xlink:href="#CMR17-30" transform="translate(118.478131 0) scale(0.996264)"/>
      </g>
     </g>
    </g>
    <g id="ytick_4">
     <g id="line2d_25">
      <path d="M 57.6 111.455906 
L 414.72 111.455906 
" clip-path="url(#pd0e9d60bb3)" style="fill: none; stroke: #b0b0b0; stroke-width: 0.8; stroke-linecap: square"/>
     </g>
     <g id="line2d_26">
      <g>
       <use xlink:href="#m766d5fabb8" x="57.6" y="111.455906" style="stroke: #000000; stroke-width: 0.8"/>
      </g>
     </g>
     <g id="text_14">
      <!-- $\mathdefault{0.01}$ -->
      <g transform="translate(32.888586 114.915155) scale(0.1 -0.1)">
       <use xlink:href="#CMR17-30" transform="scale(0.996264)"/>
       <use xlink:href="#CMMI12-3a" transform="translate(45.690477 0) scale(0.996264)"/>
       <use xlink:href="#CMR17-30" transform="translate(72.787654 0) scale(0.996264)"/>
       <use xlink:href="#CMR17-31" transform="translate(118.478131 0) scale(0.996264)"/>
      </g>
     </g>
    </g>
    <g id="ytick_5">
     <g id="line2d_27">
      <path d="M 57.6 55.088893 
L 414.72 55.088893 
" clip-path="url(#pd0e9d60bb3)" style="fill: none; stroke: #b0b0b0; stroke-width: 0.8; stroke-linecap: square"/>
     </g>
     <g id="line2d_28">
      <g>
       <use xlink:href="#m766d5fabb8" x="57.6" y="55.088893" style="stroke: #000000; stroke-width: 0.8"/>
      </g>
     </g>
     <g id="text_15">
      <!-- $\mathdefault{0.02}$ -->
      <g transform="translate(32.888586 58.548142) scale(0.1 -0.1)">
       <use xlink:href="#CMR17-30" transform="scale(0.996264)"/>
       <use xlink:href="#CMMI12-3a" transform="translate(45.690477 0) scale(0.996264)"/>
       <use xlink:href="#CMR17-30" transform="translate(72.787654 0) scale(0.996264)"/>
       <use xlink:href="#CMR17-32" transform="translate(118.478131 0) scale(0.996264)"/>
      </g>
     </g>
    </g>
    <g id="text_16">
     <!-- y [m] -->
     <g transform="translate(18.649182 185.32087) rotate(-90) scale(0.1 -0.1)">
      <defs>
       <path id="CMSS17-79" d="M 2675 2752 
L 2176 2752 
C 1632 1294 1446 702 1434 383 
L 1427 383 
C 1408 696 1126 1460 902 2007 
L 602 2752 
L 83 2752 
L 1216 13 
C 1146 -178 1043 -465 1011 -529 
C 870 -885 774 -885 672 -885 
C 646 -885 442 -885 211 -809 
L 250 -1229 
C 410 -1261 570 -1280 685 -1280 
C 845 -1280 1165 -1280 1459 -497 
L 2675 2752 
z
" transform="scale(0.015625)"/>
      </defs>
      <use xlink:href="#CMSS17-79" transform="scale(0.996264)"/>
      <use xlink:href="#CMSS17-5b" transform="translate(74.229254 0) scale(0.996264)"/>
      <use xlink:href="#CMSS17-6d" transform="translate(101.414693 0) scale(0.996264)"/>
      <use xlink:href="#CMSS17-5d" transform="translate(175.643948 0) scale(0.996264)"/>
     </g>
    </g>
   </g>
   <g id="line2d_29">
    <path d="M 226.553862 175.724376 
L 226.429862 174.992431 
L 226.459313 174.253162 
L 226.641749 173.518227 
L 226.974294 172.799217 
L 227.451703 172.107471 
L 228.066447 171.453898 
L 228.808831 170.848805 
L 229.667147 170.301735 
L 230.62786 169.821316 
L 231.675817 169.415125 
L 232.794493 169.089566 
L 233.966245 168.849775 
L 235.172594 168.699533 
L 236.394515 168.641209 
L 237.612737 168.675724 
L 238.808049 168.802532 
L 239.9616 169.019634 
L 241.055197 169.323607 
L 242.071593 169.709656 
L 242.994761 170.171693 
L 243.81014 170.702432 
L 244.504872 171.293502 
L 245.068 171.935582 
L 245.490644 172.618546 
L 245.766138 173.331624 
L 245.890138 174.063569 
L 245.860687 174.802838 
L 245.678251 175.537773 
L 245.345706 176.256783 
L 244.868297 176.948529 
L 244.253553 177.602102 
L 243.511169 178.207195 
L 242.652853 178.754265 
L 241.69214 179.234684 
L 240.644183 179.640875 
L 239.525507 179.966434 
L 238.353755 180.206225 
L 237.147406 180.356467 
L 235.925485 180.414791 
L 234.707263 180.380276 
L 233.511951 180.253468 
L 232.3584 180.036366 
L 231.264803 179.732393 
L 230.248407 179.346344 
L 229.325239 178.884307 
L 228.50986 178.353568 
L 227.815128 177.762498 
L 227.252 177.120418 
L 226.829356 176.437454 
L 226.553862 175.724376 
" clip-path="url(#pd0e9d60bb3)" style="fill: none; stroke: #0000ff; stroke-width: 1.5; stroke-linecap: square"/>
   </g>
   <g id="line2d_30">
    <path d="M 184.262796 243.219413 
L 180.936255 241.406294 
L 178.480625 238.538464 
L 176.934634 234.661151 
L 176.322662 229.835502 
L 176.65436 224.137621 
L 177.924498 217.657366 
L 180.113045 210.496936 
L 183.185485 202.769254 
L 187.093366 194.59619 
L 191.775056 186.106639 
L 197.156724 177.434486 
L 203.153496 168.716496 
L 209.670801 160.090157 
L 216.605856 151.691512 
L 223.849292 143.653011 
L 231.286875 136.101428 
L 238.80131 129.155854 
L 246.27409 122.925826 
L 253.587365 117.509596 
L 260.6258 112.992579 
L 267.278395 109.446013 
L 273.440234 106.925829 
L 279.014141 105.471771 
L 283.912213 105.106772 
L 288.057204 105.836587 
L 291.383745 107.649706 
L 293.839375 110.517536 
L 295.385366 114.394849 
L 295.997338 119.220498 
L 295.66564 124.918379 
L 294.395502 131.398634 
L 292.206955 138.559064 
L 289.134515 146.286746 
L 285.226634 154.45981 
L 280.544944 162.949361 
L 275.163276 171.621514 
L 269.166504 180.339504 
L 262.649199 188.965843 
L 255.714144 197.364488 
L 248.470708 205.402989 
L 241.033125 212.954572 
L 233.51869 219.900146 
L 226.04591 226.130174 
L 218.732635 231.546404 
L 211.6942 236.063421 
L 205.041605 239.609987 
L 198.879766 242.130171 
L 193.305859 243.584229 
L 188.407787 243.949228 
L 184.262796 243.219413 
" clip-path="url(#pd0e9d60bb3)" style="fill: none; stroke: #008000; stroke-width: 1.5; stroke-linecap: square"/>
   </g>
   <g id="line2d_31">
    <defs>
     <path id="mdb631b73ab" d="M 0 1.5 
C 0.397805 1.5 0.77937 1.341951 1.06066 1.06066 
C 1.341951 0.77937 1.5 0.397805 1.5 0 
C 1.5 -0.397805 1.341951 -0.77937 1.06066 -1.06066 
C 0.77937 -1.341951 0.397805 -1.5 0 -1.5 
C -0.397805 -1.5 -0.77937 -1.341951 -1.06066 -1.06066 
C -1.341951 -0.77937 -1.5 -0.397805 -1.5 0 
C -1.5 0.397805 -1.341951 0.77937 -1.06066 1.06066 
C -0.77937 1.341951 -0.397805 1.5 0 1.5 
z
" style="stroke: #ff0000"/>
    </defs>
    <g clip-path="url(#pd0e9d60bb3)">
     <use xlink:href="#mdb631b73ab" x="246.410971" y="177.36761" style="fill: #ff0000; stroke: #ff0000"/>
     <use xlink:href="#mdb631b73ab" x="235.228607" y="202.362579" style="fill: #ff0000; stroke: #ff0000"/>
     <use xlink:href="#mdb631b73ab" x="279.687852" y="194.994636" style="fill: #ff0000; stroke: #ff0000"/>
     <use xlink:href="#mdb631b73ab" x="159.057412" y="173.550594" style="fill: #ff0000; stroke: #ff0000"/>
     <use xlink:href="#mdb631b73ab" x="209.457295" y="268.813786" style="fill: #ff0000; stroke: #ff0000"/>
     <use xlink:href="#mdb631b73ab" x="241.519489" y="171.212782" style="fill: #ff0000; stroke: #ff0000"/>
     <use xlink:href="#mdb631b73ab" x="252.046409" y="149.703945" style="fill: #ff0000; stroke: #ff0000"/>
     <use xlink:href="#mdb631b73ab" x="253.410529" y="174.828205" style="fill: #ff0000; stroke: #ff0000"/>
     <use xlink:href="#mdb631b73ab" x="206.95898" y="218.433221" style="fill: #ff0000; stroke: #ff0000"/>
     <use xlink:href="#mdb631b73ab" x="220.08814" y="163.979938" style="fill: #ff0000; stroke: #ff0000"/>
     <use xlink:href="#mdb631b73ab" x="272.669584" y="163.03216" style="fill: #ff0000; stroke: #ff0000"/>
     <use xlink:href="#mdb631b73ab" x="281.405118" y="209.299876" style="fill: #ff0000; stroke: #ff0000"/>
     <use xlink:href="#mdb631b73ab" x="272.769472" y="249.330737" style="fill: #ff0000; stroke: #ff0000"/>
     <use xlink:href="#mdb631b73ab" x="137.477412" y="130.386036" style="fill: #ff0000; stroke: #ff0000"/>
     <use xlink:href="#mdb631b73ab" x="178.195181" y="158.63656" style="fill: #ff0000; stroke: #ff0000"/>
     <use xlink:href="#mdb631b73ab" x="257.399688" y="142.411019" style="fill: #ff0000; stroke: #ff0000"/>
     <use xlink:href="#mdb631b73ab" x="381.849827" y="181.149186" style="fill: #ff0000; stroke: #ff0000"/>
     <use xlink:href="#mdb631b73ab" x="284.818239" y="151.674878" style="fill: #ff0000; stroke: #ff0000"/>
     <use xlink:href="#mdb631b73ab" x="194.56491" y="135.461229" style="fill: #ff0000; stroke: #ff0000"/>
     <use xlink:href="#mdb631b73ab" x="213.6742" y="186.268603" style="fill: #ff0000; stroke: #ff0000"/>
     <use xlink:href="#mdb631b73ab" x="256.093048" y="194.326258" style="fill: #ff0000; stroke: #ff0000"/>
     <use xlink:href="#mdb631b73ab" x="304.484363" y="218.774412" style="fill: #ff0000; stroke: #ff0000"/>
     <use xlink:href="#mdb631b73ab" x="232.682685" y="147.850429" style="fill: #ff0000; stroke: #ff0000"/>
     <use xlink:href="#mdb631b73ab" x="185.907306" y="224.833517" style="fill: #ff0000; stroke: #ff0000"/>
     <use xlink:href="#mdb631b73ab" x="280.144989" y="179.786053" style="fill: #ff0000; stroke: #ff0000"/>
     <use xlink:href="#mdb631b73ab" x="80.391138" y="171.903788" style="fill: #ff0000; stroke: #ff0000"/>
     <use xlink:href="#mdb631b73ab" x="160.058525" y="149.001687" style="fill: #ff0000; stroke: #ff0000"/>
     <use xlink:href="#mdb631b73ab" x="310.303532" y="55.542911" style="fill: #ff0000; stroke: #ff0000"/>
     <use xlink:href="#mdb631b73ab" x="209.183023" y="174.898774" style="fill: #ff0000; stroke: #ff0000"/>
     <use xlink:href="#mdb631b73ab" x="246.138095" y="197.947605" style="fill: #ff0000; stroke: #ff0000"/>
     <use xlink:href="#mdb631b73ab" x="240.494157" y="196.892628" style="fill: #ff0000; stroke: #ff0000"/>
     <use xlink:href="#mdb631b73ab" x="200.877926" y="208.474832" style="fill: #ff0000; stroke: #ff0000"/>
     <use xlink:href="#mdb631b73ab" x="136.046375" y="173.10946" style="fill: #ff0000; stroke: #ff0000"/>
     <use xlink:href="#mdb631b73ab" x="124.606399" y="178.839597" style="fill: #ff0000; stroke: #ff0000"/>
     <use xlink:href="#mdb631b73ab" x="244.536313" y="67.933372" style="fill: #ff0000; stroke: #ff0000"/>
     <use xlink:href="#mdb631b73ab" x="206.14801" y="249.144481" style="fill: #ff0000; stroke: #ff0000"/>
     <use xlink:href="#mdb631b73ab" x="176.538708" y="229.550052" style="fill: #ff0000; stroke: #ff0000"/>
     <use xlink:href="#mdb631b73ab" x="213.324847" y="108.827259" style="fill: #ff0000; stroke: #ff0000"/>
     <use xlink:href="#mdb631b73ab" x="172.552389" y="122.485723" style="fill: #ff0000; stroke: #ff0000"/>
     <use xlink:href="#mdb631b73ab" x="247.386157" y="100.977576" style="fill: #ff0000; stroke: #ff0000"/>
     <use xlink:href="#mdb631b73ab" x="231.64718" y="213.409208" style="fill: #ff0000; stroke: #ff0000"/>
     <use xlink:href="#mdb631b73ab" x="185.313357" y="209.245786" style="fill: #ff0000; stroke: #ff0000"/>
     <use xlink:href="#mdb631b73ab" x="246.481273" y="117.63035" style="fill: #ff0000; stroke: #ff0000"/>
     <use xlink:href="#mdb631b73ab" x="256.415568" y="182.053343" style="fill: #ff0000; stroke: #ff0000"/>
     <use xlink:href="#mdb631b73ab" x="304.861492" y="146.655156" style="fill: #ff0000; stroke: #ff0000"/>
     <use xlink:href="#mdb631b73ab" x="187.623568" y="211.571817" style="fill: #ff0000; stroke: #ff0000"/>
     <use xlink:href="#mdb631b73ab" x="233.784382" y="164.096721" style="fill: #ff0000; stroke: #ff0000"/>
     <use xlink:href="#mdb631b73ab" x="206.241361" y="211.376941" style="fill: #ff0000; stroke: #ff0000"/>
     <use xlink:href="#mdb631b73ab" x="280.419813" y="117.965011" style="fill: #ff0000; stroke: #ff0000"/>
     <use xlink:href="#mdb631b73ab" x="342.098096" y="107.009704" style="fill: #ff0000; stroke: #ff0000"/>
     <use xlink:href="#mdb631b73ab" x="247.741967" y="197.851122" style="fill: #ff0000; stroke: #ff0000"/>
     <use xlink:href="#mdb631b73ab" x="137.719738" y="194.629359" style="fill: #ff0000; stroke: #ff0000"/>
     <use xlink:href="#mdb631b73ab" x="298.468389" y="209.002579" style="fill: #ff0000; stroke: #ff0000"/>
     <use xlink:href="#mdb631b73ab" x="189.714252" y="248.493767" style="fill: #ff0000; stroke: #ff0000"/>
     <use xlink:href="#mdb631b73ab" x="302.032775" y="183.853654" style="fill: #ff0000; stroke: #ff0000"/>
     <use xlink:href="#mdb631b73ab" x="258.373112" y="133.586964" style="fill: #ff0000; stroke: #ff0000"/>
     <use xlink:href="#mdb631b73ab" x="343.172694" y="157.503342" style="fill: #ff0000; stroke: #ff0000"/>
     <use xlink:href="#mdb631b73ab" x="204.518577" y="214.763295" style="fill: #ff0000; stroke: #ff0000"/>
     <use xlink:href="#mdb631b73ab" x="150.459787" y="251.095447" style="fill: #ff0000; stroke: #ff0000"/>
     <use xlink:href="#mdb631b73ab" x="262.23859" y="150.617393" style="fill: #ff0000; stroke: #ff0000"/>
     <use xlink:href="#mdb631b73ab" x="261.235562" y="163.757163" style="fill: #ff0000; stroke: #ff0000"/>
     <use xlink:href="#mdb631b73ab" x="246.95751" y="215.355149" style="fill: #ff0000; stroke: #ff0000"/>
     <use xlink:href="#mdb631b73ab" x="241.297486" y="115.165846" style="fill: #ff0000; stroke: #ff0000"/>
     <use xlink:href="#mdb631b73ab" x="227.055575" y="141.083105" style="fill: #ff0000; stroke: #ff0000"/>
     <use xlink:href="#mdb631b73ab" x="246.775569" y="152.271974" style="fill: #ff0000; stroke: #ff0000"/>
     <use xlink:href="#mdb631b73ab" x="190.030671" y="159.635451" style="fill: #ff0000; stroke: #ff0000"/>
     <use xlink:href="#mdb631b73ab" x="240.520269" y="163.300005" style="fill: #ff0000; stroke: #ff0000"/>
     <use xlink:href="#mdb631b73ab" x="247.544967" y="128.873741" style="fill: #ff0000; stroke: #ff0000"/>
     <use xlink:href="#mdb631b73ab" x="217.974979" y="187.420165" style="fill: #ff0000; stroke: #ff0000"/>
     <use xlink:href="#mdb631b73ab" x="319.272727" y="200.524475" style="fill: #ff0000; stroke: #ff0000"/>
     <use xlink:href="#mdb631b73ab" x="236.063058" y="211.212596" style="fill: #ff0000; stroke: #ff0000"/>
     <use xlink:href="#mdb631b73ab" x="168.300333" y="202.212714" style="fill: #ff0000; stroke: #ff0000"/>
     <use xlink:href="#mdb631b73ab" x="257.889883" y="218.558848" style="fill: #ff0000; stroke: #ff0000"/>
     <use xlink:href="#mdb631b73ab" x="228.183439" y="184.129607" style="fill: #ff0000; stroke: #ff0000"/>
     <use xlink:href="#mdb631b73ab" x="279.581371" y="168.407797" style="fill: #ff0000; stroke: #ff0000"/>
     <use xlink:href="#mdb631b73ab" x="333.913209" y="211.544452" style="fill: #ff0000; stroke: #ff0000"/>
     <use xlink:href="#mdb631b73ab" x="192.691947" y="136.900532" style="fill: #ff0000; stroke: #ff0000"/>
     <use xlink:href="#mdb631b73ab" x="178.648955" y="158.817419" style="fill: #ff0000; stroke: #ff0000"/>
     <use xlink:href="#mdb631b73ab" x="339.581233" y="167.616584" style="fill: #ff0000; stroke: #ff0000"/>
     <use xlink:href="#mdb631b73ab" x="249.472067" y="175.985545" style="fill: #ff0000; stroke: #ff0000"/>
     <use xlink:href="#mdb631b73ab" x="189.764259" y="140.612151" style="fill: #ff0000; stroke: #ff0000"/>
     <use xlink:href="#mdb631b73ab" x="234.233798" y="196.68228" style="fill: #ff0000; stroke: #ff0000"/>
     <use xlink:href="#mdb631b73ab" x="267.603079" y="152.048972" style="fill: #ff0000; stroke: #ff0000"/>
     <use xlink:href="#mdb631b73ab" x="258.959152" y="120.286382" style="fill: #ff0000; stroke: #ff0000"/>
     <use xlink:href="#mdb631b73ab" x="234.921332" y="114.002968" style="fill: #ff0000; stroke: #ff0000"/>
     <use xlink:href="#mdb631b73ab" x="196.246444" y="142.671069" style="fill: #ff0000; stroke: #ff0000"/>
     <use xlink:href="#mdb631b73ab" x="233.351401" y="232.662698" style="fill: #ff0000; stroke: #ff0000"/>
     <use xlink:href="#mdb631b73ab" x="205.06904" y="154.26269" style="fill: #ff0000; stroke: #ff0000"/>
     <use xlink:href="#mdb631b73ab" x="317.41308" y="185.385806" style="fill: #ff0000; stroke: #ff0000"/>
     <use xlink:href="#mdb631b73ab" x="270.329306" y="171.531351" style="fill: #ff0000; stroke: #ff0000"/>
     <use xlink:href="#mdb631b73ab" x="311.974717" y="215.675112" style="fill: #ff0000; stroke: #ff0000"/>
     <use xlink:href="#mdb631b73ab" x="278.040343" y="171.035889" style="fill: #ff0000; stroke: #ff0000"/>
     <use xlink:href="#mdb631b73ab" x="282.552965" y="180.585469" style="fill: #ff0000; stroke: #ff0000"/>
     <use xlink:href="#mdb631b73ab" x="223.01996" y="182.210172" style="fill: #ff0000; stroke: #ff0000"/>
     <use xlink:href="#mdb631b73ab" x="216.672297" y="246.180671" style="fill: #ff0000; stroke: #ff0000"/>
     <use xlink:href="#mdb631b73ab" x="324.539665" y="128.827757" style="fill: #ff0000; stroke: #ff0000"/>
     <use xlink:href="#mdb631b73ab" x="177.716392" y="121.675276" style="fill: #ff0000; stroke: #ff0000"/>
     <use xlink:href="#mdb631b73ab" x="263.622717" y="171.434395" style="fill: #ff0000; stroke: #ff0000"/>
     <use xlink:href="#mdb631b73ab" x="219.826227" y="190.902609" style="fill: #ff0000; stroke: #ff0000"/>
     <use xlink:href="#mdb631b73ab" x="209.785379" y="177.418562" style="fill: #ff0000; stroke: #ff0000"/>
    </g>
   </g>
   <g id="line2d_32">
    <path d="M 307.414699 60.722161 
L 325.135384 66.776227 
L 341.452873 74.529604 
L 356.109832 83.860014 
L 368.875109 94.620313 
L 379.54739 106.640804 
L 387.958367 119.731916 
L 393.975392 133.687196 
L 397.503575 148.286559 
L 398.487273 163.299766 
L 396.910973 178.490048 
L 392.799534 193.617847 
L 386.217796 208.444587 
L 377.269556 222.736443 
L 366.095935 236.268022 
L 352.873147 248.825925 
L 337.809722 260.212105 
L 321.143221 270.246995 
L 303.136484 278.772339 
L 284.073487 285.653689 
L 264.254866 290.782519 
L 243.993172 294.077947 
L 223.607945 295.488 
L 203.42067 294.990442 
L 183.749715 292.593119 
L 164.905301 288.333839 
L 147.184616 282.279773 
L 130.867127 274.526396 
L 116.210168 265.195986 
L 103.444891 254.435687 
L 92.77261 242.415196 
L 84.361633 229.324084 
L 78.344608 215.368804 
L 74.816425 200.769441 
L 73.832727 185.756234 
L 75.409027 170.565952 
L 79.520466 155.438153 
L 86.102204 140.611413 
L 95.050444 126.319557 
L 106.224065 112.787978 
L 119.446853 100.230075 
L 134.510278 88.843895 
L 151.176779 78.809005 
L 169.183516 70.283661 
L 188.246513 63.402311 
L 208.065134 58.273481 
L 228.326828 54.978053 
L 248.712055 53.568 
L 268.89933 54.065558 
L 288.570285 56.462881 
L 307.414699 60.722161 
" clip-path="url(#pd0e9d60bb3)" style="fill: none; stroke: #ff0000; stroke-width: 1.5; stroke-linecap: square"/>
   </g>
   <g id="patch_6">
    <path d="M 57.6 307.584 
L 57.6 41.472 
" style="fill: none; stroke: #000000; stroke-width: 0.8; stroke-linejoin: miter; stroke-linecap: square"/>
   </g>
   <g id="patch_7">
    <path d="M 414.72 307.584 
L 414.72 41.472 
" style="fill: none; stroke: #000000; stroke-width: 0.8; stroke-linejoin: miter; stroke-linecap: square"/>
   </g>
   <g id="patch_8">
    <path d="M 57.6 307.584 
L 414.72 307.584 
" style="fill: none; stroke: #000000; stroke-width: 0.8; stroke-linejoin: miter; stroke-linecap: square"/>
   </g>
   <g id="patch_9">
    <path d="M 57.6 41.472 
L 414.72 41.472 
" style="fill: none; stroke: #000000; stroke-width: 0.8; stroke-linejoin: miter; stroke-linecap: square"/>
   </g>
   <g id="legend_1">
    <g id="patch_10">
     <path d="M 64.6 105.220713 
L 173.357417 105.220713 
Q 175.357417 105.220713 175.357417 103.220713 
L 175.357417 48.472 
Q 175.357417 46.472 173.357417 46.472 
L 64.6 46.472 
Q 62.6 46.472 62.6 48.472 
L 62.6 103.220713 
Q 62.6 105.220713 64.6 105.220713 
z
" style="fill: #ffffff; opacity: 0.8; stroke: #cccccc; stroke-linejoin: miter"/>
    </g>
    <g id="line2d_33">
     <path d="M 66.6 53.972 
L 76.6 53.972 
L 86.6 53.972 
" style="fill: none; stroke: #0000ff; stroke-width: 1.5; stroke-linecap: square"/>
    </g>
    <g id="text_17">
     <!-- Censi's cov $3\sigma$. -->
     <g transform="translate(94.6 57.472) scale(0.1 -0.1)">
      <defs>
       <path id="CMSS17-43" d="M 3501 714 
C 3072 427 2874 344 2355 344 
C 1459 344 934 1303 934 2179 
C 934 3112 1472 4032 2381 4032 
C 2790 4032 3059 3918 3386 3715 
L 3475 4217 
C 3168 4370 2778 4440 2387 4440 
C 1158 4440 397 3316 397 2179 
C 397 927 1299 -64 2323 -64 
C 2874 -64 3066 -19 3539 280 
L 3501 714 
z
" transform="scale(0.015625)"/>
       <path id="CMSS17-65" d="M 2502 1377 
C 2502 1590 2490 2003 2285 2345 
C 2061 2713 1696 2816 1421 2816 
C 755 2816 192 2188 192 1375 
C 192 582 774 -64 1510 -64 
C 1798 -64 2150 19 2470 248 
C 2470 274 2458 414 2451 420 
C 2451 433 2432 630 2432 656 
C 2125 407 1773 325 1517 325 
C 1107 325 666 667 646 1377 
L 2502 1377 
z
M 698 1728 
C 781 2084 1062 2421 1421 2421 
C 1517 2421 1965 2421 2080 1728 
L 698 1728 
z
" transform="scale(0.015625)"/>
       <path id="CMSS17-6e" d="M 2618 1877 
C 2618 2283 2522 2816 1798 2816 
C 1389 2816 1120 2606 941 2389 
L 941 2758 
L 474 2758 
L 474 0 
L 960 0 
L 960 1559 
C 960 1964 1114 2428 1549 2428 
C 2112 2428 2131 2048 2131 1829 
L 2131 0 
L 2618 0 
L 2618 1877 
z
" transform="scale(0.015625)"/>
       <path id="CMSS17-73" d="M 2061 2627 
C 1683 2807 1389 2807 1197 2807 
C 742 2807 198 2648 198 2003 
C 198 1359 902 1218 1094 1179 
C 1389 1122 1715 1058 1715 740 
C 1715 337 1254 337 1171 337 
C 915 337 563 407 243 638 
L 166 210 
C 531 0 883 -64 1178 -64 
C 1965 -64 2163 416 2163 781 
C 2163 1094 1984 1305 1862 1401 
C 1651 1568 1574 1587 1050 1696 
C 960 1709 646 1779 646 2066 
C 646 2432 1050 2432 1139 2432 
C 1555 2432 1811 2303 1984 2208 
L 2061 2627 
z
" transform="scale(0.015625)"/>
       <path id="CMSS17-69" d="M 979 4183 
L 442 4183 
L 442 3648 
L 979 3648 
L 979 4183 
z
M 947 2739 
L 474 2739 
L 474 0 
L 947 0 
L 947 2739 
z
" transform="scale(0.015625)"/>
       <path id="CMSS17-27" d="M 1088 3910 
L 1088 4413 
L 576 4413 
L 576 3904 
L 736 3904 
L 570 3104 
L 826 3104 
L 1088 3910 
z
" transform="scale(0.015625)"/>
       <path id="CMSS17-63" d="M 2464 2541 
C 2464 2585 2170 2714 2093 2739 
C 1882 2816 1613 2816 1542 2816 
C 710 2816 211 2093 211 1363 
C 211 595 768 -64 1517 -64 
C 1946 -64 2253 76 2502 242 
L 2464 664 
C 2189 453 1869 337 1523 337 
C 1024 337 698 774 698 1369 
C 698 1831 909 2414 1549 2414 
C 1901 2414 2099 2343 2394 2145 
L 2464 2541 
z
" transform="scale(0.015625)"/>
       <path id="CMSS17-6f" d="M 2829 1356 
C 2829 2176 2221 2816 1504 2816 
C 768 2816 173 2157 173 1356 
C 173 544 787 -64 1498 -64 
C 2227 -64 2829 563 2829 1356 
z
M 1504 337 
C 1050 337 659 709 659 1408 
C 659 2151 1114 2427 1498 2427 
C 1914 2427 2342 2126 2342 1408 
C 2342 683 1926 337 1504 337 
z
" transform="scale(0.015625)"/>
       <path id="CMSS17-76" d="M 2675 2752 
L 2176 2752 
L 1747 1556 
C 1613 1165 1421 627 1389 352 
L 1382 352 
C 1370 468 1318 634 1286 749 
C 1248 890 1197 1056 1158 1172 
L 595 2752 
L 83 2752 
L 1094 0 
L 1664 0 
L 2675 2752 
z
" transform="scale(0.015625)"/>
       <path id="CMR17-33" d="M 1414 2157 
C 1984 2157 2234 1662 2234 1090 
C 2234 320 1824 25 1453 25 
C 1114 25 563 194 390 693 
C 422 680 454 680 486 680 
C 640 680 755 782 755 948 
C 755 1133 614 1216 486 1216 
C 378 1216 211 1165 211 926 
C 211 335 787 -128 1466 -128 
C 2176 -128 2720 430 2720 1085 
C 2720 1707 2208 2157 1600 2227 
C 2086 2328 2554 2756 2554 3329 
C 2554 3820 2048 4179 1472 4179 
C 890 4179 378 3829 378 3329 
C 378 3110 544 3072 627 3072 
C 762 3072 877 3155 877 3321 
C 877 3486 762 3569 627 3569 
C 602 3569 570 3569 544 3557 
C 730 3959 1235 4032 1459 4032 
C 1683 4032 2106 3925 2106 3320 
C 2106 3143 2080 2828 1862 2550 
C 1670 2304 1453 2304 1242 2284 
C 1210 2284 1062 2269 1037 2269 
C 992 2263 966 2257 966 2208 
C 966 2163 973 2157 1101 2157 
L 1414 2157 
z
" transform="scale(0.015625)"/>
       <path id="CMMI12-1b" d="M 3251 2408 
C 3334 2408 3546 2408 3546 2612 
C 3546 2752 3424 2752 3309 2752 
L 1894 2752 
C 934 2752 243 1686 243 932 
C 243 390 595 -64 1171 -64 
C 1926 -64 2752 747 2752 1705 
C 2752 1954 2694 2196 2541 2408 
L 3251 2408 
z
M 1178 64 
C 851 64 614 313 614 754 
C 614 1137 845 2408 1786 2408 
C 2061 2408 2368 2274 2368 1781 
C 2368 1558 2266 1021 2042 652 
C 1811 275 1466 64 1178 64 
z
" transform="scale(0.015625)"/>
       <path id="CMSS17-2e" d="M 1088 510 
L 576 510 
L 576 0 
L 1088 0 
L 1088 510 
z
" transform="scale(0.015625)"/>
      </defs>
      <use xlink:href="#CMSS17-43" transform="scale(0.996264)"/>
      <use xlink:href="#CMSS17-65" transform="translate(59.855772 0) scale(0.996264)"/>
      <use xlink:href="#CMSS17-6e" transform="translate(101.494594 0) scale(0.996264)"/>
      <use xlink:href="#CMSS17-73" transform="translate(149.699537 0) scale(0.996264)"/>
      <use xlink:href="#CMSS17-69" transform="translate(185.613079 0) scale(0.996264)"/>
      <use xlink:href="#CMSS17-27" transform="translate(207.793802 0) scale(0.996264)"/>
      <use xlink:href="#CMSS17-73" transform="translate(233.818007 0) scale(0.996264)"/>
      <use xlink:href="#CMSS17-63" transform="translate(300.960661 0) scale(0.996264)"/>
      <use xlink:href="#CMSS17-6f" transform="translate(342.599484 0) scale(0.996264)"/>
      <use xlink:href="#CMSS17-76" transform="translate(389.443107 0) scale(0.996264)"/>
      <use xlink:href="#CMR17-33" transform="translate(463.672361 0) scale(0.996264)"/>
      <use xlink:href="#CMMI12-1b" transform="translate(509.362839 0) scale(0.996264)"/>
      <use xlink:href="#CMSS17-2e" transform="translate(568.382892 0) scale(0.996264)"/>
     </g>
    </g>
    <g id="line2d_34">
     <path d="M 66.6 67.909178 
L 76.6 67.909178 
L 86.6 67.909178 
" style="fill: none; stroke: #008000; stroke-width: 1.5; stroke-linecap: square"/>
    </g>
    <g id="text_18">
     <!-- Brossard's cov $3\sigma$. -->
     <g transform="translate(94.6 71.409178) scale(0.1 -0.1)">
      <defs>
       <path id="CMSS17-42" d="M 570 4416 
L 570 0 
L 2163 0 
C 3034 0 3667 574 3667 1200 
C 3667 1685 3251 2176 2502 2317 
C 3334 2558 3501 3040 3501 3313 
C 3501 3883 2874 4416 1997 4416 
L 570 4416 
z
M 1088 2496 
L 1088 4059 
L 1824 4059 
C 2483 4059 3002 3724 3002 3306 
C 3002 2926 2592 2496 1766 2496 
L 1088 2496 
z
M 1088 357 
L 1088 2107 
L 1939 2107 
C 2630 2107 3162 1679 3162 1206 
C 3162 772 2694 357 1984 357 
L 1088 357 
z
" transform="scale(0.015625)"/>
       <path id="CMSS17-72" d="M 954 1363 
C 954 1965 1395 2368 1958 2368 
L 1958 2789 
C 1549 2789 1165 2585 934 2253 
L 934 2758 
L 480 2758 
L 480 0 
L 954 0 
L 954 1363 
z
" transform="scale(0.015625)"/>
       <path id="CMSS17-61" d="M 2406 1791 
C 2406 2392 1978 2808 1402 2808 
C 1120 2808 813 2757 461 2553 
L 499 2135 
C 659 2248 934 2432 1395 2432 
C 1722 2432 1920 2180 1920 1782 
L 1920 1536 
C 896 1536 256 1238 256 726 
C 256 461 416 -64 947 -64 
C 1043 -64 1562 -64 1933 217 
L 1933 -19 
L 2406 -19 
L 2406 1791 
z
M 1920 816 
C 1920 701 1920 548 1728 434 
C 1562 325 1350 325 1261 325 
C 941 325 723 511 723 744 
C 723 1211 1722 1211 1920 1211 
L 1920 816 
z
" transform="scale(0.015625)"/>
       <path id="CMSS17-64" d="M 2611 4416 
L 2138 4416 
L 2138 2438 
C 1939 2603 1613 2756 1254 2756 
C 672 2756 211 2131 211 1347 
C 211 562 666 -64 1235 -64 
C 1677 -64 1971 172 2125 306 
L 2125 -13 
L 2611 -13 
L 2611 4416 
z
M 2125 836 
C 2125 747 2125 653 1926 482 
C 1798 375 1645 325 1498 325 
C 1152 325 698 576 698 1340 
C 698 2134 1210 2368 1562 2368 
C 1798 2368 1990 2254 2125 2065 
L 2125 836 
z
" transform="scale(0.015625)"/>
      </defs>
      <use xlink:href="#CMSS17-42" transform="scale(0.996264)"/>
      <use xlink:href="#CMSS17-72" transform="translate(62.33804 0) scale(0.996264)"/>
      <use xlink:href="#CMSS17-6f" transform="translate(94.247813 0) scale(0.996264)"/>
      <use xlink:href="#CMSS17-73" transform="translate(141.091436 0) scale(0.996264)"/>
      <use xlink:href="#CMSS17-73" transform="translate(177.004978 0) scale(0.996264)"/>
      <use xlink:href="#CMSS17-61" transform="translate(212.91852 0) scale(0.996264)"/>
      <use xlink:href="#CMSS17-72" transform="translate(255.237987 0) scale(0.996264)"/>
      <use xlink:href="#CMSS17-64" transform="translate(287.14776 0) scale(0.996264)"/>
      <use xlink:href="#CMSS17-27" transform="translate(335.352703 0) scale(0.996264)"/>
      <use xlink:href="#CMSS17-73" transform="translate(361.376908 0) scale(0.996264)"/>
      <use xlink:href="#CMSS17-63" transform="translate(428.519562 0) scale(0.996264)"/>
      <use xlink:href="#CMSS17-6f" transform="translate(470.158384 0) scale(0.996264)"/>
      <use xlink:href="#CMSS17-76" transform="translate(517.002008 0) scale(0.996264)"/>
      <use xlink:href="#CMR17-33" transform="translate(591.231262 0) scale(0.996264)"/>
      <use xlink:href="#CMMI12-1b" transform="translate(636.921739 0) scale(0.996264)"/>
      <use xlink:href="#CMSS17-2e" transform="translate(695.941793 0) scale(0.996264)"/>
     </g>
    </g>
    <g id="line2d_35">
     <g>
      <use xlink:href="#mdb631b73ab" x="76.6" y="81.846357" style="fill: #ff0000; stroke: #ff0000"/>
     </g>
    </g>
    <g id="text_19">
     <!-- Samples. -->
     <g transform="translate(94.6 85.346357) scale(0.1 -0.1)">
      <defs>
       <path id="CMSS17-53" d="M 2797 4169 
C 2515 4334 2208 4480 1690 4480 
C 864 4480 333 3879 333 3266 
C 333 3025 403 2753 653 2475 
C 902 2196 1184 2121 1542 2033 
C 1690 1994 1939 1924 1984 1906 
C 2342 1767 2515 1444 2515 1140 
C 2515 742 2202 318 1645 318 
C 1453 318 890 318 358 819 
L 269 318 
C 794 -64 1363 -128 1651 -128 
C 2438 -128 3002 488 3002 1186 
C 3002 1440 2925 1763 2656 2061 
C 2394 2347 2163 2410 1638 2549 
C 1338 2626 1146 2677 986 2873 
C 877 3013 819 3146 819 3317 
C 819 3673 1126 4060 1690 4060 
C 1971 4060 2336 4002 2707 3660 
L 2797 4169 
z
" transform="scale(0.015625)"/>
       <path id="CMSS17-70" d="M 966 333 
C 1178 129 1466 -5 1773 -5 
C 2368 -5 2880 603 2880 1412 
C 2880 2159 2496 2816 1946 2816 
C 1626 2816 1242 2702 954 2472 
L 954 2765 
L 480 2765 
L 480 -1216 
L 966 -1216 
L 966 333 
z
M 966 2100 
C 1018 2176 1235 2415 1587 2415 
C 2035 2415 2394 1960 2394 1412 
C 2394 787 1958 384 1530 384 
C 1402 384 1267 415 1139 523 
C 966 674 966 768 966 857 
L 966 2100 
z
" transform="scale(0.015625)"/>
       <path id="CMSS17-6c" d="M 947 4416 
L 474 4416 
L 474 0 
L 947 0 
L 947 4416 
z
" transform="scale(0.015625)"/>
      </defs>
      <use xlink:href="#CMSS17-53" transform="scale(0.996264)"/>
      <use xlink:href="#CMSS17-61" transform="translate(52.048516 0) scale(0.996264)"/>
      <use xlink:href="#CMSS17-6d" transform="translate(96.970437 0) scale(0.996264)"/>
      <use xlink:href="#CMSS17-70" transform="translate(171.199691 0) scale(0.996264)"/>
      <use xlink:href="#CMSS17-6c" transform="translate(219.404634 0) scale(0.996264)"/>
      <use xlink:href="#CMSS17-65" transform="translate(241.585357 0) scale(0.996264)"/>
      <use xlink:href="#CMSS17-73" transform="translate(283.224179 0) scale(0.996264)"/>
      <use xlink:href="#CMSS17-2e" transform="translate(319.137721 0) scale(0.996264)"/>
     </g>
    </g>
    <g id="line2d_36">
     <path d="M 66.6 95.783535 
L 76.6 95.783535 
L 86.6 95.783535 
" style="fill: none; stroke: #ff0000; stroke-width: 1.5; stroke-linecap: square"/>
    </g>
    <g id="text_20">
     <!-- Sample cov $3\sigma$. -->
     <g transform="translate(94.6 99.283535) scale(0.1 -0.1)">
      <use xlink:href="#CMSS17-53" transform="scale(0.996264)"/>
      <use xlink:href="#CMSS17-61" transform="translate(52.048516 0) scale(0.996264)"/>
      <use xlink:href="#CMSS17-6d" transform="translate(96.970437 0) scale(0.996264)"/>
      <use xlink:href="#CMSS17-70" transform="translate(171.199691 0) scale(0.996264)"/>
      <use xlink:href="#CMSS17-6c" transform="translate(219.404634 0) scale(0.996264)"/>
      <use xlink:href="#CMSS17-65" transform="translate(241.585357 0) scale(0.996264)"/>
      <use xlink:href="#CMSS17-63" transform="translate(314.453292 0) scale(0.996264)"/>
      <use xlink:href="#CMSS17-6f" transform="translate(356.092114 0) scale(0.996264)"/>
      <use xlink:href="#CMSS17-76" transform="translate(402.935738 0) scale(0.996264)"/>
      <use xlink:href="#CMR17-33" transform="translate(477.164992 0) scale(0.996264)"/>
      <use xlink:href="#CMMI12-1b" transform="translate(522.855469 0) scale(0.996264)"/>
      <use xlink:href="#CMSS17-2e" transform="translate(581.875523 0) scale(0.996264)"/>
     </g>
    </g>
   </g>
  </g>
 </g>
 <defs>
  <clipPath id="pd0e9d60bb3">
   <rect x="57.6" y="41.472" width="357.12" height="266.112"/>
  </clipPath>
 </defs>
</svg>
