<?xml version="1.0" encoding="utf-8" standalone="no"?>
<!DOCTYPE svg PUBLIC "-//W3C//DTD SVG 1.1//EN"
  "http://www.w3.org/Graphics/SVG/1.1/DTD/svg11.dtd">
<svg xmlns:xlink="http://www.w3.org/1999/xlink" width="460.8pt" height="345.6pt" viewBox="0 0 460.8 345.6" xmlns="http://www.w3.org/2000/svg" version="1.1">
 <metadata>
  <rdf:RDF xmlns:dc="http://purl.org/dc/elements/1.1/" xmlns:cc="http://creativecommons.org/ns#" xmlns:rdf="http://www.w3.org/1999/02/22-rdf-syntax-ns#">
   <cc:Work>
    <dc:type rdf:resource="http://purl.org/dc/dcmitype/StillImage"/>
    <dc:date>2022-12-17T15:06:11.521885</dc:date>
    <dc:format>image/svg+xml</dc:format>
    <dc:creator>
     <cc:Agent>
      <dc:title>Matplotlib v3.6.0, https://matplotlib.org/</dc:title>
     </cc:Agent>
    </dc:creator>
   </cc:Work>
  </rdf:RDF>
 </metadata>
 <defs>
  <style type="text/css">*{stroke-linejoin: round; stroke-linecap: butt}</style>
 </defs>
 <g id="figure_1">
  <g id="patch_1">
   <path d="M 0 345.6 
L 460.8 345.6 
L 460.8 0 
L 0 0 
z
" style="fill: #ffffff"/>
  </g>
  <g id="axes_1">
   <g id="patch_2">
    <path d="M 57.6 307.584 
L 414.72 307.584 
L 414.72 41.472 
L 57.6 41.472 
z
" style="fill: #ffffff"/>
   </g>
   <g id="patch_3">
    <path d="M 210.240694 174.993143 
L 210.319525 173.553511 
L 210.601285 172.129247 
L 211.081531 170.742813 
L 211.752689 169.416073 
L 212.604173 168.169952 
L 213.622557 167.024101 
L 214.791779 165.99659 
L 216.0934 165.103626 
L 217.506893 164.359289 
L 219.009966 163.775319 
L 220.578914 163.360925 
L 222.188995 163.122642 
L 223.814816 163.064229 
L 225.430738 163.186606 
L 227.011276 163.487844 
L 228.531504 163.963192 
L 229.967447 164.605153 
L 231.29646 165.403603 
L 232.497584 166.345951 
L 233.551875 167.417334 
L 234.442707 168.600857 
L 235.156032 169.877854 
L 235.680599 171.228187 
L 236.008136 172.63056 
L 236.133477 174.062857 
L 236.054646 175.502489 
L 235.772885 176.926753 
L 235.29264 178.313187 
L 234.621482 179.639927 
L 233.769997 180.886048 
L 232.751613 182.031899 
L 231.582391 183.05941 
L 230.28077 183.952374 
L 228.867277 184.696711 
L 227.364205 185.280681 
L 225.795256 185.695075 
L 224.185175 185.933358 
L 222.559354 185.991771 
L 220.943432 185.869394 
L 219.362895 185.568156 
L 217.842667 185.092808 
L 216.406723 184.450847 
L 215.07771 183.652397 
L 213.876587 182.710049 
L 212.822295 181.638666 
L 211.931463 180.455143 
L 211.218139 179.178146 
L 210.693572 177.827813 
L 210.366035 176.42544 
L 210.240694 174.993143 
L 210.240694 174.993143 
z
" clip-path="url(#p1e27106c4c)" style="fill: none; opacity: 0"/>
   </g>
   <g id="patch_4">
    <path d="M 82.894814 173.088617 
L 84.034997 165.761656 
L 87.369692 158.572946 
L 92.846309 151.635856 
L 100.378477 145.05979 
L 109.847411 138.948455 
L 121.103779 133.39823 
L 133.970061 128.496646 
L 148.24335 124.321005 
L 163.698545 120.937157 
L 180.091911 118.39847 
L 197.164913 116.744978 
L 214.648301 116.002759 
L 232.26635 116.183519 
L 249.741214 117.284405 
L 266.797303 119.288058 
L 283.165633 122.162877 
L 298.588066 125.863525 
L 312.82138 130.331642 
L 325.641108 135.496761 
L 336.845074 141.277426 
L 346.256586 147.582473 
L 353.727219 154.312466 
L 359.139156 161.361271 
L 362.407047 168.617723 
L 363.479357 175.967383 
L 362.339173 183.294344 
L 359.004478 190.483054 
L 353.527862 197.420144 
L 345.995693 203.99621 
L 336.52676 210.107545 
L 325.270392 215.65777 
L 312.404109 220.559354 
L 298.130821 224.734995 
L 282.675625 228.118843 
L 266.282259 230.65753 
L 249.209257 232.311022 
L 231.72587 233.053241 
L 214.10782 232.872481 
L 196.632957 231.771595 
L 179.576867 229.767942 
L 163.208537 226.893123 
L 147.786105 223.192475 
L 133.552791 218.724358 
L 120.733063 213.559239 
L 109.529096 207.778574 
L 100.117584 201.473527 
L 92.646951 194.743534 
L 87.235015 187.694729 
L 83.967123 180.438277 
L 82.894814 173.088617 
L 82.894814 173.088617 
z
" clip-path="url(#p1e27106c4c)" style="fill: none; opacity: 0"/>
   </g>
   <g id="patch_5">
    <path d="M 74.654515 127.568686 
L 77.818749 113.953586 
L 83.275529 101.293781 
L 90.938798 89.788924 
L 100.687702 79.620452 
L 112.368494 70.948729 
L 125.796961 63.910513 
L 140.761329 58.616801 
L 157.0256 55.151078 
L 174.333277 53.568 
L 192.411408 53.892534 
L 210.97489 56.11956 
L 229.730965 60.213959 
L 248.38384 66.111159 
L 266.639347 73.718157 
L 284.209585 82.914986 
L 300.817462 93.556607 
L 316.201062 105.475196 
L 330.117776 118.482788 
L 342.348129 132.374247 
L 352.699241 146.930496 
L 361.00787 161.921974 
L 367.142982 177.112256 
L 371.007823 192.261783 
L 372.541443 207.131638 
L 371.719656 221.487314 
L 368.555421 235.102414 
L 363.098641 247.762219 
L 355.435372 259.267076 
L 345.686469 269.435548 
L 334.005677 278.107271 
L 320.57721 285.145487 
L 305.612842 290.439199 
L 289.348571 293.904922 
L 272.040894 295.488 
L 253.962762 295.163466 
L 235.399281 292.93644 
L 216.643205 288.842041 
L 197.990331 282.944841 
L 179.734824 275.337843 
L 162.164585 266.141014 
L 145.556708 255.499393 
L 130.173108 243.580804 
L 116.256394 230.573212 
L 104.026041 216.681753 
L 93.674929 202.125504 
L 85.366301 187.134026 
L 79.231189 171.943744 
L 75.366347 156.794217 
L 73.832727 141.924362 
L 74.654515 127.568686 
L 74.654515 127.568686 
z
" clip-path="url(#p1e27106c4c)" style="fill: none; opacity: 0"/>
   </g>
   <g id="matplotlib.axis_1">
    <g id="xtick_1">
     <g id="line2d_1">
      <path d="M 83.223669 307.584 
L 83.223669 41.472 
" clip-path="url(#p1e27106c4c)" style="fill: none; stroke: #b0b0b0; stroke-width: 0.8; stroke-linecap: square"/>
     </g>
     <g id="line2d_2">
      <defs>
       <path id="me4a8311887" d="M 0 0 
L 0 3.5 
" style="stroke: #000000; stroke-width: 0.8"/>
      </defs>
      <g>
       <use xlink:href="#me4a8311887" x="83.223669" y="307.584" style="stroke: #000000; stroke-width: 0.8"/>
      </g>
     </g>
     <g id="text_1">
      <!-- $\mathdefault{−0.04}$ -->
      <g transform="translate(70.49359 321.502498) scale(0.1 -0.1)">
       <defs>
        <path id="CMSY10-0" d="M 4218 1472 
C 4326 1472 4442 1472 4442 1600 
C 4442 1728 4326 1728 4218 1728 
L 755 1728 
C 646 1728 531 1728 531 1600 
C 531 1472 646 1472 755 1472 
L 4218 1472 
z
" transform="scale(0.015625)"/>
        <path id="CMR17-30" d="M 2688 2025 
C 2688 2416 2682 3080 2413 3591 
C 2176 4039 1798 4198 1466 4198 
C 1158 4198 768 4058 525 3597 
C 269 3118 243 2524 243 2025 
C 243 1661 250 1106 448 619 
C 723 -39 1216 -128 1466 -128 
C 1760 -128 2208 -7 2470 600 
C 2662 1042 2688 1559 2688 2025 
z
M 1466 -26 
C 1056 -26 813 325 723 812 
C 653 1188 653 1738 653 2096 
C 653 2588 653 2997 736 3387 
C 858 3929 1216 4096 1466 4096 
C 1728 4096 2067 3923 2189 3400 
C 2272 3036 2278 2607 2278 2096 
C 2278 1680 2278 1169 2202 792 
C 2067 95 1690 -26 1466 -26 
z
" transform="scale(0.015625)"/>
        <path id="CMMI12-3a" d="M 1178 307 
C 1178 492 1024 619 870 619 
C 685 619 557 466 557 313 
C 557 128 710 0 864 0 
C 1050 0 1178 153 1178 307 
z
" transform="scale(0.015625)"/>
        <path id="CMR17-34" d="M 2150 4122 
C 2150 4256 2144 4256 2029 4256 
L 128 1254 
L 128 1088 
L 1779 1088 
L 1779 457 
C 1779 224 1766 160 1318 160 
L 1197 160 
L 1197 0 
C 1402 0 1747 0 1965 0 
C 2182 0 2528 0 2733 0 
L 2733 160 
L 2611 160 
C 2163 160 2150 224 2150 457 
L 2150 1088 
L 2803 1088 
L 2803 1254 
L 2150 1254 
L 2150 4122 
z
M 1798 3703 
L 1798 1254 
L 256 1254 
L 1798 3703 
z
" transform="scale(0.015625)"/>
       </defs>
       <use xlink:href="#CMSY10-0" transform="scale(0.996264)"/>
       <use xlink:href="#CMR17-30" transform="translate(77.487468 0) scale(0.996264)"/>
       <use xlink:href="#CMMI12-3a" transform="translate(123.177945 0) scale(0.996264)"/>
       <use xlink:href="#CMR17-30" transform="translate(150.275122 0) scale(0.996264)"/>
       <use xlink:href="#CMR17-34" transform="translate(195.965599 0) scale(0.996264)"/>
      </g>
     </g>
    </g>
    <g id="xtick_2">
     <g id="line2d_3">
      <path d="M 159.089952 307.584 
L 159.089952 41.472 
" clip-path="url(#p1e27106c4c)" style="fill: none; stroke: #b0b0b0; stroke-width: 0.8; stroke-linecap: square"/>
     </g>
     <g id="line2d_4">
      <g>
       <use xlink:href="#me4a8311887" x="159.089952" y="307.584" style="stroke: #000000; stroke-width: 0.8"/>
      </g>
     </g>
     <g id="text_2">
      <!-- $\mathdefault{−0.02}$ -->
      <g transform="translate(146.359873 321.502498) scale(0.1 -0.1)">
       <defs>
        <path id="CMR17-32" d="M 2669 989 
L 2554 989 
C 2490 536 2438 459 2413 420 
C 2381 369 1920 369 1830 369 
L 602 369 
C 832 619 1280 1072 1824 1597 
C 2214 1967 2669 2402 2669 3035 
C 2669 3790 2067 4224 1395 4224 
C 691 4224 262 3604 262 3030 
C 262 2780 448 2748 525 2748 
C 589 2748 781 2787 781 3010 
C 781 3207 614 3264 525 3264 
C 486 3264 448 3258 422 3245 
C 544 3790 915 4058 1306 4058 
C 1862 4058 2227 3617 2227 3035 
C 2227 2479 1901 2000 1536 1584 
L 262 146 
L 262 0 
L 2515 0 
L 2669 989 
z
" transform="scale(0.015625)"/>
       </defs>
       <use xlink:href="#CMSY10-0" transform="scale(0.996264)"/>
       <use xlink:href="#CMR17-30" transform="translate(77.487468 0) scale(0.996264)"/>
       <use xlink:href="#CMMI12-3a" transform="translate(123.177945 0) scale(0.996264)"/>
       <use xlink:href="#CMR17-30" transform="translate(150.275122 0) scale(0.996264)"/>
       <use xlink:href="#CMR17-32" transform="translate(195.965599 0) scale(0.996264)"/>
      </g>
     </g>
    </g>
    <g id="xtick_3">
     <g id="line2d_5">
      <path d="M 234.956234 307.584 
L 234.956234 41.472 
" clip-path="url(#p1e27106c4c)" style="fill: none; stroke: #b0b0b0; stroke-width: 0.8; stroke-linecap: square"/>
     </g>
     <g id="line2d_6">
      <g>
       <use xlink:href="#me4a8311887" x="234.956234" y="307.584" style="stroke: #000000; stroke-width: 0.8"/>
      </g>
     </g>
     <g id="text_3">
      <!-- $\mathdefault{0.00}$ -->
      <g transform="translate(226.100527 321.502498) scale(0.1 -0.1)">
       <use xlink:href="#CMR17-30" transform="scale(0.996264)"/>
       <use xlink:href="#CMMI12-3a" transform="translate(45.690477 0) scale(0.996264)"/>
       <use xlink:href="#CMR17-30" transform="translate(72.787654 0) scale(0.996264)"/>
       <use xlink:href="#CMR17-30" transform="translate(118.478131 0) scale(0.996264)"/>
      </g>
     </g>
    </g>
    <g id="xtick_4">
     <g id="line2d_7">
      <path d="M 310.822517 307.584 
L 310.822517 41.472 
" clip-path="url(#p1e27106c4c)" style="fill: none; stroke: #b0b0b0; stroke-width: 0.8; stroke-linecap: square"/>
     </g>
     <g id="line2d_8">
      <g>
       <use xlink:href="#me4a8311887" x="310.822517" y="307.584" style="stroke: #000000; stroke-width: 0.8"/>
      </g>
     </g>
     <g id="text_4">
      <!-- $\mathdefault{0.02}$ -->
      <g transform="translate(301.96681 321.502498) scale(0.1 -0.1)">
       <use xlink:href="#CMR17-30" transform="scale(0.996264)"/>
       <use xlink:href="#CMMI12-3a" transform="translate(45.690477 0) scale(0.996264)"/>
       <use xlink:href="#CMR17-30" transform="translate(72.787654 0) scale(0.996264)"/>
       <use xlink:href="#CMR17-32" transform="translate(118.478131 0) scale(0.996264)"/>
      </g>
     </g>
    </g>
    <g id="xtick_5">
     <g id="line2d_9">
      <path d="M 386.688799 307.584 
L 386.688799 41.472 
" clip-path="url(#p1e27106c4c)" style="fill: none; stroke: #b0b0b0; stroke-width: 0.8; stroke-linecap: square"/>
     </g>
     <g id="line2d_10">
      <g>
       <use xlink:href="#me4a8311887" x="386.688799" y="307.584" style="stroke: #000000; stroke-width: 0.8"/>
      </g>
     </g>
     <g id="text_5">
      <!-- $\mathdefault{0.04}$ -->
      <g transform="translate(377.833092 321.502498) scale(0.1 -0.1)">
       <use xlink:href="#CMR17-30" transform="scale(0.996264)"/>
       <use xlink:href="#CMMI12-3a" transform="translate(45.690477 0) scale(0.996264)"/>
       <use xlink:href="#CMR17-30" transform="translate(72.787654 0) scale(0.996264)"/>
       <use xlink:href="#CMR17-34" transform="translate(118.478131 0) scale(0.996264)"/>
      </g>
     </g>
    </g>
    <g id="text_6">
     <!-- x [m] -->
     <g transform="translate(225.36713 334.911657) scale(0.1 -0.1)">
      <defs>
       <path id="CMSS17-78" d="M 1587 1414 
L 2656 2739 
L 2099 2739 
L 1363 1777 
L 602 2739 
L 32 2739 
L 1139 1414 
L 0 0 
L 563 0 
L 1363 1121 
L 2195 0 
L 2758 0 
L 1587 1414 
z
" transform="scale(0.015625)"/>
       <path id="CMSS17-5b" d="M 1613 -1600 
L 1613 -1212 
L 1062 -1212 
L 1062 4352 
L 1613 4352 
L 1613 4741 
L 595 4741 
L 595 -1600 
L 1613 -1600 
z
" transform="scale(0.015625)"/>
       <path id="CMSS17-6d" d="M 4288 1877 
C 4288 2308 4179 2816 3462 2816 
C 2982 2816 2694 2516 2566 2331 
C 2451 2670 2182 2816 1798 2816 
C 1363 2816 1088 2568 941 2389 
L 941 2758 
L 474 2758 
L 474 0 
L 960 0 
L 960 1559 
C 960 1939 1101 2428 1555 2428 
C 2138 2428 2138 2016 2138 1829 
L 2138 0 
L 2624 0 
L 2624 1559 
C 2624 1939 2765 2428 3219 2428 
C 3802 2428 3802 2016 3802 1829 
L 3802 0 
L 4288 0 
L 4288 1877 
z
" transform="scale(0.015625)"/>
       <path id="CMSS17-5d" d="M 1146 4741 
L 128 4741 
L 128 4352 
L 678 4352 
L 678 -1212 
L 128 -1212 
L 128 -1600 
L 1146 -1600 
L 1146 4741 
z
" transform="scale(0.015625)"/>
      </defs>
      <use xlink:href="#CMSS17-78" transform="scale(0.996264)"/>
      <use xlink:href="#CMSS17-5b" transform="translate(74.229254 0) scale(0.996264)"/>
      <use xlink:href="#CMSS17-6d" transform="translate(101.414693 0) scale(0.996264)"/>
      <use xlink:href="#CMSS17-5d" transform="translate(175.643948 0) scale(0.996264)"/>
     </g>
    </g>
   </g>
   <g id="matplotlib.axis_2">
    <g id="ytick_1">
     <g id="line2d_11">
      <path d="M 57.6 289.37293 
L 414.72 289.37293 
" clip-path="url(#p1e27106c4c)" style="fill: none; stroke: #b0b0b0; stroke-width: 0.8; stroke-linecap: square"/>
     </g>
     <g id="line2d_12">
      <defs>
       <path id="ma0f49d0726" d="M 0 0 
L -3.5 0 
" style="stroke: #000000; stroke-width: 0.8"/>
      </defs>
      <g>
       <use xlink:href="#ma0f49d0726" x="57.6" y="289.37293" style="stroke: #000000; stroke-width: 0.8"/>
      </g>
     </g>
     <g id="text_7">
      <!-- $\mathdefault{−0.02}$ -->
      <g transform="translate(25.139842 292.83218) scale(0.1 -0.1)">
       <use xlink:href="#CMSY10-0" transform="scale(0.996264)"/>
       <use xlink:href="#CMR17-30" transform="translate(77.487468 0) scale(0.996264)"/>
       <use xlink:href="#CMMI12-3a" transform="translate(123.177945 0) scale(0.996264)"/>
       <use xlink:href="#CMR17-30" transform="translate(150.275122 0) scale(0.996264)"/>
       <use xlink:href="#CMR17-32" transform="translate(195.965599 0) scale(0.996264)"/>
      </g>
     </g>
    </g>
    <g id="ytick_2">
     <g id="line2d_13">
      <path d="M 57.6 232.872566 
L 414.72 232.872566 
" clip-path="url(#p1e27106c4c)" style="fill: none; stroke: #b0b0b0; stroke-width: 0.8; stroke-linecap: square"/>
     </g>
     <g id="line2d_14">
      <g>
       <use xlink:href="#ma0f49d0726" x="57.6" y="232.872566" style="stroke: #000000; stroke-width: 0.8"/>
      </g>
     </g>
     <g id="text_8">
      <!-- $\mathdefault{−0.01}$ -->
      <g transform="translate(25.139842 236.331815) scale(0.1 -0.1)">
       <defs>
        <path id="CMR17-31" d="M 1702 4058 
C 1702 4192 1696 4192 1606 4192 
C 1357 3916 979 3827 621 3827 
C 602 3827 570 3827 563 3808 
C 557 3795 557 3782 557 3648 
C 755 3648 1088 3686 1344 3839 
L 1344 461 
C 1344 236 1331 160 781 160 
L 589 160 
L 589 0 
C 896 0 1216 0 1523 0 
C 1830 0 2150 0 2458 0 
L 2458 160 
L 2266 160 
C 1715 160 1702 230 1702 458 
L 1702 4058 
z
" transform="scale(0.015625)"/>
       </defs>
       <use xlink:href="#CMSY10-0" transform="scale(0.996264)"/>
       <use xlink:href="#CMR17-30" transform="translate(77.487468 0) scale(0.996264)"/>
       <use xlink:href="#CMMI12-3a" transform="translate(123.177945 0) scale(0.996264)"/>
       <use xlink:href="#CMR17-30" transform="translate(150.275122 0) scale(0.996264)"/>
       <use xlink:href="#CMR17-31" transform="translate(195.965599 0) scale(0.996264)"/>
      </g>
     </g>
    </g>
    <g id="ytick_3">
     <g id="line2d_15">
      <path d="M 57.6 176.372202 
L 414.72 176.372202 
" clip-path="url(#p1e27106c4c)" style="fill: none; stroke: #b0b0b0; stroke-width: 0.8; stroke-linecap: square"/>
     </g>
     <g id="line2d_16">
      <g>
       <use xlink:href="#ma0f49d0726" x="57.6" y="176.372202" style="stroke: #000000; stroke-width: 0.8"/>
      </g>
     </g>
     <g id="text_9">
      <!-- $\mathdefault{0.00}$ -->
      <g transform="translate(32.888586 179.831451) scale(0.1 -0.1)">
       <use xlink:href="#CMR17-30" transform="scale(0.996264)"/>
       <use xlink:href="#CMMI12-3a" transform="translate(45.690477 0) scale(0.996264)"/>
       <use xlink:href="#CMR17-30" transform="translate(72.787654 0) scale(0.996264)"/>
       <use xlink:href="#CMR17-30" transform="translate(118.478131 0) scale(0.996264)"/>
      </g>
     </g>
    </g>
    <g id="ytick_4">
     <g id="line2d_17">
      <path d="M 57.6 119.871838 
L 414.72 119.871838 
" clip-path="url(#p1e27106c4c)" style="fill: none; stroke: #b0b0b0; stroke-width: 0.8; stroke-linecap: square"/>
     </g>
     <g id="line2d_18">
      <g>
       <use xlink:href="#ma0f49d0726" x="57.6" y="119.871838" style="stroke: #000000; stroke-width: 0.8"/>
      </g>
     </g>
     <g id="text_10">
      <!-- $\mathdefault{0.01}$ -->
      <g transform="translate(32.888586 123.331087) scale(0.1 -0.1)">
       <use xlink:href="#CMR17-30" transform="scale(0.996264)"/>
       <use xlink:href="#CMMI12-3a" transform="translate(45.690477 0) scale(0.996264)"/>
       <use xlink:href="#CMR17-30" transform="translate(72.787654 0) scale(0.996264)"/>
       <use xlink:href="#CMR17-31" transform="translate(118.478131 0) scale(0.996264)"/>
      </g>
     </g>
    </g>
    <g id="ytick_5">
     <g id="line2d_19">
      <path d="M 57.6 63.371474 
L 414.72 63.371474 
" clip-path="url(#p1e27106c4c)" style="fill: none; stroke: #b0b0b0; stroke-width: 0.8; stroke-linecap: square"/>
     </g>
     <g id="line2d_20">
      <g>
       <use xlink:href="#ma0f49d0726" x="57.6" y="63.371474" style="stroke: #000000; stroke-width: 0.8"/>
      </g>
     </g>
     <g id="text_11">
      <!-- $\mathdefault{0.02}$ -->
      <g transform="translate(32.888586 66.830723) scale(0.1 -0.1)">
       <use xlink:href="#CMR17-30" transform="scale(0.996264)"/>
       <use xlink:href="#CMMI12-3a" transform="translate(45.690477 0) scale(0.996264)"/>
       <use xlink:href="#CMR17-30" transform="translate(72.787654 0) scale(0.996264)"/>
       <use xlink:href="#CMR17-32" transform="translate(118.478131 0) scale(0.996264)"/>
      </g>
     </g>
    </g>
    <g id="text_12">
     <!-- y [m] -->
     <g transform="translate(18.649182 185.32087) rotate(-90) scale(0.1 -0.1)">
      <defs>
       <path id="CMSS17-79" d="M 2675 2752 
L 2176 2752 
C 1632 1294 1446 702 1434 383 
L 1427 383 
C 1408 696 1126 1460 902 2007 
L 602 2752 
L 83 2752 
L 1216 13 
C 1146 -178 1043 -465 1011 -529 
C 870 -885 774 -885 672 -885 
C 646 -885 442 -885 211 -809 
L 250 -1229 
C 410 -1261 570 -1280 685 -1280 
C 845 -1280 1165 -1280 1459 -497 
L 2675 2752 
z
" transform="scale(0.015625)"/>
      </defs>
      <use xlink:href="#CMSS17-79" transform="scale(0.996264)"/>
      <use xlink:href="#CMSS17-5b" transform="translate(74.229254 0) scale(0.996264)"/>
      <use xlink:href="#CMSS17-6d" transform="translate(101.414693 0) scale(0.996264)"/>
      <use xlink:href="#CMSS17-5d" transform="translate(175.643948 0) scale(0.996264)"/>
     </g>
    </g>
   </g>
   <g id="line2d_21">
    <path d="M 210.240694 174.993143 
L 210.319525 173.553511 
L 210.601285 172.129247 
L 211.081531 170.742813 
L 211.752689 169.416073 
L 212.604173 168.169952 
L 213.622557 167.024101 
L 214.791779 165.99659 
L 216.0934 165.103626 
L 217.506893 164.359289 
L 219.009966 163.775319 
L 220.578914 163.360925 
L 222.188995 163.122642 
L 223.814816 163.064229 
L 225.430738 163.186606 
L 227.011276 163.487844 
L 228.531504 163.963192 
L 229.967447 164.605153 
L 231.29646 165.403603 
L 232.497584 166.345951 
L 233.551875 167.417334 
L 234.442707 168.600857 
L 235.156032 169.877854 
L 235.680599 171.228187 
L 236.008136 172.63056 
L 236.133477 174.062857 
L 236.054646 175.502489 
L 235.772885 176.926753 
L 235.29264 178.313187 
L 234.621482 179.639927 
L 233.769997 180.886048 
L 232.751613 182.031899 
L 231.582391 183.05941 
L 230.28077 183.952374 
L 228.867277 184.696711 
L 227.364205 185.280681 
L 225.795256 185.695075 
L 224.185175 185.933358 
L 222.559354 185.991771 
L 220.943432 185.869394 
L 219.362895 185.568156 
L 217.842667 185.092808 
L 216.406723 184.450847 
L 215.07771 183.652397 
L 213.876587 182.710049 
L 212.822295 181.638666 
L 211.931463 180.455143 
L 211.218139 179.178146 
L 210.693572 177.827813 
L 210.366035 176.42544 
L 210.240694 174.993143 
" clip-path="url(#p1e27106c4c)" style="fill: none; stroke: #0000ff; stroke-width: 1.5; stroke-linecap: square"/>
   </g>
   <g id="line2d_22">
    <path d="M 82.894814 173.088617 
L 84.034997 165.761656 
L 87.369692 158.572946 
L 92.846309 151.635856 
L 100.378477 145.05979 
L 109.847411 138.948455 
L 121.103779 133.39823 
L 133.970061 128.496646 
L 148.24335 124.321005 
L 163.698545 120.937157 
L 180.091911 118.39847 
L 197.164913 116.744978 
L 214.648301 116.002759 
L 232.26635 116.183519 
L 249.741214 117.284405 
L 266.797303 119.288058 
L 283.165633 122.162877 
L 298.588066 125.863525 
L 312.82138 130.331642 
L 325.641108 135.496761 
L 336.845074 141.277426 
L 346.256586 147.582473 
L 353.727219 154.312466 
L 359.139156 161.361271 
L 362.407047 168.617723 
L 363.479357 175.967383 
L 362.339173 183.294344 
L 359.004478 190.483054 
L 353.527862 197.420144 
L 345.995693 203.99621 
L 336.52676 210.107545 
L 325.270392 215.65777 
L 312.404109 220.559354 
L 298.130821 224.734995 
L 282.675625 228.118843 
L 266.282259 230.65753 
L 249.209257 232.311022 
L 231.72587 233.053241 
L 214.10782 232.872481 
L 196.632957 231.771595 
L 179.576867 229.767942 
L 163.208537 226.893123 
L 147.786105 223.192475 
L 133.552791 218.724358 
L 120.733063 213.559239 
L 109.529096 207.778574 
L 100.117584 201.473527 
L 92.646951 194.743534 
L 87.235015 187.694729 
L 83.967123 180.438277 
L 82.894814 173.088617 
" clip-path="url(#p1e27106c4c)" style="fill: none; stroke: #008000; stroke-width: 1.5; stroke-linecap: square"/>
   </g>
   <g id="line2d_23">
    <defs>
     <path id="m9589e9b83f" d="M 0 1.5 
C 0.397805 1.5 0.77937 1.341951 1.06066 1.06066 
C 1.341951 0.77937 1.5 0.397805 1.5 0 
C 1.5 -0.397805 1.341951 -0.77937 1.06066 -1.06066 
C 0.77937 -1.341951 0.397805 -1.5 0 -1.5 
C -0.397805 -1.5 -0.77937 -1.341951 -1.06066 -1.06066 
C -1.341951 -0.77937 -1.5 -0.397805 -1.5 0 
C -1.5 0.397805 -1.341951 0.77937 -1.06066 1.06066 
C -0.77937 1.341951 -0.397805 1.5 0 1.5 
z
" style="stroke: #ff0000"/>
    </defs>
    <g clip-path="url(#p1e27106c4c)">
     <use xlink:href="#m9589e9b83f" x="229.375509" y="189.922368" style="fill: #ff0000; stroke: #ff0000"/>
     <use xlink:href="#m9589e9b83f" x="237.118293" y="226.555443" style="fill: #ff0000; stroke: #ff0000"/>
     <use xlink:href="#m9589e9b83f" x="249.334538" y="132.808006" style="fill: #ff0000; stroke: #ff0000"/>
     <use xlink:href="#m9589e9b83f" x="210.191779" y="216.418725" style="fill: #ff0000; stroke: #ff0000"/>
     <use xlink:href="#m9589e9b83f" x="217.073281" y="203.861891" style="fill: #ff0000; stroke: #ff0000"/>
     <use xlink:href="#m9589e9b83f" x="319.701613" y="231.915006" style="fill: #ff0000; stroke: #ff0000"/>
     <use xlink:href="#m9589e9b83f" x="222.037288" y="152.793954" style="fill: #ff0000; stroke: #ff0000"/>
     <use xlink:href="#m9589e9b83f" x="128.367988" y="152.642794" style="fill: #ff0000; stroke: #ff0000"/>
     <use xlink:href="#m9589e9b83f" x="273.138613" y="129.491577" style="fill: #ff0000; stroke: #ff0000"/>
     <use xlink:href="#m9589e9b83f" x="188.344435" y="196.309324" style="fill: #ff0000; stroke: #ff0000"/>
     <use xlink:href="#m9589e9b83f" x="259.452574" y="75.912251" style="fill: #ff0000; stroke: #ff0000"/>
     <use xlink:href="#m9589e9b83f" x="254.99135" y="109.34947" style="fill: #ff0000; stroke: #ff0000"/>
     <use xlink:href="#m9589e9b83f" x="238.469105" y="210.455278" style="fill: #ff0000; stroke: #ff0000"/>
     <use xlink:href="#m9589e9b83f" x="201.766371" y="217.136186" style="fill: #ff0000; stroke: #ff0000"/>
     <use xlink:href="#m9589e9b83f" x="190.237497" y="147.081984" style="fill: #ff0000; stroke: #ff0000"/>
     <use xlink:href="#m9589e9b83f" x="398.487273" y="261.484298" style="fill: #ff0000; stroke: #ff0000"/>
     <use xlink:href="#m9589e9b83f" x="165.68796" y="135.969424" style="fill: #ff0000; stroke: #ff0000"/>
     <use xlink:href="#m9589e9b83f" x="280.077625" y="198.803305" style="fill: #ff0000; stroke: #ff0000"/>
     <use xlink:href="#m9589e9b83f" x="132.215318" y="126.493771" style="fill: #ff0000; stroke: #ff0000"/>
     <use xlink:href="#m9589e9b83f" x="226.547787" y="171.98267" style="fill: #ff0000; stroke: #ff0000"/>
     <use xlink:href="#m9589e9b83f" x="167.605984" y="194.356518" style="fill: #ff0000; stroke: #ff0000"/>
     <use xlink:href="#m9589e9b83f" x="258.590414" y="180.284462" style="fill: #ff0000; stroke: #ff0000"/>
     <use xlink:href="#m9589e9b83f" x="304.05741" y="140.301209" style="fill: #ff0000; stroke: #ff0000"/>
     <use xlink:href="#m9589e9b83f" x="196.634051" y="191.653311" style="fill: #ff0000; stroke: #ff0000"/>
     <use xlink:href="#m9589e9b83f" x="241.34989" y="264.838812" style="fill: #ff0000; stroke: #ff0000"/>
     <use xlink:href="#m9589e9b83f" x="253.670089" y="219.042149" style="fill: #ff0000; stroke: #ff0000"/>
     <use xlink:href="#m9589e9b83f" x="194.043849" y="105.767871" style="fill: #ff0000; stroke: #ff0000"/>
     <use xlink:href="#m9589e9b83f" x="136.272298" y="170.686986" style="fill: #ff0000; stroke: #ff0000"/>
     <use xlink:href="#m9589e9b83f" x="323.321741" y="213.765627" style="fill: #ff0000; stroke: #ff0000"/>
     <use xlink:href="#m9589e9b83f" x="183.83024" y="183.555886" style="fill: #ff0000; stroke: #ff0000"/>
     <use xlink:href="#m9589e9b83f" x="158.228738" y="202.861118" style="fill: #ff0000; stroke: #ff0000"/>
     <use xlink:href="#m9589e9b83f" x="182.330041" y="149.177466" style="fill: #ff0000; stroke: #ff0000"/>
     <use xlink:href="#m9589e9b83f" x="154.190643" y="152.462382" style="fill: #ff0000; stroke: #ff0000"/>
     <use xlink:href="#m9589e9b83f" x="278.171793" y="194.006228" style="fill: #ff0000; stroke: #ff0000"/>
     <use xlink:href="#m9589e9b83f" x="208.977584" y="175.732709" style="fill: #ff0000; stroke: #ff0000"/>
     <use xlink:href="#m9589e9b83f" x="286.704841" y="228.601843" style="fill: #ff0000; stroke: #ff0000"/>
     <use xlink:href="#m9589e9b83f" x="135.489003" y="154.442615" style="fill: #ff0000; stroke: #ff0000"/>
     <use xlink:href="#m9589e9b83f" x="235.589174" y="197.283577" style="fill: #ff0000; stroke: #ff0000"/>
     <use xlink:href="#m9589e9b83f" x="230.93285" y="173.36885" style="fill: #ff0000; stroke: #ff0000"/>
     <use xlink:href="#m9589e9b83f" x="182.885319" y="114.159354" style="fill: #ff0000; stroke: #ff0000"/>
     <use xlink:href="#m9589e9b83f" x="185.834644" y="147.624464" style="fill: #ff0000; stroke: #ff0000"/>
     <use xlink:href="#m9589e9b83f" x="198.519323" y="128.312045" style="fill: #ff0000; stroke: #ff0000"/>
     <use xlink:href="#m9589e9b83f" x="258.052988" y="171.098803" style="fill: #ff0000; stroke: #ff0000"/>
     <use xlink:href="#m9589e9b83f" x="149.858025" y="202.954104" style="fill: #ff0000; stroke: #ff0000"/>
     <use xlink:href="#m9589e9b83f" x="282.51907" y="159.31932" style="fill: #ff0000; stroke: #ff0000"/>
     <use xlink:href="#m9589e9b83f" x="266.74776" y="190.340668" style="fill: #ff0000; stroke: #ff0000"/>
     <use xlink:href="#m9589e9b83f" x="243.279383" y="200.142605" style="fill: #ff0000; stroke: #ff0000"/>
     <use xlink:href="#m9589e9b83f" x="228.344329" y="186.809851" style="fill: #ff0000; stroke: #ff0000"/>
     <use xlink:href="#m9589e9b83f" x="343.998704" y="206.968896" style="fill: #ff0000; stroke: #ff0000"/>
     <use xlink:href="#m9589e9b83f" x="206.896428" y="147.651184" style="fill: #ff0000; stroke: #ff0000"/>
     <use xlink:href="#m9589e9b83f" x="204.963832" y="147.551023" style="fill: #ff0000; stroke: #ff0000"/>
     <use xlink:href="#m9589e9b83f" x="208.547435" y="199.707161" style="fill: #ff0000; stroke: #ff0000"/>
     <use xlink:href="#m9589e9b83f" x="330.142807" y="241.264009" style="fill: #ff0000; stroke: #ff0000"/>
     <use xlink:href="#m9589e9b83f" x="238.025163" y="131.715392" style="fill: #ff0000; stroke: #ff0000"/>
     <use xlink:href="#m9589e9b83f" x="253.206773" y="108.651335" style="fill: #ff0000; stroke: #ff0000"/>
     <use xlink:href="#m9589e9b83f" x="230.874965" y="243.568885" style="fill: #ff0000; stroke: #ff0000"/>
     <use xlink:href="#m9589e9b83f" x="237.982695" y="196.262866" style="fill: #ff0000; stroke: #ff0000"/>
     <use xlink:href="#m9589e9b83f" x="255.578977" y="194.2668" style="fill: #ff0000; stroke: #ff0000"/>
     <use xlink:href="#m9589e9b83f" x="265.46422" y="175.713351" style="fill: #ff0000; stroke: #ff0000"/>
     <use xlink:href="#m9589e9b83f" x="249.555319" y="145.000564" style="fill: #ff0000; stroke: #ff0000"/>
     <use xlink:href="#m9589e9b83f" x="216.687937" y="153.590204" style="fill: #ff0000; stroke: #ff0000"/>
     <use xlink:href="#m9589e9b83f" x="185.283385" y="100.469479" style="fill: #ff0000; stroke: #ff0000"/>
     <use xlink:href="#m9589e9b83f" x="261.493145" y="209.168069" style="fill: #ff0000; stroke: #ff0000"/>
     <use xlink:href="#m9589e9b83f" x="182.008921" y="221.988445" style="fill: #ff0000; stroke: #ff0000"/>
     <use xlink:href="#m9589e9b83f" x="239.839259" y="175.456192" style="fill: #ff0000; stroke: #ff0000"/>
     <use xlink:href="#m9589e9b83f" x="214.55935" y="177.755125" style="fill: #ff0000; stroke: #ff0000"/>
     <use xlink:href="#m9589e9b83f" x="196.21444" y="219.919019" style="fill: #ff0000; stroke: #ff0000"/>
     <use xlink:href="#m9589e9b83f" x="237.747013" y="257.244915" style="fill: #ff0000; stroke: #ff0000"/>
     <use xlink:href="#m9589e9b83f" x="171.053372" y="200.590445" style="fill: #ff0000; stroke: #ff0000"/>
     <use xlink:href="#m9589e9b83f" x="270.560769" y="140.53919" style="fill: #ff0000; stroke: #ff0000"/>
     <use xlink:href="#m9589e9b83f" x="123.32005" y="99.185041" style="fill: #ff0000; stroke: #ff0000"/>
     <use xlink:href="#m9589e9b83f" x="210.080753" y="162.013326" style="fill: #ff0000; stroke: #ff0000"/>
     <use xlink:href="#m9589e9b83f" x="255.14544" y="214.307543" style="fill: #ff0000; stroke: #ff0000"/>
     <use xlink:href="#m9589e9b83f" x="181.06931" y="137.636437" style="fill: #ff0000; stroke: #ff0000"/>
     <use xlink:href="#m9589e9b83f" x="100.092365" y="188.080991" style="fill: #ff0000; stroke: #ff0000"/>
     <use xlink:href="#m9589e9b83f" x="242.077146" y="223.959102" style="fill: #ff0000; stroke: #ff0000"/>
     <use xlink:href="#m9589e9b83f" x="259.266949" y="135.655625" style="fill: #ff0000; stroke: #ff0000"/>
     <use xlink:href="#m9589e9b83f" x="178.309883" y="176.454439" style="fill: #ff0000; stroke: #ff0000"/>
     <use xlink:href="#m9589e9b83f" x="281.317937" y="179.113906" style="fill: #ff0000; stroke: #ff0000"/>
     <use xlink:href="#m9589e9b83f" x="230.563407" y="171.299042" style="fill: #ff0000; stroke: #ff0000"/>
     <use xlink:href="#m9589e9b83f" x="173.064546" y="205.895403" style="fill: #ff0000; stroke: #ff0000"/>
     <use xlink:href="#m9589e9b83f" x="231.9696" y="152.040611" style="fill: #ff0000; stroke: #ff0000"/>
     <use xlink:href="#m9589e9b83f" x="213.419795" y="183.68639" style="fill: #ff0000; stroke: #ff0000"/>
     <use xlink:href="#m9589e9b83f" x="173.847686" y="185.803453" style="fill: #ff0000; stroke: #ff0000"/>
     <use xlink:href="#m9589e9b83f" x="199.424682" y="141.747483" style="fill: #ff0000; stroke: #ff0000"/>
     <use xlink:href="#m9589e9b83f" x="221.444588" y="206.077556" style="fill: #ff0000; stroke: #ff0000"/>
     <use xlink:href="#m9589e9b83f" x="249.260711" y="159.247255" style="fill: #ff0000; stroke: #ff0000"/>
     <use xlink:href="#m9589e9b83f" x="190.287404" y="180.725809" style="fill: #ff0000; stroke: #ff0000"/>
     <use xlink:href="#m9589e9b83f" x="261.719296" y="278.711237" style="fill: #ff0000; stroke: #ff0000"/>
     <use xlink:href="#m9589e9b83f" x="200.105776" y="134.992379" style="fill: #ff0000; stroke: #ff0000"/>
     <use xlink:href="#m9589e9b83f" x="259.544165" y="183.576143" style="fill: #ff0000; stroke: #ff0000"/>
     <use xlink:href="#m9589e9b83f" x="207.389397" y="121.5035" style="fill: #ff0000; stroke: #ff0000"/>
     <use xlink:href="#m9589e9b83f" x="226.638621" y="154.914503" style="fill: #ff0000; stroke: #ff0000"/>
     <use xlink:href="#m9589e9b83f" x="208.496164" y="225.235766" style="fill: #ff0000; stroke: #ff0000"/>
     <use xlink:href="#m9589e9b83f" x="169.991354" y="153.093852" style="fill: #ff0000; stroke: #ff0000"/>
     <use xlink:href="#m9589e9b83f" x="198.12394" y="178.900747" style="fill: #ff0000; stroke: #ff0000"/>
     <use xlink:href="#m9589e9b83f" x="219.296267" y="113.095599" style="fill: #ff0000; stroke: #ff0000"/>
     <use xlink:href="#m9589e9b83f" x="215.6551" y="181.903155" style="fill: #ff0000; stroke: #ff0000"/>
     <use xlink:href="#m9589e9b83f" x="252.766988" y="129.198101" style="fill: #ff0000; stroke: #ff0000"/>
     <use xlink:href="#m9589e9b83f" x="291.945755" y="159.23667" style="fill: #ff0000; stroke: #ff0000"/>
    </g>
   </g>
   <g id="line2d_24">
    <path d="M 74.654515 127.568686 
L 77.818749 113.953586 
L 83.275529 101.293781 
L 90.938798 89.788924 
L 100.687702 79.620452 
L 112.368494 70.948729 
L 125.796961 63.910513 
L 140.761329 58.616801 
L 157.0256 55.151078 
L 174.333277 53.568 
L 192.411408 53.892534 
L 210.97489 56.11956 
L 229.730965 60.213959 
L 248.38384 66.111159 
L 266.639347 73.718157 
L 284.209585 82.914986 
L 300.817462 93.556607 
L 316.201062 105.475196 
L 330.117776 118.482788 
L 342.348129 132.374247 
L 352.699241 146.930496 
L 361.00787 161.921974 
L 367.142982 177.112256 
L 371.007823 192.261783 
L 372.541443 207.131638 
L 371.719656 221.487314 
L 368.555421 235.102414 
L 363.098641 247.762219 
L 355.435372 259.267076 
L 345.686469 269.435548 
L 334.005677 278.107271 
L 320.57721 285.145487 
L 305.612842 290.439199 
L 289.348571 293.904922 
L 272.040894 295.488 
L 253.962762 295.163466 
L 235.399281 292.93644 
L 216.643205 288.842041 
L 197.990331 282.944841 
L 179.734824 275.337843 
L 162.164585 266.141014 
L 145.556708 255.499393 
L 130.173108 243.580804 
L 116.256394 230.573212 
L 104.026041 216.681753 
L 93.674929 202.125504 
L 85.366301 187.134026 
L 79.231189 171.943744 
L 75.366347 156.794217 
L 73.832727 141.924362 
L 74.654515 127.568686 
" clip-path="url(#p1e27106c4c)" style="fill: none; stroke: #ff0000; stroke-width: 1.5; stroke-linecap: square"/>
   </g>
   <g id="patch_6">
    <path d="M 57.6 307.584 
L 57.6 41.472 
" style="fill: none; stroke: #000000; stroke-width: 0.8; stroke-linejoin: miter; stroke-linecap: square"/>
   </g>
   <g id="patch_7">
    <path d="M 414.72 307.584 
L 414.72 41.472 
" style="fill: none; stroke: #000000; stroke-width: 0.8; stroke-linejoin: miter; stroke-linecap: square"/>
   </g>
   <g id="patch_8">
    <path d="M 57.6 307.584 
L 414.72 307.584 
" style="fill: none; stroke: #000000; stroke-width: 0.8; stroke-linejoin: miter; stroke-linecap: square"/>
   </g>
   <g id="patch_9">
    <path d="M 57.6 41.472 
L 414.72 41.472 
" style="fill: none; stroke: #000000; stroke-width: 0.8; stroke-linejoin: miter; stroke-linecap: square"/>
   </g>
   <g id="legend_1">
    <g id="patch_10">
     <path d="M 298.962583 105.220713 
L 407.72 105.220713 
Q 409.72 105.220713 409.72 103.220713 
L 409.72 48.472 
Q 409.72 46.472 407.72 46.472 
L 298.962583 46.472 
Q 296.962583 46.472 296.962583 48.472 
L 296.962583 103.220713 
Q 296.962583 105.220713 298.962583 105.220713 
z
" style="fill: #ffffff; opacity: 0.8; stroke: #cccccc; stroke-linejoin: miter"/>
    </g>
    <g id="line2d_25">
     <path d="M 300.962583 53.972 
L 310.962583 53.972 
L 320.962583 53.972 
" style="fill: none; stroke: #0000ff; stroke-width: 1.5; stroke-linecap: square"/>
    </g>
    <g id="text_13">
     <!-- Censi's cov $3\sigma$. -->
     <g transform="translate(328.962583 57.472) scale(0.1 -0.1)">
      <defs>
       <path id="CMSS17-43" d="M 3501 714 
C 3072 427 2874 344 2355 344 
C 1459 344 934 1303 934 2179 
C 934 3112 1472 4032 2381 4032 
C 2790 4032 3059 3918 3386 3715 
L 3475 4217 
C 3168 4370 2778 4440 2387 4440 
C 1158 4440 397 3316 397 2179 
C 397 927 1299 -64 2323 -64 
C 2874 -64 3066 -19 3539 280 
L 3501 714 
z
" transform="scale(0.015625)"/>
       <path id="CMSS17-65" d="M 2502 1377 
C 2502 1590 2490 2003 2285 2345 
C 2061 2713 1696 2816 1421 2816 
C 755 2816 192 2188 192 1375 
C 192 582 774 -64 1510 -64 
C 1798 -64 2150 19 2470 248 
C 2470 274 2458 414 2451 420 
C 2451 433 2432 630 2432 656 
C 2125 407 1773 325 1517 325 
C 1107 325 666 667 646 1377 
L 2502 1377 
z
M 698 1728 
C 781 2084 1062 2421 1421 2421 
C 1517 2421 1965 2421 2080 1728 
L 698 1728 
z
" transform="scale(0.015625)"/>
       <path id="CMSS17-6e" d="M 2618 1877 
C 2618 2283 2522 2816 1798 2816 
C 1389 2816 1120 2606 941 2389 
L 941 2758 
L 474 2758 
L 474 0 
L 960 0 
L 960 1559 
C 960 1964 1114 2428 1549 2428 
C 2112 2428 2131 2048 2131 1829 
L 2131 0 
L 2618 0 
L 2618 1877 
z
" transform="scale(0.015625)"/>
       <path id="CMSS17-73" d="M 2061 2627 
C 1683 2807 1389 2807 1197 2807 
C 742 2807 198 2648 198 2003 
C 198 1359 902 1218 1094 1179 
C 1389 1122 1715 1058 1715 740 
C 1715 337 1254 337 1171 337 
C 915 337 563 407 243 638 
L 166 210 
C 531 0 883 -64 1178 -64 
C 1965 -64 2163 416 2163 781 
C 2163 1094 1984 1305 1862 1401 
C 1651 1568 1574 1587 1050 1696 
C 960 1709 646 1779 646 2066 
C 646 2432 1050 2432 1139 2432 
C 1555 2432 1811 2303 1984 2208 
L 2061 2627 
z
" transform="scale(0.015625)"/>
       <path id="CMSS17-69" d="M 979 4183 
L 442 4183 
L 442 3648 
L 979 3648 
L 979 4183 
z
M 947 2739 
L 474 2739 
L 474 0 
L 947 0 
L 947 2739 
z
" transform="scale(0.015625)"/>
       <path id="CMSS17-27" d="M 1088 3910 
L 1088 4413 
L 576 4413 
L 576 3904 
L 736 3904 
L 570 3104 
L 826 3104 
L 1088 3910 
z
" transform="scale(0.015625)"/>
       <path id="CMSS17-63" d="M 2464 2541 
C 2464 2585 2170 2714 2093 2739 
C 1882 2816 1613 2816 1542 2816 
C 710 2816 211 2093 211 1363 
C 211 595 768 -64 1517 -64 
C 1946 -64 2253 76 2502 242 
L 2464 664 
C 2189 453 1869 337 1523 337 
C 1024 337 698 774 698 1369 
C 698 1831 909 2414 1549 2414 
C 1901 2414 2099 2343 2394 2145 
L 2464 2541 
z
" transform="scale(0.015625)"/>
       <path id="CMSS17-6f" d="M 2829 1356 
C 2829 2176 2221 2816 1504 2816 
C 768 2816 173 2157 173 1356 
C 173 544 787 -64 1498 -64 
C 2227 -64 2829 563 2829 1356 
z
M 1504 337 
C 1050 337 659 709 659 1408 
C 659 2151 1114 2427 1498 2427 
C 1914 2427 2342 2126 2342 1408 
C 2342 683 1926 337 1504 337 
z
" transform="scale(0.015625)"/>
       <path id="CMSS17-76" d="M 2675 2752 
L 2176 2752 
L 1747 1556 
C 1613 1165 1421 627 1389 352 
L 1382 352 
C 1370 468 1318 634 1286 749 
C 1248 890 1197 1056 1158 1172 
L 595 2752 
L 83 2752 
L 1094 0 
L 1664 0 
L 2675 2752 
z
" transform="scale(0.015625)"/>
       <path id="CMR17-33" d="M 1414 2157 
C 1984 2157 2234 1662 2234 1090 
C 2234 320 1824 25 1453 25 
C 1114 25 563 194 390 693 
C 422 680 454 680 486 680 
C 640 680 755 782 755 948 
C 755 1133 614 1216 486 1216 
C 378 1216 211 1165 211 926 
C 211 335 787 -128 1466 -128 
C 2176 -128 2720 430 2720 1085 
C 2720 1707 2208 2157 1600 2227 
C 2086 2328 2554 2756 2554 3329 
C 2554 3820 2048 4179 1472 4179 
C 890 4179 378 3829 378 3329 
C 378 3110 544 3072 627 3072 
C 762 3072 877 3155 877 3321 
C 877 3486 762 3569 627 3569 
C 602 3569 570 3569 544 3557 
C 730 3959 1235 4032 1459 4032 
C 1683 4032 2106 3925 2106 3320 
C 2106 3143 2080 2828 1862 2550 
C 1670 2304 1453 2304 1242 2284 
C 1210 2284 1062 2269 1037 2269 
C 992 2263 966 2257 966 2208 
C 966 2163 973 2157 1101 2157 
L 1414 2157 
z
" transform="scale(0.015625)"/>
       <path id="CMMI12-1b" d="M 3251 2408 
C 3334 2408 3546 2408 3546 2612 
C 3546 2752 3424 2752 3309 2752 
L 1894 2752 
C 934 2752 243 1686 243 932 
C 243 390 595 -64 1171 -64 
C 1926 -64 2752 747 2752 1705 
C 2752 1954 2694 2196 2541 2408 
L 3251 2408 
z
M 1178 64 
C 851 64 614 313 614 754 
C 614 1137 845 2408 1786 2408 
C 2061 2408 2368 2274 2368 1781 
C 2368 1558 2266 1021 2042 652 
C 1811 275 1466 64 1178 64 
z
" transform="scale(0.015625)"/>
       <path id="CMSS17-2e" d="M 1088 510 
L 576 510 
L 576 0 
L 1088 0 
L 1088 510 
z
" transform="scale(0.015625)"/>
      </defs>
      <use xlink:href="#CMSS17-43" transform="scale(0.996264)"/>
      <use xlink:href="#CMSS17-65" transform="translate(59.855772 0) scale(0.996264)"/>
      <use xlink:href="#CMSS17-6e" transform="translate(101.494594 0) scale(0.996264)"/>
      <use xlink:href="#CMSS17-73" transform="translate(149.699537 0) scale(0.996264)"/>
      <use xlink:href="#CMSS17-69" transform="translate(185.613079 0) scale(0.996264)"/>
      <use xlink:href="#CMSS17-27" transform="translate(207.793802 0) scale(0.996264)"/>
      <use xlink:href="#CMSS17-73" transform="translate(233.818007 0) scale(0.996264)"/>
      <use xlink:href="#CMSS17-63" transform="translate(300.960661 0) scale(0.996264)"/>
      <use xlink:href="#CMSS17-6f" transform="translate(342.599484 0) scale(0.996264)"/>
      <use xlink:href="#CMSS17-76" transform="translate(389.443107 0) scale(0.996264)"/>
      <use xlink:href="#CMR17-33" transform="translate(463.672361 0) scale(0.996264)"/>
      <use xlink:href="#CMMI12-1b" transform="translate(509.362839 0) scale(0.996264)"/>
      <use xlink:href="#CMSS17-2e" transform="translate(568.382892 0) scale(0.996264)"/>
     </g>
    </g>
    <g id="line2d_26">
     <path d="M 300.962583 67.909178 
L 310.962583 67.909178 
L 320.962583 67.909178 
" style="fill: none; stroke: #008000; stroke-width: 1.5; stroke-linecap: square"/>
    </g>
    <g id="text_14">
     <!-- Brossard's cov $3\sigma$. -->
     <g transform="translate(328.962583 71.409178) scale(0.1 -0.1)">
      <defs>
       <path id="CMSS17-42" d="M 570 4416 
L 570 0 
L 2163 0 
C 3034 0 3667 574 3667 1200 
C 3667 1685 3251 2176 2502 2317 
C 3334 2558 3501 3040 3501 3313 
C 3501 3883 2874 4416 1997 4416 
L 570 4416 
z
M 1088 2496 
L 1088 4059 
L 1824 4059 
C 2483 4059 3002 3724 3002 3306 
C 3002 2926 2592 2496 1766 2496 
L 1088 2496 
z
M 1088 357 
L 1088 2107 
L 1939 2107 
C 2630 2107 3162 1679 3162 1206 
C 3162 772 2694 357 1984 357 
L 1088 357 
z
" transform="scale(0.015625)"/>
       <path id="CMSS17-72" d="M 954 1363 
C 954 1965 1395 2368 1958 2368 
L 1958 2789 
C 1549 2789 1165 2585 934 2253 
L 934 2758 
L 480 2758 
L 480 0 
L 954 0 
L 954 1363 
z
" transform="scale(0.015625)"/>
       <path id="CMSS17-61" d="M 2406 1791 
C 2406 2392 1978 2808 1402 2808 
C 1120 2808 813 2757 461 2553 
L 499 2135 
C 659 2248 934 2432 1395 2432 
C 1722 2432 1920 2180 1920 1782 
L 1920 1536 
C 896 1536 256 1238 256 726 
C 256 461 416 -64 947 -64 
C 1043 -64 1562 -64 1933 217 
L 1933 -19 
L 2406 -19 
L 2406 1791 
z
M 1920 816 
C 1920 701 1920 548 1728 434 
C 1562 325 1350 325 1261 325 
C 941 325 723 511 723 744 
C 723 1211 1722 1211 1920 1211 
L 1920 816 
z
" transform="scale(0.015625)"/>
       <path id="CMSS17-64" d="M 2611 4416 
L 2138 4416 
L 2138 2438 
C 1939 2603 1613 2756 1254 2756 
C 672 2756 211 2131 211 1347 
C 211 562 666 -64 1235 -64 
C 1677 -64 1971 172 2125 306 
L 2125 -13 
L 2611 -13 
L 2611 4416 
z
M 2125 836 
C 2125 747 2125 653 1926 482 
C 1798 375 1645 325 1498 325 
C 1152 325 698 576 698 1340 
C 698 2134 1210 2368 1562 2368 
C 1798 2368 1990 2254 2125 2065 
L 2125 836 
z
" transform="scale(0.015625)"/>
      </defs>
      <use xlink:href="#CMSS17-42" transform="scale(0.996264)"/>
      <use xlink:href="#CMSS17-72" transform="translate(62.33804 0) scale(0.996264)"/>
      <use xlink:href="#CMSS17-6f" transform="translate(94.247813 0) scale(0.996264)"/>
      <use xlink:href="#CMSS17-73" transform="translate(141.091436 0) scale(0.996264)"/>
      <use xlink:href="#CMSS17-73" transform="translate(177.004978 0) scale(0.996264)"/>
      <use xlink:href="#CMSS17-61" transform="translate(212.91852 0) scale(0.996264)"/>
      <use xlink:href="#CMSS17-72" transform="translate(255.237987 0) scale(0.996264)"/>
      <use xlink:href="#CMSS17-64" transform="translate(287.14776 0) scale(0.996264)"/>
      <use xlink:href="#CMSS17-27" transform="translate(335.352703 0) scale(0.996264)"/>
      <use xlink:href="#CMSS17-73" transform="translate(361.376908 0) scale(0.996264)"/>
      <use xlink:href="#CMSS17-63" transform="translate(428.519562 0) scale(0.996264)"/>
      <use xlink:href="#CMSS17-6f" transform="translate(470.158384 0) scale(0.996264)"/>
      <use xlink:href="#CMSS17-76" transform="translate(517.002008 0) scale(0.996264)"/>
      <use xlink:href="#CMR17-33" transform="translate(591.231262 0) scale(0.996264)"/>
      <use xlink:href="#CMMI12-1b" transform="translate(636.921739 0) scale(0.996264)"/>
      <use xlink:href="#CMSS17-2e" transform="translate(695.941793 0) scale(0.996264)"/>
     </g>
    </g>
    <g id="line2d_27">
     <g>
      <use xlink:href="#m9589e9b83f" x="310.962583" y="81.846357" style="fill: #ff0000; stroke: #ff0000"/>
     </g>
    </g>
    <g id="text_15">
     <!-- Samples. -->
     <g transform="translate(328.962583 85.346357) scale(0.1 -0.1)">
      <defs>
       <path id="CMSS17-53" d="M 2797 4169 
C 2515 4334 2208 4480 1690 4480 
C 864 4480 333 3879 333 3266 
C 333 3025 403 2753 653 2475 
C 902 2196 1184 2121 1542 2033 
C 1690 1994 1939 1924 1984 1906 
C 2342 1767 2515 1444 2515 1140 
C 2515 742 2202 318 1645 318 
C 1453 318 890 318 358 819 
L 269 318 
C 794 -64 1363 -128 1651 -128 
C 2438 -128 3002 488 3002 1186 
C 3002 1440 2925 1763 2656 2061 
C 2394 2347 2163 2410 1638 2549 
C 1338 2626 1146 2677 986 2873 
C 877 3013 819 3146 819 3317 
C 819 3673 1126 4060 1690 4060 
C 1971 4060 2336 4002 2707 3660 
L 2797 4169 
z
" transform="scale(0.015625)"/>
       <path id="CMSS17-70" d="M 966 333 
C 1178 129 1466 -5 1773 -5 
C 2368 -5 2880 603 2880 1412 
C 2880 2159 2496 2816 1946 2816 
C 1626 2816 1242 2702 954 2472 
L 954 2765 
L 480 2765 
L 480 -1216 
L 966 -1216 
L 966 333 
z
M 966 2100 
C 1018 2176 1235 2415 1587 2415 
C 2035 2415 2394 1960 2394 1412 
C 2394 787 1958 384 1530 384 
C 1402 384 1267 415 1139 523 
C 966 674 966 768 966 857 
L 966 2100 
z
" transform="scale(0.015625)"/>
       <path id="CMSS17-6c" d="M 947 4416 
L 474 4416 
L 474 0 
L 947 0 
L 947 4416 
z
" transform="scale(0.015625)"/>
      </defs>
      <use xlink:href="#CMSS17-53" transform="scale(0.996264)"/>
      <use xlink:href="#CMSS17-61" transform="translate(52.048516 0) scale(0.996264)"/>
      <use xlink:href="#CMSS17-6d" transform="translate(96.970437 0) scale(0.996264)"/>
      <use xlink:href="#CMSS17-70" transform="translate(171.199691 0) scale(0.996264)"/>
      <use xlink:href="#CMSS17-6c" transform="translate(219.404634 0) scale(0.996264)"/>
      <use xlink:href="#CMSS17-65" transform="translate(241.585357 0) scale(0.996264)"/>
      <use xlink:href="#CMSS17-73" transform="translate(283.224179 0) scale(0.996264)"/>
      <use xlink:href="#CMSS17-2e" transform="translate(319.137721 0) scale(0.996264)"/>
     </g>
    </g>
    <g id="line2d_28">
     <path d="M 300.962583 95.783535 
L 310.962583 95.783535 
L 320.962583 95.783535 
" style="fill: none; stroke: #ff0000; stroke-width: 1.5; stroke-linecap: square"/>
    </g>
    <g id="text_16">
     <!-- Sample cov $3\sigma$. -->
     <g transform="translate(328.962583 99.283535) scale(0.1 -0.1)">
      <use xlink:href="#CMSS17-53" transform="scale(0.996264)"/>
      <use xlink:href="#CMSS17-61" transform="translate(52.048516 0) scale(0.996264)"/>
      <use xlink:href="#CMSS17-6d" transform="translate(96.970437 0) scale(0.996264)"/>
      <use xlink:href="#CMSS17-70" transform="translate(171.199691 0) scale(0.996264)"/>
      <use xlink:href="#CMSS17-6c" transform="translate(219.404634 0) scale(0.996264)"/>
      <use xlink:href="#CMSS17-65" transform="translate(241.585357 0) scale(0.996264)"/>
      <use xlink:href="#CMSS17-63" transform="translate(314.453292 0) scale(0.996264)"/>
      <use xlink:href="#CMSS17-6f" transform="translate(356.092114 0) scale(0.996264)"/>
      <use xlink:href="#CMSS17-76" transform="translate(402.935738 0) scale(0.996264)"/>
      <use xlink:href="#CMR17-33" transform="translate(477.164992 0) scale(0.996264)"/>
      <use xlink:href="#CMMI12-1b" transform="translate(522.855469 0) scale(0.996264)"/>
      <use xlink:href="#CMSS17-2e" transform="translate(581.875523 0) scale(0.996264)"/>
     </g>
    </g>
   </g>
  </g>
 </g>
 <defs>
  <clipPath id="p1e27106c4c">
   <rect x="57.6" y="41.472" width="357.12" height="266.112"/>
  </clipPath>
 </defs>
</svg>
