<?xml version="1.0" encoding="utf-8" standalone="no"?>
<!DOCTYPE svg PUBLIC "-//W3C//DTD SVG 1.1//EN"
  "http://www.w3.org/Graphics/SVG/1.1/DTD/svg11.dtd">
<svg xmlns:xlink="http://www.w3.org/1999/xlink" width="460.8pt" height="345.6pt" viewBox="0 0 460.8 345.6" xmlns="http://www.w3.org/2000/svg" version="1.1">
 <metadata>
  <rdf:RDF xmlns:dc="http://purl.org/dc/elements/1.1/" xmlns:cc="http://creativecommons.org/ns#" xmlns:rdf="http://www.w3.org/1999/02/22-rdf-syntax-ns#">
   <cc:Work>
    <dc:type rdf:resource="http://purl.org/dc/dcmitype/StillImage"/>
    <dc:date>2022-12-17T15:06:10.205520</dc:date>
    <dc:format>image/svg+xml</dc:format>
    <dc:creator>
     <cc:Agent>
      <dc:title>Matplotlib v3.6.0, https://matplotlib.org/</dc:title>
     </cc:Agent>
    </dc:creator>
   </cc:Work>
  </rdf:RDF>
 </metadata>
 <defs>
  <style type="text/css">*{stroke-linejoin: round; stroke-linecap: butt}</style>
 </defs>
 <g id="figure_1">
  <g id="patch_1">
   <path d="M 0 345.6 
L 460.8 345.6 
L 460.8 0 
L 0 0 
z
" style="fill: #ffffff"/>
  </g>
  <g id="axes_1">
   <g id="patch_2">
    <path d="M 57.6 307.584 
L 414.72 307.584 
L 414.72 41.472 
L 57.6 41.472 
z
" style="fill: #ffffff"/>
   </g>
   <g id="patch_3">
    <path d="M 238.045455 153.538889 
L 238.831415 153.973753 
L 239.575245 154.687014 
L 240.265215 155.667423 
L 240.890443 156.899518 
L 241.441069 158.36387 
L 241.908409 160.037384 
L 242.285094 161.893668 
L 242.565182 163.903447 
L 242.744257 166.035026 
L 242.819493 168.254788 
L 242.789706 170.527727 
L 242.655365 172.817997 
L 242.418587 175.089479 
L 242.083108 177.30635 
L 241.654218 179.433649 
L 241.138681 181.437827 
L 240.544627 183.287278 
L 239.881425 184.952833 
L 239.159534 186.408228 
L 238.390338 187.630507 
L 237.585969 188.600397 
L 236.759111 189.302601 
L 235.922805 189.726045 
L 235.090239 189.864051 
L 234.274545 189.714443 
L 233.488585 189.279579 
L 232.744755 188.566318 
L 232.054785 187.585909 
L 231.429557 186.353813 
L 230.878931 184.889462 
L 230.411591 183.215948 
L 230.034906 181.359664 
L 229.754818 179.349885 
L 229.575743 177.218306 
L 229.500507 174.998544 
L 229.530294 172.725605 
L 229.664635 170.435335 
L 229.901413 168.163853 
L 230.236892 165.946982 
L 230.665782 163.819683 
L 231.181319 161.815505 
L 231.775373 159.966054 
L 232.438575 158.300498 
L 233.160466 156.845104 
L 233.929662 155.622824 
L 234.734031 154.652934 
L 235.560889 153.95073 
L 236.397195 153.527287 
L 237.229761 153.389281 
L 238.045455 153.538889 
z
" clip-path="url(#pab4e7ea747)" style="fill: none; opacity: 0"/>
   </g>
   <g id="patch_4">
    <path d="M 159.602203 99.199913 
L 161.424796 95.260498 
L 164.426008 92.525422 
L 168.558508 91.03782 
L 173.757124 90.821153 
L 179.939871 91.878836 
L 187.009242 94.194191 
L 194.853751 97.730702 
L 203.349683 102.432596 
L 212.363054 108.225723 
L 221.751717 115.01872 
L 231.367608 122.704458 
L 241.059077 131.161729 
L 250.673284 140.257155 
L 260.058609 149.847298 
L 269.067038 159.780915 
L 277.556504 169.901346 
L 285.393122 180.048986 
L 292.453304 190.063801 
L 298.625707 199.787852 
L 303.812989 209.067784 
L 307.933342 217.757247 
L 310.921788 225.719203 
L 312.731195 232.828088 
L 313.333028 238.97179 
L 312.717797 244.053419 
L 310.895204 247.992834 
L 307.893992 250.72791 
L 303.761492 252.215512 
L 298.562876 252.432179 
L 292.380129 251.374496 
L 285.310758 249.059141 
L 277.466249 245.52263 
L 268.970317 240.820735 
L 259.956946 235.027609 
L 250.568283 228.234612 
L 240.952392 220.548874 
L 231.260923 212.091603 
L 221.646716 202.996176 
L 212.261391 193.406034 
L 203.252962 183.472417 
L 194.763496 173.351986 
L 186.926878 163.204346 
L 179.866696 153.189531 
L 173.694293 143.46548 
L 168.507011 134.185548 
L 164.386658 125.496085 
L 161.398212 117.534129 
L 159.588805 110.425244 
L 158.986972 104.281542 
L 159.602203 99.199913 
L 159.602203 99.199913 
z
" clip-path="url(#pab4e7ea747)" style="fill: none; opacity: 0"/>
   </g>
   <g id="patch_5">
    <path d="M 73.832727 175.123819 
L 75.021657 160.297889 
L 78.751834 145.650621 
L 84.964433 131.413011 
L 93.561475 117.809593 
L 104.407382 105.054903 
L 117.331106 93.35009 
L 132.128833 82.879745 
L 148.567194 73.808992 
L 166.386945 66.280882 
L 185.307059 60.414138 
L 205.029154 56.301282 
L 225.242202 54.007176 
L 245.627429 53.568 
L 265.86335 54.99068 
L 285.630831 58.252778 
L 304.618127 63.302851 
L 322.525798 70.061255 
L 339.071429 78.421406 
L 353.994085 88.25146 
L 367.058427 99.39639 
L 378.058422 111.680435 
L 386.820595 124.909868 
L 393.20676 138.876053 
L 397.116204 153.358735 
L 398.487273 168.129512 
L 397.298343 182.955442 
L 393.568166 197.602711 
L 387.355567 211.840321 
L 378.758525 225.443739 
L 367.912618 238.198428 
L 354.988894 249.903242 
L 340.191167 260.373587 
L 323.752806 269.44434 
L 305.933055 276.97245 
L 287.012941 282.839194 
L 267.290846 286.95205 
L 247.077798 289.246156 
L 226.692571 289.685332 
L 206.45665 288.262652 
L 186.689169 285.000554 
L 167.701873 279.950481 
L 149.794202 273.192077 
L 133.248571 264.831926 
L 118.325915 255.001872 
L 105.261573 243.856942 
L 94.261578 231.572897 
L 85.499405 218.343464 
L 79.11324 204.377279 
L 75.203796 189.894597 
L 73.832727 175.123819 
L 73.832727 175.123819 
z
" clip-path="url(#pab4e7ea747)" style="fill: none; opacity: 0"/>
   </g>
   <g id="matplotlib.axis_1">
    <g id="xtick_1">
     <g id="line2d_1">
      <path d="M 121.635083 307.584 
L 121.635083 41.472 
" clip-path="url(#pab4e7ea747)" style="fill: none; stroke: #b0b0b0; stroke-width: 0.8; stroke-linecap: square"/>
     </g>
     <g id="line2d_2">
      <defs>
       <path id="m2182f3c939" d="M 0 0 
L 0 3.5 
" style="stroke: #000000; stroke-width: 0.8"/>
      </defs>
      <g>
       <use xlink:href="#m2182f3c939" x="121.635083" y="307.584" style="stroke: #000000; stroke-width: 0.8"/>
      </g>
     </g>
     <g id="text_1">
      <!-- $\mathdefault{−0.02}$ -->
      <g transform="translate(108.905004 321.502498) scale(0.1 -0.1)">
       <defs>
        <path id="CMSY10-0" d="M 4218 1472 
C 4326 1472 4442 1472 4442 1600 
C 4442 1728 4326 1728 4218 1728 
L 755 1728 
C 646 1728 531 1728 531 1600 
C 531 1472 646 1472 755 1472 
L 4218 1472 
z
" transform="scale(0.015625)"/>
        <path id="CMR17-30" d="M 2688 2025 
C 2688 2416 2682 3080 2413 3591 
C 2176 4039 1798 4198 1466 4198 
C 1158 4198 768 4058 525 3597 
C 269 3118 243 2524 243 2025 
C 243 1661 250 1106 448 619 
C 723 -39 1216 -128 1466 -128 
C 1760 -128 2208 -7 2470 600 
C 2662 1042 2688 1559 2688 2025 
z
M 1466 -26 
C 1056 -26 813 325 723 812 
C 653 1188 653 1738 653 2096 
C 653 2588 653 2997 736 3387 
C 858 3929 1216 4096 1466 4096 
C 1728 4096 2067 3923 2189 3400 
C 2272 3036 2278 2607 2278 2096 
C 2278 1680 2278 1169 2202 792 
C 2067 95 1690 -26 1466 -26 
z
" transform="scale(0.015625)"/>
        <path id="CMMI12-3a" d="M 1178 307 
C 1178 492 1024 619 870 619 
C 685 619 557 466 557 313 
C 557 128 710 0 864 0 
C 1050 0 1178 153 1178 307 
z
" transform="scale(0.015625)"/>
        <path id="CMR17-32" d="M 2669 989 
L 2554 989 
C 2490 536 2438 459 2413 420 
C 2381 369 1920 369 1830 369 
L 602 369 
C 832 619 1280 1072 1824 1597 
C 2214 1967 2669 2402 2669 3035 
C 2669 3790 2067 4224 1395 4224 
C 691 4224 262 3604 262 3030 
C 262 2780 448 2748 525 2748 
C 589 2748 781 2787 781 3010 
C 781 3207 614 3264 525 3264 
C 486 3264 448 3258 422 3245 
C 544 3790 915 4058 1306 4058 
C 1862 4058 2227 3617 2227 3035 
C 2227 2479 1901 2000 1536 1584 
L 262 146 
L 262 0 
L 2515 0 
L 2669 989 
z
" transform="scale(0.015625)"/>
       </defs>
       <use xlink:href="#CMSY10-0" transform="scale(0.996264)"/>
       <use xlink:href="#CMR17-30" transform="translate(77.487468 0) scale(0.996264)"/>
       <use xlink:href="#CMMI12-3a" transform="translate(123.177945 0) scale(0.996264)"/>
       <use xlink:href="#CMR17-30" transform="translate(150.275122 0) scale(0.996264)"/>
       <use xlink:href="#CMR17-32" transform="translate(195.965599 0) scale(0.996264)"/>
      </g>
     </g>
    </g>
    <g id="xtick_2">
     <g id="line2d_3">
      <path d="M 194.430716 307.584 
L 194.430716 41.472 
" clip-path="url(#pab4e7ea747)" style="fill: none; stroke: #b0b0b0; stroke-width: 0.8; stroke-linecap: square"/>
     </g>
     <g id="line2d_4">
      <g>
       <use xlink:href="#m2182f3c939" x="194.430716" y="307.584" style="stroke: #000000; stroke-width: 0.8"/>
      </g>
     </g>
     <g id="text_2">
      <!-- $\mathdefault{0.00}$ -->
      <g transform="translate(185.575009 321.502498) scale(0.1 -0.1)">
       <use xlink:href="#CMR17-30" transform="scale(0.996264)"/>
       <use xlink:href="#CMMI12-3a" transform="translate(45.690477 0) scale(0.996264)"/>
       <use xlink:href="#CMR17-30" transform="translate(72.787654 0) scale(0.996264)"/>
       <use xlink:href="#CMR17-30" transform="translate(118.478131 0) scale(0.996264)"/>
      </g>
     </g>
    </g>
    <g id="xtick_3">
     <g id="line2d_5">
      <path d="M 267.226349 307.584 
L 267.226349 41.472 
" clip-path="url(#pab4e7ea747)" style="fill: none; stroke: #b0b0b0; stroke-width: 0.8; stroke-linecap: square"/>
     </g>
     <g id="line2d_6">
      <g>
       <use xlink:href="#m2182f3c939" x="267.226349" y="307.584" style="stroke: #000000; stroke-width: 0.8"/>
      </g>
     </g>
     <g id="text_3">
      <!-- $\mathdefault{0.02}$ -->
      <g transform="translate(258.370641 321.502498) scale(0.1 -0.1)">
       <use xlink:href="#CMR17-30" transform="scale(0.996264)"/>
       <use xlink:href="#CMMI12-3a" transform="translate(45.690477 0) scale(0.996264)"/>
       <use xlink:href="#CMR17-30" transform="translate(72.787654 0) scale(0.996264)"/>
       <use xlink:href="#CMR17-32" transform="translate(118.478131 0) scale(0.996264)"/>
      </g>
     </g>
    </g>
    <g id="xtick_4">
     <g id="line2d_7">
      <path d="M 340.021981 307.584 
L 340.021981 41.472 
" clip-path="url(#pab4e7ea747)" style="fill: none; stroke: #b0b0b0; stroke-width: 0.8; stroke-linecap: square"/>
     </g>
     <g id="line2d_8">
      <g>
       <use xlink:href="#m2182f3c939" x="340.021981" y="307.584" style="stroke: #000000; stroke-width: 0.8"/>
      </g>
     </g>
     <g id="text_4">
      <!-- $\mathdefault{0.04}$ -->
      <g transform="translate(331.166274 321.502498) scale(0.1 -0.1)">
       <defs>
        <path id="CMR17-34" d="M 2150 4122 
C 2150 4256 2144 4256 2029 4256 
L 128 1254 
L 128 1088 
L 1779 1088 
L 1779 457 
C 1779 224 1766 160 1318 160 
L 1197 160 
L 1197 0 
C 1402 0 1747 0 1965 0 
C 2182 0 2528 0 2733 0 
L 2733 160 
L 2611 160 
C 2163 160 2150 224 2150 457 
L 2150 1088 
L 2803 1088 
L 2803 1254 
L 2150 1254 
L 2150 4122 
z
M 1798 3703 
L 1798 1254 
L 256 1254 
L 1798 3703 
z
" transform="scale(0.015625)"/>
       </defs>
       <use xlink:href="#CMR17-30" transform="scale(0.996264)"/>
       <use xlink:href="#CMMI12-3a" transform="translate(45.690477 0) scale(0.996264)"/>
       <use xlink:href="#CMR17-30" transform="translate(72.787654 0) scale(0.996264)"/>
       <use xlink:href="#CMR17-34" transform="translate(118.478131 0) scale(0.996264)"/>
      </g>
     </g>
    </g>
    <g id="xtick_5">
     <g id="line2d_9">
      <path d="M 412.817614 307.584 
L 412.817614 41.472 
" clip-path="url(#pab4e7ea747)" style="fill: none; stroke: #b0b0b0; stroke-width: 0.8; stroke-linecap: square"/>
     </g>
     <g id="line2d_10">
      <g>
       <use xlink:href="#m2182f3c939" x="412.817614" y="307.584" style="stroke: #000000; stroke-width: 0.8"/>
      </g>
     </g>
     <g id="text_5">
      <!-- $\mathdefault{0.06}$ -->
      <g transform="translate(403.961907 321.502498) scale(0.1 -0.1)">
       <defs>
        <path id="CMR17-36" d="M 678 2176 
C 678 3690 1395 4032 1811 4032 
C 1946 4032 2272 4009 2400 3776 
C 2298 3776 2106 3776 2106 3553 
C 2106 3381 2246 3323 2336 3323 
C 2394 3323 2566 3348 2566 3560 
C 2566 3954 2246 4179 1805 4179 
C 1043 4179 243 3390 243 1984 
C 243 253 966 -128 1478 -128 
C 2099 -128 2688 427 2688 1283 
C 2688 2081 2170 2662 1517 2662 
C 1126 2662 838 2407 678 1960 
L 678 2176 
z
M 1478 25 
C 691 25 691 1200 691 1436 
C 691 1896 909 2560 1504 2560 
C 1613 2560 1926 2560 2138 2120 
C 2253 1870 2253 1609 2253 1289 
C 2253 944 2253 690 2118 434 
C 1978 171 1773 25 1478 25 
z
" transform="scale(0.015625)"/>
       </defs>
       <use xlink:href="#CMR17-30" transform="scale(0.996264)"/>
       <use xlink:href="#CMMI12-3a" transform="translate(45.690477 0) scale(0.996264)"/>
       <use xlink:href="#CMR17-30" transform="translate(72.787654 0) scale(0.996264)"/>
       <use xlink:href="#CMR17-36" transform="translate(118.478131 0) scale(0.996264)"/>
      </g>
     </g>
    </g>
    <g id="text_6">
     <!-- x [m] -->
     <g transform="translate(225.36713 334.911657) scale(0.1 -0.1)">
      <defs>
       <path id="CMSS17-78" d="M 1587 1414 
L 2656 2739 
L 2099 2739 
L 1363 1777 
L 602 2739 
L 32 2739 
L 1139 1414 
L 0 0 
L 563 0 
L 1363 1121 
L 2195 0 
L 2758 0 
L 1587 1414 
z
" transform="scale(0.015625)"/>
       <path id="CMSS17-5b" d="M 1613 -1600 
L 1613 -1212 
L 1062 -1212 
L 1062 4352 
L 1613 4352 
L 1613 4741 
L 595 4741 
L 595 -1600 
L 1613 -1600 
z
" transform="scale(0.015625)"/>
       <path id="CMSS17-6d" d="M 4288 1877 
C 4288 2308 4179 2816 3462 2816 
C 2982 2816 2694 2516 2566 2331 
C 2451 2670 2182 2816 1798 2816 
C 1363 2816 1088 2568 941 2389 
L 941 2758 
L 474 2758 
L 474 0 
L 960 0 
L 960 1559 
C 960 1939 1101 2428 1555 2428 
C 2138 2428 2138 2016 2138 1829 
L 2138 0 
L 2624 0 
L 2624 1559 
C 2624 1939 2765 2428 3219 2428 
C 3802 2428 3802 2016 3802 1829 
L 3802 0 
L 4288 0 
L 4288 1877 
z
" transform="scale(0.015625)"/>
       <path id="CMSS17-5d" d="M 1146 4741 
L 128 4741 
L 128 4352 
L 678 4352 
L 678 -1212 
L 128 -1212 
L 128 -1600 
L 1146 -1600 
L 1146 4741 
z
" transform="scale(0.015625)"/>
      </defs>
      <use xlink:href="#CMSS17-78" transform="scale(0.996264)"/>
      <use xlink:href="#CMSS17-5b" transform="translate(74.229254 0) scale(0.996264)"/>
      <use xlink:href="#CMSS17-6d" transform="translate(101.414693 0) scale(0.996264)"/>
      <use xlink:href="#CMSS17-5d" transform="translate(175.643948 0) scale(0.996264)"/>
     </g>
    </g>
   </g>
   <g id="matplotlib.axis_2">
    <g id="ytick_1">
     <g id="line2d_11">
      <path d="M 57.6 292.212298 
L 414.72 292.212298 
" clip-path="url(#pab4e7ea747)" style="fill: none; stroke: #b0b0b0; stroke-width: 0.8; stroke-linecap: square"/>
     </g>
     <g id="line2d_12">
      <defs>
       <path id="m6bd9b55c08" d="M 0 0 
L -3.5 0 
" style="stroke: #000000; stroke-width: 0.8"/>
      </defs>
      <g>
       <use xlink:href="#m6bd9b55c08" x="57.6" y="292.212298" style="stroke: #000000; stroke-width: 0.8"/>
      </g>
     </g>
     <g id="text_7">
      <!-- $\mathdefault{−0.020}$ -->
      <g transform="translate(20.158507 295.671547) scale(0.1 -0.1)">
       <use xlink:href="#CMSY10-0" transform="scale(0.996264)"/>
       <use xlink:href="#CMR17-30" transform="translate(77.487468 0) scale(0.996264)"/>
       <use xlink:href="#CMMI12-3a" transform="translate(123.177945 0) scale(0.996264)"/>
       <use xlink:href="#CMR17-30" transform="translate(150.275122 0) scale(0.996264)"/>
       <use xlink:href="#CMR17-32" transform="translate(195.965599 0) scale(0.996264)"/>
       <use xlink:href="#CMR17-30" transform="translate(241.656076 0) scale(0.996264)"/>
      </g>
     </g>
    </g>
    <g id="ytick_2">
     <g id="line2d_13">
      <path d="M 57.6 258.161497 
L 414.72 258.161497 
" clip-path="url(#pab4e7ea747)" style="fill: none; stroke: #b0b0b0; stroke-width: 0.8; stroke-linecap: square"/>
     </g>
     <g id="line2d_14">
      <g>
       <use xlink:href="#m6bd9b55c08" x="57.6" y="258.161497" style="stroke: #000000; stroke-width: 0.8"/>
      </g>
     </g>
     <g id="text_8">
      <!-- $\mathdefault{−0.015}$ -->
      <g transform="translate(20.158507 261.620746) scale(0.1 -0.1)">
       <defs>
        <path id="CMR17-31" d="M 1702 4058 
C 1702 4192 1696 4192 1606 4192 
C 1357 3916 979 3827 621 3827 
C 602 3827 570 3827 563 3808 
C 557 3795 557 3782 557 3648 
C 755 3648 1088 3686 1344 3839 
L 1344 461 
C 1344 236 1331 160 781 160 
L 589 160 
L 589 0 
C 896 0 1216 0 1523 0 
C 1830 0 2150 0 2458 0 
L 2458 160 
L 2266 160 
C 1715 160 1702 230 1702 458 
L 1702 4058 
z
" transform="scale(0.015625)"/>
        <path id="CMR17-35" d="M 730 3692 
C 794 3666 1056 3584 1325 3584 
C 1920 3584 2246 3911 2432 4100 
C 2432 4157 2432 4192 2394 4192 
C 2387 4192 2374 4192 2323 4163 
C 2099 4058 1837 3973 1517 3973 
C 1325 3973 1037 3999 723 4139 
C 653 4171 640 4171 634 4171 
C 602 4171 595 4164 595 4037 
L 595 2203 
C 595 2089 595 2057 659 2057 
C 691 2057 704 2070 736 2114 
C 941 2401 1222 2522 1542 2522 
C 1766 2522 2246 2382 2246 1289 
C 2246 1085 2246 715 2054 421 
C 1894 159 1645 25 1370 25 
C 947 25 518 320 403 814 
C 429 807 480 795 506 795 
C 589 795 749 840 749 1038 
C 749 1210 627 1280 506 1280 
C 358 1280 262 1190 262 1011 
C 262 454 704 -128 1382 -128 
C 2042 -128 2669 440 2669 1264 
C 2669 2030 2170 2624 1549 2624 
C 1222 2624 947 2503 730 2274 
L 730 3692 
z
" transform="scale(0.015625)"/>
       </defs>
       <use xlink:href="#CMSY10-0" transform="scale(0.996264)"/>
       <use xlink:href="#CMR17-30" transform="translate(77.487468 0) scale(0.996264)"/>
       <use xlink:href="#CMMI12-3a" transform="translate(123.177945 0) scale(0.996264)"/>
       <use xlink:href="#CMR17-30" transform="translate(150.275122 0) scale(0.996264)"/>
       <use xlink:href="#CMR17-31" transform="translate(195.965599 0) scale(0.996264)"/>
       <use xlink:href="#CMR17-35" transform="translate(241.656076 0) scale(0.996264)"/>
      </g>
     </g>
    </g>
    <g id="ytick_3">
     <g id="line2d_15">
      <path d="M 57.6 224.110697 
L 414.72 224.110697 
" clip-path="url(#pab4e7ea747)" style="fill: none; stroke: #b0b0b0; stroke-width: 0.8; stroke-linecap: square"/>
     </g>
     <g id="line2d_16">
      <g>
       <use xlink:href="#m6bd9b55c08" x="57.6" y="224.110697" style="stroke: #000000; stroke-width: 0.8"/>
      </g>
     </g>
     <g id="text_9">
      <!-- $\mathdefault{−0.010}$ -->
      <g transform="translate(20.158507 227.569946) scale(0.1 -0.1)">
       <use xlink:href="#CMSY10-0" transform="scale(0.996264)"/>
       <use xlink:href="#CMR17-30" transform="translate(77.487468 0) scale(0.996264)"/>
       <use xlink:href="#CMMI12-3a" transform="translate(123.177945 0) scale(0.996264)"/>
       <use xlink:href="#CMR17-30" transform="translate(150.275122 0) scale(0.996264)"/>
       <use xlink:href="#CMR17-31" transform="translate(195.965599 0) scale(0.996264)"/>
       <use xlink:href="#CMR17-30" transform="translate(241.656076 0) scale(0.996264)"/>
      </g>
     </g>
    </g>
    <g id="ytick_4">
     <g id="line2d_17">
      <path d="M 57.6 190.059896 
L 414.72 190.059896 
" clip-path="url(#pab4e7ea747)" style="fill: none; stroke: #b0b0b0; stroke-width: 0.8; stroke-linecap: square"/>
     </g>
     <g id="line2d_18">
      <g>
       <use xlink:href="#m6bd9b55c08" x="57.6" y="190.059896" style="stroke: #000000; stroke-width: 0.8"/>
      </g>
     </g>
     <g id="text_10">
      <!-- $\mathdefault{−0.005}$ -->
      <g transform="translate(20.158507 193.519145) scale(0.1 -0.1)">
       <use xlink:href="#CMSY10-0" transform="scale(0.996264)"/>
       <use xlink:href="#CMR17-30" transform="translate(77.487468 0) scale(0.996264)"/>
       <use xlink:href="#CMMI12-3a" transform="translate(123.177945 0) scale(0.996264)"/>
       <use xlink:href="#CMR17-30" transform="translate(150.275122 0) scale(0.996264)"/>
       <use xlink:href="#CMR17-30" transform="translate(195.965599 0) scale(0.996264)"/>
       <use xlink:href="#CMR17-35" transform="translate(241.656076 0) scale(0.996264)"/>
      </g>
     </g>
    </g>
    <g id="ytick_5">
     <g id="line2d_19">
      <path d="M 57.6 156.009096 
L 414.72 156.009096 
" clip-path="url(#pab4e7ea747)" style="fill: none; stroke: #b0b0b0; stroke-width: 0.8; stroke-linecap: square"/>
     </g>
     <g id="line2d_20">
      <g>
       <use xlink:href="#m6bd9b55c08" x="57.6" y="156.009096" style="stroke: #000000; stroke-width: 0.8"/>
      </g>
     </g>
     <g id="text_11">
      <!-- $\mathdefault{0.000}$ -->
      <g transform="translate(27.907251 159.468345) scale(0.1 -0.1)">
       <use xlink:href="#CMR17-30" transform="scale(0.996264)"/>
       <use xlink:href="#CMMI12-3a" transform="translate(45.690477 0) scale(0.996264)"/>
       <use xlink:href="#CMR17-30" transform="translate(72.787654 0) scale(0.996264)"/>
       <use xlink:href="#CMR17-30" transform="translate(118.478131 0) scale(0.996264)"/>
       <use xlink:href="#CMR17-30" transform="translate(164.168608 0) scale(0.996264)"/>
      </g>
     </g>
    </g>
    <g id="ytick_6">
     <g id="line2d_21">
      <path d="M 57.6 121.958295 
L 414.72 121.958295 
" clip-path="url(#pab4e7ea747)" style="fill: none; stroke: #b0b0b0; stroke-width: 0.8; stroke-linecap: square"/>
     </g>
     <g id="line2d_22">
      <g>
       <use xlink:href="#m6bd9b55c08" x="57.6" y="121.958295" style="stroke: #000000; stroke-width: 0.8"/>
      </g>
     </g>
     <g id="text_12">
      <!-- $\mathdefault{0.005}$ -->
      <g transform="translate(27.907251 125.417544) scale(0.1 -0.1)">
       <use xlink:href="#CMR17-30" transform="scale(0.996264)"/>
       <use xlink:href="#CMMI12-3a" transform="translate(45.690477 0) scale(0.996264)"/>
       <use xlink:href="#CMR17-30" transform="translate(72.787654 0) scale(0.996264)"/>
       <use xlink:href="#CMR17-30" transform="translate(118.478131 0) scale(0.996264)"/>
       <use xlink:href="#CMR17-35" transform="translate(164.168608 0) scale(0.996264)"/>
      </g>
     </g>
    </g>
    <g id="ytick_7">
     <g id="line2d_23">
      <path d="M 57.6 87.907495 
L 414.72 87.907495 
" clip-path="url(#pab4e7ea747)" style="fill: none; stroke: #b0b0b0; stroke-width: 0.8; stroke-linecap: square"/>
     </g>
     <g id="line2d_24">
      <g>
       <use xlink:href="#m6bd9b55c08" x="57.6" y="87.907495" style="stroke: #000000; stroke-width: 0.8"/>
      </g>
     </g>
     <g id="text_13">
      <!-- $\mathdefault{0.010}$ -->
      <g transform="translate(27.907251 91.366744) scale(0.1 -0.1)">
       <use xlink:href="#CMR17-30" transform="scale(0.996264)"/>
       <use xlink:href="#CMMI12-3a" transform="translate(45.690477 0) scale(0.996264)"/>
       <use xlink:href="#CMR17-30" transform="translate(72.787654 0) scale(0.996264)"/>
       <use xlink:href="#CMR17-31" transform="translate(118.478131 0) scale(0.996264)"/>
       <use xlink:href="#CMR17-30" transform="translate(164.168608 0) scale(0.996264)"/>
      </g>
     </g>
    </g>
    <g id="ytick_8">
     <g id="line2d_25">
      <path d="M 57.6 53.856694 
L 414.72 53.856694 
" clip-path="url(#pab4e7ea747)" style="fill: none; stroke: #b0b0b0; stroke-width: 0.8; stroke-linecap: square"/>
     </g>
     <g id="line2d_26">
      <g>
       <use xlink:href="#m6bd9b55c08" x="57.6" y="53.856694" style="stroke: #000000; stroke-width: 0.8"/>
      </g>
     </g>
     <g id="text_14">
      <!-- $\mathdefault{0.015}$ -->
      <g transform="translate(27.907251 57.315943) scale(0.1 -0.1)">
       <use xlink:href="#CMR17-30" transform="scale(0.996264)"/>
       <use xlink:href="#CMMI12-3a" transform="translate(45.690477 0) scale(0.996264)"/>
       <use xlink:href="#CMR17-30" transform="translate(72.787654 0) scale(0.996264)"/>
       <use xlink:href="#CMR17-31" transform="translate(118.478131 0) scale(0.996264)"/>
       <use xlink:href="#CMR17-35" transform="translate(164.168608 0) scale(0.996264)"/>
      </g>
     </g>
    </g>
    <g id="text_15">
     <!-- y [m] -->
     <g transform="translate(13.667847 185.32087) rotate(-90) scale(0.1 -0.1)">
      <defs>
       <path id="CMSS17-79" d="M 2675 2752 
L 2176 2752 
C 1632 1294 1446 702 1434 383 
L 1427 383 
C 1408 696 1126 1460 902 2007 
L 602 2752 
L 83 2752 
L 1216 13 
C 1146 -178 1043 -465 1011 -529 
C 870 -885 774 -885 672 -885 
C 646 -885 442 -885 211 -809 
L 250 -1229 
C 410 -1261 570 -1280 685 -1280 
C 845 -1280 1165 -1280 1459 -497 
L 2675 2752 
z
" transform="scale(0.015625)"/>
      </defs>
      <use xlink:href="#CMSS17-79" transform="scale(0.996264)"/>
      <use xlink:href="#CMSS17-5b" transform="translate(74.229254 0) scale(0.996264)"/>
      <use xlink:href="#CMSS17-6d" transform="translate(101.414693 0) scale(0.996264)"/>
      <use xlink:href="#CMSS17-5d" transform="translate(175.643948 0) scale(0.996264)"/>
     </g>
    </g>
   </g>
   <g id="line2d_27">
    <path d="M 238.045455 153.538889 
L 238.831415 153.973753 
L 239.575245 154.687014 
L 240.265215 155.667423 
L 240.890443 156.899518 
L 241.441069 158.36387 
L 241.908409 160.037384 
L 242.285094 161.893668 
L 242.565182 163.903447 
L 242.744257 166.035026 
L 242.819493 168.254788 
L 242.789706 170.527727 
L 242.655365 172.817997 
L 242.418587 175.089479 
L 242.083108 177.30635 
L 241.654218 179.433649 
L 241.138681 181.437827 
L 240.544627 183.287278 
L 239.881425 184.952833 
L 239.159534 186.408228 
L 238.390338 187.630507 
L 237.585969 188.600397 
L 236.759111 189.302601 
L 235.922805 189.726045 
L 235.090239 189.864051 
L 234.274545 189.714443 
L 233.488585 189.279579 
L 232.744755 188.566318 
L 232.054785 187.585909 
L 231.429557 186.353813 
L 230.878931 184.889462 
L 230.411591 183.215948 
L 230.034906 181.359664 
L 229.754818 179.349885 
L 229.575743 177.218306 
L 229.500507 174.998544 
L 229.530294 172.725605 
L 229.664635 170.435335 
L 229.901413 168.163853 
L 230.236892 165.946982 
L 230.665782 163.819683 
L 231.181319 161.815505 
L 231.775373 159.966054 
L 232.438575 158.300498 
L 233.160466 156.845104 
L 233.929662 155.622824 
L 234.734031 154.652934 
L 235.560889 153.95073 
L 236.397195 153.527287 
L 237.229761 153.389281 
L 238.045455 153.538889 
" clip-path="url(#pab4e7ea747)" style="fill: none; stroke: #0000ff; stroke-width: 1.5; stroke-linecap: square"/>
   </g>
   <g id="line2d_28">
    <path d="M 159.602203 99.199913 
L 161.424796 95.260498 
L 164.426008 92.525422 
L 168.558508 91.03782 
L 173.757124 90.821153 
L 179.939871 91.878836 
L 187.009242 94.194191 
L 194.853751 97.730702 
L 203.349683 102.432596 
L 212.363054 108.225723 
L 221.751717 115.01872 
L 231.367608 122.704458 
L 241.059077 131.161729 
L 250.673284 140.257155 
L 260.058609 149.847298 
L 269.067038 159.780915 
L 277.556504 169.901346 
L 285.393122 180.048986 
L 292.453304 190.063801 
L 298.625707 199.787852 
L 303.812989 209.067784 
L 307.933342 217.757247 
L 310.921788 225.719203 
L 312.731195 232.828088 
L 313.333028 238.97179 
L 312.717797 244.053419 
L 310.895204 247.992834 
L 307.893992 250.72791 
L 303.761492 252.215512 
L 298.562876 252.432179 
L 292.380129 251.374496 
L 285.310758 249.059141 
L 277.466249 245.52263 
L 268.970317 240.820735 
L 259.956946 235.027609 
L 250.568283 228.234612 
L 240.952392 220.548874 
L 231.260923 212.091603 
L 221.646716 202.996176 
L 212.261391 193.406034 
L 203.252962 183.472417 
L 194.763496 173.351986 
L 186.926878 163.204346 
L 179.866696 153.189531 
L 173.694293 143.46548 
L 168.507011 134.185548 
L 164.386658 125.496085 
L 161.398212 117.534129 
L 159.588805 110.425244 
L 158.986972 104.281542 
L 159.602203 99.199913 
" clip-path="url(#pab4e7ea747)" style="fill: none; stroke: #008000; stroke-width: 1.5; stroke-linecap: square"/>
   </g>
   <g id="line2d_29">
    <defs>
     <path id="m22ea882b3f" d="M 0 1.5 
C 0.397805 1.5 0.77937 1.341951 1.06066 1.06066 
C 1.341951 0.77937 1.5 0.397805 1.5 0 
C 1.5 -0.397805 1.341951 -0.77937 1.06066 -1.06066 
C 0.77937 -1.341951 0.397805 -1.5 0 -1.5 
C -0.397805 -1.5 -0.77937 -1.341951 -1.06066 -1.06066 
C -1.341951 -0.77937 -1.5 -0.397805 -1.5 0 
C -1.5 0.397805 -1.341951 0.77937 -1.06066 1.06066 
C -0.77937 1.341951 -0.397805 1.5 0 1.5 
z
" style="stroke: #ff0000"/>
    </defs>
    <g clip-path="url(#pab4e7ea747)">
     <use xlink:href="#m22ea882b3f" x="163.955777" y="223.532519" style="fill: #ff0000; stroke: #ff0000"/>
     <use xlink:href="#m22ea882b3f" x="246.549039" y="101.195968" style="fill: #ff0000; stroke: #ff0000"/>
     <use xlink:href="#m22ea882b3f" x="186.223622" y="166.417079" style="fill: #ff0000; stroke: #ff0000"/>
     <use xlink:href="#m22ea882b3f" x="376.249989" y="139.509368" style="fill: #ff0000; stroke: #ff0000"/>
     <use xlink:href="#m22ea882b3f" x="289.396265" y="116.130949" style="fill: #ff0000; stroke: #ff0000"/>
     <use xlink:href="#m22ea882b3f" x="206.301378" y="85.767116" style="fill: #ff0000; stroke: #ff0000"/>
     <use xlink:href="#m22ea882b3f" x="354.232014" y="295.488" style="fill: #ff0000; stroke: #ff0000"/>
     <use xlink:href="#m22ea882b3f" x="272.37517" y="205.929362" style="fill: #ff0000; stroke: #ff0000"/>
     <use xlink:href="#m22ea882b3f" x="187.516747" y="129.396148" style="fill: #ff0000; stroke: #ff0000"/>
     <use xlink:href="#m22ea882b3f" x="195.943656" y="149.055617" style="fill: #ff0000; stroke: #ff0000"/>
     <use xlink:href="#m22ea882b3f" x="213.828731" y="223.084463" style="fill: #ff0000; stroke: #ff0000"/>
     <use xlink:href="#m22ea882b3f" x="273.986103" y="159.686821" style="fill: #ff0000; stroke: #ff0000"/>
     <use xlink:href="#m22ea882b3f" x="315.799861" y="175.941455" style="fill: #ff0000; stroke: #ff0000"/>
     <use xlink:href="#m22ea882b3f" x="239.390906" y="145.665473" style="fill: #ff0000; stroke: #ff0000"/>
     <use xlink:href="#m22ea882b3f" x="266.659819" y="131.703291" style="fill: #ff0000; stroke: #ff0000"/>
     <use xlink:href="#m22ea882b3f" x="264.98436" y="172.889437" style="fill: #ff0000; stroke: #ff0000"/>
     <use xlink:href="#m22ea882b3f" x="315.363282" y="82.656706" style="fill: #ff0000; stroke: #ff0000"/>
     <use xlink:href="#m22ea882b3f" x="267.802416" y="166.551061" style="fill: #ff0000; stroke: #ff0000"/>
     <use xlink:href="#m22ea882b3f" x="193.89968" y="207.351888" style="fill: #ff0000; stroke: #ff0000"/>
     <use xlink:href="#m22ea882b3f" x="220.899356" y="206.744917" style="fill: #ff0000; stroke: #ff0000"/>
     <use xlink:href="#m22ea882b3f" x="243.813386" y="149.13738" style="fill: #ff0000; stroke: #ff0000"/>
     <use xlink:href="#m22ea882b3f" x="185.039047" y="172.638495" style="fill: #ff0000; stroke: #ff0000"/>
     <use xlink:href="#m22ea882b3f" x="211.417212" y="188.214846" style="fill: #ff0000; stroke: #ff0000"/>
     <use xlink:href="#m22ea882b3f" x="301.352004" y="150.357011" style="fill: #ff0000; stroke: #ff0000"/>
     <use xlink:href="#m22ea882b3f" x="275.296419" y="187.956184" style="fill: #ff0000; stroke: #ff0000"/>
     <use xlink:href="#m22ea882b3f" x="303.616575" y="151.424092" style="fill: #ff0000; stroke: #ff0000"/>
     <use xlink:href="#m22ea882b3f" x="209.643363" y="112.543197" style="fill: #ff0000; stroke: #ff0000"/>
     <use xlink:href="#m22ea882b3f" x="271.348203" y="154.063281" style="fill: #ff0000; stroke: #ff0000"/>
     <use xlink:href="#m22ea882b3f" x="209.169243" y="216.809814" style="fill: #ff0000; stroke: #ff0000"/>
     <use xlink:href="#m22ea882b3f" x="195.180058" y="194.306981" style="fill: #ff0000; stroke: #ff0000"/>
     <use xlink:href="#m22ea882b3f" x="281.752965" y="160.902143" style="fill: #ff0000; stroke: #ff0000"/>
     <use xlink:href="#m22ea882b3f" x="174.385667" y="204.904277" style="fill: #ff0000; stroke: #ff0000"/>
     <use xlink:href="#m22ea882b3f" x="176.032891" y="186.122148" style="fill: #ff0000; stroke: #ff0000"/>
     <use xlink:href="#m22ea882b3f" x="236.398504" y="153.669185" style="fill: #ff0000; stroke: #ff0000"/>
     <use xlink:href="#m22ea882b3f" x="212.852482" y="165.835031" style="fill: #ff0000; stroke: #ff0000"/>
     <use xlink:href="#m22ea882b3f" x="317.926071" y="121.900975" style="fill: #ff0000; stroke: #ff0000"/>
     <use xlink:href="#m22ea882b3f" x="255.555959" y="181.242646" style="fill: #ff0000; stroke: #ff0000"/>
     <use xlink:href="#m22ea882b3f" x="236.4473" y="182.710032" style="fill: #ff0000; stroke: #ff0000"/>
     <use xlink:href="#m22ea882b3f" x="188.715761" y="154.357251" style="fill: #ff0000; stroke: #ff0000"/>
     <use xlink:href="#m22ea882b3f" x="209.669146" y="159.016575" style="fill: #ff0000; stroke: #ff0000"/>
     <use xlink:href="#m22ea882b3f" x="178.080516" y="113.494421" style="fill: #ff0000; stroke: #ff0000"/>
     <use xlink:href="#m22ea882b3f" x="279.73741" y="208.397245" style="fill: #ff0000; stroke: #ff0000"/>
     <use xlink:href="#m22ea882b3f" x="236.23162" y="120.219283" style="fill: #ff0000; stroke: #ff0000"/>
     <use xlink:href="#m22ea882b3f" x="218.392269" y="163.709677" style="fill: #ff0000; stroke: #ff0000"/>
     <use xlink:href="#m22ea882b3f" x="321.210858" y="173.142193" style="fill: #ff0000; stroke: #ff0000"/>
     <use xlink:href="#m22ea882b3f" x="276.261316" y="197.690462" style="fill: #ff0000; stroke: #ff0000"/>
     <use xlink:href="#m22ea882b3f" x="273.785537" y="185.160538" style="fill: #ff0000; stroke: #ff0000"/>
     <use xlink:href="#m22ea882b3f" x="229.88081" y="157.516736" style="fill: #ff0000; stroke: #ff0000"/>
     <use xlink:href="#m22ea882b3f" x="251.257855" y="217.280194" style="fill: #ff0000; stroke: #ff0000"/>
     <use xlink:href="#m22ea882b3f" x="293.654603" y="179.246044" style="fill: #ff0000; stroke: #ff0000"/>
     <use xlink:href="#m22ea882b3f" x="278.440156" y="204.923411" style="fill: #ff0000; stroke: #ff0000"/>
     <use xlink:href="#m22ea882b3f" x="231.834796" y="71.85149" style="fill: #ff0000; stroke: #ff0000"/>
     <use xlink:href="#m22ea882b3f" x="245.841647" y="222.471349" style="fill: #ff0000; stroke: #ff0000"/>
     <use xlink:href="#m22ea882b3f" x="267.064578" y="204.783119" style="fill: #ff0000; stroke: #ff0000"/>
     <use xlink:href="#m22ea882b3f" x="248.359983" y="200.477822" style="fill: #ff0000; stroke: #ff0000"/>
     <use xlink:href="#m22ea882b3f" x="277.403107" y="155.359871" style="fill: #ff0000; stroke: #ff0000"/>
     <use xlink:href="#m22ea882b3f" x="145.009961" y="148.938613" style="fill: #ff0000; stroke: #ff0000"/>
     <use xlink:href="#m22ea882b3f" x="164.573628" y="187.479973" style="fill: #ff0000; stroke: #ff0000"/>
     <use xlink:href="#m22ea882b3f" x="157.972703" y="190.27207" style="fill: #ff0000; stroke: #ff0000"/>
     <use xlink:href="#m22ea882b3f" x="315.875513" y="116.179827" style="fill: #ff0000; stroke: #ff0000"/>
     <use xlink:href="#m22ea882b3f" x="201.574079" y="148.009922" style="fill: #ff0000; stroke: #ff0000"/>
     <use xlink:href="#m22ea882b3f" x="147.795513" y="172.219654" style="fill: #ff0000; stroke: #ff0000"/>
     <use xlink:href="#m22ea882b3f" x="162.672881" y="185.730671" style="fill: #ff0000; stroke: #ff0000"/>
     <use xlink:href="#m22ea882b3f" x="209.07412" y="192.6794" style="fill: #ff0000; stroke: #ff0000"/>
     <use xlink:href="#m22ea882b3f" x="292.215569" y="222.078584" style="fill: #ff0000; stroke: #ff0000"/>
     <use xlink:href="#m22ea882b3f" x="229.674541" y="120.064219" style="fill: #ff0000; stroke: #ff0000"/>
     <use xlink:href="#m22ea882b3f" x="146.823751" y="160.344387" style="fill: #ff0000; stroke: #ff0000"/>
     <use xlink:href="#m22ea882b3f" x="213.768506" y="187.472349" style="fill: #ff0000; stroke: #ff0000"/>
     <use xlink:href="#m22ea882b3f" x="184.332311" y="234.646128" style="fill: #ff0000; stroke: #ff0000"/>
     <use xlink:href="#m22ea882b3f" x="210.681451" y="106.462897" style="fill: #ff0000; stroke: #ff0000"/>
     <use xlink:href="#m22ea882b3f" x="160.028087" y="211.842766" style="fill: #ff0000; stroke: #ff0000"/>
     <use xlink:href="#m22ea882b3f" x="275.572788" y="141.030938" style="fill: #ff0000; stroke: #ff0000"/>
     <use xlink:href="#m22ea882b3f" x="280.596228" y="199.353146" style="fill: #ff0000; stroke: #ff0000"/>
     <use xlink:href="#m22ea882b3f" x="130.812982" y="147.988006" style="fill: #ff0000; stroke: #ff0000"/>
     <use xlink:href="#m22ea882b3f" x="255.638075" y="260.72035" style="fill: #ff0000; stroke: #ff0000"/>
     <use xlink:href="#m22ea882b3f" x="161.39294" y="149.532055" style="fill: #ff0000; stroke: #ff0000"/>
     <use xlink:href="#m22ea882b3f" x="214.084095" y="225.725564" style="fill: #ff0000; stroke: #ff0000"/>
     <use xlink:href="#m22ea882b3f" x="249.217813" y="150.495861" style="fill: #ff0000; stroke: #ff0000"/>
     <use xlink:href="#m22ea882b3f" x="210.537995" y="142.076614" style="fill: #ff0000; stroke: #ff0000"/>
     <use xlink:href="#m22ea882b3f" x="188.534029" y="242.469183" style="fill: #ff0000; stroke: #ff0000"/>
     <use xlink:href="#m22ea882b3f" x="234.482498" y="194.848213" style="fill: #ff0000; stroke: #ff0000"/>
     <use xlink:href="#m22ea882b3f" x="145.371102" y="135.514053" style="fill: #ff0000; stroke: #ff0000"/>
     <use xlink:href="#m22ea882b3f" x="227.145549" y="199.463716" style="fill: #ff0000; stroke: #ff0000"/>
     <use xlink:href="#m22ea882b3f" x="253.856877" y="210.594272" style="fill: #ff0000; stroke: #ff0000"/>
     <use xlink:href="#m22ea882b3f" x="256.244619" y="187.437892" style="fill: #ff0000; stroke: #ff0000"/>
     <use xlink:href="#m22ea882b3f" x="138.242667" y="183.803262" style="fill: #ff0000; stroke: #ff0000"/>
     <use xlink:href="#m22ea882b3f" x="278.510315" y="135.539342" style="fill: #ff0000; stroke: #ff0000"/>
     <use xlink:href="#m22ea882b3f" x="278.678463" y="195.922416" style="fill: #ff0000; stroke: #ff0000"/>
     <use xlink:href="#m22ea882b3f" x="345.002524" y="167.8363" style="fill: #ff0000; stroke: #ff0000"/>
     <use xlink:href="#m22ea882b3f" x="286.644092" y="161.626559" style="fill: #ff0000; stroke: #ff0000"/>
     <use xlink:href="#m22ea882b3f" x="277.036051" y="157.314733" style="fill: #ff0000; stroke: #ff0000"/>
     <use xlink:href="#m22ea882b3f" x="290.731501" y="152.119636" style="fill: #ff0000; stroke: #ff0000"/>
     <use xlink:href="#m22ea882b3f" x="294.294626" y="205.794475" style="fill: #ff0000; stroke: #ff0000"/>
     <use xlink:href="#m22ea882b3f" x="145.047743" y="183.342138" style="fill: #ff0000; stroke: #ff0000"/>
     <use xlink:href="#m22ea882b3f" x="218.033301" y="163.33142" style="fill: #ff0000; stroke: #ff0000"/>
     <use xlink:href="#m22ea882b3f" x="181.827812" y="173.133494" style="fill: #ff0000; stroke: #ff0000"/>
     <use xlink:href="#m22ea882b3f" x="291.658009" y="141.576916" style="fill: #ff0000; stroke: #ff0000"/>
     <use xlink:href="#m22ea882b3f" x="272.127013" y="145.513939" style="fill: #ff0000; stroke: #ff0000"/>
     <use xlink:href="#m22ea882b3f" x="285.107428" y="221.792373" style="fill: #ff0000; stroke: #ff0000"/>
     <use xlink:href="#m22ea882b3f" x="153.492425" y="193.595697" style="fill: #ff0000; stroke: #ff0000"/>
    </g>
   </g>
   <g id="line2d_30">
    <path d="M 73.832727 175.123819 
L 75.021657 160.297889 
L 78.751834 145.650621 
L 84.964433 131.413011 
L 93.561475 117.809593 
L 104.407382 105.054903 
L 117.331106 93.35009 
L 132.128833 82.879745 
L 148.567194 73.808992 
L 166.386945 66.280882 
L 185.307059 60.414138 
L 205.029154 56.301282 
L 225.242202 54.007176 
L 245.627429 53.568 
L 265.86335 54.99068 
L 285.630831 58.252778 
L 304.618127 63.302851 
L 322.525798 70.061255 
L 339.071429 78.421406 
L 353.994085 88.25146 
L 367.058427 99.39639 
L 378.058422 111.680435 
L 386.820595 124.909868 
L 393.20676 138.876053 
L 397.116204 153.358735 
L 398.487273 168.129512 
L 397.298343 182.955442 
L 393.568166 197.602711 
L 387.355567 211.840321 
L 378.758525 225.443739 
L 367.912618 238.198428 
L 354.988894 249.903242 
L 340.191167 260.373587 
L 323.752806 269.44434 
L 305.933055 276.97245 
L 287.012941 282.839194 
L 267.290846 286.95205 
L 247.077798 289.246156 
L 226.692571 289.685332 
L 206.45665 288.262652 
L 186.689169 285.000554 
L 167.701873 279.950481 
L 149.794202 273.192077 
L 133.248571 264.831926 
L 118.325915 255.001872 
L 105.261573 243.856942 
L 94.261578 231.572897 
L 85.499405 218.343464 
L 79.11324 204.377279 
L 75.203796 189.894597 
L 73.832727 175.123819 
" clip-path="url(#pab4e7ea747)" style="fill: none; stroke: #ff0000; stroke-width: 1.5; stroke-linecap: square"/>
   </g>
   <g id="patch_6">
    <path d="M 57.6 307.584 
L 57.6 41.472 
" style="fill: none; stroke: #000000; stroke-width: 0.8; stroke-linejoin: miter; stroke-linecap: square"/>
   </g>
   <g id="patch_7">
    <path d="M 414.72 307.584 
L 414.72 41.472 
" style="fill: none; stroke: #000000; stroke-width: 0.8; stroke-linejoin: miter; stroke-linecap: square"/>
   </g>
   <g id="patch_8">
    <path d="M 57.6 307.584 
L 414.72 307.584 
" style="fill: none; stroke: #000000; stroke-width: 0.8; stroke-linejoin: miter; stroke-linecap: square"/>
   </g>
   <g id="patch_9">
    <path d="M 57.6 41.472 
L 414.72 41.472 
" style="fill: none; stroke: #000000; stroke-width: 0.8; stroke-linejoin: miter; stroke-linecap: square"/>
   </g>
   <g id="legend_1">
    <g id="patch_10">
     <path d="M 64.6 302.584 
L 173.357417 302.584 
Q 175.357417 302.584 175.357417 300.584 
L 175.357417 245.835287 
Q 175.357417 243.835287 173.357417 243.835287 
L 64.6 243.835287 
Q 62.6 243.835287 62.6 245.835287 
L 62.6 300.584 
Q 62.6 302.584 64.6 302.584 
z
" style="fill: #ffffff; opacity: 0.8; stroke: #cccccc; stroke-linejoin: miter"/>
    </g>
    <g id="line2d_31">
     <path d="M 66.6 251.335287 
L 76.6 251.335287 
L 86.6 251.335287 
" style="fill: none; stroke: #0000ff; stroke-width: 1.5; stroke-linecap: square"/>
    </g>
    <g id="text_16">
     <!-- Censi's cov $3\sigma$. -->
     <g transform="translate(94.6 254.835287) scale(0.1 -0.1)">
      <defs>
       <path id="CMSS17-43" d="M 3501 714 
C 3072 427 2874 344 2355 344 
C 1459 344 934 1303 934 2179 
C 934 3112 1472 4032 2381 4032 
C 2790 4032 3059 3918 3386 3715 
L 3475 4217 
C 3168 4370 2778 4440 2387 4440 
C 1158 4440 397 3316 397 2179 
C 397 927 1299 -64 2323 -64 
C 2874 -64 3066 -19 3539 280 
L 3501 714 
z
" transform="scale(0.015625)"/>
       <path id="CMSS17-65" d="M 2502 1377 
C 2502 1590 2490 2003 2285 2345 
C 2061 2713 1696 2816 1421 2816 
C 755 2816 192 2188 192 1375 
C 192 582 774 -64 1510 -64 
C 1798 -64 2150 19 2470 248 
C 2470 274 2458 414 2451 420 
C 2451 433 2432 630 2432 656 
C 2125 407 1773 325 1517 325 
C 1107 325 666 667 646 1377 
L 2502 1377 
z
M 698 1728 
C 781 2084 1062 2421 1421 2421 
C 1517 2421 1965 2421 2080 1728 
L 698 1728 
z
" transform="scale(0.015625)"/>
       <path id="CMSS17-6e" d="M 2618 1877 
C 2618 2283 2522 2816 1798 2816 
C 1389 2816 1120 2606 941 2389 
L 941 2758 
L 474 2758 
L 474 0 
L 960 0 
L 960 1559 
C 960 1964 1114 2428 1549 2428 
C 2112 2428 2131 2048 2131 1829 
L 2131 0 
L 2618 0 
L 2618 1877 
z
" transform="scale(0.015625)"/>
       <path id="CMSS17-73" d="M 2061 2627 
C 1683 2807 1389 2807 1197 2807 
C 742 2807 198 2648 198 2003 
C 198 1359 902 1218 1094 1179 
C 1389 1122 1715 1058 1715 740 
C 1715 337 1254 337 1171 337 
C 915 337 563 407 243 638 
L 166 210 
C 531 0 883 -64 1178 -64 
C 1965 -64 2163 416 2163 781 
C 2163 1094 1984 1305 1862 1401 
C 1651 1568 1574 1587 1050 1696 
C 960 1709 646 1779 646 2066 
C 646 2432 1050 2432 1139 2432 
C 1555 2432 1811 2303 1984 2208 
L 2061 2627 
z
" transform="scale(0.015625)"/>
       <path id="CMSS17-69" d="M 979 4183 
L 442 4183 
L 442 3648 
L 979 3648 
L 979 4183 
z
M 947 2739 
L 474 2739 
L 474 0 
L 947 0 
L 947 2739 
z
" transform="scale(0.015625)"/>
       <path id="CMSS17-27" d="M 1088 3910 
L 1088 4413 
L 576 4413 
L 576 3904 
L 736 3904 
L 570 3104 
L 826 3104 
L 1088 3910 
z
" transform="scale(0.015625)"/>
       <path id="CMSS17-63" d="M 2464 2541 
C 2464 2585 2170 2714 2093 2739 
C 1882 2816 1613 2816 1542 2816 
C 710 2816 211 2093 211 1363 
C 211 595 768 -64 1517 -64 
C 1946 -64 2253 76 2502 242 
L 2464 664 
C 2189 453 1869 337 1523 337 
C 1024 337 698 774 698 1369 
C 698 1831 909 2414 1549 2414 
C 1901 2414 2099 2343 2394 2145 
L 2464 2541 
z
" transform="scale(0.015625)"/>
       <path id="CMSS17-6f" d="M 2829 1356 
C 2829 2176 2221 2816 1504 2816 
C 768 2816 173 2157 173 1356 
C 173 544 787 -64 1498 -64 
C 2227 -64 2829 563 2829 1356 
z
M 1504 337 
C 1050 337 659 709 659 1408 
C 659 2151 1114 2427 1498 2427 
C 1914 2427 2342 2126 2342 1408 
C 2342 683 1926 337 1504 337 
z
" transform="scale(0.015625)"/>
       <path id="CMSS17-76" d="M 2675 2752 
L 2176 2752 
L 1747 1556 
C 1613 1165 1421 627 1389 352 
L 1382 352 
C 1370 468 1318 634 1286 749 
C 1248 890 1197 1056 1158 1172 
L 595 2752 
L 83 2752 
L 1094 0 
L 1664 0 
L 2675 2752 
z
" transform="scale(0.015625)"/>
       <path id="CMR17-33" d="M 1414 2157 
C 1984 2157 2234 1662 2234 1090 
C 2234 320 1824 25 1453 25 
C 1114 25 563 194 390 693 
C 422 680 454 680 486 680 
C 640 680 755 782 755 948 
C 755 1133 614 1216 486 1216 
C 378 1216 211 1165 211 926 
C 211 335 787 -128 1466 -128 
C 2176 -128 2720 430 2720 1085 
C 2720 1707 2208 2157 1600 2227 
C 2086 2328 2554 2756 2554 3329 
C 2554 3820 2048 4179 1472 4179 
C 890 4179 378 3829 378 3329 
C 378 3110 544 3072 627 3072 
C 762 3072 877 3155 877 3321 
C 877 3486 762 3569 627 3569 
C 602 3569 570 3569 544 3557 
C 730 3959 1235 4032 1459 4032 
C 1683 4032 2106 3925 2106 3320 
C 2106 3143 2080 2828 1862 2550 
C 1670 2304 1453 2304 1242 2284 
C 1210 2284 1062 2269 1037 2269 
C 992 2263 966 2257 966 2208 
C 966 2163 973 2157 1101 2157 
L 1414 2157 
z
" transform="scale(0.015625)"/>
       <path id="CMMI12-1b" d="M 3251 2408 
C 3334 2408 3546 2408 3546 2612 
C 3546 2752 3424 2752 3309 2752 
L 1894 2752 
C 934 2752 243 1686 243 932 
C 243 390 595 -64 1171 -64 
C 1926 -64 2752 747 2752 1705 
C 2752 1954 2694 2196 2541 2408 
L 3251 2408 
z
M 1178 64 
C 851 64 614 313 614 754 
C 614 1137 845 2408 1786 2408 
C 2061 2408 2368 2274 2368 1781 
C 2368 1558 2266 1021 2042 652 
C 1811 275 1466 64 1178 64 
z
" transform="scale(0.015625)"/>
       <path id="CMSS17-2e" d="M 1088 510 
L 576 510 
L 576 0 
L 1088 0 
L 1088 510 
z
" transform="scale(0.015625)"/>
      </defs>
      <use xlink:href="#CMSS17-43" transform="scale(0.996264)"/>
      <use xlink:href="#CMSS17-65" transform="translate(59.855772 0) scale(0.996264)"/>
      <use xlink:href="#CMSS17-6e" transform="translate(101.494594 0) scale(0.996264)"/>
      <use xlink:href="#CMSS17-73" transform="translate(149.699537 0) scale(0.996264)"/>
      <use xlink:href="#CMSS17-69" transform="translate(185.613079 0) scale(0.996264)"/>
      <use xlink:href="#CMSS17-27" transform="translate(207.793802 0) scale(0.996264)"/>
      <use xlink:href="#CMSS17-73" transform="translate(233.818007 0) scale(0.996264)"/>
      <use xlink:href="#CMSS17-63" transform="translate(300.960661 0) scale(0.996264)"/>
      <use xlink:href="#CMSS17-6f" transform="translate(342.599484 0) scale(0.996264)"/>
      <use xlink:href="#CMSS17-76" transform="translate(389.443107 0) scale(0.996264)"/>
      <use xlink:href="#CMR17-33" transform="translate(463.672361 0) scale(0.996264)"/>
      <use xlink:href="#CMMI12-1b" transform="translate(509.362839 0) scale(0.996264)"/>
      <use xlink:href="#CMSS17-2e" transform="translate(568.382892 0) scale(0.996264)"/>
     </g>
    </g>
    <g id="line2d_32">
     <path d="M 66.6 265.272465 
L 76.6 265.272465 
L 86.6 265.272465 
" style="fill: none; stroke: #008000; stroke-width: 1.5; stroke-linecap: square"/>
    </g>
    <g id="text_17">
     <!-- Brossard's cov $3\sigma$. -->
     <g transform="translate(94.6 268.772465) scale(0.1 -0.1)">
      <defs>
       <path id="CMSS17-42" d="M 570 4416 
L 570 0 
L 2163 0 
C 3034 0 3667 574 3667 1200 
C 3667 1685 3251 2176 2502 2317 
C 3334 2558 3501 3040 3501 3313 
C 3501 3883 2874 4416 1997 4416 
L 570 4416 
z
M 1088 2496 
L 1088 4059 
L 1824 4059 
C 2483 4059 3002 3724 3002 3306 
C 3002 2926 2592 2496 1766 2496 
L 1088 2496 
z
M 1088 357 
L 1088 2107 
L 1939 2107 
C 2630 2107 3162 1679 3162 1206 
C 3162 772 2694 357 1984 357 
L 1088 357 
z
" transform="scale(0.015625)"/>
       <path id="CMSS17-72" d="M 954 1363 
C 954 1965 1395 2368 1958 2368 
L 1958 2789 
C 1549 2789 1165 2585 934 2253 
L 934 2758 
L 480 2758 
L 480 0 
L 954 0 
L 954 1363 
z
" transform="scale(0.015625)"/>
       <path id="CMSS17-61" d="M 2406 1791 
C 2406 2392 1978 2808 1402 2808 
C 1120 2808 813 2757 461 2553 
L 499 2135 
C 659 2248 934 2432 1395 2432 
C 1722 2432 1920 2180 1920 1782 
L 1920 1536 
C 896 1536 256 1238 256 726 
C 256 461 416 -64 947 -64 
C 1043 -64 1562 -64 1933 217 
L 1933 -19 
L 2406 -19 
L 2406 1791 
z
M 1920 816 
C 1920 701 1920 548 1728 434 
C 1562 325 1350 325 1261 325 
C 941 325 723 511 723 744 
C 723 1211 1722 1211 1920 1211 
L 1920 816 
z
" transform="scale(0.015625)"/>
       <path id="CMSS17-64" d="M 2611 4416 
L 2138 4416 
L 2138 2438 
C 1939 2603 1613 2756 1254 2756 
C 672 2756 211 2131 211 1347 
C 211 562 666 -64 1235 -64 
C 1677 -64 1971 172 2125 306 
L 2125 -13 
L 2611 -13 
L 2611 4416 
z
M 2125 836 
C 2125 747 2125 653 1926 482 
C 1798 375 1645 325 1498 325 
C 1152 325 698 576 698 1340 
C 698 2134 1210 2368 1562 2368 
C 1798 2368 1990 2254 2125 2065 
L 2125 836 
z
" transform="scale(0.015625)"/>
      </defs>
      <use xlink:href="#CMSS17-42" transform="scale(0.996264)"/>
      <use xlink:href="#CMSS17-72" transform="translate(62.33804 0) scale(0.996264)"/>
      <use xlink:href="#CMSS17-6f" transform="translate(94.247813 0) scale(0.996264)"/>
      <use xlink:href="#CMSS17-73" transform="translate(141.091436 0) scale(0.996264)"/>
      <use xlink:href="#CMSS17-73" transform="translate(177.004978 0) scale(0.996264)"/>
      <use xlink:href="#CMSS17-61" transform="translate(212.91852 0) scale(0.996264)"/>
      <use xlink:href="#CMSS17-72" transform="translate(255.237987 0) scale(0.996264)"/>
      <use xlink:href="#CMSS17-64" transform="translate(287.14776 0) scale(0.996264)"/>
      <use xlink:href="#CMSS17-27" transform="translate(335.352703 0) scale(0.996264)"/>
      <use xlink:href="#CMSS17-73" transform="translate(361.376908 0) scale(0.996264)"/>
      <use xlink:href="#CMSS17-63" transform="translate(428.519562 0) scale(0.996264)"/>
      <use xlink:href="#CMSS17-6f" transform="translate(470.158384 0) scale(0.996264)"/>
      <use xlink:href="#CMSS17-76" transform="translate(517.002008 0) scale(0.996264)"/>
      <use xlink:href="#CMR17-33" transform="translate(591.231262 0) scale(0.996264)"/>
      <use xlink:href="#CMMI12-1b" transform="translate(636.921739 0) scale(0.996264)"/>
      <use xlink:href="#CMSS17-2e" transform="translate(695.941793 0) scale(0.996264)"/>
     </g>
    </g>
    <g id="line2d_33">
     <g>
      <use xlink:href="#m22ea882b3f" x="76.6" y="279.209643" style="fill: #ff0000; stroke: #ff0000"/>
     </g>
    </g>
    <g id="text_18">
     <!-- Samples. -->
     <g transform="translate(94.6 282.709643) scale(0.1 -0.1)">
      <defs>
       <path id="CMSS17-53" d="M 2797 4169 
C 2515 4334 2208 4480 1690 4480 
C 864 4480 333 3879 333 3266 
C 333 3025 403 2753 653 2475 
C 902 2196 1184 2121 1542 2033 
C 1690 1994 1939 1924 1984 1906 
C 2342 1767 2515 1444 2515 1140 
C 2515 742 2202 318 1645 318 
C 1453 318 890 318 358 819 
L 269 318 
C 794 -64 1363 -128 1651 -128 
C 2438 -128 3002 488 3002 1186 
C 3002 1440 2925 1763 2656 2061 
C 2394 2347 2163 2410 1638 2549 
C 1338 2626 1146 2677 986 2873 
C 877 3013 819 3146 819 3317 
C 819 3673 1126 4060 1690 4060 
C 1971 4060 2336 4002 2707 3660 
L 2797 4169 
z
" transform="scale(0.015625)"/>
       <path id="CMSS17-70" d="M 966 333 
C 1178 129 1466 -5 1773 -5 
C 2368 -5 2880 603 2880 1412 
C 2880 2159 2496 2816 1946 2816 
C 1626 2816 1242 2702 954 2472 
L 954 2765 
L 480 2765 
L 480 -1216 
L 966 -1216 
L 966 333 
z
M 966 2100 
C 1018 2176 1235 2415 1587 2415 
C 2035 2415 2394 1960 2394 1412 
C 2394 787 1958 384 1530 384 
C 1402 384 1267 415 1139 523 
C 966 674 966 768 966 857 
L 966 2100 
z
" transform="scale(0.015625)"/>
       <path id="CMSS17-6c" d="M 947 4416 
L 474 4416 
L 474 0 
L 947 0 
L 947 4416 
z
" transform="scale(0.015625)"/>
      </defs>
      <use xlink:href="#CMSS17-53" transform="scale(0.996264)"/>
      <use xlink:href="#CMSS17-61" transform="translate(52.048516 0) scale(0.996264)"/>
      <use xlink:href="#CMSS17-6d" transform="translate(96.970437 0) scale(0.996264)"/>
      <use xlink:href="#CMSS17-70" transform="translate(171.199691 0) scale(0.996264)"/>
      <use xlink:href="#CMSS17-6c" transform="translate(219.404634 0) scale(0.996264)"/>
      <use xlink:href="#CMSS17-65" transform="translate(241.585357 0) scale(0.996264)"/>
      <use xlink:href="#CMSS17-73" transform="translate(283.224179 0) scale(0.996264)"/>
      <use xlink:href="#CMSS17-2e" transform="translate(319.137721 0) scale(0.996264)"/>
     </g>
    </g>
    <g id="line2d_34">
     <path d="M 66.6 293.146822 
L 76.6 293.146822 
L 86.6 293.146822 
" style="fill: none; stroke: #ff0000; stroke-width: 1.5; stroke-linecap: square"/>
    </g>
    <g id="text_19">
     <!-- Sample cov $3\sigma$. -->
     <g transform="translate(94.6 296.646822) scale(0.1 -0.1)">
      <use xlink:href="#CMSS17-53" transform="scale(0.996264)"/>
      <use xlink:href="#CMSS17-61" transform="translate(52.048516 0) scale(0.996264)"/>
      <use xlink:href="#CMSS17-6d" transform="translate(96.970437 0) scale(0.996264)"/>
      <use xlink:href="#CMSS17-70" transform="translate(171.199691 0) scale(0.996264)"/>
      <use xlink:href="#CMSS17-6c" transform="translate(219.404634 0) scale(0.996264)"/>
      <use xlink:href="#CMSS17-65" transform="translate(241.585357 0) scale(0.996264)"/>
      <use xlink:href="#CMSS17-63" transform="translate(314.453292 0) scale(0.996264)"/>
      <use xlink:href="#CMSS17-6f" transform="translate(356.092114 0) scale(0.996264)"/>
      <use xlink:href="#CMSS17-76" transform="translate(402.935738 0) scale(0.996264)"/>
      <use xlink:href="#CMR17-33" transform="translate(477.164992 0) scale(0.996264)"/>
      <use xlink:href="#CMMI12-1b" transform="translate(522.855469 0) scale(0.996264)"/>
      <use xlink:href="#CMSS17-2e" transform="translate(581.875523 0) scale(0.996264)"/>
     </g>
    </g>
   </g>
  </g>
 </g>
 <defs>
  <clipPath id="pab4e7ea747">
   <rect x="57.6" y="41.472" width="357.12" height="266.112"/>
  </clipPath>
 </defs>
</svg>
