<?xml version="1.0" encoding="utf-8" standalone="no"?>
<!DOCTYPE svg PUBLIC "-//W3C//DTD SVG 1.1//EN"
  "http://www.w3.org/Graphics/SVG/1.1/DTD/svg11.dtd">
<svg xmlns:xlink="http://www.w3.org/1999/xlink" width="460.8pt" height="345.6pt" viewBox="0 0 460.8 345.6" xmlns="http://www.w3.org/2000/svg" version="1.1">
 <metadata>
  <rdf:RDF xmlns:dc="http://purl.org/dc/elements/1.1/" xmlns:cc="http://creativecommons.org/ns#" xmlns:rdf="http://www.w3.org/1999/02/22-rdf-syntax-ns#">
   <cc:Work>
    <dc:type rdf:resource="http://purl.org/dc/dcmitype/StillImage"/>
    <dc:date>2022-12-17T15:06:09.465336</dc:date>
    <dc:format>image/svg+xml</dc:format>
    <dc:creator>
     <cc:Agent>
      <dc:title>Matplotlib v3.6.0, https://matplotlib.org/</dc:title>
     </cc:Agent>
    </dc:creator>
   </cc:Work>
  </rdf:RDF>
 </metadata>
 <defs>
  <style type="text/css">*{stroke-linejoin: round; stroke-linecap: butt}</style>
 </defs>
 <g id="figure_1">
  <g id="patch_1">
   <path d="M 0 345.6 
L 460.8 345.6 
L 460.8 0 
L 0 0 
z
" style="fill: #ffffff"/>
  </g>
  <g id="axes_1">
   <g id="patch_2">
    <path d="M 57.6 307.584 
L 414.72 307.584 
L 414.72 41.472 
L 57.6 41.472 
z
" style="fill: #ffffff"/>
   </g>
   <g id="patch_3">
    <path d="M 232.556758 174.971661 
L 232.578781 173.978971 
L 232.657282 172.994939 
L 232.791023 172.035086 
L 232.977895 171.114546 
L 233.21495 170.247839 
L 233.498451 169.448633 
L 233.823925 168.729531 
L 234.186241 168.101875 
L 234.579685 167.575562 
L 234.998051 167.158894 
L 235.434741 166.858441 
L 235.88287 166.678941 
L 236.335369 166.623226 
L 236.785102 166.692173 
L 237.224977 166.884697 
L 237.648056 167.197759 
L 238.047669 167.626424 
L 238.417511 168.163931 
L 238.751751 168.801804 
L 239.045118 169.529981 
L 239.292984 170.336981 
L 239.491442 171.210075 
L 239.637361 172.135495 
L 239.72844 173.098646 
L 239.763242 174.084339 
L 239.741219 175.077029 
L 239.662718 176.061061 
L 239.528977 177.020914 
L 239.342105 177.941454 
L 239.10505 178.808161 
L 238.821549 179.607367 
L 238.496075 180.326469 
L 238.133759 180.954125 
L 237.740315 181.480438 
L 237.321949 181.897106 
L 236.885259 182.197559 
L 236.43713 182.377059 
L 235.984631 182.432774 
L 235.534898 182.363827 
L 235.095023 182.171303 
L 234.671944 181.858241 
L 234.272331 181.429576 
L 233.902489 180.892069 
L 233.568249 180.254196 
L 233.274882 179.526019 
L 233.027016 178.719019 
L 232.828558 177.845925 
L 232.682639 176.920505 
L 232.59156 175.957354 
L 232.556758 174.971661 
L 232.556758 174.971661 
z
" clip-path="url(#p284e05327c)" style="fill: none; opacity: 0"/>
   </g>
   <g id="patch_4">
    <path d="M 73.832727 171.606707 
L 75.127046 156.462495 
L 78.96095 141.603187 
L 85.273978 127.263123 
L 93.966568 113.668454 
L 104.901634 101.033576 
L 117.906722 89.55775 
L 132.776735 79.421955 
L 149.277164 70.786039 
L 167.147787 63.786196 
L 186.106774 58.532818 
L 205.855131 55.108752 
L 226.081413 53.568 
L 246.466641 53.934859 
L 266.689326 56.203544 
L 286.430546 60.338276 
L 305.37897 66.273849 
L 323.235769 73.916654 
L 339.719331 83.14616 
L 354.5697 93.816812 
L 367.552678 105.760328 
L 378.463515 118.788351 
L 387.13014 132.695422 
L 393.415876 147.262218 
L 397.221593 162.259011 
L 398.487273 177.449293 
L 397.192954 192.593505 
L 393.35905 207.452813 
L 387.046022 221.792877 
L 378.353432 235.387546 
L 367.418366 248.022424 
L 354.413278 259.49825 
L 339.543265 269.634045 
L 323.042836 278.269961 
L 305.172213 285.269804 
L 286.213226 290.523182 
L 266.464869 293.947248 
L 246.238587 295.488 
L 225.853359 295.121141 
L 205.630674 292.852456 
L 185.889454 288.717724 
L 166.94103 282.782151 
L 149.084231 275.139346 
L 132.600669 265.90984 
L 117.7503 255.239188 
L 104.767322 243.295672 
L 93.856485 230.267649 
L 85.18986 216.360578 
L 78.904124 201.793782 
L 75.098407 186.796989 
L 73.832727 171.606707 
L 73.832727 171.606707 
z
" clip-path="url(#p284e05327c)" style="fill: none; opacity: 0"/>
   </g>
   <g id="patch_5">
    <path d="M 138.246125 181.833959 
L 138.969659 169.374692 
L 141.225943 156.996695 
L 144.979393 144.895177 
L 150.170817 133.260986 
L 156.718341 122.277601 
L 164.518707 112.118236 
L 173.4489 102.943111 
L 183.368084 94.896921 
L 194.119828 88.106562 
L 205.534571 82.67912 
L 217.432295 78.70019 
L 229.625366 76.232521 
L 241.921492 75.315031 
L 254.126756 75.962189 
L 266.048674 78.163788 
L 277.499229 81.885109 
L 288.29784 87.067464 
L 298.274206 93.629123 
L 307.270994 101.466606 
L 315.146319 110.456311 
L 321.775983 120.456464 
L 327.055431 131.309358 
L 330.901404 142.843836 
L 333.253249 154.877992 
L 334.073875 167.222041 
L 333.350341 179.681308 
L 331.094057 192.059305 
L 327.340607 204.160823 
L 322.149183 215.795014 
L 315.601659 226.778399 
L 307.801293 236.937764 
L 298.8711 246.112889 
L 288.951916 254.159079 
L 278.200172 260.949438 
L 266.785429 266.37688 
L 254.887705 270.35581 
L 242.694634 272.823479 
L 230.398508 273.740969 
L 218.193244 273.093811 
L 206.271326 270.892212 
L 194.820771 267.170891 
L 184.02216 261.988536 
L 174.045794 255.426877 
L 165.049006 247.589394 
L 157.173681 238.599689 
L 150.544017 228.599536 
L 145.264569 217.746642 
L 141.418596 206.212164 
L 139.066751 194.178008 
L 138.246125 181.833959 
L 138.246125 181.833959 
z
" clip-path="url(#p284e05327c)" style="fill: none; opacity: 0"/>
   </g>
   <g id="matplotlib.axis_1">
    <g id="xtick_1">
     <g id="line2d_1">
      <path d="M 103.607317 307.584 
L 103.607317 41.472 
" clip-path="url(#p284e05327c)" style="fill: none; stroke: #b0b0b0; stroke-width: 0.8; stroke-linecap: square"/>
     </g>
     <g id="line2d_2">
      <defs>
       <path id="mcf4ea4aac4" d="M 0 0 
L 0 3.5 
" style="stroke: #000000; stroke-width: 0.8"/>
      </defs>
      <g>
       <use xlink:href="#mcf4ea4aac4" x="103.607317" y="307.584" style="stroke: #000000; stroke-width: 0.8"/>
      </g>
     </g>
     <g id="text_1">
      <!-- $\mathdefault{−0.2}$ -->
      <g transform="translate(93.367905 321.502498) scale(0.1 -0.1)">
       <defs>
        <path id="CMSY10-0" d="M 4218 1472 
C 4326 1472 4442 1472 4442 1600 
C 4442 1728 4326 1728 4218 1728 
L 755 1728 
C 646 1728 531 1728 531 1600 
C 531 1472 646 1472 755 1472 
L 4218 1472 
z
" transform="scale(0.015625)"/>
        <path id="CMR17-30" d="M 2688 2025 
C 2688 2416 2682 3080 2413 3591 
C 2176 4039 1798 4198 1466 4198 
C 1158 4198 768 4058 525 3597 
C 269 3118 243 2524 243 2025 
C 243 1661 250 1106 448 619 
C 723 -39 1216 -128 1466 -128 
C 1760 -128 2208 -7 2470 600 
C 2662 1042 2688 1559 2688 2025 
z
M 1466 -26 
C 1056 -26 813 325 723 812 
C 653 1188 653 1738 653 2096 
C 653 2588 653 2997 736 3387 
C 858 3929 1216 4096 1466 4096 
C 1728 4096 2067 3923 2189 3400 
C 2272 3036 2278 2607 2278 2096 
C 2278 1680 2278 1169 2202 792 
C 2067 95 1690 -26 1466 -26 
z
" transform="scale(0.015625)"/>
        <path id="CMMI12-3a" d="M 1178 307 
C 1178 492 1024 619 870 619 
C 685 619 557 466 557 313 
C 557 128 710 0 864 0 
C 1050 0 1178 153 1178 307 
z
" transform="scale(0.015625)"/>
        <path id="CMR17-32" d="M 2669 989 
L 2554 989 
C 2490 536 2438 459 2413 420 
C 2381 369 1920 369 1830 369 
L 602 369 
C 832 619 1280 1072 1824 1597 
C 2214 1967 2669 2402 2669 3035 
C 2669 3790 2067 4224 1395 4224 
C 691 4224 262 3604 262 3030 
C 262 2780 448 2748 525 2748 
C 589 2748 781 2787 781 3010 
C 781 3207 614 3264 525 3264 
C 486 3264 448 3258 422 3245 
C 544 3790 915 4058 1306 4058 
C 1862 4058 2227 3617 2227 3035 
C 2227 2479 1901 2000 1536 1584 
L 262 146 
L 262 0 
L 2515 0 
L 2669 989 
z
" transform="scale(0.015625)"/>
       </defs>
       <use xlink:href="#CMSY10-0" transform="scale(0.996264)"/>
       <use xlink:href="#CMR17-30" transform="translate(77.487468 0) scale(0.996264)"/>
       <use xlink:href="#CMMI12-3a" transform="translate(123.177945 0) scale(0.996264)"/>
       <use xlink:href="#CMR17-32" transform="translate(150.275122 0) scale(0.996264)"/>
      </g>
     </g>
    </g>
    <g id="xtick_2">
     <g id="line2d_3">
      <path d="M 167.319306 307.584 
L 167.319306 41.472 
" clip-path="url(#p284e05327c)" style="fill: none; stroke: #b0b0b0; stroke-width: 0.8; stroke-linecap: square"/>
     </g>
     <g id="line2d_4">
      <g>
       <use xlink:href="#mcf4ea4aac4" x="167.319306" y="307.584" style="stroke: #000000; stroke-width: 0.8"/>
      </g>
     </g>
     <g id="text_2">
      <!-- $\mathdefault{−0.1}$ -->
      <g transform="translate(157.079895 321.502498) scale(0.1 -0.1)">
       <defs>
        <path id="CMR17-31" d="M 1702 4058 
C 1702 4192 1696 4192 1606 4192 
C 1357 3916 979 3827 621 3827 
C 602 3827 570 3827 563 3808 
C 557 3795 557 3782 557 3648 
C 755 3648 1088 3686 1344 3839 
L 1344 461 
C 1344 236 1331 160 781 160 
L 589 160 
L 589 0 
C 896 0 1216 0 1523 0 
C 1830 0 2150 0 2458 0 
L 2458 160 
L 2266 160 
C 1715 160 1702 230 1702 458 
L 1702 4058 
z
" transform="scale(0.015625)"/>
       </defs>
       <use xlink:href="#CMSY10-0" transform="scale(0.996264)"/>
       <use xlink:href="#CMR17-30" transform="translate(77.487468 0) scale(0.996264)"/>
       <use xlink:href="#CMMI12-3a" transform="translate(123.177945 0) scale(0.996264)"/>
       <use xlink:href="#CMR17-31" transform="translate(150.275122 0) scale(0.996264)"/>
      </g>
     </g>
    </g>
    <g id="xtick_3">
     <g id="line2d_5">
      <path d="M 231.031296 307.584 
L 231.031296 41.472 
" clip-path="url(#p284e05327c)" style="fill: none; stroke: #b0b0b0; stroke-width: 0.8; stroke-linecap: square"/>
     </g>
     <g id="line2d_6">
      <g>
       <use xlink:href="#mcf4ea4aac4" x="231.031296" y="307.584" style="stroke: #000000; stroke-width: 0.8"/>
      </g>
     </g>
     <g id="text_3">
      <!-- $\mathdefault{0.0}$ -->
      <g transform="translate(224.666256 321.502498) scale(0.1 -0.1)">
       <use xlink:href="#CMR17-30" transform="scale(0.996264)"/>
       <use xlink:href="#CMMI12-3a" transform="translate(45.690477 0) scale(0.996264)"/>
       <use xlink:href="#CMR17-30" transform="translate(72.787654 0) scale(0.996264)"/>
      </g>
     </g>
    </g>
    <g id="xtick_4">
     <g id="line2d_7">
      <path d="M 294.743285 307.584 
L 294.743285 41.472 
" clip-path="url(#p284e05327c)" style="fill: none; stroke: #b0b0b0; stroke-width: 0.8; stroke-linecap: square"/>
     </g>
     <g id="line2d_8">
      <g>
       <use xlink:href="#mcf4ea4aac4" x="294.743285" y="307.584" style="stroke: #000000; stroke-width: 0.8"/>
      </g>
     </g>
     <g id="text_4">
      <!-- $\mathdefault{0.1}$ -->
      <g transform="translate(288.378246 321.502498) scale(0.1 -0.1)">
       <use xlink:href="#CMR17-30" transform="scale(0.996264)"/>
       <use xlink:href="#CMMI12-3a" transform="translate(45.690477 0) scale(0.996264)"/>
       <use xlink:href="#CMR17-31" transform="translate(72.787654 0) scale(0.996264)"/>
      </g>
     </g>
    </g>
    <g id="xtick_5">
     <g id="line2d_9">
      <path d="M 358.455275 307.584 
L 358.455275 41.472 
" clip-path="url(#p284e05327c)" style="fill: none; stroke: #b0b0b0; stroke-width: 0.8; stroke-linecap: square"/>
     </g>
     <g id="line2d_10">
      <g>
       <use xlink:href="#mcf4ea4aac4" x="358.455275" y="307.584" style="stroke: #000000; stroke-width: 0.8"/>
      </g>
     </g>
     <g id="text_5">
      <!-- $\mathdefault{0.2}$ -->
      <g transform="translate(352.090235 321.502498) scale(0.1 -0.1)">
       <use xlink:href="#CMR17-30" transform="scale(0.996264)"/>
       <use xlink:href="#CMMI12-3a" transform="translate(45.690477 0) scale(0.996264)"/>
       <use xlink:href="#CMR17-32" transform="translate(72.787654 0) scale(0.996264)"/>
      </g>
     </g>
    </g>
    <g id="text_6">
     <!-- x [m] -->
     <g transform="translate(225.36713 334.911657) scale(0.1 -0.1)">
      <defs>
       <path id="CMSS17-78" d="M 1587 1414 
L 2656 2739 
L 2099 2739 
L 1363 1777 
L 602 2739 
L 32 2739 
L 1139 1414 
L 0 0 
L 563 0 
L 1363 1121 
L 2195 0 
L 2758 0 
L 1587 1414 
z
" transform="scale(0.015625)"/>
       <path id="CMSS17-5b" d="M 1613 -1600 
L 1613 -1212 
L 1062 -1212 
L 1062 4352 
L 1613 4352 
L 1613 4741 
L 595 4741 
L 595 -1600 
L 1613 -1600 
z
" transform="scale(0.015625)"/>
       <path id="CMSS17-6d" d="M 4288 1877 
C 4288 2308 4179 2816 3462 2816 
C 2982 2816 2694 2516 2566 2331 
C 2451 2670 2182 2816 1798 2816 
C 1363 2816 1088 2568 941 2389 
L 941 2758 
L 474 2758 
L 474 0 
L 960 0 
L 960 1559 
C 960 1939 1101 2428 1555 2428 
C 2138 2428 2138 2016 2138 1829 
L 2138 0 
L 2624 0 
L 2624 1559 
C 2624 1939 2765 2428 3219 2428 
C 3802 2428 3802 2016 3802 1829 
L 3802 0 
L 4288 0 
L 4288 1877 
z
" transform="scale(0.015625)"/>
       <path id="CMSS17-5d" d="M 1146 4741 
L 128 4741 
L 128 4352 
L 678 4352 
L 678 -1212 
L 128 -1212 
L 128 -1600 
L 1146 -1600 
L 1146 4741 
z
" transform="scale(0.015625)"/>
      </defs>
      <use xlink:href="#CMSS17-78" transform="scale(0.996264)"/>
      <use xlink:href="#CMSS17-5b" transform="translate(74.229254 0) scale(0.996264)"/>
      <use xlink:href="#CMSS17-6d" transform="translate(101.414693 0) scale(0.996264)"/>
      <use xlink:href="#CMSS17-5d" transform="translate(175.643948 0) scale(0.996264)"/>
     </g>
    </g>
   </g>
   <g id="matplotlib.axis_2">
    <g id="ytick_1">
     <g id="line2d_11">
      <path d="M 57.6 270.239022 
L 414.72 270.239022 
" clip-path="url(#p284e05327c)" style="fill: none; stroke: #b0b0b0; stroke-width: 0.8; stroke-linecap: square"/>
     </g>
     <g id="line2d_12">
      <defs>
       <path id="m2a30d8f379" d="M 0 0 
L -3.5 0 
" style="stroke: #000000; stroke-width: 0.8"/>
      </defs>
      <g>
       <use xlink:href="#m2a30d8f379" x="57.6" y="270.239022" style="stroke: #000000; stroke-width: 0.8"/>
      </g>
     </g>
     <g id="text_7">
      <!-- $\mathdefault{−0.04}$ -->
      <g transform="translate(25.139842 273.698271) scale(0.1 -0.1)">
       <defs>
        <path id="CMR17-34" d="M 2150 4122 
C 2150 4256 2144 4256 2029 4256 
L 128 1254 
L 128 1088 
L 1779 1088 
L 1779 457 
C 1779 224 1766 160 1318 160 
L 1197 160 
L 1197 0 
C 1402 0 1747 0 1965 0 
C 2182 0 2528 0 2733 0 
L 2733 160 
L 2611 160 
C 2163 160 2150 224 2150 457 
L 2150 1088 
L 2803 1088 
L 2803 1254 
L 2150 1254 
L 2150 4122 
z
M 1798 3703 
L 1798 1254 
L 256 1254 
L 1798 3703 
z
" transform="scale(0.015625)"/>
       </defs>
       <use xlink:href="#CMSY10-0" transform="scale(0.996264)"/>
       <use xlink:href="#CMR17-30" transform="translate(77.487468 0) scale(0.996264)"/>
       <use xlink:href="#CMMI12-3a" transform="translate(123.177945 0) scale(0.996264)"/>
       <use xlink:href="#CMR17-30" transform="translate(150.275122 0) scale(0.996264)"/>
       <use xlink:href="#CMR17-34" transform="translate(195.965599 0) scale(0.996264)"/>
      </g>
     </g>
    </g>
    <g id="ytick_2">
     <g id="line2d_13">
      <path d="M 57.6 214.606231 
L 414.72 214.606231 
" clip-path="url(#p284e05327c)" style="fill: none; stroke: #b0b0b0; stroke-width: 0.8; stroke-linecap: square"/>
     </g>
     <g id="line2d_14">
      <g>
       <use xlink:href="#m2a30d8f379" x="57.6" y="214.606231" style="stroke: #000000; stroke-width: 0.8"/>
      </g>
     </g>
     <g id="text_8">
      <!-- $\mathdefault{−0.02}$ -->
      <g transform="translate(25.139842 218.06548) scale(0.1 -0.1)">
       <use xlink:href="#CMSY10-0" transform="scale(0.996264)"/>
       <use xlink:href="#CMR17-30" transform="translate(77.487468 0) scale(0.996264)"/>
       <use xlink:href="#CMMI12-3a" transform="translate(123.177945 0) scale(0.996264)"/>
       <use xlink:href="#CMR17-30" transform="translate(150.275122 0) scale(0.996264)"/>
       <use xlink:href="#CMR17-32" transform="translate(195.965599 0) scale(0.996264)"/>
      </g>
     </g>
    </g>
    <g id="ytick_3">
     <g id="line2d_15">
      <path d="M 57.6 158.97344 
L 414.72 158.97344 
" clip-path="url(#p284e05327c)" style="fill: none; stroke: #b0b0b0; stroke-width: 0.8; stroke-linecap: square"/>
     </g>
     <g id="line2d_16">
      <g>
       <use xlink:href="#m2a30d8f379" x="57.6" y="158.97344" style="stroke: #000000; stroke-width: 0.8"/>
      </g>
     </g>
     <g id="text_9">
      <!-- $\mathdefault{0.00}$ -->
      <g transform="translate(32.888586 162.432689) scale(0.1 -0.1)">
       <use xlink:href="#CMR17-30" transform="scale(0.996264)"/>
       <use xlink:href="#CMMI12-3a" transform="translate(45.690477 0) scale(0.996264)"/>
       <use xlink:href="#CMR17-30" transform="translate(72.787654 0) scale(0.996264)"/>
       <use xlink:href="#CMR17-30" transform="translate(118.478131 0) scale(0.996264)"/>
      </g>
     </g>
    </g>
    <g id="ytick_4">
     <g id="line2d_17">
      <path d="M 57.6 103.340649 
L 414.72 103.340649 
" clip-path="url(#p284e05327c)" style="fill: none; stroke: #b0b0b0; stroke-width: 0.8; stroke-linecap: square"/>
     </g>
     <g id="line2d_18">
      <g>
       <use xlink:href="#m2a30d8f379" x="57.6" y="103.340649" style="stroke: #000000; stroke-width: 0.8"/>
      </g>
     </g>
     <g id="text_10">
      <!-- $\mathdefault{0.02}$ -->
      <g transform="translate(32.888586 106.799898) scale(0.1 -0.1)">
       <use xlink:href="#CMR17-30" transform="scale(0.996264)"/>
       <use xlink:href="#CMMI12-3a" transform="translate(45.690477 0) scale(0.996264)"/>
       <use xlink:href="#CMR17-30" transform="translate(72.787654 0) scale(0.996264)"/>
       <use xlink:href="#CMR17-32" transform="translate(118.478131 0) scale(0.996264)"/>
      </g>
     </g>
    </g>
    <g id="ytick_5">
     <g id="line2d_19">
      <path d="M 57.6 47.707858 
L 414.72 47.707858 
" clip-path="url(#p284e05327c)" style="fill: none; stroke: #b0b0b0; stroke-width: 0.8; stroke-linecap: square"/>
     </g>
     <g id="line2d_20">
      <g>
       <use xlink:href="#m2a30d8f379" x="57.6" y="47.707858" style="stroke: #000000; stroke-width: 0.8"/>
      </g>
     </g>
     <g id="text_11">
      <!-- $\mathdefault{0.04}$ -->
      <g transform="translate(32.888586 51.167107) scale(0.1 -0.1)">
       <use xlink:href="#CMR17-30" transform="scale(0.996264)"/>
       <use xlink:href="#CMMI12-3a" transform="translate(45.690477 0) scale(0.996264)"/>
       <use xlink:href="#CMR17-30" transform="translate(72.787654 0) scale(0.996264)"/>
       <use xlink:href="#CMR17-34" transform="translate(118.478131 0) scale(0.996264)"/>
      </g>
     </g>
    </g>
    <g id="text_12">
     <!-- y [m] -->
     <g transform="translate(18.649182 185.32087) rotate(-90) scale(0.1 -0.1)">
      <defs>
       <path id="CMSS17-79" d="M 2675 2752 
L 2176 2752 
C 1632 1294 1446 702 1434 383 
L 1427 383 
C 1408 696 1126 1460 902 2007 
L 602 2752 
L 83 2752 
L 1216 13 
C 1146 -178 1043 -465 1011 -529 
C 870 -885 774 -885 672 -885 
C 646 -885 442 -885 211 -809 
L 250 -1229 
C 410 -1261 570 -1280 685 -1280 
C 845 -1280 1165 -1280 1459 -497 
L 2675 2752 
z
" transform="scale(0.015625)"/>
      </defs>
      <use xlink:href="#CMSS17-79" transform="scale(0.996264)"/>
      <use xlink:href="#CMSS17-5b" transform="translate(74.229254 0) scale(0.996264)"/>
      <use xlink:href="#CMSS17-6d" transform="translate(101.414693 0) scale(0.996264)"/>
      <use xlink:href="#CMSS17-5d" transform="translate(175.643948 0) scale(0.996264)"/>
     </g>
    </g>
   </g>
   <g id="line2d_21">
    <path d="M 232.556758 174.971661 
L 232.578781 173.978971 
L 232.657282 172.994939 
L 232.791023 172.035086 
L 232.977895 171.114546 
L 233.21495 170.247839 
L 233.498451 169.448633 
L 233.823925 168.729531 
L 234.186241 168.101875 
L 234.579685 167.575562 
L 234.998051 167.158894 
L 235.434741 166.858441 
L 235.88287 166.678941 
L 236.335369 166.623226 
L 236.785102 166.692173 
L 237.224977 166.884697 
L 237.648056 167.197759 
L 238.047669 167.626424 
L 238.417511 168.163931 
L 238.751751 168.801804 
L 239.045118 169.529981 
L 239.292984 170.336981 
L 239.491442 171.210075 
L 239.637361 172.135495 
L 239.72844 173.098646 
L 239.763242 174.084339 
L 239.741219 175.077029 
L 239.662718 176.061061 
L 239.528977 177.020914 
L 239.342105 177.941454 
L 239.10505 178.808161 
L 238.821549 179.607367 
L 238.496075 180.326469 
L 238.133759 180.954125 
L 237.740315 181.480438 
L 237.321949 181.897106 
L 236.885259 182.197559 
L 236.43713 182.377059 
L 235.984631 182.432774 
L 235.534898 182.363827 
L 235.095023 182.171303 
L 234.671944 181.858241 
L 234.272331 181.429576 
L 233.902489 180.892069 
L 233.568249 180.254196 
L 233.274882 179.526019 
L 233.027016 178.719019 
L 232.828558 177.845925 
L 232.682639 176.920505 
L 232.59156 175.957354 
L 232.556758 174.971661 
" clip-path="url(#p284e05327c)" style="fill: none; stroke: #0000ff; stroke-width: 1.5; stroke-linecap: square"/>
   </g>
   <g id="line2d_22">
    <path d="M 73.832727 171.606707 
L 75.127046 156.462495 
L 78.96095 141.603187 
L 85.273978 127.263123 
L 93.966568 113.668454 
L 104.901634 101.033576 
L 117.906722 89.55775 
L 132.776735 79.421955 
L 149.277164 70.786039 
L 167.147787 63.786196 
L 186.106774 58.532818 
L 205.855131 55.108752 
L 226.081413 53.568 
L 246.466641 53.934859 
L 266.689326 56.203544 
L 286.430546 60.338276 
L 305.37897 66.273849 
L 323.235769 73.916654 
L 339.719331 83.14616 
L 354.5697 93.816812 
L 367.552678 105.760328 
L 378.463515 118.788351 
L 387.13014 132.695422 
L 393.415876 147.262218 
L 397.221593 162.259011 
L 398.487273 177.449293 
L 397.192954 192.593505 
L 393.35905 207.452813 
L 387.046022 221.792877 
L 378.353432 235.387546 
L 367.418366 248.022424 
L 354.413278 259.49825 
L 339.543265 269.634045 
L 323.042836 278.269961 
L 305.172213 285.269804 
L 286.213226 290.523182 
L 266.464869 293.947248 
L 246.238587 295.488 
L 225.853359 295.121141 
L 205.630674 292.852456 
L 185.889454 288.717724 
L 166.94103 282.782151 
L 149.084231 275.139346 
L 132.600669 265.90984 
L 117.7503 255.239188 
L 104.767322 243.295672 
L 93.856485 230.267649 
L 85.18986 216.360578 
L 78.904124 201.793782 
L 75.098407 186.796989 
L 73.832727 171.606707 
" clip-path="url(#p284e05327c)" style="fill: none; stroke: #008000; stroke-width: 1.5; stroke-linecap: square"/>
   </g>
   <g id="line2d_23">
    <defs>
     <path id="mb76b98b919" d="M 0 1.5 
C 0.397805 1.5 0.77937 1.341951 1.06066 1.06066 
C 1.341951 0.77937 1.5 0.397805 1.5 0 
C 1.5 -0.397805 1.341951 -0.77937 1.06066 -1.06066 
C 0.77937 -1.341951 0.397805 -1.5 0 -1.5 
C -0.397805 -1.5 -0.77937 -1.341951 -1.06066 -1.06066 
C -1.341951 -0.77937 -1.5 -0.397805 -1.5 0 
C -1.5 0.397805 -1.341951 0.77937 -1.06066 1.06066 
C -0.77937 1.341951 -0.397805 1.5 0 1.5 
z
" style="stroke: #ff0000"/>
    </defs>
    <g clip-path="url(#p284e05327c)">
     <use xlink:href="#mb76b98b919" x="248.511786" y="212.747626" style="fill: #ff0000; stroke: #ff0000"/>
     <use xlink:href="#mb76b98b919" x="297.173176" y="155.971448" style="fill: #ff0000; stroke: #ff0000"/>
     <use xlink:href="#mb76b98b919" x="256.007696" y="119.794216" style="fill: #ff0000; stroke: #ff0000"/>
     <use xlink:href="#mb76b98b919" x="208.384184" y="184.907405" style="fill: #ff0000; stroke: #ff0000"/>
     <use xlink:href="#mb76b98b919" x="203.036733" y="183.692057" style="fill: #ff0000; stroke: #ff0000"/>
     <use xlink:href="#mb76b98b919" x="230.482441" y="83.487465" style="fill: #ff0000; stroke: #ff0000"/>
     <use xlink:href="#mb76b98b919" x="240.719573" y="153.928139" style="fill: #ff0000; stroke: #ff0000"/>
     <use xlink:href="#mb76b98b919" x="248.440087" y="166.348285" style="fill: #ff0000; stroke: #ff0000"/>
     <use xlink:href="#mb76b98b919" x="203.623346" y="178.287452" style="fill: #ff0000; stroke: #ff0000"/>
     <use xlink:href="#mb76b98b919" x="212.532167" y="196.240012" style="fill: #ff0000; stroke: #ff0000"/>
     <use xlink:href="#mb76b98b919" x="183.808361" y="179.86584" style="fill: #ff0000; stroke: #ff0000"/>
     <use xlink:href="#mb76b98b919" x="276.831131" y="152.224422" style="fill: #ff0000; stroke: #ff0000"/>
     <use xlink:href="#mb76b98b919" x="257.048412" y="149.9085" style="fill: #ff0000; stroke: #ff0000"/>
     <use xlink:href="#mb76b98b919" x="203.52675" y="171.985662" style="fill: #ff0000; stroke: #ff0000"/>
     <use xlink:href="#mb76b98b919" x="255.085066" y="200.062962" style="fill: #ff0000; stroke: #ff0000"/>
     <use xlink:href="#mb76b98b919" x="264.902668" y="159.165137" style="fill: #ff0000; stroke: #ff0000"/>
     <use xlink:href="#mb76b98b919" x="247.459565" y="176.676602" style="fill: #ff0000; stroke: #ff0000"/>
     <use xlink:href="#mb76b98b919" x="241.527197" y="183.271463" style="fill: #ff0000; stroke: #ff0000"/>
     <use xlink:href="#mb76b98b919" x="264.073641" y="150.953682" style="fill: #ff0000; stroke: #ff0000"/>
     <use xlink:href="#mb76b98b919" x="214.452181" y="159.556198" style="fill: #ff0000; stroke: #ff0000"/>
     <use xlink:href="#mb76b98b919" x="230.311735" y="227.345966" style="fill: #ff0000; stroke: #ff0000"/>
     <use xlink:href="#mb76b98b919" x="243.912266" y="183.856618" style="fill: #ff0000; stroke: #ff0000"/>
     <use xlink:href="#mb76b98b919" x="232.022632" y="184.562276" style="fill: #ff0000; stroke: #ff0000"/>
     <use xlink:href="#mb76b98b919" x="261.444468" y="148.462614" style="fill: #ff0000; stroke: #ff0000"/>
     <use xlink:href="#mb76b98b919" x="201.316318" y="135.187241" style="fill: #ff0000; stroke: #ff0000"/>
     <use xlink:href="#mb76b98b919" x="221.643661" y="122.345401" style="fill: #ff0000; stroke: #ff0000"/>
     <use xlink:href="#mb76b98b919" x="217.401531" y="207.700602" style="fill: #ff0000; stroke: #ff0000"/>
     <use xlink:href="#mb76b98b919" x="248.487935" y="174.496597" style="fill: #ff0000; stroke: #ff0000"/>
     <use xlink:href="#mb76b98b919" x="171.785441" y="211.144769" style="fill: #ff0000; stroke: #ff0000"/>
     <use xlink:href="#mb76b98b919" x="220.177657" y="175.131673" style="fill: #ff0000; stroke: #ff0000"/>
     <use xlink:href="#mb76b98b919" x="183.077281" y="148.396093" style="fill: #ff0000; stroke: #ff0000"/>
     <use xlink:href="#mb76b98b919" x="216.300913" y="175.701545" style="fill: #ff0000; stroke: #ff0000"/>
     <use xlink:href="#mb76b98b919" x="233.591721" y="226.841656" style="fill: #ff0000; stroke: #ff0000"/>
     <use xlink:href="#mb76b98b919" x="195.744236" y="201.763588" style="fill: #ff0000; stroke: #ff0000"/>
     <use xlink:href="#mb76b98b919" x="261.073813" y="151.363085" style="fill: #ff0000; stroke: #ff0000"/>
     <use xlink:href="#mb76b98b919" x="237.341353" y="167.045578" style="fill: #ff0000; stroke: #ff0000"/>
     <use xlink:href="#mb76b98b919" x="194.68124" y="189.436282" style="fill: #ff0000; stroke: #ff0000"/>
     <use xlink:href="#mb76b98b919" x="318.027746" y="241.071711" style="fill: #ff0000; stroke: #ff0000"/>
     <use xlink:href="#mb76b98b919" x="139.244605" y="132.395897" style="fill: #ff0000; stroke: #ff0000"/>
     <use xlink:href="#mb76b98b919" x="184.395429" y="216.065654" style="fill: #ff0000; stroke: #ff0000"/>
     <use xlink:href="#mb76b98b919" x="209.690418" y="158.051697" style="fill: #ff0000; stroke: #ff0000"/>
     <use xlink:href="#mb76b98b919" x="285.746267" y="173.1248" style="fill: #ff0000; stroke: #ff0000"/>
     <use xlink:href="#mb76b98b919" x="265.864088" y="182.359768" style="fill: #ff0000; stroke: #ff0000"/>
     <use xlink:href="#mb76b98b919" x="244.413176" y="194.679037" style="fill: #ff0000; stroke: #ff0000"/>
     <use xlink:href="#mb76b98b919" x="229.105043" y="160.517312" style="fill: #ff0000; stroke: #ff0000"/>
     <use xlink:href="#mb76b98b919" x="208.010234" y="204.703311" style="fill: #ff0000; stroke: #ff0000"/>
     <use xlink:href="#mb76b98b919" x="251.42274" y="172.765641" style="fill: #ff0000; stroke: #ff0000"/>
     <use xlink:href="#mb76b98b919" x="260.819016" y="149.840221" style="fill: #ff0000; stroke: #ff0000"/>
     <use xlink:href="#mb76b98b919" x="250.376597" y="156.886848" style="fill: #ff0000; stroke: #ff0000"/>
     <use xlink:href="#mb76b98b919" x="201.926224" y="137.916076" style="fill: #ff0000; stroke: #ff0000"/>
     <use xlink:href="#mb76b98b919" x="282.518414" y="190.969885" style="fill: #ff0000; stroke: #ff0000"/>
     <use xlink:href="#mb76b98b919" x="247.252196" y="205.614261" style="fill: #ff0000; stroke: #ff0000"/>
     <use xlink:href="#mb76b98b919" x="227.013646" y="147.561371" style="fill: #ff0000; stroke: #ff0000"/>
     <use xlink:href="#mb76b98b919" x="203.591277" y="212.893346" style="fill: #ff0000; stroke: #ff0000"/>
     <use xlink:href="#mb76b98b919" x="210.963498" y="223.007793" style="fill: #ff0000; stroke: #ff0000"/>
     <use xlink:href="#mb76b98b919" x="245.796811" y="239.229784" style="fill: #ff0000; stroke: #ff0000"/>
     <use xlink:href="#mb76b98b919" x="243.925389" y="158.6099" style="fill: #ff0000; stroke: #ff0000"/>
     <use xlink:href="#mb76b98b919" x="250.895879" y="153.321298" style="fill: #ff0000; stroke: #ff0000"/>
     <use xlink:href="#mb76b98b919" x="380.616762" y="196.775913" style="fill: #ff0000; stroke: #ff0000"/>
     <use xlink:href="#mb76b98b919" x="318.08016" y="149.715736" style="fill: #ff0000; stroke: #ff0000"/>
     <use xlink:href="#mb76b98b919" x="252.185324" y="124.201271" style="fill: #ff0000; stroke: #ff0000"/>
     <use xlink:href="#mb76b98b919" x="237.698394" y="155.043618" style="fill: #ff0000; stroke: #ff0000"/>
     <use xlink:href="#mb76b98b919" x="219.281146" y="191.445435" style="fill: #ff0000; stroke: #ff0000"/>
     <use xlink:href="#mb76b98b919" x="233.175207" y="208.966836" style="fill: #ff0000; stroke: #ff0000"/>
     <use xlink:href="#mb76b98b919" x="265.574541" y="117.413568" style="fill: #ff0000; stroke: #ff0000"/>
     <use xlink:href="#mb76b98b919" x="214.518238" y="202.655135" style="fill: #ff0000; stroke: #ff0000"/>
     <use xlink:href="#mb76b98b919" x="244.801674" y="149.693192" style="fill: #ff0000; stroke: #ff0000"/>
     <use xlink:href="#mb76b98b919" x="204.044956" y="209.811041" style="fill: #ff0000; stroke: #ff0000"/>
     <use xlink:href="#mb76b98b919" x="228.161801" y="210.028124" style="fill: #ff0000; stroke: #ff0000"/>
     <use xlink:href="#mb76b98b919" x="213.010669" y="161.732735" style="fill: #ff0000; stroke: #ff0000"/>
     <use xlink:href="#mb76b98b919" x="214.206738" y="191.494506" style="fill: #ff0000; stroke: #ff0000"/>
     <use xlink:href="#mb76b98b919" x="246.602913" y="129.070317" style="fill: #ff0000; stroke: #ff0000"/>
     <use xlink:href="#mb76b98b919" x="209.361365" y="182.105597" style="fill: #ff0000; stroke: #ff0000"/>
     <use xlink:href="#mb76b98b919" x="273.857265" y="184.404836" style="fill: #ff0000; stroke: #ff0000"/>
     <use xlink:href="#mb76b98b919" x="244.676651" y="164.893996" style="fill: #ff0000; stroke: #ff0000"/>
     <use xlink:href="#mb76b98b919" x="232.040978" y="169.219965" style="fill: #ff0000; stroke: #ff0000"/>
     <use xlink:href="#mb76b98b919" x="273.327512" y="264.552348" style="fill: #ff0000; stroke: #ff0000"/>
     <use xlink:href="#mb76b98b919" x="243.736251" y="148.345395" style="fill: #ff0000; stroke: #ff0000"/>
     <use xlink:href="#mb76b98b919" x="196.857854" y="207.081458" style="fill: #ff0000; stroke: #ff0000"/>
     <use xlink:href="#mb76b98b919" x="246.185696" y="157.432163" style="fill: #ff0000; stroke: #ff0000"/>
     <use xlink:href="#mb76b98b919" x="211.383046" y="161.152991" style="fill: #ff0000; stroke: #ff0000"/>
     <use xlink:href="#mb76b98b919" x="241.525052" y="183.553701" style="fill: #ff0000; stroke: #ff0000"/>
     <use xlink:href="#mb76b98b919" x="271.149378" y="115.85854" style="fill: #ff0000; stroke: #ff0000"/>
     <use xlink:href="#mb76b98b919" x="229.847118" y="212.236889" style="fill: #ff0000; stroke: #ff0000"/>
     <use xlink:href="#mb76b98b919" x="275.969749" y="118.968377" style="fill: #ff0000; stroke: #ff0000"/>
     <use xlink:href="#mb76b98b919" x="224.857658" y="136.954823" style="fill: #ff0000; stroke: #ff0000"/>
     <use xlink:href="#mb76b98b919" x="208.796011" y="147.50558" style="fill: #ff0000; stroke: #ff0000"/>
     <use xlink:href="#mb76b98b919" x="224.296002" y="192.110421" style="fill: #ff0000; stroke: #ff0000"/>
     <use xlink:href="#mb76b98b919" x="230.78963" y="137.298261" style="fill: #ff0000; stroke: #ff0000"/>
     <use xlink:href="#mb76b98b919" x="250.975364" y="154.106885" style="fill: #ff0000; stroke: #ff0000"/>
     <use xlink:href="#mb76b98b919" x="220.801" y="204.027203" style="fill: #ff0000; stroke: #ff0000"/>
     <use xlink:href="#mb76b98b919" x="227.662551" y="148.497895" style="fill: #ff0000; stroke: #ff0000"/>
     <use xlink:href="#mb76b98b919" x="231.460328" y="167.727421" style="fill: #ff0000; stroke: #ff0000"/>
     <use xlink:href="#mb76b98b919" x="240.844142" y="239.1613" style="fill: #ff0000; stroke: #ff0000"/>
     <use xlink:href="#mb76b98b919" x="228.182802" y="134.575884" style="fill: #ff0000; stroke: #ff0000"/>
     <use xlink:href="#mb76b98b919" x="237.240658" y="139.604562" style="fill: #ff0000; stroke: #ff0000"/>
     <use xlink:href="#mb76b98b919" x="231.469508" y="219.332727" style="fill: #ff0000; stroke: #ff0000"/>
     <use xlink:href="#mb76b98b919" x="216.888523" y="175.252013" style="fill: #ff0000; stroke: #ff0000"/>
     <use xlink:href="#mb76b98b919" x="235.328618" y="147.025669" style="fill: #ff0000; stroke: #ff0000"/>
     <use xlink:href="#mb76b98b919" x="258.353303" y="205.901972" style="fill: #ff0000; stroke: #ff0000"/>
    </g>
   </g>
   <g id="line2d_24">
    <path d="M 138.246125 181.833959 
L 138.969659 169.374692 
L 141.225943 156.996695 
L 144.979393 144.895177 
L 150.170817 133.260986 
L 156.718341 122.277601 
L 164.518707 112.118236 
L 173.4489 102.943111 
L 183.368084 94.896921 
L 194.119828 88.106562 
L 205.534571 82.67912 
L 217.432295 78.70019 
L 229.625366 76.232521 
L 241.921492 75.315031 
L 254.126756 75.962189 
L 266.048674 78.163788 
L 277.499229 81.885109 
L 288.29784 87.067464 
L 298.274206 93.629123 
L 307.270994 101.466606 
L 315.146319 110.456311 
L 321.775983 120.456464 
L 327.055431 131.309358 
L 330.901404 142.843836 
L 333.253249 154.877992 
L 334.073875 167.222041 
L 333.350341 179.681308 
L 331.094057 192.059305 
L 327.340607 204.160823 
L 322.149183 215.795014 
L 315.601659 226.778399 
L 307.801293 236.937764 
L 298.8711 246.112889 
L 288.951916 254.159079 
L 278.200172 260.949438 
L 266.785429 266.37688 
L 254.887705 270.35581 
L 242.694634 272.823479 
L 230.398508 273.740969 
L 218.193244 273.093811 
L 206.271326 270.892212 
L 194.820771 267.170891 
L 184.02216 261.988536 
L 174.045794 255.426877 
L 165.049006 247.589394 
L 157.173681 238.599689 
L 150.544017 228.599536 
L 145.264569 217.746642 
L 141.418596 206.212164 
L 139.066751 194.178008 
L 138.246125 181.833959 
" clip-path="url(#p284e05327c)" style="fill: none; stroke: #ff0000; stroke-width: 1.5; stroke-linecap: square"/>
   </g>
   <g id="patch_6">
    <path d="M 57.6 307.584 
L 57.6 41.472 
" style="fill: none; stroke: #000000; stroke-width: 0.8; stroke-linejoin: miter; stroke-linecap: square"/>
   </g>
   <g id="patch_7">
    <path d="M 414.72 307.584 
L 414.72 41.472 
" style="fill: none; stroke: #000000; stroke-width: 0.8; stroke-linejoin: miter; stroke-linecap: square"/>
   </g>
   <g id="patch_8">
    <path d="M 57.6 307.584 
L 414.72 307.584 
" style="fill: none; stroke: #000000; stroke-width: 0.8; stroke-linejoin: miter; stroke-linecap: square"/>
   </g>
   <g id="patch_9">
    <path d="M 57.6 41.472 
L 414.72 41.472 
" style="fill: none; stroke: #000000; stroke-width: 0.8; stroke-linejoin: miter; stroke-linecap: square"/>
   </g>
   <g id="legend_1">
    <g id="patch_10">
     <path d="M 298.962583 105.220713 
L 407.72 105.220713 
Q 409.72 105.220713 409.72 103.220713 
L 409.72 48.472 
Q 409.72 46.472 407.72 46.472 
L 298.962583 46.472 
Q 296.962583 46.472 296.962583 48.472 
L 296.962583 103.220713 
Q 296.962583 105.220713 298.962583 105.220713 
z
" style="fill: #ffffff; opacity: 0.8; stroke: #cccccc; stroke-linejoin: miter"/>
    </g>
    <g id="line2d_25">
     <path d="M 300.962583 53.972 
L 310.962583 53.972 
L 320.962583 53.972 
" style="fill: none; stroke: #0000ff; stroke-width: 1.5; stroke-linecap: square"/>
    </g>
    <g id="text_13">
     <!-- Censi's cov $3\sigma$. -->
     <g transform="translate(328.962583 57.472) scale(0.1 -0.1)">
      <defs>
       <path id="CMSS17-43" d="M 3501 714 
C 3072 427 2874 344 2355 344 
C 1459 344 934 1303 934 2179 
C 934 3112 1472 4032 2381 4032 
C 2790 4032 3059 3918 3386 3715 
L 3475 4217 
C 3168 4370 2778 4440 2387 4440 
C 1158 4440 397 3316 397 2179 
C 397 927 1299 -64 2323 -64 
C 2874 -64 3066 -19 3539 280 
L 3501 714 
z
" transform="scale(0.015625)"/>
       <path id="CMSS17-65" d="M 2502 1377 
C 2502 1590 2490 2003 2285 2345 
C 2061 2713 1696 2816 1421 2816 
C 755 2816 192 2188 192 1375 
C 192 582 774 -64 1510 -64 
C 1798 -64 2150 19 2470 248 
C 2470 274 2458 414 2451 420 
C 2451 433 2432 630 2432 656 
C 2125 407 1773 325 1517 325 
C 1107 325 666 667 646 1377 
L 2502 1377 
z
M 698 1728 
C 781 2084 1062 2421 1421 2421 
C 1517 2421 1965 2421 2080 1728 
L 698 1728 
z
" transform="scale(0.015625)"/>
       <path id="CMSS17-6e" d="M 2618 1877 
C 2618 2283 2522 2816 1798 2816 
C 1389 2816 1120 2606 941 2389 
L 941 2758 
L 474 2758 
L 474 0 
L 960 0 
L 960 1559 
C 960 1964 1114 2428 1549 2428 
C 2112 2428 2131 2048 2131 1829 
L 2131 0 
L 2618 0 
L 2618 1877 
z
" transform="scale(0.015625)"/>
       <path id="CMSS17-73" d="M 2061 2627 
C 1683 2807 1389 2807 1197 2807 
C 742 2807 198 2648 198 2003 
C 198 1359 902 1218 1094 1179 
C 1389 1122 1715 1058 1715 740 
C 1715 337 1254 337 1171 337 
C 915 337 563 407 243 638 
L 166 210 
C 531 0 883 -64 1178 -64 
C 1965 -64 2163 416 2163 781 
C 2163 1094 1984 1305 1862 1401 
C 1651 1568 1574 1587 1050 1696 
C 960 1709 646 1779 646 2066 
C 646 2432 1050 2432 1139 2432 
C 1555 2432 1811 2303 1984 2208 
L 2061 2627 
z
" transform="scale(0.015625)"/>
       <path id="CMSS17-69" d="M 979 4183 
L 442 4183 
L 442 3648 
L 979 3648 
L 979 4183 
z
M 947 2739 
L 474 2739 
L 474 0 
L 947 0 
L 947 2739 
z
" transform="scale(0.015625)"/>
       <path id="CMSS17-27" d="M 1088 3910 
L 1088 4413 
L 576 4413 
L 576 3904 
L 736 3904 
L 570 3104 
L 826 3104 
L 1088 3910 
z
" transform="scale(0.015625)"/>
       <path id="CMSS17-63" d="M 2464 2541 
C 2464 2585 2170 2714 2093 2739 
C 1882 2816 1613 2816 1542 2816 
C 710 2816 211 2093 211 1363 
C 211 595 768 -64 1517 -64 
C 1946 -64 2253 76 2502 242 
L 2464 664 
C 2189 453 1869 337 1523 337 
C 1024 337 698 774 698 1369 
C 698 1831 909 2414 1549 2414 
C 1901 2414 2099 2343 2394 2145 
L 2464 2541 
z
" transform="scale(0.015625)"/>
       <path id="CMSS17-6f" d="M 2829 1356 
C 2829 2176 2221 2816 1504 2816 
C 768 2816 173 2157 173 1356 
C 173 544 787 -64 1498 -64 
C 2227 -64 2829 563 2829 1356 
z
M 1504 337 
C 1050 337 659 709 659 1408 
C 659 2151 1114 2427 1498 2427 
C 1914 2427 2342 2126 2342 1408 
C 2342 683 1926 337 1504 337 
z
" transform="scale(0.015625)"/>
       <path id="CMSS17-76" d="M 2675 2752 
L 2176 2752 
L 1747 1556 
C 1613 1165 1421 627 1389 352 
L 1382 352 
C 1370 468 1318 634 1286 749 
C 1248 890 1197 1056 1158 1172 
L 595 2752 
L 83 2752 
L 1094 0 
L 1664 0 
L 2675 2752 
z
" transform="scale(0.015625)"/>
       <path id="CMR17-33" d="M 1414 2157 
C 1984 2157 2234 1662 2234 1090 
C 2234 320 1824 25 1453 25 
C 1114 25 563 194 390 693 
C 422 680 454 680 486 680 
C 640 680 755 782 755 948 
C 755 1133 614 1216 486 1216 
C 378 1216 211 1165 211 926 
C 211 335 787 -128 1466 -128 
C 2176 -128 2720 430 2720 1085 
C 2720 1707 2208 2157 1600 2227 
C 2086 2328 2554 2756 2554 3329 
C 2554 3820 2048 4179 1472 4179 
C 890 4179 378 3829 378 3329 
C 378 3110 544 3072 627 3072 
C 762 3072 877 3155 877 3321 
C 877 3486 762 3569 627 3569 
C 602 3569 570 3569 544 3557 
C 730 3959 1235 4032 1459 4032 
C 1683 4032 2106 3925 2106 3320 
C 2106 3143 2080 2828 1862 2550 
C 1670 2304 1453 2304 1242 2284 
C 1210 2284 1062 2269 1037 2269 
C 992 2263 966 2257 966 2208 
C 966 2163 973 2157 1101 2157 
L 1414 2157 
z
" transform="scale(0.015625)"/>
       <path id="CMMI12-1b" d="M 3251 2408 
C 3334 2408 3546 2408 3546 2612 
C 3546 2752 3424 2752 3309 2752 
L 1894 2752 
C 934 2752 243 1686 243 932 
C 243 390 595 -64 1171 -64 
C 1926 -64 2752 747 2752 1705 
C 2752 1954 2694 2196 2541 2408 
L 3251 2408 
z
M 1178 64 
C 851 64 614 313 614 754 
C 614 1137 845 2408 1786 2408 
C 2061 2408 2368 2274 2368 1781 
C 2368 1558 2266 1021 2042 652 
C 1811 275 1466 64 1178 64 
z
" transform="scale(0.015625)"/>
       <path id="CMSS17-2e" d="M 1088 510 
L 576 510 
L 576 0 
L 1088 0 
L 1088 510 
z
" transform="scale(0.015625)"/>
      </defs>
      <use xlink:href="#CMSS17-43" transform="scale(0.996264)"/>
      <use xlink:href="#CMSS17-65" transform="translate(59.855772 0) scale(0.996264)"/>
      <use xlink:href="#CMSS17-6e" transform="translate(101.494594 0) scale(0.996264)"/>
      <use xlink:href="#CMSS17-73" transform="translate(149.699537 0) scale(0.996264)"/>
      <use xlink:href="#CMSS17-69" transform="translate(185.613079 0) scale(0.996264)"/>
      <use xlink:href="#CMSS17-27" transform="translate(207.793802 0) scale(0.996264)"/>
      <use xlink:href="#CMSS17-73" transform="translate(233.818007 0) scale(0.996264)"/>
      <use xlink:href="#CMSS17-63" transform="translate(300.960661 0) scale(0.996264)"/>
      <use xlink:href="#CMSS17-6f" transform="translate(342.599484 0) scale(0.996264)"/>
      <use xlink:href="#CMSS17-76" transform="translate(389.443107 0) scale(0.996264)"/>
      <use xlink:href="#CMR17-33" transform="translate(463.672361 0) scale(0.996264)"/>
      <use xlink:href="#CMMI12-1b" transform="translate(509.362839 0) scale(0.996264)"/>
      <use xlink:href="#CMSS17-2e" transform="translate(568.382892 0) scale(0.996264)"/>
     </g>
    </g>
    <g id="line2d_26">
     <path d="M 300.962583 67.909178 
L 310.962583 67.909178 
L 320.962583 67.909178 
" style="fill: none; stroke: #008000; stroke-width: 1.5; stroke-linecap: square"/>
    </g>
    <g id="text_14">
     <!-- Brossard's cov $3\sigma$. -->
     <g transform="translate(328.962583 71.409178) scale(0.1 -0.1)">
      <defs>
       <path id="CMSS17-42" d="M 570 4416 
L 570 0 
L 2163 0 
C 3034 0 3667 574 3667 1200 
C 3667 1685 3251 2176 2502 2317 
C 3334 2558 3501 3040 3501 3313 
C 3501 3883 2874 4416 1997 4416 
L 570 4416 
z
M 1088 2496 
L 1088 4059 
L 1824 4059 
C 2483 4059 3002 3724 3002 3306 
C 3002 2926 2592 2496 1766 2496 
L 1088 2496 
z
M 1088 357 
L 1088 2107 
L 1939 2107 
C 2630 2107 3162 1679 3162 1206 
C 3162 772 2694 357 1984 357 
L 1088 357 
z
" transform="scale(0.015625)"/>
       <path id="CMSS17-72" d="M 954 1363 
C 954 1965 1395 2368 1958 2368 
L 1958 2789 
C 1549 2789 1165 2585 934 2253 
L 934 2758 
L 480 2758 
L 480 0 
L 954 0 
L 954 1363 
z
" transform="scale(0.015625)"/>
       <path id="CMSS17-61" d="M 2406 1791 
C 2406 2392 1978 2808 1402 2808 
C 1120 2808 813 2757 461 2553 
L 499 2135 
C 659 2248 934 2432 1395 2432 
C 1722 2432 1920 2180 1920 1782 
L 1920 1536 
C 896 1536 256 1238 256 726 
C 256 461 416 -64 947 -64 
C 1043 -64 1562 -64 1933 217 
L 1933 -19 
L 2406 -19 
L 2406 1791 
z
M 1920 816 
C 1920 701 1920 548 1728 434 
C 1562 325 1350 325 1261 325 
C 941 325 723 511 723 744 
C 723 1211 1722 1211 1920 1211 
L 1920 816 
z
" transform="scale(0.015625)"/>
       <path id="CMSS17-64" d="M 2611 4416 
L 2138 4416 
L 2138 2438 
C 1939 2603 1613 2756 1254 2756 
C 672 2756 211 2131 211 1347 
C 211 562 666 -64 1235 -64 
C 1677 -64 1971 172 2125 306 
L 2125 -13 
L 2611 -13 
L 2611 4416 
z
M 2125 836 
C 2125 747 2125 653 1926 482 
C 1798 375 1645 325 1498 325 
C 1152 325 698 576 698 1340 
C 698 2134 1210 2368 1562 2368 
C 1798 2368 1990 2254 2125 2065 
L 2125 836 
z
" transform="scale(0.015625)"/>
      </defs>
      <use xlink:href="#CMSS17-42" transform="scale(0.996264)"/>
      <use xlink:href="#CMSS17-72" transform="translate(62.33804 0) scale(0.996264)"/>
      <use xlink:href="#CMSS17-6f" transform="translate(94.247813 0) scale(0.996264)"/>
      <use xlink:href="#CMSS17-73" transform="translate(141.091436 0) scale(0.996264)"/>
      <use xlink:href="#CMSS17-73" transform="translate(177.004978 0) scale(0.996264)"/>
      <use xlink:href="#CMSS17-61" transform="translate(212.91852 0) scale(0.996264)"/>
      <use xlink:href="#CMSS17-72" transform="translate(255.237987 0) scale(0.996264)"/>
      <use xlink:href="#CMSS17-64" transform="translate(287.14776 0) scale(0.996264)"/>
      <use xlink:href="#CMSS17-27" transform="translate(335.352703 0) scale(0.996264)"/>
      <use xlink:href="#CMSS17-73" transform="translate(361.376908 0) scale(0.996264)"/>
      <use xlink:href="#CMSS17-63" transform="translate(428.519562 0) scale(0.996264)"/>
      <use xlink:href="#CMSS17-6f" transform="translate(470.158384 0) scale(0.996264)"/>
      <use xlink:href="#CMSS17-76" transform="translate(517.002008 0) scale(0.996264)"/>
      <use xlink:href="#CMR17-33" transform="translate(591.231262 0) scale(0.996264)"/>
      <use xlink:href="#CMMI12-1b" transform="translate(636.921739 0) scale(0.996264)"/>
      <use xlink:href="#CMSS17-2e" transform="translate(695.941793 0) scale(0.996264)"/>
     </g>
    </g>
    <g id="line2d_27">
     <g>
      <use xlink:href="#mb76b98b919" x="310.962583" y="81.846357" style="fill: #ff0000; stroke: #ff0000"/>
     </g>
    </g>
    <g id="text_15">
     <!-- Samples. -->
     <g transform="translate(328.962583 85.346357) scale(0.1 -0.1)">
      <defs>
       <path id="CMSS17-53" d="M 2797 4169 
C 2515 4334 2208 4480 1690 4480 
C 864 4480 333 3879 333 3266 
C 333 3025 403 2753 653 2475 
C 902 2196 1184 2121 1542 2033 
C 1690 1994 1939 1924 1984 1906 
C 2342 1767 2515 1444 2515 1140 
C 2515 742 2202 318 1645 318 
C 1453 318 890 318 358 819 
L 269 318 
C 794 -64 1363 -128 1651 -128 
C 2438 -128 3002 488 3002 1186 
C 3002 1440 2925 1763 2656 2061 
C 2394 2347 2163 2410 1638 2549 
C 1338 2626 1146 2677 986 2873 
C 877 3013 819 3146 819 3317 
C 819 3673 1126 4060 1690 4060 
C 1971 4060 2336 4002 2707 3660 
L 2797 4169 
z
" transform="scale(0.015625)"/>
       <path id="CMSS17-70" d="M 966 333 
C 1178 129 1466 -5 1773 -5 
C 2368 -5 2880 603 2880 1412 
C 2880 2159 2496 2816 1946 2816 
C 1626 2816 1242 2702 954 2472 
L 954 2765 
L 480 2765 
L 480 -1216 
L 966 -1216 
L 966 333 
z
M 966 2100 
C 1018 2176 1235 2415 1587 2415 
C 2035 2415 2394 1960 2394 1412 
C 2394 787 1958 384 1530 384 
C 1402 384 1267 415 1139 523 
C 966 674 966 768 966 857 
L 966 2100 
z
" transform="scale(0.015625)"/>
       <path id="CMSS17-6c" d="M 947 4416 
L 474 4416 
L 474 0 
L 947 0 
L 947 4416 
z
" transform="scale(0.015625)"/>
      </defs>
      <use xlink:href="#CMSS17-53" transform="scale(0.996264)"/>
      <use xlink:href="#CMSS17-61" transform="translate(52.048516 0) scale(0.996264)"/>
      <use xlink:href="#CMSS17-6d" transform="translate(96.970437 0) scale(0.996264)"/>
      <use xlink:href="#CMSS17-70" transform="translate(171.199691 0) scale(0.996264)"/>
      <use xlink:href="#CMSS17-6c" transform="translate(219.404634 0) scale(0.996264)"/>
      <use xlink:href="#CMSS17-65" transform="translate(241.585357 0) scale(0.996264)"/>
      <use xlink:href="#CMSS17-73" transform="translate(283.224179 0) scale(0.996264)"/>
      <use xlink:href="#CMSS17-2e" transform="translate(319.137721 0) scale(0.996264)"/>
     </g>
    </g>
    <g id="line2d_28">
     <path d="M 300.962583 95.783535 
L 310.962583 95.783535 
L 320.962583 95.783535 
" style="fill: none; stroke: #ff0000; stroke-width: 1.5; stroke-linecap: square"/>
    </g>
    <g id="text_16">
     <!-- Sample cov $3\sigma$. -->
     <g transform="translate(328.962583 99.283535) scale(0.1 -0.1)">
      <use xlink:href="#CMSS17-53" transform="scale(0.996264)"/>
      <use xlink:href="#CMSS17-61" transform="translate(52.048516 0) scale(0.996264)"/>
      <use xlink:href="#CMSS17-6d" transform="translate(96.970437 0) scale(0.996264)"/>
      <use xlink:href="#CMSS17-70" transform="translate(171.199691 0) scale(0.996264)"/>
      <use xlink:href="#CMSS17-6c" transform="translate(219.404634 0) scale(0.996264)"/>
      <use xlink:href="#CMSS17-65" transform="translate(241.585357 0) scale(0.996264)"/>
      <use xlink:href="#CMSS17-63" transform="translate(314.453292 0) scale(0.996264)"/>
      <use xlink:href="#CMSS17-6f" transform="translate(356.092114 0) scale(0.996264)"/>
      <use xlink:href="#CMSS17-76" transform="translate(402.935738 0) scale(0.996264)"/>
      <use xlink:href="#CMR17-33" transform="translate(477.164992 0) scale(0.996264)"/>
      <use xlink:href="#CMMI12-1b" transform="translate(522.855469 0) scale(0.996264)"/>
      <use xlink:href="#CMSS17-2e" transform="translate(581.875523 0) scale(0.996264)"/>
     </g>
    </g>
   </g>
  </g>
 </g>
 <defs>
  <clipPath id="p284e05327c">
   <rect x="57.6" y="41.472" width="357.12" height="266.112"/>
  </clipPath>
 </defs>
</svg>
