<?xml version="1.0" encoding="utf-8" standalone="no"?>
<!DOCTYPE svg PUBLIC "-//W3C//DTD SVG 1.1//EN"
  "http://www.w3.org/Graphics/SVG/1.1/DTD/svg11.dtd">
<svg xmlns:xlink="http://www.w3.org/1999/xlink" width="460.8pt" height="345.6pt" viewBox="0 0 460.8 345.6" xmlns="http://www.w3.org/2000/svg" version="1.1">
 <metadata>
  <rdf:RDF xmlns:dc="http://purl.org/dc/elements/1.1/" xmlns:cc="http://creativecommons.org/ns#" xmlns:rdf="http://www.w3.org/1999/02/22-rdf-syntax-ns#">
   <cc:Work>
    <dc:type rdf:resource="http://purl.org/dc/dcmitype/StillImage"/>
    <dc:date>2022-12-17T15:06:05.431724</dc:date>
    <dc:format>image/svg+xml</dc:format>
    <dc:creator>
     <cc:Agent>
      <dc:title>Matplotlib v3.6.0, https://matplotlib.org/</dc:title>
     </cc:Agent>
    </dc:creator>
   </cc:Work>
  </rdf:RDF>
 </metadata>
 <defs>
  <style type="text/css">*{stroke-linejoin: round; stroke-linecap: butt}</style>
 </defs>
 <g id="figure_1">
  <g id="patch_1">
   <path d="M 0 345.6 
L 460.8 345.6 
L 460.8 0 
L 0 0 
z
" style="fill: #ffffff"/>
  </g>
  <g id="axes_1">
   <g id="patch_2">
    <path d="M 57.6 307.584 
L 414.72 307.584 
L 414.72 41.472 
L 57.6 41.472 
z
" style="fill: #ffffff"/>
   </g>
   <g id="patch_3">
    <path d="M 233.590958 178.150307 
L 233.581435 176.8687 
L 233.612578 175.550179 
L 233.683895 174.215538 
L 233.794262 172.885824 
L 233.941937 171.582008 
L 234.124593 170.324653 
L 234.339349 169.133586 
L 234.582817 168.027593 
L 234.851159 167.024115 
L 235.140141 166.138978 
L 235.445208 165.386141 
L 235.761547 164.777476 
L 236.08417 164.322583 
L 236.407989 164.028636 
L 236.727897 163.900269 
L 237.038849 163.939509 
L 237.33594 164.145735 
L 237.614487 164.515695 
L 237.870095 165.043556 
L 238.098735 165.720992 
L 238.296799 166.53732 
L 238.461165 167.479666 
L 238.58924 168.533168 
L 238.679004 169.681212 
L 238.729042 170.905693 
L 238.738565 172.1873 
L 238.707422 173.505821 
L 238.636105 174.840462 
L 238.525738 176.170176 
L 238.378063 177.473992 
L 238.195407 178.731347 
L 237.980651 179.922414 
L 237.737183 181.028407 
L 237.468841 182.031885 
L 237.179859 182.917022 
L 236.874792 183.669859 
L 236.558453 184.278524 
L 236.23583 184.733417 
L 235.912011 185.027364 
L 235.592103 185.155731 
L 235.281151 185.116491 
L 234.98406 184.910265 
L 234.705513 184.540305 
L 234.449905 184.012444 
L 234.221265 183.335008 
L 234.023201 182.51868 
L 233.858835 181.576334 
L 233.73076 180.522832 
L 233.640996 179.374788 
L 233.590958 178.150307 
L 233.590958 178.150307 
z
" clip-path="url(#pa163d8bdcc)" style="fill: none; opacity: 0"/>
   </g>
   <g id="patch_4">
    <path d="M 103.557804 247.257299 
L 104.567267 242.774166 
L 107.652026 237.21475 
L 112.763433 230.666726 
L 119.820877 223.233361 
L 128.713058 215.031883 
L 139.299743 206.191635 
L 151.413971 196.852033 
L 164.864694 187.160367 
L 179.439788 177.269481 
L 194.909392 167.33536 
L 211.029544 157.514672 
L 227.546018 147.962294 
L 244.198339 138.828873 
L 260.723892 130.258448 
L 276.862056 122.386181 
L 292.358326 115.336222 
L 306.968314 109.219752 
L 320.461612 104.133232 
L 332.625424 100.15688 
L 343.267918 97.353405 
L 352.221257 95.767019 
L 359.34424 95.422741 
L 364.524534 96.326 
L 367.680443 98.462552 
L 368.762196 101.798701 
L 367.752733 106.281834 
L 364.667974 111.84125 
L 359.556567 118.389274 
L 352.499123 125.822639 
L 343.606942 134.024117 
L 333.020257 142.864365 
L 320.906029 152.203967 
L 307.455306 161.895633 
L 292.880212 171.786519 
L 277.410608 181.72064 
L 261.290456 191.541328 
L 244.773982 201.093706 
L 228.121661 210.227127 
L 211.596108 218.797552 
L 195.457944 226.669819 
L 179.961674 233.719778 
L 165.351686 239.836248 
L 151.858388 244.922768 
L 139.694576 248.89912 
L 129.052082 251.702595 
L 120.098743 253.288981 
L 112.97576 253.633259 
L 107.795466 252.73 
L 104.639557 250.593448 
L 103.557804 247.257299 
L 103.557804 247.257299 
z
" clip-path="url(#pa163d8bdcc)" style="fill: none; opacity: 0"/>
   </g>
   <g id="patch_5">
    <path d="M 73.832727 267.861332 
L 75.018818 257.435751 
L 78.746202 245.702664 
L 84.956095 232.84711 
L 93.550564 219.07183 
L 104.394069 204.594066 
L 117.315602 189.642143 
L 132.111381 174.45186 
L 148.54807 159.262778 
L 166.366451 144.314438 
L 185.285518 129.842584 
L 205.006906 116.075446 
L 225.219597 103.230139 
L 245.604824 91.509242 
L 265.841101 81.097601 
L 285.60929 72.159412 
L 304.597633 64.835638 
L 322.506674 59.241778 
L 339.053977 55.46605 
L 353.97858 53.568 
L 367.045114 53.577562 
L 378.047511 55.494584 
L 386.812257 59.288835 
L 393.201128 64.900476 
L 397.113366 72.241008 
L 398.487273 81.194668 
L 397.301182 91.620249 
L 393.573798 103.353336 
L 387.363905 116.20889 
L 378.769436 129.98417 
L 367.925931 144.461934 
L 355.004398 159.413857 
L 340.208619 174.60414 
L 323.77193 189.793222 
L 305.953549 204.741562 
L 287.034482 219.213416 
L 267.313094 232.980554 
L 247.100403 245.825861 
L 226.715176 257.546758 
L 206.478899 267.958399 
L 186.71071 276.896588 
L 167.722367 284.220362 
L 149.813326 289.814222 
L 133.266023 293.58995 
L 118.34142 295.488 
L 105.274886 295.478438 
L 94.272489 293.561416 
L 85.507743 289.767165 
L 79.118872 284.155524 
L 75.206634 276.814992 
L 73.832727 267.861332 
L 73.832727 267.861332 
z
" clip-path="url(#pa163d8bdcc)" style="fill: none; opacity: 0"/>
   </g>
   <g id="matplotlib.axis_1">
    <g id="xtick_1">
     <g id="line2d_1">
      <path d="M 89.060534 307.584 
L 89.060534 41.472 
" clip-path="url(#pa163d8bdcc)" style="fill: none; stroke: #b0b0b0; stroke-width: 0.8; stroke-linecap: square"/>
     </g>
     <g id="line2d_2">
      <defs>
       <path id="m7892e9231b" d="M 0 0 
L 0 3.5 
" style="stroke: #000000; stroke-width: 0.8"/>
      </defs>
      <g>
       <use xlink:href="#m7892e9231b" x="89.060534" y="307.584" style="stroke: #000000; stroke-width: 0.8"/>
      </g>
     </g>
     <g id="text_1">
      <!-- $\mathdefault{−0.2}$ -->
      <g transform="translate(78.821123 321.502498) scale(0.1 -0.1)">
       <defs>
        <path id="CMSY10-0" d="M 4218 1472 
C 4326 1472 4442 1472 4442 1600 
C 4442 1728 4326 1728 4218 1728 
L 755 1728 
C 646 1728 531 1728 531 1600 
C 531 1472 646 1472 755 1472 
L 4218 1472 
z
" transform="scale(0.015625)"/>
        <path id="CMR17-30" d="M 2688 2025 
C 2688 2416 2682 3080 2413 3591 
C 2176 4039 1798 4198 1466 4198 
C 1158 4198 768 4058 525 3597 
C 269 3118 243 2524 243 2025 
C 243 1661 250 1106 448 619 
C 723 -39 1216 -128 1466 -128 
C 1760 -128 2208 -7 2470 600 
C 2662 1042 2688 1559 2688 2025 
z
M 1466 -26 
C 1056 -26 813 325 723 812 
C 653 1188 653 1738 653 2096 
C 653 2588 653 2997 736 3387 
C 858 3929 1216 4096 1466 4096 
C 1728 4096 2067 3923 2189 3400 
C 2272 3036 2278 2607 2278 2096 
C 2278 1680 2278 1169 2202 792 
C 2067 95 1690 -26 1466 -26 
z
" transform="scale(0.015625)"/>
        <path id="CMMI12-3a" d="M 1178 307 
C 1178 492 1024 619 870 619 
C 685 619 557 466 557 313 
C 557 128 710 0 864 0 
C 1050 0 1178 153 1178 307 
z
" transform="scale(0.015625)"/>
        <path id="CMR17-32" d="M 2669 989 
L 2554 989 
C 2490 536 2438 459 2413 420 
C 2381 369 1920 369 1830 369 
L 602 369 
C 832 619 1280 1072 1824 1597 
C 2214 1967 2669 2402 2669 3035 
C 2669 3790 2067 4224 1395 4224 
C 691 4224 262 3604 262 3030 
C 262 2780 448 2748 525 2748 
C 589 2748 781 2787 781 3010 
C 781 3207 614 3264 525 3264 
C 486 3264 448 3258 422 3245 
C 544 3790 915 4058 1306 4058 
C 1862 4058 2227 3617 2227 3035 
C 2227 2479 1901 2000 1536 1584 
L 262 146 
L 262 0 
L 2515 0 
L 2669 989 
z
" transform="scale(0.015625)"/>
       </defs>
       <use xlink:href="#CMSY10-0" transform="scale(0.996264)"/>
       <use xlink:href="#CMR17-30" transform="translate(77.487468 0) scale(0.996264)"/>
       <use xlink:href="#CMMI12-3a" transform="translate(123.177945 0) scale(0.996264)"/>
       <use xlink:href="#CMR17-32" transform="translate(150.275122 0) scale(0.996264)"/>
      </g>
     </g>
    </g>
    <g id="xtick_2">
     <g id="line2d_3">
      <path d="M 153.714708 307.584 
L 153.714708 41.472 
" clip-path="url(#pa163d8bdcc)" style="fill: none; stroke: #b0b0b0; stroke-width: 0.8; stroke-linecap: square"/>
     </g>
     <g id="line2d_4">
      <g>
       <use xlink:href="#m7892e9231b" x="153.714708" y="307.584" style="stroke: #000000; stroke-width: 0.8"/>
      </g>
     </g>
     <g id="text_2">
      <!-- $\mathdefault{−0.1}$ -->
      <g transform="translate(143.475297 321.502498) scale(0.1 -0.1)">
       <defs>
        <path id="CMR17-31" d="M 1702 4058 
C 1702 4192 1696 4192 1606 4192 
C 1357 3916 979 3827 621 3827 
C 602 3827 570 3827 563 3808 
C 557 3795 557 3782 557 3648 
C 755 3648 1088 3686 1344 3839 
L 1344 461 
C 1344 236 1331 160 781 160 
L 589 160 
L 589 0 
C 896 0 1216 0 1523 0 
C 1830 0 2150 0 2458 0 
L 2458 160 
L 2266 160 
C 1715 160 1702 230 1702 458 
L 1702 4058 
z
" transform="scale(0.015625)"/>
       </defs>
       <use xlink:href="#CMSY10-0" transform="scale(0.996264)"/>
       <use xlink:href="#CMR17-30" transform="translate(77.487468 0) scale(0.996264)"/>
       <use xlink:href="#CMMI12-3a" transform="translate(123.177945 0) scale(0.996264)"/>
       <use xlink:href="#CMR17-31" transform="translate(150.275122 0) scale(0.996264)"/>
      </g>
     </g>
    </g>
    <g id="xtick_3">
     <g id="line2d_5">
      <path d="M 218.368882 307.584 
L 218.368882 41.472 
" clip-path="url(#pa163d8bdcc)" style="fill: none; stroke: #b0b0b0; stroke-width: 0.8; stroke-linecap: square"/>
     </g>
     <g id="line2d_6">
      <g>
       <use xlink:href="#m7892e9231b" x="218.368882" y="307.584" style="stroke: #000000; stroke-width: 0.8"/>
      </g>
     </g>
     <g id="text_3">
      <!-- $\mathdefault{0.0}$ -->
      <g transform="translate(212.003842 321.502498) scale(0.1 -0.1)">
       <use xlink:href="#CMR17-30" transform="scale(0.996264)"/>
       <use xlink:href="#CMMI12-3a" transform="translate(45.690477 0) scale(0.996264)"/>
       <use xlink:href="#CMR17-30" transform="translate(72.787654 0) scale(0.996264)"/>
      </g>
     </g>
    </g>
    <g id="xtick_4">
     <g id="line2d_7">
      <path d="M 283.023056 307.584 
L 283.023056 41.472 
" clip-path="url(#pa163d8bdcc)" style="fill: none; stroke: #b0b0b0; stroke-width: 0.8; stroke-linecap: square"/>
     </g>
     <g id="line2d_8">
      <g>
       <use xlink:href="#m7892e9231b" x="283.023056" y="307.584" style="stroke: #000000; stroke-width: 0.8"/>
      </g>
     </g>
     <g id="text_4">
      <!-- $\mathdefault{0.1}$ -->
      <g transform="translate(276.658016 321.502498) scale(0.1 -0.1)">
       <use xlink:href="#CMR17-30" transform="scale(0.996264)"/>
       <use xlink:href="#CMMI12-3a" transform="translate(45.690477 0) scale(0.996264)"/>
       <use xlink:href="#CMR17-31" transform="translate(72.787654 0) scale(0.996264)"/>
      </g>
     </g>
    </g>
    <g id="xtick_5">
     <g id="line2d_9">
      <path d="M 347.677229 307.584 
L 347.677229 41.472 
" clip-path="url(#pa163d8bdcc)" style="fill: none; stroke: #b0b0b0; stroke-width: 0.8; stroke-linecap: square"/>
     </g>
     <g id="line2d_10">
      <g>
       <use xlink:href="#m7892e9231b" x="347.677229" y="307.584" style="stroke: #000000; stroke-width: 0.8"/>
      </g>
     </g>
     <g id="text_5">
      <!-- $\mathdefault{0.2}$ -->
      <g transform="translate(341.31219 321.502498) scale(0.1 -0.1)">
       <use xlink:href="#CMR17-30" transform="scale(0.996264)"/>
       <use xlink:href="#CMMI12-3a" transform="translate(45.690477 0) scale(0.996264)"/>
       <use xlink:href="#CMR17-32" transform="translate(72.787654 0) scale(0.996264)"/>
      </g>
     </g>
    </g>
    <g id="xtick_6">
     <g id="line2d_11">
      <path d="M 412.331403 307.584 
L 412.331403 41.472 
" clip-path="url(#pa163d8bdcc)" style="fill: none; stroke: #b0b0b0; stroke-width: 0.8; stroke-linecap: square"/>
     </g>
     <g id="line2d_12">
      <g>
       <use xlink:href="#m7892e9231b" x="412.331403" y="307.584" style="stroke: #000000; stroke-width: 0.8"/>
      </g>
     </g>
     <g id="text_6">
      <!-- $\mathdefault{0.3}$ -->
      <g transform="translate(405.966364 321.502498) scale(0.1 -0.1)">
       <defs>
        <path id="CMR17-33" d="M 1414 2157 
C 1984 2157 2234 1662 2234 1090 
C 2234 320 1824 25 1453 25 
C 1114 25 563 194 390 693 
C 422 680 454 680 486 680 
C 640 680 755 782 755 948 
C 755 1133 614 1216 486 1216 
C 378 1216 211 1165 211 926 
C 211 335 787 -128 1466 -128 
C 2176 -128 2720 430 2720 1085 
C 2720 1707 2208 2157 1600 2227 
C 2086 2328 2554 2756 2554 3329 
C 2554 3820 2048 4179 1472 4179 
C 890 4179 378 3829 378 3329 
C 378 3110 544 3072 627 3072 
C 762 3072 877 3155 877 3321 
C 877 3486 762 3569 627 3569 
C 602 3569 570 3569 544 3557 
C 730 3959 1235 4032 1459 4032 
C 1683 4032 2106 3925 2106 3320 
C 2106 3143 2080 2828 1862 2550 
C 1670 2304 1453 2304 1242 2284 
C 1210 2284 1062 2269 1037 2269 
C 992 2263 966 2257 966 2208 
C 966 2163 973 2157 1101 2157 
L 1414 2157 
z
" transform="scale(0.015625)"/>
       </defs>
       <use xlink:href="#CMR17-30" transform="scale(0.996264)"/>
       <use xlink:href="#CMMI12-3a" transform="translate(45.690477 0) scale(0.996264)"/>
       <use xlink:href="#CMR17-33" transform="translate(72.787654 0) scale(0.996264)"/>
      </g>
     </g>
    </g>
    <g id="text_7">
     <!-- x [m] -->
     <g transform="translate(225.36713 334.911657) scale(0.1 -0.1)">
      <defs>
       <path id="CMSS17-78" d="M 1587 1414 
L 2656 2739 
L 2099 2739 
L 1363 1777 
L 602 2739 
L 32 2739 
L 1139 1414 
L 0 0 
L 563 0 
L 1363 1121 
L 2195 0 
L 2758 0 
L 1587 1414 
z
" transform="scale(0.015625)"/>
       <path id="CMSS17-5b" d="M 1613 -1600 
L 1613 -1212 
L 1062 -1212 
L 1062 4352 
L 1613 4352 
L 1613 4741 
L 595 4741 
L 595 -1600 
L 1613 -1600 
z
" transform="scale(0.015625)"/>
       <path id="CMSS17-6d" d="M 4288 1877 
C 4288 2308 4179 2816 3462 2816 
C 2982 2816 2694 2516 2566 2331 
C 2451 2670 2182 2816 1798 2816 
C 1363 2816 1088 2568 941 2389 
L 941 2758 
L 474 2758 
L 474 0 
L 960 0 
L 960 1559 
C 960 1939 1101 2428 1555 2428 
C 2138 2428 2138 2016 2138 1829 
L 2138 0 
L 2624 0 
L 2624 1559 
C 2624 1939 2765 2428 3219 2428 
C 3802 2428 3802 2016 3802 1829 
L 3802 0 
L 4288 0 
L 4288 1877 
z
" transform="scale(0.015625)"/>
       <path id="CMSS17-5d" d="M 1146 4741 
L 128 4741 
L 128 4352 
L 678 4352 
L 678 -1212 
L 128 -1212 
L 128 -1600 
L 1146 -1600 
L 1146 4741 
z
" transform="scale(0.015625)"/>
      </defs>
      <use xlink:href="#CMSS17-78" transform="scale(0.996264)"/>
      <use xlink:href="#CMSS17-5b" transform="translate(74.229254 0) scale(0.996264)"/>
      <use xlink:href="#CMSS17-6d" transform="translate(101.414693 0) scale(0.996264)"/>
      <use xlink:href="#CMSS17-5d" transform="translate(175.643948 0) scale(0.996264)"/>
     </g>
    </g>
   </g>
   <g id="matplotlib.axis_2">
    <g id="ytick_1">
     <g id="line2d_13">
      <path d="M 57.6 305.312439 
L 414.72 305.312439 
" clip-path="url(#pa163d8bdcc)" style="fill: none; stroke: #b0b0b0; stroke-width: 0.8; stroke-linecap: square"/>
     </g>
     <g id="line2d_14">
      <defs>
       <path id="m912d9fb463" d="M 0 0 
L -3.5 0 
" style="stroke: #000000; stroke-width: 0.8"/>
      </defs>
      <g>
       <use xlink:href="#m912d9fb463" x="57.6" y="305.312439" style="stroke: #000000; stroke-width: 0.8"/>
      </g>
     </g>
     <g id="text_8">
      <!-- $\mathdefault{−0.02}$ -->
      <g transform="translate(25.139842 308.771688) scale(0.1 -0.1)">
       <use xlink:href="#CMSY10-0" transform="scale(0.996264)"/>
       <use xlink:href="#CMR17-30" transform="translate(77.487468 0) scale(0.996264)"/>
       <use xlink:href="#CMMI12-3a" transform="translate(123.177945 0) scale(0.996264)"/>
       <use xlink:href="#CMR17-30" transform="translate(150.275122 0) scale(0.996264)"/>
       <use xlink:href="#CMR17-32" transform="translate(195.965599 0) scale(0.996264)"/>
      </g>
     </g>
    </g>
    <g id="ytick_2">
     <g id="line2d_15">
      <path d="M 57.6 255.51341 
L 414.72 255.51341 
" clip-path="url(#pa163d8bdcc)" style="fill: none; stroke: #b0b0b0; stroke-width: 0.8; stroke-linecap: square"/>
     </g>
     <g id="line2d_16">
      <g>
       <use xlink:href="#m912d9fb463" x="57.6" y="255.51341" style="stroke: #000000; stroke-width: 0.8"/>
      </g>
     </g>
     <g id="text_9">
      <!-- $\mathdefault{−0.01}$ -->
      <g transform="translate(25.139842 258.97266) scale(0.1 -0.1)">
       <use xlink:href="#CMSY10-0" transform="scale(0.996264)"/>
       <use xlink:href="#CMR17-30" transform="translate(77.487468 0) scale(0.996264)"/>
       <use xlink:href="#CMMI12-3a" transform="translate(123.177945 0) scale(0.996264)"/>
       <use xlink:href="#CMR17-30" transform="translate(150.275122 0) scale(0.996264)"/>
       <use xlink:href="#CMR17-31" transform="translate(195.965599 0) scale(0.996264)"/>
      </g>
     </g>
    </g>
    <g id="ytick_3">
     <g id="line2d_17">
      <path d="M 57.6 205.714382 
L 414.72 205.714382 
" clip-path="url(#pa163d8bdcc)" style="fill: none; stroke: #b0b0b0; stroke-width: 0.8; stroke-linecap: square"/>
     </g>
     <g id="line2d_18">
      <g>
       <use xlink:href="#m912d9fb463" x="57.6" y="205.714382" style="stroke: #000000; stroke-width: 0.8"/>
      </g>
     </g>
     <g id="text_10">
      <!-- $\mathdefault{0.00}$ -->
      <g transform="translate(32.888586 209.173631) scale(0.1 -0.1)">
       <use xlink:href="#CMR17-30" transform="scale(0.996264)"/>
       <use xlink:href="#CMMI12-3a" transform="translate(45.690477 0) scale(0.996264)"/>
       <use xlink:href="#CMR17-30" transform="translate(72.787654 0) scale(0.996264)"/>
       <use xlink:href="#CMR17-30" transform="translate(118.478131 0) scale(0.996264)"/>
      </g>
     </g>
    </g>
    <g id="ytick_4">
     <g id="line2d_19">
      <path d="M 57.6 155.915354 
L 414.72 155.915354 
" clip-path="url(#pa163d8bdcc)" style="fill: none; stroke: #b0b0b0; stroke-width: 0.8; stroke-linecap: square"/>
     </g>
     <g id="line2d_20">
      <g>
       <use xlink:href="#m912d9fb463" x="57.6" y="155.915354" style="stroke: #000000; stroke-width: 0.8"/>
      </g>
     </g>
     <g id="text_11">
      <!-- $\mathdefault{0.01}$ -->
      <g transform="translate(32.888586 159.374603) scale(0.1 -0.1)">
       <use xlink:href="#CMR17-30" transform="scale(0.996264)"/>
       <use xlink:href="#CMMI12-3a" transform="translate(45.690477 0) scale(0.996264)"/>
       <use xlink:href="#CMR17-30" transform="translate(72.787654 0) scale(0.996264)"/>
       <use xlink:href="#CMR17-31" transform="translate(118.478131 0) scale(0.996264)"/>
      </g>
     </g>
    </g>
    <g id="ytick_5">
     <g id="line2d_21">
      <path d="M 57.6 106.116326 
L 414.72 106.116326 
" clip-path="url(#pa163d8bdcc)" style="fill: none; stroke: #b0b0b0; stroke-width: 0.8; stroke-linecap: square"/>
     </g>
     <g id="line2d_22">
      <g>
       <use xlink:href="#m912d9fb463" x="57.6" y="106.116326" style="stroke: #000000; stroke-width: 0.8"/>
      </g>
     </g>
     <g id="text_12">
      <!-- $\mathdefault{0.02}$ -->
      <g transform="translate(32.888586 109.575575) scale(0.1 -0.1)">
       <use xlink:href="#CMR17-30" transform="scale(0.996264)"/>
       <use xlink:href="#CMMI12-3a" transform="translate(45.690477 0) scale(0.996264)"/>
       <use xlink:href="#CMR17-30" transform="translate(72.787654 0) scale(0.996264)"/>
       <use xlink:href="#CMR17-32" transform="translate(118.478131 0) scale(0.996264)"/>
      </g>
     </g>
    </g>
    <g id="ytick_6">
     <g id="line2d_23">
      <path d="M 57.6 56.317298 
L 414.72 56.317298 
" clip-path="url(#pa163d8bdcc)" style="fill: none; stroke: #b0b0b0; stroke-width: 0.8; stroke-linecap: square"/>
     </g>
     <g id="line2d_24">
      <g>
       <use xlink:href="#m912d9fb463" x="57.6" y="56.317298" style="stroke: #000000; stroke-width: 0.8"/>
      </g>
     </g>
     <g id="text_13">
      <!-- $\mathdefault{0.03}$ -->
      <g transform="translate(32.888586 59.776547) scale(0.1 -0.1)">
       <use xlink:href="#CMR17-30" transform="scale(0.996264)"/>
       <use xlink:href="#CMMI12-3a" transform="translate(45.690477 0) scale(0.996264)"/>
       <use xlink:href="#CMR17-30" transform="translate(72.787654 0) scale(0.996264)"/>
       <use xlink:href="#CMR17-33" transform="translate(118.478131 0) scale(0.996264)"/>
      </g>
     </g>
    </g>
    <g id="text_14">
     <!-- y [m] -->
     <g transform="translate(18.649182 185.32087) rotate(-90) scale(0.1 -0.1)">
      <defs>
       <path id="CMSS17-79" d="M 2675 2752 
L 2176 2752 
C 1632 1294 1446 702 1434 383 
L 1427 383 
C 1408 696 1126 1460 902 2007 
L 602 2752 
L 83 2752 
L 1216 13 
C 1146 -178 1043 -465 1011 -529 
C 870 -885 774 -885 672 -885 
C 646 -885 442 -885 211 -809 
L 250 -1229 
C 410 -1261 570 -1280 685 -1280 
C 845 -1280 1165 -1280 1459 -497 
L 2675 2752 
z
" transform="scale(0.015625)"/>
      </defs>
      <use xlink:href="#CMSS17-79" transform="scale(0.996264)"/>
      <use xlink:href="#CMSS17-5b" transform="translate(74.229254 0) scale(0.996264)"/>
      <use xlink:href="#CMSS17-6d" transform="translate(101.414693 0) scale(0.996264)"/>
      <use xlink:href="#CMSS17-5d" transform="translate(175.643948 0) scale(0.996264)"/>
     </g>
    </g>
   </g>
   <g id="line2d_25">
    <path d="M 233.590958 178.150307 
L 233.581435 176.8687 
L 233.612578 175.550179 
L 233.683895 174.215538 
L 233.794262 172.885824 
L 233.941937 171.582008 
L 234.124593 170.324653 
L 234.339349 169.133586 
L 234.582817 168.027593 
L 234.851159 167.024115 
L 235.140141 166.138978 
L 235.445208 165.386141 
L 235.761547 164.777476 
L 236.08417 164.322583 
L 236.407989 164.028636 
L 236.727897 163.900269 
L 237.038849 163.939509 
L 237.33594 164.145735 
L 237.614487 164.515695 
L 237.870095 165.043556 
L 238.098735 165.720992 
L 238.296799 166.53732 
L 238.461165 167.479666 
L 238.58924 168.533168 
L 238.679004 169.681212 
L 238.729042 170.905693 
L 238.738565 172.1873 
L 238.707422 173.505821 
L 238.636105 174.840462 
L 238.525738 176.170176 
L 238.378063 177.473992 
L 238.195407 178.731347 
L 237.980651 179.922414 
L 237.737183 181.028407 
L 237.468841 182.031885 
L 237.179859 182.917022 
L 236.874792 183.669859 
L 236.558453 184.278524 
L 236.23583 184.733417 
L 235.912011 185.027364 
L 235.592103 185.155731 
L 235.281151 185.116491 
L 234.98406 184.910265 
L 234.705513 184.540305 
L 234.449905 184.012444 
L 234.221265 183.335008 
L 234.023201 182.51868 
L 233.858835 181.576334 
L 233.73076 180.522832 
L 233.640996 179.374788 
L 233.590958 178.150307 
" clip-path="url(#pa163d8bdcc)" style="fill: none; stroke: #0000ff; stroke-width: 1.5; stroke-linecap: square"/>
   </g>
   <g id="line2d_26">
    <path d="M 103.557804 247.257299 
L 104.567267 242.774166 
L 107.652026 237.21475 
L 112.763433 230.666726 
L 119.820877 223.233361 
L 128.713058 215.031883 
L 139.299743 206.191635 
L 151.413971 196.852033 
L 164.864694 187.160367 
L 179.439788 177.269481 
L 194.909392 167.33536 
L 211.029544 157.514672 
L 227.546018 147.962294 
L 244.198339 138.828873 
L 260.723892 130.258448 
L 276.862056 122.386181 
L 292.358326 115.336222 
L 306.968314 109.219752 
L 320.461612 104.133232 
L 332.625424 100.15688 
L 343.267918 97.353405 
L 352.221257 95.767019 
L 359.34424 95.422741 
L 364.524534 96.326 
L 367.680443 98.462552 
L 368.762196 101.798701 
L 367.752733 106.281834 
L 364.667974 111.84125 
L 359.556567 118.389274 
L 352.499123 125.822639 
L 343.606942 134.024117 
L 333.020257 142.864365 
L 320.906029 152.203967 
L 307.455306 161.895633 
L 292.880212 171.786519 
L 277.410608 181.72064 
L 261.290456 191.541328 
L 244.773982 201.093706 
L 228.121661 210.227127 
L 211.596108 218.797552 
L 195.457944 226.669819 
L 179.961674 233.719778 
L 165.351686 239.836248 
L 151.858388 244.922768 
L 139.694576 248.89912 
L 129.052082 251.702595 
L 120.098743 253.288981 
L 112.97576 253.633259 
L 107.795466 252.73 
L 104.639557 250.593448 
L 103.557804 247.257299 
" clip-path="url(#pa163d8bdcc)" style="fill: none; stroke: #008000; stroke-width: 1.5; stroke-linecap: square"/>
   </g>
   <g id="line2d_27">
    <defs>
     <path id="m938aa08cb1" d="M 0 1.5 
C 0.397805 1.5 0.77937 1.341951 1.06066 1.06066 
C 1.341951 0.77937 1.5 0.397805 1.5 0 
C 1.5 -0.397805 1.341951 -0.77937 1.06066 -1.06066 
C 0.77937 -1.341951 0.397805 -1.5 0 -1.5 
C -0.397805 -1.5 -0.77937 -1.341951 -1.06066 -1.06066 
C -1.341951 -0.77937 -1.5 -0.397805 -1.5 0 
C -1.5 0.397805 -1.341951 0.77937 -1.06066 1.06066 
C -0.77937 1.341951 -0.397805 1.5 0 1.5 
z
" style="stroke: #ff0000"/>
    </defs>
    <g clip-path="url(#pa163d8bdcc)">
     <use xlink:href="#m938aa08cb1" x="260.592425" y="169.432197" style="fill: #ff0000; stroke: #ff0000"/>
     <use xlink:href="#m938aa08cb1" x="351.97721" y="160.831265" style="fill: #ff0000; stroke: #ff0000"/>
     <use xlink:href="#m938aa08cb1" x="195.950682" y="215.86081" style="fill: #ff0000; stroke: #ff0000"/>
     <use xlink:href="#m938aa08cb1" x="258.824227" y="155.8094" style="fill: #ff0000; stroke: #ff0000"/>
     <use xlink:href="#m938aa08cb1" x="215.746911" y="148.540592" style="fill: #ff0000; stroke: #ff0000"/>
     <use xlink:href="#m938aa08cb1" x="211.673484" y="184.683033" style="fill: #ff0000; stroke: #ff0000"/>
     <use xlink:href="#m938aa08cb1" x="253.268082" y="151.38016" style="fill: #ff0000; stroke: #ff0000"/>
     <use xlink:href="#m938aa08cb1" x="143.623978" y="241.554429" style="fill: #ff0000; stroke: #ff0000"/>
     <use xlink:href="#m938aa08cb1" x="214.447064" y="174.452941" style="fill: #ff0000; stroke: #ff0000"/>
     <use xlink:href="#m938aa08cb1" x="180.780124" y="162.488486" style="fill: #ff0000; stroke: #ff0000"/>
     <use xlink:href="#m938aa08cb1" x="243.314265" y="157.42343" style="fill: #ff0000; stroke: #ff0000"/>
     <use xlink:href="#m938aa08cb1" x="219.586285" y="223.095913" style="fill: #ff0000; stroke: #ff0000"/>
     <use xlink:href="#m938aa08cb1" x="280.835196" y="149.359558" style="fill: #ff0000; stroke: #ff0000"/>
     <use xlink:href="#m938aa08cb1" x="262.023211" y="165.037262" style="fill: #ff0000; stroke: #ff0000"/>
     <use xlink:href="#m938aa08cb1" x="257.512503" y="110.282718" style="fill: #ff0000; stroke: #ff0000"/>
     <use xlink:href="#m938aa08cb1" x="282.268497" y="128.858278" style="fill: #ff0000; stroke: #ff0000"/>
     <use xlink:href="#m938aa08cb1" x="250.242812" y="174.089927" style="fill: #ff0000; stroke: #ff0000"/>
     <use xlink:href="#m938aa08cb1" x="299.690223" y="151.924656" style="fill: #ff0000; stroke: #ff0000"/>
     <use xlink:href="#m938aa08cb1" x="178.689138" y="198.053202" style="fill: #ff0000; stroke: #ff0000"/>
     <use xlink:href="#m938aa08cb1" x="202.144536" y="127.679474" style="fill: #ff0000; stroke: #ff0000"/>
     <use xlink:href="#m938aa08cb1" x="252.781143" y="182.060475" style="fill: #ff0000; stroke: #ff0000"/>
     <use xlink:href="#m938aa08cb1" x="163.651754" y="263.692497" style="fill: #ff0000; stroke: #ff0000"/>
     <use xlink:href="#m938aa08cb1" x="212.832405" y="198.625065" style="fill: #ff0000; stroke: #ff0000"/>
     <use xlink:href="#m938aa08cb1" x="252.076561" y="150.063268" style="fill: #ff0000; stroke: #ff0000"/>
     <use xlink:href="#m938aa08cb1" x="89.300862" y="277.561215" style="fill: #ff0000; stroke: #ff0000"/>
     <use xlink:href="#m938aa08cb1" x="158.236952" y="234.499206" style="fill: #ff0000; stroke: #ff0000"/>
     <use xlink:href="#m938aa08cb1" x="256.115806" y="155.872822" style="fill: #ff0000; stroke: #ff0000"/>
     <use xlink:href="#m938aa08cb1" x="284.417121" y="156.621941" style="fill: #ff0000; stroke: #ff0000"/>
     <use xlink:href="#m938aa08cb1" x="289.475716" y="108.375346" style="fill: #ff0000; stroke: #ff0000"/>
     <use xlink:href="#m938aa08cb1" x="228.605242" y="183.800415" style="fill: #ff0000; stroke: #ff0000"/>
     <use xlink:href="#m938aa08cb1" x="282.553123" y="168.063984" style="fill: #ff0000; stroke: #ff0000"/>
     <use xlink:href="#m938aa08cb1" x="203.356963" y="169.554751" style="fill: #ff0000; stroke: #ff0000"/>
     <use xlink:href="#m938aa08cb1" x="237.471391" y="92.61929" style="fill: #ff0000; stroke: #ff0000"/>
     <use xlink:href="#m938aa08cb1" x="180.145033" y="226.35677" style="fill: #ff0000; stroke: #ff0000"/>
     <use xlink:href="#m938aa08cb1" x="196.448987" y="214.140543" style="fill: #ff0000; stroke: #ff0000"/>
     <use xlink:href="#m938aa08cb1" x="307.248408" y="74.443328" style="fill: #ff0000; stroke: #ff0000"/>
     <use xlink:href="#m938aa08cb1" x="356.128662" y="132.824173" style="fill: #ff0000; stroke: #ff0000"/>
     <use xlink:href="#m938aa08cb1" x="169.481661" y="232.587634" style="fill: #ff0000; stroke: #ff0000"/>
     <use xlink:href="#m938aa08cb1" x="268.414796" y="155.02919" style="fill: #ff0000; stroke: #ff0000"/>
     <use xlink:href="#m938aa08cb1" x="260.948873" y="163.067133" style="fill: #ff0000; stroke: #ff0000"/>
     <use xlink:href="#m938aa08cb1" x="251.205468" y="194.051477" style="fill: #ff0000; stroke: #ff0000"/>
     <use xlink:href="#m938aa08cb1" x="178.642856" y="205.303497" style="fill: #ff0000; stroke: #ff0000"/>
     <use xlink:href="#m938aa08cb1" x="277.939689" y="142.881345" style="fill: #ff0000; stroke: #ff0000"/>
     <use xlink:href="#m938aa08cb1" x="290.939289" y="104.687595" style="fill: #ff0000; stroke: #ff0000"/>
     <use xlink:href="#m938aa08cb1" x="279.100102" y="164.476131" style="fill: #ff0000; stroke: #ff0000"/>
     <use xlink:href="#m938aa08cb1" x="297.941237" y="123.32326" style="fill: #ff0000; stroke: #ff0000"/>
     <use xlink:href="#m938aa08cb1" x="282.129395" y="172.585426" style="fill: #ff0000; stroke: #ff0000"/>
     <use xlink:href="#m938aa08cb1" x="201.70743" y="212.933624" style="fill: #ff0000; stroke: #ff0000"/>
     <use xlink:href="#m938aa08cb1" x="141.908345" y="193.215936" style="fill: #ff0000; stroke: #ff0000"/>
     <use xlink:href="#m938aa08cb1" x="260.317625" y="148.605659" style="fill: #ff0000; stroke: #ff0000"/>
     <use xlink:href="#m938aa08cb1" x="310.421596" y="125.415111" style="fill: #ff0000; stroke: #ff0000"/>
     <use xlink:href="#m938aa08cb1" x="232.362431" y="186.989791" style="fill: #ff0000; stroke: #ff0000"/>
     <use xlink:href="#m938aa08cb1" x="268.877731" y="152.35631" style="fill: #ff0000; stroke: #ff0000"/>
     <use xlink:href="#m938aa08cb1" x="258.041115" y="125.231548" style="fill: #ff0000; stroke: #ff0000"/>
     <use xlink:href="#m938aa08cb1" x="247.460273" y="146.562596" style="fill: #ff0000; stroke: #ff0000"/>
     <use xlink:href="#m938aa08cb1" x="137.795996" y="251.904346" style="fill: #ff0000; stroke: #ff0000"/>
     <use xlink:href="#m938aa08cb1" x="286.113856" y="137.862846" style="fill: #ff0000; stroke: #ff0000"/>
     <use xlink:href="#m938aa08cb1" x="283.659196" y="153.616021" style="fill: #ff0000; stroke: #ff0000"/>
     <use xlink:href="#m938aa08cb1" x="189.408494" y="163.927397" style="fill: #ff0000; stroke: #ff0000"/>
     <use xlink:href="#m938aa08cb1" x="313.524146" y="173.83915" style="fill: #ff0000; stroke: #ff0000"/>
     <use xlink:href="#m938aa08cb1" x="269.712068" y="167.359165" style="fill: #ff0000; stroke: #ff0000"/>
     <use xlink:href="#m938aa08cb1" x="213.113535" y="193.005606" style="fill: #ff0000; stroke: #ff0000"/>
     <use xlink:href="#m938aa08cb1" x="228.645399" y="186.100357" style="fill: #ff0000; stroke: #ff0000"/>
     <use xlink:href="#m938aa08cb1" x="78.738608" y="284.839699" style="fill: #ff0000; stroke: #ff0000"/>
     <use xlink:href="#m938aa08cb1" x="172.442613" y="228.405205" style="fill: #ff0000; stroke: #ff0000"/>
     <use xlink:href="#m938aa08cb1" x="245.180187" y="182.866218" style="fill: #ff0000; stroke: #ff0000"/>
     <use xlink:href="#m938aa08cb1" x="199.294981" y="238.321976" style="fill: #ff0000; stroke: #ff0000"/>
     <use xlink:href="#m938aa08cb1" x="237.466812" y="170.480286" style="fill: #ff0000; stroke: #ff0000"/>
     <use xlink:href="#m938aa08cb1" x="172.469152" y="196.00381" style="fill: #ff0000; stroke: #ff0000"/>
     <use xlink:href="#m938aa08cb1" x="122.987207" y="260.774937" style="fill: #ff0000; stroke: #ff0000"/>
     <use xlink:href="#m938aa08cb1" x="273.635524" y="154.104898" style="fill: #ff0000; stroke: #ff0000"/>
     <use xlink:href="#m938aa08cb1" x="258.317886" y="135.3295" style="fill: #ff0000; stroke: #ff0000"/>
     <use xlink:href="#m938aa08cb1" x="273.26867" y="114.681562" style="fill: #ff0000; stroke: #ff0000"/>
     <use xlink:href="#m938aa08cb1" x="223.838851" y="154.233375" style="fill: #ff0000; stroke: #ff0000"/>
     <use xlink:href="#m938aa08cb1" x="195.795289" y="186.723333" style="fill: #ff0000; stroke: #ff0000"/>
     <use xlink:href="#m938aa08cb1" x="160.090923" y="214.181263" style="fill: #ff0000; stroke: #ff0000"/>
     <use xlink:href="#m938aa08cb1" x="302.197327" y="172.408831" style="fill: #ff0000; stroke: #ff0000"/>
     <use xlink:href="#m938aa08cb1" x="258.755868" y="170.654444" style="fill: #ff0000; stroke: #ff0000"/>
     <use xlink:href="#m938aa08cb1" x="222.739375" y="191.435361" style="fill: #ff0000; stroke: #ff0000"/>
     <use xlink:href="#m938aa08cb1" x="197.994234" y="211.319616" style="fill: #ff0000; stroke: #ff0000"/>
     <use xlink:href="#m938aa08cb1" x="202.939621" y="181.888946" style="fill: #ff0000; stroke: #ff0000"/>
     <use xlink:href="#m938aa08cb1" x="268.096943" y="185.298427" style="fill: #ff0000; stroke: #ff0000"/>
     <use xlink:href="#m938aa08cb1" x="235.600342" y="107.92945" style="fill: #ff0000; stroke: #ff0000"/>
     <use xlink:href="#m938aa08cb1" x="285.535632" y="138.041034" style="fill: #ff0000; stroke: #ff0000"/>
     <use xlink:href="#m938aa08cb1" x="198.617242" y="186.699007" style="fill: #ff0000; stroke: #ff0000"/>
     <use xlink:href="#m938aa08cb1" x="299.899717" y="195.480934" style="fill: #ff0000; stroke: #ff0000"/>
     <use xlink:href="#m938aa08cb1" x="185.769279" y="214.617519" style="fill: #ff0000; stroke: #ff0000"/>
     <use xlink:href="#m938aa08cb1" x="155.521053" y="229.161821" style="fill: #ff0000; stroke: #ff0000"/>
     <use xlink:href="#m938aa08cb1" x="241.276669" y="200.512834" style="fill: #ff0000; stroke: #ff0000"/>
     <use xlink:href="#m938aa08cb1" x="258.632948" y="162.65622" style="fill: #ff0000; stroke: #ff0000"/>
     <use xlink:href="#m938aa08cb1" x="284.352545" y="141.901324" style="fill: #ff0000; stroke: #ff0000"/>
     <use xlink:href="#m938aa08cb1" x="296.48263" y="153.791386" style="fill: #ff0000; stroke: #ff0000"/>
     <use xlink:href="#m938aa08cb1" x="160.759298" y="194.856159" style="fill: #ff0000; stroke: #ff0000"/>
     <use xlink:href="#m938aa08cb1" x="254.846676" y="138.520057" style="fill: #ff0000; stroke: #ff0000"/>
     <use xlink:href="#m938aa08cb1" x="298.917891" y="137.361208" style="fill: #ff0000; stroke: #ff0000"/>
     <use xlink:href="#m938aa08cb1" x="187.612928" y="204.436817" style="fill: #ff0000; stroke: #ff0000"/>
     <use xlink:href="#m938aa08cb1" x="268.792227" y="159.089875" style="fill: #ff0000; stroke: #ff0000"/>
     <use xlink:href="#m938aa08cb1" x="252.756749" y="151.500032" style="fill: #ff0000; stroke: #ff0000"/>
     <use xlink:href="#m938aa08cb1" x="291.617437" y="147.613597" style="fill: #ff0000; stroke: #ff0000"/>
     <use xlink:href="#m938aa08cb1" x="253.293615" y="242.146278" style="fill: #ff0000; stroke: #ff0000"/>
    </g>
   </g>
   <g id="line2d_28">
    <path d="M 73.832727 267.861332 
L 75.018818 257.435751 
L 78.746202 245.702664 
L 84.956095 232.84711 
L 93.550564 219.07183 
L 104.394069 204.594066 
L 117.315602 189.642143 
L 132.111381 174.45186 
L 148.54807 159.262778 
L 166.366451 144.314438 
L 185.285518 129.842584 
L 205.006906 116.075446 
L 225.219597 103.230139 
L 245.604824 91.509242 
L 265.841101 81.097601 
L 285.60929 72.159412 
L 304.597633 64.835638 
L 322.506674 59.241778 
L 339.053977 55.46605 
L 353.97858 53.568 
L 367.045114 53.577562 
L 378.047511 55.494584 
L 386.812257 59.288835 
L 393.201128 64.900476 
L 397.113366 72.241008 
L 398.487273 81.194668 
L 397.301182 91.620249 
L 393.573798 103.353336 
L 387.363905 116.20889 
L 378.769436 129.98417 
L 367.925931 144.461934 
L 355.004398 159.413857 
L 340.208619 174.60414 
L 323.77193 189.793222 
L 305.953549 204.741562 
L 287.034482 219.213416 
L 267.313094 232.980554 
L 247.100403 245.825861 
L 226.715176 257.546758 
L 206.478899 267.958399 
L 186.71071 276.896588 
L 167.722367 284.220362 
L 149.813326 289.814222 
L 133.266023 293.58995 
L 118.34142 295.488 
L 105.274886 295.478438 
L 94.272489 293.561416 
L 85.507743 289.767165 
L 79.118872 284.155524 
L 75.206634 276.814992 
L 73.832727 267.861332 
" clip-path="url(#pa163d8bdcc)" style="fill: none; stroke: #ff0000; stroke-width: 1.5; stroke-linecap: square"/>
   </g>
   <g id="patch_6">
    <path d="M 57.6 307.584 
L 57.6 41.472 
" style="fill: none; stroke: #000000; stroke-width: 0.8; stroke-linejoin: miter; stroke-linecap: square"/>
   </g>
   <g id="patch_7">
    <path d="M 414.72 307.584 
L 414.72 41.472 
" style="fill: none; stroke: #000000; stroke-width: 0.8; stroke-linejoin: miter; stroke-linecap: square"/>
   </g>
   <g id="patch_8">
    <path d="M 57.6 307.584 
L 414.72 307.584 
" style="fill: none; stroke: #000000; stroke-width: 0.8; stroke-linejoin: miter; stroke-linecap: square"/>
   </g>
   <g id="patch_9">
    <path d="M 57.6 41.472 
L 414.72 41.472 
" style="fill: none; stroke: #000000; stroke-width: 0.8; stroke-linejoin: miter; stroke-linecap: square"/>
   </g>
   <g id="legend_1">
    <g id="patch_10">
     <path d="M 64.6 105.220713 
L 173.357417 105.220713 
Q 175.357417 105.220713 175.357417 103.220713 
L 175.357417 48.472 
Q 175.357417 46.472 173.357417 46.472 
L 64.6 46.472 
Q 62.6 46.472 62.6 48.472 
L 62.6 103.220713 
Q 62.6 105.220713 64.6 105.220713 
z
" style="fill: #ffffff; opacity: 0.8; stroke: #cccccc; stroke-linejoin: miter"/>
    </g>
    <g id="line2d_29">
     <path d="M 66.6 53.972 
L 76.6 53.972 
L 86.6 53.972 
" style="fill: none; stroke: #0000ff; stroke-width: 1.5; stroke-linecap: square"/>
    </g>
    <g id="text_15">
     <!-- Censi's cov $3\sigma$. -->
     <g transform="translate(94.6 57.472) scale(0.1 -0.1)">
      <defs>
       <path id="CMSS17-43" d="M 3501 714 
C 3072 427 2874 344 2355 344 
C 1459 344 934 1303 934 2179 
C 934 3112 1472 4032 2381 4032 
C 2790 4032 3059 3918 3386 3715 
L 3475 4217 
C 3168 4370 2778 4440 2387 4440 
C 1158 4440 397 3316 397 2179 
C 397 927 1299 -64 2323 -64 
C 2874 -64 3066 -19 3539 280 
L 3501 714 
z
" transform="scale(0.015625)"/>
       <path id="CMSS17-65" d="M 2502 1377 
C 2502 1590 2490 2003 2285 2345 
C 2061 2713 1696 2816 1421 2816 
C 755 2816 192 2188 192 1375 
C 192 582 774 -64 1510 -64 
C 1798 -64 2150 19 2470 248 
C 2470 274 2458 414 2451 420 
C 2451 433 2432 630 2432 656 
C 2125 407 1773 325 1517 325 
C 1107 325 666 667 646 1377 
L 2502 1377 
z
M 698 1728 
C 781 2084 1062 2421 1421 2421 
C 1517 2421 1965 2421 2080 1728 
L 698 1728 
z
" transform="scale(0.015625)"/>
       <path id="CMSS17-6e" d="M 2618 1877 
C 2618 2283 2522 2816 1798 2816 
C 1389 2816 1120 2606 941 2389 
L 941 2758 
L 474 2758 
L 474 0 
L 960 0 
L 960 1559 
C 960 1964 1114 2428 1549 2428 
C 2112 2428 2131 2048 2131 1829 
L 2131 0 
L 2618 0 
L 2618 1877 
z
" transform="scale(0.015625)"/>
       <path id="CMSS17-73" d="M 2061 2627 
C 1683 2807 1389 2807 1197 2807 
C 742 2807 198 2648 198 2003 
C 198 1359 902 1218 1094 1179 
C 1389 1122 1715 1058 1715 740 
C 1715 337 1254 337 1171 337 
C 915 337 563 407 243 638 
L 166 210 
C 531 0 883 -64 1178 -64 
C 1965 -64 2163 416 2163 781 
C 2163 1094 1984 1305 1862 1401 
C 1651 1568 1574 1587 1050 1696 
C 960 1709 646 1779 646 2066 
C 646 2432 1050 2432 1139 2432 
C 1555 2432 1811 2303 1984 2208 
L 2061 2627 
z
" transform="scale(0.015625)"/>
       <path id="CMSS17-69" d="M 979 4183 
L 442 4183 
L 442 3648 
L 979 3648 
L 979 4183 
z
M 947 2739 
L 474 2739 
L 474 0 
L 947 0 
L 947 2739 
z
" transform="scale(0.015625)"/>
       <path id="CMSS17-27" d="M 1088 3910 
L 1088 4413 
L 576 4413 
L 576 3904 
L 736 3904 
L 570 3104 
L 826 3104 
L 1088 3910 
z
" transform="scale(0.015625)"/>
       <path id="CMSS17-63" d="M 2464 2541 
C 2464 2585 2170 2714 2093 2739 
C 1882 2816 1613 2816 1542 2816 
C 710 2816 211 2093 211 1363 
C 211 595 768 -64 1517 -64 
C 1946 -64 2253 76 2502 242 
L 2464 664 
C 2189 453 1869 337 1523 337 
C 1024 337 698 774 698 1369 
C 698 1831 909 2414 1549 2414 
C 1901 2414 2099 2343 2394 2145 
L 2464 2541 
z
" transform="scale(0.015625)"/>
       <path id="CMSS17-6f" d="M 2829 1356 
C 2829 2176 2221 2816 1504 2816 
C 768 2816 173 2157 173 1356 
C 173 544 787 -64 1498 -64 
C 2227 -64 2829 563 2829 1356 
z
M 1504 337 
C 1050 337 659 709 659 1408 
C 659 2151 1114 2427 1498 2427 
C 1914 2427 2342 2126 2342 1408 
C 2342 683 1926 337 1504 337 
z
" transform="scale(0.015625)"/>
       <path id="CMSS17-76" d="M 2675 2752 
L 2176 2752 
L 1747 1556 
C 1613 1165 1421 627 1389 352 
L 1382 352 
C 1370 468 1318 634 1286 749 
C 1248 890 1197 1056 1158 1172 
L 595 2752 
L 83 2752 
L 1094 0 
L 1664 0 
L 2675 2752 
z
" transform="scale(0.015625)"/>
       <path id="CMMI12-1b" d="M 3251 2408 
C 3334 2408 3546 2408 3546 2612 
C 3546 2752 3424 2752 3309 2752 
L 1894 2752 
C 934 2752 243 1686 243 932 
C 243 390 595 -64 1171 -64 
C 1926 -64 2752 747 2752 1705 
C 2752 1954 2694 2196 2541 2408 
L 3251 2408 
z
M 1178 64 
C 851 64 614 313 614 754 
C 614 1137 845 2408 1786 2408 
C 2061 2408 2368 2274 2368 1781 
C 2368 1558 2266 1021 2042 652 
C 1811 275 1466 64 1178 64 
z
" transform="scale(0.015625)"/>
       <path id="CMSS17-2e" d="M 1088 510 
L 576 510 
L 576 0 
L 1088 0 
L 1088 510 
z
" transform="scale(0.015625)"/>
      </defs>
      <use xlink:href="#CMSS17-43" transform="scale(0.996264)"/>
      <use xlink:href="#CMSS17-65" transform="translate(59.855772 0) scale(0.996264)"/>
      <use xlink:href="#CMSS17-6e" transform="translate(101.494594 0) scale(0.996264)"/>
      <use xlink:href="#CMSS17-73" transform="translate(149.699537 0) scale(0.996264)"/>
      <use xlink:href="#CMSS17-69" transform="translate(185.613079 0) scale(0.996264)"/>
      <use xlink:href="#CMSS17-27" transform="translate(207.793802 0) scale(0.996264)"/>
      <use xlink:href="#CMSS17-73" transform="translate(233.818007 0) scale(0.996264)"/>
      <use xlink:href="#CMSS17-63" transform="translate(300.960661 0) scale(0.996264)"/>
      <use xlink:href="#CMSS17-6f" transform="translate(342.599484 0) scale(0.996264)"/>
      <use xlink:href="#CMSS17-76" transform="translate(389.443107 0) scale(0.996264)"/>
      <use xlink:href="#CMR17-33" transform="translate(463.672361 0) scale(0.996264)"/>
      <use xlink:href="#CMMI12-1b" transform="translate(509.362839 0) scale(0.996264)"/>
      <use xlink:href="#CMSS17-2e" transform="translate(568.382892 0) scale(0.996264)"/>
     </g>
    </g>
    <g id="line2d_30">
     <path d="M 66.6 67.909178 
L 76.6 67.909178 
L 86.6 67.909178 
" style="fill: none; stroke: #008000; stroke-width: 1.5; stroke-linecap: square"/>
    </g>
    <g id="text_16">
     <!-- Brossard's cov $3\sigma$. -->
     <g transform="translate(94.6 71.409178) scale(0.1 -0.1)">
      <defs>
       <path id="CMSS17-42" d="M 570 4416 
L 570 0 
L 2163 0 
C 3034 0 3667 574 3667 1200 
C 3667 1685 3251 2176 2502 2317 
C 3334 2558 3501 3040 3501 3313 
C 3501 3883 2874 4416 1997 4416 
L 570 4416 
z
M 1088 2496 
L 1088 4059 
L 1824 4059 
C 2483 4059 3002 3724 3002 3306 
C 3002 2926 2592 2496 1766 2496 
L 1088 2496 
z
M 1088 357 
L 1088 2107 
L 1939 2107 
C 2630 2107 3162 1679 3162 1206 
C 3162 772 2694 357 1984 357 
L 1088 357 
z
" transform="scale(0.015625)"/>
       <path id="CMSS17-72" d="M 954 1363 
C 954 1965 1395 2368 1958 2368 
L 1958 2789 
C 1549 2789 1165 2585 934 2253 
L 934 2758 
L 480 2758 
L 480 0 
L 954 0 
L 954 1363 
z
" transform="scale(0.015625)"/>
       <path id="CMSS17-61" d="M 2406 1791 
C 2406 2392 1978 2808 1402 2808 
C 1120 2808 813 2757 461 2553 
L 499 2135 
C 659 2248 934 2432 1395 2432 
C 1722 2432 1920 2180 1920 1782 
L 1920 1536 
C 896 1536 256 1238 256 726 
C 256 461 416 -64 947 -64 
C 1043 -64 1562 -64 1933 217 
L 1933 -19 
L 2406 -19 
L 2406 1791 
z
M 1920 816 
C 1920 701 1920 548 1728 434 
C 1562 325 1350 325 1261 325 
C 941 325 723 511 723 744 
C 723 1211 1722 1211 1920 1211 
L 1920 816 
z
" transform="scale(0.015625)"/>
       <path id="CMSS17-64" d="M 2611 4416 
L 2138 4416 
L 2138 2438 
C 1939 2603 1613 2756 1254 2756 
C 672 2756 211 2131 211 1347 
C 211 562 666 -64 1235 -64 
C 1677 -64 1971 172 2125 306 
L 2125 -13 
L 2611 -13 
L 2611 4416 
z
M 2125 836 
C 2125 747 2125 653 1926 482 
C 1798 375 1645 325 1498 325 
C 1152 325 698 576 698 1340 
C 698 2134 1210 2368 1562 2368 
C 1798 2368 1990 2254 2125 2065 
L 2125 836 
z
" transform="scale(0.015625)"/>
      </defs>
      <use xlink:href="#CMSS17-42" transform="scale(0.996264)"/>
      <use xlink:href="#CMSS17-72" transform="translate(62.33804 0) scale(0.996264)"/>
      <use xlink:href="#CMSS17-6f" transform="translate(94.247813 0) scale(0.996264)"/>
      <use xlink:href="#CMSS17-73" transform="translate(141.091436 0) scale(0.996264)"/>
      <use xlink:href="#CMSS17-73" transform="translate(177.004978 0) scale(0.996264)"/>
      <use xlink:href="#CMSS17-61" transform="translate(212.91852 0) scale(0.996264)"/>
      <use xlink:href="#CMSS17-72" transform="translate(255.237987 0) scale(0.996264)"/>
      <use xlink:href="#CMSS17-64" transform="translate(287.14776 0) scale(0.996264)"/>
      <use xlink:href="#CMSS17-27" transform="translate(335.352703 0) scale(0.996264)"/>
      <use xlink:href="#CMSS17-73" transform="translate(361.376908 0) scale(0.996264)"/>
      <use xlink:href="#CMSS17-63" transform="translate(428.519562 0) scale(0.996264)"/>
      <use xlink:href="#CMSS17-6f" transform="translate(470.158384 0) scale(0.996264)"/>
      <use xlink:href="#CMSS17-76" transform="translate(517.002008 0) scale(0.996264)"/>
      <use xlink:href="#CMR17-33" transform="translate(591.231262 0) scale(0.996264)"/>
      <use xlink:href="#CMMI12-1b" transform="translate(636.921739 0) scale(0.996264)"/>
      <use xlink:href="#CMSS17-2e" transform="translate(695.941793 0) scale(0.996264)"/>
     </g>
    </g>
    <g id="line2d_31">
     <g>
      <use xlink:href="#m938aa08cb1" x="76.6" y="81.846357" style="fill: #ff0000; stroke: #ff0000"/>
     </g>
    </g>
    <g id="text_17">
     <!-- Samples. -->
     <g transform="translate(94.6 85.346357) scale(0.1 -0.1)">
      <defs>
       <path id="CMSS17-53" d="M 2797 4169 
C 2515 4334 2208 4480 1690 4480 
C 864 4480 333 3879 333 3266 
C 333 3025 403 2753 653 2475 
C 902 2196 1184 2121 1542 2033 
C 1690 1994 1939 1924 1984 1906 
C 2342 1767 2515 1444 2515 1140 
C 2515 742 2202 318 1645 318 
C 1453 318 890 318 358 819 
L 269 318 
C 794 -64 1363 -128 1651 -128 
C 2438 -128 3002 488 3002 1186 
C 3002 1440 2925 1763 2656 2061 
C 2394 2347 2163 2410 1638 2549 
C 1338 2626 1146 2677 986 2873 
C 877 3013 819 3146 819 3317 
C 819 3673 1126 4060 1690 4060 
C 1971 4060 2336 4002 2707 3660 
L 2797 4169 
z
" transform="scale(0.015625)"/>
       <path id="CMSS17-70" d="M 966 333 
C 1178 129 1466 -5 1773 -5 
C 2368 -5 2880 603 2880 1412 
C 2880 2159 2496 2816 1946 2816 
C 1626 2816 1242 2702 954 2472 
L 954 2765 
L 480 2765 
L 480 -1216 
L 966 -1216 
L 966 333 
z
M 966 2100 
C 1018 2176 1235 2415 1587 2415 
C 2035 2415 2394 1960 2394 1412 
C 2394 787 1958 384 1530 384 
C 1402 384 1267 415 1139 523 
C 966 674 966 768 966 857 
L 966 2100 
z
" transform="scale(0.015625)"/>
       <path id="CMSS17-6c" d="M 947 4416 
L 474 4416 
L 474 0 
L 947 0 
L 947 4416 
z
" transform="scale(0.015625)"/>
      </defs>
      <use xlink:href="#CMSS17-53" transform="scale(0.996264)"/>
      <use xlink:href="#CMSS17-61" transform="translate(52.048516 0) scale(0.996264)"/>
      <use xlink:href="#CMSS17-6d" transform="translate(96.970437 0) scale(0.996264)"/>
      <use xlink:href="#CMSS17-70" transform="translate(171.199691 0) scale(0.996264)"/>
      <use xlink:href="#CMSS17-6c" transform="translate(219.404634 0) scale(0.996264)"/>
      <use xlink:href="#CMSS17-65" transform="translate(241.585357 0) scale(0.996264)"/>
      <use xlink:href="#CMSS17-73" transform="translate(283.224179 0) scale(0.996264)"/>
      <use xlink:href="#CMSS17-2e" transform="translate(319.137721 0) scale(0.996264)"/>
     </g>
    </g>
    <g id="line2d_32">
     <path d="M 66.6 95.783535 
L 76.6 95.783535 
L 86.6 95.783535 
" style="fill: none; stroke: #ff0000; stroke-width: 1.5; stroke-linecap: square"/>
    </g>
    <g id="text_18">
     <!-- Sample cov $3\sigma$. -->
     <g transform="translate(94.6 99.283535) scale(0.1 -0.1)">
      <use xlink:href="#CMSS17-53" transform="scale(0.996264)"/>
      <use xlink:href="#CMSS17-61" transform="translate(52.048516 0) scale(0.996264)"/>
      <use xlink:href="#CMSS17-6d" transform="translate(96.970437 0) scale(0.996264)"/>
      <use xlink:href="#CMSS17-70" transform="translate(171.199691 0) scale(0.996264)"/>
      <use xlink:href="#CMSS17-6c" transform="translate(219.404634 0) scale(0.996264)"/>
      <use xlink:href="#CMSS17-65" transform="translate(241.585357 0) scale(0.996264)"/>
      <use xlink:href="#CMSS17-63" transform="translate(314.453292 0) scale(0.996264)"/>
      <use xlink:href="#CMSS17-6f" transform="translate(356.092114 0) scale(0.996264)"/>
      <use xlink:href="#CMSS17-76" transform="translate(402.935738 0) scale(0.996264)"/>
      <use xlink:href="#CMR17-33" transform="translate(477.164992 0) scale(0.996264)"/>
      <use xlink:href="#CMMI12-1b" transform="translate(522.855469 0) scale(0.996264)"/>
      <use xlink:href="#CMSS17-2e" transform="translate(581.875523 0) scale(0.996264)"/>
     </g>
    </g>
   </g>
  </g>
 </g>
 <defs>
  <clipPath id="pa163d8bdcc">
   <rect x="57.6" y="41.472" width="357.12" height="266.112"/>
  </clipPath>
 </defs>
</svg>
