<?xml version="1.0" encoding="utf-8" standalone="no"?>
<!DOCTYPE svg PUBLIC "-//W3C//DTD SVG 1.1//EN"
  "http://www.w3.org/Graphics/SVG/1.1/DTD/svg11.dtd">
<svg xmlns:xlink="http://www.w3.org/1999/xlink" width="460.8pt" height="345.6pt" viewBox="0 0 460.8 345.6" xmlns="http://www.w3.org/2000/svg" version="1.1">
 <metadata>
  <rdf:RDF xmlns:dc="http://purl.org/dc/elements/1.1/" xmlns:cc="http://creativecommons.org/ns#" xmlns:rdf="http://www.w3.org/1999/02/22-rdf-syntax-ns#">
   <cc:Work>
    <dc:type rdf:resource="http://purl.org/dc/dcmitype/StillImage"/>
    <dc:date>2022-12-17T15:06:10.877652</dc:date>
    <dc:format>image/svg+xml</dc:format>
    <dc:creator>
     <cc:Agent>
      <dc:title>Matplotlib v3.6.0, https://matplotlib.org/</dc:title>
     </cc:Agent>
    </dc:creator>
   </cc:Work>
  </rdf:RDF>
 </metadata>
 <defs>
  <style type="text/css">*{stroke-linejoin: round; stroke-linecap: butt}</style>
 </defs>
 <g id="figure_1">
  <g id="patch_1">
   <path d="M 0 345.6 
L 460.8 345.6 
L 460.8 0 
L 0 0 
z
" style="fill: #ffffff"/>
  </g>
  <g id="axes_1">
   <g id="patch_2">
    <path d="M 57.6 307.584 
L 414.72 307.584 
L 414.72 41.472 
L 57.6 41.472 
z
" style="fill: #ffffff"/>
   </g>
   <g id="patch_3">
    <path d="M 228.691414 180.229572 
L 228.484677 178.983229 
L 228.398983 177.666625 
L 228.435686 176.300524 
L 228.594206 174.906468 
L 228.872042 173.506443 
L 229.264815 172.12253 
L 229.766328 170.776552 
L 230.368674 169.489736 
L 231.062352 168.282377 
L 231.836423 167.173515 
L 232.678679 166.180638 
L 233.575838 165.319404 
L 234.513751 164.603394 
L 235.477626 164.043902 
L 236.452263 163.64975 
L 237.42229 163.427155 
L 238.37241 163.379626 
L 239.28764 163.507914 
L 240.153544 163.809996 
L 240.956468 164.281107 
L 241.683749 164.913817 
L 242.323917 165.698149 
L 242.866876 166.621733 
L 243.304064 167.670003 
L 243.628586 168.826428 
L 243.835323 170.072771 
L 243.921017 171.389375 
L 243.884314 172.755476 
L 243.725794 174.149532 
L 243.447958 175.549557 
L 243.055185 176.93347 
L 242.553672 178.279448 
L 241.951326 179.566264 
L 241.257648 180.773623 
L 240.483577 181.882485 
L 239.641321 182.875362 
L 238.744162 183.736596 
L 237.806249 184.452606 
L 236.842374 185.012098 
L 235.867737 185.40625 
L 234.89771 185.628845 
L 233.94759 185.676374 
L 233.03236 185.548086 
L 232.166456 185.246004 
L 231.363532 184.774893 
L 230.636251 184.142183 
L 229.996083 183.357851 
L 229.453124 182.434267 
L 229.015936 181.385997 
L 228.691414 180.229572 
L 228.691414 180.229572 
z
" clip-path="url(#p5e763cc5f7)" style="fill: none; opacity: 0"/>
   </g>
   <g id="patch_4">
    <path d="M 139.816103 208.636976 
L 139.765431 200.464841 
L 141.234958 191.883666 
L 144.201511 183.028782 
L 148.618303 174.039835 
L 154.415681 165.058587 
L 161.502215 156.226677 
L 169.766147 147.683391 
L 179.07715 139.563459 
L 189.288383 131.99494 
L 200.23881 125.097192 
L 211.755735 118.978997 
L 223.657531 113.736844 
L 235.756497 109.453403 
L 247.861828 106.196228 
L 259.782613 104.016685 
L 271.330856 102.949148 
L 282.324433 103.010453 
L 292.589969 104.199631 
L 301.965572 106.49793 
L 310.303381 109.869104 
L 317.471904 114.259988 
L 323.358091 119.601334 
L 327.869111 125.808906 
L 330.933824 132.784807 
L 332.503897 140.419024 
L 332.554569 148.591159 
L 331.085042 157.172334 
L 328.118489 166.027218 
L 323.701697 175.016165 
L 317.904319 183.997413 
L 310.817785 192.829323 
L 302.553853 201.372609 
L 293.24285 209.492541 
L 283.031617 217.06106 
L 272.08119 223.958808 
L 260.564265 230.077003 
L 248.662469 235.319156 
L 236.563503 239.602597 
L 224.458172 242.859772 
L 212.537387 245.039315 
L 200.989144 246.106852 
L 189.995567 246.045547 
L 179.730031 244.856369 
L 170.354428 242.55807 
L 162.016619 239.186896 
L 154.848096 234.796012 
L 148.961909 229.454666 
L 144.450889 223.247094 
L 141.386176 216.271193 
L 139.816103 208.636976 
L 139.816103 208.636976 
z
" clip-path="url(#p5e763cc5f7)" style="fill: none; opacity: 0"/>
   </g>
   <g id="patch_5">
    <path d="M 73.832727 195.511503 
L 74.553686 180.414047 
L 77.823273 165.223764 
L 83.589925 150.180215 
L 91.762698 135.520645 
L 102.212703 121.476244 
L 114.775136 108.268502 
L 129.251882 96.105711 
L 145.414632 85.179686 
L 163.008491 75.662738 
L 181.755993 67.704954 
L 201.361479 61.431833 
L 221.515758 56.942306 
L 241.900985 54.307176 
L 262.195674 53.568 
L 282.079765 54.736436 
L 301.239673 57.794056 
L 319.373237 62.69264 
L 336.194477 69.354934 
L 351.438115 77.675871 
L 364.863747 87.524224 
L 376.259645 98.744678 
L 385.446087 111.16028 
L 392.278199 124.575229 
L 396.648234 138.777964 
L 398.487273 153.544497 
L 397.766314 168.641953 
L 394.496727 183.832236 
L 388.730075 198.875785 
L 380.557302 213.535355 
L 370.107297 227.579756 
L 357.544864 240.787498 
L 343.068118 252.950289 
L 326.905368 263.876314 
L 309.311509 273.393262 
L 290.564007 281.351046 
L 270.958521 287.624167 
L 250.804242 292.113694 
L 230.419015 294.748824 
L 210.124326 295.488 
L 190.240235 294.319564 
L 171.080327 291.261944 
L 152.946763 286.36336 
L 136.125523 279.701066 
L 120.881885 271.380129 
L 107.456253 261.531776 
L 96.060355 250.311322 
L 86.873913 237.89572 
L 80.041801 224.480771 
L 75.671766 210.278036 
L 73.832727 195.511503 
L 73.832727 195.511503 
z
" clip-path="url(#p5e763cc5f7)" style="fill: none; opacity: 0"/>
   </g>
   <g id="matplotlib.axis_1">
    <g id="xtick_1">
     <g id="line2d_1">
      <path d="M 88.257074 307.584 
L 88.257074 41.472 
" clip-path="url(#p5e763cc5f7)" style="fill: none; stroke: #b0b0b0; stroke-width: 0.8; stroke-linecap: square"/>
     </g>
     <g id="line2d_2">
      <defs>
       <path id="m2a89eb28de" d="M 0 0 
L 0 3.5 
" style="stroke: #000000; stroke-width: 0.8"/>
      </defs>
      <g>
       <use xlink:href="#m2a89eb28de" x="88.257074" y="307.584" style="stroke: #000000; stroke-width: 0.8"/>
      </g>
     </g>
     <g id="text_1">
      <!-- $\mathdefault{−0.04}$ -->
      <g transform="translate(75.526995 321.502498) scale(0.1 -0.1)">
       <defs>
        <path id="CMSY10-0" d="M 4218 1472 
C 4326 1472 4442 1472 4442 1600 
C 4442 1728 4326 1728 4218 1728 
L 755 1728 
C 646 1728 531 1728 531 1600 
C 531 1472 646 1472 755 1472 
L 4218 1472 
z
" transform="scale(0.015625)"/>
        <path id="CMR17-30" d="M 2688 2025 
C 2688 2416 2682 3080 2413 3591 
C 2176 4039 1798 4198 1466 4198 
C 1158 4198 768 4058 525 3597 
C 269 3118 243 2524 243 2025 
C 243 1661 250 1106 448 619 
C 723 -39 1216 -128 1466 -128 
C 1760 -128 2208 -7 2470 600 
C 2662 1042 2688 1559 2688 2025 
z
M 1466 -26 
C 1056 -26 813 325 723 812 
C 653 1188 653 1738 653 2096 
C 653 2588 653 2997 736 3387 
C 858 3929 1216 4096 1466 4096 
C 1728 4096 2067 3923 2189 3400 
C 2272 3036 2278 2607 2278 2096 
C 2278 1680 2278 1169 2202 792 
C 2067 95 1690 -26 1466 -26 
z
" transform="scale(0.015625)"/>
        <path id="CMMI12-3a" d="M 1178 307 
C 1178 492 1024 619 870 619 
C 685 619 557 466 557 313 
C 557 128 710 0 864 0 
C 1050 0 1178 153 1178 307 
z
" transform="scale(0.015625)"/>
        <path id="CMR17-34" d="M 2150 4122 
C 2150 4256 2144 4256 2029 4256 
L 128 1254 
L 128 1088 
L 1779 1088 
L 1779 457 
C 1779 224 1766 160 1318 160 
L 1197 160 
L 1197 0 
C 1402 0 1747 0 1965 0 
C 2182 0 2528 0 2733 0 
L 2733 160 
L 2611 160 
C 2163 160 2150 224 2150 457 
L 2150 1088 
L 2803 1088 
L 2803 1254 
L 2150 1254 
L 2150 4122 
z
M 1798 3703 
L 1798 1254 
L 256 1254 
L 1798 3703 
z
" transform="scale(0.015625)"/>
       </defs>
       <use xlink:href="#CMSY10-0" transform="scale(0.996264)"/>
       <use xlink:href="#CMR17-30" transform="translate(77.487468 0) scale(0.996264)"/>
       <use xlink:href="#CMMI12-3a" transform="translate(123.177945 0) scale(0.996264)"/>
       <use xlink:href="#CMR17-30" transform="translate(150.275122 0) scale(0.996264)"/>
       <use xlink:href="#CMR17-34" transform="translate(195.965599 0) scale(0.996264)"/>
      </g>
     </g>
    </g>
    <g id="xtick_2">
     <g id="line2d_3">
      <path d="M 165.223468 307.584 
L 165.223468 41.472 
" clip-path="url(#p5e763cc5f7)" style="fill: none; stroke: #b0b0b0; stroke-width: 0.8; stroke-linecap: square"/>
     </g>
     <g id="line2d_4">
      <g>
       <use xlink:href="#m2a89eb28de" x="165.223468" y="307.584" style="stroke: #000000; stroke-width: 0.8"/>
      </g>
     </g>
     <g id="text_2">
      <!-- $\mathdefault{−0.02}$ -->
      <g transform="translate(152.493389 321.502498) scale(0.1 -0.1)">
       <defs>
        <path id="CMR17-32" d="M 2669 989 
L 2554 989 
C 2490 536 2438 459 2413 420 
C 2381 369 1920 369 1830 369 
L 602 369 
C 832 619 1280 1072 1824 1597 
C 2214 1967 2669 2402 2669 3035 
C 2669 3790 2067 4224 1395 4224 
C 691 4224 262 3604 262 3030 
C 262 2780 448 2748 525 2748 
C 589 2748 781 2787 781 3010 
C 781 3207 614 3264 525 3264 
C 486 3264 448 3258 422 3245 
C 544 3790 915 4058 1306 4058 
C 1862 4058 2227 3617 2227 3035 
C 2227 2479 1901 2000 1536 1584 
L 262 146 
L 262 0 
L 2515 0 
L 2669 989 
z
" transform="scale(0.015625)"/>
       </defs>
       <use xlink:href="#CMSY10-0" transform="scale(0.996264)"/>
       <use xlink:href="#CMR17-30" transform="translate(77.487468 0) scale(0.996264)"/>
       <use xlink:href="#CMMI12-3a" transform="translate(123.177945 0) scale(0.996264)"/>
       <use xlink:href="#CMR17-30" transform="translate(150.275122 0) scale(0.996264)"/>
       <use xlink:href="#CMR17-32" transform="translate(195.965599 0) scale(0.996264)"/>
      </g>
     </g>
    </g>
    <g id="xtick_3">
     <g id="line2d_5">
      <path d="M 242.189863 307.584 
L 242.189863 41.472 
" clip-path="url(#p5e763cc5f7)" style="fill: none; stroke: #b0b0b0; stroke-width: 0.8; stroke-linecap: square"/>
     </g>
     <g id="line2d_6">
      <g>
       <use xlink:href="#m2a89eb28de" x="242.189863" y="307.584" style="stroke: #000000; stroke-width: 0.8"/>
      </g>
     </g>
     <g id="text_3">
      <!-- $\mathdefault{0.00}$ -->
      <g transform="translate(233.334156 321.502498) scale(0.1 -0.1)">
       <use xlink:href="#CMR17-30" transform="scale(0.996264)"/>
       <use xlink:href="#CMMI12-3a" transform="translate(45.690477 0) scale(0.996264)"/>
       <use xlink:href="#CMR17-30" transform="translate(72.787654 0) scale(0.996264)"/>
       <use xlink:href="#CMR17-30" transform="translate(118.478131 0) scale(0.996264)"/>
      </g>
     </g>
    </g>
    <g id="xtick_4">
     <g id="line2d_7">
      <path d="M 319.156257 307.584 
L 319.156257 41.472 
" clip-path="url(#p5e763cc5f7)" style="fill: none; stroke: #b0b0b0; stroke-width: 0.8; stroke-linecap: square"/>
     </g>
     <g id="line2d_8">
      <g>
       <use xlink:href="#m2a89eb28de" x="319.156257" y="307.584" style="stroke: #000000; stroke-width: 0.8"/>
      </g>
     </g>
     <g id="text_4">
      <!-- $\mathdefault{0.02}$ -->
      <g transform="translate(310.30055 321.502498) scale(0.1 -0.1)">
       <use xlink:href="#CMR17-30" transform="scale(0.996264)"/>
       <use xlink:href="#CMMI12-3a" transform="translate(45.690477 0) scale(0.996264)"/>
       <use xlink:href="#CMR17-30" transform="translate(72.787654 0) scale(0.996264)"/>
       <use xlink:href="#CMR17-32" transform="translate(118.478131 0) scale(0.996264)"/>
      </g>
     </g>
    </g>
    <g id="xtick_5">
     <g id="line2d_9">
      <path d="M 396.122651 307.584 
L 396.122651 41.472 
" clip-path="url(#p5e763cc5f7)" style="fill: none; stroke: #b0b0b0; stroke-width: 0.8; stroke-linecap: square"/>
     </g>
     <g id="line2d_10">
      <g>
       <use xlink:href="#m2a89eb28de" x="396.122651" y="307.584" style="stroke: #000000; stroke-width: 0.8"/>
      </g>
     </g>
     <g id="text_5">
      <!-- $\mathdefault{0.04}$ -->
      <g transform="translate(387.266944 321.502498) scale(0.1 -0.1)">
       <use xlink:href="#CMR17-30" transform="scale(0.996264)"/>
       <use xlink:href="#CMMI12-3a" transform="translate(45.690477 0) scale(0.996264)"/>
       <use xlink:href="#CMR17-30" transform="translate(72.787654 0) scale(0.996264)"/>
       <use xlink:href="#CMR17-34" transform="translate(118.478131 0) scale(0.996264)"/>
      </g>
     </g>
    </g>
    <g id="text_6">
     <!-- x [m] -->
     <g transform="translate(225.36713 334.911657) scale(0.1 -0.1)">
      <defs>
       <path id="CMSS17-78" d="M 1587 1414 
L 2656 2739 
L 2099 2739 
L 1363 1777 
L 602 2739 
L 32 2739 
L 1139 1414 
L 0 0 
L 563 0 
L 1363 1121 
L 2195 0 
L 2758 0 
L 1587 1414 
z
" transform="scale(0.015625)"/>
       <path id="CMSS17-5b" d="M 1613 -1600 
L 1613 -1212 
L 1062 -1212 
L 1062 4352 
L 1613 4352 
L 1613 4741 
L 595 4741 
L 595 -1600 
L 1613 -1600 
z
" transform="scale(0.015625)"/>
       <path id="CMSS17-6d" d="M 4288 1877 
C 4288 2308 4179 2816 3462 2816 
C 2982 2816 2694 2516 2566 2331 
C 2451 2670 2182 2816 1798 2816 
C 1363 2816 1088 2568 941 2389 
L 941 2758 
L 474 2758 
L 474 0 
L 960 0 
L 960 1559 
C 960 1939 1101 2428 1555 2428 
C 2138 2428 2138 2016 2138 1829 
L 2138 0 
L 2624 0 
L 2624 1559 
C 2624 1939 2765 2428 3219 2428 
C 3802 2428 3802 2016 3802 1829 
L 3802 0 
L 4288 0 
L 4288 1877 
z
" transform="scale(0.015625)"/>
       <path id="CMSS17-5d" d="M 1146 4741 
L 128 4741 
L 128 4352 
L 678 4352 
L 678 -1212 
L 128 -1212 
L 128 -1600 
L 1146 -1600 
L 1146 4741 
z
" transform="scale(0.015625)"/>
      </defs>
      <use xlink:href="#CMSS17-78" transform="scale(0.996264)"/>
      <use xlink:href="#CMSS17-5b" transform="translate(74.229254 0) scale(0.996264)"/>
      <use xlink:href="#CMSS17-6d" transform="translate(101.414693 0) scale(0.996264)"/>
      <use xlink:href="#CMSS17-5d" transform="translate(175.643948 0) scale(0.996264)"/>
     </g>
    </g>
   </g>
   <g id="matplotlib.axis_2">
    <g id="ytick_1">
     <g id="line2d_11">
      <path d="M 57.6 279.334266 
L 414.72 279.334266 
" clip-path="url(#p5e763cc5f7)" style="fill: none; stroke: #b0b0b0; stroke-width: 0.8; stroke-linecap: square"/>
     </g>
     <g id="line2d_12">
      <defs>
       <path id="ma80a2ad85a" d="M 0 0 
L -3.5 0 
" style="stroke: #000000; stroke-width: 0.8"/>
      </defs>
      <g>
       <use xlink:href="#ma80a2ad85a" x="57.6" y="279.334266" style="stroke: #000000; stroke-width: 0.8"/>
      </g>
     </g>
     <g id="text_7">
      <!-- $\mathdefault{−0.015}$ -->
      <g transform="translate(20.158507 282.793515) scale(0.1 -0.1)">
       <defs>
        <path id="CMR17-31" d="M 1702 4058 
C 1702 4192 1696 4192 1606 4192 
C 1357 3916 979 3827 621 3827 
C 602 3827 570 3827 563 3808 
C 557 3795 557 3782 557 3648 
C 755 3648 1088 3686 1344 3839 
L 1344 461 
C 1344 236 1331 160 781 160 
L 589 160 
L 589 0 
C 896 0 1216 0 1523 0 
C 1830 0 2150 0 2458 0 
L 2458 160 
L 2266 160 
C 1715 160 1702 230 1702 458 
L 1702 4058 
z
" transform="scale(0.015625)"/>
        <path id="CMR17-35" d="M 730 3692 
C 794 3666 1056 3584 1325 3584 
C 1920 3584 2246 3911 2432 4100 
C 2432 4157 2432 4192 2394 4192 
C 2387 4192 2374 4192 2323 4163 
C 2099 4058 1837 3973 1517 3973 
C 1325 3973 1037 3999 723 4139 
C 653 4171 640 4171 634 4171 
C 602 4171 595 4164 595 4037 
L 595 2203 
C 595 2089 595 2057 659 2057 
C 691 2057 704 2070 736 2114 
C 941 2401 1222 2522 1542 2522 
C 1766 2522 2246 2382 2246 1289 
C 2246 1085 2246 715 2054 421 
C 1894 159 1645 25 1370 25 
C 947 25 518 320 403 814 
C 429 807 480 795 506 795 
C 589 795 749 840 749 1038 
C 749 1210 627 1280 506 1280 
C 358 1280 262 1190 262 1011 
C 262 454 704 -128 1382 -128 
C 2042 -128 2669 440 2669 1264 
C 2669 2030 2170 2624 1549 2624 
C 1222 2624 947 2503 730 2274 
L 730 3692 
z
" transform="scale(0.015625)"/>
       </defs>
       <use xlink:href="#CMSY10-0" transform="scale(0.996264)"/>
       <use xlink:href="#CMR17-30" transform="translate(77.487468 0) scale(0.996264)"/>
       <use xlink:href="#CMMI12-3a" transform="translate(123.177945 0) scale(0.996264)"/>
       <use xlink:href="#CMR17-30" transform="translate(150.275122 0) scale(0.996264)"/>
       <use xlink:href="#CMR17-31" transform="translate(195.965599 0) scale(0.996264)"/>
       <use xlink:href="#CMR17-35" transform="translate(241.656076 0) scale(0.996264)"/>
      </g>
     </g>
    </g>
    <g id="ytick_2">
     <g id="line2d_13">
      <path d="M 57.6 243.580498 
L 414.72 243.580498 
" clip-path="url(#p5e763cc5f7)" style="fill: none; stroke: #b0b0b0; stroke-width: 0.8; stroke-linecap: square"/>
     </g>
     <g id="line2d_14">
      <g>
       <use xlink:href="#ma80a2ad85a" x="57.6" y="243.580498" style="stroke: #000000; stroke-width: 0.8"/>
      </g>
     </g>
     <g id="text_8">
      <!-- $\mathdefault{−0.010}$ -->
      <g transform="translate(20.158507 247.039747) scale(0.1 -0.1)">
       <use xlink:href="#CMSY10-0" transform="scale(0.996264)"/>
       <use xlink:href="#CMR17-30" transform="translate(77.487468 0) scale(0.996264)"/>
       <use xlink:href="#CMMI12-3a" transform="translate(123.177945 0) scale(0.996264)"/>
       <use xlink:href="#CMR17-30" transform="translate(150.275122 0) scale(0.996264)"/>
       <use xlink:href="#CMR17-31" transform="translate(195.965599 0) scale(0.996264)"/>
       <use xlink:href="#CMR17-30" transform="translate(241.656076 0) scale(0.996264)"/>
      </g>
     </g>
    </g>
    <g id="ytick_3">
     <g id="line2d_15">
      <path d="M 57.6 207.82673 
L 414.72 207.82673 
" clip-path="url(#p5e763cc5f7)" style="fill: none; stroke: #b0b0b0; stroke-width: 0.8; stroke-linecap: square"/>
     </g>
     <g id="line2d_16">
      <g>
       <use xlink:href="#ma80a2ad85a" x="57.6" y="207.82673" style="stroke: #000000; stroke-width: 0.8"/>
      </g>
     </g>
     <g id="text_9">
      <!-- $\mathdefault{−0.005}$ -->
      <g transform="translate(20.158507 211.285979) scale(0.1 -0.1)">
       <use xlink:href="#CMSY10-0" transform="scale(0.996264)"/>
       <use xlink:href="#CMR17-30" transform="translate(77.487468 0) scale(0.996264)"/>
       <use xlink:href="#CMMI12-3a" transform="translate(123.177945 0) scale(0.996264)"/>
       <use xlink:href="#CMR17-30" transform="translate(150.275122 0) scale(0.996264)"/>
       <use xlink:href="#CMR17-30" transform="translate(195.965599 0) scale(0.996264)"/>
       <use xlink:href="#CMR17-35" transform="translate(241.656076 0) scale(0.996264)"/>
      </g>
     </g>
    </g>
    <g id="ytick_4">
     <g id="line2d_17">
      <path d="M 57.6 172.072962 
L 414.72 172.072962 
" clip-path="url(#p5e763cc5f7)" style="fill: none; stroke: #b0b0b0; stroke-width: 0.8; stroke-linecap: square"/>
     </g>
     <g id="line2d_18">
      <g>
       <use xlink:href="#ma80a2ad85a" x="57.6" y="172.072962" style="stroke: #000000; stroke-width: 0.8"/>
      </g>
     </g>
     <g id="text_10">
      <!-- $\mathdefault{0.000}$ -->
      <g transform="translate(27.907251 175.532211) scale(0.1 -0.1)">
       <use xlink:href="#CMR17-30" transform="scale(0.996264)"/>
       <use xlink:href="#CMMI12-3a" transform="translate(45.690477 0) scale(0.996264)"/>
       <use xlink:href="#CMR17-30" transform="translate(72.787654 0) scale(0.996264)"/>
       <use xlink:href="#CMR17-30" transform="translate(118.478131 0) scale(0.996264)"/>
       <use xlink:href="#CMR17-30" transform="translate(164.168608 0) scale(0.996264)"/>
      </g>
     </g>
    </g>
    <g id="ytick_5">
     <g id="line2d_19">
      <path d="M 57.6 136.319194 
L 414.72 136.319194 
" clip-path="url(#p5e763cc5f7)" style="fill: none; stroke: #b0b0b0; stroke-width: 0.8; stroke-linecap: square"/>
     </g>
     <g id="line2d_20">
      <g>
       <use xlink:href="#ma80a2ad85a" x="57.6" y="136.319194" style="stroke: #000000; stroke-width: 0.8"/>
      </g>
     </g>
     <g id="text_11">
      <!-- $\mathdefault{0.005}$ -->
      <g transform="translate(27.907251 139.778443) scale(0.1 -0.1)">
       <use xlink:href="#CMR17-30" transform="scale(0.996264)"/>
       <use xlink:href="#CMMI12-3a" transform="translate(45.690477 0) scale(0.996264)"/>
       <use xlink:href="#CMR17-30" transform="translate(72.787654 0) scale(0.996264)"/>
       <use xlink:href="#CMR17-30" transform="translate(118.478131 0) scale(0.996264)"/>
       <use xlink:href="#CMR17-35" transform="translate(164.168608 0) scale(0.996264)"/>
      </g>
     </g>
    </g>
    <g id="ytick_6">
     <g id="line2d_21">
      <path d="M 57.6 100.565426 
L 414.72 100.565426 
" clip-path="url(#p5e763cc5f7)" style="fill: none; stroke: #b0b0b0; stroke-width: 0.8; stroke-linecap: square"/>
     </g>
     <g id="line2d_22">
      <g>
       <use xlink:href="#ma80a2ad85a" x="57.6" y="100.565426" style="stroke: #000000; stroke-width: 0.8"/>
      </g>
     </g>
     <g id="text_12">
      <!-- $\mathdefault{0.010}$ -->
      <g transform="translate(27.907251 104.024675) scale(0.1 -0.1)">
       <use xlink:href="#CMR17-30" transform="scale(0.996264)"/>
       <use xlink:href="#CMMI12-3a" transform="translate(45.690477 0) scale(0.996264)"/>
       <use xlink:href="#CMR17-30" transform="translate(72.787654 0) scale(0.996264)"/>
       <use xlink:href="#CMR17-31" transform="translate(118.478131 0) scale(0.996264)"/>
       <use xlink:href="#CMR17-30" transform="translate(164.168608 0) scale(0.996264)"/>
      </g>
     </g>
    </g>
    <g id="ytick_7">
     <g id="line2d_23">
      <path d="M 57.6 64.811658 
L 414.72 64.811658 
" clip-path="url(#p5e763cc5f7)" style="fill: none; stroke: #b0b0b0; stroke-width: 0.8; stroke-linecap: square"/>
     </g>
     <g id="line2d_24">
      <g>
       <use xlink:href="#ma80a2ad85a" x="57.6" y="64.811658" style="stroke: #000000; stroke-width: 0.8"/>
      </g>
     </g>
     <g id="text_13">
      <!-- $\mathdefault{0.015}$ -->
      <g transform="translate(27.907251 68.270907) scale(0.1 -0.1)">
       <use xlink:href="#CMR17-30" transform="scale(0.996264)"/>
       <use xlink:href="#CMMI12-3a" transform="translate(45.690477 0) scale(0.996264)"/>
       <use xlink:href="#CMR17-30" transform="translate(72.787654 0) scale(0.996264)"/>
       <use xlink:href="#CMR17-31" transform="translate(118.478131 0) scale(0.996264)"/>
       <use xlink:href="#CMR17-35" transform="translate(164.168608 0) scale(0.996264)"/>
      </g>
     </g>
    </g>
    <g id="text_14">
     <!-- y [m] -->
     <g transform="translate(13.667847 185.32087) rotate(-90) scale(0.1 -0.1)">
      <defs>
       <path id="CMSS17-79" d="M 2675 2752 
L 2176 2752 
C 1632 1294 1446 702 1434 383 
L 1427 383 
C 1408 696 1126 1460 902 2007 
L 602 2752 
L 83 2752 
L 1216 13 
C 1146 -178 1043 -465 1011 -529 
C 870 -885 774 -885 672 -885 
C 646 -885 442 -885 211 -809 
L 250 -1229 
C 410 -1261 570 -1280 685 -1280 
C 845 -1280 1165 -1280 1459 -497 
L 2675 2752 
z
" transform="scale(0.015625)"/>
      </defs>
      <use xlink:href="#CMSS17-79" transform="scale(0.996264)"/>
      <use xlink:href="#CMSS17-5b" transform="translate(74.229254 0) scale(0.996264)"/>
      <use xlink:href="#CMSS17-6d" transform="translate(101.414693 0) scale(0.996264)"/>
      <use xlink:href="#CMSS17-5d" transform="translate(175.643948 0) scale(0.996264)"/>
     </g>
    </g>
   </g>
   <g id="line2d_25">
    <path d="M 228.691414 180.229572 
L 228.484677 178.983229 
L 228.398983 177.666625 
L 228.435686 176.300524 
L 228.594206 174.906468 
L 228.872042 173.506443 
L 229.264815 172.12253 
L 229.766328 170.776552 
L 230.368674 169.489736 
L 231.062352 168.282377 
L 231.836423 167.173515 
L 232.678679 166.180638 
L 233.575838 165.319404 
L 234.513751 164.603394 
L 235.477626 164.043902 
L 236.452263 163.64975 
L 237.42229 163.427155 
L 238.37241 163.379626 
L 239.28764 163.507914 
L 240.153544 163.809996 
L 240.956468 164.281107 
L 241.683749 164.913817 
L 242.323917 165.698149 
L 242.866876 166.621733 
L 243.304064 167.670003 
L 243.628586 168.826428 
L 243.835323 170.072771 
L 243.921017 171.389375 
L 243.884314 172.755476 
L 243.725794 174.149532 
L 243.447958 175.549557 
L 243.055185 176.93347 
L 242.553672 178.279448 
L 241.951326 179.566264 
L 241.257648 180.773623 
L 240.483577 181.882485 
L 239.641321 182.875362 
L 238.744162 183.736596 
L 237.806249 184.452606 
L 236.842374 185.012098 
L 235.867737 185.40625 
L 234.89771 185.628845 
L 233.94759 185.676374 
L 233.03236 185.548086 
L 232.166456 185.246004 
L 231.363532 184.774893 
L 230.636251 184.142183 
L 229.996083 183.357851 
L 229.453124 182.434267 
L 229.015936 181.385997 
L 228.691414 180.229572 
" clip-path="url(#p5e763cc5f7)" style="fill: none; stroke: #0000ff; stroke-width: 1.5; stroke-linecap: square"/>
   </g>
   <g id="line2d_26">
    <path d="M 139.816103 208.636976 
L 139.765431 200.464841 
L 141.234958 191.883666 
L 144.201511 183.028782 
L 148.618303 174.039835 
L 154.415681 165.058587 
L 161.502215 156.226677 
L 169.766147 147.683391 
L 179.07715 139.563459 
L 189.288383 131.99494 
L 200.23881 125.097192 
L 211.755735 118.978997 
L 223.657531 113.736844 
L 235.756497 109.453403 
L 247.861828 106.196228 
L 259.782613 104.016685 
L 271.330856 102.949148 
L 282.324433 103.010453 
L 292.589969 104.199631 
L 301.965572 106.49793 
L 310.303381 109.869104 
L 317.471904 114.259988 
L 323.358091 119.601334 
L 327.869111 125.808906 
L 330.933824 132.784807 
L 332.503897 140.419024 
L 332.554569 148.591159 
L 331.085042 157.172334 
L 328.118489 166.027218 
L 323.701697 175.016165 
L 317.904319 183.997413 
L 310.817785 192.829323 
L 302.553853 201.372609 
L 293.24285 209.492541 
L 283.031617 217.06106 
L 272.08119 223.958808 
L 260.564265 230.077003 
L 248.662469 235.319156 
L 236.563503 239.602597 
L 224.458172 242.859772 
L 212.537387 245.039315 
L 200.989144 246.106852 
L 189.995567 246.045547 
L 179.730031 244.856369 
L 170.354428 242.55807 
L 162.016619 239.186896 
L 154.848096 234.796012 
L 148.961909 229.454666 
L 144.450889 223.247094 
L 141.386176 216.271193 
L 139.816103 208.636976 
" clip-path="url(#p5e763cc5f7)" style="fill: none; stroke: #008000; stroke-width: 1.5; stroke-linecap: square"/>
   </g>
   <g id="line2d_27">
    <defs>
     <path id="mb602c192f2" d="M 0 1.5 
C 0.397805 1.5 0.77937 1.341951 1.06066 1.06066 
C 1.341951 0.77937 1.5 0.397805 1.5 0 
C 1.5 -0.397805 1.341951 -0.77937 1.06066 -1.06066 
C 0.77937 -1.341951 0.397805 -1.5 0 -1.5 
C -0.397805 -1.5 -0.77937 -1.341951 -1.06066 -1.06066 
C -1.341951 -0.77937 -1.5 -0.397805 -1.5 0 
C -1.5 0.397805 -1.341951 0.77937 -1.06066 1.06066 
C -0.77937 1.341951 -0.397805 1.5 0 1.5 
z
" style="stroke: #ff0000"/>
    </defs>
    <g clip-path="url(#p5e763cc5f7)">
     <use xlink:href="#mb602c192f2" x="270.146276" y="183.89317" style="fill: #ff0000; stroke: #ff0000"/>
     <use xlink:href="#mb602c192f2" x="256.962841" y="133.695733" style="fill: #ff0000; stroke: #ff0000"/>
     <use xlink:href="#mb602c192f2" x="196.983034" y="163.691177" style="fill: #ff0000; stroke: #ff0000"/>
     <use xlink:href="#mb602c192f2" x="167.970739" y="142.877905" style="fill: #ff0000; stroke: #ff0000"/>
     <use xlink:href="#mb602c192f2" x="321.30821" y="221.173616" style="fill: #ff0000; stroke: #ff0000"/>
     <use xlink:href="#mb602c192f2" x="251.905606" y="248.889688" style="fill: #ff0000; stroke: #ff0000"/>
     <use xlink:href="#mb602c192f2" x="266.725357" y="190.070042" style="fill: #ff0000; stroke: #ff0000"/>
     <use xlink:href="#mb602c192f2" x="258.660107" y="186.688394" style="fill: #ff0000; stroke: #ff0000"/>
     <use xlink:href="#mb602c192f2" x="324.590815" y="212.514009" style="fill: #ff0000; stroke: #ff0000"/>
     <use xlink:href="#mb602c192f2" x="154.126717" y="166.226681" style="fill: #ff0000; stroke: #ff0000"/>
     <use xlink:href="#mb602c192f2" x="265.719412" y="173.667308" style="fill: #ff0000; stroke: #ff0000"/>
     <use xlink:href="#mb602c192f2" x="272.581019" y="131.427594" style="fill: #ff0000; stroke: #ff0000"/>
     <use xlink:href="#mb602c192f2" x="136.373944" y="172.008951" style="fill: #ff0000; stroke: #ff0000"/>
     <use xlink:href="#mb602c192f2" x="247.990292" y="186.794592" style="fill: #ff0000; stroke: #ff0000"/>
     <use xlink:href="#mb602c192f2" x="260.458138" y="160.019575" style="fill: #ff0000; stroke: #ff0000"/>
     <use xlink:href="#mb602c192f2" x="258.763695" y="133.388432" style="fill: #ff0000; stroke: #ff0000"/>
     <use xlink:href="#mb602c192f2" x="211.785533" y="146.400422" style="fill: #ff0000; stroke: #ff0000"/>
     <use xlink:href="#mb602c192f2" x="274.950068" y="135.631121" style="fill: #ff0000; stroke: #ff0000"/>
     <use xlink:href="#mb602c192f2" x="223.289755" y="234.536602" style="fill: #ff0000; stroke: #ff0000"/>
     <use xlink:href="#mb602c192f2" x="270.059308" y="79.418834" style="fill: #ff0000; stroke: #ff0000"/>
     <use xlink:href="#mb602c192f2" x="369.768569" y="186.755998" style="fill: #ff0000; stroke: #ff0000"/>
     <use xlink:href="#mb602c192f2" x="214.511362" y="203.205953" style="fill: #ff0000; stroke: #ff0000"/>
     <use xlink:href="#mb602c192f2" x="298.882358" y="74.422281" style="fill: #ff0000; stroke: #ff0000"/>
     <use xlink:href="#mb602c192f2" x="244.921318" y="223.962411" style="fill: #ff0000; stroke: #ff0000"/>
     <use xlink:href="#mb602c192f2" x="319.385417" y="202.961007" style="fill: #ff0000; stroke: #ff0000"/>
     <use xlink:href="#mb602c192f2" x="182.863756" y="172.463325" style="fill: #ff0000; stroke: #ff0000"/>
     <use xlink:href="#mb602c192f2" x="303.129121" y="209.776532" style="fill: #ff0000; stroke: #ff0000"/>
     <use xlink:href="#mb602c192f2" x="226.647659" y="176.947188" style="fill: #ff0000; stroke: #ff0000"/>
     <use xlink:href="#mb602c192f2" x="314.745791" y="170.728716" style="fill: #ff0000; stroke: #ff0000"/>
     <use xlink:href="#mb602c192f2" x="229.035261" y="142.472192" style="fill: #ff0000; stroke: #ff0000"/>
     <use xlink:href="#mb602c192f2" x="324.744119" y="102.748652" style="fill: #ff0000; stroke: #ff0000"/>
     <use xlink:href="#mb602c192f2" x="266.468317" y="228.689551" style="fill: #ff0000; stroke: #ff0000"/>
     <use xlink:href="#mb602c192f2" x="166.655559" y="205.541209" style="fill: #ff0000; stroke: #ff0000"/>
     <use xlink:href="#mb602c192f2" x="149.856478" y="152.047288" style="fill: #ff0000; stroke: #ff0000"/>
     <use xlink:href="#mb602c192f2" x="254.220548" y="144.330973" style="fill: #ff0000; stroke: #ff0000"/>
     <use xlink:href="#mb602c192f2" x="178.102299" y="139.709356" style="fill: #ff0000; stroke: #ff0000"/>
     <use xlink:href="#mb602c192f2" x="126.76077" y="262.168027" style="fill: #ff0000; stroke: #ff0000"/>
     <use xlink:href="#mb602c192f2" x="237.404228" y="162.856146" style="fill: #ff0000; stroke: #ff0000"/>
     <use xlink:href="#mb602c192f2" x="118.036417" y="237.857732" style="fill: #ff0000; stroke: #ff0000"/>
     <use xlink:href="#mb602c192f2" x="181.348822" y="263.179295" style="fill: #ff0000; stroke: #ff0000"/>
     <use xlink:href="#mb602c192f2" x="236.283589" y="145.045581" style="fill: #ff0000; stroke: #ff0000"/>
     <use xlink:href="#mb602c192f2" x="300.463463" y="156.793421" style="fill: #ff0000; stroke: #ff0000"/>
     <use xlink:href="#mb602c192f2" x="270.209854" y="141.233161" style="fill: #ff0000; stroke: #ff0000"/>
     <use xlink:href="#mb602c192f2" x="250.026891" y="133.917442" style="fill: #ff0000; stroke: #ff0000"/>
     <use xlink:href="#mb602c192f2" x="225.135288" y="240.607749" style="fill: #ff0000; stroke: #ff0000"/>
     <use xlink:href="#mb602c192f2" x="171.297237" y="203.294945" style="fill: #ff0000; stroke: #ff0000"/>
     <use xlink:href="#mb602c192f2" x="200.782573" y="222.942937" style="fill: #ff0000; stroke: #ff0000"/>
     <use xlink:href="#mb602c192f2" x="168.965558" y="177.360705" style="fill: #ff0000; stroke: #ff0000"/>
     <use xlink:href="#mb602c192f2" x="226.093057" y="234.231359" style="fill: #ff0000; stroke: #ff0000"/>
     <use xlink:href="#mb602c192f2" x="240.323733" y="195.353397" style="fill: #ff0000; stroke: #ff0000"/>
     <use xlink:href="#mb602c192f2" x="269.066818" y="138.008827" style="fill: #ff0000; stroke: #ff0000"/>
     <use xlink:href="#mb602c192f2" x="198.336704" y="151.282555" style="fill: #ff0000; stroke: #ff0000"/>
     <use xlink:href="#mb602c192f2" x="283.699497" y="148.494738" style="fill: #ff0000; stroke: #ff0000"/>
     <use xlink:href="#mb602c192f2" x="289.015268" y="165.036584" style="fill: #ff0000; stroke: #ff0000"/>
     <use xlink:href="#mb602c192f2" x="157.726024" y="159.108108" style="fill: #ff0000; stroke: #ff0000"/>
     <use xlink:href="#mb602c192f2" x="310.624937" y="127.462266" style="fill: #ff0000; stroke: #ff0000"/>
     <use xlink:href="#mb602c192f2" x="155.851886" y="163.222223" style="fill: #ff0000; stroke: #ff0000"/>
     <use xlink:href="#mb602c192f2" x="255.980781" y="235.672839" style="fill: #ff0000; stroke: #ff0000"/>
     <use xlink:href="#mb602c192f2" x="169.958411" y="91.327423" style="fill: #ff0000; stroke: #ff0000"/>
     <use xlink:href="#mb602c192f2" x="222.4275" y="175.398102" style="fill: #ff0000; stroke: #ff0000"/>
     <use xlink:href="#mb602c192f2" x="233.512624" y="148.167871" style="fill: #ff0000; stroke: #ff0000"/>
     <use xlink:href="#mb602c192f2" x="188.89513" y="169.572928" style="fill: #ff0000; stroke: #ff0000"/>
     <use xlink:href="#mb602c192f2" x="181.945059" y="180.208042" style="fill: #ff0000; stroke: #ff0000"/>
     <use xlink:href="#mb602c192f2" x="232.427331" y="273.552897" style="fill: #ff0000; stroke: #ff0000"/>
     <use xlink:href="#mb602c192f2" x="276.883194" y="165.305507" style="fill: #ff0000; stroke: #ff0000"/>
     <use xlink:href="#mb602c192f2" x="288.078209" y="156.919216" style="fill: #ff0000; stroke: #ff0000"/>
     <use xlink:href="#mb602c192f2" x="197.160594" y="193.38292" style="fill: #ff0000; stroke: #ff0000"/>
     <use xlink:href="#mb602c192f2" x="265.907238" y="183.041569" style="fill: #ff0000; stroke: #ff0000"/>
     <use xlink:href="#mb602c192f2" x="275.158598" y="170.33239" style="fill: #ff0000; stroke: #ff0000"/>
     <use xlink:href="#mb602c192f2" x="231.821433" y="187.780829" style="fill: #ff0000; stroke: #ff0000"/>
     <use xlink:href="#mb602c192f2" x="202.132637" y="134.115846" style="fill: #ff0000; stroke: #ff0000"/>
     <use xlink:href="#mb602c192f2" x="235.84168" y="205.100197" style="fill: #ff0000; stroke: #ff0000"/>
     <use xlink:href="#mb602c192f2" x="249.766346" y="140.452895" style="fill: #ff0000; stroke: #ff0000"/>
     <use xlink:href="#mb602c192f2" x="189.175209" y="124.11558" style="fill: #ff0000; stroke: #ff0000"/>
     <use xlink:href="#mb602c192f2" x="183.026917" y="179.161753" style="fill: #ff0000; stroke: #ff0000"/>
     <use xlink:href="#mb602c192f2" x="271.563387" y="190.640951" style="fill: #ff0000; stroke: #ff0000"/>
     <use xlink:href="#mb602c192f2" x="154.958836" y="217.173094" style="fill: #ff0000; stroke: #ff0000"/>
     <use xlink:href="#mb602c192f2" x="298.719816" y="105.605158" style="fill: #ff0000; stroke: #ff0000"/>
     <use xlink:href="#mb602c192f2" x="359.185801" y="177.782235" style="fill: #ff0000; stroke: #ff0000"/>
     <use xlink:href="#mb602c192f2" x="272.207249" y="174.502266" style="fill: #ff0000; stroke: #ff0000"/>
     <use xlink:href="#mb602c192f2" x="304.152353" y="149.203576" style="fill: #ff0000; stroke: #ff0000"/>
     <use xlink:href="#mb602c192f2" x="202.849739" y="166.564969" style="fill: #ff0000; stroke: #ff0000"/>
     <use xlink:href="#mb602c192f2" x="254.955517" y="168.7282" style="fill: #ff0000; stroke: #ff0000"/>
     <use xlink:href="#mb602c192f2" x="239.758005" y="189.849558" style="fill: #ff0000; stroke: #ff0000"/>
     <use xlink:href="#mb602c192f2" x="215.916652" y="201.550766" style="fill: #ff0000; stroke: #ff0000"/>
     <use xlink:href="#mb602c192f2" x="149.758561" y="146.94573" style="fill: #ff0000; stroke: #ff0000"/>
     <use xlink:href="#mb602c192f2" x="232.953777" y="243.0258" style="fill: #ff0000; stroke: #ff0000"/>
     <use xlink:href="#mb602c192f2" x="238.951666" y="223.329034" style="fill: #ff0000; stroke: #ff0000"/>
     <use xlink:href="#mb602c192f2" x="276.749664" y="227.346736" style="fill: #ff0000; stroke: #ff0000"/>
     <use xlink:href="#mb602c192f2" x="166.415007" y="139.001264" style="fill: #ff0000; stroke: #ff0000"/>
     <use xlink:href="#mb602c192f2" x="326.327724" y="114.679793" style="fill: #ff0000; stroke: #ff0000"/>
     <use xlink:href="#mb602c192f2" x="257.802979" y="175.444198" style="fill: #ff0000; stroke: #ff0000"/>
     <use xlink:href="#mb602c192f2" x="233.20031" y="201.769227" style="fill: #ff0000; stroke: #ff0000"/>
     <use xlink:href="#mb602c192f2" x="211.953454" y="179.122024" style="fill: #ff0000; stroke: #ff0000"/>
     <use xlink:href="#mb602c192f2" x="198.37282" y="143.336364" style="fill: #ff0000; stroke: #ff0000"/>
     <use xlink:href="#mb602c192f2" x="256.204277" y="175.650005" style="fill: #ff0000; stroke: #ff0000"/>
     <use xlink:href="#mb602c192f2" x="202.806175" y="187.508351" style="fill: #ff0000; stroke: #ff0000"/>
     <use xlink:href="#mb602c192f2" x="189.264783" y="168.914155" style="fill: #ff0000; stroke: #ff0000"/>
     <use xlink:href="#mb602c192f2" x="162.969136" y="152.694107" style="fill: #ff0000; stroke: #ff0000"/>
     <use xlink:href="#mb602c192f2" x="302.444557" y="147.520092" style="fill: #ff0000; stroke: #ff0000"/>
    </g>
   </g>
   <g id="line2d_28">
    <path d="M 73.832727 195.511503 
L 74.553686 180.414047 
L 77.823273 165.223764 
L 83.589925 150.180215 
L 91.762698 135.520645 
L 102.212703 121.476244 
L 114.775136 108.268502 
L 129.251882 96.105711 
L 145.414632 85.179686 
L 163.008491 75.662738 
L 181.755993 67.704954 
L 201.361479 61.431833 
L 221.515758 56.942306 
L 241.900985 54.307176 
L 262.195674 53.568 
L 282.079765 54.736436 
L 301.239673 57.794056 
L 319.373237 62.69264 
L 336.194477 69.354934 
L 351.438115 77.675871 
L 364.863747 87.524224 
L 376.259645 98.744678 
L 385.446087 111.16028 
L 392.278199 124.575229 
L 396.648234 138.777964 
L 398.487273 153.544497 
L 397.766314 168.641953 
L 394.496727 183.832236 
L 388.730075 198.875785 
L 380.557302 213.535355 
L 370.107297 227.579756 
L 357.544864 240.787498 
L 343.068118 252.950289 
L 326.905368 263.876314 
L 309.311509 273.393262 
L 290.564007 281.351046 
L 270.958521 287.624167 
L 250.804242 292.113694 
L 230.419015 294.748824 
L 210.124326 295.488 
L 190.240235 294.319564 
L 171.080327 291.261944 
L 152.946763 286.36336 
L 136.125523 279.701066 
L 120.881885 271.380129 
L 107.456253 261.531776 
L 96.060355 250.311322 
L 86.873913 237.89572 
L 80.041801 224.480771 
L 75.671766 210.278036 
L 73.832727 195.511503 
" clip-path="url(#p5e763cc5f7)" style="fill: none; stroke: #ff0000; stroke-width: 1.5; stroke-linecap: square"/>
   </g>
   <g id="patch_6">
    <path d="M 57.6 307.584 
L 57.6 41.472 
" style="fill: none; stroke: #000000; stroke-width: 0.8; stroke-linejoin: miter; stroke-linecap: square"/>
   </g>
   <g id="patch_7">
    <path d="M 414.72 307.584 
L 414.72 41.472 
" style="fill: none; stroke: #000000; stroke-width: 0.8; stroke-linejoin: miter; stroke-linecap: square"/>
   </g>
   <g id="patch_8">
    <path d="M 57.6 307.584 
L 414.72 307.584 
" style="fill: none; stroke: #000000; stroke-width: 0.8; stroke-linejoin: miter; stroke-linecap: square"/>
   </g>
   <g id="patch_9">
    <path d="M 57.6 41.472 
L 414.72 41.472 
" style="fill: none; stroke: #000000; stroke-width: 0.8; stroke-linejoin: miter; stroke-linecap: square"/>
   </g>
   <g id="legend_1">
    <g id="patch_10">
     <path d="M 298.962583 302.584 
L 407.72 302.584 
Q 409.72 302.584 409.72 300.584 
L 409.72 245.835287 
Q 409.72 243.835287 407.72 243.835287 
L 298.962583 243.835287 
Q 296.962583 243.835287 296.962583 245.835287 
L 296.962583 300.584 
Q 296.962583 302.584 298.962583 302.584 
z
" style="fill: #ffffff; opacity: 0.8; stroke: #cccccc; stroke-linejoin: miter"/>
    </g>
    <g id="line2d_29">
     <path d="M 300.962583 251.335287 
L 310.962583 251.335287 
L 320.962583 251.335287 
" style="fill: none; stroke: #0000ff; stroke-width: 1.5; stroke-linecap: square"/>
    </g>
    <g id="text_15">
     <!-- Censi's cov $3\sigma$. -->
     <g transform="translate(328.962583 254.835287) scale(0.1 -0.1)">
      <defs>
       <path id="CMSS17-43" d="M 3501 714 
C 3072 427 2874 344 2355 344 
C 1459 344 934 1303 934 2179 
C 934 3112 1472 4032 2381 4032 
C 2790 4032 3059 3918 3386 3715 
L 3475 4217 
C 3168 4370 2778 4440 2387 4440 
C 1158 4440 397 3316 397 2179 
C 397 927 1299 -64 2323 -64 
C 2874 -64 3066 -19 3539 280 
L 3501 714 
z
" transform="scale(0.015625)"/>
       <path id="CMSS17-65" d="M 2502 1377 
C 2502 1590 2490 2003 2285 2345 
C 2061 2713 1696 2816 1421 2816 
C 755 2816 192 2188 192 1375 
C 192 582 774 -64 1510 -64 
C 1798 -64 2150 19 2470 248 
C 2470 274 2458 414 2451 420 
C 2451 433 2432 630 2432 656 
C 2125 407 1773 325 1517 325 
C 1107 325 666 667 646 1377 
L 2502 1377 
z
M 698 1728 
C 781 2084 1062 2421 1421 2421 
C 1517 2421 1965 2421 2080 1728 
L 698 1728 
z
" transform="scale(0.015625)"/>
       <path id="CMSS17-6e" d="M 2618 1877 
C 2618 2283 2522 2816 1798 2816 
C 1389 2816 1120 2606 941 2389 
L 941 2758 
L 474 2758 
L 474 0 
L 960 0 
L 960 1559 
C 960 1964 1114 2428 1549 2428 
C 2112 2428 2131 2048 2131 1829 
L 2131 0 
L 2618 0 
L 2618 1877 
z
" transform="scale(0.015625)"/>
       <path id="CMSS17-73" d="M 2061 2627 
C 1683 2807 1389 2807 1197 2807 
C 742 2807 198 2648 198 2003 
C 198 1359 902 1218 1094 1179 
C 1389 1122 1715 1058 1715 740 
C 1715 337 1254 337 1171 337 
C 915 337 563 407 243 638 
L 166 210 
C 531 0 883 -64 1178 -64 
C 1965 -64 2163 416 2163 781 
C 2163 1094 1984 1305 1862 1401 
C 1651 1568 1574 1587 1050 1696 
C 960 1709 646 1779 646 2066 
C 646 2432 1050 2432 1139 2432 
C 1555 2432 1811 2303 1984 2208 
L 2061 2627 
z
" transform="scale(0.015625)"/>
       <path id="CMSS17-69" d="M 979 4183 
L 442 4183 
L 442 3648 
L 979 3648 
L 979 4183 
z
M 947 2739 
L 474 2739 
L 474 0 
L 947 0 
L 947 2739 
z
" transform="scale(0.015625)"/>
       <path id="CMSS17-27" d="M 1088 3910 
L 1088 4413 
L 576 4413 
L 576 3904 
L 736 3904 
L 570 3104 
L 826 3104 
L 1088 3910 
z
" transform="scale(0.015625)"/>
       <path id="CMSS17-63" d="M 2464 2541 
C 2464 2585 2170 2714 2093 2739 
C 1882 2816 1613 2816 1542 2816 
C 710 2816 211 2093 211 1363 
C 211 595 768 -64 1517 -64 
C 1946 -64 2253 76 2502 242 
L 2464 664 
C 2189 453 1869 337 1523 337 
C 1024 337 698 774 698 1369 
C 698 1831 909 2414 1549 2414 
C 1901 2414 2099 2343 2394 2145 
L 2464 2541 
z
" transform="scale(0.015625)"/>
       <path id="CMSS17-6f" d="M 2829 1356 
C 2829 2176 2221 2816 1504 2816 
C 768 2816 173 2157 173 1356 
C 173 544 787 -64 1498 -64 
C 2227 -64 2829 563 2829 1356 
z
M 1504 337 
C 1050 337 659 709 659 1408 
C 659 2151 1114 2427 1498 2427 
C 1914 2427 2342 2126 2342 1408 
C 2342 683 1926 337 1504 337 
z
" transform="scale(0.015625)"/>
       <path id="CMSS17-76" d="M 2675 2752 
L 2176 2752 
L 1747 1556 
C 1613 1165 1421 627 1389 352 
L 1382 352 
C 1370 468 1318 634 1286 749 
C 1248 890 1197 1056 1158 1172 
L 595 2752 
L 83 2752 
L 1094 0 
L 1664 0 
L 2675 2752 
z
" transform="scale(0.015625)"/>
       <path id="CMR17-33" d="M 1414 2157 
C 1984 2157 2234 1662 2234 1090 
C 2234 320 1824 25 1453 25 
C 1114 25 563 194 390 693 
C 422 680 454 680 486 680 
C 640 680 755 782 755 948 
C 755 1133 614 1216 486 1216 
C 378 1216 211 1165 211 926 
C 211 335 787 -128 1466 -128 
C 2176 -128 2720 430 2720 1085 
C 2720 1707 2208 2157 1600 2227 
C 2086 2328 2554 2756 2554 3329 
C 2554 3820 2048 4179 1472 4179 
C 890 4179 378 3829 378 3329 
C 378 3110 544 3072 627 3072 
C 762 3072 877 3155 877 3321 
C 877 3486 762 3569 627 3569 
C 602 3569 570 3569 544 3557 
C 730 3959 1235 4032 1459 4032 
C 1683 4032 2106 3925 2106 3320 
C 2106 3143 2080 2828 1862 2550 
C 1670 2304 1453 2304 1242 2284 
C 1210 2284 1062 2269 1037 2269 
C 992 2263 966 2257 966 2208 
C 966 2163 973 2157 1101 2157 
L 1414 2157 
z
" transform="scale(0.015625)"/>
       <path id="CMMI12-1b" d="M 3251 2408 
C 3334 2408 3546 2408 3546 2612 
C 3546 2752 3424 2752 3309 2752 
L 1894 2752 
C 934 2752 243 1686 243 932 
C 243 390 595 -64 1171 -64 
C 1926 -64 2752 747 2752 1705 
C 2752 1954 2694 2196 2541 2408 
L 3251 2408 
z
M 1178 64 
C 851 64 614 313 614 754 
C 614 1137 845 2408 1786 2408 
C 2061 2408 2368 2274 2368 1781 
C 2368 1558 2266 1021 2042 652 
C 1811 275 1466 64 1178 64 
z
" transform="scale(0.015625)"/>
       <path id="CMSS17-2e" d="M 1088 510 
L 576 510 
L 576 0 
L 1088 0 
L 1088 510 
z
" transform="scale(0.015625)"/>
      </defs>
      <use xlink:href="#CMSS17-43" transform="scale(0.996264)"/>
      <use xlink:href="#CMSS17-65" transform="translate(59.855772 0) scale(0.996264)"/>
      <use xlink:href="#CMSS17-6e" transform="translate(101.494594 0) scale(0.996264)"/>
      <use xlink:href="#CMSS17-73" transform="translate(149.699537 0) scale(0.996264)"/>
      <use xlink:href="#CMSS17-69" transform="translate(185.613079 0) scale(0.996264)"/>
      <use xlink:href="#CMSS17-27" transform="translate(207.793802 0) scale(0.996264)"/>
      <use xlink:href="#CMSS17-73" transform="translate(233.818007 0) scale(0.996264)"/>
      <use xlink:href="#CMSS17-63" transform="translate(300.960661 0) scale(0.996264)"/>
      <use xlink:href="#CMSS17-6f" transform="translate(342.599484 0) scale(0.996264)"/>
      <use xlink:href="#CMSS17-76" transform="translate(389.443107 0) scale(0.996264)"/>
      <use xlink:href="#CMR17-33" transform="translate(463.672361 0) scale(0.996264)"/>
      <use xlink:href="#CMMI12-1b" transform="translate(509.362839 0) scale(0.996264)"/>
      <use xlink:href="#CMSS17-2e" transform="translate(568.382892 0) scale(0.996264)"/>
     </g>
    </g>
    <g id="line2d_30">
     <path d="M 300.962583 265.272465 
L 310.962583 265.272465 
L 320.962583 265.272465 
" style="fill: none; stroke: #008000; stroke-width: 1.5; stroke-linecap: square"/>
    </g>
    <g id="text_16">
     <!-- Brossard's cov $3\sigma$. -->
     <g transform="translate(328.962583 268.772465) scale(0.1 -0.1)">
      <defs>
       <path id="CMSS17-42" d="M 570 4416 
L 570 0 
L 2163 0 
C 3034 0 3667 574 3667 1200 
C 3667 1685 3251 2176 2502 2317 
C 3334 2558 3501 3040 3501 3313 
C 3501 3883 2874 4416 1997 4416 
L 570 4416 
z
M 1088 2496 
L 1088 4059 
L 1824 4059 
C 2483 4059 3002 3724 3002 3306 
C 3002 2926 2592 2496 1766 2496 
L 1088 2496 
z
M 1088 357 
L 1088 2107 
L 1939 2107 
C 2630 2107 3162 1679 3162 1206 
C 3162 772 2694 357 1984 357 
L 1088 357 
z
" transform="scale(0.015625)"/>
       <path id="CMSS17-72" d="M 954 1363 
C 954 1965 1395 2368 1958 2368 
L 1958 2789 
C 1549 2789 1165 2585 934 2253 
L 934 2758 
L 480 2758 
L 480 0 
L 954 0 
L 954 1363 
z
" transform="scale(0.015625)"/>
       <path id="CMSS17-61" d="M 2406 1791 
C 2406 2392 1978 2808 1402 2808 
C 1120 2808 813 2757 461 2553 
L 499 2135 
C 659 2248 934 2432 1395 2432 
C 1722 2432 1920 2180 1920 1782 
L 1920 1536 
C 896 1536 256 1238 256 726 
C 256 461 416 -64 947 -64 
C 1043 -64 1562 -64 1933 217 
L 1933 -19 
L 2406 -19 
L 2406 1791 
z
M 1920 816 
C 1920 701 1920 548 1728 434 
C 1562 325 1350 325 1261 325 
C 941 325 723 511 723 744 
C 723 1211 1722 1211 1920 1211 
L 1920 816 
z
" transform="scale(0.015625)"/>
       <path id="CMSS17-64" d="M 2611 4416 
L 2138 4416 
L 2138 2438 
C 1939 2603 1613 2756 1254 2756 
C 672 2756 211 2131 211 1347 
C 211 562 666 -64 1235 -64 
C 1677 -64 1971 172 2125 306 
L 2125 -13 
L 2611 -13 
L 2611 4416 
z
M 2125 836 
C 2125 747 2125 653 1926 482 
C 1798 375 1645 325 1498 325 
C 1152 325 698 576 698 1340 
C 698 2134 1210 2368 1562 2368 
C 1798 2368 1990 2254 2125 2065 
L 2125 836 
z
" transform="scale(0.015625)"/>
      </defs>
      <use xlink:href="#CMSS17-42" transform="scale(0.996264)"/>
      <use xlink:href="#CMSS17-72" transform="translate(62.33804 0) scale(0.996264)"/>
      <use xlink:href="#CMSS17-6f" transform="translate(94.247813 0) scale(0.996264)"/>
      <use xlink:href="#CMSS17-73" transform="translate(141.091436 0) scale(0.996264)"/>
      <use xlink:href="#CMSS17-73" transform="translate(177.004978 0) scale(0.996264)"/>
      <use xlink:href="#CMSS17-61" transform="translate(212.91852 0) scale(0.996264)"/>
      <use xlink:href="#CMSS17-72" transform="translate(255.237987 0) scale(0.996264)"/>
      <use xlink:href="#CMSS17-64" transform="translate(287.14776 0) scale(0.996264)"/>
      <use xlink:href="#CMSS17-27" transform="translate(335.352703 0) scale(0.996264)"/>
      <use xlink:href="#CMSS17-73" transform="translate(361.376908 0) scale(0.996264)"/>
      <use xlink:href="#CMSS17-63" transform="translate(428.519562 0) scale(0.996264)"/>
      <use xlink:href="#CMSS17-6f" transform="translate(470.158384 0) scale(0.996264)"/>
      <use xlink:href="#CMSS17-76" transform="translate(517.002008 0) scale(0.996264)"/>
      <use xlink:href="#CMR17-33" transform="translate(591.231262 0) scale(0.996264)"/>
      <use xlink:href="#CMMI12-1b" transform="translate(636.921739 0) scale(0.996264)"/>
      <use xlink:href="#CMSS17-2e" transform="translate(695.941793 0) scale(0.996264)"/>
     </g>
    </g>
    <g id="line2d_31">
     <g>
      <use xlink:href="#mb602c192f2" x="310.962583" y="279.209643" style="fill: #ff0000; stroke: #ff0000"/>
     </g>
    </g>
    <g id="text_17">
     <!-- Samples. -->
     <g transform="translate(328.962583 282.709643) scale(0.1 -0.1)">
      <defs>
       <path id="CMSS17-53" d="M 2797 4169 
C 2515 4334 2208 4480 1690 4480 
C 864 4480 333 3879 333 3266 
C 333 3025 403 2753 653 2475 
C 902 2196 1184 2121 1542 2033 
C 1690 1994 1939 1924 1984 1906 
C 2342 1767 2515 1444 2515 1140 
C 2515 742 2202 318 1645 318 
C 1453 318 890 318 358 819 
L 269 318 
C 794 -64 1363 -128 1651 -128 
C 2438 -128 3002 488 3002 1186 
C 3002 1440 2925 1763 2656 2061 
C 2394 2347 2163 2410 1638 2549 
C 1338 2626 1146 2677 986 2873 
C 877 3013 819 3146 819 3317 
C 819 3673 1126 4060 1690 4060 
C 1971 4060 2336 4002 2707 3660 
L 2797 4169 
z
" transform="scale(0.015625)"/>
       <path id="CMSS17-70" d="M 966 333 
C 1178 129 1466 -5 1773 -5 
C 2368 -5 2880 603 2880 1412 
C 2880 2159 2496 2816 1946 2816 
C 1626 2816 1242 2702 954 2472 
L 954 2765 
L 480 2765 
L 480 -1216 
L 966 -1216 
L 966 333 
z
M 966 2100 
C 1018 2176 1235 2415 1587 2415 
C 2035 2415 2394 1960 2394 1412 
C 2394 787 1958 384 1530 384 
C 1402 384 1267 415 1139 523 
C 966 674 966 768 966 857 
L 966 2100 
z
" transform="scale(0.015625)"/>
       <path id="CMSS17-6c" d="M 947 4416 
L 474 4416 
L 474 0 
L 947 0 
L 947 4416 
z
" transform="scale(0.015625)"/>
      </defs>
      <use xlink:href="#CMSS17-53" transform="scale(0.996264)"/>
      <use xlink:href="#CMSS17-61" transform="translate(52.048516 0) scale(0.996264)"/>
      <use xlink:href="#CMSS17-6d" transform="translate(96.970437 0) scale(0.996264)"/>
      <use xlink:href="#CMSS17-70" transform="translate(171.199691 0) scale(0.996264)"/>
      <use xlink:href="#CMSS17-6c" transform="translate(219.404634 0) scale(0.996264)"/>
      <use xlink:href="#CMSS17-65" transform="translate(241.585357 0) scale(0.996264)"/>
      <use xlink:href="#CMSS17-73" transform="translate(283.224179 0) scale(0.996264)"/>
      <use xlink:href="#CMSS17-2e" transform="translate(319.137721 0) scale(0.996264)"/>
     </g>
    </g>
    <g id="line2d_32">
     <path d="M 300.962583 293.146822 
L 310.962583 293.146822 
L 320.962583 293.146822 
" style="fill: none; stroke: #ff0000; stroke-width: 1.5; stroke-linecap: square"/>
    </g>
    <g id="text_18">
     <!-- Sample cov $3\sigma$. -->
     <g transform="translate(328.962583 296.646822) scale(0.1 -0.1)">
      <use xlink:href="#CMSS17-53" transform="scale(0.996264)"/>
      <use xlink:href="#CMSS17-61" transform="translate(52.048516 0) scale(0.996264)"/>
      <use xlink:href="#CMSS17-6d" transform="translate(96.970437 0) scale(0.996264)"/>
      <use xlink:href="#CMSS17-70" transform="translate(171.199691 0) scale(0.996264)"/>
      <use xlink:href="#CMSS17-6c" transform="translate(219.404634 0) scale(0.996264)"/>
      <use xlink:href="#CMSS17-65" transform="translate(241.585357 0) scale(0.996264)"/>
      <use xlink:href="#CMSS17-63" transform="translate(314.453292 0) scale(0.996264)"/>
      <use xlink:href="#CMSS17-6f" transform="translate(356.092114 0) scale(0.996264)"/>
      <use xlink:href="#CMSS17-76" transform="translate(402.935738 0) scale(0.996264)"/>
      <use xlink:href="#CMR17-33" transform="translate(477.164992 0) scale(0.996264)"/>
      <use xlink:href="#CMMI12-1b" transform="translate(522.855469 0) scale(0.996264)"/>
      <use xlink:href="#CMSS17-2e" transform="translate(581.875523 0) scale(0.996264)"/>
     </g>
    </g>
   </g>
  </g>
 </g>
 <defs>
  <clipPath id="p5e763cc5f7">
   <rect x="57.6" y="41.472" width="357.12" height="266.112"/>
  </clipPath>
 </defs>
</svg>
