<?xml version="1.0" encoding="utf-8" standalone="no"?>
<!DOCTYPE svg PUBLIC "-//W3C//DTD SVG 1.1//EN"
  "http://www.w3.org/Graphics/SVG/1.1/DTD/svg11.dtd">
<svg xmlns:xlink="http://www.w3.org/1999/xlink" width="460.8pt" height="345.6pt" viewBox="0 0 460.8 345.6" xmlns="http://www.w3.org/2000/svg" version="1.1">
 <metadata>
  <rdf:RDF xmlns:dc="http://purl.org/dc/elements/1.1/" xmlns:cc="http://creativecommons.org/ns#" xmlns:rdf="http://www.w3.org/1999/02/22-rdf-syntax-ns#">
   <cc:Work>
    <dc:type rdf:resource="http://purl.org/dc/dcmitype/StillImage"/>
    <dc:date>2022-12-17T15:06:07.480888</dc:date>
    <dc:format>image/svg+xml</dc:format>
    <dc:creator>
     <cc:Agent>
      <dc:title>Matplotlib v3.6.0, https://matplotlib.org/</dc:title>
     </cc:Agent>
    </dc:creator>
   </cc:Work>
  </rdf:RDF>
 </metadata>
 <defs>
  <style type="text/css">*{stroke-linejoin: round; stroke-linecap: butt}</style>
 </defs>
 <g id="figure_1">
  <g id="patch_1">
   <path d="M 0 345.6 
L 460.8 345.6 
L 460.8 0 
L 0 0 
z
" style="fill: #ffffff"/>
  </g>
  <g id="axes_1">
   <g id="patch_2">
    <path d="M 57.6 307.584 
L 414.72 307.584 
L 414.72 41.472 
L 57.6 41.472 
z
" style="fill: #ffffff"/>
   </g>
   <g id="patch_3">
    <path d="M 234.773078 162.86444 
L 235.619309 162.717803 
L 236.474066 162.75742 
L 237.323871 162.982667 
L 238.155321 163.389989 
L 238.955303 163.972965 
L 239.711202 164.722401 
L 240.411096 165.626476 
L 241.043948 166.670934 
L 241.599777 167.839302 
L 242.069817 169.113155 
L 242.446657 170.472403 
L 242.724351 171.895611 
L 242.898523 173.360333 
L 242.966423 174.84347 
L 242.926982 176.321631 
L 242.780822 177.771506 
L 242.530248 179.170229 
L 242.179211 180.495741 
L 241.733247 181.727139 
L 241.19939 182.845001 
L 240.586059 183.8317 
L 239.902926 184.671674 
L 239.160765 185.351675 
L 238.37128 185.860982 
L 237.546922 186.19156 
L 236.700691 186.338197 
L 235.845934 186.29858 
L 234.996129 186.073333 
L 234.164679 185.666011 
L 233.364697 185.083035 
L 232.608798 184.333599 
L 231.908904 183.429524 
L 231.276052 182.385066 
L 230.720223 181.216698 
L 230.250183 179.942845 
L 229.873343 178.583597 
L 229.595649 177.160389 
L 229.421477 175.695667 
L 229.353577 174.21253 
L 229.393018 172.734369 
L 229.539178 171.284494 
L 229.789752 169.885771 
L 230.140789 168.560259 
L 230.586753 167.328861 
L 231.12061 166.210999 
L 231.733941 165.2243 
L 232.417074 164.384326 
L 233.159235 163.704325 
L 233.94872 163.195018 
L 234.773078 162.86444 
L 234.773078 162.86444 
z
" clip-path="url(#p5009ac62c8)" style="fill: none; opacity: 0"/>
   </g>
   <g id="patch_4">
    <path d="M 94.330433 221.33838 
L 94.294292 212.566044 
L 96.495458 203.193825 
L 100.899217 193.369529 
L 107.436119 183.24809 
L 116.003074 172.989131 
L 126.464975 162.75444 
L 138.656832 152.705425 
L 152.386373 143.000566 
L 167.437074 133.792913 
L 183.571576 125.227676 
L 200.535429 117.439936 
L 218.061103 110.552508 
L 235.872207 104.674012 
L 253.68785 99.897154 
L 271.227069 96.29727 
L 288.213258 93.931132 
L 304.378537 92.836054 
L 319.467969 93.029306 
L 333.243584 94.507842 
L 345.488133 97.248344 
L 356.008512 101.207592 
L 364.638809 106.323146 
L 371.242918 112.514332 
L 375.716688 119.683511 
L 377.989567 127.71762 
L 378.025708 136.489956 
L 375.824542 145.862175 
L 371.420783 155.686471 
L 364.883881 165.80791 
L 356.316926 176.066869 
L 345.855025 186.30156 
L 333.663168 196.350575 
L 319.933627 206.055434 
L 304.882926 215.263087 
L 288.748424 223.828324 
L 271.784571 231.616064 
L 254.258897 238.503492 
L 236.447793 244.381988 
L 218.63215 249.158846 
L 201.092931 252.75873 
L 184.106742 255.124868 
L 167.941463 256.219946 
L 152.852031 256.026694 
L 139.076416 254.548158 
L 126.831867 251.807656 
L 116.311488 247.848408 
L 107.681191 242.732854 
L 101.077082 236.541668 
L 96.603312 229.372489 
L 94.330433 221.33838 
L 94.330433 221.33838 
z
" clip-path="url(#p5009ac62c8)" style="fill: none; opacity: 0"/>
   </g>
   <g id="patch_5">
    <path d="M 74.351785 225.213534 
L 73.832727 211.048238 
L 75.873667 196.306996 
L 80.442419 181.222287 
L 87.466929 166.032004 
L 96.836418 150.975709 
L 108.403124 136.290847 
L 121.984631 122.209008 
L 137.366752 108.95227 
L 154.306902 96.729701 
L 172.537924 85.734058 
L 191.772305 76.138748 
L 211.706705 68.095096 
L 232.026749 61.729954 
L 252.411977 57.143704 
L 272.540901 54.408675 
L 292.096076 53.568 
L 310.769107 54.634936 
L 328.265507 57.592657 
L 344.309348 62.394519 
L 358.64761 68.964792 
L 371.054168 77.19986 
L 381.333365 86.969852 
L 389.323092 98.120687 
L 394.897345 110.476512 
L 397.968215 123.842466 
L 398.487273 138.007762 
L 396.446333 152.749004 
L 391.877581 167.833713 
L 384.853071 183.023996 
L 375.483582 198.080291 
L 363.916876 212.765153 
L 350.335369 226.846992 
L 334.953248 240.10373 
L 318.013098 252.326299 
L 299.782076 263.321942 
L 280.547695 272.917252 
L 260.613295 280.960904 
L 240.293251 287.326046 
L 219.908023 291.912296 
L 199.779099 294.647325 
L 180.223924 295.488 
L 161.550893 294.421064 
L 144.054493 291.463343 
L 128.010652 286.661481 
L 113.67239 280.091208 
L 101.265832 271.85614 
L 90.986635 262.086148 
L 82.996908 250.935313 
L 77.422655 238.579488 
L 74.351785 225.213534 
L 74.351785 225.213534 
z
" clip-path="url(#p5009ac62c8)" style="fill: none; opacity: 0"/>
   </g>
   <g id="matplotlib.axis_1">
    <g id="xtick_1">
     <g id="line2d_1">
      <path d="M 59.769205 307.584 
L 59.769205 41.472 
" clip-path="url(#p5009ac62c8)" style="fill: none; stroke: #b0b0b0; stroke-width: 0.8; stroke-linecap: square"/>
     </g>
     <g id="line2d_2">
      <defs>
       <path id="m13a75d5493" d="M 0 0 
L 0 3.5 
" style="stroke: #000000; stroke-width: 0.8"/>
      </defs>
      <g>
       <use xlink:href="#m13a75d5493" x="59.769205" y="307.584" style="stroke: #000000; stroke-width: 0.8"/>
      </g>
     </g>
     <g id="text_1">
      <!-- $\mathdefault{−0.03}$ -->
      <g transform="translate(47.039126 321.502498) scale(0.1 -0.1)">
       <defs>
        <path id="CMSY10-0" d="M 4218 1472 
C 4326 1472 4442 1472 4442 1600 
C 4442 1728 4326 1728 4218 1728 
L 755 1728 
C 646 1728 531 1728 531 1600 
C 531 1472 646 1472 755 1472 
L 4218 1472 
z
" transform="scale(0.015625)"/>
        <path id="CMR17-30" d="M 2688 2025 
C 2688 2416 2682 3080 2413 3591 
C 2176 4039 1798 4198 1466 4198 
C 1158 4198 768 4058 525 3597 
C 269 3118 243 2524 243 2025 
C 243 1661 250 1106 448 619 
C 723 -39 1216 -128 1466 -128 
C 1760 -128 2208 -7 2470 600 
C 2662 1042 2688 1559 2688 2025 
z
M 1466 -26 
C 1056 -26 813 325 723 812 
C 653 1188 653 1738 653 2096 
C 653 2588 653 2997 736 3387 
C 858 3929 1216 4096 1466 4096 
C 1728 4096 2067 3923 2189 3400 
C 2272 3036 2278 2607 2278 2096 
C 2278 1680 2278 1169 2202 792 
C 2067 95 1690 -26 1466 -26 
z
" transform="scale(0.015625)"/>
        <path id="CMMI12-3a" d="M 1178 307 
C 1178 492 1024 619 870 619 
C 685 619 557 466 557 313 
C 557 128 710 0 864 0 
C 1050 0 1178 153 1178 307 
z
" transform="scale(0.015625)"/>
        <path id="CMR17-33" d="M 1414 2157 
C 1984 2157 2234 1662 2234 1090 
C 2234 320 1824 25 1453 25 
C 1114 25 563 194 390 693 
C 422 680 454 680 486 680 
C 640 680 755 782 755 948 
C 755 1133 614 1216 486 1216 
C 378 1216 211 1165 211 926 
C 211 335 787 -128 1466 -128 
C 2176 -128 2720 430 2720 1085 
C 2720 1707 2208 2157 1600 2227 
C 2086 2328 2554 2756 2554 3329 
C 2554 3820 2048 4179 1472 4179 
C 890 4179 378 3829 378 3329 
C 378 3110 544 3072 627 3072 
C 762 3072 877 3155 877 3321 
C 877 3486 762 3569 627 3569 
C 602 3569 570 3569 544 3557 
C 730 3959 1235 4032 1459 4032 
C 1683 4032 2106 3925 2106 3320 
C 2106 3143 2080 2828 1862 2550 
C 1670 2304 1453 2304 1242 2284 
C 1210 2284 1062 2269 1037 2269 
C 992 2263 966 2257 966 2208 
C 966 2163 973 2157 1101 2157 
L 1414 2157 
z
" transform="scale(0.015625)"/>
       </defs>
       <use xlink:href="#CMSY10-0" transform="scale(0.996264)"/>
       <use xlink:href="#CMR17-30" transform="translate(77.487468 0) scale(0.996264)"/>
       <use xlink:href="#CMMI12-3a" transform="translate(123.177945 0) scale(0.996264)"/>
       <use xlink:href="#CMR17-30" transform="translate(150.275122 0) scale(0.996264)"/>
       <use xlink:href="#CMR17-33" transform="translate(195.965599 0) scale(0.996264)"/>
      </g>
     </g>
    </g>
    <g id="xtick_2">
     <g id="line2d_3">
      <path d="M 114.544676 307.584 
L 114.544676 41.472 
" clip-path="url(#p5009ac62c8)" style="fill: none; stroke: #b0b0b0; stroke-width: 0.8; stroke-linecap: square"/>
     </g>
     <g id="line2d_4">
      <g>
       <use xlink:href="#m13a75d5493" x="114.544676" y="307.584" style="stroke: #000000; stroke-width: 0.8"/>
      </g>
     </g>
     <g id="text_2">
      <!-- $\mathdefault{−0.02}$ -->
      <g transform="translate(101.814597 321.502498) scale(0.1 -0.1)">
       <defs>
        <path id="CMR17-32" d="M 2669 989 
L 2554 989 
C 2490 536 2438 459 2413 420 
C 2381 369 1920 369 1830 369 
L 602 369 
C 832 619 1280 1072 1824 1597 
C 2214 1967 2669 2402 2669 3035 
C 2669 3790 2067 4224 1395 4224 
C 691 4224 262 3604 262 3030 
C 262 2780 448 2748 525 2748 
C 589 2748 781 2787 781 3010 
C 781 3207 614 3264 525 3264 
C 486 3264 448 3258 422 3245 
C 544 3790 915 4058 1306 4058 
C 1862 4058 2227 3617 2227 3035 
C 2227 2479 1901 2000 1536 1584 
L 262 146 
L 262 0 
L 2515 0 
L 2669 989 
z
" transform="scale(0.015625)"/>
       </defs>
       <use xlink:href="#CMSY10-0" transform="scale(0.996264)"/>
       <use xlink:href="#CMR17-30" transform="translate(77.487468 0) scale(0.996264)"/>
       <use xlink:href="#CMMI12-3a" transform="translate(123.177945 0) scale(0.996264)"/>
       <use xlink:href="#CMR17-30" transform="translate(150.275122 0) scale(0.996264)"/>
       <use xlink:href="#CMR17-32" transform="translate(195.965599 0) scale(0.996264)"/>
      </g>
     </g>
    </g>
    <g id="xtick_3">
     <g id="line2d_5">
      <path d="M 169.320147 307.584 
L 169.320147 41.472 
" clip-path="url(#p5009ac62c8)" style="fill: none; stroke: #b0b0b0; stroke-width: 0.8; stroke-linecap: square"/>
     </g>
     <g id="line2d_6">
      <g>
       <use xlink:href="#m13a75d5493" x="169.320147" y="307.584" style="stroke: #000000; stroke-width: 0.8"/>
      </g>
     </g>
     <g id="text_3">
      <!-- $\mathdefault{−0.01}$ -->
      <g transform="translate(156.590068 321.502498) scale(0.1 -0.1)">
       <defs>
        <path id="CMR17-31" d="M 1702 4058 
C 1702 4192 1696 4192 1606 4192 
C 1357 3916 979 3827 621 3827 
C 602 3827 570 3827 563 3808 
C 557 3795 557 3782 557 3648 
C 755 3648 1088 3686 1344 3839 
L 1344 461 
C 1344 236 1331 160 781 160 
L 589 160 
L 589 0 
C 896 0 1216 0 1523 0 
C 1830 0 2150 0 2458 0 
L 2458 160 
L 2266 160 
C 1715 160 1702 230 1702 458 
L 1702 4058 
z
" transform="scale(0.015625)"/>
       </defs>
       <use xlink:href="#CMSY10-0" transform="scale(0.996264)"/>
       <use xlink:href="#CMR17-30" transform="translate(77.487468 0) scale(0.996264)"/>
       <use xlink:href="#CMMI12-3a" transform="translate(123.177945 0) scale(0.996264)"/>
       <use xlink:href="#CMR17-30" transform="translate(150.275122 0) scale(0.996264)"/>
       <use xlink:href="#CMR17-31" transform="translate(195.965599 0) scale(0.996264)"/>
      </g>
     </g>
    </g>
    <g id="xtick_4">
     <g id="line2d_7">
      <path d="M 224.095617 307.584 
L 224.095617 41.472 
" clip-path="url(#p5009ac62c8)" style="fill: none; stroke: #b0b0b0; stroke-width: 0.8; stroke-linecap: square"/>
     </g>
     <g id="line2d_8">
      <g>
       <use xlink:href="#m13a75d5493" x="224.095617" y="307.584" style="stroke: #000000; stroke-width: 0.8"/>
      </g>
     </g>
     <g id="text_4">
      <!-- $\mathdefault{0.00}$ -->
      <g transform="translate(215.23991 321.502498) scale(0.1 -0.1)">
       <use xlink:href="#CMR17-30" transform="scale(0.996264)"/>
       <use xlink:href="#CMMI12-3a" transform="translate(45.690477 0) scale(0.996264)"/>
       <use xlink:href="#CMR17-30" transform="translate(72.787654 0) scale(0.996264)"/>
       <use xlink:href="#CMR17-30" transform="translate(118.478131 0) scale(0.996264)"/>
      </g>
     </g>
    </g>
    <g id="xtick_5">
     <g id="line2d_9">
      <path d="M 278.871088 307.584 
L 278.871088 41.472 
" clip-path="url(#p5009ac62c8)" style="fill: none; stroke: #b0b0b0; stroke-width: 0.8; stroke-linecap: square"/>
     </g>
     <g id="line2d_10">
      <g>
       <use xlink:href="#m13a75d5493" x="278.871088" y="307.584" style="stroke: #000000; stroke-width: 0.8"/>
      </g>
     </g>
     <g id="text_5">
      <!-- $\mathdefault{0.01}$ -->
      <g transform="translate(270.015381 321.502498) scale(0.1 -0.1)">
       <use xlink:href="#CMR17-30" transform="scale(0.996264)"/>
       <use xlink:href="#CMMI12-3a" transform="translate(45.690477 0) scale(0.996264)"/>
       <use xlink:href="#CMR17-30" transform="translate(72.787654 0) scale(0.996264)"/>
       <use xlink:href="#CMR17-31" transform="translate(118.478131 0) scale(0.996264)"/>
      </g>
     </g>
    </g>
    <g id="xtick_6">
     <g id="line2d_11">
      <path d="M 333.646559 307.584 
L 333.646559 41.472 
" clip-path="url(#p5009ac62c8)" style="fill: none; stroke: #b0b0b0; stroke-width: 0.8; stroke-linecap: square"/>
     </g>
     <g id="line2d_12">
      <g>
       <use xlink:href="#m13a75d5493" x="333.646559" y="307.584" style="stroke: #000000; stroke-width: 0.8"/>
      </g>
     </g>
     <g id="text_6">
      <!-- $\mathdefault{0.02}$ -->
      <g transform="translate(324.790852 321.502498) scale(0.1 -0.1)">
       <use xlink:href="#CMR17-30" transform="scale(0.996264)"/>
       <use xlink:href="#CMMI12-3a" transform="translate(45.690477 0) scale(0.996264)"/>
       <use xlink:href="#CMR17-30" transform="translate(72.787654 0) scale(0.996264)"/>
       <use xlink:href="#CMR17-32" transform="translate(118.478131 0) scale(0.996264)"/>
      </g>
     </g>
    </g>
    <g id="xtick_7">
     <g id="line2d_13">
      <path d="M 388.422029 307.584 
L 388.422029 41.472 
" clip-path="url(#p5009ac62c8)" style="fill: none; stroke: #b0b0b0; stroke-width: 0.8; stroke-linecap: square"/>
     </g>
     <g id="line2d_14">
      <g>
       <use xlink:href="#m13a75d5493" x="388.422029" y="307.584" style="stroke: #000000; stroke-width: 0.8"/>
      </g>
     </g>
     <g id="text_7">
      <!-- $\mathdefault{0.03}$ -->
      <g transform="translate(379.566322 321.502498) scale(0.1 -0.1)">
       <use xlink:href="#CMR17-30" transform="scale(0.996264)"/>
       <use xlink:href="#CMMI12-3a" transform="translate(45.690477 0) scale(0.996264)"/>
       <use xlink:href="#CMR17-30" transform="translate(72.787654 0) scale(0.996264)"/>
       <use xlink:href="#CMR17-33" transform="translate(118.478131 0) scale(0.996264)"/>
      </g>
     </g>
    </g>
    <g id="text_8">
     <!-- x [m] -->
     <g transform="translate(225.36713 334.911657) scale(0.1 -0.1)">
      <defs>
       <path id="CMSS17-78" d="M 1587 1414 
L 2656 2739 
L 2099 2739 
L 1363 1777 
L 602 2739 
L 32 2739 
L 1139 1414 
L 0 0 
L 563 0 
L 1363 1121 
L 2195 0 
L 2758 0 
L 1587 1414 
z
" transform="scale(0.015625)"/>
       <path id="CMSS17-5b" d="M 1613 -1600 
L 1613 -1212 
L 1062 -1212 
L 1062 4352 
L 1613 4352 
L 1613 4741 
L 595 4741 
L 595 -1600 
L 1613 -1600 
z
" transform="scale(0.015625)"/>
       <path id="CMSS17-6d" d="M 4288 1877 
C 4288 2308 4179 2816 3462 2816 
C 2982 2816 2694 2516 2566 2331 
C 2451 2670 2182 2816 1798 2816 
C 1363 2816 1088 2568 941 2389 
L 941 2758 
L 474 2758 
L 474 0 
L 960 0 
L 960 1559 
C 960 1939 1101 2428 1555 2428 
C 2138 2428 2138 2016 2138 1829 
L 2138 0 
L 2624 0 
L 2624 1559 
C 2624 1939 2765 2428 3219 2428 
C 3802 2428 3802 2016 3802 1829 
L 3802 0 
L 4288 0 
L 4288 1877 
z
" transform="scale(0.015625)"/>
       <path id="CMSS17-5d" d="M 1146 4741 
L 128 4741 
L 128 4352 
L 678 4352 
L 678 -1212 
L 128 -1212 
L 128 -1600 
L 1146 -1600 
L 1146 4741 
z
" transform="scale(0.015625)"/>
      </defs>
      <use xlink:href="#CMSS17-78" transform="scale(0.996264)"/>
      <use xlink:href="#CMSS17-5b" transform="translate(74.229254 0) scale(0.996264)"/>
      <use xlink:href="#CMSS17-6d" transform="translate(101.414693 0) scale(0.996264)"/>
      <use xlink:href="#CMSS17-5d" transform="translate(175.643948 0) scale(0.996264)"/>
     </g>
    </g>
   </g>
   <g id="matplotlib.axis_2">
    <g id="ytick_1">
     <g id="line2d_15">
      <path d="M 57.6 287.486294 
L 414.72 287.486294 
" clip-path="url(#p5009ac62c8)" style="fill: none; stroke: #b0b0b0; stroke-width: 0.8; stroke-linecap: square"/>
     </g>
     <g id="line2d_16">
      <defs>
       <path id="md90a887b41" d="M 0 0 
L -3.5 0 
" style="stroke: #000000; stroke-width: 0.8"/>
      </defs>
      <g>
       <use xlink:href="#md90a887b41" x="57.6" y="287.486294" style="stroke: #000000; stroke-width: 0.8"/>
      </g>
     </g>
     <g id="text_9">
      <!-- $\mathdefault{−0.015}$ -->
      <g transform="translate(20.158507 290.945543) scale(0.1 -0.1)">
       <defs>
        <path id="CMR17-35" d="M 730 3692 
C 794 3666 1056 3584 1325 3584 
C 1920 3584 2246 3911 2432 4100 
C 2432 4157 2432 4192 2394 4192 
C 2387 4192 2374 4192 2323 4163 
C 2099 4058 1837 3973 1517 3973 
C 1325 3973 1037 3999 723 4139 
C 653 4171 640 4171 634 4171 
C 602 4171 595 4164 595 4037 
L 595 2203 
C 595 2089 595 2057 659 2057 
C 691 2057 704 2070 736 2114 
C 941 2401 1222 2522 1542 2522 
C 1766 2522 2246 2382 2246 1289 
C 2246 1085 2246 715 2054 421 
C 1894 159 1645 25 1370 25 
C 947 25 518 320 403 814 
C 429 807 480 795 506 795 
C 589 795 749 840 749 1038 
C 749 1210 627 1280 506 1280 
C 358 1280 262 1190 262 1011 
C 262 454 704 -128 1382 -128 
C 2042 -128 2669 440 2669 1264 
C 2669 2030 2170 2624 1549 2624 
C 1222 2624 947 2503 730 2274 
L 730 3692 
z
" transform="scale(0.015625)"/>
       </defs>
       <use xlink:href="#CMSY10-0" transform="scale(0.996264)"/>
       <use xlink:href="#CMR17-30" transform="translate(77.487468 0) scale(0.996264)"/>
       <use xlink:href="#CMMI12-3a" transform="translate(123.177945 0) scale(0.996264)"/>
       <use xlink:href="#CMR17-30" transform="translate(150.275122 0) scale(0.996264)"/>
       <use xlink:href="#CMR17-31" transform="translate(195.965599 0) scale(0.996264)"/>
       <use xlink:href="#CMR17-35" transform="translate(241.656076 0) scale(0.996264)"/>
      </g>
     </g>
    </g>
    <g id="ytick_2">
     <g id="line2d_17">
      <path d="M 57.6 245.037247 
L 414.72 245.037247 
" clip-path="url(#p5009ac62c8)" style="fill: none; stroke: #b0b0b0; stroke-width: 0.8; stroke-linecap: square"/>
     </g>
     <g id="line2d_18">
      <g>
       <use xlink:href="#md90a887b41" x="57.6" y="245.037247" style="stroke: #000000; stroke-width: 0.8"/>
      </g>
     </g>
     <g id="text_10">
      <!-- $\mathdefault{−0.010}$ -->
      <g transform="translate(20.158507 248.496496) scale(0.1 -0.1)">
       <use xlink:href="#CMSY10-0" transform="scale(0.996264)"/>
       <use xlink:href="#CMR17-30" transform="translate(77.487468 0) scale(0.996264)"/>
       <use xlink:href="#CMMI12-3a" transform="translate(123.177945 0) scale(0.996264)"/>
       <use xlink:href="#CMR17-30" transform="translate(150.275122 0) scale(0.996264)"/>
       <use xlink:href="#CMR17-31" transform="translate(195.965599 0) scale(0.996264)"/>
       <use xlink:href="#CMR17-30" transform="translate(241.656076 0) scale(0.996264)"/>
      </g>
     </g>
    </g>
    <g id="ytick_3">
     <g id="line2d_19">
      <path d="M 57.6 202.5882 
L 414.72 202.5882 
" clip-path="url(#p5009ac62c8)" style="fill: none; stroke: #b0b0b0; stroke-width: 0.8; stroke-linecap: square"/>
     </g>
     <g id="line2d_20">
      <g>
       <use xlink:href="#md90a887b41" x="57.6" y="202.5882" style="stroke: #000000; stroke-width: 0.8"/>
      </g>
     </g>
     <g id="text_11">
      <!-- $\mathdefault{−0.005}$ -->
      <g transform="translate(20.158507 206.047449) scale(0.1 -0.1)">
       <use xlink:href="#CMSY10-0" transform="scale(0.996264)"/>
       <use xlink:href="#CMR17-30" transform="translate(77.487468 0) scale(0.996264)"/>
       <use xlink:href="#CMMI12-3a" transform="translate(123.177945 0) scale(0.996264)"/>
       <use xlink:href="#CMR17-30" transform="translate(150.275122 0) scale(0.996264)"/>
       <use xlink:href="#CMR17-30" transform="translate(195.965599 0) scale(0.996264)"/>
       <use xlink:href="#CMR17-35" transform="translate(241.656076 0) scale(0.996264)"/>
      </g>
     </g>
    </g>
    <g id="ytick_4">
     <g id="line2d_21">
      <path d="M 57.6 160.139153 
L 414.72 160.139153 
" clip-path="url(#p5009ac62c8)" style="fill: none; stroke: #b0b0b0; stroke-width: 0.8; stroke-linecap: square"/>
     </g>
     <g id="line2d_22">
      <g>
       <use xlink:href="#md90a887b41" x="57.6" y="160.139153" style="stroke: #000000; stroke-width: 0.8"/>
      </g>
     </g>
     <g id="text_12">
      <!-- $\mathdefault{0.000}$ -->
      <g transform="translate(27.907251 163.598402) scale(0.1 -0.1)">
       <use xlink:href="#CMR17-30" transform="scale(0.996264)"/>
       <use xlink:href="#CMMI12-3a" transform="translate(45.690477 0) scale(0.996264)"/>
       <use xlink:href="#CMR17-30" transform="translate(72.787654 0) scale(0.996264)"/>
       <use xlink:href="#CMR17-30" transform="translate(118.478131 0) scale(0.996264)"/>
       <use xlink:href="#CMR17-30" transform="translate(164.168608 0) scale(0.996264)"/>
      </g>
     </g>
    </g>
    <g id="ytick_5">
     <g id="line2d_23">
      <path d="M 57.6 117.690106 
L 414.72 117.690106 
" clip-path="url(#p5009ac62c8)" style="fill: none; stroke: #b0b0b0; stroke-width: 0.8; stroke-linecap: square"/>
     </g>
     <g id="line2d_24">
      <g>
       <use xlink:href="#md90a887b41" x="57.6" y="117.690106" style="stroke: #000000; stroke-width: 0.8"/>
      </g>
     </g>
     <g id="text_13">
      <!-- $\mathdefault{0.005}$ -->
      <g transform="translate(27.907251 121.149355) scale(0.1 -0.1)">
       <use xlink:href="#CMR17-30" transform="scale(0.996264)"/>
       <use xlink:href="#CMMI12-3a" transform="translate(45.690477 0) scale(0.996264)"/>
       <use xlink:href="#CMR17-30" transform="translate(72.787654 0) scale(0.996264)"/>
       <use xlink:href="#CMR17-30" transform="translate(118.478131 0) scale(0.996264)"/>
       <use xlink:href="#CMR17-35" transform="translate(164.168608 0) scale(0.996264)"/>
      </g>
     </g>
    </g>
    <g id="ytick_6">
     <g id="line2d_25">
      <path d="M 57.6 75.241059 
L 414.72 75.241059 
" clip-path="url(#p5009ac62c8)" style="fill: none; stroke: #b0b0b0; stroke-width: 0.8; stroke-linecap: square"/>
     </g>
     <g id="line2d_26">
      <g>
       <use xlink:href="#md90a887b41" x="57.6" y="75.241059" style="stroke: #000000; stroke-width: 0.8"/>
      </g>
     </g>
     <g id="text_14">
      <!-- $\mathdefault{0.010}$ -->
      <g transform="translate(27.907251 78.700309) scale(0.1 -0.1)">
       <use xlink:href="#CMR17-30" transform="scale(0.996264)"/>
       <use xlink:href="#CMMI12-3a" transform="translate(45.690477 0) scale(0.996264)"/>
       <use xlink:href="#CMR17-30" transform="translate(72.787654 0) scale(0.996264)"/>
       <use xlink:href="#CMR17-31" transform="translate(118.478131 0) scale(0.996264)"/>
       <use xlink:href="#CMR17-30" transform="translate(164.168608 0) scale(0.996264)"/>
      </g>
     </g>
    </g>
    <g id="text_15">
     <!-- y [m] -->
     <g transform="translate(13.667847 185.32087) rotate(-90) scale(0.1 -0.1)">
      <defs>
       <path id="CMSS17-79" d="M 2675 2752 
L 2176 2752 
C 1632 1294 1446 702 1434 383 
L 1427 383 
C 1408 696 1126 1460 902 2007 
L 602 2752 
L 83 2752 
L 1216 13 
C 1146 -178 1043 -465 1011 -529 
C 870 -885 774 -885 672 -885 
C 646 -885 442 -885 211 -809 
L 250 -1229 
C 410 -1261 570 -1280 685 -1280 
C 845 -1280 1165 -1280 1459 -497 
L 2675 2752 
z
" transform="scale(0.015625)"/>
      </defs>
      <use xlink:href="#CMSS17-79" transform="scale(0.996264)"/>
      <use xlink:href="#CMSS17-5b" transform="translate(74.229254 0) scale(0.996264)"/>
      <use xlink:href="#CMSS17-6d" transform="translate(101.414693 0) scale(0.996264)"/>
      <use xlink:href="#CMSS17-5d" transform="translate(175.643948 0) scale(0.996264)"/>
     </g>
    </g>
   </g>
   <g id="line2d_27">
    <path d="M 234.773078 162.86444 
L 235.619309 162.717803 
L 236.474066 162.75742 
L 237.323871 162.982667 
L 238.155321 163.389989 
L 238.955303 163.972965 
L 239.711202 164.722401 
L 240.411096 165.626476 
L 241.043948 166.670934 
L 241.599777 167.839302 
L 242.069817 169.113155 
L 242.446657 170.472403 
L 242.724351 171.895611 
L 242.898523 173.360333 
L 242.966423 174.84347 
L 242.926982 176.321631 
L 242.780822 177.771506 
L 242.530248 179.170229 
L 242.179211 180.495741 
L 241.733247 181.727139 
L 241.19939 182.845001 
L 240.586059 183.8317 
L 239.902926 184.671674 
L 239.160765 185.351675 
L 238.37128 185.860982 
L 237.546922 186.19156 
L 236.700691 186.338197 
L 235.845934 186.29858 
L 234.996129 186.073333 
L 234.164679 185.666011 
L 233.364697 185.083035 
L 232.608798 184.333599 
L 231.908904 183.429524 
L 231.276052 182.385066 
L 230.720223 181.216698 
L 230.250183 179.942845 
L 229.873343 178.583597 
L 229.595649 177.160389 
L 229.421477 175.695667 
L 229.353577 174.21253 
L 229.393018 172.734369 
L 229.539178 171.284494 
L 229.789752 169.885771 
L 230.140789 168.560259 
L 230.586753 167.328861 
L 231.12061 166.210999 
L 231.733941 165.2243 
L 232.417074 164.384326 
L 233.159235 163.704325 
L 233.94872 163.195018 
L 234.773078 162.86444 
" clip-path="url(#p5009ac62c8)" style="fill: none; stroke: #0000ff; stroke-width: 1.5; stroke-linecap: square"/>
   </g>
   <g id="line2d_28">
    <path d="M 94.330433 221.33838 
L 94.294292 212.566044 
L 96.495458 203.193825 
L 100.899217 193.369529 
L 107.436119 183.24809 
L 116.003074 172.989131 
L 126.464975 162.75444 
L 138.656832 152.705425 
L 152.386373 143.000566 
L 167.437074 133.792913 
L 183.571576 125.227676 
L 200.535429 117.439936 
L 218.061103 110.552508 
L 235.872207 104.674012 
L 253.68785 99.897154 
L 271.227069 96.29727 
L 288.213258 93.931132 
L 304.378537 92.836054 
L 319.467969 93.029306 
L 333.243584 94.507842 
L 345.488133 97.248344 
L 356.008512 101.207592 
L 364.638809 106.323146 
L 371.242918 112.514332 
L 375.716688 119.683511 
L 377.989567 127.71762 
L 378.025708 136.489956 
L 375.824542 145.862175 
L 371.420783 155.686471 
L 364.883881 165.80791 
L 356.316926 176.066869 
L 345.855025 186.30156 
L 333.663168 196.350575 
L 319.933627 206.055434 
L 304.882926 215.263087 
L 288.748424 223.828324 
L 271.784571 231.616064 
L 254.258897 238.503492 
L 236.447793 244.381988 
L 218.63215 249.158846 
L 201.092931 252.75873 
L 184.106742 255.124868 
L 167.941463 256.219946 
L 152.852031 256.026694 
L 139.076416 254.548158 
L 126.831867 251.807656 
L 116.311488 247.848408 
L 107.681191 242.732854 
L 101.077082 236.541668 
L 96.603312 229.372489 
L 94.330433 221.33838 
" clip-path="url(#p5009ac62c8)" style="fill: none; stroke: #008000; stroke-width: 1.5; stroke-linecap: square"/>
   </g>
   <g id="line2d_29">
    <defs>
     <path id="m5821fca340" d="M 0 1.5 
C 0.397805 1.5 0.77937 1.341951 1.06066 1.06066 
C 1.341951 0.77937 1.5 0.397805 1.5 0 
C 1.5 -0.397805 1.341951 -0.77937 1.06066 -1.06066 
C 0.77937 -1.341951 0.397805 -1.5 0 -1.5 
C -0.397805 -1.5 -0.77937 -1.341951 -1.06066 -1.06066 
C -1.341951 -0.77937 -1.5 -0.397805 -1.5 0 
C -1.5 0.397805 -1.341951 0.77937 -1.06066 1.06066 
C -0.77937 1.341951 -0.397805 1.5 0 1.5 
z
" style="stroke: #ff0000"/>
    </defs>
    <g clip-path="url(#p5009ac62c8)">
     <use xlink:href="#m5821fca340" x="219.503558" y="224.743908" style="fill: #ff0000; stroke: #ff0000"/>
     <use xlink:href="#m5821fca340" x="302.880609" y="176.226373" style="fill: #ff0000; stroke: #ff0000"/>
     <use xlink:href="#m5821fca340" x="257.25908" y="213.27134" style="fill: #ff0000; stroke: #ff0000"/>
     <use xlink:href="#m5821fca340" x="250.16413" y="183.670543" style="fill: #ff0000; stroke: #ff0000"/>
     <use xlink:href="#m5821fca340" x="288.832531" y="240.156118" style="fill: #ff0000; stroke: #ff0000"/>
     <use xlink:href="#m5821fca340" x="123.660602" y="175.028957" style="fill: #ff0000; stroke: #ff0000"/>
     <use xlink:href="#m5821fca340" x="366.666268" y="122.908483" style="fill: #ff0000; stroke: #ff0000"/>
     <use xlink:href="#m5821fca340" x="366.911578" y="134.90789" style="fill: #ff0000; stroke: #ff0000"/>
     <use xlink:href="#m5821fca340" x="250.525801" y="194.254077" style="fill: #ff0000; stroke: #ff0000"/>
     <use xlink:href="#m5821fca340" x="233.78933" y="151.273328" style="fill: #ff0000; stroke: #ff0000"/>
     <use xlink:href="#m5821fca340" x="207.978355" y="139.546581" style="fill: #ff0000; stroke: #ff0000"/>
     <use xlink:href="#m5821fca340" x="223.31787" y="183.650928" style="fill: #ff0000; stroke: #ff0000"/>
     <use xlink:href="#m5821fca340" x="282.778834" y="197.908882" style="fill: #ff0000; stroke: #ff0000"/>
     <use xlink:href="#m5821fca340" x="251.390103" y="143.161606" style="fill: #ff0000; stroke: #ff0000"/>
     <use xlink:href="#m5821fca340" x="255.969217" y="127.786838" style="fill: #ff0000; stroke: #ff0000"/>
     <use xlink:href="#m5821fca340" x="275.92175" y="148.182659" style="fill: #ff0000; stroke: #ff0000"/>
     <use xlink:href="#m5821fca340" x="129.522042" y="181.790957" style="fill: #ff0000; stroke: #ff0000"/>
     <use xlink:href="#m5821fca340" x="224.776338" y="242.737088" style="fill: #ff0000; stroke: #ff0000"/>
     <use xlink:href="#m5821fca340" x="191.162488" y="127.553116" style="fill: #ff0000; stroke: #ff0000"/>
     <use xlink:href="#m5821fca340" x="176.975809" y="192.705266" style="fill: #ff0000; stroke: #ff0000"/>
     <use xlink:href="#m5821fca340" x="307.047582" y="156.032569" style="fill: #ff0000; stroke: #ff0000"/>
     <use xlink:href="#m5821fca340" x="221.038204" y="157.740785" style="fill: #ff0000; stroke: #ff0000"/>
     <use xlink:href="#m5821fca340" x="293.352675" y="173.105176" style="fill: #ff0000; stroke: #ff0000"/>
     <use xlink:href="#m5821fca340" x="216.95324" y="182.3645" style="fill: #ff0000; stroke: #ff0000"/>
     <use xlink:href="#m5821fca340" x="224.602801" y="136.300443" style="fill: #ff0000; stroke: #ff0000"/>
     <use xlink:href="#m5821fca340" x="245.8301" y="198.064251" style="fill: #ff0000; stroke: #ff0000"/>
     <use xlink:href="#m5821fca340" x="270.799302" y="230.064701" style="fill: #ff0000; stroke: #ff0000"/>
     <use xlink:href="#m5821fca340" x="259.513671" y="96.216677" style="fill: #ff0000; stroke: #ff0000"/>
     <use xlink:href="#m5821fca340" x="310.344169" y="202.316397" style="fill: #ff0000; stroke: #ff0000"/>
     <use xlink:href="#m5821fca340" x="224.548236" y="190.330323" style="fill: #ff0000; stroke: #ff0000"/>
     <use xlink:href="#m5821fca340" x="297.640878" y="172.156116" style="fill: #ff0000; stroke: #ff0000"/>
     <use xlink:href="#m5821fca340" x="139.197791" y="210.719396" style="fill: #ff0000; stroke: #ff0000"/>
     <use xlink:href="#m5821fca340" x="227.627088" y="208.499785" style="fill: #ff0000; stroke: #ff0000"/>
     <use xlink:href="#m5821fca340" x="184.708108" y="212.56068" style="fill: #ff0000; stroke: #ff0000"/>
     <use xlink:href="#m5821fca340" x="279.871848" y="74.82739" style="fill: #ff0000; stroke: #ff0000"/>
     <use xlink:href="#m5821fca340" x="264.080343" y="116.203576" style="fill: #ff0000; stroke: #ff0000"/>
     <use xlink:href="#m5821fca340" x="200.086205" y="146.817241" style="fill: #ff0000; stroke: #ff0000"/>
     <use xlink:href="#m5821fca340" x="223.947481" y="187.410452" style="fill: #ff0000; stroke: #ff0000"/>
     <use xlink:href="#m5821fca340" x="194.057929" y="143.393895" style="fill: #ff0000; stroke: #ff0000"/>
     <use xlink:href="#m5821fca340" x="274.779213" y="141.300822" style="fill: #ff0000; stroke: #ff0000"/>
     <use xlink:href="#m5821fca340" x="267.444333" y="130.800389" style="fill: #ff0000; stroke: #ff0000"/>
     <use xlink:href="#m5821fca340" x="234.250894" y="164.720902" style="fill: #ff0000; stroke: #ff0000"/>
     <use xlink:href="#m5821fca340" x="245.240185" y="151.934892" style="fill: #ff0000; stroke: #ff0000"/>
     <use xlink:href="#m5821fca340" x="244.213781" y="180.146175" style="fill: #ff0000; stroke: #ff0000"/>
     <use xlink:href="#m5821fca340" x="191.685685" y="165.106559" style="fill: #ff0000; stroke: #ff0000"/>
     <use xlink:href="#m5821fca340" x="264.065575" y="113.267306" style="fill: #ff0000; stroke: #ff0000"/>
     <use xlink:href="#m5821fca340" x="180.05619" y="203.6004" style="fill: #ff0000; stroke: #ff0000"/>
     <use xlink:href="#m5821fca340" x="316.061053" y="124.09682" style="fill: #ff0000; stroke: #ff0000"/>
     <use xlink:href="#m5821fca340" x="89.250843" y="258.532207" style="fill: #ff0000; stroke: #ff0000"/>
     <use xlink:href="#m5821fca340" x="169.822834" y="224.95013" style="fill: #ff0000; stroke: #ff0000"/>
     <use xlink:href="#m5821fca340" x="197.778119" y="203.628703" style="fill: #ff0000; stroke: #ff0000"/>
     <use xlink:href="#m5821fca340" x="242.991947" y="241.273212" style="fill: #ff0000; stroke: #ff0000"/>
     <use xlink:href="#m5821fca340" x="228.967873" y="217.340848" style="fill: #ff0000; stroke: #ff0000"/>
     <use xlink:href="#m5821fca340" x="143.905637" y="244.054315" style="fill: #ff0000; stroke: #ff0000"/>
     <use xlink:href="#m5821fca340" x="177.470734" y="181.658517" style="fill: #ff0000; stroke: #ff0000"/>
     <use xlink:href="#m5821fca340" x="299.654172" y="99.593951" style="fill: #ff0000; stroke: #ff0000"/>
     <use xlink:href="#m5821fca340" x="177.755635" y="158.690192" style="fill: #ff0000; stroke: #ff0000"/>
     <use xlink:href="#m5821fca340" x="322.50094" y="144.688546" style="fill: #ff0000; stroke: #ff0000"/>
     <use xlink:href="#m5821fca340" x="254.158482" y="138.91974" style="fill: #ff0000; stroke: #ff0000"/>
     <use xlink:href="#m5821fca340" x="192.92403" y="195.146804" style="fill: #ff0000; stroke: #ff0000"/>
     <use xlink:href="#m5821fca340" x="297.045229" y="135.961084" style="fill: #ff0000; stroke: #ff0000"/>
     <use xlink:href="#m5821fca340" x="251.471455" y="158.112435" style="fill: #ff0000; stroke: #ff0000"/>
     <use xlink:href="#m5821fca340" x="183.086516" y="143.419609" style="fill: #ff0000; stroke: #ff0000"/>
     <use xlink:href="#m5821fca340" x="249.640315" y="184.103844" style="fill: #ff0000; stroke: #ff0000"/>
     <use xlink:href="#m5821fca340" x="199.399389" y="191.751305" style="fill: #ff0000; stroke: #ff0000"/>
     <use xlink:href="#m5821fca340" x="258.404753" y="144.094946" style="fill: #ff0000; stroke: #ff0000"/>
     <use xlink:href="#m5821fca340" x="177.109645" y="255.948178" style="fill: #ff0000; stroke: #ff0000"/>
     <use xlink:href="#m5821fca340" x="272.530256" y="162.173814" style="fill: #ff0000; stroke: #ff0000"/>
     <use xlink:href="#m5821fca340" x="288.046531" y="143.909533" style="fill: #ff0000; stroke: #ff0000"/>
     <use xlink:href="#m5821fca340" x="333.567936" y="105.57803" style="fill: #ff0000; stroke: #ff0000"/>
     <use xlink:href="#m5821fca340" x="229.396652" y="202.764411" style="fill: #ff0000; stroke: #ff0000"/>
     <use xlink:href="#m5821fca340" x="190.535746" y="255.677983" style="fill: #ff0000; stroke: #ff0000"/>
     <use xlink:href="#m5821fca340" x="269.4127" y="132.351264" style="fill: #ff0000; stroke: #ff0000"/>
     <use xlink:href="#m5821fca340" x="186.802622" y="161.651415" style="fill: #ff0000; stroke: #ff0000"/>
     <use xlink:href="#m5821fca340" x="208.506442" y="177.831196" style="fill: #ff0000; stroke: #ff0000"/>
     <use xlink:href="#m5821fca340" x="242.591692" y="180.908988" style="fill: #ff0000; stroke: #ff0000"/>
     <use xlink:href="#m5821fca340" x="266.380782" y="194.071559" style="fill: #ff0000; stroke: #ff0000"/>
     <use xlink:href="#m5821fca340" x="156.731805" y="161.392926" style="fill: #ff0000; stroke: #ff0000"/>
     <use xlink:href="#m5821fca340" x="190.611202" y="205.445199" style="fill: #ff0000; stroke: #ff0000"/>
     <use xlink:href="#m5821fca340" x="251.19865" y="104.186501" style="fill: #ff0000; stroke: #ff0000"/>
     <use xlink:href="#m5821fca340" x="229.235825" y="158.740033" style="fill: #ff0000; stroke: #ff0000"/>
     <use xlink:href="#m5821fca340" x="271.15949" y="195.058245" style="fill: #ff0000; stroke: #ff0000"/>
     <use xlink:href="#m5821fca340" x="92.3863" y="141.666982" style="fill: #ff0000; stroke: #ff0000"/>
     <use xlink:href="#m5821fca340" x="308.610666" y="226.922352" style="fill: #ff0000; stroke: #ff0000"/>
     <use xlink:href="#m5821fca340" x="235.957851" y="160.937861" style="fill: #ff0000; stroke: #ff0000"/>
     <use xlink:href="#m5821fca340" x="221.129599" y="93.049019" style="fill: #ff0000; stroke: #ff0000"/>
     <use xlink:href="#m5821fca340" x="255.116349" y="218.542814" style="fill: #ff0000; stroke: #ff0000"/>
     <use xlink:href="#m5821fca340" x="172.262306" y="213.608257" style="fill: #ff0000; stroke: #ff0000"/>
     <use xlink:href="#m5821fca340" x="246.663506" y="185.876598" style="fill: #ff0000; stroke: #ff0000"/>
     <use xlink:href="#m5821fca340" x="244.350997" y="218.564627" style="fill: #ff0000; stroke: #ff0000"/>
     <use xlink:href="#m5821fca340" x="254.106417" y="212.940758" style="fill: #ff0000; stroke: #ff0000"/>
     <use xlink:href="#m5821fca340" x="238.908926" y="156.606044" style="fill: #ff0000; stroke: #ff0000"/>
     <use xlink:href="#m5821fca340" x="281.730147" y="168.222525" style="fill: #ff0000; stroke: #ff0000"/>
     <use xlink:href="#m5821fca340" x="270.802081" y="104.369375" style="fill: #ff0000; stroke: #ff0000"/>
     <use xlink:href="#m5821fca340" x="152.462823" y="154.089206" style="fill: #ff0000; stroke: #ff0000"/>
     <use xlink:href="#m5821fca340" x="282.94918" y="197.095413" style="fill: #ff0000; stroke: #ff0000"/>
     <use xlink:href="#m5821fca340" x="186.858926" y="216.487699" style="fill: #ff0000; stroke: #ff0000"/>
     <use xlink:href="#m5821fca340" x="177.226175" y="179.02319" style="fill: #ff0000; stroke: #ff0000"/>
     <use xlink:href="#m5821fca340" x="213.213242" y="190.401689" style="fill: #ff0000; stroke: #ff0000"/>
     <use xlink:href="#m5821fca340" x="269.182197" y="145.840521" style="fill: #ff0000; stroke: #ff0000"/>
    </g>
   </g>
   <g id="line2d_30">
    <path d="M 74.351785 225.213534 
L 73.832727 211.048238 
L 75.873667 196.306996 
L 80.442419 181.222287 
L 87.466929 166.032004 
L 96.836418 150.975709 
L 108.403124 136.290847 
L 121.984631 122.209008 
L 137.366752 108.95227 
L 154.306902 96.729701 
L 172.537924 85.734058 
L 191.772305 76.138748 
L 211.706705 68.095096 
L 232.026749 61.729954 
L 252.411977 57.143704 
L 272.540901 54.408675 
L 292.096076 53.568 
L 310.769107 54.634936 
L 328.265507 57.592657 
L 344.309348 62.394519 
L 358.64761 68.964792 
L 371.054168 77.19986 
L 381.333365 86.969852 
L 389.323092 98.120687 
L 394.897345 110.476512 
L 397.968215 123.842466 
L 398.487273 138.007762 
L 396.446333 152.749004 
L 391.877581 167.833713 
L 384.853071 183.023996 
L 375.483582 198.080291 
L 363.916876 212.765153 
L 350.335369 226.846992 
L 334.953248 240.10373 
L 318.013098 252.326299 
L 299.782076 263.321942 
L 280.547695 272.917252 
L 260.613295 280.960904 
L 240.293251 287.326046 
L 219.908023 291.912296 
L 199.779099 294.647325 
L 180.223924 295.488 
L 161.550893 294.421064 
L 144.054493 291.463343 
L 128.010652 286.661481 
L 113.67239 280.091208 
L 101.265832 271.85614 
L 90.986635 262.086148 
L 82.996908 250.935313 
L 77.422655 238.579488 
L 74.351785 225.213534 
" clip-path="url(#p5009ac62c8)" style="fill: none; stroke: #ff0000; stroke-width: 1.5; stroke-linecap: square"/>
   </g>
   <g id="patch_6">
    <path d="M 57.6 307.584 
L 57.6 41.472 
" style="fill: none; stroke: #000000; stroke-width: 0.8; stroke-linejoin: miter; stroke-linecap: square"/>
   </g>
   <g id="patch_7">
    <path d="M 414.72 307.584 
L 414.72 41.472 
" style="fill: none; stroke: #000000; stroke-width: 0.8; stroke-linejoin: miter; stroke-linecap: square"/>
   </g>
   <g id="patch_8">
    <path d="M 57.6 307.584 
L 414.72 307.584 
" style="fill: none; stroke: #000000; stroke-width: 0.8; stroke-linejoin: miter; stroke-linecap: square"/>
   </g>
   <g id="patch_9">
    <path d="M 57.6 41.472 
L 414.72 41.472 
" style="fill: none; stroke: #000000; stroke-width: 0.8; stroke-linejoin: miter; stroke-linecap: square"/>
   </g>
   <g id="legend_1">
    <g id="patch_10">
     <path d="M 64.6 105.220713 
L 173.357417 105.220713 
Q 175.357417 105.220713 175.357417 103.220713 
L 175.357417 48.472 
Q 175.357417 46.472 173.357417 46.472 
L 64.6 46.472 
Q 62.6 46.472 62.6 48.472 
L 62.6 103.220713 
Q 62.6 105.220713 64.6 105.220713 
z
" style="fill: #ffffff; opacity: 0.8; stroke: #cccccc; stroke-linejoin: miter"/>
    </g>
    <g id="line2d_31">
     <path d="M 66.6 53.972 
L 76.6 53.972 
L 86.6 53.972 
" style="fill: none; stroke: #0000ff; stroke-width: 1.5; stroke-linecap: square"/>
    </g>
    <g id="text_16">
     <!-- Censi's cov $3\sigma$. -->
     <g transform="translate(94.6 57.472) scale(0.1 -0.1)">
      <defs>
       <path id="CMSS17-43" d="M 3501 714 
C 3072 427 2874 344 2355 344 
C 1459 344 934 1303 934 2179 
C 934 3112 1472 4032 2381 4032 
C 2790 4032 3059 3918 3386 3715 
L 3475 4217 
C 3168 4370 2778 4440 2387 4440 
C 1158 4440 397 3316 397 2179 
C 397 927 1299 -64 2323 -64 
C 2874 -64 3066 -19 3539 280 
L 3501 714 
z
" transform="scale(0.015625)"/>
       <path id="CMSS17-65" d="M 2502 1377 
C 2502 1590 2490 2003 2285 2345 
C 2061 2713 1696 2816 1421 2816 
C 755 2816 192 2188 192 1375 
C 192 582 774 -64 1510 -64 
C 1798 -64 2150 19 2470 248 
C 2470 274 2458 414 2451 420 
C 2451 433 2432 630 2432 656 
C 2125 407 1773 325 1517 325 
C 1107 325 666 667 646 1377 
L 2502 1377 
z
M 698 1728 
C 781 2084 1062 2421 1421 2421 
C 1517 2421 1965 2421 2080 1728 
L 698 1728 
z
" transform="scale(0.015625)"/>
       <path id="CMSS17-6e" d="M 2618 1877 
C 2618 2283 2522 2816 1798 2816 
C 1389 2816 1120 2606 941 2389 
L 941 2758 
L 474 2758 
L 474 0 
L 960 0 
L 960 1559 
C 960 1964 1114 2428 1549 2428 
C 2112 2428 2131 2048 2131 1829 
L 2131 0 
L 2618 0 
L 2618 1877 
z
" transform="scale(0.015625)"/>
       <path id="CMSS17-73" d="M 2061 2627 
C 1683 2807 1389 2807 1197 2807 
C 742 2807 198 2648 198 2003 
C 198 1359 902 1218 1094 1179 
C 1389 1122 1715 1058 1715 740 
C 1715 337 1254 337 1171 337 
C 915 337 563 407 243 638 
L 166 210 
C 531 0 883 -64 1178 -64 
C 1965 -64 2163 416 2163 781 
C 2163 1094 1984 1305 1862 1401 
C 1651 1568 1574 1587 1050 1696 
C 960 1709 646 1779 646 2066 
C 646 2432 1050 2432 1139 2432 
C 1555 2432 1811 2303 1984 2208 
L 2061 2627 
z
" transform="scale(0.015625)"/>
       <path id="CMSS17-69" d="M 979 4183 
L 442 4183 
L 442 3648 
L 979 3648 
L 979 4183 
z
M 947 2739 
L 474 2739 
L 474 0 
L 947 0 
L 947 2739 
z
" transform="scale(0.015625)"/>
       <path id="CMSS17-27" d="M 1088 3910 
L 1088 4413 
L 576 4413 
L 576 3904 
L 736 3904 
L 570 3104 
L 826 3104 
L 1088 3910 
z
" transform="scale(0.015625)"/>
       <path id="CMSS17-63" d="M 2464 2541 
C 2464 2585 2170 2714 2093 2739 
C 1882 2816 1613 2816 1542 2816 
C 710 2816 211 2093 211 1363 
C 211 595 768 -64 1517 -64 
C 1946 -64 2253 76 2502 242 
L 2464 664 
C 2189 453 1869 337 1523 337 
C 1024 337 698 774 698 1369 
C 698 1831 909 2414 1549 2414 
C 1901 2414 2099 2343 2394 2145 
L 2464 2541 
z
" transform="scale(0.015625)"/>
       <path id="CMSS17-6f" d="M 2829 1356 
C 2829 2176 2221 2816 1504 2816 
C 768 2816 173 2157 173 1356 
C 173 544 787 -64 1498 -64 
C 2227 -64 2829 563 2829 1356 
z
M 1504 337 
C 1050 337 659 709 659 1408 
C 659 2151 1114 2427 1498 2427 
C 1914 2427 2342 2126 2342 1408 
C 2342 683 1926 337 1504 337 
z
" transform="scale(0.015625)"/>
       <path id="CMSS17-76" d="M 2675 2752 
L 2176 2752 
L 1747 1556 
C 1613 1165 1421 627 1389 352 
L 1382 352 
C 1370 468 1318 634 1286 749 
C 1248 890 1197 1056 1158 1172 
L 595 2752 
L 83 2752 
L 1094 0 
L 1664 0 
L 2675 2752 
z
" transform="scale(0.015625)"/>
       <path id="CMMI12-1b" d="M 3251 2408 
C 3334 2408 3546 2408 3546 2612 
C 3546 2752 3424 2752 3309 2752 
L 1894 2752 
C 934 2752 243 1686 243 932 
C 243 390 595 -64 1171 -64 
C 1926 -64 2752 747 2752 1705 
C 2752 1954 2694 2196 2541 2408 
L 3251 2408 
z
M 1178 64 
C 851 64 614 313 614 754 
C 614 1137 845 2408 1786 2408 
C 2061 2408 2368 2274 2368 1781 
C 2368 1558 2266 1021 2042 652 
C 1811 275 1466 64 1178 64 
z
" transform="scale(0.015625)"/>
       <path id="CMSS17-2e" d="M 1088 510 
L 576 510 
L 576 0 
L 1088 0 
L 1088 510 
z
" transform="scale(0.015625)"/>
      </defs>
      <use xlink:href="#CMSS17-43" transform="scale(0.996264)"/>
      <use xlink:href="#CMSS17-65" transform="translate(59.855772 0) scale(0.996264)"/>
      <use xlink:href="#CMSS17-6e" transform="translate(101.494594 0) scale(0.996264)"/>
      <use xlink:href="#CMSS17-73" transform="translate(149.699537 0) scale(0.996264)"/>
      <use xlink:href="#CMSS17-69" transform="translate(185.613079 0) scale(0.996264)"/>
      <use xlink:href="#CMSS17-27" transform="translate(207.793802 0) scale(0.996264)"/>
      <use xlink:href="#CMSS17-73" transform="translate(233.818007 0) scale(0.996264)"/>
      <use xlink:href="#CMSS17-63" transform="translate(300.960661 0) scale(0.996264)"/>
      <use xlink:href="#CMSS17-6f" transform="translate(342.599484 0) scale(0.996264)"/>
      <use xlink:href="#CMSS17-76" transform="translate(389.443107 0) scale(0.996264)"/>
      <use xlink:href="#CMR17-33" transform="translate(463.672361 0) scale(0.996264)"/>
      <use xlink:href="#CMMI12-1b" transform="translate(509.362839 0) scale(0.996264)"/>
      <use xlink:href="#CMSS17-2e" transform="translate(568.382892 0) scale(0.996264)"/>
     </g>
    </g>
    <g id="line2d_32">
     <path d="M 66.6 67.909178 
L 76.6 67.909178 
L 86.6 67.909178 
" style="fill: none; stroke: #008000; stroke-width: 1.5; stroke-linecap: square"/>
    </g>
    <g id="text_17">
     <!-- Brossard's cov $3\sigma$. -->
     <g transform="translate(94.6 71.409178) scale(0.1 -0.1)">
      <defs>
       <path id="CMSS17-42" d="M 570 4416 
L 570 0 
L 2163 0 
C 3034 0 3667 574 3667 1200 
C 3667 1685 3251 2176 2502 2317 
C 3334 2558 3501 3040 3501 3313 
C 3501 3883 2874 4416 1997 4416 
L 570 4416 
z
M 1088 2496 
L 1088 4059 
L 1824 4059 
C 2483 4059 3002 3724 3002 3306 
C 3002 2926 2592 2496 1766 2496 
L 1088 2496 
z
M 1088 357 
L 1088 2107 
L 1939 2107 
C 2630 2107 3162 1679 3162 1206 
C 3162 772 2694 357 1984 357 
L 1088 357 
z
" transform="scale(0.015625)"/>
       <path id="CMSS17-72" d="M 954 1363 
C 954 1965 1395 2368 1958 2368 
L 1958 2789 
C 1549 2789 1165 2585 934 2253 
L 934 2758 
L 480 2758 
L 480 0 
L 954 0 
L 954 1363 
z
" transform="scale(0.015625)"/>
       <path id="CMSS17-61" d="M 2406 1791 
C 2406 2392 1978 2808 1402 2808 
C 1120 2808 813 2757 461 2553 
L 499 2135 
C 659 2248 934 2432 1395 2432 
C 1722 2432 1920 2180 1920 1782 
L 1920 1536 
C 896 1536 256 1238 256 726 
C 256 461 416 -64 947 -64 
C 1043 -64 1562 -64 1933 217 
L 1933 -19 
L 2406 -19 
L 2406 1791 
z
M 1920 816 
C 1920 701 1920 548 1728 434 
C 1562 325 1350 325 1261 325 
C 941 325 723 511 723 744 
C 723 1211 1722 1211 1920 1211 
L 1920 816 
z
" transform="scale(0.015625)"/>
       <path id="CMSS17-64" d="M 2611 4416 
L 2138 4416 
L 2138 2438 
C 1939 2603 1613 2756 1254 2756 
C 672 2756 211 2131 211 1347 
C 211 562 666 -64 1235 -64 
C 1677 -64 1971 172 2125 306 
L 2125 -13 
L 2611 -13 
L 2611 4416 
z
M 2125 836 
C 2125 747 2125 653 1926 482 
C 1798 375 1645 325 1498 325 
C 1152 325 698 576 698 1340 
C 698 2134 1210 2368 1562 2368 
C 1798 2368 1990 2254 2125 2065 
L 2125 836 
z
" transform="scale(0.015625)"/>
      </defs>
      <use xlink:href="#CMSS17-42" transform="scale(0.996264)"/>
      <use xlink:href="#CMSS17-72" transform="translate(62.33804 0) scale(0.996264)"/>
      <use xlink:href="#CMSS17-6f" transform="translate(94.247813 0) scale(0.996264)"/>
      <use xlink:href="#CMSS17-73" transform="translate(141.091436 0) scale(0.996264)"/>
      <use xlink:href="#CMSS17-73" transform="translate(177.004978 0) scale(0.996264)"/>
      <use xlink:href="#CMSS17-61" transform="translate(212.91852 0) scale(0.996264)"/>
      <use xlink:href="#CMSS17-72" transform="translate(255.237987 0) scale(0.996264)"/>
      <use xlink:href="#CMSS17-64" transform="translate(287.14776 0) scale(0.996264)"/>
      <use xlink:href="#CMSS17-27" transform="translate(335.352703 0) scale(0.996264)"/>
      <use xlink:href="#CMSS17-73" transform="translate(361.376908 0) scale(0.996264)"/>
      <use xlink:href="#CMSS17-63" transform="translate(428.519562 0) scale(0.996264)"/>
      <use xlink:href="#CMSS17-6f" transform="translate(470.158384 0) scale(0.996264)"/>
      <use xlink:href="#CMSS17-76" transform="translate(517.002008 0) scale(0.996264)"/>
      <use xlink:href="#CMR17-33" transform="translate(591.231262 0) scale(0.996264)"/>
      <use xlink:href="#CMMI12-1b" transform="translate(636.921739 0) scale(0.996264)"/>
      <use xlink:href="#CMSS17-2e" transform="translate(695.941793 0) scale(0.996264)"/>
     </g>
    </g>
    <g id="line2d_33">
     <g>
      <use xlink:href="#m5821fca340" x="76.6" y="81.846357" style="fill: #ff0000; stroke: #ff0000"/>
     </g>
    </g>
    <g id="text_18">
     <!-- Samples. -->
     <g transform="translate(94.6 85.346357) scale(0.1 -0.1)">
      <defs>
       <path id="CMSS17-53" d="M 2797 4169 
C 2515 4334 2208 4480 1690 4480 
C 864 4480 333 3879 333 3266 
C 333 3025 403 2753 653 2475 
C 902 2196 1184 2121 1542 2033 
C 1690 1994 1939 1924 1984 1906 
C 2342 1767 2515 1444 2515 1140 
C 2515 742 2202 318 1645 318 
C 1453 318 890 318 358 819 
L 269 318 
C 794 -64 1363 -128 1651 -128 
C 2438 -128 3002 488 3002 1186 
C 3002 1440 2925 1763 2656 2061 
C 2394 2347 2163 2410 1638 2549 
C 1338 2626 1146 2677 986 2873 
C 877 3013 819 3146 819 3317 
C 819 3673 1126 4060 1690 4060 
C 1971 4060 2336 4002 2707 3660 
L 2797 4169 
z
" transform="scale(0.015625)"/>
       <path id="CMSS17-70" d="M 966 333 
C 1178 129 1466 -5 1773 -5 
C 2368 -5 2880 603 2880 1412 
C 2880 2159 2496 2816 1946 2816 
C 1626 2816 1242 2702 954 2472 
L 954 2765 
L 480 2765 
L 480 -1216 
L 966 -1216 
L 966 333 
z
M 966 2100 
C 1018 2176 1235 2415 1587 2415 
C 2035 2415 2394 1960 2394 1412 
C 2394 787 1958 384 1530 384 
C 1402 384 1267 415 1139 523 
C 966 674 966 768 966 857 
L 966 2100 
z
" transform="scale(0.015625)"/>
       <path id="CMSS17-6c" d="M 947 4416 
L 474 4416 
L 474 0 
L 947 0 
L 947 4416 
z
" transform="scale(0.015625)"/>
      </defs>
      <use xlink:href="#CMSS17-53" transform="scale(0.996264)"/>
      <use xlink:href="#CMSS17-61" transform="translate(52.048516 0) scale(0.996264)"/>
      <use xlink:href="#CMSS17-6d" transform="translate(96.970437 0) scale(0.996264)"/>
      <use xlink:href="#CMSS17-70" transform="translate(171.199691 0) scale(0.996264)"/>
      <use xlink:href="#CMSS17-6c" transform="translate(219.404634 0) scale(0.996264)"/>
      <use xlink:href="#CMSS17-65" transform="translate(241.585357 0) scale(0.996264)"/>
      <use xlink:href="#CMSS17-73" transform="translate(283.224179 0) scale(0.996264)"/>
      <use xlink:href="#CMSS17-2e" transform="translate(319.137721 0) scale(0.996264)"/>
     </g>
    </g>
    <g id="line2d_34">
     <path d="M 66.6 95.783535 
L 76.6 95.783535 
L 86.6 95.783535 
" style="fill: none; stroke: #ff0000; stroke-width: 1.5; stroke-linecap: square"/>
    </g>
    <g id="text_19">
     <!-- Sample cov $3\sigma$. -->
     <g transform="translate(94.6 99.283535) scale(0.1 -0.1)">
      <use xlink:href="#CMSS17-53" transform="scale(0.996264)"/>
      <use xlink:href="#CMSS17-61" transform="translate(52.048516 0) scale(0.996264)"/>
      <use xlink:href="#CMSS17-6d" transform="translate(96.970437 0) scale(0.996264)"/>
      <use xlink:href="#CMSS17-70" transform="translate(171.199691 0) scale(0.996264)"/>
      <use xlink:href="#CMSS17-6c" transform="translate(219.404634 0) scale(0.996264)"/>
      <use xlink:href="#CMSS17-65" transform="translate(241.585357 0) scale(0.996264)"/>
      <use xlink:href="#CMSS17-63" transform="translate(314.453292 0) scale(0.996264)"/>
      <use xlink:href="#CMSS17-6f" transform="translate(356.092114 0) scale(0.996264)"/>
      <use xlink:href="#CMSS17-76" transform="translate(402.935738 0) scale(0.996264)"/>
      <use xlink:href="#CMR17-33" transform="translate(477.164992 0) scale(0.996264)"/>
      <use xlink:href="#CMMI12-1b" transform="translate(522.855469 0) scale(0.996264)"/>
      <use xlink:href="#CMSS17-2e" transform="translate(581.875523 0) scale(0.996264)"/>
     </g>
    </g>
   </g>
  </g>
 </g>
 <defs>
  <clipPath id="p5009ac62c8">
   <rect x="57.6" y="41.472" width="357.12" height="266.112"/>
  </clipPath>
 </defs>
</svg>
