<?xml version="1.0" encoding="utf-8" standalone="no"?>
<!DOCTYPE svg PUBLIC "-//W3C//DTD SVG 1.1//EN"
  "http://www.w3.org/Graphics/SVG/1.1/DTD/svg11.dtd">
<svg xmlns:xlink="http://www.w3.org/1999/xlink" width="460.8pt" height="345.6pt" viewBox="0 0 460.8 345.6" xmlns="http://www.w3.org/2000/svg" version="1.1">
 <metadata>
  <rdf:RDF xmlns:dc="http://purl.org/dc/elements/1.1/" xmlns:cc="http://creativecommons.org/ns#" xmlns:rdf="http://www.w3.org/1999/02/22-rdf-syntax-ns#">
   <cc:Work>
    <dc:type rdf:resource="http://purl.org/dc/dcmitype/StillImage"/>
    <dc:date>2022-12-17T15:06:11.684448</dc:date>
    <dc:format>image/svg+xml</dc:format>
    <dc:creator>
     <cc:Agent>
      <dc:title>Matplotlib v3.6.0, https://matplotlib.org/</dc:title>
     </cc:Agent>
    </dc:creator>
   </cc:Work>
  </rdf:RDF>
 </metadata>
 <defs>
  <style type="text/css">*{stroke-linejoin: round; stroke-linecap: butt}</style>
 </defs>
 <g id="figure_1">
  <g id="patch_1">
   <path d="M 0 345.6 
L 460.8 345.6 
L 460.8 0 
L 0 0 
z
" style="fill: #ffffff"/>
  </g>
  <g id="axes_1">
   <g id="patch_2">
    <path d="M 57.6 307.584 
L 414.72 307.584 
L 414.72 41.472 
L 57.6 41.472 
z
" style="fill: #ffffff"/>
   </g>
   <g id="patch_3">
    <path d="M 222.111903 167.011917 
L 222.781887 166.402481 
L 223.658149 165.921188 
L 224.726871 165.57563 
L 225.971199 165.371257 
L 227.371509 165.31129 
L 228.905717 165.396677 
L 230.549627 165.62607 
L 232.277314 165.995852 
L 234.061532 166.500191 
L 235.874143 167.131133 
L 237.686559 167.878729 
L 239.470199 168.731187 
L 241.196934 169.675064 
L 242.839531 170.695475 
L 244.372087 171.776328 
L 245.770431 172.900576 
L 247.012511 174.050489 
L 248.078739 175.207933 
L 248.952299 176.354654 
L 249.619416 177.472568 
L 250.069567 178.544044 
L 250.295655 179.552184 
L 250.294113 180.481091 
L 250.064967 181.316113 
L 249.611828 182.044083 
L 248.941845 182.653519 
L 248.065582 183.134812 
L 246.99686 183.48037 
L 245.752532 183.684743 
L 244.352222 183.74471 
L 242.818015 183.659323 
L 241.174105 183.42993 
L 239.446417 183.060148 
L 237.662199 182.555809 
L 235.849589 181.924867 
L 234.037172 181.177271 
L 232.253532 180.324813 
L 230.526797 179.380936 
L 228.8842 178.360525 
L 227.351645 177.279672 
L 225.9533 176.155424 
L 224.71122 175.005511 
L 223.644993 173.848067 
L 222.771432 172.701346 
L 222.104316 171.583432 
L 221.654164 170.511956 
L 221.428076 169.503816 
L 221.429618 168.574909 
L 221.658765 167.739887 
L 222.111903 167.011917 
L 222.111903 167.011917 
z
" clip-path="url(#p6f51cbb9c7)" style="fill: none; opacity: 0"/>
   </g>
   <g id="patch_4">
    <path d="M 95.881442 84.274763 
L 105.033401 76.861344 
L 116.248602 70.988186 
L 129.350176 66.747912 
L 144.131503 64.207395 
L 160.359472 63.4067 
L 177.77816 64.358454 
L 196.112862 67.047648 
L 215.074429 71.431871 
L 234.363827 77.441982 
L 253.67685 84.983197 
L 272.70892 93.936587 
L 291.15989 104.160952 
L 308.738777 115.495047 
L 325.168352 127.760127 
L 340.18951 140.762765 
L 353.565358 154.2979 
L 365.084953 168.152076 
L 374.566622 182.106804 
L 381.860834 195.94201 
L 386.852555 209.439505 
L 389.463063 222.386424 
L 389.651188 234.578587 
L 387.413964 245.823716 
L 382.786673 255.94447 
L 375.842289 264.781237 
L 366.690331 272.194656 
L 355.47513 278.067814 
L 342.373556 282.308088 
L 327.592229 284.848605 
L 311.364259 285.6493 
L 293.945572 284.697546 
L 275.61087 282.008352 
L 256.649302 277.624129 
L 237.359904 271.614018 
L 218.046881 264.072803 
L 199.014811 255.119413 
L 180.563841 244.895048 
L 162.984954 233.560953 
L 146.55538 221.295873 
L 131.534222 208.293235 
L 118.158373 194.7581 
L 106.638779 180.903924 
L 97.15711 166.949196 
L 89.862897 153.11399 
L 84.871176 139.616495 
L 82.260668 126.669576 
L 82.072543 114.477413 
L 84.309767 103.232284 
L 88.937059 93.11153 
L 95.881442 84.274763 
L 95.881442 84.274763 
z
" clip-path="url(#p6f51cbb9c7)" style="fill: none; opacity: 0"/>
   </g>
   <g id="patch_5">
    <path d="M 87.20048 69.138838 
L 96.478246 62.527513 
L 107.954174 57.682503 
L 121.447283 54.680216 
L 136.744779 53.568 
L 153.60541 54.363396 
L 171.763275 57.053859 
L 190.932012 61.596959 
L 210.80932 67.92105 
L 231.081722 75.926396 
L 251.42951 85.486748 
L 271.531786 96.451334 
L 291.071527 108.647235 
L 309.740578 121.882116 
L 327.244518 135.947253 
L 343.307299 150.620832 
L 357.675601 165.671441 
L 370.122828 180.861724 
L 380.452679 195.95212 
L 388.502246 210.704645 
L 394.144584 224.886642 
L 397.290709 238.274454 
L 397.891004 250.656945 
L 395.936003 261.838838 
L 391.456538 271.643787 
L 384.523251 279.917162 
L 375.245485 286.528487 
L 363.769557 291.373497 
L 350.276448 294.375784 
L 334.978952 295.488 
L 318.118321 294.692604 
L 299.960457 292.002141 
L 280.791719 287.459041 
L 260.914411 281.13495 
L 240.642009 273.129604 
L 220.294222 263.569252 
L 200.191945 252.604666 
L 180.652205 240.408765 
L 161.983153 227.173884 
L 144.479214 213.108747 
L 128.416433 198.435168 
L 114.048131 183.384559 
L 101.600904 168.194276 
L 91.271053 153.10388 
L 83.221485 138.351355 
L 77.579147 124.169358 
L 74.433023 110.781546 
L 73.832727 98.399055 
L 75.787728 87.217162 
L 80.267194 77.412213 
L 87.20048 69.138838 
L 87.20048 69.138838 
z
" clip-path="url(#p6f51cbb9c7)" style="fill: none; opacity: 0"/>
   </g>
   <g id="matplotlib.axis_1">
    <g id="xtick_1">
     <g id="line2d_1">
      <path d="M 87.546043 307.584 
L 87.546043 41.472 
" clip-path="url(#p6f51cbb9c7)" style="fill: none; stroke: #b0b0b0; stroke-width: 0.8; stroke-linecap: square"/>
     </g>
     <g id="line2d_2">
      <defs>
       <path id="mafbadef996" d="M 0 0 
L 0 3.5 
" style="stroke: #000000; stroke-width: 0.8"/>
      </defs>
      <g>
       <use xlink:href="#mafbadef996" x="87.546043" y="307.584" style="stroke: #000000; stroke-width: 0.8"/>
      </g>
     </g>
     <g id="text_1">
      <!-- $\mathdefault{−0.04}$ -->
      <g transform="translate(74.815964 321.502498) scale(0.1 -0.1)">
       <defs>
        <path id="CMSY10-0" d="M 4218 1472 
C 4326 1472 4442 1472 4442 1600 
C 4442 1728 4326 1728 4218 1728 
L 755 1728 
C 646 1728 531 1728 531 1600 
C 531 1472 646 1472 755 1472 
L 4218 1472 
z
" transform="scale(0.015625)"/>
        <path id="CMR17-30" d="M 2688 2025 
C 2688 2416 2682 3080 2413 3591 
C 2176 4039 1798 4198 1466 4198 
C 1158 4198 768 4058 525 3597 
C 269 3118 243 2524 243 2025 
C 243 1661 250 1106 448 619 
C 723 -39 1216 -128 1466 -128 
C 1760 -128 2208 -7 2470 600 
C 2662 1042 2688 1559 2688 2025 
z
M 1466 -26 
C 1056 -26 813 325 723 812 
C 653 1188 653 1738 653 2096 
C 653 2588 653 2997 736 3387 
C 858 3929 1216 4096 1466 4096 
C 1728 4096 2067 3923 2189 3400 
C 2272 3036 2278 2607 2278 2096 
C 2278 1680 2278 1169 2202 792 
C 2067 95 1690 -26 1466 -26 
z
" transform="scale(0.015625)"/>
        <path id="CMMI12-3a" d="M 1178 307 
C 1178 492 1024 619 870 619 
C 685 619 557 466 557 313 
C 557 128 710 0 864 0 
C 1050 0 1178 153 1178 307 
z
" transform="scale(0.015625)"/>
        <path id="CMR17-34" d="M 2150 4122 
C 2150 4256 2144 4256 2029 4256 
L 128 1254 
L 128 1088 
L 1779 1088 
L 1779 457 
C 1779 224 1766 160 1318 160 
L 1197 160 
L 1197 0 
C 1402 0 1747 0 1965 0 
C 2182 0 2528 0 2733 0 
L 2733 160 
L 2611 160 
C 2163 160 2150 224 2150 457 
L 2150 1088 
L 2803 1088 
L 2803 1254 
L 2150 1254 
L 2150 4122 
z
M 1798 3703 
L 1798 1254 
L 256 1254 
L 1798 3703 
z
" transform="scale(0.015625)"/>
       </defs>
       <use xlink:href="#CMSY10-0" transform="scale(0.996264)"/>
       <use xlink:href="#CMR17-30" transform="translate(77.487468 0) scale(0.996264)"/>
       <use xlink:href="#CMMI12-3a" transform="translate(123.177945 0) scale(0.996264)"/>
       <use xlink:href="#CMR17-30" transform="translate(150.275122 0) scale(0.996264)"/>
       <use xlink:href="#CMR17-34" transform="translate(195.965599 0) scale(0.996264)"/>
      </g>
     </g>
    </g>
    <g id="xtick_2">
     <g id="line2d_3">
      <path d="M 161.529846 307.584 
L 161.529846 41.472 
" clip-path="url(#p6f51cbb9c7)" style="fill: none; stroke: #b0b0b0; stroke-width: 0.8; stroke-linecap: square"/>
     </g>
     <g id="line2d_4">
      <g>
       <use xlink:href="#mafbadef996" x="161.529846" y="307.584" style="stroke: #000000; stroke-width: 0.8"/>
      </g>
     </g>
     <g id="text_2">
      <!-- $\mathdefault{−0.02}$ -->
      <g transform="translate(148.799767 321.502498) scale(0.1 -0.1)">
       <defs>
        <path id="CMR17-32" d="M 2669 989 
L 2554 989 
C 2490 536 2438 459 2413 420 
C 2381 369 1920 369 1830 369 
L 602 369 
C 832 619 1280 1072 1824 1597 
C 2214 1967 2669 2402 2669 3035 
C 2669 3790 2067 4224 1395 4224 
C 691 4224 262 3604 262 3030 
C 262 2780 448 2748 525 2748 
C 589 2748 781 2787 781 3010 
C 781 3207 614 3264 525 3264 
C 486 3264 448 3258 422 3245 
C 544 3790 915 4058 1306 4058 
C 1862 4058 2227 3617 2227 3035 
C 2227 2479 1901 2000 1536 1584 
L 262 146 
L 262 0 
L 2515 0 
L 2669 989 
z
" transform="scale(0.015625)"/>
       </defs>
       <use xlink:href="#CMSY10-0" transform="scale(0.996264)"/>
       <use xlink:href="#CMR17-30" transform="translate(77.487468 0) scale(0.996264)"/>
       <use xlink:href="#CMMI12-3a" transform="translate(123.177945 0) scale(0.996264)"/>
       <use xlink:href="#CMR17-30" transform="translate(150.275122 0) scale(0.996264)"/>
       <use xlink:href="#CMR17-32" transform="translate(195.965599 0) scale(0.996264)"/>
      </g>
     </g>
    </g>
    <g id="xtick_3">
     <g id="line2d_5">
      <path d="M 235.51365 307.584 
L 235.51365 41.472 
" clip-path="url(#p6f51cbb9c7)" style="fill: none; stroke: #b0b0b0; stroke-width: 0.8; stroke-linecap: square"/>
     </g>
     <g id="line2d_6">
      <g>
       <use xlink:href="#mafbadef996" x="235.51365" y="307.584" style="stroke: #000000; stroke-width: 0.8"/>
      </g>
     </g>
     <g id="text_3">
      <!-- $\mathdefault{0.00}$ -->
      <g transform="translate(226.657943 321.502498) scale(0.1 -0.1)">
       <use xlink:href="#CMR17-30" transform="scale(0.996264)"/>
       <use xlink:href="#CMMI12-3a" transform="translate(45.690477 0) scale(0.996264)"/>
       <use xlink:href="#CMR17-30" transform="translate(72.787654 0) scale(0.996264)"/>
       <use xlink:href="#CMR17-30" transform="translate(118.478131 0) scale(0.996264)"/>
      </g>
     </g>
    </g>
    <g id="xtick_4">
     <g id="line2d_7">
      <path d="M 309.497453 307.584 
L 309.497453 41.472 
" clip-path="url(#p6f51cbb9c7)" style="fill: none; stroke: #b0b0b0; stroke-width: 0.8; stroke-linecap: square"/>
     </g>
     <g id="line2d_8">
      <g>
       <use xlink:href="#mafbadef996" x="309.497453" y="307.584" style="stroke: #000000; stroke-width: 0.8"/>
      </g>
     </g>
     <g id="text_4">
      <!-- $\mathdefault{0.02}$ -->
      <g transform="translate(300.641746 321.502498) scale(0.1 -0.1)">
       <use xlink:href="#CMR17-30" transform="scale(0.996264)"/>
       <use xlink:href="#CMMI12-3a" transform="translate(45.690477 0) scale(0.996264)"/>
       <use xlink:href="#CMR17-30" transform="translate(72.787654 0) scale(0.996264)"/>
       <use xlink:href="#CMR17-32" transform="translate(118.478131 0) scale(0.996264)"/>
      </g>
     </g>
    </g>
    <g id="xtick_5">
     <g id="line2d_9">
      <path d="M 383.481257 307.584 
L 383.481257 41.472 
" clip-path="url(#p6f51cbb9c7)" style="fill: none; stroke: #b0b0b0; stroke-width: 0.8; stroke-linecap: square"/>
     </g>
     <g id="line2d_10">
      <g>
       <use xlink:href="#mafbadef996" x="383.481257" y="307.584" style="stroke: #000000; stroke-width: 0.8"/>
      </g>
     </g>
     <g id="text_5">
      <!-- $\mathdefault{0.04}$ -->
      <g transform="translate(374.625549 321.502498) scale(0.1 -0.1)">
       <use xlink:href="#CMR17-30" transform="scale(0.996264)"/>
       <use xlink:href="#CMMI12-3a" transform="translate(45.690477 0) scale(0.996264)"/>
       <use xlink:href="#CMR17-30" transform="translate(72.787654 0) scale(0.996264)"/>
       <use xlink:href="#CMR17-34" transform="translate(118.478131 0) scale(0.996264)"/>
      </g>
     </g>
    </g>
    <g id="text_6">
     <!-- x [m] -->
     <g transform="translate(225.36713 334.911657) scale(0.1 -0.1)">
      <defs>
       <path id="CMSS17-78" d="M 1587 1414 
L 2656 2739 
L 2099 2739 
L 1363 1777 
L 602 2739 
L 32 2739 
L 1139 1414 
L 0 0 
L 563 0 
L 1363 1121 
L 2195 0 
L 2758 0 
L 1587 1414 
z
" transform="scale(0.015625)"/>
       <path id="CMSS17-5b" d="M 1613 -1600 
L 1613 -1212 
L 1062 -1212 
L 1062 4352 
L 1613 4352 
L 1613 4741 
L 595 4741 
L 595 -1600 
L 1613 -1600 
z
" transform="scale(0.015625)"/>
       <path id="CMSS17-6d" d="M 4288 1877 
C 4288 2308 4179 2816 3462 2816 
C 2982 2816 2694 2516 2566 2331 
C 2451 2670 2182 2816 1798 2816 
C 1363 2816 1088 2568 941 2389 
L 941 2758 
L 474 2758 
L 474 0 
L 960 0 
L 960 1559 
C 960 1939 1101 2428 1555 2428 
C 2138 2428 2138 2016 2138 1829 
L 2138 0 
L 2624 0 
L 2624 1559 
C 2624 1939 2765 2428 3219 2428 
C 3802 2428 3802 2016 3802 1829 
L 3802 0 
L 4288 0 
L 4288 1877 
z
" transform="scale(0.015625)"/>
       <path id="CMSS17-5d" d="M 1146 4741 
L 128 4741 
L 128 4352 
L 678 4352 
L 678 -1212 
L 128 -1212 
L 128 -1600 
L 1146 -1600 
L 1146 4741 
z
" transform="scale(0.015625)"/>
      </defs>
      <use xlink:href="#CMSS17-78" transform="scale(0.996264)"/>
      <use xlink:href="#CMSS17-5b" transform="translate(74.229254 0) scale(0.996264)"/>
      <use xlink:href="#CMSS17-6d" transform="translate(101.414693 0) scale(0.996264)"/>
      <use xlink:href="#CMSS17-5d" transform="translate(175.643948 0) scale(0.996264)"/>
     </g>
    </g>
   </g>
   <g id="matplotlib.axis_2">
    <g id="ytick_1">
     <g id="line2d_11">
      <path d="M 57.6 283.216193 
L 414.72 283.216193 
" clip-path="url(#p6f51cbb9c7)" style="fill: none; stroke: #b0b0b0; stroke-width: 0.8; stroke-linecap: square"/>
     </g>
     <g id="line2d_12">
      <defs>
       <path id="mc82ad90c87" d="M 0 0 
L -3.5 0 
" style="stroke: #000000; stroke-width: 0.8"/>
      </defs>
      <g>
       <use xlink:href="#mc82ad90c87" x="57.6" y="283.216193" style="stroke: #000000; stroke-width: 0.8"/>
      </g>
     </g>
     <g id="text_7">
      <!-- $\mathdefault{−0.03}$ -->
      <g transform="translate(25.139842 286.675442) scale(0.1 -0.1)">
       <defs>
        <path id="CMR17-33" d="M 1414 2157 
C 1984 2157 2234 1662 2234 1090 
C 2234 320 1824 25 1453 25 
C 1114 25 563 194 390 693 
C 422 680 454 680 486 680 
C 640 680 755 782 755 948 
C 755 1133 614 1216 486 1216 
C 378 1216 211 1165 211 926 
C 211 335 787 -128 1466 -128 
C 2176 -128 2720 430 2720 1085 
C 2720 1707 2208 2157 1600 2227 
C 2086 2328 2554 2756 2554 3329 
C 2554 3820 2048 4179 1472 4179 
C 890 4179 378 3829 378 3329 
C 378 3110 544 3072 627 3072 
C 762 3072 877 3155 877 3321 
C 877 3486 762 3569 627 3569 
C 602 3569 570 3569 544 3557 
C 730 3959 1235 4032 1459 4032 
C 1683 4032 2106 3925 2106 3320 
C 2106 3143 2080 2828 1862 2550 
C 1670 2304 1453 2304 1242 2284 
C 1210 2284 1062 2269 1037 2269 
C 992 2263 966 2257 966 2208 
C 966 2163 973 2157 1101 2157 
L 1414 2157 
z
" transform="scale(0.015625)"/>
       </defs>
       <use xlink:href="#CMSY10-0" transform="scale(0.996264)"/>
       <use xlink:href="#CMR17-30" transform="translate(77.487468 0) scale(0.996264)"/>
       <use xlink:href="#CMMI12-3a" transform="translate(123.177945 0) scale(0.996264)"/>
       <use xlink:href="#CMR17-30" transform="translate(150.275122 0) scale(0.996264)"/>
       <use xlink:href="#CMR17-33" transform="translate(195.965599 0) scale(0.996264)"/>
      </g>
     </g>
    </g>
    <g id="ytick_2">
     <g id="line2d_13">
      <path d="M 57.6 253.371302 
L 414.72 253.371302 
" clip-path="url(#p6f51cbb9c7)" style="fill: none; stroke: #b0b0b0; stroke-width: 0.8; stroke-linecap: square"/>
     </g>
     <g id="line2d_14">
      <g>
       <use xlink:href="#mc82ad90c87" x="57.6" y="253.371302" style="stroke: #000000; stroke-width: 0.8"/>
      </g>
     </g>
     <g id="text_8">
      <!-- $\mathdefault{−0.02}$ -->
      <g transform="translate(25.139842 256.830552) scale(0.1 -0.1)">
       <use xlink:href="#CMSY10-0" transform="scale(0.996264)"/>
       <use xlink:href="#CMR17-30" transform="translate(77.487468 0) scale(0.996264)"/>
       <use xlink:href="#CMMI12-3a" transform="translate(123.177945 0) scale(0.996264)"/>
       <use xlink:href="#CMR17-30" transform="translate(150.275122 0) scale(0.996264)"/>
       <use xlink:href="#CMR17-32" transform="translate(195.965599 0) scale(0.996264)"/>
      </g>
     </g>
    </g>
    <g id="ytick_3">
     <g id="line2d_15">
      <path d="M 57.6 223.526412 
L 414.72 223.526412 
" clip-path="url(#p6f51cbb9c7)" style="fill: none; stroke: #b0b0b0; stroke-width: 0.8; stroke-linecap: square"/>
     </g>
     <g id="line2d_16">
      <g>
       <use xlink:href="#mc82ad90c87" x="57.6" y="223.526412" style="stroke: #000000; stroke-width: 0.8"/>
      </g>
     </g>
     <g id="text_9">
      <!-- $\mathdefault{−0.01}$ -->
      <g transform="translate(25.139842 226.985661) scale(0.1 -0.1)">
       <defs>
        <path id="CMR17-31" d="M 1702 4058 
C 1702 4192 1696 4192 1606 4192 
C 1357 3916 979 3827 621 3827 
C 602 3827 570 3827 563 3808 
C 557 3795 557 3782 557 3648 
C 755 3648 1088 3686 1344 3839 
L 1344 461 
C 1344 236 1331 160 781 160 
L 589 160 
L 589 0 
C 896 0 1216 0 1523 0 
C 1830 0 2150 0 2458 0 
L 2458 160 
L 2266 160 
C 1715 160 1702 230 1702 458 
L 1702 4058 
z
" transform="scale(0.015625)"/>
       </defs>
       <use xlink:href="#CMSY10-0" transform="scale(0.996264)"/>
       <use xlink:href="#CMR17-30" transform="translate(77.487468 0) scale(0.996264)"/>
       <use xlink:href="#CMMI12-3a" transform="translate(123.177945 0) scale(0.996264)"/>
       <use xlink:href="#CMR17-30" transform="translate(150.275122 0) scale(0.996264)"/>
       <use xlink:href="#CMR17-31" transform="translate(195.965599 0) scale(0.996264)"/>
      </g>
     </g>
    </g>
    <g id="ytick_4">
     <g id="line2d_17">
      <path d="M 57.6 193.681522 
L 414.72 193.681522 
" clip-path="url(#p6f51cbb9c7)" style="fill: none; stroke: #b0b0b0; stroke-width: 0.8; stroke-linecap: square"/>
     </g>
     <g id="line2d_18">
      <g>
       <use xlink:href="#mc82ad90c87" x="57.6" y="193.681522" style="stroke: #000000; stroke-width: 0.8"/>
      </g>
     </g>
     <g id="text_10">
      <!-- $\mathdefault{0.00}$ -->
      <g transform="translate(32.888586 197.140771) scale(0.1 -0.1)">
       <use xlink:href="#CMR17-30" transform="scale(0.996264)"/>
       <use xlink:href="#CMMI12-3a" transform="translate(45.690477 0) scale(0.996264)"/>
       <use xlink:href="#CMR17-30" transform="translate(72.787654 0) scale(0.996264)"/>
       <use xlink:href="#CMR17-30" transform="translate(118.478131 0) scale(0.996264)"/>
      </g>
     </g>
    </g>
    <g id="ytick_5">
     <g id="line2d_19">
      <path d="M 57.6 163.836632 
L 414.72 163.836632 
" clip-path="url(#p6f51cbb9c7)" style="fill: none; stroke: #b0b0b0; stroke-width: 0.8; stroke-linecap: square"/>
     </g>
     <g id="line2d_20">
      <g>
       <use xlink:href="#mc82ad90c87" x="57.6" y="163.836632" style="stroke: #000000; stroke-width: 0.8"/>
      </g>
     </g>
     <g id="text_11">
      <!-- $\mathdefault{0.01}$ -->
      <g transform="translate(32.888586 167.295881) scale(0.1 -0.1)">
       <use xlink:href="#CMR17-30" transform="scale(0.996264)"/>
       <use xlink:href="#CMMI12-3a" transform="translate(45.690477 0) scale(0.996264)"/>
       <use xlink:href="#CMR17-30" transform="translate(72.787654 0) scale(0.996264)"/>
       <use xlink:href="#CMR17-31" transform="translate(118.478131 0) scale(0.996264)"/>
      </g>
     </g>
    </g>
    <g id="ytick_6">
     <g id="line2d_21">
      <path d="M 57.6 133.991742 
L 414.72 133.991742 
" clip-path="url(#p6f51cbb9c7)" style="fill: none; stroke: #b0b0b0; stroke-width: 0.8; stroke-linecap: square"/>
     </g>
     <g id="line2d_22">
      <g>
       <use xlink:href="#mc82ad90c87" x="57.6" y="133.991742" style="stroke: #000000; stroke-width: 0.8"/>
      </g>
     </g>
     <g id="text_12">
      <!-- $\mathdefault{0.02}$ -->
      <g transform="translate(32.888586 137.450991) scale(0.1 -0.1)">
       <use xlink:href="#CMR17-30" transform="scale(0.996264)"/>
       <use xlink:href="#CMMI12-3a" transform="translate(45.690477 0) scale(0.996264)"/>
       <use xlink:href="#CMR17-30" transform="translate(72.787654 0) scale(0.996264)"/>
       <use xlink:href="#CMR17-32" transform="translate(118.478131 0) scale(0.996264)"/>
      </g>
     </g>
    </g>
    <g id="ytick_7">
     <g id="line2d_23">
      <path d="M 57.6 104.146851 
L 414.72 104.146851 
" clip-path="url(#p6f51cbb9c7)" style="fill: none; stroke: #b0b0b0; stroke-width: 0.8; stroke-linecap: square"/>
     </g>
     <g id="line2d_24">
      <g>
       <use xlink:href="#mc82ad90c87" x="57.6" y="104.146851" style="stroke: #000000; stroke-width: 0.8"/>
      </g>
     </g>
     <g id="text_13">
      <!-- $\mathdefault{0.03}$ -->
      <g transform="translate(32.888586 107.606101) scale(0.1 -0.1)">
       <use xlink:href="#CMR17-30" transform="scale(0.996264)"/>
       <use xlink:href="#CMMI12-3a" transform="translate(45.690477 0) scale(0.996264)"/>
       <use xlink:href="#CMR17-30" transform="translate(72.787654 0) scale(0.996264)"/>
       <use xlink:href="#CMR17-33" transform="translate(118.478131 0) scale(0.996264)"/>
      </g>
     </g>
    </g>
    <g id="ytick_8">
     <g id="line2d_25">
      <path d="M 57.6 74.301961 
L 414.72 74.301961 
" clip-path="url(#p6f51cbb9c7)" style="fill: none; stroke: #b0b0b0; stroke-width: 0.8; stroke-linecap: square"/>
     </g>
     <g id="line2d_26">
      <g>
       <use xlink:href="#mc82ad90c87" x="57.6" y="74.301961" style="stroke: #000000; stroke-width: 0.8"/>
      </g>
     </g>
     <g id="text_14">
      <!-- $\mathdefault{0.04}$ -->
      <g transform="translate(32.888586 77.76121) scale(0.1 -0.1)">
       <use xlink:href="#CMR17-30" transform="scale(0.996264)"/>
       <use xlink:href="#CMMI12-3a" transform="translate(45.690477 0) scale(0.996264)"/>
       <use xlink:href="#CMR17-30" transform="translate(72.787654 0) scale(0.996264)"/>
       <use xlink:href="#CMR17-34" transform="translate(118.478131 0) scale(0.996264)"/>
      </g>
     </g>
    </g>
    <g id="ytick_9">
     <g id="line2d_27">
      <path d="M 57.6 44.457071 
L 414.72 44.457071 
" clip-path="url(#p6f51cbb9c7)" style="fill: none; stroke: #b0b0b0; stroke-width: 0.8; stroke-linecap: square"/>
     </g>
     <g id="line2d_28">
      <g>
       <use xlink:href="#mc82ad90c87" x="57.6" y="44.457071" style="stroke: #000000; stroke-width: 0.8"/>
      </g>
     </g>
     <g id="text_15">
      <!-- $\mathdefault{0.05}$ -->
      <g transform="translate(32.888586 47.91632) scale(0.1 -0.1)">
       <defs>
        <path id="CMR17-35" d="M 730 3692 
C 794 3666 1056 3584 1325 3584 
C 1920 3584 2246 3911 2432 4100 
C 2432 4157 2432 4192 2394 4192 
C 2387 4192 2374 4192 2323 4163 
C 2099 4058 1837 3973 1517 3973 
C 1325 3973 1037 3999 723 4139 
C 653 4171 640 4171 634 4171 
C 602 4171 595 4164 595 4037 
L 595 2203 
C 595 2089 595 2057 659 2057 
C 691 2057 704 2070 736 2114 
C 941 2401 1222 2522 1542 2522 
C 1766 2522 2246 2382 2246 1289 
C 2246 1085 2246 715 2054 421 
C 1894 159 1645 25 1370 25 
C 947 25 518 320 403 814 
C 429 807 480 795 506 795 
C 589 795 749 840 749 1038 
C 749 1210 627 1280 506 1280 
C 358 1280 262 1190 262 1011 
C 262 454 704 -128 1382 -128 
C 2042 -128 2669 440 2669 1264 
C 2669 2030 2170 2624 1549 2624 
C 1222 2624 947 2503 730 2274 
L 730 3692 
z
" transform="scale(0.015625)"/>
       </defs>
       <use xlink:href="#CMR17-30" transform="scale(0.996264)"/>
       <use xlink:href="#CMMI12-3a" transform="translate(45.690477 0) scale(0.996264)"/>
       <use xlink:href="#CMR17-30" transform="translate(72.787654 0) scale(0.996264)"/>
       <use xlink:href="#CMR17-35" transform="translate(118.478131 0) scale(0.996264)"/>
      </g>
     </g>
    </g>
    <g id="text_16">
     <!-- y [m] -->
     <g transform="translate(18.649182 185.32087) rotate(-90) scale(0.1 -0.1)">
      <defs>
       <path id="CMSS17-79" d="M 2675 2752 
L 2176 2752 
C 1632 1294 1446 702 1434 383 
L 1427 383 
C 1408 696 1126 1460 902 2007 
L 602 2752 
L 83 2752 
L 1216 13 
C 1146 -178 1043 -465 1011 -529 
C 870 -885 774 -885 672 -885 
C 646 -885 442 -885 211 -809 
L 250 -1229 
C 410 -1261 570 -1280 685 -1280 
C 845 -1280 1165 -1280 1459 -497 
L 2675 2752 
z
" transform="scale(0.015625)"/>
      </defs>
      <use xlink:href="#CMSS17-79" transform="scale(0.996264)"/>
      <use xlink:href="#CMSS17-5b" transform="translate(74.229254 0) scale(0.996264)"/>
      <use xlink:href="#CMSS17-6d" transform="translate(101.414693 0) scale(0.996264)"/>
      <use xlink:href="#CMSS17-5d" transform="translate(175.643948 0) scale(0.996264)"/>
     </g>
    </g>
   </g>
   <g id="line2d_29">
    <path d="M 222.111903 167.011917 
L 222.781887 166.402481 
L 223.658149 165.921188 
L 224.726871 165.57563 
L 225.971199 165.371257 
L 227.371509 165.31129 
L 228.905717 165.396677 
L 230.549627 165.62607 
L 232.277314 165.995852 
L 234.061532 166.500191 
L 235.874143 167.131133 
L 237.686559 167.878729 
L 239.470199 168.731187 
L 241.196934 169.675064 
L 242.839531 170.695475 
L 244.372087 171.776328 
L 245.770431 172.900576 
L 247.012511 174.050489 
L 248.078739 175.207933 
L 248.952299 176.354654 
L 249.619416 177.472568 
L 250.069567 178.544044 
L 250.295655 179.552184 
L 250.294113 180.481091 
L 250.064967 181.316113 
L 249.611828 182.044083 
L 248.941845 182.653519 
L 248.065582 183.134812 
L 246.99686 183.48037 
L 245.752532 183.684743 
L 244.352222 183.74471 
L 242.818015 183.659323 
L 241.174105 183.42993 
L 239.446417 183.060148 
L 237.662199 182.555809 
L 235.849589 181.924867 
L 234.037172 181.177271 
L 232.253532 180.324813 
L 230.526797 179.380936 
L 228.8842 178.360525 
L 227.351645 177.279672 
L 225.9533 176.155424 
L 224.71122 175.005511 
L 223.644993 173.848067 
L 222.771432 172.701346 
L 222.104316 171.583432 
L 221.654164 170.511956 
L 221.428076 169.503816 
L 221.429618 168.574909 
L 221.658765 167.739887 
L 222.111903 167.011917 
" clip-path="url(#p6f51cbb9c7)" style="fill: none; stroke: #0000ff; stroke-width: 1.5; stroke-linecap: square"/>
   </g>
   <g id="line2d_30">
    <path d="M 95.881442 84.274763 
L 105.033401 76.861344 
L 116.248602 70.988186 
L 129.350176 66.747912 
L 144.131503 64.207395 
L 160.359472 63.4067 
L 177.77816 64.358454 
L 196.112862 67.047648 
L 215.074429 71.431871 
L 234.363827 77.441982 
L 253.67685 84.983197 
L 272.70892 93.936587 
L 291.15989 104.160952 
L 308.738777 115.495047 
L 325.168352 127.760127 
L 340.18951 140.762765 
L 353.565358 154.2979 
L 365.084953 168.152076 
L 374.566622 182.106804 
L 381.860834 195.94201 
L 386.852555 209.439505 
L 389.463063 222.386424 
L 389.651188 234.578587 
L 387.413964 245.823716 
L 382.786673 255.94447 
L 375.842289 264.781237 
L 366.690331 272.194656 
L 355.47513 278.067814 
L 342.373556 282.308088 
L 327.592229 284.848605 
L 311.364259 285.6493 
L 293.945572 284.697546 
L 275.61087 282.008352 
L 256.649302 277.624129 
L 237.359904 271.614018 
L 218.046881 264.072803 
L 199.014811 255.119413 
L 180.563841 244.895048 
L 162.984954 233.560953 
L 146.55538 221.295873 
L 131.534222 208.293235 
L 118.158373 194.7581 
L 106.638779 180.903924 
L 97.15711 166.949196 
L 89.862897 153.11399 
L 84.871176 139.616495 
L 82.260668 126.669576 
L 82.072543 114.477413 
L 84.309767 103.232284 
L 88.937059 93.11153 
L 95.881442 84.274763 
" clip-path="url(#p6f51cbb9c7)" style="fill: none; stroke: #008000; stroke-width: 1.5; stroke-linecap: square"/>
   </g>
   <g id="line2d_31">
    <defs>
     <path id="mba7bd35f79" d="M 0 1.5 
C 0.397805 1.5 0.77937 1.341951 1.06066 1.06066 
C 1.341951 0.77937 1.5 0.397805 1.5 0 
C 1.5 -0.397805 1.341951 -0.77937 1.06066 -1.06066 
C 0.77937 -1.341951 0.397805 -1.5 0 -1.5 
C -0.397805 -1.5 -0.77937 -1.341951 -1.06066 -1.06066 
C -1.341951 -0.77937 -1.5 -0.397805 -1.5 0 
C -1.5 0.397805 -1.341951 0.77937 -1.06066 1.06066 
C -0.77937 1.341951 -0.397805 1.5 0 1.5 
z
" style="stroke: #ff0000"/>
    </defs>
    <g clip-path="url(#p6f51cbb9c7)">
     <use xlink:href="#mba7bd35f79" x="191.714133" y="175.311047" style="fill: #ff0000; stroke: #ff0000"/>
     <use xlink:href="#mba7bd35f79" x="132.688151" y="102.177972" style="fill: #ff0000; stroke: #ff0000"/>
     <use xlink:href="#mba7bd35f79" x="248.152889" y="212.389992" style="fill: #ff0000; stroke: #ff0000"/>
     <use xlink:href="#mba7bd35f79" x="212.643205" y="206.906885" style="fill: #ff0000; stroke: #ff0000"/>
     <use xlink:href="#mba7bd35f79" x="150.407141" y="176.242505" style="fill: #ff0000; stroke: #ff0000"/>
     <use xlink:href="#mba7bd35f79" x="137.380193" y="135.710898" style="fill: #ff0000; stroke: #ff0000"/>
     <use xlink:href="#mba7bd35f79" x="283.81496" y="176.195659" style="fill: #ff0000; stroke: #ff0000"/>
     <use xlink:href="#mba7bd35f79" x="232.815299" y="158.025077" style="fill: #ff0000; stroke: #ff0000"/>
     <use xlink:href="#mba7bd35f79" x="218.432279" y="149.020037" style="fill: #ff0000; stroke: #ff0000"/>
     <use xlink:href="#mba7bd35f79" x="132.76769" y="173.674177" style="fill: #ff0000; stroke: #ff0000"/>
     <use xlink:href="#mba7bd35f79" x="125.348049" y="104.427851" style="fill: #ff0000; stroke: #ff0000"/>
     <use xlink:href="#mba7bd35f79" x="202.192193" y="141.716029" style="fill: #ff0000; stroke: #ff0000"/>
     <use xlink:href="#mba7bd35f79" x="173.294215" y="112.585974" style="fill: #ff0000; stroke: #ff0000"/>
     <use xlink:href="#mba7bd35f79" x="290.933761" y="232.161495" style="fill: #ff0000; stroke: #ff0000"/>
     <use xlink:href="#mba7bd35f79" x="290.353139" y="198.94116" style="fill: #ff0000; stroke: #ff0000"/>
     <use xlink:href="#mba7bd35f79" x="179.898235" y="163.434984" style="fill: #ff0000; stroke: #ff0000"/>
     <use xlink:href="#mba7bd35f79" x="250.232271" y="139.633592" style="fill: #ff0000; stroke: #ff0000"/>
     <use xlink:href="#mba7bd35f79" x="204.963675" y="190.682559" style="fill: #ff0000; stroke: #ff0000"/>
     <use xlink:href="#mba7bd35f79" x="198.827186" y="137.162281" style="fill: #ff0000; stroke: #ff0000"/>
     <use xlink:href="#mba7bd35f79" x="317.971629" y="172.972216" style="fill: #ff0000; stroke: #ff0000"/>
     <use xlink:href="#mba7bd35f79" x="265.513095" y="194.17474" style="fill: #ff0000; stroke: #ff0000"/>
     <use xlink:href="#mba7bd35f79" x="357.392011" y="223.308493" style="fill: #ff0000; stroke: #ff0000"/>
     <use xlink:href="#mba7bd35f79" x="288.494201" y="166.566421" style="fill: #ff0000; stroke: #ff0000"/>
     <use xlink:href="#mba7bd35f79" x="183.019737" y="106.604969" style="fill: #ff0000; stroke: #ff0000"/>
     <use xlink:href="#mba7bd35f79" x="226.722838" y="181.679298" style="fill: #ff0000; stroke: #ff0000"/>
     <use xlink:href="#mba7bd35f79" x="245.557897" y="199.15087" style="fill: #ff0000; stroke: #ff0000"/>
     <use xlink:href="#mba7bd35f79" x="257.070204" y="196.833044" style="fill: #ff0000; stroke: #ff0000"/>
     <use xlink:href="#mba7bd35f79" x="266.632049" y="251.452917" style="fill: #ff0000; stroke: #ff0000"/>
     <use xlink:href="#mba7bd35f79" x="166.581841" y="151.527421" style="fill: #ff0000; stroke: #ff0000"/>
     <use xlink:href="#mba7bd35f79" x="133.211953" y="128.128463" style="fill: #ff0000; stroke: #ff0000"/>
     <use xlink:href="#mba7bd35f79" x="199.651957" y="209.586872" style="fill: #ff0000; stroke: #ff0000"/>
     <use xlink:href="#mba7bd35f79" x="253.013791" y="260.780215" style="fill: #ff0000; stroke: #ff0000"/>
     <use xlink:href="#mba7bd35f79" x="239.529695" y="154.742805" style="fill: #ff0000; stroke: #ff0000"/>
     <use xlink:href="#mba7bd35f79" x="274.456726" y="227.250851" style="fill: #ff0000; stroke: #ff0000"/>
     <use xlink:href="#mba7bd35f79" x="261.296193" y="252.086849" style="fill: #ff0000; stroke: #ff0000"/>
     <use xlink:href="#mba7bd35f79" x="274.26632" y="146.617968" style="fill: #ff0000; stroke: #ff0000"/>
     <use xlink:href="#mba7bd35f79" x="268.83852" y="157.28339" style="fill: #ff0000; stroke: #ff0000"/>
     <use xlink:href="#mba7bd35f79" x="261.571022" y="207.045435" style="fill: #ff0000; stroke: #ff0000"/>
     <use xlink:href="#mba7bd35f79" x="267.054927" y="227.237544" style="fill: #ff0000; stroke: #ff0000"/>
     <use xlink:href="#mba7bd35f79" x="223.286473" y="201.21713" style="fill: #ff0000; stroke: #ff0000"/>
     <use xlink:href="#mba7bd35f79" x="144.767936" y="132.274233" style="fill: #ff0000; stroke: #ff0000"/>
     <use xlink:href="#mba7bd35f79" x="211.813918" y="188.507225" style="fill: #ff0000; stroke: #ff0000"/>
     <use xlink:href="#mba7bd35f79" x="142.447968" y="87.938071" style="fill: #ff0000; stroke: #ff0000"/>
     <use xlink:href="#mba7bd35f79" x="248.980234" y="215.949921" style="fill: #ff0000; stroke: #ff0000"/>
     <use xlink:href="#mba7bd35f79" x="219.179255" y="106.442021" style="fill: #ff0000; stroke: #ff0000"/>
     <use xlink:href="#mba7bd35f79" x="183.439046" y="129.326109" style="fill: #ff0000; stroke: #ff0000"/>
     <use xlink:href="#mba7bd35f79" x="291.716254" y="207.740868" style="fill: #ff0000; stroke: #ff0000"/>
     <use xlink:href="#mba7bd35f79" x="175.629314" y="183.557094" style="fill: #ff0000; stroke: #ff0000"/>
     <use xlink:href="#mba7bd35f79" x="190.667619" y="108.172738" style="fill: #ff0000; stroke: #ff0000"/>
     <use xlink:href="#mba7bd35f79" x="231.832418" y="204.972117" style="fill: #ff0000; stroke: #ff0000"/>
     <use xlink:href="#mba7bd35f79" x="241.110339" y="215.217988" style="fill: #ff0000; stroke: #ff0000"/>
     <use xlink:href="#mba7bd35f79" x="192.892654" y="150.741072" style="fill: #ff0000; stroke: #ff0000"/>
     <use xlink:href="#mba7bd35f79" x="251.53149" y="162.701917" style="fill: #ff0000; stroke: #ff0000"/>
     <use xlink:href="#mba7bd35f79" x="172.969311" y="114.042855" style="fill: #ff0000; stroke: #ff0000"/>
     <use xlink:href="#mba7bd35f79" x="266.626268" y="192.9999" style="fill: #ff0000; stroke: #ff0000"/>
     <use xlink:href="#mba7bd35f79" x="237.451373" y="156.480968" style="fill: #ff0000; stroke: #ff0000"/>
     <use xlink:href="#mba7bd35f79" x="214.916631" y="230.168" style="fill: #ff0000; stroke: #ff0000"/>
     <use xlink:href="#mba7bd35f79" x="365.779685" y="225.690254" style="fill: #ff0000; stroke: #ff0000"/>
     <use xlink:href="#mba7bd35f79" x="246.875122" y="151.590329" style="fill: #ff0000; stroke: #ff0000"/>
     <use xlink:href="#mba7bd35f79" x="175.308486" y="130.135551" style="fill: #ff0000; stroke: #ff0000"/>
     <use xlink:href="#mba7bd35f79" x="314.983043" y="221.401572" style="fill: #ff0000; stroke: #ff0000"/>
     <use xlink:href="#mba7bd35f79" x="281.349229" y="215.958278" style="fill: #ff0000; stroke: #ff0000"/>
     <use xlink:href="#mba7bd35f79" x="398.487273" y="196.169449" style="fill: #ff0000; stroke: #ff0000"/>
     <use xlink:href="#mba7bd35f79" x="282.266511" y="250.497682" style="fill: #ff0000; stroke: #ff0000"/>
     <use xlink:href="#mba7bd35f79" x="202.150547" y="153.888541" style="fill: #ff0000; stroke: #ff0000"/>
     <use xlink:href="#mba7bd35f79" x="184.475365" y="135.634605" style="fill: #ff0000; stroke: #ff0000"/>
     <use xlink:href="#mba7bd35f79" x="192.736934" y="100.353519" style="fill: #ff0000; stroke: #ff0000"/>
     <use xlink:href="#mba7bd35f79" x="314.105835" y="184.167638" style="fill: #ff0000; stroke: #ff0000"/>
     <use xlink:href="#mba7bd35f79" x="321.287697" y="184.121707" style="fill: #ff0000; stroke: #ff0000"/>
     <use xlink:href="#mba7bd35f79" x="187.59991" y="135.750771" style="fill: #ff0000; stroke: #ff0000"/>
     <use xlink:href="#mba7bd35f79" x="242.873903" y="226.833944" style="fill: #ff0000; stroke: #ff0000"/>
     <use xlink:href="#mba7bd35f79" x="224.517127" y="157.79927" style="fill: #ff0000; stroke: #ff0000"/>
     <use xlink:href="#mba7bd35f79" x="226.082553" y="155.228622" style="fill: #ff0000; stroke: #ff0000"/>
     <use xlink:href="#mba7bd35f79" x="214.923055" y="143.438587" style="fill: #ff0000; stroke: #ff0000"/>
     <use xlink:href="#mba7bd35f79" x="363.365839" y="220.426894" style="fill: #ff0000; stroke: #ff0000"/>
     <use xlink:href="#mba7bd35f79" x="200.247857" y="225.847344" style="fill: #ff0000; stroke: #ff0000"/>
     <use xlink:href="#mba7bd35f79" x="188.20989" y="173.431352" style="fill: #ff0000; stroke: #ff0000"/>
     <use xlink:href="#mba7bd35f79" x="221.354221" y="205.6099" style="fill: #ff0000; stroke: #ff0000"/>
     <use xlink:href="#mba7bd35f79" x="327.995661" y="226.349696" style="fill: #ff0000; stroke: #ff0000"/>
     <use xlink:href="#mba7bd35f79" x="192.292932" y="195.860188" style="fill: #ff0000; stroke: #ff0000"/>
     <use xlink:href="#mba7bd35f79" x="208.058171" y="153.939866" style="fill: #ff0000; stroke: #ff0000"/>
     <use xlink:href="#mba7bd35f79" x="244.42275" y="201.922148" style="fill: #ff0000; stroke: #ff0000"/>
     <use xlink:href="#mba7bd35f79" x="201.439117" y="160.125624" style="fill: #ff0000; stroke: #ff0000"/>
     <use xlink:href="#mba7bd35f79" x="227.126828" y="108.726276" style="fill: #ff0000; stroke: #ff0000"/>
     <use xlink:href="#mba7bd35f79" x="252.030647" y="153.642629" style="fill: #ff0000; stroke: #ff0000"/>
     <use xlink:href="#mba7bd35f79" x="304.793288" y="209.006153" style="fill: #ff0000; stroke: #ff0000"/>
     <use xlink:href="#mba7bd35f79" x="286.233641" y="140.584321" style="fill: #ff0000; stroke: #ff0000"/>
     <use xlink:href="#mba7bd35f79" x="269.568565" y="237.816694" style="fill: #ff0000; stroke: #ff0000"/>
     <use xlink:href="#mba7bd35f79" x="201.787404" y="122.294759" style="fill: #ff0000; stroke: #ff0000"/>
     <use xlink:href="#mba7bd35f79" x="220.360932" y="167.538544" style="fill: #ff0000; stroke: #ff0000"/>
     <use xlink:href="#mba7bd35f79" x="202.118053" y="128.926048" style="fill: #ff0000; stroke: #ff0000"/>
     <use xlink:href="#mba7bd35f79" x="220.810758" y="166.339248" style="fill: #ff0000; stroke: #ff0000"/>
     <use xlink:href="#mba7bd35f79" x="323.22372" y="198.33523" style="fill: #ff0000; stroke: #ff0000"/>
     <use xlink:href="#mba7bd35f79" x="183.733004" y="143.244434" style="fill: #ff0000; stroke: #ff0000"/>
     <use xlink:href="#mba7bd35f79" x="267.57668" y="192.215679" style="fill: #ff0000; stroke: #ff0000"/>
     <use xlink:href="#mba7bd35f79" x="229.284835" y="139.159721" style="fill: #ff0000; stroke: #ff0000"/>
     <use xlink:href="#mba7bd35f79" x="287.697911" y="177.879595" style="fill: #ff0000; stroke: #ff0000"/>
     <use xlink:href="#mba7bd35f79" x="279.256856" y="217.658358" style="fill: #ff0000; stroke: #ff0000"/>
     <use xlink:href="#mba7bd35f79" x="263.397219" y="128.708748" style="fill: #ff0000; stroke: #ff0000"/>
     <use xlink:href="#mba7bd35f79" x="282.252972" y="185.588151" style="fill: #ff0000; stroke: #ff0000"/>
    </g>
   </g>
   <g id="line2d_32">
    <path d="M 87.20048 69.138838 
L 96.478246 62.527513 
L 107.954174 57.682503 
L 121.447283 54.680216 
L 136.744779 53.568 
L 153.60541 54.363396 
L 171.763275 57.053859 
L 190.932012 61.596959 
L 210.80932 67.92105 
L 231.081722 75.926396 
L 251.42951 85.486748 
L 271.531786 96.451334 
L 291.071527 108.647235 
L 309.740578 121.882116 
L 327.244518 135.947253 
L 343.307299 150.620832 
L 357.675601 165.671441 
L 370.122828 180.861724 
L 380.452679 195.95212 
L 388.502246 210.704645 
L 394.144584 224.886642 
L 397.290709 238.274454 
L 397.891004 250.656945 
L 395.936003 261.838838 
L 391.456538 271.643787 
L 384.523251 279.917162 
L 375.245485 286.528487 
L 363.769557 291.373497 
L 350.276448 294.375784 
L 334.978952 295.488 
L 318.118321 294.692604 
L 299.960457 292.002141 
L 280.791719 287.459041 
L 260.914411 281.13495 
L 240.642009 273.129604 
L 220.294222 263.569252 
L 200.191945 252.604666 
L 180.652205 240.408765 
L 161.983153 227.173884 
L 144.479214 213.108747 
L 128.416433 198.435168 
L 114.048131 183.384559 
L 101.600904 168.194276 
L 91.271053 153.10388 
L 83.221485 138.351355 
L 77.579147 124.169358 
L 74.433023 110.781546 
L 73.832727 98.399055 
L 75.787728 87.217162 
L 80.267194 77.412213 
L 87.20048 69.138838 
" clip-path="url(#p6f51cbb9c7)" style="fill: none; stroke: #ff0000; stroke-width: 1.5; stroke-linecap: square"/>
   </g>
   <g id="patch_6">
    <path d="M 57.6 307.584 
L 57.6 41.472 
" style="fill: none; stroke: #000000; stroke-width: 0.8; stroke-linejoin: miter; stroke-linecap: square"/>
   </g>
   <g id="patch_7">
    <path d="M 414.72 307.584 
L 414.72 41.472 
" style="fill: none; stroke: #000000; stroke-width: 0.8; stroke-linejoin: miter; stroke-linecap: square"/>
   </g>
   <g id="patch_8">
    <path d="M 57.6 307.584 
L 414.72 307.584 
" style="fill: none; stroke: #000000; stroke-width: 0.8; stroke-linejoin: miter; stroke-linecap: square"/>
   </g>
   <g id="patch_9">
    <path d="M 57.6 41.472 
L 414.72 41.472 
" style="fill: none; stroke: #000000; stroke-width: 0.8; stroke-linejoin: miter; stroke-linecap: square"/>
   </g>
   <g id="legend_1">
    <g id="patch_10">
     <path d="M 298.962583 105.220713 
L 407.72 105.220713 
Q 409.72 105.220713 409.72 103.220713 
L 409.72 48.472 
Q 409.72 46.472 407.72 46.472 
L 298.962583 46.472 
Q 296.962583 46.472 296.962583 48.472 
L 296.962583 103.220713 
Q 296.962583 105.220713 298.962583 105.220713 
z
" style="fill: #ffffff; opacity: 0.8; stroke: #cccccc; stroke-linejoin: miter"/>
    </g>
    <g id="line2d_33">
     <path d="M 300.962583 53.972 
L 310.962583 53.972 
L 320.962583 53.972 
" style="fill: none; stroke: #0000ff; stroke-width: 1.5; stroke-linecap: square"/>
    </g>
    <g id="text_17">
     <!-- Censi's cov $3\sigma$. -->
     <g transform="translate(328.962583 57.472) scale(0.1 -0.1)">
      <defs>
       <path id="CMSS17-43" d="M 3501 714 
C 3072 427 2874 344 2355 344 
C 1459 344 934 1303 934 2179 
C 934 3112 1472 4032 2381 4032 
C 2790 4032 3059 3918 3386 3715 
L 3475 4217 
C 3168 4370 2778 4440 2387 4440 
C 1158 4440 397 3316 397 2179 
C 397 927 1299 -64 2323 -64 
C 2874 -64 3066 -19 3539 280 
L 3501 714 
z
" transform="scale(0.015625)"/>
       <path id="CMSS17-65" d="M 2502 1377 
C 2502 1590 2490 2003 2285 2345 
C 2061 2713 1696 2816 1421 2816 
C 755 2816 192 2188 192 1375 
C 192 582 774 -64 1510 -64 
C 1798 -64 2150 19 2470 248 
C 2470 274 2458 414 2451 420 
C 2451 433 2432 630 2432 656 
C 2125 407 1773 325 1517 325 
C 1107 325 666 667 646 1377 
L 2502 1377 
z
M 698 1728 
C 781 2084 1062 2421 1421 2421 
C 1517 2421 1965 2421 2080 1728 
L 698 1728 
z
" transform="scale(0.015625)"/>
       <path id="CMSS17-6e" d="M 2618 1877 
C 2618 2283 2522 2816 1798 2816 
C 1389 2816 1120 2606 941 2389 
L 941 2758 
L 474 2758 
L 474 0 
L 960 0 
L 960 1559 
C 960 1964 1114 2428 1549 2428 
C 2112 2428 2131 2048 2131 1829 
L 2131 0 
L 2618 0 
L 2618 1877 
z
" transform="scale(0.015625)"/>
       <path id="CMSS17-73" d="M 2061 2627 
C 1683 2807 1389 2807 1197 2807 
C 742 2807 198 2648 198 2003 
C 198 1359 902 1218 1094 1179 
C 1389 1122 1715 1058 1715 740 
C 1715 337 1254 337 1171 337 
C 915 337 563 407 243 638 
L 166 210 
C 531 0 883 -64 1178 -64 
C 1965 -64 2163 416 2163 781 
C 2163 1094 1984 1305 1862 1401 
C 1651 1568 1574 1587 1050 1696 
C 960 1709 646 1779 646 2066 
C 646 2432 1050 2432 1139 2432 
C 1555 2432 1811 2303 1984 2208 
L 2061 2627 
z
" transform="scale(0.015625)"/>
       <path id="CMSS17-69" d="M 979 4183 
L 442 4183 
L 442 3648 
L 979 3648 
L 979 4183 
z
M 947 2739 
L 474 2739 
L 474 0 
L 947 0 
L 947 2739 
z
" transform="scale(0.015625)"/>
       <path id="CMSS17-27" d="M 1088 3910 
L 1088 4413 
L 576 4413 
L 576 3904 
L 736 3904 
L 570 3104 
L 826 3104 
L 1088 3910 
z
" transform="scale(0.015625)"/>
       <path id="CMSS17-63" d="M 2464 2541 
C 2464 2585 2170 2714 2093 2739 
C 1882 2816 1613 2816 1542 2816 
C 710 2816 211 2093 211 1363 
C 211 595 768 -64 1517 -64 
C 1946 -64 2253 76 2502 242 
L 2464 664 
C 2189 453 1869 337 1523 337 
C 1024 337 698 774 698 1369 
C 698 1831 909 2414 1549 2414 
C 1901 2414 2099 2343 2394 2145 
L 2464 2541 
z
" transform="scale(0.015625)"/>
       <path id="CMSS17-6f" d="M 2829 1356 
C 2829 2176 2221 2816 1504 2816 
C 768 2816 173 2157 173 1356 
C 173 544 787 -64 1498 -64 
C 2227 -64 2829 563 2829 1356 
z
M 1504 337 
C 1050 337 659 709 659 1408 
C 659 2151 1114 2427 1498 2427 
C 1914 2427 2342 2126 2342 1408 
C 2342 683 1926 337 1504 337 
z
" transform="scale(0.015625)"/>
       <path id="CMSS17-76" d="M 2675 2752 
L 2176 2752 
L 1747 1556 
C 1613 1165 1421 627 1389 352 
L 1382 352 
C 1370 468 1318 634 1286 749 
C 1248 890 1197 1056 1158 1172 
L 595 2752 
L 83 2752 
L 1094 0 
L 1664 0 
L 2675 2752 
z
" transform="scale(0.015625)"/>
       <path id="CMMI12-1b" d="M 3251 2408 
C 3334 2408 3546 2408 3546 2612 
C 3546 2752 3424 2752 3309 2752 
L 1894 2752 
C 934 2752 243 1686 243 932 
C 243 390 595 -64 1171 -64 
C 1926 -64 2752 747 2752 1705 
C 2752 1954 2694 2196 2541 2408 
L 3251 2408 
z
M 1178 64 
C 851 64 614 313 614 754 
C 614 1137 845 2408 1786 2408 
C 2061 2408 2368 2274 2368 1781 
C 2368 1558 2266 1021 2042 652 
C 1811 275 1466 64 1178 64 
z
" transform="scale(0.015625)"/>
       <path id="CMSS17-2e" d="M 1088 510 
L 576 510 
L 576 0 
L 1088 0 
L 1088 510 
z
" transform="scale(0.015625)"/>
      </defs>
      <use xlink:href="#CMSS17-43" transform="scale(0.996264)"/>
      <use xlink:href="#CMSS17-65" transform="translate(59.855772 0) scale(0.996264)"/>
      <use xlink:href="#CMSS17-6e" transform="translate(101.494594 0) scale(0.996264)"/>
      <use xlink:href="#CMSS17-73" transform="translate(149.699537 0) scale(0.996264)"/>
      <use xlink:href="#CMSS17-69" transform="translate(185.613079 0) scale(0.996264)"/>
      <use xlink:href="#CMSS17-27" transform="translate(207.793802 0) scale(0.996264)"/>
      <use xlink:href="#CMSS17-73" transform="translate(233.818007 0) scale(0.996264)"/>
      <use xlink:href="#CMSS17-63" transform="translate(300.960661 0) scale(0.996264)"/>
      <use xlink:href="#CMSS17-6f" transform="translate(342.599484 0) scale(0.996264)"/>
      <use xlink:href="#CMSS17-76" transform="translate(389.443107 0) scale(0.996264)"/>
      <use xlink:href="#CMR17-33" transform="translate(463.672361 0) scale(0.996264)"/>
      <use xlink:href="#CMMI12-1b" transform="translate(509.362839 0) scale(0.996264)"/>
      <use xlink:href="#CMSS17-2e" transform="translate(568.382892 0) scale(0.996264)"/>
     </g>
    </g>
    <g id="line2d_34">
     <path d="M 300.962583 67.909178 
L 310.962583 67.909178 
L 320.962583 67.909178 
" style="fill: none; stroke: #008000; stroke-width: 1.5; stroke-linecap: square"/>
    </g>
    <g id="text_18">
     <!-- Brossard's cov $3\sigma$. -->
     <g transform="translate(328.962583 71.409178) scale(0.1 -0.1)">
      <defs>
       <path id="CMSS17-42" d="M 570 4416 
L 570 0 
L 2163 0 
C 3034 0 3667 574 3667 1200 
C 3667 1685 3251 2176 2502 2317 
C 3334 2558 3501 3040 3501 3313 
C 3501 3883 2874 4416 1997 4416 
L 570 4416 
z
M 1088 2496 
L 1088 4059 
L 1824 4059 
C 2483 4059 3002 3724 3002 3306 
C 3002 2926 2592 2496 1766 2496 
L 1088 2496 
z
M 1088 357 
L 1088 2107 
L 1939 2107 
C 2630 2107 3162 1679 3162 1206 
C 3162 772 2694 357 1984 357 
L 1088 357 
z
" transform="scale(0.015625)"/>
       <path id="CMSS17-72" d="M 954 1363 
C 954 1965 1395 2368 1958 2368 
L 1958 2789 
C 1549 2789 1165 2585 934 2253 
L 934 2758 
L 480 2758 
L 480 0 
L 954 0 
L 954 1363 
z
" transform="scale(0.015625)"/>
       <path id="CMSS17-61" d="M 2406 1791 
C 2406 2392 1978 2808 1402 2808 
C 1120 2808 813 2757 461 2553 
L 499 2135 
C 659 2248 934 2432 1395 2432 
C 1722 2432 1920 2180 1920 1782 
L 1920 1536 
C 896 1536 256 1238 256 726 
C 256 461 416 -64 947 -64 
C 1043 -64 1562 -64 1933 217 
L 1933 -19 
L 2406 -19 
L 2406 1791 
z
M 1920 816 
C 1920 701 1920 548 1728 434 
C 1562 325 1350 325 1261 325 
C 941 325 723 511 723 744 
C 723 1211 1722 1211 1920 1211 
L 1920 816 
z
" transform="scale(0.015625)"/>
       <path id="CMSS17-64" d="M 2611 4416 
L 2138 4416 
L 2138 2438 
C 1939 2603 1613 2756 1254 2756 
C 672 2756 211 2131 211 1347 
C 211 562 666 -64 1235 -64 
C 1677 -64 1971 172 2125 306 
L 2125 -13 
L 2611 -13 
L 2611 4416 
z
M 2125 836 
C 2125 747 2125 653 1926 482 
C 1798 375 1645 325 1498 325 
C 1152 325 698 576 698 1340 
C 698 2134 1210 2368 1562 2368 
C 1798 2368 1990 2254 2125 2065 
L 2125 836 
z
" transform="scale(0.015625)"/>
      </defs>
      <use xlink:href="#CMSS17-42" transform="scale(0.996264)"/>
      <use xlink:href="#CMSS17-72" transform="translate(62.33804 0) scale(0.996264)"/>
      <use xlink:href="#CMSS17-6f" transform="translate(94.247813 0) scale(0.996264)"/>
      <use xlink:href="#CMSS17-73" transform="translate(141.091436 0) scale(0.996264)"/>
      <use xlink:href="#CMSS17-73" transform="translate(177.004978 0) scale(0.996264)"/>
      <use xlink:href="#CMSS17-61" transform="translate(212.91852 0) scale(0.996264)"/>
      <use xlink:href="#CMSS17-72" transform="translate(255.237987 0) scale(0.996264)"/>
      <use xlink:href="#CMSS17-64" transform="translate(287.14776 0) scale(0.996264)"/>
      <use xlink:href="#CMSS17-27" transform="translate(335.352703 0) scale(0.996264)"/>
      <use xlink:href="#CMSS17-73" transform="translate(361.376908 0) scale(0.996264)"/>
      <use xlink:href="#CMSS17-63" transform="translate(428.519562 0) scale(0.996264)"/>
      <use xlink:href="#CMSS17-6f" transform="translate(470.158384 0) scale(0.996264)"/>
      <use xlink:href="#CMSS17-76" transform="translate(517.002008 0) scale(0.996264)"/>
      <use xlink:href="#CMR17-33" transform="translate(591.231262 0) scale(0.996264)"/>
      <use xlink:href="#CMMI12-1b" transform="translate(636.921739 0) scale(0.996264)"/>
      <use xlink:href="#CMSS17-2e" transform="translate(695.941793 0) scale(0.996264)"/>
     </g>
    </g>
    <g id="line2d_35">
     <g>
      <use xlink:href="#mba7bd35f79" x="310.962583" y="81.846357" style="fill: #ff0000; stroke: #ff0000"/>
     </g>
    </g>
    <g id="text_19">
     <!-- Samples. -->
     <g transform="translate(328.962583 85.346357) scale(0.1 -0.1)">
      <defs>
       <path id="CMSS17-53" d="M 2797 4169 
C 2515 4334 2208 4480 1690 4480 
C 864 4480 333 3879 333 3266 
C 333 3025 403 2753 653 2475 
C 902 2196 1184 2121 1542 2033 
C 1690 1994 1939 1924 1984 1906 
C 2342 1767 2515 1444 2515 1140 
C 2515 742 2202 318 1645 318 
C 1453 318 890 318 358 819 
L 269 318 
C 794 -64 1363 -128 1651 -128 
C 2438 -128 3002 488 3002 1186 
C 3002 1440 2925 1763 2656 2061 
C 2394 2347 2163 2410 1638 2549 
C 1338 2626 1146 2677 986 2873 
C 877 3013 819 3146 819 3317 
C 819 3673 1126 4060 1690 4060 
C 1971 4060 2336 4002 2707 3660 
L 2797 4169 
z
" transform="scale(0.015625)"/>
       <path id="CMSS17-70" d="M 966 333 
C 1178 129 1466 -5 1773 -5 
C 2368 -5 2880 603 2880 1412 
C 2880 2159 2496 2816 1946 2816 
C 1626 2816 1242 2702 954 2472 
L 954 2765 
L 480 2765 
L 480 -1216 
L 966 -1216 
L 966 333 
z
M 966 2100 
C 1018 2176 1235 2415 1587 2415 
C 2035 2415 2394 1960 2394 1412 
C 2394 787 1958 384 1530 384 
C 1402 384 1267 415 1139 523 
C 966 674 966 768 966 857 
L 966 2100 
z
" transform="scale(0.015625)"/>
       <path id="CMSS17-6c" d="M 947 4416 
L 474 4416 
L 474 0 
L 947 0 
L 947 4416 
z
" transform="scale(0.015625)"/>
      </defs>
      <use xlink:href="#CMSS17-53" transform="scale(0.996264)"/>
      <use xlink:href="#CMSS17-61" transform="translate(52.048516 0) scale(0.996264)"/>
      <use xlink:href="#CMSS17-6d" transform="translate(96.970437 0) scale(0.996264)"/>
      <use xlink:href="#CMSS17-70" transform="translate(171.199691 0) scale(0.996264)"/>
      <use xlink:href="#CMSS17-6c" transform="translate(219.404634 0) scale(0.996264)"/>
      <use xlink:href="#CMSS17-65" transform="translate(241.585357 0) scale(0.996264)"/>
      <use xlink:href="#CMSS17-73" transform="translate(283.224179 0) scale(0.996264)"/>
      <use xlink:href="#CMSS17-2e" transform="translate(319.137721 0) scale(0.996264)"/>
     </g>
    </g>
    <g id="line2d_36">
     <path d="M 300.962583 95.783535 
L 310.962583 95.783535 
L 320.962583 95.783535 
" style="fill: none; stroke: #ff0000; stroke-width: 1.5; stroke-linecap: square"/>
    </g>
    <g id="text_20">
     <!-- Sample cov $3\sigma$. -->
     <g transform="translate(328.962583 99.283535) scale(0.1 -0.1)">
      <use xlink:href="#CMSS17-53" transform="scale(0.996264)"/>
      <use xlink:href="#CMSS17-61" transform="translate(52.048516 0) scale(0.996264)"/>
      <use xlink:href="#CMSS17-6d" transform="translate(96.970437 0) scale(0.996264)"/>
      <use xlink:href="#CMSS17-70" transform="translate(171.199691 0) scale(0.996264)"/>
      <use xlink:href="#CMSS17-6c" transform="translate(219.404634 0) scale(0.996264)"/>
      <use xlink:href="#CMSS17-65" transform="translate(241.585357 0) scale(0.996264)"/>
      <use xlink:href="#CMSS17-63" transform="translate(314.453292 0) scale(0.996264)"/>
      <use xlink:href="#CMSS17-6f" transform="translate(356.092114 0) scale(0.996264)"/>
      <use xlink:href="#CMSS17-76" transform="translate(402.935738 0) scale(0.996264)"/>
      <use xlink:href="#CMR17-33" transform="translate(477.164992 0) scale(0.996264)"/>
      <use xlink:href="#CMMI12-1b" transform="translate(522.855469 0) scale(0.996264)"/>
      <use xlink:href="#CMSS17-2e" transform="translate(581.875523 0) scale(0.996264)"/>
     </g>
    </g>
   </g>
  </g>
 </g>
 <defs>
  <clipPath id="p6f51cbb9c7">
   <rect x="57.6" y="41.472" width="357.12" height="266.112"/>
  </clipPath>
 </defs>
</svg>
