<?xml version="1.0" encoding="utf-8" standalone="no"?>
<!DOCTYPE svg PUBLIC "-//W3C//DTD SVG 1.1//EN"
  "http://www.w3.org/Graphics/SVG/1.1/DTD/svg11.dtd">
<svg xmlns:xlink="http://www.w3.org/1999/xlink" width="460.8pt" height="345.6pt" viewBox="0 0 460.8 345.6" xmlns="http://www.w3.org/2000/svg" version="1.1">
 <metadata>
  <rdf:RDF xmlns:dc="http://purl.org/dc/elements/1.1/" xmlns:cc="http://creativecommons.org/ns#" xmlns:rdf="http://www.w3.org/1999/02/22-rdf-syntax-ns#">
   <cc:Work>
    <dc:type rdf:resource="http://purl.org/dc/dcmitype/StillImage"/>
    <dc:date>2022-12-17T15:06:08.776558</dc:date>
    <dc:format>image/svg+xml</dc:format>
    <dc:creator>
     <cc:Agent>
      <dc:title>Matplotlib v3.6.0, https://matplotlib.org/</dc:title>
     </cc:Agent>
    </dc:creator>
   </cc:Work>
  </rdf:RDF>
 </metadata>
 <defs>
  <style type="text/css">*{stroke-linejoin: round; stroke-linecap: butt}</style>
 </defs>
 <g id="figure_1">
  <g id="patch_1">
   <path d="M 0 345.6 
L 460.8 345.6 
L 460.8 0 
L 0 0 
z
" style="fill: #ffffff"/>
  </g>
  <g id="axes_1">
   <g id="patch_2">
    <path d="M 57.6 307.584 
L 414.72 307.584 
L 414.72 41.472 
L 57.6 41.472 
z
" style="fill: #ffffff"/>
   </g>
   <g id="patch_3">
    <path d="M 221.368532 173.53683 
L 220.784735 172.957209 
L 220.336321 172.310794 
L 220.030364 171.60778 
L 219.871686 170.859254 
L 219.862792 170.07702 
L 220.003822 169.273414 
L 220.29255 168.461111 
L 220.724425 167.65292 
L 221.292634 166.861587 
L 221.988217 166.099592 
L 222.800204 165.378952 
L 223.71579 164.711032 
L 224.720535 164.106365 
L 225.798594 163.574488 
L 226.932965 163.123788 
L 228.105759 162.761374 
L 229.29848 162.49296 
L 230.492317 162.32278 
L 231.668444 162.253518 
L 232.808312 162.286265 
L 233.893945 162.420506 
L 234.908221 162.654123 
L 235.835146 162.983433 
L 236.6601 163.403241 
L 237.370074 163.906928 
L 237.953871 164.486549 
L 238.402284 165.132963 
L 238.708242 165.835977 
L 238.866919 166.584504 
L 238.875813 167.366738 
L 238.734784 168.170343 
L 238.446055 168.982647 
L 238.014181 169.790838 
L 237.445972 170.582171 
L 236.750389 171.344166 
L 235.938401 172.064806 
L 235.022815 172.732726 
L 234.01807 173.337393 
L 232.940011 173.86927 
L 231.80564 174.31997 
L 230.632846 174.682384 
L 229.440126 174.950798 
L 228.246289 175.120978 
L 227.070162 175.19024 
L 225.930294 175.157493 
L 224.844661 175.023252 
L 223.830384 174.789634 
L 222.90346 174.460325 
L 222.078506 174.040516 
L 221.368532 173.53683 
L 221.368532 173.53683 
z
" clip-path="url(#p553c9efeea)" style="fill: none; opacity: 0"/>
   </g>
   <g id="patch_4">
    <path d="M 205.621504 115.045502 
L 211.27758 114.24952 
L 217.218972 114.312599 
L 223.351983 115.233746 
L 229.57989 116.998432 
L 235.804477 119.578828 
L 241.927576 122.934239 
L 247.852625 127.011749 
L 253.48618 131.747052 
L 258.739398 137.065471 
L 263.529431 142.88313 
L 267.78074 149.108281 
L 271.426276 155.642751 
L 274.40855 162.383486 
L 276.680527 169.224181 
L 278.206378 176.056955 
L 278.962039 182.774051 
L 278.935594 189.269535 
L 278.127458 195.44097 
L 276.550377 201.19103 
L 274.229222 206.429031 
L 271.2006 211.072368 
L 267.512273 215.047813 
L 263.222408 218.29267 
L 258.39866 220.755766 
L 253.117102 222.398256 
L 247.461026 223.194238 
L 241.519633 223.131158 
L 235.386623 222.210012 
L 229.158715 220.445326 
L 222.934129 217.86493 
L 216.811029 214.509518 
L 210.885981 210.432009 
L 205.252426 205.696705 
L 199.999208 200.378287 
L 195.209174 194.560628 
L 190.957866 188.335477 
L 187.312329 181.801007 
L 184.330056 175.060272 
L 182.058079 168.219576 
L 180.532228 161.386802 
L 179.776566 154.669707 
L 179.803012 148.174223 
L 180.611148 142.002787 
L 182.188229 136.252728 
L 184.509384 131.014727 
L 187.538006 126.37139 
L 191.226333 122.395945 
L 195.516198 119.151088 
L 200.339946 116.687992 
L 205.621504 115.045502 
L 205.621504 115.045502 
z
" clip-path="url(#p553c9efeea)" style="fill: none; opacity: 0"/>
   </g>
   <g id="patch_5">
    <path d="M 115.546272 265.341107 
L 103.158265 256.692451 
L 92.760681 246.656446 
L 84.517497 235.391367 
L 78.558712 223.074871 
L 74.978301 209.901195 
L 73.832727 196.078096 
L 75.140059 181.823574 
L 78.879678 167.36243 
L 84.992608 152.922726 
L 93.382444 138.732184 
L 103.916875 125.014597 
L 116.429766 111.9863 
L 130.72378 99.852757 
L 146.573494 88.805321 
L 163.728946 79.018217 
L 181.919587 70.645793 
L 200.858537 63.820088 
L 220.24712 58.648747 
L 239.779564 55.213325 
L 259.147833 53.568 
L 278.046477 53.738721 
L 296.177452 55.722795 
L 313.254823 59.488932 
L 329.009269 64.977738 
L 343.192334 72.102651 
L 355.580341 80.751307 
L 365.977925 90.787311 
L 374.221109 102.05239 
L 380.179894 114.368887 
L 383.760305 127.542563 
L 384.905878 141.365661 
L 383.598547 155.620184 
L 379.858928 170.081327 
L 373.745998 184.521032 
L 365.356161 198.711574 
L 354.82173 212.429161 
L 342.30884 225.457458 
L 328.014825 237.591001 
L 312.165112 248.638437 
L 295.009659 258.425541 
L 276.819019 266.797965 
L 257.880068 273.62367 
L 238.491486 278.795011 
L 218.959041 282.230433 
L 199.590772 283.875758 
L 180.692129 283.705037 
L 162.561154 281.720963 
L 145.483783 277.954826 
L 129.729336 272.46602 
L 115.546272 265.341107 
L 115.546272 265.341107 
z
" clip-path="url(#p553c9efeea)" style="fill: none; opacity: 0"/>
   </g>
   <g id="matplotlib.axis_1">
    <g id="xtick_1">
     <g id="line2d_1">
      <path d="M 72.222774 307.584 
L 72.222774 41.472 
" clip-path="url(#p553c9efeea)" style="fill: none; stroke: #b0b0b0; stroke-width: 0.8; stroke-linecap: square"/>
     </g>
     <g id="line2d_2">
      <defs>
       <path id="md654a2c782" d="M 0 0 
L 0 3.5 
" style="stroke: #000000; stroke-width: 0.8"/>
      </defs>
      <g>
       <use xlink:href="#md654a2c782" x="72.222774" y="307.584" style="stroke: #000000; stroke-width: 0.8"/>
      </g>
     </g>
     <g id="text_1">
      <!-- $\mathdefault{−0.02}$ -->
      <g transform="translate(59.492695 321.502498) scale(0.1 -0.1)">
       <defs>
        <path id="CMSY10-0" d="M 4218 1472 
C 4326 1472 4442 1472 4442 1600 
C 4442 1728 4326 1728 4218 1728 
L 755 1728 
C 646 1728 531 1728 531 1600 
C 531 1472 646 1472 755 1472 
L 4218 1472 
z
" transform="scale(0.015625)"/>
        <path id="CMR17-30" d="M 2688 2025 
C 2688 2416 2682 3080 2413 3591 
C 2176 4039 1798 4198 1466 4198 
C 1158 4198 768 4058 525 3597 
C 269 3118 243 2524 243 2025 
C 243 1661 250 1106 448 619 
C 723 -39 1216 -128 1466 -128 
C 1760 -128 2208 -7 2470 600 
C 2662 1042 2688 1559 2688 2025 
z
M 1466 -26 
C 1056 -26 813 325 723 812 
C 653 1188 653 1738 653 2096 
C 653 2588 653 2997 736 3387 
C 858 3929 1216 4096 1466 4096 
C 1728 4096 2067 3923 2189 3400 
C 2272 3036 2278 2607 2278 2096 
C 2278 1680 2278 1169 2202 792 
C 2067 95 1690 -26 1466 -26 
z
" transform="scale(0.015625)"/>
        <path id="CMMI12-3a" d="M 1178 307 
C 1178 492 1024 619 870 619 
C 685 619 557 466 557 313 
C 557 128 710 0 864 0 
C 1050 0 1178 153 1178 307 
z
" transform="scale(0.015625)"/>
        <path id="CMR17-32" d="M 2669 989 
L 2554 989 
C 2490 536 2438 459 2413 420 
C 2381 369 1920 369 1830 369 
L 602 369 
C 832 619 1280 1072 1824 1597 
C 2214 1967 2669 2402 2669 3035 
C 2669 3790 2067 4224 1395 4224 
C 691 4224 262 3604 262 3030 
C 262 2780 448 2748 525 2748 
C 589 2748 781 2787 781 3010 
C 781 3207 614 3264 525 3264 
C 486 3264 448 3258 422 3245 
C 544 3790 915 4058 1306 4058 
C 1862 4058 2227 3617 2227 3035 
C 2227 2479 1901 2000 1536 1584 
L 262 146 
L 262 0 
L 2515 0 
L 2669 989 
z
" transform="scale(0.015625)"/>
       </defs>
       <use xlink:href="#CMSY10-0" transform="scale(0.996264)"/>
       <use xlink:href="#CMR17-30" transform="translate(77.487468 0) scale(0.996264)"/>
       <use xlink:href="#CMMI12-3a" transform="translate(123.177945 0) scale(0.996264)"/>
       <use xlink:href="#CMR17-30" transform="translate(150.275122 0) scale(0.996264)"/>
       <use xlink:href="#CMR17-32" transform="translate(195.965599 0) scale(0.996264)"/>
      </g>
     </g>
    </g>
    <g id="xtick_2">
     <g id="line2d_3">
      <path d="M 146.128592 307.584 
L 146.128592 41.472 
" clip-path="url(#p553c9efeea)" style="fill: none; stroke: #b0b0b0; stroke-width: 0.8; stroke-linecap: square"/>
     </g>
     <g id="line2d_4">
      <g>
       <use xlink:href="#md654a2c782" x="146.128592" y="307.584" style="stroke: #000000; stroke-width: 0.8"/>
      </g>
     </g>
     <g id="text_2">
      <!-- $\mathdefault{−0.01}$ -->
      <g transform="translate(133.398513 321.502498) scale(0.1 -0.1)">
       <defs>
        <path id="CMR17-31" d="M 1702 4058 
C 1702 4192 1696 4192 1606 4192 
C 1357 3916 979 3827 621 3827 
C 602 3827 570 3827 563 3808 
C 557 3795 557 3782 557 3648 
C 755 3648 1088 3686 1344 3839 
L 1344 461 
C 1344 236 1331 160 781 160 
L 589 160 
L 589 0 
C 896 0 1216 0 1523 0 
C 1830 0 2150 0 2458 0 
L 2458 160 
L 2266 160 
C 1715 160 1702 230 1702 458 
L 1702 4058 
z
" transform="scale(0.015625)"/>
       </defs>
       <use xlink:href="#CMSY10-0" transform="scale(0.996264)"/>
       <use xlink:href="#CMR17-30" transform="translate(77.487468 0) scale(0.996264)"/>
       <use xlink:href="#CMMI12-3a" transform="translate(123.177945 0) scale(0.996264)"/>
       <use xlink:href="#CMR17-30" transform="translate(150.275122 0) scale(0.996264)"/>
       <use xlink:href="#CMR17-31" transform="translate(195.965599 0) scale(0.996264)"/>
      </g>
     </g>
    </g>
    <g id="xtick_3">
     <g id="line2d_5">
      <path d="M 220.03441 307.584 
L 220.03441 41.472 
" clip-path="url(#p553c9efeea)" style="fill: none; stroke: #b0b0b0; stroke-width: 0.8; stroke-linecap: square"/>
     </g>
     <g id="line2d_6">
      <g>
       <use xlink:href="#md654a2c782" x="220.03441" y="307.584" style="stroke: #000000; stroke-width: 0.8"/>
      </g>
     </g>
     <g id="text_3">
      <!-- $\mathdefault{0.00}$ -->
      <g transform="translate(211.178703 321.502498) scale(0.1 -0.1)">
       <use xlink:href="#CMR17-30" transform="scale(0.996264)"/>
       <use xlink:href="#CMMI12-3a" transform="translate(45.690477 0) scale(0.996264)"/>
       <use xlink:href="#CMR17-30" transform="translate(72.787654 0) scale(0.996264)"/>
       <use xlink:href="#CMR17-30" transform="translate(118.478131 0) scale(0.996264)"/>
      </g>
     </g>
    </g>
    <g id="xtick_4">
     <g id="line2d_7">
      <path d="M 293.940228 307.584 
L 293.940228 41.472 
" clip-path="url(#p553c9efeea)" style="fill: none; stroke: #b0b0b0; stroke-width: 0.8; stroke-linecap: square"/>
     </g>
     <g id="line2d_8">
      <g>
       <use xlink:href="#md654a2c782" x="293.940228" y="307.584" style="stroke: #000000; stroke-width: 0.8"/>
      </g>
     </g>
     <g id="text_4">
      <!-- $\mathdefault{0.01}$ -->
      <g transform="translate(285.084521 321.502498) scale(0.1 -0.1)">
       <use xlink:href="#CMR17-30" transform="scale(0.996264)"/>
       <use xlink:href="#CMMI12-3a" transform="translate(45.690477 0) scale(0.996264)"/>
       <use xlink:href="#CMR17-30" transform="translate(72.787654 0) scale(0.996264)"/>
       <use xlink:href="#CMR17-31" transform="translate(118.478131 0) scale(0.996264)"/>
      </g>
     </g>
    </g>
    <g id="xtick_5">
     <g id="line2d_9">
      <path d="M 367.846046 307.584 
L 367.846046 41.472 
" clip-path="url(#p553c9efeea)" style="fill: none; stroke: #b0b0b0; stroke-width: 0.8; stroke-linecap: square"/>
     </g>
     <g id="line2d_10">
      <g>
       <use xlink:href="#md654a2c782" x="367.846046" y="307.584" style="stroke: #000000; stroke-width: 0.8"/>
      </g>
     </g>
     <g id="text_5">
      <!-- $\mathdefault{0.02}$ -->
      <g transform="translate(358.990339 321.502498) scale(0.1 -0.1)">
       <use xlink:href="#CMR17-30" transform="scale(0.996264)"/>
       <use xlink:href="#CMMI12-3a" transform="translate(45.690477 0) scale(0.996264)"/>
       <use xlink:href="#CMR17-30" transform="translate(72.787654 0) scale(0.996264)"/>
       <use xlink:href="#CMR17-32" transform="translate(118.478131 0) scale(0.996264)"/>
      </g>
     </g>
    </g>
    <g id="text_6">
     <!-- x [m] -->
     <g transform="translate(225.36713 334.911657) scale(0.1 -0.1)">
      <defs>
       <path id="CMSS17-78" d="M 1587 1414 
L 2656 2739 
L 2099 2739 
L 1363 1777 
L 602 2739 
L 32 2739 
L 1139 1414 
L 0 0 
L 563 0 
L 1363 1121 
L 2195 0 
L 2758 0 
L 1587 1414 
z
" transform="scale(0.015625)"/>
       <path id="CMSS17-5b" d="M 1613 -1600 
L 1613 -1212 
L 1062 -1212 
L 1062 4352 
L 1613 4352 
L 1613 4741 
L 595 4741 
L 595 -1600 
L 1613 -1600 
z
" transform="scale(0.015625)"/>
       <path id="CMSS17-6d" d="M 4288 1877 
C 4288 2308 4179 2816 3462 2816 
C 2982 2816 2694 2516 2566 2331 
C 2451 2670 2182 2816 1798 2816 
C 1363 2816 1088 2568 941 2389 
L 941 2758 
L 474 2758 
L 474 0 
L 960 0 
L 960 1559 
C 960 1939 1101 2428 1555 2428 
C 2138 2428 2138 2016 2138 1829 
L 2138 0 
L 2624 0 
L 2624 1559 
C 2624 1939 2765 2428 3219 2428 
C 3802 2428 3802 2016 3802 1829 
L 3802 0 
L 4288 0 
L 4288 1877 
z
" transform="scale(0.015625)"/>
       <path id="CMSS17-5d" d="M 1146 4741 
L 128 4741 
L 128 4352 
L 678 4352 
L 678 -1212 
L 128 -1212 
L 128 -1600 
L 1146 -1600 
L 1146 4741 
z
" transform="scale(0.015625)"/>
      </defs>
      <use xlink:href="#CMSS17-78" transform="scale(0.996264)"/>
      <use xlink:href="#CMSS17-5b" transform="translate(74.229254 0) scale(0.996264)"/>
      <use xlink:href="#CMSS17-6d" transform="translate(101.414693 0) scale(0.996264)"/>
      <use xlink:href="#CMSS17-5d" transform="translate(175.643948 0) scale(0.996264)"/>
     </g>
    </g>
   </g>
   <g id="matplotlib.axis_2">
    <g id="ytick_1">
     <g id="line2d_11">
      <path d="M 57.6 295.371714 
L 414.72 295.371714 
" clip-path="url(#p553c9efeea)" style="fill: none; stroke: #b0b0b0; stroke-width: 0.8; stroke-linecap: square"/>
     </g>
     <g id="line2d_12">
      <defs>
       <path id="ma48949d0bf" d="M 0 0 
L -3.5 0 
" style="stroke: #000000; stroke-width: 0.8"/>
      </defs>
      <g>
       <use xlink:href="#ma48949d0bf" x="57.6" y="295.371714" style="stroke: #000000; stroke-width: 0.8"/>
      </g>
     </g>
     <g id="text_7">
      <!-- $\mathdefault{−0.02}$ -->
      <g transform="translate(25.139842 298.830963) scale(0.1 -0.1)">
       <use xlink:href="#CMSY10-0" transform="scale(0.996264)"/>
       <use xlink:href="#CMR17-30" transform="translate(77.487468 0) scale(0.996264)"/>
       <use xlink:href="#CMMI12-3a" transform="translate(123.177945 0) scale(0.996264)"/>
       <use xlink:href="#CMR17-30" transform="translate(150.275122 0) scale(0.996264)"/>
       <use xlink:href="#CMR17-32" transform="translate(195.965599 0) scale(0.996264)"/>
      </g>
     </g>
    </g>
    <g id="ytick_2">
     <g id="line2d_13">
      <path d="M 57.6 242.908392 
L 414.72 242.908392 
" clip-path="url(#p553c9efeea)" style="fill: none; stroke: #b0b0b0; stroke-width: 0.8; stroke-linecap: square"/>
     </g>
     <g id="line2d_14">
      <g>
       <use xlink:href="#ma48949d0bf" x="57.6" y="242.908392" style="stroke: #000000; stroke-width: 0.8"/>
      </g>
     </g>
     <g id="text_8">
      <!-- $\mathdefault{−0.01}$ -->
      <g transform="translate(25.139842 246.367641) scale(0.1 -0.1)">
       <use xlink:href="#CMSY10-0" transform="scale(0.996264)"/>
       <use xlink:href="#CMR17-30" transform="translate(77.487468 0) scale(0.996264)"/>
       <use xlink:href="#CMMI12-3a" transform="translate(123.177945 0) scale(0.996264)"/>
       <use xlink:href="#CMR17-30" transform="translate(150.275122 0) scale(0.996264)"/>
       <use xlink:href="#CMR17-31" transform="translate(195.965599 0) scale(0.996264)"/>
      </g>
     </g>
    </g>
    <g id="ytick_3">
     <g id="line2d_15">
      <path d="M 57.6 190.44507 
L 414.72 190.44507 
" clip-path="url(#p553c9efeea)" style="fill: none; stroke: #b0b0b0; stroke-width: 0.8; stroke-linecap: square"/>
     </g>
     <g id="line2d_16">
      <g>
       <use xlink:href="#ma48949d0bf" x="57.6" y="190.44507" style="stroke: #000000; stroke-width: 0.8"/>
      </g>
     </g>
     <g id="text_9">
      <!-- $\mathdefault{0.00}$ -->
      <g transform="translate(32.888586 193.90432) scale(0.1 -0.1)">
       <use xlink:href="#CMR17-30" transform="scale(0.996264)"/>
       <use xlink:href="#CMMI12-3a" transform="translate(45.690477 0) scale(0.996264)"/>
       <use xlink:href="#CMR17-30" transform="translate(72.787654 0) scale(0.996264)"/>
       <use xlink:href="#CMR17-30" transform="translate(118.478131 0) scale(0.996264)"/>
      </g>
     </g>
    </g>
    <g id="ytick_4">
     <g id="line2d_17">
      <path d="M 57.6 137.981749 
L 414.72 137.981749 
" clip-path="url(#p553c9efeea)" style="fill: none; stroke: #b0b0b0; stroke-width: 0.8; stroke-linecap: square"/>
     </g>
     <g id="line2d_18">
      <g>
       <use xlink:href="#ma48949d0bf" x="57.6" y="137.981749" style="stroke: #000000; stroke-width: 0.8"/>
      </g>
     </g>
     <g id="text_10">
      <!-- $\mathdefault{0.01}$ -->
      <g transform="translate(32.888586 141.440998) scale(0.1 -0.1)">
       <use xlink:href="#CMR17-30" transform="scale(0.996264)"/>
       <use xlink:href="#CMMI12-3a" transform="translate(45.690477 0) scale(0.996264)"/>
       <use xlink:href="#CMR17-30" transform="translate(72.787654 0) scale(0.996264)"/>
       <use xlink:href="#CMR17-31" transform="translate(118.478131 0) scale(0.996264)"/>
      </g>
     </g>
    </g>
    <g id="ytick_5">
     <g id="line2d_19">
      <path d="M 57.6 85.518427 
L 414.72 85.518427 
" clip-path="url(#p553c9efeea)" style="fill: none; stroke: #b0b0b0; stroke-width: 0.8; stroke-linecap: square"/>
     </g>
     <g id="line2d_20">
      <g>
       <use xlink:href="#ma48949d0bf" x="57.6" y="85.518427" style="stroke: #000000; stroke-width: 0.8"/>
      </g>
     </g>
     <g id="text_11">
      <!-- $\mathdefault{0.02}$ -->
      <g transform="translate(32.888586 88.977676) scale(0.1 -0.1)">
       <use xlink:href="#CMR17-30" transform="scale(0.996264)"/>
       <use xlink:href="#CMMI12-3a" transform="translate(45.690477 0) scale(0.996264)"/>
       <use xlink:href="#CMR17-30" transform="translate(72.787654 0) scale(0.996264)"/>
       <use xlink:href="#CMR17-32" transform="translate(118.478131 0) scale(0.996264)"/>
      </g>
     </g>
    </g>
    <g id="text_12">
     <!-- y [m] -->
     <g transform="translate(18.649182 185.32087) rotate(-90) scale(0.1 -0.1)">
      <defs>
       <path id="CMSS17-79" d="M 2675 2752 
L 2176 2752 
C 1632 1294 1446 702 1434 383 
L 1427 383 
C 1408 696 1126 1460 902 2007 
L 602 2752 
L 83 2752 
L 1216 13 
C 1146 -178 1043 -465 1011 -529 
C 870 -885 774 -885 672 -885 
C 646 -885 442 -885 211 -809 
L 250 -1229 
C 410 -1261 570 -1280 685 -1280 
C 845 -1280 1165 -1280 1459 -497 
L 2675 2752 
z
" transform="scale(0.015625)"/>
      </defs>
      <use xlink:href="#CMSS17-79" transform="scale(0.996264)"/>
      <use xlink:href="#CMSS17-5b" transform="translate(74.229254 0) scale(0.996264)"/>
      <use xlink:href="#CMSS17-6d" transform="translate(101.414693 0) scale(0.996264)"/>
      <use xlink:href="#CMSS17-5d" transform="translate(175.643948 0) scale(0.996264)"/>
     </g>
    </g>
   </g>
   <g id="line2d_21">
    <path d="M 221.368532 173.53683 
L 220.784735 172.957209 
L 220.336321 172.310794 
L 220.030364 171.60778 
L 219.871686 170.859254 
L 219.862792 170.07702 
L 220.003822 169.273414 
L 220.29255 168.461111 
L 220.724425 167.65292 
L 221.292634 166.861587 
L 221.988217 166.099592 
L 222.800204 165.378952 
L 223.71579 164.711032 
L 224.720535 164.106365 
L 225.798594 163.574488 
L 226.932965 163.123788 
L 228.105759 162.761374 
L 229.29848 162.49296 
L 230.492317 162.32278 
L 231.668444 162.253518 
L 232.808312 162.286265 
L 233.893945 162.420506 
L 234.908221 162.654123 
L 235.835146 162.983433 
L 236.6601 163.403241 
L 237.370074 163.906928 
L 237.953871 164.486549 
L 238.402284 165.132963 
L 238.708242 165.835977 
L 238.866919 166.584504 
L 238.875813 167.366738 
L 238.734784 168.170343 
L 238.446055 168.982647 
L 238.014181 169.790838 
L 237.445972 170.582171 
L 236.750389 171.344166 
L 235.938401 172.064806 
L 235.022815 172.732726 
L 234.01807 173.337393 
L 232.940011 173.86927 
L 231.80564 174.31997 
L 230.632846 174.682384 
L 229.440126 174.950798 
L 228.246289 175.120978 
L 227.070162 175.19024 
L 225.930294 175.157493 
L 224.844661 175.023252 
L 223.830384 174.789634 
L 222.90346 174.460325 
L 222.078506 174.040516 
L 221.368532 173.53683 
" clip-path="url(#p553c9efeea)" style="fill: none; stroke: #0000ff; stroke-width: 1.5; stroke-linecap: square"/>
   </g>
   <g id="line2d_22">
    <path d="M 205.621504 115.045502 
L 211.27758 114.24952 
L 217.218972 114.312599 
L 223.351983 115.233746 
L 229.57989 116.998432 
L 235.804477 119.578828 
L 241.927576 122.934239 
L 247.852625 127.011749 
L 253.48618 131.747052 
L 258.739398 137.065471 
L 263.529431 142.88313 
L 267.78074 149.108281 
L 271.426276 155.642751 
L 274.40855 162.383486 
L 276.680527 169.224181 
L 278.206378 176.056955 
L 278.962039 182.774051 
L 278.935594 189.269535 
L 278.127458 195.44097 
L 276.550377 201.19103 
L 274.229222 206.429031 
L 271.2006 211.072368 
L 267.512273 215.047813 
L 263.222408 218.29267 
L 258.39866 220.755766 
L 253.117102 222.398256 
L 247.461026 223.194238 
L 241.519633 223.131158 
L 235.386623 222.210012 
L 229.158715 220.445326 
L 222.934129 217.86493 
L 216.811029 214.509518 
L 210.885981 210.432009 
L 205.252426 205.696705 
L 199.999208 200.378287 
L 195.209174 194.560628 
L 190.957866 188.335477 
L 187.312329 181.801007 
L 184.330056 175.060272 
L 182.058079 168.219576 
L 180.532228 161.386802 
L 179.776566 154.669707 
L 179.803012 148.174223 
L 180.611148 142.002787 
L 182.188229 136.252728 
L 184.509384 131.014727 
L 187.538006 126.37139 
L 191.226333 122.395945 
L 195.516198 119.151088 
L 200.339946 116.687992 
L 205.621504 115.045502 
" clip-path="url(#p553c9efeea)" style="fill: none; stroke: #008000; stroke-width: 1.5; stroke-linecap: square"/>
   </g>
   <g id="line2d_23">
    <defs>
     <path id="mf9448796d4" d="M 0 1.5 
C 0.397805 1.5 0.77937 1.341951 1.06066 1.06066 
C 1.341951 0.77937 1.5 0.397805 1.5 0 
C 1.5 -0.397805 1.341951 -0.77937 1.06066 -1.06066 
C 0.77937 -1.341951 0.397805 -1.5 0 -1.5 
C -0.397805 -1.5 -0.77937 -1.341951 -1.06066 -1.06066 
C -1.341951 -0.77937 -1.5 -0.397805 -1.5 0 
C -1.5 0.397805 -1.341951 0.77937 -1.06066 1.06066 
C -0.77937 1.341951 -0.397805 1.5 0 1.5 
z
" style="stroke: #ff0000"/>
    </defs>
    <g clip-path="url(#p553c9efeea)">
     <use xlink:href="#mf9448796d4" x="200.009787" y="104.816436" style="fill: #ff0000; stroke: #ff0000"/>
     <use xlink:href="#mf9448796d4" x="164.124055" y="163.683832" style="fill: #ff0000; stroke: #ff0000"/>
     <use xlink:href="#mf9448796d4" x="198.531286" y="164.02493" style="fill: #ff0000; stroke: #ff0000"/>
     <use xlink:href="#mf9448796d4" x="209.652962" y="170.676823" style="fill: #ff0000; stroke: #ff0000"/>
     <use xlink:href="#mf9448796d4" x="214.122064" y="149.515609" style="fill: #ff0000; stroke: #ff0000"/>
     <use xlink:href="#mf9448796d4" x="215.038421" y="168.691636" style="fill: #ff0000; stroke: #ff0000"/>
     <use xlink:href="#mf9448796d4" x="257.657397" y="134.364613" style="fill: #ff0000; stroke: #ff0000"/>
     <use xlink:href="#mf9448796d4" x="213.256646" y="129.260554" style="fill: #ff0000; stroke: #ff0000"/>
     <use xlink:href="#mf9448796d4" x="196.123229" y="157.527581" style="fill: #ff0000; stroke: #ff0000"/>
     <use xlink:href="#mf9448796d4" x="259.856545" y="184.546587" style="fill: #ff0000; stroke: #ff0000"/>
     <use xlink:href="#mf9448796d4" x="114.519296" y="205.349333" style="fill: #ff0000; stroke: #ff0000"/>
     <use xlink:href="#mf9448796d4" x="232.240757" y="141.885274" style="fill: #ff0000; stroke: #ff0000"/>
     <use xlink:href="#mf9448796d4" x="180.979873" y="139.804203" style="fill: #ff0000; stroke: #ff0000"/>
     <use xlink:href="#mf9448796d4" x="329.677317" y="154.058771" style="fill: #ff0000; stroke: #ff0000"/>
     <use xlink:href="#mf9448796d4" x="196.993755" y="273.124648" style="fill: #ff0000; stroke: #ff0000"/>
     <use xlink:href="#mf9448796d4" x="276.769171" y="174.170016" style="fill: #ff0000; stroke: #ff0000"/>
     <use xlink:href="#mf9448796d4" x="171.884278" y="235.919295" style="fill: #ff0000; stroke: #ff0000"/>
     <use xlink:href="#mf9448796d4" x="216.28292" y="143.082479" style="fill: #ff0000; stroke: #ff0000"/>
     <use xlink:href="#mf9448796d4" x="226.089781" y="135.200263" style="fill: #ff0000; stroke: #ff0000"/>
     <use xlink:href="#mf9448796d4" x="263.179144" y="159.688036" style="fill: #ff0000; stroke: #ff0000"/>
     <use xlink:href="#mf9448796d4" x="171.751409" y="220.303619" style="fill: #ff0000; stroke: #ff0000"/>
     <use xlink:href="#mf9448796d4" x="146.605779" y="189.510523" style="fill: #ff0000; stroke: #ff0000"/>
     <use xlink:href="#mf9448796d4" x="306.948893" y="139.770484" style="fill: #ff0000; stroke: #ff0000"/>
     <use xlink:href="#mf9448796d4" x="295.298405" y="135.295814" style="fill: #ff0000; stroke: #ff0000"/>
     <use xlink:href="#mf9448796d4" x="269.236482" y="174.073817" style="fill: #ff0000; stroke: #ff0000"/>
     <use xlink:href="#mf9448796d4" x="262.970766" y="154.13152" style="fill: #ff0000; stroke: #ff0000"/>
     <use xlink:href="#mf9448796d4" x="287.252669" y="226.201345" style="fill: #ff0000; stroke: #ff0000"/>
     <use xlink:href="#mf9448796d4" x="200.160308" y="205.874401" style="fill: #ff0000; stroke: #ff0000"/>
     <use xlink:href="#mf9448796d4" x="209.254499" y="198.202942" style="fill: #ff0000; stroke: #ff0000"/>
     <use xlink:href="#mf9448796d4" x="240.169131" y="186.766456" style="fill: #ff0000; stroke: #ff0000"/>
     <use xlink:href="#mf9448796d4" x="206.092524" y="149.921604" style="fill: #ff0000; stroke: #ff0000"/>
     <use xlink:href="#mf9448796d4" x="205.583702" y="165.963254" style="fill: #ff0000; stroke: #ff0000"/>
     <use xlink:href="#mf9448796d4" x="222.0949" y="119.085523" style="fill: #ff0000; stroke: #ff0000"/>
     <use xlink:href="#mf9448796d4" x="216.435332" y="115.554833" style="fill: #ff0000; stroke: #ff0000"/>
     <use xlink:href="#mf9448796d4" x="182.654138" y="149.628278" style="fill: #ff0000; stroke: #ff0000"/>
     <use xlink:href="#mf9448796d4" x="187.748144" y="173.971713" style="fill: #ff0000; stroke: #ff0000"/>
     <use xlink:href="#mf9448796d4" x="166.236045" y="115.757745" style="fill: #ff0000; stroke: #ff0000"/>
     <use xlink:href="#mf9448796d4" x="244.884148" y="186.632237" style="fill: #ff0000; stroke: #ff0000"/>
     <use xlink:href="#mf9448796d4" x="195.310794" y="145.062086" style="fill: #ff0000; stroke: #ff0000"/>
     <use xlink:href="#mf9448796d4" x="223.849184" y="202.212552" style="fill: #ff0000; stroke: #ff0000"/>
     <use xlink:href="#mf9448796d4" x="259.650319" y="166.514351" style="fill: #ff0000; stroke: #ff0000"/>
     <use xlink:href="#mf9448796d4" x="181.27155" y="207.101703" style="fill: #ff0000; stroke: #ff0000"/>
     <use xlink:href="#mf9448796d4" x="234.856554" y="198.922295" style="fill: #ff0000; stroke: #ff0000"/>
     <use xlink:href="#mf9448796d4" x="257.222946" y="168.005544" style="fill: #ff0000; stroke: #ff0000"/>
     <use xlink:href="#mf9448796d4" x="128.014115" y="191.408994" style="fill: #ff0000; stroke: #ff0000"/>
     <use xlink:href="#mf9448796d4" x="180.185092" y="110.877603" style="fill: #ff0000; stroke: #ff0000"/>
     <use xlink:href="#mf9448796d4" x="340.380056" y="194.969252" style="fill: #ff0000; stroke: #ff0000"/>
     <use xlink:href="#mf9448796d4" x="238.787586" y="295.488" style="fill: #ff0000; stroke: #ff0000"/>
     <use xlink:href="#mf9448796d4" x="196.793168" y="176.78733" style="fill: #ff0000; stroke: #ff0000"/>
     <use xlink:href="#mf9448796d4" x="321.394657" y="117.722925" style="fill: #ff0000; stroke: #ff0000"/>
     <use xlink:href="#mf9448796d4" x="346.912545" y="159.180271" style="fill: #ff0000; stroke: #ff0000"/>
     <use xlink:href="#mf9448796d4" x="197.14849" y="217.855784" style="fill: #ff0000; stroke: #ff0000"/>
     <use xlink:href="#mf9448796d4" x="312.680405" y="111.130127" style="fill: #ff0000; stroke: #ff0000"/>
     <use xlink:href="#mf9448796d4" x="305.974899" y="125.151144" style="fill: #ff0000; stroke: #ff0000"/>
     <use xlink:href="#mf9448796d4" x="197.014081" y="171.265167" style="fill: #ff0000; stroke: #ff0000"/>
     <use xlink:href="#mf9448796d4" x="268.25482" y="151.837786" style="fill: #ff0000; stroke: #ff0000"/>
     <use xlink:href="#mf9448796d4" x="219.495188" y="166.577282" style="fill: #ff0000; stroke: #ff0000"/>
     <use xlink:href="#mf9448796d4" x="244.011443" y="161.705874" style="fill: #ff0000; stroke: #ff0000"/>
     <use xlink:href="#mf9448796d4" x="245.112098" y="168.949496" style="fill: #ff0000; stroke: #ff0000"/>
     <use xlink:href="#mf9448796d4" x="260.318385" y="62.992554" style="fill: #ff0000; stroke: #ff0000"/>
     <use xlink:href="#mf9448796d4" x="201.751328" y="195.189869" style="fill: #ff0000; stroke: #ff0000"/>
     <use xlink:href="#mf9448796d4" x="217.590448" y="175.370012" style="fill: #ff0000; stroke: #ff0000"/>
     <use xlink:href="#mf9448796d4" x="132.001298" y="178.735565" style="fill: #ff0000; stroke: #ff0000"/>
     <use xlink:href="#mf9448796d4" x="255.675542" y="139.091906" style="fill: #ff0000; stroke: #ff0000"/>
     <use xlink:href="#mf9448796d4" x="148.16224" y="236.205525" style="fill: #ff0000; stroke: #ff0000"/>
     <use xlink:href="#mf9448796d4" x="267.327774" y="103.21877" style="fill: #ff0000; stroke: #ff0000"/>
     <use xlink:href="#mf9448796d4" x="170.414326" y="197.238653" style="fill: #ff0000; stroke: #ff0000"/>
     <use xlink:href="#mf9448796d4" x="205.2643" y="171.613517" style="fill: #ff0000; stroke: #ff0000"/>
     <use xlink:href="#mf9448796d4" x="254.017051" y="138.196883" style="fill: #ff0000; stroke: #ff0000"/>
     <use xlink:href="#mf9448796d4" x="160.050291" y="175.66241" style="fill: #ff0000; stroke: #ff0000"/>
     <use xlink:href="#mf9448796d4" x="211.729875" y="189.427121" style="fill: #ff0000; stroke: #ff0000"/>
     <use xlink:href="#mf9448796d4" x="324.374862" y="179.690967" style="fill: #ff0000; stroke: #ff0000"/>
     <use xlink:href="#mf9448796d4" x="230.500261" y="137.78509" style="fill: #ff0000; stroke: #ff0000"/>
     <use xlink:href="#mf9448796d4" x="231.907159" y="171.571929" style="fill: #ff0000; stroke: #ff0000"/>
     <use xlink:href="#mf9448796d4" x="274.492516" y="213.567001" style="fill: #ff0000; stroke: #ff0000"/>
     <use xlink:href="#mf9448796d4" x="201.644854" y="148.126901" style="fill: #ff0000; stroke: #ff0000"/>
     <use xlink:href="#mf9448796d4" x="331.695793" y="141.430734" style="fill: #ff0000; stroke: #ff0000"/>
     <use xlink:href="#mf9448796d4" x="228.062525" y="182.268139" style="fill: #ff0000; stroke: #ff0000"/>
     <use xlink:href="#mf9448796d4" x="214.019782" y="160.658412" style="fill: #ff0000; stroke: #ff0000"/>
     <use xlink:href="#mf9448796d4" x="270.379111" y="163.84326" style="fill: #ff0000; stroke: #ff0000"/>
     <use xlink:href="#mf9448796d4" x="198.054988" y="163.107614" style="fill: #ff0000; stroke: #ff0000"/>
     <use xlink:href="#mf9448796d4" x="224.954275" y="217.138706" style="fill: #ff0000; stroke: #ff0000"/>
     <use xlink:href="#mf9448796d4" x="262.92198" y="120.484899" style="fill: #ff0000; stroke: #ff0000"/>
     <use xlink:href="#mf9448796d4" x="193.103481" y="200.220515" style="fill: #ff0000; stroke: #ff0000"/>
     <use xlink:href="#mf9448796d4" x="251.252741" y="183.594486" style="fill: #ff0000; stroke: #ff0000"/>
     <use xlink:href="#mf9448796d4" x="317.484297" y="75.681103" style="fill: #ff0000; stroke: #ff0000"/>
     <use xlink:href="#mf9448796d4" x="398.487273" y="200.963284" style="fill: #ff0000; stroke: #ff0000"/>
     <use xlink:href="#mf9448796d4" x="152.783837" y="170.433805" style="fill: #ff0000; stroke: #ff0000"/>
     <use xlink:href="#mf9448796d4" x="226.513485" y="176.38861" style="fill: #ff0000; stroke: #ff0000"/>
     <use xlink:href="#mf9448796d4" x="170.303433" y="189.776041" style="fill: #ff0000; stroke: #ff0000"/>
     <use xlink:href="#mf9448796d4" x="273.464668" y="163.178678" style="fill: #ff0000; stroke: #ff0000"/>
     <use xlink:href="#mf9448796d4" x="184.130575" y="165.760727" style="fill: #ff0000; stroke: #ff0000"/>
     <use xlink:href="#mf9448796d4" x="224.374541" y="198.006068" style="fill: #ff0000; stroke: #ff0000"/>
     <use xlink:href="#mf9448796d4" x="215.908673" y="217.186588" style="fill: #ff0000; stroke: #ff0000"/>
     <use xlink:href="#mf9448796d4" x="242.906828" y="166.728643" style="fill: #ff0000; stroke: #ff0000"/>
     <use xlink:href="#mf9448796d4" x="216.012949" y="86.46827" style="fill: #ff0000; stroke: #ff0000"/>
     <use xlink:href="#mf9448796d4" x="239.351388" y="209.269064" style="fill: #ff0000; stroke: #ff0000"/>
     <use xlink:href="#mf9448796d4" x="210.519822" y="212.033787" style="fill: #ff0000; stroke: #ff0000"/>
     <use xlink:href="#mf9448796d4" x="234.929265" y="194.279065" style="fill: #ff0000; stroke: #ff0000"/>
     <use xlink:href="#mf9448796d4" x="310.994363" y="161.848747" style="fill: #ff0000; stroke: #ff0000"/>
    </g>
   </g>
   <g id="line2d_24">
    <path d="M 115.546272 265.341107 
L 103.158265 256.692451 
L 92.760681 246.656446 
L 84.517497 235.391367 
L 78.558712 223.074871 
L 74.978301 209.901195 
L 73.832727 196.078096 
L 75.140059 181.823574 
L 78.879678 167.36243 
L 84.992608 152.922726 
L 93.382444 138.732184 
L 103.916875 125.014597 
L 116.429766 111.9863 
L 130.72378 99.852757 
L 146.573494 88.805321 
L 163.728946 79.018217 
L 181.919587 70.645793 
L 200.858537 63.820088 
L 220.24712 58.648747 
L 239.779564 55.213325 
L 259.147833 53.568 
L 278.046477 53.738721 
L 296.177452 55.722795 
L 313.254823 59.488932 
L 329.009269 64.977738 
L 343.192334 72.102651 
L 355.580341 80.751307 
L 365.977925 90.787311 
L 374.221109 102.05239 
L 380.179894 114.368887 
L 383.760305 127.542563 
L 384.905878 141.365661 
L 383.598547 155.620184 
L 379.858928 170.081327 
L 373.745998 184.521032 
L 365.356161 198.711574 
L 354.82173 212.429161 
L 342.30884 225.457458 
L 328.014825 237.591001 
L 312.165112 248.638437 
L 295.009659 258.425541 
L 276.819019 266.797965 
L 257.880068 273.62367 
L 238.491486 278.795011 
L 218.959041 282.230433 
L 199.590772 283.875758 
L 180.692129 283.705037 
L 162.561154 281.720963 
L 145.483783 277.954826 
L 129.729336 272.46602 
L 115.546272 265.341107 
" clip-path="url(#p553c9efeea)" style="fill: none; stroke: #ff0000; stroke-width: 1.5; stroke-linecap: square"/>
   </g>
   <g id="patch_6">
    <path d="M 57.6 307.584 
L 57.6 41.472 
" style="fill: none; stroke: #000000; stroke-width: 0.8; stroke-linejoin: miter; stroke-linecap: square"/>
   </g>
   <g id="patch_7">
    <path d="M 414.72 307.584 
L 414.72 41.472 
" style="fill: none; stroke: #000000; stroke-width: 0.8; stroke-linejoin: miter; stroke-linecap: square"/>
   </g>
   <g id="patch_8">
    <path d="M 57.6 307.584 
L 414.72 307.584 
" style="fill: none; stroke: #000000; stroke-width: 0.8; stroke-linejoin: miter; stroke-linecap: square"/>
   </g>
   <g id="patch_9">
    <path d="M 57.6 41.472 
L 414.72 41.472 
" style="fill: none; stroke: #000000; stroke-width: 0.8; stroke-linejoin: miter; stroke-linecap: square"/>
   </g>
   <g id="legend_1">
    <g id="patch_10">
     <path d="M 298.962583 302.584 
L 407.72 302.584 
Q 409.72 302.584 409.72 300.584 
L 409.72 245.835287 
Q 409.72 243.835287 407.72 243.835287 
L 298.962583 243.835287 
Q 296.962583 243.835287 296.962583 245.835287 
L 296.962583 300.584 
Q 296.962583 302.584 298.962583 302.584 
z
" style="fill: #ffffff; opacity: 0.8; stroke: #cccccc; stroke-linejoin: miter"/>
    </g>
    <g id="line2d_25">
     <path d="M 300.962583 251.335287 
L 310.962583 251.335287 
L 320.962583 251.335287 
" style="fill: none; stroke: #0000ff; stroke-width: 1.5; stroke-linecap: square"/>
    </g>
    <g id="text_13">
     <!-- Censi's cov $3\sigma$. -->
     <g transform="translate(328.962583 254.835287) scale(0.1 -0.1)">
      <defs>
       <path id="CMSS17-43" d="M 3501 714 
C 3072 427 2874 344 2355 344 
C 1459 344 934 1303 934 2179 
C 934 3112 1472 4032 2381 4032 
C 2790 4032 3059 3918 3386 3715 
L 3475 4217 
C 3168 4370 2778 4440 2387 4440 
C 1158 4440 397 3316 397 2179 
C 397 927 1299 -64 2323 -64 
C 2874 -64 3066 -19 3539 280 
L 3501 714 
z
" transform="scale(0.015625)"/>
       <path id="CMSS17-65" d="M 2502 1377 
C 2502 1590 2490 2003 2285 2345 
C 2061 2713 1696 2816 1421 2816 
C 755 2816 192 2188 192 1375 
C 192 582 774 -64 1510 -64 
C 1798 -64 2150 19 2470 248 
C 2470 274 2458 414 2451 420 
C 2451 433 2432 630 2432 656 
C 2125 407 1773 325 1517 325 
C 1107 325 666 667 646 1377 
L 2502 1377 
z
M 698 1728 
C 781 2084 1062 2421 1421 2421 
C 1517 2421 1965 2421 2080 1728 
L 698 1728 
z
" transform="scale(0.015625)"/>
       <path id="CMSS17-6e" d="M 2618 1877 
C 2618 2283 2522 2816 1798 2816 
C 1389 2816 1120 2606 941 2389 
L 941 2758 
L 474 2758 
L 474 0 
L 960 0 
L 960 1559 
C 960 1964 1114 2428 1549 2428 
C 2112 2428 2131 2048 2131 1829 
L 2131 0 
L 2618 0 
L 2618 1877 
z
" transform="scale(0.015625)"/>
       <path id="CMSS17-73" d="M 2061 2627 
C 1683 2807 1389 2807 1197 2807 
C 742 2807 198 2648 198 2003 
C 198 1359 902 1218 1094 1179 
C 1389 1122 1715 1058 1715 740 
C 1715 337 1254 337 1171 337 
C 915 337 563 407 243 638 
L 166 210 
C 531 0 883 -64 1178 -64 
C 1965 -64 2163 416 2163 781 
C 2163 1094 1984 1305 1862 1401 
C 1651 1568 1574 1587 1050 1696 
C 960 1709 646 1779 646 2066 
C 646 2432 1050 2432 1139 2432 
C 1555 2432 1811 2303 1984 2208 
L 2061 2627 
z
" transform="scale(0.015625)"/>
       <path id="CMSS17-69" d="M 979 4183 
L 442 4183 
L 442 3648 
L 979 3648 
L 979 4183 
z
M 947 2739 
L 474 2739 
L 474 0 
L 947 0 
L 947 2739 
z
" transform="scale(0.015625)"/>
       <path id="CMSS17-27" d="M 1088 3910 
L 1088 4413 
L 576 4413 
L 576 3904 
L 736 3904 
L 570 3104 
L 826 3104 
L 1088 3910 
z
" transform="scale(0.015625)"/>
       <path id="CMSS17-63" d="M 2464 2541 
C 2464 2585 2170 2714 2093 2739 
C 1882 2816 1613 2816 1542 2816 
C 710 2816 211 2093 211 1363 
C 211 595 768 -64 1517 -64 
C 1946 -64 2253 76 2502 242 
L 2464 664 
C 2189 453 1869 337 1523 337 
C 1024 337 698 774 698 1369 
C 698 1831 909 2414 1549 2414 
C 1901 2414 2099 2343 2394 2145 
L 2464 2541 
z
" transform="scale(0.015625)"/>
       <path id="CMSS17-6f" d="M 2829 1356 
C 2829 2176 2221 2816 1504 2816 
C 768 2816 173 2157 173 1356 
C 173 544 787 -64 1498 -64 
C 2227 -64 2829 563 2829 1356 
z
M 1504 337 
C 1050 337 659 709 659 1408 
C 659 2151 1114 2427 1498 2427 
C 1914 2427 2342 2126 2342 1408 
C 2342 683 1926 337 1504 337 
z
" transform="scale(0.015625)"/>
       <path id="CMSS17-76" d="M 2675 2752 
L 2176 2752 
L 1747 1556 
C 1613 1165 1421 627 1389 352 
L 1382 352 
C 1370 468 1318 634 1286 749 
C 1248 890 1197 1056 1158 1172 
L 595 2752 
L 83 2752 
L 1094 0 
L 1664 0 
L 2675 2752 
z
" transform="scale(0.015625)"/>
       <path id="CMR17-33" d="M 1414 2157 
C 1984 2157 2234 1662 2234 1090 
C 2234 320 1824 25 1453 25 
C 1114 25 563 194 390 693 
C 422 680 454 680 486 680 
C 640 680 755 782 755 948 
C 755 1133 614 1216 486 1216 
C 378 1216 211 1165 211 926 
C 211 335 787 -128 1466 -128 
C 2176 -128 2720 430 2720 1085 
C 2720 1707 2208 2157 1600 2227 
C 2086 2328 2554 2756 2554 3329 
C 2554 3820 2048 4179 1472 4179 
C 890 4179 378 3829 378 3329 
C 378 3110 544 3072 627 3072 
C 762 3072 877 3155 877 3321 
C 877 3486 762 3569 627 3569 
C 602 3569 570 3569 544 3557 
C 730 3959 1235 4032 1459 4032 
C 1683 4032 2106 3925 2106 3320 
C 2106 3143 2080 2828 1862 2550 
C 1670 2304 1453 2304 1242 2284 
C 1210 2284 1062 2269 1037 2269 
C 992 2263 966 2257 966 2208 
C 966 2163 973 2157 1101 2157 
L 1414 2157 
z
" transform="scale(0.015625)"/>
       <path id="CMMI12-1b" d="M 3251 2408 
C 3334 2408 3546 2408 3546 2612 
C 3546 2752 3424 2752 3309 2752 
L 1894 2752 
C 934 2752 243 1686 243 932 
C 243 390 595 -64 1171 -64 
C 1926 -64 2752 747 2752 1705 
C 2752 1954 2694 2196 2541 2408 
L 3251 2408 
z
M 1178 64 
C 851 64 614 313 614 754 
C 614 1137 845 2408 1786 2408 
C 2061 2408 2368 2274 2368 1781 
C 2368 1558 2266 1021 2042 652 
C 1811 275 1466 64 1178 64 
z
" transform="scale(0.015625)"/>
       <path id="CMSS17-2e" d="M 1088 510 
L 576 510 
L 576 0 
L 1088 0 
L 1088 510 
z
" transform="scale(0.015625)"/>
      </defs>
      <use xlink:href="#CMSS17-43" transform="scale(0.996264)"/>
      <use xlink:href="#CMSS17-65" transform="translate(59.855772 0) scale(0.996264)"/>
      <use xlink:href="#CMSS17-6e" transform="translate(101.494594 0) scale(0.996264)"/>
      <use xlink:href="#CMSS17-73" transform="translate(149.699537 0) scale(0.996264)"/>
      <use xlink:href="#CMSS17-69" transform="translate(185.613079 0) scale(0.996264)"/>
      <use xlink:href="#CMSS17-27" transform="translate(207.793802 0) scale(0.996264)"/>
      <use xlink:href="#CMSS17-73" transform="translate(233.818007 0) scale(0.996264)"/>
      <use xlink:href="#CMSS17-63" transform="translate(300.960661 0) scale(0.996264)"/>
      <use xlink:href="#CMSS17-6f" transform="translate(342.599484 0) scale(0.996264)"/>
      <use xlink:href="#CMSS17-76" transform="translate(389.443107 0) scale(0.996264)"/>
      <use xlink:href="#CMR17-33" transform="translate(463.672361 0) scale(0.996264)"/>
      <use xlink:href="#CMMI12-1b" transform="translate(509.362839 0) scale(0.996264)"/>
      <use xlink:href="#CMSS17-2e" transform="translate(568.382892 0) scale(0.996264)"/>
     </g>
    </g>
    <g id="line2d_26">
     <path d="M 300.962583 265.272465 
L 310.962583 265.272465 
L 320.962583 265.272465 
" style="fill: none; stroke: #008000; stroke-width: 1.5; stroke-linecap: square"/>
    </g>
    <g id="text_14">
     <!-- Brossard's cov $3\sigma$. -->
     <g transform="translate(328.962583 268.772465) scale(0.1 -0.1)">
      <defs>
       <path id="CMSS17-42" d="M 570 4416 
L 570 0 
L 2163 0 
C 3034 0 3667 574 3667 1200 
C 3667 1685 3251 2176 2502 2317 
C 3334 2558 3501 3040 3501 3313 
C 3501 3883 2874 4416 1997 4416 
L 570 4416 
z
M 1088 2496 
L 1088 4059 
L 1824 4059 
C 2483 4059 3002 3724 3002 3306 
C 3002 2926 2592 2496 1766 2496 
L 1088 2496 
z
M 1088 357 
L 1088 2107 
L 1939 2107 
C 2630 2107 3162 1679 3162 1206 
C 3162 772 2694 357 1984 357 
L 1088 357 
z
" transform="scale(0.015625)"/>
       <path id="CMSS17-72" d="M 954 1363 
C 954 1965 1395 2368 1958 2368 
L 1958 2789 
C 1549 2789 1165 2585 934 2253 
L 934 2758 
L 480 2758 
L 480 0 
L 954 0 
L 954 1363 
z
" transform="scale(0.015625)"/>
       <path id="CMSS17-61" d="M 2406 1791 
C 2406 2392 1978 2808 1402 2808 
C 1120 2808 813 2757 461 2553 
L 499 2135 
C 659 2248 934 2432 1395 2432 
C 1722 2432 1920 2180 1920 1782 
L 1920 1536 
C 896 1536 256 1238 256 726 
C 256 461 416 -64 947 -64 
C 1043 -64 1562 -64 1933 217 
L 1933 -19 
L 2406 -19 
L 2406 1791 
z
M 1920 816 
C 1920 701 1920 548 1728 434 
C 1562 325 1350 325 1261 325 
C 941 325 723 511 723 744 
C 723 1211 1722 1211 1920 1211 
L 1920 816 
z
" transform="scale(0.015625)"/>
       <path id="CMSS17-64" d="M 2611 4416 
L 2138 4416 
L 2138 2438 
C 1939 2603 1613 2756 1254 2756 
C 672 2756 211 2131 211 1347 
C 211 562 666 -64 1235 -64 
C 1677 -64 1971 172 2125 306 
L 2125 -13 
L 2611 -13 
L 2611 4416 
z
M 2125 836 
C 2125 747 2125 653 1926 482 
C 1798 375 1645 325 1498 325 
C 1152 325 698 576 698 1340 
C 698 2134 1210 2368 1562 2368 
C 1798 2368 1990 2254 2125 2065 
L 2125 836 
z
" transform="scale(0.015625)"/>
      </defs>
      <use xlink:href="#CMSS17-42" transform="scale(0.996264)"/>
      <use xlink:href="#CMSS17-72" transform="translate(62.33804 0) scale(0.996264)"/>
      <use xlink:href="#CMSS17-6f" transform="translate(94.247813 0) scale(0.996264)"/>
      <use xlink:href="#CMSS17-73" transform="translate(141.091436 0) scale(0.996264)"/>
      <use xlink:href="#CMSS17-73" transform="translate(177.004978 0) scale(0.996264)"/>
      <use xlink:href="#CMSS17-61" transform="translate(212.91852 0) scale(0.996264)"/>
      <use xlink:href="#CMSS17-72" transform="translate(255.237987 0) scale(0.996264)"/>
      <use xlink:href="#CMSS17-64" transform="translate(287.14776 0) scale(0.996264)"/>
      <use xlink:href="#CMSS17-27" transform="translate(335.352703 0) scale(0.996264)"/>
      <use xlink:href="#CMSS17-73" transform="translate(361.376908 0) scale(0.996264)"/>
      <use xlink:href="#CMSS17-63" transform="translate(428.519562 0) scale(0.996264)"/>
      <use xlink:href="#CMSS17-6f" transform="translate(470.158384 0) scale(0.996264)"/>
      <use xlink:href="#CMSS17-76" transform="translate(517.002008 0) scale(0.996264)"/>
      <use xlink:href="#CMR17-33" transform="translate(591.231262 0) scale(0.996264)"/>
      <use xlink:href="#CMMI12-1b" transform="translate(636.921739 0) scale(0.996264)"/>
      <use xlink:href="#CMSS17-2e" transform="translate(695.941793 0) scale(0.996264)"/>
     </g>
    </g>
    <g id="line2d_27">
     <g>
      <use xlink:href="#mf9448796d4" x="310.962583" y="279.209643" style="fill: #ff0000; stroke: #ff0000"/>
     </g>
    </g>
    <g id="text_15">
     <!-- Samples. -->
     <g transform="translate(328.962583 282.709643) scale(0.1 -0.1)">
      <defs>
       <path id="CMSS17-53" d="M 2797 4169 
C 2515 4334 2208 4480 1690 4480 
C 864 4480 333 3879 333 3266 
C 333 3025 403 2753 653 2475 
C 902 2196 1184 2121 1542 2033 
C 1690 1994 1939 1924 1984 1906 
C 2342 1767 2515 1444 2515 1140 
C 2515 742 2202 318 1645 318 
C 1453 318 890 318 358 819 
L 269 318 
C 794 -64 1363 -128 1651 -128 
C 2438 -128 3002 488 3002 1186 
C 3002 1440 2925 1763 2656 2061 
C 2394 2347 2163 2410 1638 2549 
C 1338 2626 1146 2677 986 2873 
C 877 3013 819 3146 819 3317 
C 819 3673 1126 4060 1690 4060 
C 1971 4060 2336 4002 2707 3660 
L 2797 4169 
z
" transform="scale(0.015625)"/>
       <path id="CMSS17-70" d="M 966 333 
C 1178 129 1466 -5 1773 -5 
C 2368 -5 2880 603 2880 1412 
C 2880 2159 2496 2816 1946 2816 
C 1626 2816 1242 2702 954 2472 
L 954 2765 
L 480 2765 
L 480 -1216 
L 966 -1216 
L 966 333 
z
M 966 2100 
C 1018 2176 1235 2415 1587 2415 
C 2035 2415 2394 1960 2394 1412 
C 2394 787 1958 384 1530 384 
C 1402 384 1267 415 1139 523 
C 966 674 966 768 966 857 
L 966 2100 
z
" transform="scale(0.015625)"/>
       <path id="CMSS17-6c" d="M 947 4416 
L 474 4416 
L 474 0 
L 947 0 
L 947 4416 
z
" transform="scale(0.015625)"/>
      </defs>
      <use xlink:href="#CMSS17-53" transform="scale(0.996264)"/>
      <use xlink:href="#CMSS17-61" transform="translate(52.048516 0) scale(0.996264)"/>
      <use xlink:href="#CMSS17-6d" transform="translate(96.970437 0) scale(0.996264)"/>
      <use xlink:href="#CMSS17-70" transform="translate(171.199691 0) scale(0.996264)"/>
      <use xlink:href="#CMSS17-6c" transform="translate(219.404634 0) scale(0.996264)"/>
      <use xlink:href="#CMSS17-65" transform="translate(241.585357 0) scale(0.996264)"/>
      <use xlink:href="#CMSS17-73" transform="translate(283.224179 0) scale(0.996264)"/>
      <use xlink:href="#CMSS17-2e" transform="translate(319.137721 0) scale(0.996264)"/>
     </g>
    </g>
    <g id="line2d_28">
     <path d="M 300.962583 293.146822 
L 310.962583 293.146822 
L 320.962583 293.146822 
" style="fill: none; stroke: #ff0000; stroke-width: 1.5; stroke-linecap: square"/>
    </g>
    <g id="text_16">
     <!-- Sample cov $3\sigma$. -->
     <g transform="translate(328.962583 296.646822) scale(0.1 -0.1)">
      <use xlink:href="#CMSS17-53" transform="scale(0.996264)"/>
      <use xlink:href="#CMSS17-61" transform="translate(52.048516 0) scale(0.996264)"/>
      <use xlink:href="#CMSS17-6d" transform="translate(96.970437 0) scale(0.996264)"/>
      <use xlink:href="#CMSS17-70" transform="translate(171.199691 0) scale(0.996264)"/>
      <use xlink:href="#CMSS17-6c" transform="translate(219.404634 0) scale(0.996264)"/>
      <use xlink:href="#CMSS17-65" transform="translate(241.585357 0) scale(0.996264)"/>
      <use xlink:href="#CMSS17-63" transform="translate(314.453292 0) scale(0.996264)"/>
      <use xlink:href="#CMSS17-6f" transform="translate(356.092114 0) scale(0.996264)"/>
      <use xlink:href="#CMSS17-76" transform="translate(402.935738 0) scale(0.996264)"/>
      <use xlink:href="#CMR17-33" transform="translate(477.164992 0) scale(0.996264)"/>
      <use xlink:href="#CMMI12-1b" transform="translate(522.855469 0) scale(0.996264)"/>
      <use xlink:href="#CMSS17-2e" transform="translate(581.875523 0) scale(0.996264)"/>
     </g>
    </g>
   </g>
  </g>
 </g>
 <defs>
  <clipPath id="p553c9efeea">
   <rect x="57.6" y="41.472" width="357.12" height="266.112"/>
  </clipPath>
 </defs>
</svg>
